%FSLAX45Y45*%
G04 Gerber Fmt 4.5, Leading zero omitted, Abs format (unit mm)*
G04 Created by KiCad (PCBNEW 5.1.8-db9833491~87~ubuntu20.04.1) date 2020-11-19 10:17:28*
%MOMM*%
%LPD*%
G01*
G04 APERTURE LIST*
%TA.AperFunction,Profile*%
%ADD10C,0.279400*%
%TD*%
%ADD11C,0.200000*%
%ADD12C,0.300000*%
G04 APERTURE END LIST*
D10*
X12573000Y-12509500D02*
G75*
G02*
X11938000Y-13144500I-635000J0D01*
G01*
X5715000Y-13144500D02*
G75*
G02*
X5080000Y-12509500I0J635000D01*
G01*
X11938000Y-5080000D02*
G75*
G02*
X12573000Y-5715000I0J-635000D01*
G01*
X5080000Y-5715000D02*
G75*
G02*
X5715000Y-5080000I635000J0D01*
G01*
X5715000Y-5080000D02*
X11938000Y-5080000D01*
X5080000Y-12509500D02*
X5080000Y-5715000D01*
X11938000Y-13144500D02*
X5715000Y-13144500D01*
X12573000Y-5715000D02*
X12573000Y-12509500D01*
D11*
X6207720Y-8603360D02*
X6271220Y-8666860D01*
X6271220Y-8603360D02*
X6207720Y-8666860D01*
X6329040Y-7777840D02*
X6392540Y-7841340D01*
X6392540Y-7777840D02*
X6329040Y-7841340D01*
X6330020Y-7015020D02*
X6393520Y-7078520D01*
X6393520Y-7015020D02*
X6330020Y-7078520D01*
X8072660Y-12742900D02*
X8136160Y-12806400D01*
X8136160Y-12742900D02*
X8072660Y-12806400D01*
X8202930Y-12162990D02*
X8266430Y-12226490D01*
X8266430Y-12162990D02*
X8202930Y-12226490D01*
X8286750Y-11621710D02*
X8350250Y-11685210D01*
X8350250Y-11621710D02*
X8286750Y-11685210D01*
X8394510Y-10580130D02*
X8458010Y-10643630D01*
X8458010Y-10580130D02*
X8394510Y-10643630D01*
X8409550Y-11026040D02*
X8473050Y-11089540D01*
X8473050Y-11026040D02*
X8409550Y-11089540D01*
X8893020Y-6797010D02*
X8956520Y-6860510D01*
X8956520Y-6797010D02*
X8893020Y-6860510D01*
X8909910Y-10517050D02*
X8973410Y-10580550D01*
X8973410Y-10517050D02*
X8909910Y-10580550D01*
X8913130Y-11026580D02*
X8976630Y-11090080D01*
X8976630Y-11026580D02*
X8913130Y-11090080D01*
X8928010Y-7791850D02*
X8991510Y-7855350D01*
X8991510Y-7791850D02*
X8928010Y-7855350D01*
X8935710Y-11534480D02*
X8999210Y-11597980D01*
X8999210Y-11534480D02*
X8935710Y-11597980D01*
X9419220Y-10520620D02*
X9482720Y-10584120D01*
X9482720Y-10520620D02*
X9419220Y-10584120D01*
X9421130Y-11028140D02*
X9484630Y-11091640D01*
X9484630Y-11028140D02*
X9421130Y-11091640D01*
X9522560Y-11465710D02*
X9586060Y-11529210D01*
X9586060Y-11465710D02*
X9522560Y-11529210D01*
X11674020Y-6097780D02*
X11737520Y-6161280D01*
X11737520Y-6097780D02*
X11674020Y-6161280D01*
X10934700Y-6794500D02*
G75*
G03*
X10934700Y-6794500I-76200J0D01*
G01*
X10934700Y-7048500D02*
G75*
G03*
X10934700Y-7048500I-76200J0D01*
G01*
X5346700Y-6032500D02*
G75*
G03*
X5346700Y-6032500I-76200J0D01*
G01*
X5346700Y-6286500D02*
G75*
G03*
X5346700Y-6286500I-76200J0D01*
G01*
X8140700Y-6794500D02*
G75*
G03*
X8140700Y-6794500I-76200J0D01*
G01*
X8140700Y-7048500D02*
G75*
G03*
X8140700Y-7048500I-76200J0D01*
G01*
X8140700Y-7556500D02*
G75*
G03*
X8140700Y-7556500I-76200J0D01*
G01*
X8140700Y-7810500D02*
G75*
G03*
X8140700Y-7810500I-76200J0D01*
G01*
X5346700Y-7556500D02*
G75*
G03*
X5346700Y-7556500I-76200J0D01*
G01*
X5346700Y-7810500D02*
G75*
G03*
X5346700Y-7810500I-76200J0D01*
G01*
X10934700Y-7556500D02*
G75*
G03*
X10934700Y-7556500I-76200J0D01*
G01*
X10934700Y-7810500D02*
G75*
G03*
X10934700Y-7810500I-76200J0D01*
G01*
X10934700Y-6032500D02*
G75*
G03*
X10934700Y-6032500I-76200J0D01*
G01*
X10934700Y-6286500D02*
G75*
G03*
X10934700Y-6286500I-76200J0D01*
G01*
X8140700Y-6032500D02*
G75*
G03*
X8140700Y-6032500I-76200J0D01*
G01*
X8140700Y-6286500D02*
G75*
G03*
X8140700Y-6286500I-76200J0D01*
G01*
X5346700Y-6794500D02*
G75*
G03*
X5346700Y-6794500I-76200J0D01*
G01*
X5346700Y-7048500D02*
G75*
G03*
X5346700Y-7048500I-76200J0D01*
G01*
X10096500Y-9574530D02*
X10096500Y-9729470D01*
X10019030Y-9652000D02*
X10173970Y-9652000D01*
X10096500Y-9828530D02*
X10096500Y-9983470D01*
X10019030Y-9906000D02*
X10173970Y-9906000D01*
X10096500Y-10082530D02*
X10096500Y-10237470D01*
X10019030Y-10160000D02*
X10173970Y-10160000D01*
X10096500Y-10336530D02*
X10096500Y-10491470D01*
X10019030Y-10414000D02*
X10173970Y-10414000D01*
X10096500Y-10590530D02*
X10096500Y-10745470D01*
X10019030Y-10668000D02*
X10173970Y-10668000D01*
X10096500Y-10844530D02*
X10096500Y-10999470D01*
X10019030Y-10922000D02*
X10173970Y-10922000D01*
X10096500Y-11098530D02*
X10096500Y-11253470D01*
X10019030Y-11176000D02*
X10173970Y-11176000D01*
X10096500Y-11352530D02*
X10096500Y-11507470D01*
X10019030Y-11430000D02*
X10173970Y-11430000D01*
X10096500Y-11606530D02*
X10096500Y-11761470D01*
X10019030Y-11684000D02*
X10173970Y-11684000D01*
X10096500Y-11860530D02*
X10096500Y-12015470D01*
X10019030Y-11938000D02*
X10173970Y-11938000D01*
X10096500Y-12114530D02*
X10096500Y-12269470D01*
X10019030Y-12192000D02*
X10173970Y-12192000D01*
X10096500Y-12368530D02*
X10096500Y-12523470D01*
X10019030Y-12446000D02*
X10173970Y-12446000D01*
X10096500Y-12622530D02*
X10096500Y-12777470D01*
X10019030Y-12700000D02*
X10173970Y-12700000D01*
X10096500Y-12876530D02*
X10096500Y-13031470D01*
X10019030Y-12954000D02*
X10173970Y-12954000D01*
X11620500Y-9574530D02*
X11620500Y-9729470D01*
X11543030Y-9652000D02*
X11697970Y-9652000D01*
X11620500Y-9828530D02*
X11620500Y-9983470D01*
X11543030Y-9906000D02*
X11697970Y-9906000D01*
X11620500Y-10082530D02*
X11620500Y-10237470D01*
X11543030Y-10160000D02*
X11697970Y-10160000D01*
X11620500Y-10336530D02*
X11620500Y-10491470D01*
X11543030Y-10414000D02*
X11697970Y-10414000D01*
X11620500Y-10590530D02*
X11620500Y-10745470D01*
X11543030Y-10668000D02*
X11697970Y-10668000D01*
X11620500Y-10844530D02*
X11620500Y-10999470D01*
X11543030Y-10922000D02*
X11697970Y-10922000D01*
X11620500Y-11098530D02*
X11620500Y-11253470D01*
X11543030Y-11176000D02*
X11697970Y-11176000D01*
X11620500Y-11352530D02*
X11620500Y-11507470D01*
X11543030Y-11430000D02*
X11697970Y-11430000D01*
X11620500Y-11606530D02*
X11620500Y-11761470D01*
X11543030Y-11684000D02*
X11697970Y-11684000D01*
X11620500Y-11860530D02*
X11620500Y-12015470D01*
X11543030Y-11938000D02*
X11697970Y-11938000D01*
X11620500Y-12114530D02*
X11620500Y-12269470D01*
X11543030Y-12192000D02*
X11697970Y-12192000D01*
X11620500Y-12368530D02*
X11620500Y-12523470D01*
X11543030Y-12446000D02*
X11697970Y-12446000D01*
X11620500Y-12622530D02*
X11620500Y-12777470D01*
X11543030Y-12700000D02*
X11697970Y-12700000D01*
X11620500Y-12876530D02*
X11620500Y-13031470D01*
X11543030Y-12954000D02*
X11697970Y-12954000D01*
X6865211Y-12788211D02*
X6865211Y-12646789D01*
X6723789Y-12646789D01*
X6723789Y-12788211D01*
X6865211Y-12788211D01*
X6477000Y-5816600D02*
X6642100Y-5651500D01*
X6477000Y-5486400D01*
X6311900Y-5651500D01*
X6477000Y-5816600D01*
X9271000Y-8674100D02*
X9436100Y-8509000D01*
X9271000Y-8343900D01*
X9105900Y-8509000D01*
X9271000Y-8674100D01*
X12065000Y-5816600D02*
X12230100Y-5651500D01*
X12065000Y-5486400D01*
X11899900Y-5651500D01*
X12065000Y-5816600D01*
D12*
X5352458Y-13624184D02*
X5352458Y-13324184D01*
X5423887Y-13324184D01*
X5466744Y-13338470D01*
X5495316Y-13367041D01*
X5509601Y-13395613D01*
X5523887Y-13452756D01*
X5523887Y-13495613D01*
X5509601Y-13552756D01*
X5495316Y-13581327D01*
X5466744Y-13609899D01*
X5423887Y-13624184D01*
X5352458Y-13624184D01*
X5652458Y-13624184D02*
X5652458Y-13424184D01*
X5652458Y-13481327D02*
X5666744Y-13452756D01*
X5681030Y-13438470D01*
X5709601Y-13424184D01*
X5738173Y-13424184D01*
X5838173Y-13624184D02*
X5838173Y-13424184D01*
X5838173Y-13324184D02*
X5823887Y-13338470D01*
X5838173Y-13352756D01*
X5852458Y-13338470D01*
X5838173Y-13324184D01*
X5838173Y-13352756D01*
X6023887Y-13624184D02*
X5995316Y-13609899D01*
X5981030Y-13581327D01*
X5981030Y-13324184D01*
X6181030Y-13624184D02*
X6152458Y-13609899D01*
X6138173Y-13581327D01*
X6138173Y-13324184D01*
X6523887Y-13624184D02*
X6523887Y-13324184D01*
X6623887Y-13538470D01*
X6723887Y-13324184D01*
X6723887Y-13624184D01*
X6995316Y-13624184D02*
X6995316Y-13467041D01*
X6981030Y-13438470D01*
X6952458Y-13424184D01*
X6895316Y-13424184D01*
X6866744Y-13438470D01*
X6995316Y-13609899D02*
X6966744Y-13624184D01*
X6895316Y-13624184D01*
X6866744Y-13609899D01*
X6852458Y-13581327D01*
X6852458Y-13552756D01*
X6866744Y-13524184D01*
X6895316Y-13509899D01*
X6966744Y-13509899D01*
X6995316Y-13495613D01*
X7138173Y-13424184D02*
X7138173Y-13724184D01*
X7138173Y-13438470D02*
X7166744Y-13424184D01*
X7223887Y-13424184D01*
X7252458Y-13438470D01*
X7266744Y-13452756D01*
X7281030Y-13481327D01*
X7281030Y-13567041D01*
X7266744Y-13595613D01*
X7252458Y-13609899D01*
X7223887Y-13624184D01*
X7166744Y-13624184D01*
X7138173Y-13609899D01*
X7409601Y-13595613D02*
X7423887Y-13609899D01*
X7409601Y-13624184D01*
X7395316Y-13609899D01*
X7409601Y-13595613D01*
X7409601Y-13624184D01*
X7409601Y-13438470D02*
X7423887Y-13452756D01*
X7409601Y-13467041D01*
X7395316Y-13452756D01*
X7409601Y-13438470D01*
X7409601Y-13467041D01*
X5002530Y-14086720D02*
X5066030Y-14150220D01*
X5066030Y-14086720D02*
X5002530Y-14150220D01*
X5409601Y-13954184D02*
X5438173Y-13954184D01*
X5466744Y-13968470D01*
X5481030Y-13982756D01*
X5495316Y-14011327D01*
X5509601Y-14068470D01*
X5509601Y-14139899D01*
X5495316Y-14197041D01*
X5481030Y-14225613D01*
X5466744Y-14239899D01*
X5438173Y-14254184D01*
X5409601Y-14254184D01*
X5381030Y-14239899D01*
X5366744Y-14225613D01*
X5352458Y-14197041D01*
X5338173Y-14139899D01*
X5338173Y-14068470D01*
X5352458Y-14011327D01*
X5366744Y-13982756D01*
X5381030Y-13968470D01*
X5409601Y-13954184D01*
X5638173Y-14225613D02*
X5652458Y-14239899D01*
X5638173Y-14254184D01*
X5623887Y-14239899D01*
X5638173Y-14225613D01*
X5638173Y-14254184D01*
X5909601Y-13954184D02*
X5852458Y-13954184D01*
X5823887Y-13968470D01*
X5809601Y-13982756D01*
X5781030Y-14025613D01*
X5766744Y-14082756D01*
X5766744Y-14197041D01*
X5781030Y-14225613D01*
X5795316Y-14239899D01*
X5823887Y-14254184D01*
X5881030Y-14254184D01*
X5909601Y-14239899D01*
X5923887Y-14225613D01*
X5938173Y-14197041D01*
X5938173Y-14125613D01*
X5923887Y-14097041D01*
X5909601Y-14082756D01*
X5881030Y-14068470D01*
X5823887Y-14068470D01*
X5795316Y-14082756D01*
X5781030Y-14097041D01*
X5766744Y-14125613D01*
X6195316Y-14054184D02*
X6195316Y-14254184D01*
X6123887Y-13939899D02*
X6052458Y-14154184D01*
X6238173Y-14154184D01*
X6352458Y-14254184D02*
X6352458Y-14054184D01*
X6352458Y-14082756D02*
X6366744Y-14068470D01*
X6395316Y-14054184D01*
X6438173Y-14054184D01*
X6466744Y-14068470D01*
X6481030Y-14097041D01*
X6481030Y-14254184D01*
X6481030Y-14097041D02*
X6495316Y-14068470D01*
X6523887Y-14054184D01*
X6566744Y-14054184D01*
X6595316Y-14068470D01*
X6609601Y-14097041D01*
X6609601Y-14254184D01*
X6752458Y-14254184D02*
X6752458Y-14054184D01*
X6752458Y-14082756D02*
X6766744Y-14068470D01*
X6795316Y-14054184D01*
X6838173Y-14054184D01*
X6866744Y-14068470D01*
X6881030Y-14097041D01*
X6881030Y-14254184D01*
X6881030Y-14097041D02*
X6895316Y-14068470D01*
X6923887Y-14054184D01*
X6966744Y-14054184D01*
X6995316Y-14068470D01*
X7009601Y-14097041D01*
X7009601Y-14254184D01*
X7595316Y-13939899D02*
X7338173Y-14325613D01*
X7981030Y-13954184D02*
X8009601Y-13954184D01*
X8038173Y-13968470D01*
X8052458Y-13982756D01*
X8066744Y-14011327D01*
X8081030Y-14068470D01*
X8081030Y-14139899D01*
X8066744Y-14197041D01*
X8052458Y-14225613D01*
X8038173Y-14239899D01*
X8009601Y-14254184D01*
X7981030Y-14254184D01*
X7952458Y-14239899D01*
X7938173Y-14225613D01*
X7923887Y-14197041D01*
X7909601Y-14139899D01*
X7909601Y-14068470D01*
X7923887Y-14011327D01*
X7938173Y-13982756D01*
X7952458Y-13968470D01*
X7981030Y-13954184D01*
X8209601Y-14225613D02*
X8223887Y-14239899D01*
X8209601Y-14254184D01*
X8195316Y-14239899D01*
X8209601Y-14225613D01*
X8209601Y-14254184D01*
X8409601Y-13954184D02*
X8438173Y-13954184D01*
X8466744Y-13968470D01*
X8481030Y-13982756D01*
X8495316Y-14011327D01*
X8509601Y-14068470D01*
X8509601Y-14139899D01*
X8495316Y-14197041D01*
X8481030Y-14225613D01*
X8466744Y-14239899D01*
X8438173Y-14254184D01*
X8409601Y-14254184D01*
X8381030Y-14239899D01*
X8366744Y-14225613D01*
X8352458Y-14197041D01*
X8338173Y-14139899D01*
X8338173Y-14068470D01*
X8352458Y-14011327D01*
X8366744Y-13982756D01*
X8381030Y-13968470D01*
X8409601Y-13954184D01*
X8623887Y-13982756D02*
X8638173Y-13968470D01*
X8666744Y-13954184D01*
X8738173Y-13954184D01*
X8766744Y-13968470D01*
X8781030Y-13982756D01*
X8795316Y-14011327D01*
X8795316Y-14039899D01*
X8781030Y-14082756D01*
X8609601Y-14254184D01*
X8795316Y-14254184D01*
X9066744Y-13954184D02*
X8923887Y-13954184D01*
X8909601Y-14097041D01*
X8923887Y-14082756D01*
X8952458Y-14068470D01*
X9023887Y-14068470D01*
X9052458Y-14082756D01*
X9066744Y-14097041D01*
X9081030Y-14125613D01*
X9081030Y-14197041D01*
X9066744Y-14225613D01*
X9052458Y-14239899D01*
X9023887Y-14254184D01*
X8952458Y-14254184D01*
X8923887Y-14239899D01*
X8909601Y-14225613D01*
X9195316Y-13954184D02*
X9195316Y-14011327D01*
X9309601Y-13954184D02*
X9309601Y-14011327D01*
X9752458Y-14368470D02*
X9738173Y-14354184D01*
X9709601Y-14311327D01*
X9695316Y-14282756D01*
X9681030Y-14239899D01*
X9666744Y-14168470D01*
X9666744Y-14111327D01*
X9681030Y-14039899D01*
X9695316Y-13997041D01*
X9709601Y-13968470D01*
X9738173Y-13925613D01*
X9752458Y-13911327D01*
X10023887Y-14254184D02*
X9852458Y-14254184D01*
X9938173Y-14254184D02*
X9938173Y-13954184D01*
X9909601Y-13997041D01*
X9881030Y-14025613D01*
X9852458Y-14039899D01*
X10123887Y-13954184D02*
X10323887Y-13954184D01*
X10195316Y-14254184D01*
X10666744Y-14254184D02*
X10666744Y-13954184D01*
X10795316Y-14254184D02*
X10795316Y-14097041D01*
X10781030Y-14068470D01*
X10752458Y-14054184D01*
X10709601Y-14054184D01*
X10681030Y-14068470D01*
X10666744Y-14082756D01*
X10981030Y-14254184D02*
X10952458Y-14239899D01*
X10938173Y-14225613D01*
X10923887Y-14197041D01*
X10923887Y-14111327D01*
X10938173Y-14082756D01*
X10952458Y-14068470D01*
X10981030Y-14054184D01*
X11023887Y-14054184D01*
X11052458Y-14068470D01*
X11066744Y-14082756D01*
X11081030Y-14111327D01*
X11081030Y-14197041D01*
X11066744Y-14225613D01*
X11052458Y-14239899D01*
X11023887Y-14254184D01*
X10981030Y-14254184D01*
X11252458Y-14254184D02*
X11223887Y-14239899D01*
X11209601Y-14211327D01*
X11209601Y-13954184D01*
X11481030Y-14239899D02*
X11452458Y-14254184D01*
X11395316Y-14254184D01*
X11366744Y-14239899D01*
X11352458Y-14211327D01*
X11352458Y-14097041D01*
X11366744Y-14068470D01*
X11395316Y-14054184D01*
X11452458Y-14054184D01*
X11481030Y-14068470D01*
X11495316Y-14097041D01*
X11495316Y-14125613D01*
X11352458Y-14154184D01*
X11609601Y-14239899D02*
X11638173Y-14254184D01*
X11695316Y-14254184D01*
X11723887Y-14239899D01*
X11738173Y-14211327D01*
X11738173Y-14197041D01*
X11723887Y-14168470D01*
X11695316Y-14154184D01*
X11652458Y-14154184D01*
X11623887Y-14139899D01*
X11609601Y-14111327D01*
X11609601Y-14097041D01*
X11623887Y-14068470D01*
X11652458Y-14054184D01*
X11695316Y-14054184D01*
X11723887Y-14068470D01*
X11838173Y-14368470D02*
X11852458Y-14354184D01*
X11881030Y-14311327D01*
X11895316Y-14282756D01*
X11909601Y-14239899D01*
X11923887Y-14168470D01*
X11923887Y-14111327D01*
X11909601Y-14039899D01*
X11895316Y-13997041D01*
X11881030Y-13968470D01*
X11852458Y-13925613D01*
X11838173Y-13911327D01*
X5066030Y-14514470D02*
G75*
G03*
X5066030Y-14514470I-76200J0D01*
G01*
X5509601Y-14650184D02*
X5338173Y-14650184D01*
X5423887Y-14650184D02*
X5423887Y-14350184D01*
X5395316Y-14393041D01*
X5366744Y-14421613D01*
X5338173Y-14435899D01*
X5638173Y-14621613D02*
X5652458Y-14635899D01*
X5638173Y-14650184D01*
X5623887Y-14635899D01*
X5638173Y-14621613D01*
X5638173Y-14650184D01*
X5923887Y-14350184D02*
X5781030Y-14350184D01*
X5766744Y-14493041D01*
X5781030Y-14478756D01*
X5809601Y-14464470D01*
X5881030Y-14464470D01*
X5909601Y-14478756D01*
X5923887Y-14493041D01*
X5938173Y-14521613D01*
X5938173Y-14593041D01*
X5923887Y-14621613D01*
X5909601Y-14635899D01*
X5881030Y-14650184D01*
X5809601Y-14650184D01*
X5781030Y-14635899D01*
X5766744Y-14621613D01*
X6052458Y-14378756D02*
X6066744Y-14364470D01*
X6095316Y-14350184D01*
X6166744Y-14350184D01*
X6195316Y-14364470D01*
X6209601Y-14378756D01*
X6223887Y-14407327D01*
X6223887Y-14435899D01*
X6209601Y-14478756D01*
X6038173Y-14650184D01*
X6223887Y-14650184D01*
X6352458Y-14650184D02*
X6352458Y-14450184D01*
X6352458Y-14478756D02*
X6366744Y-14464470D01*
X6395316Y-14450184D01*
X6438173Y-14450184D01*
X6466744Y-14464470D01*
X6481030Y-14493041D01*
X6481030Y-14650184D01*
X6481030Y-14493041D02*
X6495316Y-14464470D01*
X6523887Y-14450184D01*
X6566744Y-14450184D01*
X6595316Y-14464470D01*
X6609601Y-14493041D01*
X6609601Y-14650184D01*
X6752458Y-14650184D02*
X6752458Y-14450184D01*
X6752458Y-14478756D02*
X6766744Y-14464470D01*
X6795316Y-14450184D01*
X6838173Y-14450184D01*
X6866744Y-14464470D01*
X6881030Y-14493041D01*
X6881030Y-14650184D01*
X6881030Y-14493041D02*
X6895316Y-14464470D01*
X6923887Y-14450184D01*
X6966744Y-14450184D01*
X6995316Y-14464470D01*
X7009601Y-14493041D01*
X7009601Y-14650184D01*
X7595316Y-14335899D02*
X7338173Y-14721613D01*
X7981030Y-14350184D02*
X8009601Y-14350184D01*
X8038173Y-14364470D01*
X8052458Y-14378756D01*
X8066744Y-14407327D01*
X8081030Y-14464470D01*
X8081030Y-14535899D01*
X8066744Y-14593041D01*
X8052458Y-14621613D01*
X8038173Y-14635899D01*
X8009601Y-14650184D01*
X7981030Y-14650184D01*
X7952458Y-14635899D01*
X7938173Y-14621613D01*
X7923887Y-14593041D01*
X7909601Y-14535899D01*
X7909601Y-14464470D01*
X7923887Y-14407327D01*
X7938173Y-14378756D01*
X7952458Y-14364470D01*
X7981030Y-14350184D01*
X8209601Y-14621613D02*
X8223887Y-14635899D01*
X8209601Y-14650184D01*
X8195316Y-14635899D01*
X8209601Y-14621613D01*
X8209601Y-14650184D01*
X8409601Y-14350184D02*
X8438173Y-14350184D01*
X8466744Y-14364470D01*
X8481030Y-14378756D01*
X8495316Y-14407327D01*
X8509601Y-14464470D01*
X8509601Y-14535899D01*
X8495316Y-14593041D01*
X8481030Y-14621613D01*
X8466744Y-14635899D01*
X8438173Y-14650184D01*
X8409601Y-14650184D01*
X8381030Y-14635899D01*
X8366744Y-14621613D01*
X8352458Y-14593041D01*
X8338173Y-14535899D01*
X8338173Y-14464470D01*
X8352458Y-14407327D01*
X8366744Y-14378756D01*
X8381030Y-14364470D01*
X8409601Y-14350184D01*
X8766744Y-14350184D02*
X8709601Y-14350184D01*
X8681030Y-14364470D01*
X8666744Y-14378756D01*
X8638173Y-14421613D01*
X8623887Y-14478756D01*
X8623887Y-14593041D01*
X8638173Y-14621613D01*
X8652458Y-14635899D01*
X8681030Y-14650184D01*
X8738173Y-14650184D01*
X8766744Y-14635899D01*
X8781030Y-14621613D01*
X8795316Y-14593041D01*
X8795316Y-14521613D01*
X8781030Y-14493041D01*
X8766744Y-14478756D01*
X8738173Y-14464470D01*
X8681030Y-14464470D01*
X8652458Y-14478756D01*
X8638173Y-14493041D01*
X8623887Y-14521613D01*
X8981030Y-14350184D02*
X9009601Y-14350184D01*
X9038173Y-14364470D01*
X9052458Y-14378756D01*
X9066744Y-14407327D01*
X9081030Y-14464470D01*
X9081030Y-14535899D01*
X9066744Y-14593041D01*
X9052458Y-14621613D01*
X9038173Y-14635899D01*
X9009601Y-14650184D01*
X8981030Y-14650184D01*
X8952458Y-14635899D01*
X8938173Y-14621613D01*
X8923887Y-14593041D01*
X8909601Y-14535899D01*
X8909601Y-14464470D01*
X8923887Y-14407327D01*
X8938173Y-14378756D01*
X8952458Y-14364470D01*
X8981030Y-14350184D01*
X9195316Y-14350184D02*
X9195316Y-14407327D01*
X9309601Y-14350184D02*
X9309601Y-14407327D01*
X9752458Y-14764470D02*
X9738173Y-14750184D01*
X9709601Y-14707327D01*
X9695316Y-14678756D01*
X9681030Y-14635899D01*
X9666744Y-14564470D01*
X9666744Y-14507327D01*
X9681030Y-14435899D01*
X9695316Y-14393041D01*
X9709601Y-14364470D01*
X9738173Y-14321613D01*
X9752458Y-14307327D01*
X10023887Y-14650184D02*
X9852458Y-14650184D01*
X9938173Y-14650184D02*
X9938173Y-14350184D01*
X9909601Y-14393041D01*
X9881030Y-14421613D01*
X9852458Y-14435899D01*
X10195316Y-14478756D02*
X10166744Y-14464470D01*
X10152458Y-14450184D01*
X10138173Y-14421613D01*
X10138173Y-14407327D01*
X10152458Y-14378756D01*
X10166744Y-14364470D01*
X10195316Y-14350184D01*
X10252458Y-14350184D01*
X10281030Y-14364470D01*
X10295316Y-14378756D01*
X10309601Y-14407327D01*
X10309601Y-14421613D01*
X10295316Y-14450184D01*
X10281030Y-14464470D01*
X10252458Y-14478756D01*
X10195316Y-14478756D01*
X10166744Y-14493041D01*
X10152458Y-14507327D01*
X10138173Y-14535899D01*
X10138173Y-14593041D01*
X10152458Y-14621613D01*
X10166744Y-14635899D01*
X10195316Y-14650184D01*
X10252458Y-14650184D01*
X10281030Y-14635899D01*
X10295316Y-14621613D01*
X10309601Y-14593041D01*
X10309601Y-14535899D01*
X10295316Y-14507327D01*
X10281030Y-14493041D01*
X10252458Y-14478756D01*
X10666744Y-14650184D02*
X10666744Y-14350184D01*
X10795316Y-14650184D02*
X10795316Y-14493041D01*
X10781030Y-14464470D01*
X10752458Y-14450184D01*
X10709601Y-14450184D01*
X10681030Y-14464470D01*
X10666744Y-14478756D01*
X10981030Y-14650184D02*
X10952458Y-14635899D01*
X10938173Y-14621613D01*
X10923887Y-14593041D01*
X10923887Y-14507327D01*
X10938173Y-14478756D01*
X10952458Y-14464470D01*
X10981030Y-14450184D01*
X11023887Y-14450184D01*
X11052458Y-14464470D01*
X11066744Y-14478756D01*
X11081030Y-14507327D01*
X11081030Y-14593041D01*
X11066744Y-14621613D01*
X11052458Y-14635899D01*
X11023887Y-14650184D01*
X10981030Y-14650184D01*
X11252458Y-14650184D02*
X11223887Y-14635899D01*
X11209601Y-14607327D01*
X11209601Y-14350184D01*
X11481030Y-14635899D02*
X11452458Y-14650184D01*
X11395316Y-14650184D01*
X11366744Y-14635899D01*
X11352458Y-14607327D01*
X11352458Y-14493041D01*
X11366744Y-14464470D01*
X11395316Y-14450184D01*
X11452458Y-14450184D01*
X11481030Y-14464470D01*
X11495316Y-14493041D01*
X11495316Y-14521613D01*
X11352458Y-14550184D01*
X11609601Y-14635899D02*
X11638173Y-14650184D01*
X11695316Y-14650184D01*
X11723887Y-14635899D01*
X11738173Y-14607327D01*
X11738173Y-14593041D01*
X11723887Y-14564470D01*
X11695316Y-14550184D01*
X11652458Y-14550184D01*
X11623887Y-14535899D01*
X11609601Y-14507327D01*
X11609601Y-14493041D01*
X11623887Y-14464470D01*
X11652458Y-14450184D01*
X11695316Y-14450184D01*
X11723887Y-14464470D01*
X11838173Y-14764470D02*
X11852458Y-14750184D01*
X11881030Y-14707327D01*
X11895316Y-14678756D01*
X11909601Y-14635899D01*
X11923887Y-14564470D01*
X11923887Y-14507327D01*
X11909601Y-14435899D01*
X11895316Y-14393041D01*
X11881030Y-14364470D01*
X11852458Y-14321613D01*
X11838173Y-14307327D01*
X4988560Y-14833000D02*
X4988560Y-14987940D01*
X4911090Y-14910470D02*
X5066030Y-14910470D01*
X5509601Y-15046184D02*
X5338173Y-15046184D01*
X5423887Y-15046184D02*
X5423887Y-14746184D01*
X5395316Y-14789041D01*
X5366744Y-14817613D01*
X5338173Y-14831899D01*
X5638173Y-15017613D02*
X5652458Y-15031899D01*
X5638173Y-15046184D01*
X5623887Y-15031899D01*
X5638173Y-15017613D01*
X5638173Y-15046184D01*
X5923887Y-14746184D02*
X5781030Y-14746184D01*
X5766744Y-14889041D01*
X5781030Y-14874756D01*
X5809601Y-14860470D01*
X5881030Y-14860470D01*
X5909601Y-14874756D01*
X5923887Y-14889041D01*
X5938173Y-14917613D01*
X5938173Y-14989041D01*
X5923887Y-15017613D01*
X5909601Y-15031899D01*
X5881030Y-15046184D01*
X5809601Y-15046184D01*
X5781030Y-15031899D01*
X5766744Y-15017613D01*
X6209601Y-14746184D02*
X6066744Y-14746184D01*
X6052458Y-14889041D01*
X6066744Y-14874756D01*
X6095316Y-14860470D01*
X6166744Y-14860470D01*
X6195316Y-14874756D01*
X6209601Y-14889041D01*
X6223887Y-14917613D01*
X6223887Y-14989041D01*
X6209601Y-15017613D01*
X6195316Y-15031899D01*
X6166744Y-15046184D01*
X6095316Y-15046184D01*
X6066744Y-15031899D01*
X6052458Y-15017613D01*
X6352458Y-15046184D02*
X6352458Y-14846184D01*
X6352458Y-14874756D02*
X6366744Y-14860470D01*
X6395316Y-14846184D01*
X6438173Y-14846184D01*
X6466744Y-14860470D01*
X6481030Y-14889041D01*
X6481030Y-15046184D01*
X6481030Y-14889041D02*
X6495316Y-14860470D01*
X6523887Y-14846184D01*
X6566744Y-14846184D01*
X6595316Y-14860470D01*
X6609601Y-14889041D01*
X6609601Y-15046184D01*
X6752458Y-15046184D02*
X6752458Y-14846184D01*
X6752458Y-14874756D02*
X6766744Y-14860470D01*
X6795316Y-14846184D01*
X6838173Y-14846184D01*
X6866744Y-14860470D01*
X6881030Y-14889041D01*
X6881030Y-15046184D01*
X6881030Y-14889041D02*
X6895316Y-14860470D01*
X6923887Y-14846184D01*
X6966744Y-14846184D01*
X6995316Y-14860470D01*
X7009601Y-14889041D01*
X7009601Y-15046184D01*
X7595316Y-14731899D02*
X7338173Y-15117613D01*
X7981030Y-14746184D02*
X8009601Y-14746184D01*
X8038173Y-14760470D01*
X8052458Y-14774756D01*
X8066744Y-14803327D01*
X8081030Y-14860470D01*
X8081030Y-14931899D01*
X8066744Y-14989041D01*
X8052458Y-15017613D01*
X8038173Y-15031899D01*
X8009601Y-15046184D01*
X7981030Y-15046184D01*
X7952458Y-15031899D01*
X7938173Y-15017613D01*
X7923887Y-14989041D01*
X7909601Y-14931899D01*
X7909601Y-14860470D01*
X7923887Y-14803327D01*
X7938173Y-14774756D01*
X7952458Y-14760470D01*
X7981030Y-14746184D01*
X8209601Y-15017613D02*
X8223887Y-15031899D01*
X8209601Y-15046184D01*
X8195316Y-15031899D01*
X8209601Y-15017613D01*
X8209601Y-15046184D01*
X8409601Y-14746184D02*
X8438173Y-14746184D01*
X8466744Y-14760470D01*
X8481030Y-14774756D01*
X8495316Y-14803327D01*
X8509601Y-14860470D01*
X8509601Y-14931899D01*
X8495316Y-14989041D01*
X8481030Y-15017613D01*
X8466744Y-15031899D01*
X8438173Y-15046184D01*
X8409601Y-15046184D01*
X8381030Y-15031899D01*
X8366744Y-15017613D01*
X8352458Y-14989041D01*
X8338173Y-14931899D01*
X8338173Y-14860470D01*
X8352458Y-14803327D01*
X8366744Y-14774756D01*
X8381030Y-14760470D01*
X8409601Y-14746184D01*
X8766744Y-14746184D02*
X8709601Y-14746184D01*
X8681030Y-14760470D01*
X8666744Y-14774756D01*
X8638173Y-14817613D01*
X8623887Y-14874756D01*
X8623887Y-14989041D01*
X8638173Y-15017613D01*
X8652458Y-15031899D01*
X8681030Y-15046184D01*
X8738173Y-15046184D01*
X8766744Y-15031899D01*
X8781030Y-15017613D01*
X8795316Y-14989041D01*
X8795316Y-14917613D01*
X8781030Y-14889041D01*
X8766744Y-14874756D01*
X8738173Y-14860470D01*
X8681030Y-14860470D01*
X8652458Y-14874756D01*
X8638173Y-14889041D01*
X8623887Y-14917613D01*
X9081030Y-15046184D02*
X8909601Y-15046184D01*
X8995316Y-15046184D02*
X8995316Y-14746184D01*
X8966744Y-14789041D01*
X8938173Y-14817613D01*
X8909601Y-14831899D01*
X9195316Y-14746184D02*
X9195316Y-14803327D01*
X9309601Y-14746184D02*
X9309601Y-14803327D01*
X9752458Y-15160470D02*
X9738173Y-15146184D01*
X9709601Y-15103327D01*
X9695316Y-15074756D01*
X9681030Y-15031899D01*
X9666744Y-14960470D01*
X9666744Y-14903327D01*
X9681030Y-14831899D01*
X9695316Y-14789041D01*
X9709601Y-14760470D01*
X9738173Y-14717613D01*
X9752458Y-14703327D01*
X9852458Y-14774756D02*
X9866744Y-14760470D01*
X9895316Y-14746184D01*
X9966744Y-14746184D01*
X9995316Y-14760470D01*
X10009601Y-14774756D01*
X10023887Y-14803327D01*
X10023887Y-14831899D01*
X10009601Y-14874756D01*
X9838173Y-15046184D01*
X10023887Y-15046184D01*
X10195316Y-14874756D02*
X10166744Y-14860470D01*
X10152458Y-14846184D01*
X10138173Y-14817613D01*
X10138173Y-14803327D01*
X10152458Y-14774756D01*
X10166744Y-14760470D01*
X10195316Y-14746184D01*
X10252458Y-14746184D01*
X10281030Y-14760470D01*
X10295316Y-14774756D01*
X10309601Y-14803327D01*
X10309601Y-14817613D01*
X10295316Y-14846184D01*
X10281030Y-14860470D01*
X10252458Y-14874756D01*
X10195316Y-14874756D01*
X10166744Y-14889041D01*
X10152458Y-14903327D01*
X10138173Y-14931899D01*
X10138173Y-14989041D01*
X10152458Y-15017613D01*
X10166744Y-15031899D01*
X10195316Y-15046184D01*
X10252458Y-15046184D01*
X10281030Y-15031899D01*
X10295316Y-15017613D01*
X10309601Y-14989041D01*
X10309601Y-14931899D01*
X10295316Y-14903327D01*
X10281030Y-14889041D01*
X10252458Y-14874756D01*
X10666744Y-15046184D02*
X10666744Y-14746184D01*
X10795316Y-15046184D02*
X10795316Y-14889041D01*
X10781030Y-14860470D01*
X10752458Y-14846184D01*
X10709601Y-14846184D01*
X10681030Y-14860470D01*
X10666744Y-14874756D01*
X10981030Y-15046184D02*
X10952458Y-15031899D01*
X10938173Y-15017613D01*
X10923887Y-14989041D01*
X10923887Y-14903327D01*
X10938173Y-14874756D01*
X10952458Y-14860470D01*
X10981030Y-14846184D01*
X11023887Y-14846184D01*
X11052458Y-14860470D01*
X11066744Y-14874756D01*
X11081030Y-14903327D01*
X11081030Y-14989041D01*
X11066744Y-15017613D01*
X11052458Y-15031899D01*
X11023887Y-15046184D01*
X10981030Y-15046184D01*
X11252458Y-15046184D02*
X11223887Y-15031899D01*
X11209601Y-15003327D01*
X11209601Y-14746184D01*
X11481030Y-15031899D02*
X11452458Y-15046184D01*
X11395316Y-15046184D01*
X11366744Y-15031899D01*
X11352458Y-15003327D01*
X11352458Y-14889041D01*
X11366744Y-14860470D01*
X11395316Y-14846184D01*
X11452458Y-14846184D01*
X11481030Y-14860470D01*
X11495316Y-14889041D01*
X11495316Y-14917613D01*
X11352458Y-14946184D01*
X11609601Y-15031899D02*
X11638173Y-15046184D01*
X11695316Y-15046184D01*
X11723887Y-15031899D01*
X11738173Y-15003327D01*
X11738173Y-14989041D01*
X11723887Y-14960470D01*
X11695316Y-14946184D01*
X11652458Y-14946184D01*
X11623887Y-14931899D01*
X11609601Y-14903327D01*
X11609601Y-14889041D01*
X11623887Y-14860470D01*
X11652458Y-14846184D01*
X11695316Y-14846184D01*
X11723887Y-14860470D01*
X11838173Y-15160470D02*
X11852458Y-15146184D01*
X11881030Y-15103327D01*
X11895316Y-15074756D01*
X11909601Y-15031899D01*
X11923887Y-14960470D01*
X11923887Y-14903327D01*
X11909601Y-14831899D01*
X11895316Y-14789041D01*
X11881030Y-14760470D01*
X11852458Y-14717613D01*
X11838173Y-14703327D01*
X5036741Y-15377181D02*
X5036741Y-15235759D01*
X4895319Y-15235759D01*
X4895319Y-15377181D01*
X5036741Y-15377181D01*
X5338173Y-15170756D02*
X5352458Y-15156470D01*
X5381030Y-15142184D01*
X5452458Y-15142184D01*
X5481030Y-15156470D01*
X5495316Y-15170756D01*
X5509601Y-15199327D01*
X5509601Y-15227899D01*
X5495316Y-15270756D01*
X5323887Y-15442184D01*
X5509601Y-15442184D01*
X5638173Y-15413613D02*
X5652458Y-15427899D01*
X5638173Y-15442184D01*
X5623887Y-15427899D01*
X5638173Y-15413613D01*
X5638173Y-15442184D01*
X5838173Y-15142184D02*
X5866744Y-15142184D01*
X5895316Y-15156470D01*
X5909601Y-15170756D01*
X5923887Y-15199327D01*
X5938173Y-15256470D01*
X5938173Y-15327899D01*
X5923887Y-15385041D01*
X5909601Y-15413613D01*
X5895316Y-15427899D01*
X5866744Y-15442184D01*
X5838173Y-15442184D01*
X5809601Y-15427899D01*
X5795316Y-15413613D01*
X5781030Y-15385041D01*
X5766744Y-15327899D01*
X5766744Y-15256470D01*
X5781030Y-15199327D01*
X5795316Y-15170756D01*
X5809601Y-15156470D01*
X5838173Y-15142184D01*
X6123887Y-15142184D02*
X6152458Y-15142184D01*
X6181030Y-15156470D01*
X6195316Y-15170756D01*
X6209601Y-15199327D01*
X6223887Y-15256470D01*
X6223887Y-15327899D01*
X6209601Y-15385041D01*
X6195316Y-15413613D01*
X6181030Y-15427899D01*
X6152458Y-15442184D01*
X6123887Y-15442184D01*
X6095316Y-15427899D01*
X6081030Y-15413613D01*
X6066744Y-15385041D01*
X6052458Y-15327899D01*
X6052458Y-15256470D01*
X6066744Y-15199327D01*
X6081030Y-15170756D01*
X6095316Y-15156470D01*
X6123887Y-15142184D01*
X6352458Y-15442184D02*
X6352458Y-15242184D01*
X6352458Y-15270756D02*
X6366744Y-15256470D01*
X6395316Y-15242184D01*
X6438173Y-15242184D01*
X6466744Y-15256470D01*
X6481030Y-15285041D01*
X6481030Y-15442184D01*
X6481030Y-15285041D02*
X6495316Y-15256470D01*
X6523887Y-15242184D01*
X6566744Y-15242184D01*
X6595316Y-15256470D01*
X6609601Y-15285041D01*
X6609601Y-15442184D01*
X6752458Y-15442184D02*
X6752458Y-15242184D01*
X6752458Y-15270756D02*
X6766744Y-15256470D01*
X6795316Y-15242184D01*
X6838173Y-15242184D01*
X6866744Y-15256470D01*
X6881030Y-15285041D01*
X6881030Y-15442184D01*
X6881030Y-15285041D02*
X6895316Y-15256470D01*
X6923887Y-15242184D01*
X6966744Y-15242184D01*
X6995316Y-15256470D01*
X7009601Y-15285041D01*
X7009601Y-15442184D01*
X7595316Y-15127899D02*
X7338173Y-15513613D01*
X7981030Y-15142184D02*
X8009601Y-15142184D01*
X8038173Y-15156470D01*
X8052458Y-15170756D01*
X8066744Y-15199327D01*
X8081030Y-15256470D01*
X8081030Y-15327899D01*
X8066744Y-15385041D01*
X8052458Y-15413613D01*
X8038173Y-15427899D01*
X8009601Y-15442184D01*
X7981030Y-15442184D01*
X7952458Y-15427899D01*
X7938173Y-15413613D01*
X7923887Y-15385041D01*
X7909601Y-15327899D01*
X7909601Y-15256470D01*
X7923887Y-15199327D01*
X7938173Y-15170756D01*
X7952458Y-15156470D01*
X7981030Y-15142184D01*
X8209601Y-15413613D02*
X8223887Y-15427899D01*
X8209601Y-15442184D01*
X8195316Y-15427899D01*
X8209601Y-15413613D01*
X8209601Y-15442184D01*
X8409601Y-15142184D02*
X8438173Y-15142184D01*
X8466744Y-15156470D01*
X8481030Y-15170756D01*
X8495316Y-15199327D01*
X8509601Y-15256470D01*
X8509601Y-15327899D01*
X8495316Y-15385041D01*
X8481030Y-15413613D01*
X8466744Y-15427899D01*
X8438173Y-15442184D01*
X8409601Y-15442184D01*
X8381030Y-15427899D01*
X8366744Y-15413613D01*
X8352458Y-15385041D01*
X8338173Y-15327899D01*
X8338173Y-15256470D01*
X8352458Y-15199327D01*
X8366744Y-15170756D01*
X8381030Y-15156470D01*
X8409601Y-15142184D01*
X8609601Y-15142184D02*
X8809601Y-15142184D01*
X8681030Y-15442184D01*
X8938173Y-15442184D02*
X8995316Y-15442184D01*
X9023887Y-15427899D01*
X9038173Y-15413613D01*
X9066744Y-15370756D01*
X9081030Y-15313613D01*
X9081030Y-15199327D01*
X9066744Y-15170756D01*
X9052458Y-15156470D01*
X9023887Y-15142184D01*
X8966744Y-15142184D01*
X8938173Y-15156470D01*
X8923887Y-15170756D01*
X8909601Y-15199327D01*
X8909601Y-15270756D01*
X8923887Y-15299327D01*
X8938173Y-15313613D01*
X8966744Y-15327899D01*
X9023887Y-15327899D01*
X9052458Y-15313613D01*
X9066744Y-15299327D01*
X9081030Y-15270756D01*
X9195316Y-15142184D02*
X9195316Y-15199327D01*
X9309601Y-15142184D02*
X9309601Y-15199327D01*
X9752458Y-15556470D02*
X9738173Y-15542184D01*
X9709601Y-15499327D01*
X9695316Y-15470756D01*
X9681030Y-15427899D01*
X9666744Y-15356470D01*
X9666744Y-15299327D01*
X9681030Y-15227899D01*
X9695316Y-15185041D01*
X9709601Y-15156470D01*
X9738173Y-15113613D01*
X9752458Y-15099327D01*
X10023887Y-15442184D02*
X9852458Y-15442184D01*
X9938173Y-15442184D02*
X9938173Y-15142184D01*
X9909601Y-15185041D01*
X9881030Y-15213613D01*
X9852458Y-15227899D01*
X10381030Y-15442184D02*
X10381030Y-15142184D01*
X10509601Y-15442184D02*
X10509601Y-15285041D01*
X10495316Y-15256470D01*
X10466744Y-15242184D01*
X10423887Y-15242184D01*
X10395316Y-15256470D01*
X10381030Y-15270756D01*
X10695316Y-15442184D02*
X10666744Y-15427899D01*
X10652458Y-15413613D01*
X10638173Y-15385041D01*
X10638173Y-15299327D01*
X10652458Y-15270756D01*
X10666744Y-15256470D01*
X10695316Y-15242184D01*
X10738173Y-15242184D01*
X10766744Y-15256470D01*
X10781030Y-15270756D01*
X10795316Y-15299327D01*
X10795316Y-15385041D01*
X10781030Y-15413613D01*
X10766744Y-15427899D01*
X10738173Y-15442184D01*
X10695316Y-15442184D01*
X10966744Y-15442184D02*
X10938173Y-15427899D01*
X10923887Y-15399327D01*
X10923887Y-15142184D01*
X11195316Y-15427899D02*
X11166744Y-15442184D01*
X11109601Y-15442184D01*
X11081030Y-15427899D01*
X11066744Y-15399327D01*
X11066744Y-15285041D01*
X11081030Y-15256470D01*
X11109601Y-15242184D01*
X11166744Y-15242184D01*
X11195316Y-15256470D01*
X11209601Y-15285041D01*
X11209601Y-15313613D01*
X11066744Y-15342184D01*
X11309601Y-15556470D02*
X11323887Y-15542184D01*
X11352458Y-15499327D01*
X11366744Y-15470756D01*
X11381030Y-15427899D01*
X11395316Y-15356470D01*
X11395316Y-15299327D01*
X11381030Y-15227899D01*
X11366744Y-15185041D01*
X11352458Y-15156470D01*
X11323887Y-15113613D01*
X11309601Y-15099327D01*
X4900930Y-15867570D02*
X5066030Y-15702470D01*
X4900930Y-15537370D01*
X4735830Y-15702470D01*
X4900930Y-15867570D01*
X5323887Y-15538184D02*
X5509601Y-15538184D01*
X5409601Y-15652470D01*
X5452458Y-15652470D01*
X5481030Y-15666756D01*
X5495316Y-15681041D01*
X5509601Y-15709613D01*
X5509601Y-15781041D01*
X5495316Y-15809613D01*
X5481030Y-15823899D01*
X5452458Y-15838184D01*
X5366744Y-15838184D01*
X5338173Y-15823899D01*
X5323887Y-15809613D01*
X5638173Y-15809613D02*
X5652458Y-15823899D01*
X5638173Y-15838184D01*
X5623887Y-15823899D01*
X5638173Y-15809613D01*
X5638173Y-15838184D01*
X5752458Y-15538184D02*
X5938173Y-15538184D01*
X5838173Y-15652470D01*
X5881030Y-15652470D01*
X5909601Y-15666756D01*
X5923887Y-15681041D01*
X5938173Y-15709613D01*
X5938173Y-15781041D01*
X5923887Y-15809613D01*
X5909601Y-15823899D01*
X5881030Y-15838184D01*
X5795316Y-15838184D01*
X5766744Y-15823899D01*
X5752458Y-15809613D01*
X6123887Y-15538184D02*
X6152458Y-15538184D01*
X6181030Y-15552470D01*
X6195316Y-15566756D01*
X6209601Y-15595327D01*
X6223887Y-15652470D01*
X6223887Y-15723899D01*
X6209601Y-15781041D01*
X6195316Y-15809613D01*
X6181030Y-15823899D01*
X6152458Y-15838184D01*
X6123887Y-15838184D01*
X6095316Y-15823899D01*
X6081030Y-15809613D01*
X6066744Y-15781041D01*
X6052458Y-15723899D01*
X6052458Y-15652470D01*
X6066744Y-15595327D01*
X6081030Y-15566756D01*
X6095316Y-15552470D01*
X6123887Y-15538184D01*
X6352458Y-15838184D02*
X6352458Y-15638184D01*
X6352458Y-15666756D02*
X6366744Y-15652470D01*
X6395316Y-15638184D01*
X6438173Y-15638184D01*
X6466744Y-15652470D01*
X6481030Y-15681041D01*
X6481030Y-15838184D01*
X6481030Y-15681041D02*
X6495316Y-15652470D01*
X6523887Y-15638184D01*
X6566744Y-15638184D01*
X6595316Y-15652470D01*
X6609601Y-15681041D01*
X6609601Y-15838184D01*
X6752458Y-15838184D02*
X6752458Y-15638184D01*
X6752458Y-15666756D02*
X6766744Y-15652470D01*
X6795316Y-15638184D01*
X6838173Y-15638184D01*
X6866744Y-15652470D01*
X6881030Y-15681041D01*
X6881030Y-15838184D01*
X6881030Y-15681041D02*
X6895316Y-15652470D01*
X6923887Y-15638184D01*
X6966744Y-15638184D01*
X6995316Y-15652470D01*
X7009601Y-15681041D01*
X7009601Y-15838184D01*
X7595316Y-15523899D02*
X7338173Y-15909613D01*
X7981030Y-15538184D02*
X8009601Y-15538184D01*
X8038173Y-15552470D01*
X8052458Y-15566756D01*
X8066744Y-15595327D01*
X8081030Y-15652470D01*
X8081030Y-15723899D01*
X8066744Y-15781041D01*
X8052458Y-15809613D01*
X8038173Y-15823899D01*
X8009601Y-15838184D01*
X7981030Y-15838184D01*
X7952458Y-15823899D01*
X7938173Y-15809613D01*
X7923887Y-15781041D01*
X7909601Y-15723899D01*
X7909601Y-15652470D01*
X7923887Y-15595327D01*
X7938173Y-15566756D01*
X7952458Y-15552470D01*
X7981030Y-15538184D01*
X8209601Y-15809613D02*
X8223887Y-15823899D01*
X8209601Y-15838184D01*
X8195316Y-15823899D01*
X8209601Y-15809613D01*
X8209601Y-15838184D01*
X8509601Y-15838184D02*
X8338173Y-15838184D01*
X8423887Y-15838184D02*
X8423887Y-15538184D01*
X8395316Y-15581041D01*
X8366744Y-15609613D01*
X8338173Y-15623899D01*
X8609601Y-15538184D02*
X8795316Y-15538184D01*
X8695316Y-15652470D01*
X8738173Y-15652470D01*
X8766744Y-15666756D01*
X8781030Y-15681041D01*
X8795316Y-15709613D01*
X8795316Y-15781041D01*
X8781030Y-15809613D01*
X8766744Y-15823899D01*
X8738173Y-15838184D01*
X8652458Y-15838184D01*
X8623887Y-15823899D01*
X8609601Y-15809613D01*
X8981030Y-15538184D02*
X9009601Y-15538184D01*
X9038173Y-15552470D01*
X9052458Y-15566756D01*
X9066744Y-15595327D01*
X9081030Y-15652470D01*
X9081030Y-15723899D01*
X9066744Y-15781041D01*
X9052458Y-15809613D01*
X9038173Y-15823899D01*
X9009601Y-15838184D01*
X8981030Y-15838184D01*
X8952458Y-15823899D01*
X8938173Y-15809613D01*
X8923887Y-15781041D01*
X8909601Y-15723899D01*
X8909601Y-15652470D01*
X8923887Y-15595327D01*
X8938173Y-15566756D01*
X8952458Y-15552470D01*
X8981030Y-15538184D01*
X9195316Y-15538184D02*
X9195316Y-15595327D01*
X9309601Y-15538184D02*
X9309601Y-15595327D01*
X9752458Y-15952470D02*
X9738173Y-15938184D01*
X9709601Y-15895327D01*
X9695316Y-15866756D01*
X9681030Y-15823899D01*
X9666744Y-15752470D01*
X9666744Y-15695327D01*
X9681030Y-15623899D01*
X9695316Y-15581041D01*
X9709601Y-15552470D01*
X9738173Y-15509613D01*
X9752458Y-15495327D01*
X9838173Y-15538184D02*
X10023887Y-15538184D01*
X9923887Y-15652470D01*
X9966744Y-15652470D01*
X9995316Y-15666756D01*
X10009601Y-15681041D01*
X10023887Y-15709613D01*
X10023887Y-15781041D01*
X10009601Y-15809613D01*
X9995316Y-15823899D01*
X9966744Y-15838184D01*
X9881030Y-15838184D01*
X9852458Y-15823899D01*
X9838173Y-15809613D01*
X10381030Y-15838184D02*
X10381030Y-15538184D01*
X10509601Y-15838184D02*
X10509601Y-15681041D01*
X10495316Y-15652470D01*
X10466744Y-15638184D01*
X10423887Y-15638184D01*
X10395316Y-15652470D01*
X10381030Y-15666756D01*
X10695316Y-15838184D02*
X10666744Y-15823899D01*
X10652458Y-15809613D01*
X10638173Y-15781041D01*
X10638173Y-15695327D01*
X10652458Y-15666756D01*
X10666744Y-15652470D01*
X10695316Y-15638184D01*
X10738173Y-15638184D01*
X10766744Y-15652470D01*
X10781030Y-15666756D01*
X10795316Y-15695327D01*
X10795316Y-15781041D01*
X10781030Y-15809613D01*
X10766744Y-15823899D01*
X10738173Y-15838184D01*
X10695316Y-15838184D01*
X10966744Y-15838184D02*
X10938173Y-15823899D01*
X10923887Y-15795327D01*
X10923887Y-15538184D01*
X11195316Y-15823899D02*
X11166744Y-15838184D01*
X11109601Y-15838184D01*
X11081030Y-15823899D01*
X11066744Y-15795327D01*
X11066744Y-15681041D01*
X11081030Y-15652470D01*
X11109601Y-15638184D01*
X11166744Y-15638184D01*
X11195316Y-15652470D01*
X11209601Y-15681041D01*
X11209601Y-15709613D01*
X11066744Y-15738184D01*
X11323887Y-15823899D02*
X11352458Y-15838184D01*
X11409601Y-15838184D01*
X11438173Y-15823899D01*
X11452458Y-15795327D01*
X11452458Y-15781041D01*
X11438173Y-15752470D01*
X11409601Y-15738184D01*
X11366744Y-15738184D01*
X11338173Y-15723899D01*
X11323887Y-15695327D01*
X11323887Y-15681041D01*
X11338173Y-15652470D01*
X11366744Y-15638184D01*
X11409601Y-15638184D01*
X11438173Y-15652470D01*
X11552458Y-15952470D02*
X11566744Y-15938184D01*
X11595316Y-15895327D01*
X11609601Y-15866756D01*
X11623887Y-15823899D01*
X11638173Y-15752470D01*
X11638173Y-15695327D01*
X11623887Y-15623899D01*
X11609601Y-15581041D01*
X11595316Y-15552470D01*
X11566744Y-15509613D01*
X11552458Y-15495327D01*
M02*
