%FSLAX45Y45*%
G04 Gerber Fmt 4.5, Leading zero omitted, Abs format (unit mm)*
G04 Created by KiCad (PCBNEW 5.1.7-a382d34a8~87~ubuntu20.04.1) date 2020-10-21 15:21:17*
%MOMM*%
%LPD*%
G01*
G04 APERTURE LIST*
%TA.AperFunction,Profile*%
%ADD10C,0.279400*%
%TD*%
%ADD11C,0.200000*%
%ADD12C,0.300000*%
G04 APERTURE END LIST*
D10*
X12573000Y-12255500D02*
G75*
G02*
X11938000Y-12890500I-635000J0D01*
G01*
X5715000Y-12890500D02*
G75*
G02*
X5080000Y-12255500I0J635000D01*
G01*
X11938000Y-5080000D02*
G75*
G02*
X12573000Y-5715000I0J-635000D01*
G01*
X5080000Y-5715000D02*
G75*
G02*
X5715000Y-5080000I635000J0D01*
G01*
X5715000Y-5080000D02*
X11938000Y-5080000D01*
X5080000Y-12255500D02*
X5080000Y-5715000D01*
X11938000Y-12890500D02*
X5715000Y-12890500D01*
X12573000Y-5715000D02*
X12573000Y-12255500D01*
D11*
X6281560Y-10437180D02*
X6345060Y-10500680D01*
X6345060Y-10437180D02*
X6281560Y-10500680D01*
X6735540Y-6791540D02*
X6799040Y-6855040D01*
X6799040Y-6791540D02*
X6735540Y-6855040D01*
X6767870Y-7551380D02*
X6831370Y-7614880D01*
X6831370Y-7551380D02*
X6767870Y-7614880D01*
X7704510Y-11946020D02*
X7768010Y-12009520D01*
X7768010Y-11946020D02*
X7704510Y-12009520D01*
X7983570Y-11518800D02*
X8047070Y-11582300D01*
X8047070Y-11518800D02*
X7983570Y-11582300D01*
X8032750Y-12485570D02*
X8096250Y-12549070D01*
X8096250Y-12485570D02*
X8032750Y-12549070D01*
X8044280Y-6464580D02*
X8107780Y-6528080D01*
X8107780Y-6464580D02*
X8044280Y-6528080D01*
X8085220Y-12181910D02*
X8148720Y-12245410D01*
X8148720Y-12181910D02*
X8085220Y-12245410D01*
X8405720Y-10264420D02*
X8469220Y-10327920D01*
X8469220Y-10264420D02*
X8405720Y-10327920D01*
X8406740Y-10773540D02*
X8470240Y-10837040D01*
X8470240Y-10773540D02*
X8406740Y-10837040D01*
X8503500Y-11194250D02*
X8567000Y-11257750D01*
X8567000Y-11194250D02*
X8503500Y-11257750D01*
X8913930Y-11279200D02*
X8977430Y-11342700D01*
X8977430Y-11279200D02*
X8913930Y-11342700D01*
X8917140Y-10771540D02*
X8980640Y-10835040D01*
X8980640Y-10771540D02*
X8917140Y-10835040D01*
X8920460Y-10263290D02*
X8983960Y-10326790D01*
X8983960Y-10263290D02*
X8920460Y-10326790D01*
X8938950Y-7724420D02*
X9002450Y-7787920D01*
X9002450Y-7724420D02*
X8938950Y-7787920D01*
X9420590Y-10267000D02*
X9484090Y-10330500D01*
X9484090Y-10267000D02*
X9420590Y-10330500D01*
X9424560Y-10772230D02*
X9488060Y-10835730D01*
X9488060Y-10772230D02*
X9424560Y-10835730D01*
X9429750Y-11284150D02*
X9493250Y-11347650D01*
X9493250Y-11284150D02*
X9429750Y-11347650D01*
X11054750Y-5835160D02*
X11118250Y-5898660D01*
X11118250Y-5835160D02*
X11054750Y-5898660D01*
X11705570Y-7951800D02*
X11769070Y-8015300D01*
X11769070Y-7951800D02*
X11705570Y-8015300D01*
X10934700Y-6794500D02*
G75*
G03*
X10934700Y-6794500I-76200J0D01*
G01*
X10934700Y-7048500D02*
G75*
G03*
X10934700Y-7048500I-76200J0D01*
G01*
X5346700Y-7556500D02*
G75*
G03*
X5346700Y-7556500I-76200J0D01*
G01*
X5346700Y-7810500D02*
G75*
G03*
X5346700Y-7810500I-76200J0D01*
G01*
X8140700Y-7556500D02*
G75*
G03*
X8140700Y-7556500I-76200J0D01*
G01*
X8140700Y-7810500D02*
G75*
G03*
X8140700Y-7810500I-76200J0D01*
G01*
X10934700Y-6032500D02*
G75*
G03*
X10934700Y-6032500I-76200J0D01*
G01*
X10934700Y-6286500D02*
G75*
G03*
X10934700Y-6286500I-76200J0D01*
G01*
X5346700Y-6032500D02*
G75*
G03*
X5346700Y-6032500I-76200J0D01*
G01*
X5346700Y-6286500D02*
G75*
G03*
X5346700Y-6286500I-76200J0D01*
G01*
X10934700Y-7556500D02*
G75*
G03*
X10934700Y-7556500I-76200J0D01*
G01*
X10934700Y-7810500D02*
G75*
G03*
X10934700Y-7810500I-76200J0D01*
G01*
X8140700Y-6032500D02*
G75*
G03*
X8140700Y-6032500I-76200J0D01*
G01*
X8140700Y-6286500D02*
G75*
G03*
X8140700Y-6286500I-76200J0D01*
G01*
X5346700Y-6794500D02*
G75*
G03*
X5346700Y-6794500I-76200J0D01*
G01*
X5346700Y-7048500D02*
G75*
G03*
X5346700Y-7048500I-76200J0D01*
G01*
X8140700Y-6794500D02*
G75*
G03*
X8140700Y-6794500I-76200J0D01*
G01*
X8140700Y-7048500D02*
G75*
G03*
X8140700Y-7048500I-76200J0D01*
G01*
X10096500Y-9320530D02*
X10096500Y-9475470D01*
X10019030Y-9398000D02*
X10173970Y-9398000D01*
X10096500Y-9574530D02*
X10096500Y-9729470D01*
X10019030Y-9652000D02*
X10173970Y-9652000D01*
X10096500Y-9828530D02*
X10096500Y-9983470D01*
X10019030Y-9906000D02*
X10173970Y-9906000D01*
X10096500Y-10082530D02*
X10096500Y-10237470D01*
X10019030Y-10160000D02*
X10173970Y-10160000D01*
X10096500Y-10336530D02*
X10096500Y-10491470D01*
X10019030Y-10414000D02*
X10173970Y-10414000D01*
X10096500Y-10590530D02*
X10096500Y-10745470D01*
X10019030Y-10668000D02*
X10173970Y-10668000D01*
X10096500Y-10844530D02*
X10096500Y-10999470D01*
X10019030Y-10922000D02*
X10173970Y-10922000D01*
X10096500Y-11098530D02*
X10096500Y-11253470D01*
X10019030Y-11176000D02*
X10173970Y-11176000D01*
X10096500Y-11352530D02*
X10096500Y-11507470D01*
X10019030Y-11430000D02*
X10173970Y-11430000D01*
X10096500Y-11606530D02*
X10096500Y-11761470D01*
X10019030Y-11684000D02*
X10173970Y-11684000D01*
X10096500Y-11860530D02*
X10096500Y-12015470D01*
X10019030Y-11938000D02*
X10173970Y-11938000D01*
X10096500Y-12114530D02*
X10096500Y-12269470D01*
X10019030Y-12192000D02*
X10173970Y-12192000D01*
X10096500Y-12368530D02*
X10096500Y-12523470D01*
X10019030Y-12446000D02*
X10173970Y-12446000D01*
X10096500Y-12622530D02*
X10096500Y-12777470D01*
X10019030Y-12700000D02*
X10173970Y-12700000D01*
X11620500Y-9320530D02*
X11620500Y-9475470D01*
X11543030Y-9398000D02*
X11697970Y-9398000D01*
X11620500Y-9574530D02*
X11620500Y-9729470D01*
X11543030Y-9652000D02*
X11697970Y-9652000D01*
X11620500Y-9828530D02*
X11620500Y-9983470D01*
X11543030Y-9906000D02*
X11697970Y-9906000D01*
X11620500Y-10082530D02*
X11620500Y-10237470D01*
X11543030Y-10160000D02*
X11697970Y-10160000D01*
X11620500Y-10336530D02*
X11620500Y-10491470D01*
X11543030Y-10414000D02*
X11697970Y-10414000D01*
X11620500Y-10590530D02*
X11620500Y-10745470D01*
X11543030Y-10668000D02*
X11697970Y-10668000D01*
X11620500Y-10844530D02*
X11620500Y-10999470D01*
X11543030Y-10922000D02*
X11697970Y-10922000D01*
X11620500Y-11098530D02*
X11620500Y-11253470D01*
X11543030Y-11176000D02*
X11697970Y-11176000D01*
X11620500Y-11352530D02*
X11620500Y-11507470D01*
X11543030Y-11430000D02*
X11697970Y-11430000D01*
X11620500Y-11606530D02*
X11620500Y-11761470D01*
X11543030Y-11684000D02*
X11697970Y-11684000D01*
X11620500Y-11860530D02*
X11620500Y-12015470D01*
X11543030Y-11938000D02*
X11697970Y-11938000D01*
X11620500Y-12114530D02*
X11620500Y-12269470D01*
X11543030Y-12192000D02*
X11697970Y-12192000D01*
X11620500Y-12368530D02*
X11620500Y-12523470D01*
X11543030Y-12446000D02*
X11697970Y-12446000D01*
X11620500Y-12622530D02*
X11620500Y-12777470D01*
X11543030Y-12700000D02*
X11697970Y-12700000D01*
X6865211Y-12534211D02*
X6865211Y-12392789D01*
X6723789Y-12392789D01*
X6723789Y-12534211D01*
X6865211Y-12534211D01*
X6477000Y-5816600D02*
X6642100Y-5651500D01*
X6477000Y-5486400D01*
X6311900Y-5651500D01*
X6477000Y-5816600D01*
X9271000Y-8674100D02*
X9436100Y-8509000D01*
X9271000Y-8343900D01*
X9105900Y-8509000D01*
X9271000Y-8674100D01*
X12065000Y-5816600D02*
X12230100Y-5651500D01*
X12065000Y-5486400D01*
X11899900Y-5651500D01*
X12065000Y-5816600D01*
D12*
X5352458Y-13370184D02*
X5352458Y-13070184D01*
X5423887Y-13070184D01*
X5466744Y-13084470D01*
X5495316Y-13113041D01*
X5509601Y-13141613D01*
X5523887Y-13198756D01*
X5523887Y-13241613D01*
X5509601Y-13298756D01*
X5495316Y-13327327D01*
X5466744Y-13355899D01*
X5423887Y-13370184D01*
X5352458Y-13370184D01*
X5652458Y-13370184D02*
X5652458Y-13170184D01*
X5652458Y-13227327D02*
X5666744Y-13198756D01*
X5681030Y-13184470D01*
X5709601Y-13170184D01*
X5738173Y-13170184D01*
X5838173Y-13370184D02*
X5838173Y-13170184D01*
X5838173Y-13070184D02*
X5823887Y-13084470D01*
X5838173Y-13098756D01*
X5852458Y-13084470D01*
X5838173Y-13070184D01*
X5838173Y-13098756D01*
X6023887Y-13370184D02*
X5995316Y-13355899D01*
X5981030Y-13327327D01*
X5981030Y-13070184D01*
X6181030Y-13370184D02*
X6152458Y-13355899D01*
X6138173Y-13327327D01*
X6138173Y-13070184D01*
X6523887Y-13370184D02*
X6523887Y-13070184D01*
X6623887Y-13284470D01*
X6723887Y-13070184D01*
X6723887Y-13370184D01*
X6995316Y-13370184D02*
X6995316Y-13213041D01*
X6981030Y-13184470D01*
X6952458Y-13170184D01*
X6895316Y-13170184D01*
X6866744Y-13184470D01*
X6995316Y-13355899D02*
X6966744Y-13370184D01*
X6895316Y-13370184D01*
X6866744Y-13355899D01*
X6852458Y-13327327D01*
X6852458Y-13298756D01*
X6866744Y-13270184D01*
X6895316Y-13255899D01*
X6966744Y-13255899D01*
X6995316Y-13241613D01*
X7138173Y-13170184D02*
X7138173Y-13470184D01*
X7138173Y-13184470D02*
X7166744Y-13170184D01*
X7223887Y-13170184D01*
X7252458Y-13184470D01*
X7266744Y-13198756D01*
X7281030Y-13227327D01*
X7281030Y-13313041D01*
X7266744Y-13341613D01*
X7252458Y-13355899D01*
X7223887Y-13370184D01*
X7166744Y-13370184D01*
X7138173Y-13355899D01*
X7409601Y-13341613D02*
X7423887Y-13355899D01*
X7409601Y-13370184D01*
X7395316Y-13355899D01*
X7409601Y-13341613D01*
X7409601Y-13370184D01*
X7409601Y-13184470D02*
X7423887Y-13198756D01*
X7409601Y-13213041D01*
X7395316Y-13198756D01*
X7409601Y-13184470D01*
X7409601Y-13213041D01*
X5002530Y-13832720D02*
X5066030Y-13896220D01*
X5066030Y-13832720D02*
X5002530Y-13896220D01*
X5409601Y-13700184D02*
X5438173Y-13700184D01*
X5466744Y-13714470D01*
X5481030Y-13728756D01*
X5495316Y-13757327D01*
X5509601Y-13814470D01*
X5509601Y-13885899D01*
X5495316Y-13943041D01*
X5481030Y-13971613D01*
X5466744Y-13985899D01*
X5438173Y-14000184D01*
X5409601Y-14000184D01*
X5381030Y-13985899D01*
X5366744Y-13971613D01*
X5352458Y-13943041D01*
X5338173Y-13885899D01*
X5338173Y-13814470D01*
X5352458Y-13757327D01*
X5366744Y-13728756D01*
X5381030Y-13714470D01*
X5409601Y-13700184D01*
X5638173Y-13971613D02*
X5652458Y-13985899D01*
X5638173Y-14000184D01*
X5623887Y-13985899D01*
X5638173Y-13971613D01*
X5638173Y-14000184D01*
X5909601Y-13700184D02*
X5852458Y-13700184D01*
X5823887Y-13714470D01*
X5809601Y-13728756D01*
X5781030Y-13771613D01*
X5766744Y-13828756D01*
X5766744Y-13943041D01*
X5781030Y-13971613D01*
X5795316Y-13985899D01*
X5823887Y-14000184D01*
X5881030Y-14000184D01*
X5909601Y-13985899D01*
X5923887Y-13971613D01*
X5938173Y-13943041D01*
X5938173Y-13871613D01*
X5923887Y-13843041D01*
X5909601Y-13828756D01*
X5881030Y-13814470D01*
X5823887Y-13814470D01*
X5795316Y-13828756D01*
X5781030Y-13843041D01*
X5766744Y-13871613D01*
X6195316Y-13800184D02*
X6195316Y-14000184D01*
X6123887Y-13685899D02*
X6052458Y-13900184D01*
X6238173Y-13900184D01*
X6352458Y-14000184D02*
X6352458Y-13800184D01*
X6352458Y-13828756D02*
X6366744Y-13814470D01*
X6395316Y-13800184D01*
X6438173Y-13800184D01*
X6466744Y-13814470D01*
X6481030Y-13843041D01*
X6481030Y-14000184D01*
X6481030Y-13843041D02*
X6495316Y-13814470D01*
X6523887Y-13800184D01*
X6566744Y-13800184D01*
X6595316Y-13814470D01*
X6609601Y-13843041D01*
X6609601Y-14000184D01*
X6752458Y-14000184D02*
X6752458Y-13800184D01*
X6752458Y-13828756D02*
X6766744Y-13814470D01*
X6795316Y-13800184D01*
X6838173Y-13800184D01*
X6866744Y-13814470D01*
X6881030Y-13843041D01*
X6881030Y-14000184D01*
X6881030Y-13843041D02*
X6895316Y-13814470D01*
X6923887Y-13800184D01*
X6966744Y-13800184D01*
X6995316Y-13814470D01*
X7009601Y-13843041D01*
X7009601Y-14000184D01*
X7595316Y-13685899D02*
X7338173Y-14071613D01*
X7981030Y-13700184D02*
X8009601Y-13700184D01*
X8038173Y-13714470D01*
X8052458Y-13728756D01*
X8066744Y-13757327D01*
X8081030Y-13814470D01*
X8081030Y-13885899D01*
X8066744Y-13943041D01*
X8052458Y-13971613D01*
X8038173Y-13985899D01*
X8009601Y-14000184D01*
X7981030Y-14000184D01*
X7952458Y-13985899D01*
X7938173Y-13971613D01*
X7923887Y-13943041D01*
X7909601Y-13885899D01*
X7909601Y-13814470D01*
X7923887Y-13757327D01*
X7938173Y-13728756D01*
X7952458Y-13714470D01*
X7981030Y-13700184D01*
X8209601Y-13971613D02*
X8223887Y-13985899D01*
X8209601Y-14000184D01*
X8195316Y-13985899D01*
X8209601Y-13971613D01*
X8209601Y-14000184D01*
X8409601Y-13700184D02*
X8438173Y-13700184D01*
X8466744Y-13714470D01*
X8481030Y-13728756D01*
X8495316Y-13757327D01*
X8509601Y-13814470D01*
X8509601Y-13885899D01*
X8495316Y-13943041D01*
X8481030Y-13971613D01*
X8466744Y-13985899D01*
X8438173Y-14000184D01*
X8409601Y-14000184D01*
X8381030Y-13985899D01*
X8366744Y-13971613D01*
X8352458Y-13943041D01*
X8338173Y-13885899D01*
X8338173Y-13814470D01*
X8352458Y-13757327D01*
X8366744Y-13728756D01*
X8381030Y-13714470D01*
X8409601Y-13700184D01*
X8623887Y-13728756D02*
X8638173Y-13714470D01*
X8666744Y-13700184D01*
X8738173Y-13700184D01*
X8766744Y-13714470D01*
X8781030Y-13728756D01*
X8795316Y-13757327D01*
X8795316Y-13785899D01*
X8781030Y-13828756D01*
X8609601Y-14000184D01*
X8795316Y-14000184D01*
X9066744Y-13700184D02*
X8923887Y-13700184D01*
X8909601Y-13843041D01*
X8923887Y-13828756D01*
X8952458Y-13814470D01*
X9023887Y-13814470D01*
X9052458Y-13828756D01*
X9066744Y-13843041D01*
X9081030Y-13871613D01*
X9081030Y-13943041D01*
X9066744Y-13971613D01*
X9052458Y-13985899D01*
X9023887Y-14000184D01*
X8952458Y-14000184D01*
X8923887Y-13985899D01*
X8909601Y-13971613D01*
X9195316Y-13700184D02*
X9195316Y-13757327D01*
X9309601Y-13700184D02*
X9309601Y-13757327D01*
X9752458Y-14114470D02*
X9738173Y-14100184D01*
X9709601Y-14057327D01*
X9695316Y-14028756D01*
X9681030Y-13985899D01*
X9666744Y-13914470D01*
X9666744Y-13857327D01*
X9681030Y-13785899D01*
X9695316Y-13743041D01*
X9709601Y-13714470D01*
X9738173Y-13671613D01*
X9752458Y-13657327D01*
X9852458Y-13728756D02*
X9866744Y-13714470D01*
X9895316Y-13700184D01*
X9966744Y-13700184D01*
X9995316Y-13714470D01*
X10009601Y-13728756D01*
X10023887Y-13757327D01*
X10023887Y-13785899D01*
X10009601Y-13828756D01*
X9838173Y-14000184D01*
X10023887Y-14000184D01*
X10209601Y-13700184D02*
X10238173Y-13700184D01*
X10266744Y-13714470D01*
X10281030Y-13728756D01*
X10295316Y-13757327D01*
X10309601Y-13814470D01*
X10309601Y-13885899D01*
X10295316Y-13943041D01*
X10281030Y-13971613D01*
X10266744Y-13985899D01*
X10238173Y-14000184D01*
X10209601Y-14000184D01*
X10181030Y-13985899D01*
X10166744Y-13971613D01*
X10152458Y-13943041D01*
X10138173Y-13885899D01*
X10138173Y-13814470D01*
X10152458Y-13757327D01*
X10166744Y-13728756D01*
X10181030Y-13714470D01*
X10209601Y-13700184D01*
X10666744Y-14000184D02*
X10666744Y-13700184D01*
X10795316Y-14000184D02*
X10795316Y-13843041D01*
X10781030Y-13814470D01*
X10752458Y-13800184D01*
X10709601Y-13800184D01*
X10681030Y-13814470D01*
X10666744Y-13828756D01*
X10981030Y-14000184D02*
X10952458Y-13985899D01*
X10938173Y-13971613D01*
X10923887Y-13943041D01*
X10923887Y-13857327D01*
X10938173Y-13828756D01*
X10952458Y-13814470D01*
X10981030Y-13800184D01*
X11023887Y-13800184D01*
X11052458Y-13814470D01*
X11066744Y-13828756D01*
X11081030Y-13857327D01*
X11081030Y-13943041D01*
X11066744Y-13971613D01*
X11052458Y-13985899D01*
X11023887Y-14000184D01*
X10981030Y-14000184D01*
X11252458Y-14000184D02*
X11223887Y-13985899D01*
X11209601Y-13957327D01*
X11209601Y-13700184D01*
X11481030Y-13985899D02*
X11452458Y-14000184D01*
X11395316Y-14000184D01*
X11366744Y-13985899D01*
X11352458Y-13957327D01*
X11352458Y-13843041D01*
X11366744Y-13814470D01*
X11395316Y-13800184D01*
X11452458Y-13800184D01*
X11481030Y-13814470D01*
X11495316Y-13843041D01*
X11495316Y-13871613D01*
X11352458Y-13900184D01*
X11609601Y-13985899D02*
X11638173Y-14000184D01*
X11695316Y-14000184D01*
X11723887Y-13985899D01*
X11738173Y-13957327D01*
X11738173Y-13943041D01*
X11723887Y-13914470D01*
X11695316Y-13900184D01*
X11652458Y-13900184D01*
X11623887Y-13885899D01*
X11609601Y-13857327D01*
X11609601Y-13843041D01*
X11623887Y-13814470D01*
X11652458Y-13800184D01*
X11695316Y-13800184D01*
X11723887Y-13814470D01*
X11838173Y-14114470D02*
X11852458Y-14100184D01*
X11881030Y-14057327D01*
X11895316Y-14028756D01*
X11909601Y-13985899D01*
X11923887Y-13914470D01*
X11923887Y-13857327D01*
X11909601Y-13785899D01*
X11895316Y-13743041D01*
X11881030Y-13714470D01*
X11852458Y-13671613D01*
X11838173Y-13657327D01*
X5066030Y-14260470D02*
G75*
G03*
X5066030Y-14260470I-76200J0D01*
G01*
X5509601Y-14396184D02*
X5338173Y-14396184D01*
X5423887Y-14396184D02*
X5423887Y-14096184D01*
X5395316Y-14139041D01*
X5366744Y-14167613D01*
X5338173Y-14181899D01*
X5638173Y-14367613D02*
X5652458Y-14381899D01*
X5638173Y-14396184D01*
X5623887Y-14381899D01*
X5638173Y-14367613D01*
X5638173Y-14396184D01*
X5923887Y-14096184D02*
X5781030Y-14096184D01*
X5766744Y-14239041D01*
X5781030Y-14224756D01*
X5809601Y-14210470D01*
X5881030Y-14210470D01*
X5909601Y-14224756D01*
X5923887Y-14239041D01*
X5938173Y-14267613D01*
X5938173Y-14339041D01*
X5923887Y-14367613D01*
X5909601Y-14381899D01*
X5881030Y-14396184D01*
X5809601Y-14396184D01*
X5781030Y-14381899D01*
X5766744Y-14367613D01*
X6052458Y-14124756D02*
X6066744Y-14110470D01*
X6095316Y-14096184D01*
X6166744Y-14096184D01*
X6195316Y-14110470D01*
X6209601Y-14124756D01*
X6223887Y-14153327D01*
X6223887Y-14181899D01*
X6209601Y-14224756D01*
X6038173Y-14396184D01*
X6223887Y-14396184D01*
X6352458Y-14396184D02*
X6352458Y-14196184D01*
X6352458Y-14224756D02*
X6366744Y-14210470D01*
X6395316Y-14196184D01*
X6438173Y-14196184D01*
X6466744Y-14210470D01*
X6481030Y-14239041D01*
X6481030Y-14396184D01*
X6481030Y-14239041D02*
X6495316Y-14210470D01*
X6523887Y-14196184D01*
X6566744Y-14196184D01*
X6595316Y-14210470D01*
X6609601Y-14239041D01*
X6609601Y-14396184D01*
X6752458Y-14396184D02*
X6752458Y-14196184D01*
X6752458Y-14224756D02*
X6766744Y-14210470D01*
X6795316Y-14196184D01*
X6838173Y-14196184D01*
X6866744Y-14210470D01*
X6881030Y-14239041D01*
X6881030Y-14396184D01*
X6881030Y-14239041D02*
X6895316Y-14210470D01*
X6923887Y-14196184D01*
X6966744Y-14196184D01*
X6995316Y-14210470D01*
X7009601Y-14239041D01*
X7009601Y-14396184D01*
X7595316Y-14081899D02*
X7338173Y-14467613D01*
X7981030Y-14096184D02*
X8009601Y-14096184D01*
X8038173Y-14110470D01*
X8052458Y-14124756D01*
X8066744Y-14153327D01*
X8081030Y-14210470D01*
X8081030Y-14281899D01*
X8066744Y-14339041D01*
X8052458Y-14367613D01*
X8038173Y-14381899D01*
X8009601Y-14396184D01*
X7981030Y-14396184D01*
X7952458Y-14381899D01*
X7938173Y-14367613D01*
X7923887Y-14339041D01*
X7909601Y-14281899D01*
X7909601Y-14210470D01*
X7923887Y-14153327D01*
X7938173Y-14124756D01*
X7952458Y-14110470D01*
X7981030Y-14096184D01*
X8209601Y-14367613D02*
X8223887Y-14381899D01*
X8209601Y-14396184D01*
X8195316Y-14381899D01*
X8209601Y-14367613D01*
X8209601Y-14396184D01*
X8409601Y-14096184D02*
X8438173Y-14096184D01*
X8466744Y-14110470D01*
X8481030Y-14124756D01*
X8495316Y-14153327D01*
X8509601Y-14210470D01*
X8509601Y-14281899D01*
X8495316Y-14339041D01*
X8481030Y-14367613D01*
X8466744Y-14381899D01*
X8438173Y-14396184D01*
X8409601Y-14396184D01*
X8381030Y-14381899D01*
X8366744Y-14367613D01*
X8352458Y-14339041D01*
X8338173Y-14281899D01*
X8338173Y-14210470D01*
X8352458Y-14153327D01*
X8366744Y-14124756D01*
X8381030Y-14110470D01*
X8409601Y-14096184D01*
X8766744Y-14096184D02*
X8709601Y-14096184D01*
X8681030Y-14110470D01*
X8666744Y-14124756D01*
X8638173Y-14167613D01*
X8623887Y-14224756D01*
X8623887Y-14339041D01*
X8638173Y-14367613D01*
X8652458Y-14381899D01*
X8681030Y-14396184D01*
X8738173Y-14396184D01*
X8766744Y-14381899D01*
X8781030Y-14367613D01*
X8795316Y-14339041D01*
X8795316Y-14267613D01*
X8781030Y-14239041D01*
X8766744Y-14224756D01*
X8738173Y-14210470D01*
X8681030Y-14210470D01*
X8652458Y-14224756D01*
X8638173Y-14239041D01*
X8623887Y-14267613D01*
X8981030Y-14096184D02*
X9009601Y-14096184D01*
X9038173Y-14110470D01*
X9052458Y-14124756D01*
X9066744Y-14153327D01*
X9081030Y-14210470D01*
X9081030Y-14281899D01*
X9066744Y-14339041D01*
X9052458Y-14367613D01*
X9038173Y-14381899D01*
X9009601Y-14396184D01*
X8981030Y-14396184D01*
X8952458Y-14381899D01*
X8938173Y-14367613D01*
X8923887Y-14339041D01*
X8909601Y-14281899D01*
X8909601Y-14210470D01*
X8923887Y-14153327D01*
X8938173Y-14124756D01*
X8952458Y-14110470D01*
X8981030Y-14096184D01*
X9195316Y-14096184D02*
X9195316Y-14153327D01*
X9309601Y-14096184D02*
X9309601Y-14153327D01*
X9752458Y-14510470D02*
X9738173Y-14496184D01*
X9709601Y-14453327D01*
X9695316Y-14424756D01*
X9681030Y-14381899D01*
X9666744Y-14310470D01*
X9666744Y-14253327D01*
X9681030Y-14181899D01*
X9695316Y-14139041D01*
X9709601Y-14110470D01*
X9738173Y-14067613D01*
X9752458Y-14053327D01*
X10023887Y-14396184D02*
X9852458Y-14396184D01*
X9938173Y-14396184D02*
X9938173Y-14096184D01*
X9909601Y-14139041D01*
X9881030Y-14167613D01*
X9852458Y-14181899D01*
X10195316Y-14224756D02*
X10166744Y-14210470D01*
X10152458Y-14196184D01*
X10138173Y-14167613D01*
X10138173Y-14153327D01*
X10152458Y-14124756D01*
X10166744Y-14110470D01*
X10195316Y-14096184D01*
X10252458Y-14096184D01*
X10281030Y-14110470D01*
X10295316Y-14124756D01*
X10309601Y-14153327D01*
X10309601Y-14167613D01*
X10295316Y-14196184D01*
X10281030Y-14210470D01*
X10252458Y-14224756D01*
X10195316Y-14224756D01*
X10166744Y-14239041D01*
X10152458Y-14253327D01*
X10138173Y-14281899D01*
X10138173Y-14339041D01*
X10152458Y-14367613D01*
X10166744Y-14381899D01*
X10195316Y-14396184D01*
X10252458Y-14396184D01*
X10281030Y-14381899D01*
X10295316Y-14367613D01*
X10309601Y-14339041D01*
X10309601Y-14281899D01*
X10295316Y-14253327D01*
X10281030Y-14239041D01*
X10252458Y-14224756D01*
X10666744Y-14396184D02*
X10666744Y-14096184D01*
X10795316Y-14396184D02*
X10795316Y-14239041D01*
X10781030Y-14210470D01*
X10752458Y-14196184D01*
X10709601Y-14196184D01*
X10681030Y-14210470D01*
X10666744Y-14224756D01*
X10981030Y-14396184D02*
X10952458Y-14381899D01*
X10938173Y-14367613D01*
X10923887Y-14339041D01*
X10923887Y-14253327D01*
X10938173Y-14224756D01*
X10952458Y-14210470D01*
X10981030Y-14196184D01*
X11023887Y-14196184D01*
X11052458Y-14210470D01*
X11066744Y-14224756D01*
X11081030Y-14253327D01*
X11081030Y-14339041D01*
X11066744Y-14367613D01*
X11052458Y-14381899D01*
X11023887Y-14396184D01*
X10981030Y-14396184D01*
X11252458Y-14396184D02*
X11223887Y-14381899D01*
X11209601Y-14353327D01*
X11209601Y-14096184D01*
X11481030Y-14381899D02*
X11452458Y-14396184D01*
X11395316Y-14396184D01*
X11366744Y-14381899D01*
X11352458Y-14353327D01*
X11352458Y-14239041D01*
X11366744Y-14210470D01*
X11395316Y-14196184D01*
X11452458Y-14196184D01*
X11481030Y-14210470D01*
X11495316Y-14239041D01*
X11495316Y-14267613D01*
X11352458Y-14296184D01*
X11609601Y-14381899D02*
X11638173Y-14396184D01*
X11695316Y-14396184D01*
X11723887Y-14381899D01*
X11738173Y-14353327D01*
X11738173Y-14339041D01*
X11723887Y-14310470D01*
X11695316Y-14296184D01*
X11652458Y-14296184D01*
X11623887Y-14281899D01*
X11609601Y-14253327D01*
X11609601Y-14239041D01*
X11623887Y-14210470D01*
X11652458Y-14196184D01*
X11695316Y-14196184D01*
X11723887Y-14210470D01*
X11838173Y-14510470D02*
X11852458Y-14496184D01*
X11881030Y-14453327D01*
X11895316Y-14424756D01*
X11909601Y-14381899D01*
X11923887Y-14310470D01*
X11923887Y-14253327D01*
X11909601Y-14181899D01*
X11895316Y-14139041D01*
X11881030Y-14110470D01*
X11852458Y-14067613D01*
X11838173Y-14053327D01*
X4988560Y-14579000D02*
X4988560Y-14733940D01*
X4911090Y-14656470D02*
X5066030Y-14656470D01*
X5509601Y-14792184D02*
X5338173Y-14792184D01*
X5423887Y-14792184D02*
X5423887Y-14492184D01*
X5395316Y-14535041D01*
X5366744Y-14563613D01*
X5338173Y-14577899D01*
X5638173Y-14763613D02*
X5652458Y-14777899D01*
X5638173Y-14792184D01*
X5623887Y-14777899D01*
X5638173Y-14763613D01*
X5638173Y-14792184D01*
X5923887Y-14492184D02*
X5781030Y-14492184D01*
X5766744Y-14635041D01*
X5781030Y-14620756D01*
X5809601Y-14606470D01*
X5881030Y-14606470D01*
X5909601Y-14620756D01*
X5923887Y-14635041D01*
X5938173Y-14663613D01*
X5938173Y-14735041D01*
X5923887Y-14763613D01*
X5909601Y-14777899D01*
X5881030Y-14792184D01*
X5809601Y-14792184D01*
X5781030Y-14777899D01*
X5766744Y-14763613D01*
X6209601Y-14492184D02*
X6066744Y-14492184D01*
X6052458Y-14635041D01*
X6066744Y-14620756D01*
X6095316Y-14606470D01*
X6166744Y-14606470D01*
X6195316Y-14620756D01*
X6209601Y-14635041D01*
X6223887Y-14663613D01*
X6223887Y-14735041D01*
X6209601Y-14763613D01*
X6195316Y-14777899D01*
X6166744Y-14792184D01*
X6095316Y-14792184D01*
X6066744Y-14777899D01*
X6052458Y-14763613D01*
X6352458Y-14792184D02*
X6352458Y-14592184D01*
X6352458Y-14620756D02*
X6366744Y-14606470D01*
X6395316Y-14592184D01*
X6438173Y-14592184D01*
X6466744Y-14606470D01*
X6481030Y-14635041D01*
X6481030Y-14792184D01*
X6481030Y-14635041D02*
X6495316Y-14606470D01*
X6523887Y-14592184D01*
X6566744Y-14592184D01*
X6595316Y-14606470D01*
X6609601Y-14635041D01*
X6609601Y-14792184D01*
X6752458Y-14792184D02*
X6752458Y-14592184D01*
X6752458Y-14620756D02*
X6766744Y-14606470D01*
X6795316Y-14592184D01*
X6838173Y-14592184D01*
X6866744Y-14606470D01*
X6881030Y-14635041D01*
X6881030Y-14792184D01*
X6881030Y-14635041D02*
X6895316Y-14606470D01*
X6923887Y-14592184D01*
X6966744Y-14592184D01*
X6995316Y-14606470D01*
X7009601Y-14635041D01*
X7009601Y-14792184D01*
X7595316Y-14477899D02*
X7338173Y-14863613D01*
X7981030Y-14492184D02*
X8009601Y-14492184D01*
X8038173Y-14506470D01*
X8052458Y-14520756D01*
X8066744Y-14549327D01*
X8081030Y-14606470D01*
X8081030Y-14677899D01*
X8066744Y-14735041D01*
X8052458Y-14763613D01*
X8038173Y-14777899D01*
X8009601Y-14792184D01*
X7981030Y-14792184D01*
X7952458Y-14777899D01*
X7938173Y-14763613D01*
X7923887Y-14735041D01*
X7909601Y-14677899D01*
X7909601Y-14606470D01*
X7923887Y-14549327D01*
X7938173Y-14520756D01*
X7952458Y-14506470D01*
X7981030Y-14492184D01*
X8209601Y-14763613D02*
X8223887Y-14777899D01*
X8209601Y-14792184D01*
X8195316Y-14777899D01*
X8209601Y-14763613D01*
X8209601Y-14792184D01*
X8409601Y-14492184D02*
X8438173Y-14492184D01*
X8466744Y-14506470D01*
X8481030Y-14520756D01*
X8495316Y-14549327D01*
X8509601Y-14606470D01*
X8509601Y-14677899D01*
X8495316Y-14735041D01*
X8481030Y-14763613D01*
X8466744Y-14777899D01*
X8438173Y-14792184D01*
X8409601Y-14792184D01*
X8381030Y-14777899D01*
X8366744Y-14763613D01*
X8352458Y-14735041D01*
X8338173Y-14677899D01*
X8338173Y-14606470D01*
X8352458Y-14549327D01*
X8366744Y-14520756D01*
X8381030Y-14506470D01*
X8409601Y-14492184D01*
X8766744Y-14492184D02*
X8709601Y-14492184D01*
X8681030Y-14506470D01*
X8666744Y-14520756D01*
X8638173Y-14563613D01*
X8623887Y-14620756D01*
X8623887Y-14735041D01*
X8638173Y-14763613D01*
X8652458Y-14777899D01*
X8681030Y-14792184D01*
X8738173Y-14792184D01*
X8766744Y-14777899D01*
X8781030Y-14763613D01*
X8795316Y-14735041D01*
X8795316Y-14663613D01*
X8781030Y-14635041D01*
X8766744Y-14620756D01*
X8738173Y-14606470D01*
X8681030Y-14606470D01*
X8652458Y-14620756D01*
X8638173Y-14635041D01*
X8623887Y-14663613D01*
X9081030Y-14792184D02*
X8909601Y-14792184D01*
X8995316Y-14792184D02*
X8995316Y-14492184D01*
X8966744Y-14535041D01*
X8938173Y-14563613D01*
X8909601Y-14577899D01*
X9195316Y-14492184D02*
X9195316Y-14549327D01*
X9309601Y-14492184D02*
X9309601Y-14549327D01*
X9752458Y-14906470D02*
X9738173Y-14892184D01*
X9709601Y-14849327D01*
X9695316Y-14820756D01*
X9681030Y-14777899D01*
X9666744Y-14706470D01*
X9666744Y-14649327D01*
X9681030Y-14577899D01*
X9695316Y-14535041D01*
X9709601Y-14506470D01*
X9738173Y-14463613D01*
X9752458Y-14449327D01*
X9852458Y-14520756D02*
X9866744Y-14506470D01*
X9895316Y-14492184D01*
X9966744Y-14492184D01*
X9995316Y-14506470D01*
X10009601Y-14520756D01*
X10023887Y-14549327D01*
X10023887Y-14577899D01*
X10009601Y-14620756D01*
X9838173Y-14792184D01*
X10023887Y-14792184D01*
X10195316Y-14620756D02*
X10166744Y-14606470D01*
X10152458Y-14592184D01*
X10138173Y-14563613D01*
X10138173Y-14549327D01*
X10152458Y-14520756D01*
X10166744Y-14506470D01*
X10195316Y-14492184D01*
X10252458Y-14492184D01*
X10281030Y-14506470D01*
X10295316Y-14520756D01*
X10309601Y-14549327D01*
X10309601Y-14563613D01*
X10295316Y-14592184D01*
X10281030Y-14606470D01*
X10252458Y-14620756D01*
X10195316Y-14620756D01*
X10166744Y-14635041D01*
X10152458Y-14649327D01*
X10138173Y-14677899D01*
X10138173Y-14735041D01*
X10152458Y-14763613D01*
X10166744Y-14777899D01*
X10195316Y-14792184D01*
X10252458Y-14792184D01*
X10281030Y-14777899D01*
X10295316Y-14763613D01*
X10309601Y-14735041D01*
X10309601Y-14677899D01*
X10295316Y-14649327D01*
X10281030Y-14635041D01*
X10252458Y-14620756D01*
X10666744Y-14792184D02*
X10666744Y-14492184D01*
X10795316Y-14792184D02*
X10795316Y-14635041D01*
X10781030Y-14606470D01*
X10752458Y-14592184D01*
X10709601Y-14592184D01*
X10681030Y-14606470D01*
X10666744Y-14620756D01*
X10981030Y-14792184D02*
X10952458Y-14777899D01*
X10938173Y-14763613D01*
X10923887Y-14735041D01*
X10923887Y-14649327D01*
X10938173Y-14620756D01*
X10952458Y-14606470D01*
X10981030Y-14592184D01*
X11023887Y-14592184D01*
X11052458Y-14606470D01*
X11066744Y-14620756D01*
X11081030Y-14649327D01*
X11081030Y-14735041D01*
X11066744Y-14763613D01*
X11052458Y-14777899D01*
X11023887Y-14792184D01*
X10981030Y-14792184D01*
X11252458Y-14792184D02*
X11223887Y-14777899D01*
X11209601Y-14749327D01*
X11209601Y-14492184D01*
X11481030Y-14777899D02*
X11452458Y-14792184D01*
X11395316Y-14792184D01*
X11366744Y-14777899D01*
X11352458Y-14749327D01*
X11352458Y-14635041D01*
X11366744Y-14606470D01*
X11395316Y-14592184D01*
X11452458Y-14592184D01*
X11481030Y-14606470D01*
X11495316Y-14635041D01*
X11495316Y-14663613D01*
X11352458Y-14692184D01*
X11609601Y-14777899D02*
X11638173Y-14792184D01*
X11695316Y-14792184D01*
X11723887Y-14777899D01*
X11738173Y-14749327D01*
X11738173Y-14735041D01*
X11723887Y-14706470D01*
X11695316Y-14692184D01*
X11652458Y-14692184D01*
X11623887Y-14677899D01*
X11609601Y-14649327D01*
X11609601Y-14635041D01*
X11623887Y-14606470D01*
X11652458Y-14592184D01*
X11695316Y-14592184D01*
X11723887Y-14606470D01*
X11838173Y-14906470D02*
X11852458Y-14892184D01*
X11881030Y-14849327D01*
X11895316Y-14820756D01*
X11909601Y-14777899D01*
X11923887Y-14706470D01*
X11923887Y-14649327D01*
X11909601Y-14577899D01*
X11895316Y-14535041D01*
X11881030Y-14506470D01*
X11852458Y-14463613D01*
X11838173Y-14449327D01*
X5036741Y-15123181D02*
X5036741Y-14981759D01*
X4895319Y-14981759D01*
X4895319Y-15123181D01*
X5036741Y-15123181D01*
X5338173Y-14916756D02*
X5352458Y-14902470D01*
X5381030Y-14888184D01*
X5452458Y-14888184D01*
X5481030Y-14902470D01*
X5495316Y-14916756D01*
X5509601Y-14945327D01*
X5509601Y-14973899D01*
X5495316Y-15016756D01*
X5323887Y-15188184D01*
X5509601Y-15188184D01*
X5638173Y-15159613D02*
X5652458Y-15173899D01*
X5638173Y-15188184D01*
X5623887Y-15173899D01*
X5638173Y-15159613D01*
X5638173Y-15188184D01*
X5838173Y-14888184D02*
X5866744Y-14888184D01*
X5895316Y-14902470D01*
X5909601Y-14916756D01*
X5923887Y-14945327D01*
X5938173Y-15002470D01*
X5938173Y-15073899D01*
X5923887Y-15131041D01*
X5909601Y-15159613D01*
X5895316Y-15173899D01*
X5866744Y-15188184D01*
X5838173Y-15188184D01*
X5809601Y-15173899D01*
X5795316Y-15159613D01*
X5781030Y-15131041D01*
X5766744Y-15073899D01*
X5766744Y-15002470D01*
X5781030Y-14945327D01*
X5795316Y-14916756D01*
X5809601Y-14902470D01*
X5838173Y-14888184D01*
X6123887Y-14888184D02*
X6152458Y-14888184D01*
X6181030Y-14902470D01*
X6195316Y-14916756D01*
X6209601Y-14945327D01*
X6223887Y-15002470D01*
X6223887Y-15073899D01*
X6209601Y-15131041D01*
X6195316Y-15159613D01*
X6181030Y-15173899D01*
X6152458Y-15188184D01*
X6123887Y-15188184D01*
X6095316Y-15173899D01*
X6081030Y-15159613D01*
X6066744Y-15131041D01*
X6052458Y-15073899D01*
X6052458Y-15002470D01*
X6066744Y-14945327D01*
X6081030Y-14916756D01*
X6095316Y-14902470D01*
X6123887Y-14888184D01*
X6352458Y-15188184D02*
X6352458Y-14988184D01*
X6352458Y-15016756D02*
X6366744Y-15002470D01*
X6395316Y-14988184D01*
X6438173Y-14988184D01*
X6466744Y-15002470D01*
X6481030Y-15031041D01*
X6481030Y-15188184D01*
X6481030Y-15031041D02*
X6495316Y-15002470D01*
X6523887Y-14988184D01*
X6566744Y-14988184D01*
X6595316Y-15002470D01*
X6609601Y-15031041D01*
X6609601Y-15188184D01*
X6752458Y-15188184D02*
X6752458Y-14988184D01*
X6752458Y-15016756D02*
X6766744Y-15002470D01*
X6795316Y-14988184D01*
X6838173Y-14988184D01*
X6866744Y-15002470D01*
X6881030Y-15031041D01*
X6881030Y-15188184D01*
X6881030Y-15031041D02*
X6895316Y-15002470D01*
X6923887Y-14988184D01*
X6966744Y-14988184D01*
X6995316Y-15002470D01*
X7009601Y-15031041D01*
X7009601Y-15188184D01*
X7595316Y-14873899D02*
X7338173Y-15259613D01*
X7981030Y-14888184D02*
X8009601Y-14888184D01*
X8038173Y-14902470D01*
X8052458Y-14916756D01*
X8066744Y-14945327D01*
X8081030Y-15002470D01*
X8081030Y-15073899D01*
X8066744Y-15131041D01*
X8052458Y-15159613D01*
X8038173Y-15173899D01*
X8009601Y-15188184D01*
X7981030Y-15188184D01*
X7952458Y-15173899D01*
X7938173Y-15159613D01*
X7923887Y-15131041D01*
X7909601Y-15073899D01*
X7909601Y-15002470D01*
X7923887Y-14945327D01*
X7938173Y-14916756D01*
X7952458Y-14902470D01*
X7981030Y-14888184D01*
X8209601Y-15159613D02*
X8223887Y-15173899D01*
X8209601Y-15188184D01*
X8195316Y-15173899D01*
X8209601Y-15159613D01*
X8209601Y-15188184D01*
X8409601Y-14888184D02*
X8438173Y-14888184D01*
X8466744Y-14902470D01*
X8481030Y-14916756D01*
X8495316Y-14945327D01*
X8509601Y-15002470D01*
X8509601Y-15073899D01*
X8495316Y-15131041D01*
X8481030Y-15159613D01*
X8466744Y-15173899D01*
X8438173Y-15188184D01*
X8409601Y-15188184D01*
X8381030Y-15173899D01*
X8366744Y-15159613D01*
X8352458Y-15131041D01*
X8338173Y-15073899D01*
X8338173Y-15002470D01*
X8352458Y-14945327D01*
X8366744Y-14916756D01*
X8381030Y-14902470D01*
X8409601Y-14888184D01*
X8609601Y-14888184D02*
X8809601Y-14888184D01*
X8681030Y-15188184D01*
X8938173Y-15188184D02*
X8995316Y-15188184D01*
X9023887Y-15173899D01*
X9038173Y-15159613D01*
X9066744Y-15116756D01*
X9081030Y-15059613D01*
X9081030Y-14945327D01*
X9066744Y-14916756D01*
X9052458Y-14902470D01*
X9023887Y-14888184D01*
X8966744Y-14888184D01*
X8938173Y-14902470D01*
X8923887Y-14916756D01*
X8909601Y-14945327D01*
X8909601Y-15016756D01*
X8923887Y-15045327D01*
X8938173Y-15059613D01*
X8966744Y-15073899D01*
X9023887Y-15073899D01*
X9052458Y-15059613D01*
X9066744Y-15045327D01*
X9081030Y-15016756D01*
X9195316Y-14888184D02*
X9195316Y-14945327D01*
X9309601Y-14888184D02*
X9309601Y-14945327D01*
X9752458Y-15302470D02*
X9738173Y-15288184D01*
X9709601Y-15245327D01*
X9695316Y-15216756D01*
X9681030Y-15173899D01*
X9666744Y-15102470D01*
X9666744Y-15045327D01*
X9681030Y-14973899D01*
X9695316Y-14931041D01*
X9709601Y-14902470D01*
X9738173Y-14859613D01*
X9752458Y-14845327D01*
X10023887Y-15188184D02*
X9852458Y-15188184D01*
X9938173Y-15188184D02*
X9938173Y-14888184D01*
X9909601Y-14931041D01*
X9881030Y-14959613D01*
X9852458Y-14973899D01*
X10381030Y-15188184D02*
X10381030Y-14888184D01*
X10509601Y-15188184D02*
X10509601Y-15031041D01*
X10495316Y-15002470D01*
X10466744Y-14988184D01*
X10423887Y-14988184D01*
X10395316Y-15002470D01*
X10381030Y-15016756D01*
X10695316Y-15188184D02*
X10666744Y-15173899D01*
X10652458Y-15159613D01*
X10638173Y-15131041D01*
X10638173Y-15045327D01*
X10652458Y-15016756D01*
X10666744Y-15002470D01*
X10695316Y-14988184D01*
X10738173Y-14988184D01*
X10766744Y-15002470D01*
X10781030Y-15016756D01*
X10795316Y-15045327D01*
X10795316Y-15131041D01*
X10781030Y-15159613D01*
X10766744Y-15173899D01*
X10738173Y-15188184D01*
X10695316Y-15188184D01*
X10966744Y-15188184D02*
X10938173Y-15173899D01*
X10923887Y-15145327D01*
X10923887Y-14888184D01*
X11195316Y-15173899D02*
X11166744Y-15188184D01*
X11109601Y-15188184D01*
X11081030Y-15173899D01*
X11066744Y-15145327D01*
X11066744Y-15031041D01*
X11081030Y-15002470D01*
X11109601Y-14988184D01*
X11166744Y-14988184D01*
X11195316Y-15002470D01*
X11209601Y-15031041D01*
X11209601Y-15059613D01*
X11066744Y-15088184D01*
X11309601Y-15302470D02*
X11323887Y-15288184D01*
X11352458Y-15245327D01*
X11366744Y-15216756D01*
X11381030Y-15173899D01*
X11395316Y-15102470D01*
X11395316Y-15045327D01*
X11381030Y-14973899D01*
X11366744Y-14931041D01*
X11352458Y-14902470D01*
X11323887Y-14859613D01*
X11309601Y-14845327D01*
X4900930Y-15613570D02*
X5066030Y-15448470D01*
X4900930Y-15283370D01*
X4735830Y-15448470D01*
X4900930Y-15613570D01*
X5323887Y-15284184D02*
X5509601Y-15284184D01*
X5409601Y-15398470D01*
X5452458Y-15398470D01*
X5481030Y-15412756D01*
X5495316Y-15427041D01*
X5509601Y-15455613D01*
X5509601Y-15527041D01*
X5495316Y-15555613D01*
X5481030Y-15569899D01*
X5452458Y-15584184D01*
X5366744Y-15584184D01*
X5338173Y-15569899D01*
X5323887Y-15555613D01*
X5638173Y-15555613D02*
X5652458Y-15569899D01*
X5638173Y-15584184D01*
X5623887Y-15569899D01*
X5638173Y-15555613D01*
X5638173Y-15584184D01*
X5752458Y-15284184D02*
X5938173Y-15284184D01*
X5838173Y-15398470D01*
X5881030Y-15398470D01*
X5909601Y-15412756D01*
X5923887Y-15427041D01*
X5938173Y-15455613D01*
X5938173Y-15527041D01*
X5923887Y-15555613D01*
X5909601Y-15569899D01*
X5881030Y-15584184D01*
X5795316Y-15584184D01*
X5766744Y-15569899D01*
X5752458Y-15555613D01*
X6123887Y-15284184D02*
X6152458Y-15284184D01*
X6181030Y-15298470D01*
X6195316Y-15312756D01*
X6209601Y-15341327D01*
X6223887Y-15398470D01*
X6223887Y-15469899D01*
X6209601Y-15527041D01*
X6195316Y-15555613D01*
X6181030Y-15569899D01*
X6152458Y-15584184D01*
X6123887Y-15584184D01*
X6095316Y-15569899D01*
X6081030Y-15555613D01*
X6066744Y-15527041D01*
X6052458Y-15469899D01*
X6052458Y-15398470D01*
X6066744Y-15341327D01*
X6081030Y-15312756D01*
X6095316Y-15298470D01*
X6123887Y-15284184D01*
X6352458Y-15584184D02*
X6352458Y-15384184D01*
X6352458Y-15412756D02*
X6366744Y-15398470D01*
X6395316Y-15384184D01*
X6438173Y-15384184D01*
X6466744Y-15398470D01*
X6481030Y-15427041D01*
X6481030Y-15584184D01*
X6481030Y-15427041D02*
X6495316Y-15398470D01*
X6523887Y-15384184D01*
X6566744Y-15384184D01*
X6595316Y-15398470D01*
X6609601Y-15427041D01*
X6609601Y-15584184D01*
X6752458Y-15584184D02*
X6752458Y-15384184D01*
X6752458Y-15412756D02*
X6766744Y-15398470D01*
X6795316Y-15384184D01*
X6838173Y-15384184D01*
X6866744Y-15398470D01*
X6881030Y-15427041D01*
X6881030Y-15584184D01*
X6881030Y-15427041D02*
X6895316Y-15398470D01*
X6923887Y-15384184D01*
X6966744Y-15384184D01*
X6995316Y-15398470D01*
X7009601Y-15427041D01*
X7009601Y-15584184D01*
X7595316Y-15269899D02*
X7338173Y-15655613D01*
X7981030Y-15284184D02*
X8009601Y-15284184D01*
X8038173Y-15298470D01*
X8052458Y-15312756D01*
X8066744Y-15341327D01*
X8081030Y-15398470D01*
X8081030Y-15469899D01*
X8066744Y-15527041D01*
X8052458Y-15555613D01*
X8038173Y-15569899D01*
X8009601Y-15584184D01*
X7981030Y-15584184D01*
X7952458Y-15569899D01*
X7938173Y-15555613D01*
X7923887Y-15527041D01*
X7909601Y-15469899D01*
X7909601Y-15398470D01*
X7923887Y-15341327D01*
X7938173Y-15312756D01*
X7952458Y-15298470D01*
X7981030Y-15284184D01*
X8209601Y-15555613D02*
X8223887Y-15569899D01*
X8209601Y-15584184D01*
X8195316Y-15569899D01*
X8209601Y-15555613D01*
X8209601Y-15584184D01*
X8509601Y-15584184D02*
X8338173Y-15584184D01*
X8423887Y-15584184D02*
X8423887Y-15284184D01*
X8395316Y-15327041D01*
X8366744Y-15355613D01*
X8338173Y-15369899D01*
X8609601Y-15284184D02*
X8795316Y-15284184D01*
X8695316Y-15398470D01*
X8738173Y-15398470D01*
X8766744Y-15412756D01*
X8781030Y-15427041D01*
X8795316Y-15455613D01*
X8795316Y-15527041D01*
X8781030Y-15555613D01*
X8766744Y-15569899D01*
X8738173Y-15584184D01*
X8652458Y-15584184D01*
X8623887Y-15569899D01*
X8609601Y-15555613D01*
X8981030Y-15284184D02*
X9009601Y-15284184D01*
X9038173Y-15298470D01*
X9052458Y-15312756D01*
X9066744Y-15341327D01*
X9081030Y-15398470D01*
X9081030Y-15469899D01*
X9066744Y-15527041D01*
X9052458Y-15555613D01*
X9038173Y-15569899D01*
X9009601Y-15584184D01*
X8981030Y-15584184D01*
X8952458Y-15569899D01*
X8938173Y-15555613D01*
X8923887Y-15527041D01*
X8909601Y-15469899D01*
X8909601Y-15398470D01*
X8923887Y-15341327D01*
X8938173Y-15312756D01*
X8952458Y-15298470D01*
X8981030Y-15284184D01*
X9195316Y-15284184D02*
X9195316Y-15341327D01*
X9309601Y-15284184D02*
X9309601Y-15341327D01*
X9752458Y-15698470D02*
X9738173Y-15684184D01*
X9709601Y-15641327D01*
X9695316Y-15612756D01*
X9681030Y-15569899D01*
X9666744Y-15498470D01*
X9666744Y-15441327D01*
X9681030Y-15369899D01*
X9695316Y-15327041D01*
X9709601Y-15298470D01*
X9738173Y-15255613D01*
X9752458Y-15241327D01*
X9838173Y-15284184D02*
X10023887Y-15284184D01*
X9923887Y-15398470D01*
X9966744Y-15398470D01*
X9995316Y-15412756D01*
X10009601Y-15427041D01*
X10023887Y-15455613D01*
X10023887Y-15527041D01*
X10009601Y-15555613D01*
X9995316Y-15569899D01*
X9966744Y-15584184D01*
X9881030Y-15584184D01*
X9852458Y-15569899D01*
X9838173Y-15555613D01*
X10381030Y-15584184D02*
X10381030Y-15284184D01*
X10509601Y-15584184D02*
X10509601Y-15427041D01*
X10495316Y-15398470D01*
X10466744Y-15384184D01*
X10423887Y-15384184D01*
X10395316Y-15398470D01*
X10381030Y-15412756D01*
X10695316Y-15584184D02*
X10666744Y-15569899D01*
X10652458Y-15555613D01*
X10638173Y-15527041D01*
X10638173Y-15441327D01*
X10652458Y-15412756D01*
X10666744Y-15398470D01*
X10695316Y-15384184D01*
X10738173Y-15384184D01*
X10766744Y-15398470D01*
X10781030Y-15412756D01*
X10795316Y-15441327D01*
X10795316Y-15527041D01*
X10781030Y-15555613D01*
X10766744Y-15569899D01*
X10738173Y-15584184D01*
X10695316Y-15584184D01*
X10966744Y-15584184D02*
X10938173Y-15569899D01*
X10923887Y-15541327D01*
X10923887Y-15284184D01*
X11195316Y-15569899D02*
X11166744Y-15584184D01*
X11109601Y-15584184D01*
X11081030Y-15569899D01*
X11066744Y-15541327D01*
X11066744Y-15427041D01*
X11081030Y-15398470D01*
X11109601Y-15384184D01*
X11166744Y-15384184D01*
X11195316Y-15398470D01*
X11209601Y-15427041D01*
X11209601Y-15455613D01*
X11066744Y-15484184D01*
X11323887Y-15569899D02*
X11352458Y-15584184D01*
X11409601Y-15584184D01*
X11438173Y-15569899D01*
X11452458Y-15541327D01*
X11452458Y-15527041D01*
X11438173Y-15498470D01*
X11409601Y-15484184D01*
X11366744Y-15484184D01*
X11338173Y-15469899D01*
X11323887Y-15441327D01*
X11323887Y-15427041D01*
X11338173Y-15398470D01*
X11366744Y-15384184D01*
X11409601Y-15384184D01*
X11438173Y-15398470D01*
X11552458Y-15698470D02*
X11566744Y-15684184D01*
X11595316Y-15641327D01*
X11609601Y-15612756D01*
X11623887Y-15569899D01*
X11638173Y-15498470D01*
X11638173Y-15441327D01*
X11623887Y-15369899D01*
X11609601Y-15327041D01*
X11595316Y-15298470D01*
X11566744Y-15255613D01*
X11552458Y-15241327D01*
M02*
