%TF.GenerationSoftware,KiCad,Pcbnew,5.1.7-a382d34a8~87~ubuntu20.04.1*%
%TF.CreationDate,2020-10-21T15:20:26-04:00*%
%TF.ProjectId,y_arena_odor_controller,795f6172-656e-4615-9f6f-646f725f636f,2.0*%
%TF.SameCoordinates,Original*%
%TF.FileFunction,Paste,Bot*%
%TF.FilePolarity,Positive*%
%FSLAX46Y46*%
G04 Gerber Fmt 4.6, Leading zero omitted, Abs format (unit mm)*
G04 Created by KiCad (PCBNEW 5.1.7-a382d34a8~87~ubuntu20.04.1) date 2020-10-21 15:20:26*
%MOMM*%
%LPD*%
G01*
G04 APERTURE LIST*
%ADD10R,1.549400X0.599440*%
%ADD11R,0.700000X0.600000*%
%ADD12R,0.600000X0.700000*%
%ADD13R,3.800000X4.960000*%
%ADD14R,1.600000X1.440000*%
G04 APERTURE END LIST*
D10*
%TO.C,U1*%
X59537600Y-76200000D03*
X59537600Y-77470000D03*
X59537600Y-78740000D03*
X59537600Y-80010000D03*
X64922400Y-80010000D03*
X64922400Y-78740000D03*
X64922400Y-77470000D03*
X64922400Y-76200000D03*
%TD*%
%TO.C,U2*%
X59537600Y-68580000D03*
X59537600Y-69850000D03*
X59537600Y-71120000D03*
X59537600Y-72390000D03*
X64922400Y-72390000D03*
X64922400Y-71120000D03*
X64922400Y-69850000D03*
X64922400Y-68580000D03*
%TD*%
%TO.C,U3*%
X59537600Y-60960000D03*
X59537600Y-62230000D03*
X59537600Y-63500000D03*
X59537600Y-64770000D03*
X64922400Y-64770000D03*
X64922400Y-63500000D03*
X64922400Y-62230000D03*
X64922400Y-60960000D03*
%TD*%
%TO.C,U4*%
X87477600Y-76200000D03*
X87477600Y-77470000D03*
X87477600Y-78740000D03*
X87477600Y-80010000D03*
X92862400Y-80010000D03*
X92862400Y-78740000D03*
X92862400Y-77470000D03*
X92862400Y-76200000D03*
%TD*%
%TO.C,U5*%
X87477600Y-68580000D03*
X87477600Y-69850000D03*
X87477600Y-71120000D03*
X87477600Y-72390000D03*
X92862400Y-72390000D03*
X92862400Y-71120000D03*
X92862400Y-69850000D03*
X92862400Y-68580000D03*
%TD*%
%TO.C,U6*%
X87477600Y-60960000D03*
X87477600Y-62230000D03*
X87477600Y-63500000D03*
X87477600Y-64770000D03*
X92862400Y-64770000D03*
X92862400Y-63500000D03*
X92862400Y-62230000D03*
X92862400Y-60960000D03*
%TD*%
%TO.C,U7*%
X115417600Y-76200000D03*
X115417600Y-77470000D03*
X115417600Y-78740000D03*
X115417600Y-80010000D03*
X120802400Y-80010000D03*
X120802400Y-78740000D03*
X120802400Y-77470000D03*
X120802400Y-76200000D03*
%TD*%
%TO.C,U8*%
X115417600Y-68580000D03*
X115417600Y-69850000D03*
X115417600Y-71120000D03*
X115417600Y-72390000D03*
X120802400Y-72390000D03*
X120802400Y-71120000D03*
X120802400Y-69850000D03*
X120802400Y-68580000D03*
%TD*%
%TO.C,U9*%
X115417600Y-60960000D03*
X115417600Y-62230000D03*
X115417600Y-63500000D03*
X115417600Y-64770000D03*
X120802400Y-64770000D03*
X120802400Y-63500000D03*
X120802400Y-62230000D03*
X120802400Y-60960000D03*
%TD*%
D11*
%TO.C,D3*%
X81915000Y-112260000D03*
X81915000Y-111260000D03*
%TD*%
%TO.C,D4*%
X56515000Y-77335000D03*
X56515000Y-76335000D03*
%TD*%
%TO.C,D5*%
X81915000Y-107180000D03*
X81915000Y-106180000D03*
%TD*%
%TO.C,D6*%
X56515000Y-69715000D03*
X56515000Y-68715000D03*
%TD*%
%TO.C,D7*%
X81915000Y-102100000D03*
X81915000Y-101100000D03*
%TD*%
%TO.C,D8*%
X56515000Y-62095000D03*
X56515000Y-61095000D03*
%TD*%
%TO.C,D9*%
X86995000Y-112260000D03*
X86995000Y-111260000D03*
%TD*%
%TO.C,D10*%
X84455000Y-77335000D03*
X84455000Y-76335000D03*
%TD*%
%TO.C,D11*%
X86995000Y-107180000D03*
X86995000Y-106180000D03*
%TD*%
%TO.C,D12*%
X84455000Y-69715000D03*
X84455000Y-68715000D03*
%TD*%
%TO.C,D13*%
X86995000Y-102100000D03*
X86995000Y-101100000D03*
%TD*%
%TO.C,D14*%
X84455000Y-62095000D03*
X84455000Y-61095000D03*
%TD*%
%TO.C,D15*%
X92075000Y-112260000D03*
X92075000Y-111260000D03*
%TD*%
%TO.C,D16*%
X112395000Y-77335000D03*
X112395000Y-76335000D03*
%TD*%
%TO.C,D17*%
X92075000Y-107180000D03*
X92075000Y-106180000D03*
%TD*%
%TO.C,D18*%
X112395000Y-69715000D03*
X112395000Y-68715000D03*
%TD*%
%TO.C,D19*%
X92075000Y-102100000D03*
X92075000Y-101100000D03*
%TD*%
%TO.C,D20*%
X112395000Y-62095000D03*
X112395000Y-61095000D03*
%TD*%
D12*
%TO.C,C2*%
X62730000Y-81915000D03*
X61730000Y-81915000D03*
%TD*%
%TO.C,C4*%
X62730000Y-74295000D03*
X61730000Y-74295000D03*
%TD*%
%TO.C,C6*%
X62730000Y-66675000D03*
X61730000Y-66675000D03*
%TD*%
%TO.C,C8*%
X90670000Y-81915000D03*
X89670000Y-81915000D03*
%TD*%
%TO.C,C10*%
X90670000Y-74295000D03*
X89670000Y-74295000D03*
%TD*%
%TO.C,C12*%
X90670000Y-66675000D03*
X89670000Y-66675000D03*
%TD*%
%TO.C,C14*%
X118610000Y-81915000D03*
X117610000Y-81915000D03*
%TD*%
%TO.C,C16*%
X118610000Y-74295000D03*
X117610000Y-74295000D03*
%TD*%
%TO.C,C18*%
X118610000Y-66675000D03*
X117610000Y-66675000D03*
%TD*%
%TO.C,C3*%
X68445000Y-78740000D03*
X67445000Y-78740000D03*
%TD*%
%TO.C,C5*%
X68445000Y-71120000D03*
X67445000Y-71120000D03*
%TD*%
%TO.C,C7*%
X68445000Y-63500000D03*
X67445000Y-63500000D03*
%TD*%
%TO.C,C9*%
X96385000Y-78740000D03*
X95385000Y-78740000D03*
%TD*%
%TO.C,C11*%
X96385000Y-71120000D03*
X95385000Y-71120000D03*
%TD*%
%TO.C,C13*%
X96385000Y-63500000D03*
X95385000Y-63500000D03*
%TD*%
%TO.C,C15*%
X124325000Y-78740000D03*
X123325000Y-78740000D03*
%TD*%
%TO.C,C17*%
X124325000Y-71120000D03*
X123325000Y-71120000D03*
%TD*%
%TO.C,C19*%
X124325000Y-63500000D03*
X123325000Y-63500000D03*
%TD*%
%TO.C,R3*%
X68445000Y-74930000D03*
X67445000Y-74930000D03*
%TD*%
%TO.C,R4*%
X68445000Y-76835000D03*
X67445000Y-76835000D03*
%TD*%
D11*
%TO.C,R6*%
X84455000Y-107180000D03*
X84455000Y-106180000D03*
%TD*%
D12*
%TO.C,R7*%
X68445000Y-67310000D03*
X67445000Y-67310000D03*
%TD*%
%TO.C,R9*%
X68445000Y-73025000D03*
X67445000Y-73025000D03*
%TD*%
D11*
%TO.C,R10*%
X84455000Y-102100000D03*
X84455000Y-101100000D03*
%TD*%
D12*
%TO.C,R12*%
X68445000Y-61595000D03*
X67445000Y-61595000D03*
%TD*%
%TO.C,R13*%
X68445000Y-65405000D03*
X67445000Y-65405000D03*
%TD*%
%TO.C,R15*%
X96385000Y-74930000D03*
X95385000Y-74930000D03*
%TD*%
%TO.C,R16*%
X96385000Y-76835000D03*
X95385000Y-76835000D03*
%TD*%
D11*
%TO.C,R18*%
X89535000Y-107180000D03*
X89535000Y-106180000D03*
%TD*%
D12*
%TO.C,R19*%
X96385000Y-67310000D03*
X95385000Y-67310000D03*
%TD*%
%TO.C,R21*%
X96385000Y-73025000D03*
X95385000Y-73025000D03*
%TD*%
D11*
%TO.C,R22*%
X89535000Y-102100000D03*
X89535000Y-101100000D03*
%TD*%
D12*
%TO.C,R24*%
X96385000Y-61595000D03*
X95385000Y-61595000D03*
%TD*%
%TO.C,R25*%
X96385000Y-65405000D03*
X95385000Y-65405000D03*
%TD*%
%TO.C,R27*%
X124325000Y-74930000D03*
X123325000Y-74930000D03*
%TD*%
%TO.C,R28*%
X124325000Y-76835000D03*
X123325000Y-76835000D03*
%TD*%
D11*
%TO.C,R2*%
X84455000Y-112260000D03*
X84455000Y-111260000D03*
%TD*%
D12*
%TO.C,R5*%
X68445000Y-80645000D03*
X67445000Y-80645000D03*
%TD*%
%TO.C,R8*%
X68445000Y-69215000D03*
X67445000Y-69215000D03*
%TD*%
%TO.C,R11*%
X68445000Y-59690000D03*
X67445000Y-59690000D03*
%TD*%
D11*
%TO.C,R14*%
X89535000Y-112260000D03*
X89535000Y-111260000D03*
%TD*%
D12*
%TO.C,R17*%
X96385000Y-80645000D03*
X95385000Y-80645000D03*
%TD*%
%TO.C,R20*%
X96385000Y-69215000D03*
X95385000Y-69215000D03*
%TD*%
%TO.C,R23*%
X96385000Y-59690000D03*
X95385000Y-59690000D03*
%TD*%
D11*
%TO.C,R26*%
X94615000Y-112260000D03*
X94615000Y-111260000D03*
%TD*%
%TO.C,R1*%
X80645000Y-124325000D03*
X80645000Y-123325000D03*
%TD*%
D13*
%TO.C,D2*%
X78105000Y-124845000D03*
D14*
X79170000Y-121045000D03*
X77040000Y-121045000D03*
%TD*%
D12*
%TO.C,R29*%
X123325000Y-80645000D03*
X124325000Y-80645000D03*
%TD*%
D11*
%TO.C,R30*%
X94615000Y-107180000D03*
X94615000Y-106180000D03*
%TD*%
D12*
%TO.C,R31*%
X123325000Y-67310000D03*
X124325000Y-67310000D03*
%TD*%
%TO.C,R32*%
X123325000Y-69215000D03*
X124325000Y-69215000D03*
%TD*%
%TO.C,R33*%
X124325000Y-73025000D03*
X123325000Y-73025000D03*
%TD*%
D11*
%TO.C,R34*%
X94615000Y-102100000D03*
X94615000Y-101100000D03*
%TD*%
D12*
%TO.C,R35*%
X123325000Y-59690000D03*
X124325000Y-59690000D03*
%TD*%
%TO.C,R36*%
X123325000Y-61595000D03*
X124325000Y-61595000D03*
%TD*%
%TO.C,R37*%
X124325000Y-65405000D03*
X123325000Y-65405000D03*
%TD*%
M02*
