%TF.GenerationSoftware,KiCad,Pcbnew,5.1.7-a382d34a8~87~ubuntu20.04.1*%
%TF.CreationDate,2020-10-21T15:20:26-04:00*%
%TF.ProjectId,y_arena_odor_controller,795f6172-656e-4615-9f6f-646f725f636f,2.0*%
%TF.SameCoordinates,Original*%
%TF.FileFunction,Legend,Bot*%
%TF.FilePolarity,Positive*%
%FSLAX46Y46*%
G04 Gerber Fmt 4.6, Leading zero omitted, Abs format (unit mm)*
G04 Created by KiCad (PCBNEW 5.1.7-a382d34a8~87~ubuntu20.04.1) date 2020-10-21 15:20:26*
%MOMM*%
%LPD*%
G01*
G04 APERTURE LIST*
%ADD10C,0.254000*%
%ADD11C,0.279400*%
%ADD12C,0.381000*%
%ADD13C,0.177800*%
%ADD14C,0.228600*%
%ADD15C,0.127000*%
%ADD16O,2.540000X2.184400*%
%ADD17R,2.540000X2.184400*%
%ADD18C,2.286000*%
%ADD19C,3.000000*%
%ADD20R,1.549400X0.599440*%
%ADD21R,0.700000X0.600000*%
%ADD22R,0.600000X0.700000*%
%ADD23C,3.556000*%
%ADD24R,3.800000X4.960000*%
%ADD25R,1.600000X1.440000*%
G04 APERTURE END LIST*
D10*
X110786333Y-59393666D02*
X110786333Y-59877476D01*
X111076619Y-59296904D02*
X110060619Y-59635571D01*
X111076619Y-59974238D01*
X111076619Y-60893476D02*
X110592809Y-60554809D01*
X111076619Y-60312904D02*
X110060619Y-60312904D01*
X110060619Y-60699952D01*
X110109000Y-60796714D01*
X110157380Y-60845095D01*
X110254142Y-60893476D01*
X110399285Y-60893476D01*
X110496047Y-60845095D01*
X110544428Y-60796714D01*
X110592809Y-60699952D01*
X110592809Y-60312904D01*
X111076619Y-61328904D02*
X110060619Y-61328904D01*
X110786333Y-61667571D01*
X110060619Y-62006238D01*
X111076619Y-62006238D01*
X110157380Y-63215761D02*
X110109000Y-63264142D01*
X110060619Y-63360904D01*
X110060619Y-63602809D01*
X110109000Y-63699571D01*
X110157380Y-63747952D01*
X110254142Y-63796333D01*
X110350904Y-63796333D01*
X110496047Y-63747952D01*
X111076619Y-63167380D01*
X111076619Y-63796333D01*
X82846333Y-59393666D02*
X82846333Y-59877476D01*
X83136619Y-59296904D02*
X82120619Y-59635571D01*
X83136619Y-59974238D01*
X83136619Y-60893476D02*
X82652809Y-60554809D01*
X83136619Y-60312904D02*
X82120619Y-60312904D01*
X82120619Y-60699952D01*
X82169000Y-60796714D01*
X82217380Y-60845095D01*
X82314142Y-60893476D01*
X82459285Y-60893476D01*
X82556047Y-60845095D01*
X82604428Y-60796714D01*
X82652809Y-60699952D01*
X82652809Y-60312904D01*
X83136619Y-61328904D02*
X82120619Y-61328904D01*
X82846333Y-61667571D01*
X82120619Y-62006238D01*
X83136619Y-62006238D01*
X82217380Y-63215761D02*
X82169000Y-63264142D01*
X82120619Y-63360904D01*
X82120619Y-63602809D01*
X82169000Y-63699571D01*
X82217380Y-63747952D01*
X82314142Y-63796333D01*
X82410904Y-63796333D01*
X82556047Y-63747952D01*
X83136619Y-63167380D01*
X83136619Y-63796333D01*
X54906333Y-59393666D02*
X54906333Y-59877476D01*
X55196619Y-59296904D02*
X54180619Y-59635571D01*
X55196619Y-59974238D01*
X55196619Y-60893476D02*
X54712809Y-60554809D01*
X55196619Y-60312904D02*
X54180619Y-60312904D01*
X54180619Y-60699952D01*
X54229000Y-60796714D01*
X54277380Y-60845095D01*
X54374142Y-60893476D01*
X54519285Y-60893476D01*
X54616047Y-60845095D01*
X54664428Y-60796714D01*
X54712809Y-60699952D01*
X54712809Y-60312904D01*
X55196619Y-61328904D02*
X54180619Y-61328904D01*
X54906333Y-61667571D01*
X54180619Y-62006238D01*
X55196619Y-62006238D01*
X54277380Y-63215761D02*
X54229000Y-63264142D01*
X54180619Y-63360904D01*
X54180619Y-63602809D01*
X54229000Y-63699571D01*
X54277380Y-63747952D01*
X54374142Y-63796333D01*
X54470904Y-63796333D01*
X54616047Y-63747952D01*
X55196619Y-63167380D01*
X55196619Y-63796333D01*
X110786333Y-67013666D02*
X110786333Y-67497476D01*
X111076619Y-66916904D02*
X110060619Y-67255571D01*
X111076619Y-67594238D01*
X111076619Y-68513476D02*
X110592809Y-68174809D01*
X111076619Y-67932904D02*
X110060619Y-67932904D01*
X110060619Y-68319952D01*
X110109000Y-68416714D01*
X110157380Y-68465095D01*
X110254142Y-68513476D01*
X110399285Y-68513476D01*
X110496047Y-68465095D01*
X110544428Y-68416714D01*
X110592809Y-68319952D01*
X110592809Y-67932904D01*
X111076619Y-68948904D02*
X110060619Y-68948904D01*
X110786333Y-69287571D01*
X110060619Y-69626238D01*
X111076619Y-69626238D01*
X111076619Y-71416333D02*
X111076619Y-70835761D01*
X111076619Y-71126047D02*
X110060619Y-71126047D01*
X110205761Y-71029285D01*
X110302523Y-70932523D01*
X110350904Y-70835761D01*
X82846333Y-67013666D02*
X82846333Y-67497476D01*
X83136619Y-66916904D02*
X82120619Y-67255571D01*
X83136619Y-67594238D01*
X83136619Y-68513476D02*
X82652809Y-68174809D01*
X83136619Y-67932904D02*
X82120619Y-67932904D01*
X82120619Y-68319952D01*
X82169000Y-68416714D01*
X82217380Y-68465095D01*
X82314142Y-68513476D01*
X82459285Y-68513476D01*
X82556047Y-68465095D01*
X82604428Y-68416714D01*
X82652809Y-68319952D01*
X82652809Y-67932904D01*
X83136619Y-68948904D02*
X82120619Y-68948904D01*
X82846333Y-69287571D01*
X82120619Y-69626238D01*
X83136619Y-69626238D01*
X83136619Y-71416333D02*
X83136619Y-70835761D01*
X83136619Y-71126047D02*
X82120619Y-71126047D01*
X82265761Y-71029285D01*
X82362523Y-70932523D01*
X82410904Y-70835761D01*
X54906333Y-67013666D02*
X54906333Y-67497476D01*
X55196619Y-66916904D02*
X54180619Y-67255571D01*
X55196619Y-67594238D01*
X55196619Y-68513476D02*
X54712809Y-68174809D01*
X55196619Y-67932904D02*
X54180619Y-67932904D01*
X54180619Y-68319952D01*
X54229000Y-68416714D01*
X54277380Y-68465095D01*
X54374142Y-68513476D01*
X54519285Y-68513476D01*
X54616047Y-68465095D01*
X54664428Y-68416714D01*
X54712809Y-68319952D01*
X54712809Y-67932904D01*
X55196619Y-68948904D02*
X54180619Y-68948904D01*
X54906333Y-69287571D01*
X54180619Y-69626238D01*
X55196619Y-69626238D01*
X55196619Y-71416333D02*
X55196619Y-70835761D01*
X55196619Y-71126047D02*
X54180619Y-71126047D01*
X54325761Y-71029285D01*
X54422523Y-70932523D01*
X54470904Y-70835761D01*
X110786333Y-74633666D02*
X110786333Y-75117476D01*
X111076619Y-74536904D02*
X110060619Y-74875571D01*
X111076619Y-75214238D01*
X111076619Y-76133476D02*
X110592809Y-75794809D01*
X111076619Y-75552904D02*
X110060619Y-75552904D01*
X110060619Y-75939952D01*
X110109000Y-76036714D01*
X110157380Y-76085095D01*
X110254142Y-76133476D01*
X110399285Y-76133476D01*
X110496047Y-76085095D01*
X110544428Y-76036714D01*
X110592809Y-75939952D01*
X110592809Y-75552904D01*
X111076619Y-76568904D02*
X110060619Y-76568904D01*
X110786333Y-76907571D01*
X110060619Y-77246238D01*
X111076619Y-77246238D01*
X110060619Y-78697666D02*
X110060619Y-78794428D01*
X110109000Y-78891190D01*
X110157380Y-78939571D01*
X110254142Y-78987952D01*
X110447666Y-79036333D01*
X110689571Y-79036333D01*
X110883095Y-78987952D01*
X110979857Y-78939571D01*
X111028238Y-78891190D01*
X111076619Y-78794428D01*
X111076619Y-78697666D01*
X111028238Y-78600904D01*
X110979857Y-78552523D01*
X110883095Y-78504142D01*
X110689571Y-78455761D01*
X110447666Y-78455761D01*
X110254142Y-78504142D01*
X110157380Y-78552523D01*
X110109000Y-78600904D01*
X110060619Y-78697666D01*
X82846333Y-74633666D02*
X82846333Y-75117476D01*
X83136619Y-74536904D02*
X82120619Y-74875571D01*
X83136619Y-75214238D01*
X83136619Y-76133476D02*
X82652809Y-75794809D01*
X83136619Y-75552904D02*
X82120619Y-75552904D01*
X82120619Y-75939952D01*
X82169000Y-76036714D01*
X82217380Y-76085095D01*
X82314142Y-76133476D01*
X82459285Y-76133476D01*
X82556047Y-76085095D01*
X82604428Y-76036714D01*
X82652809Y-75939952D01*
X82652809Y-75552904D01*
X83136619Y-76568904D02*
X82120619Y-76568904D01*
X82846333Y-76907571D01*
X82120619Y-77246238D01*
X83136619Y-77246238D01*
X82120619Y-78697666D02*
X82120619Y-78794428D01*
X82169000Y-78891190D01*
X82217380Y-78939571D01*
X82314142Y-78987952D01*
X82507666Y-79036333D01*
X82749571Y-79036333D01*
X82943095Y-78987952D01*
X83039857Y-78939571D01*
X83088238Y-78891190D01*
X83136619Y-78794428D01*
X83136619Y-78697666D01*
X83088238Y-78600904D01*
X83039857Y-78552523D01*
X82943095Y-78504142D01*
X82749571Y-78455761D01*
X82507666Y-78455761D01*
X82314142Y-78504142D01*
X82217380Y-78552523D01*
X82169000Y-78600904D01*
X82120619Y-78697666D01*
X54906333Y-74633666D02*
X54906333Y-75117476D01*
X55196619Y-74536904D02*
X54180619Y-74875571D01*
X55196619Y-75214238D01*
X55196619Y-76133476D02*
X54712809Y-75794809D01*
X55196619Y-75552904D02*
X54180619Y-75552904D01*
X54180619Y-75939952D01*
X54229000Y-76036714D01*
X54277380Y-76085095D01*
X54374142Y-76133476D01*
X54519285Y-76133476D01*
X54616047Y-76085095D01*
X54664428Y-76036714D01*
X54712809Y-75939952D01*
X54712809Y-75552904D01*
X55196619Y-76568904D02*
X54180619Y-76568904D01*
X54906333Y-76907571D01*
X54180619Y-77246238D01*
X55196619Y-77246238D01*
X54180619Y-78697666D02*
X54180619Y-78794428D01*
X54229000Y-78891190D01*
X54277380Y-78939571D01*
X54374142Y-78987952D01*
X54567666Y-79036333D01*
X54809571Y-79036333D01*
X55003095Y-78987952D01*
X55099857Y-78939571D01*
X55148238Y-78891190D01*
X55196619Y-78794428D01*
X55196619Y-78697666D01*
X55148238Y-78600904D01*
X55099857Y-78552523D01*
X55003095Y-78504142D01*
X54809571Y-78455761D01*
X54567666Y-78455761D01*
X54374142Y-78504142D01*
X54277380Y-78552523D01*
X54229000Y-78600904D01*
X54180619Y-78697666D01*
X113640809Y-81993619D02*
X113447285Y-81993619D01*
X113350523Y-82042000D01*
X113253761Y-82138761D01*
X113205380Y-82332285D01*
X113205380Y-82670952D01*
X113253761Y-82864476D01*
X113350523Y-82961238D01*
X113447285Y-83009619D01*
X113640809Y-83009619D01*
X113737571Y-82961238D01*
X113834333Y-82864476D01*
X113882714Y-82670952D01*
X113882714Y-82332285D01*
X113834333Y-82138761D01*
X113737571Y-82042000D01*
X113640809Y-81993619D01*
X112769952Y-83009619D02*
X112769952Y-81993619D01*
X112528047Y-81993619D01*
X112382904Y-82042000D01*
X112286142Y-82138761D01*
X112237761Y-82235523D01*
X112189380Y-82429047D01*
X112189380Y-82574190D01*
X112237761Y-82767714D01*
X112286142Y-82864476D01*
X112382904Y-82961238D01*
X112528047Y-83009619D01*
X112769952Y-83009619D01*
X111560428Y-81993619D02*
X111366904Y-81993619D01*
X111270142Y-82042000D01*
X111173380Y-82138761D01*
X111125000Y-82332285D01*
X111125000Y-82670952D01*
X111173380Y-82864476D01*
X111270142Y-82961238D01*
X111366904Y-83009619D01*
X111560428Y-83009619D01*
X111657190Y-82961238D01*
X111753952Y-82864476D01*
X111802333Y-82670952D01*
X111802333Y-82332285D01*
X111753952Y-82138761D01*
X111657190Y-82042000D01*
X111560428Y-81993619D01*
X110109000Y-83009619D02*
X110447666Y-82525809D01*
X110689571Y-83009619D02*
X110689571Y-81993619D01*
X110302523Y-81993619D01*
X110205761Y-82042000D01*
X110157380Y-82090380D01*
X110109000Y-82187142D01*
X110109000Y-82332285D01*
X110157380Y-82429047D01*
X110205761Y-82477428D01*
X110302523Y-82525809D01*
X110689571Y-82525809D01*
X108947857Y-82090380D02*
X108899476Y-82042000D01*
X108802714Y-81993619D01*
X108560809Y-81993619D01*
X108464047Y-82042000D01*
X108415666Y-82090380D01*
X108367285Y-82187142D01*
X108367285Y-82283904D01*
X108415666Y-82429047D01*
X108996238Y-83009619D01*
X108367285Y-83009619D01*
X85065809Y-81993619D02*
X84872285Y-81993619D01*
X84775523Y-82042000D01*
X84678761Y-82138761D01*
X84630380Y-82332285D01*
X84630380Y-82670952D01*
X84678761Y-82864476D01*
X84775523Y-82961238D01*
X84872285Y-83009619D01*
X85065809Y-83009619D01*
X85162571Y-82961238D01*
X85259333Y-82864476D01*
X85307714Y-82670952D01*
X85307714Y-82332285D01*
X85259333Y-82138761D01*
X85162571Y-82042000D01*
X85065809Y-81993619D01*
X84194952Y-83009619D02*
X84194952Y-81993619D01*
X83953047Y-81993619D01*
X83807904Y-82042000D01*
X83711142Y-82138761D01*
X83662761Y-82235523D01*
X83614380Y-82429047D01*
X83614380Y-82574190D01*
X83662761Y-82767714D01*
X83711142Y-82864476D01*
X83807904Y-82961238D01*
X83953047Y-83009619D01*
X84194952Y-83009619D01*
X82985428Y-81993619D02*
X82791904Y-81993619D01*
X82695142Y-82042000D01*
X82598380Y-82138761D01*
X82550000Y-82332285D01*
X82550000Y-82670952D01*
X82598380Y-82864476D01*
X82695142Y-82961238D01*
X82791904Y-83009619D01*
X82985428Y-83009619D01*
X83082190Y-82961238D01*
X83178952Y-82864476D01*
X83227333Y-82670952D01*
X83227333Y-82332285D01*
X83178952Y-82138761D01*
X83082190Y-82042000D01*
X82985428Y-81993619D01*
X81534000Y-83009619D02*
X81872666Y-82525809D01*
X82114571Y-83009619D02*
X82114571Y-81993619D01*
X81727523Y-81993619D01*
X81630761Y-82042000D01*
X81582380Y-82090380D01*
X81534000Y-82187142D01*
X81534000Y-82332285D01*
X81582380Y-82429047D01*
X81630761Y-82477428D01*
X81727523Y-82525809D01*
X82114571Y-82525809D01*
X79792285Y-83009619D02*
X80372857Y-83009619D01*
X80082571Y-83009619D02*
X80082571Y-81993619D01*
X80179333Y-82138761D01*
X80276095Y-82235523D01*
X80372857Y-82283904D01*
X57125809Y-81993619D02*
X56932285Y-81993619D01*
X56835523Y-82042000D01*
X56738761Y-82138761D01*
X56690380Y-82332285D01*
X56690380Y-82670952D01*
X56738761Y-82864476D01*
X56835523Y-82961238D01*
X56932285Y-83009619D01*
X57125809Y-83009619D01*
X57222571Y-82961238D01*
X57319333Y-82864476D01*
X57367714Y-82670952D01*
X57367714Y-82332285D01*
X57319333Y-82138761D01*
X57222571Y-82042000D01*
X57125809Y-81993619D01*
X56254952Y-83009619D02*
X56254952Y-81993619D01*
X56013047Y-81993619D01*
X55867904Y-82042000D01*
X55771142Y-82138761D01*
X55722761Y-82235523D01*
X55674380Y-82429047D01*
X55674380Y-82574190D01*
X55722761Y-82767714D01*
X55771142Y-82864476D01*
X55867904Y-82961238D01*
X56013047Y-83009619D01*
X56254952Y-83009619D01*
X55045428Y-81993619D02*
X54851904Y-81993619D01*
X54755142Y-82042000D01*
X54658380Y-82138761D01*
X54610000Y-82332285D01*
X54610000Y-82670952D01*
X54658380Y-82864476D01*
X54755142Y-82961238D01*
X54851904Y-83009619D01*
X55045428Y-83009619D01*
X55142190Y-82961238D01*
X55238952Y-82864476D01*
X55287333Y-82670952D01*
X55287333Y-82332285D01*
X55238952Y-82138761D01*
X55142190Y-82042000D01*
X55045428Y-81993619D01*
X53594000Y-83009619D02*
X53932666Y-82525809D01*
X54174571Y-83009619D02*
X54174571Y-81993619D01*
X53787523Y-81993619D01*
X53690761Y-82042000D01*
X53642380Y-82090380D01*
X53594000Y-82187142D01*
X53594000Y-82332285D01*
X53642380Y-82429047D01*
X53690761Y-82477428D01*
X53787523Y-82525809D01*
X54174571Y-82525809D01*
X52190952Y-81993619D02*
X52094190Y-81993619D01*
X51997428Y-82042000D01*
X51949047Y-82090380D01*
X51900666Y-82187142D01*
X51852285Y-82380666D01*
X51852285Y-82622571D01*
X51900666Y-82816095D01*
X51949047Y-82912857D01*
X51997428Y-82961238D01*
X52094190Y-83009619D01*
X52190952Y-83009619D01*
X52287714Y-82961238D01*
X52336095Y-82912857D01*
X52384476Y-82816095D01*
X52432857Y-82622571D01*
X52432857Y-82380666D01*
X52384476Y-82187142D01*
X52336095Y-82090380D01*
X52287714Y-82042000D01*
X52190952Y-81993619D01*
D11*
%TO.C,S1*%
X58470800Y-76835000D02*
G75*
G03*
X58470800Y-76835000I-3733800J0D01*
G01*
%TO.C,S2*%
X58470800Y-69215000D02*
G75*
G03*
X58470800Y-69215000I-3733800J0D01*
G01*
%TO.C,S3*%
X58470800Y-61595000D02*
G75*
G03*
X58470800Y-61595000I-3733800J0D01*
G01*
%TO.C,S4*%
X86410800Y-76835000D02*
G75*
G03*
X86410800Y-76835000I-3733800J0D01*
G01*
%TO.C,S5*%
X86410800Y-69215000D02*
G75*
G03*
X86410800Y-69215000I-3733800J0D01*
G01*
%TO.C,S6*%
X86410800Y-61595000D02*
G75*
G03*
X86410800Y-61595000I-3733800J0D01*
G01*
%TO.C,S7*%
X114350800Y-76835000D02*
G75*
G03*
X114350800Y-76835000I-3733800J0D01*
G01*
%TO.C,S8*%
X114350800Y-69215000D02*
G75*
G03*
X114350800Y-69215000I-3733800J0D01*
G01*
%TO.C,S9*%
X114350800Y-61595000D02*
G75*
G03*
X114350800Y-61595000I-3733800J0D01*
G01*
D12*
%TO.C,U1*%
X63500000Y-76454000D02*
G75*
G03*
X63500000Y-76454000I-381000J0D01*
G01*
X60325000Y-75565000D02*
X64135000Y-75565000D01*
X60325000Y-80645000D02*
X64135000Y-80645000D01*
%TO.C,U2*%
X63500000Y-68834000D02*
G75*
G03*
X63500000Y-68834000I-381000J0D01*
G01*
X60325000Y-67945000D02*
X64135000Y-67945000D01*
X60325000Y-73025000D02*
X64135000Y-73025000D01*
%TO.C,U3*%
X63500000Y-61214000D02*
G75*
G03*
X63500000Y-61214000I-381000J0D01*
G01*
X60325000Y-60325000D02*
X64135000Y-60325000D01*
X60325000Y-65405000D02*
X64135000Y-65405000D01*
%TO.C,U4*%
X91440000Y-76454000D02*
G75*
G03*
X91440000Y-76454000I-381000J0D01*
G01*
X88265000Y-75565000D02*
X92075000Y-75565000D01*
X88265000Y-80645000D02*
X92075000Y-80645000D01*
%TO.C,U5*%
X91440000Y-68834000D02*
G75*
G03*
X91440000Y-68834000I-381000J0D01*
G01*
X88265000Y-67945000D02*
X92075000Y-67945000D01*
X88265000Y-73025000D02*
X92075000Y-73025000D01*
%TO.C,U6*%
X91440000Y-61214000D02*
G75*
G03*
X91440000Y-61214000I-381000J0D01*
G01*
X88265000Y-60325000D02*
X92075000Y-60325000D01*
X88265000Y-65405000D02*
X92075000Y-65405000D01*
%TO.C,U7*%
X119380000Y-76454000D02*
G75*
G03*
X119380000Y-76454000I-381000J0D01*
G01*
X116205000Y-75565000D02*
X120015000Y-75565000D01*
X116205000Y-80645000D02*
X120015000Y-80645000D01*
%TO.C,U8*%
X119380000Y-68834000D02*
G75*
G03*
X119380000Y-68834000I-381000J0D01*
G01*
X116205000Y-67945000D02*
X120015000Y-67945000D01*
X116205000Y-73025000D02*
X120015000Y-73025000D01*
%TO.C,U9*%
X119380000Y-61214000D02*
G75*
G03*
X119380000Y-61214000I-381000J0D01*
G01*
X116205000Y-60325000D02*
X120015000Y-60325000D01*
X116205000Y-65405000D02*
X120015000Y-65405000D01*
D13*
%TO.C,D3*%
X82315000Y-112610000D02*
X82315000Y-111960000D01*
X81515000Y-112610000D02*
X82315000Y-112610000D01*
X81515000Y-111960000D02*
X81515000Y-112610000D01*
X82315000Y-110910000D02*
X82315000Y-111560000D01*
X81515000Y-110910000D02*
X82315000Y-110910000D01*
X81515000Y-111560000D02*
X81515000Y-110910000D01*
X81515000Y-110617000D02*
X82315000Y-110617000D01*
%TO.C,D4*%
X56915000Y-77685000D02*
X56915000Y-77035000D01*
X56115000Y-77685000D02*
X56915000Y-77685000D01*
X56115000Y-77035000D02*
X56115000Y-77685000D01*
X56915000Y-75985000D02*
X56915000Y-76635000D01*
X56115000Y-75985000D02*
X56915000Y-75985000D01*
X56115000Y-76635000D02*
X56115000Y-75985000D01*
X56115000Y-75692000D02*
X56915000Y-75692000D01*
%TO.C,D5*%
X82315000Y-107530000D02*
X82315000Y-106880000D01*
X81515000Y-107530000D02*
X82315000Y-107530000D01*
X81515000Y-106880000D02*
X81515000Y-107530000D01*
X82315000Y-105830000D02*
X82315000Y-106480000D01*
X81515000Y-105830000D02*
X82315000Y-105830000D01*
X81515000Y-106480000D02*
X81515000Y-105830000D01*
X81515000Y-105537000D02*
X82315000Y-105537000D01*
%TO.C,D6*%
X56915000Y-70065000D02*
X56915000Y-69415000D01*
X56115000Y-70065000D02*
X56915000Y-70065000D01*
X56115000Y-69415000D02*
X56115000Y-70065000D01*
X56915000Y-68365000D02*
X56915000Y-69015000D01*
X56115000Y-68365000D02*
X56915000Y-68365000D01*
X56115000Y-69015000D02*
X56115000Y-68365000D01*
X56115000Y-68072000D02*
X56915000Y-68072000D01*
%TO.C,D7*%
X82315000Y-102450000D02*
X82315000Y-101800000D01*
X81515000Y-102450000D02*
X82315000Y-102450000D01*
X81515000Y-101800000D02*
X81515000Y-102450000D01*
X82315000Y-100750000D02*
X82315000Y-101400000D01*
X81515000Y-100750000D02*
X82315000Y-100750000D01*
X81515000Y-101400000D02*
X81515000Y-100750000D01*
X81515000Y-100457000D02*
X82315000Y-100457000D01*
%TO.C,D8*%
X56915000Y-62445000D02*
X56915000Y-61795000D01*
X56115000Y-62445000D02*
X56915000Y-62445000D01*
X56115000Y-61795000D02*
X56115000Y-62445000D01*
X56915000Y-60745000D02*
X56915000Y-61395000D01*
X56115000Y-60745000D02*
X56915000Y-60745000D01*
X56115000Y-61395000D02*
X56115000Y-60745000D01*
X56115000Y-60452000D02*
X56915000Y-60452000D01*
%TO.C,D9*%
X87395000Y-112610000D02*
X87395000Y-111960000D01*
X86595000Y-112610000D02*
X87395000Y-112610000D01*
X86595000Y-111960000D02*
X86595000Y-112610000D01*
X87395000Y-110910000D02*
X87395000Y-111560000D01*
X86595000Y-110910000D02*
X87395000Y-110910000D01*
X86595000Y-111560000D02*
X86595000Y-110910000D01*
X86595000Y-110617000D02*
X87395000Y-110617000D01*
%TO.C,D10*%
X84855000Y-77685000D02*
X84855000Y-77035000D01*
X84055000Y-77685000D02*
X84855000Y-77685000D01*
X84055000Y-77035000D02*
X84055000Y-77685000D01*
X84855000Y-75985000D02*
X84855000Y-76635000D01*
X84055000Y-75985000D02*
X84855000Y-75985000D01*
X84055000Y-76635000D02*
X84055000Y-75985000D01*
X84055000Y-75692000D02*
X84855000Y-75692000D01*
%TO.C,D11*%
X87395000Y-107530000D02*
X87395000Y-106880000D01*
X86595000Y-107530000D02*
X87395000Y-107530000D01*
X86595000Y-106880000D02*
X86595000Y-107530000D01*
X87395000Y-105830000D02*
X87395000Y-106480000D01*
X86595000Y-105830000D02*
X87395000Y-105830000D01*
X86595000Y-106480000D02*
X86595000Y-105830000D01*
X86595000Y-105537000D02*
X87395000Y-105537000D01*
%TO.C,D12*%
X84855000Y-70065000D02*
X84855000Y-69415000D01*
X84055000Y-70065000D02*
X84855000Y-70065000D01*
X84055000Y-69415000D02*
X84055000Y-70065000D01*
X84855000Y-68365000D02*
X84855000Y-69015000D01*
X84055000Y-68365000D02*
X84855000Y-68365000D01*
X84055000Y-69015000D02*
X84055000Y-68365000D01*
X84055000Y-68072000D02*
X84855000Y-68072000D01*
%TO.C,D13*%
X87395000Y-102450000D02*
X87395000Y-101800000D01*
X86595000Y-102450000D02*
X87395000Y-102450000D01*
X86595000Y-101800000D02*
X86595000Y-102450000D01*
X87395000Y-100750000D02*
X87395000Y-101400000D01*
X86595000Y-100750000D02*
X87395000Y-100750000D01*
X86595000Y-101400000D02*
X86595000Y-100750000D01*
X86595000Y-100457000D02*
X87395000Y-100457000D01*
%TO.C,D14*%
X84855000Y-62445000D02*
X84855000Y-61795000D01*
X84055000Y-62445000D02*
X84855000Y-62445000D01*
X84055000Y-61795000D02*
X84055000Y-62445000D01*
X84855000Y-60745000D02*
X84855000Y-61395000D01*
X84055000Y-60745000D02*
X84855000Y-60745000D01*
X84055000Y-61395000D02*
X84055000Y-60745000D01*
X84055000Y-60452000D02*
X84855000Y-60452000D01*
%TO.C,D15*%
X92475000Y-112610000D02*
X92475000Y-111960000D01*
X91675000Y-112610000D02*
X92475000Y-112610000D01*
X91675000Y-111960000D02*
X91675000Y-112610000D01*
X92475000Y-110910000D02*
X92475000Y-111560000D01*
X91675000Y-110910000D02*
X92475000Y-110910000D01*
X91675000Y-111560000D02*
X91675000Y-110910000D01*
X91675000Y-110617000D02*
X92475000Y-110617000D01*
%TO.C,D16*%
X112795000Y-77685000D02*
X112795000Y-77035000D01*
X111995000Y-77685000D02*
X112795000Y-77685000D01*
X111995000Y-77035000D02*
X111995000Y-77685000D01*
X112795000Y-75985000D02*
X112795000Y-76635000D01*
X111995000Y-75985000D02*
X112795000Y-75985000D01*
X111995000Y-76635000D02*
X111995000Y-75985000D01*
X111995000Y-75692000D02*
X112795000Y-75692000D01*
%TO.C,D17*%
X92475000Y-107530000D02*
X92475000Y-106880000D01*
X91675000Y-107530000D02*
X92475000Y-107530000D01*
X91675000Y-106880000D02*
X91675000Y-107530000D01*
X92475000Y-105830000D02*
X92475000Y-106480000D01*
X91675000Y-105830000D02*
X92475000Y-105830000D01*
X91675000Y-106480000D02*
X91675000Y-105830000D01*
X91675000Y-105537000D02*
X92475000Y-105537000D01*
%TO.C,D18*%
X112795000Y-70065000D02*
X112795000Y-69415000D01*
X111995000Y-70065000D02*
X112795000Y-70065000D01*
X111995000Y-69415000D02*
X111995000Y-70065000D01*
X112795000Y-68365000D02*
X112795000Y-69015000D01*
X111995000Y-68365000D02*
X112795000Y-68365000D01*
X111995000Y-69015000D02*
X111995000Y-68365000D01*
X111995000Y-68072000D02*
X112795000Y-68072000D01*
%TO.C,D19*%
X92475000Y-102450000D02*
X92475000Y-101800000D01*
X91675000Y-102450000D02*
X92475000Y-102450000D01*
X91675000Y-101800000D02*
X91675000Y-102450000D01*
X92475000Y-100750000D02*
X92475000Y-101400000D01*
X91675000Y-100750000D02*
X92475000Y-100750000D01*
X91675000Y-101400000D02*
X91675000Y-100750000D01*
X91675000Y-100457000D02*
X92475000Y-100457000D01*
%TO.C,D20*%
X112795000Y-62445000D02*
X112795000Y-61795000D01*
X111995000Y-62445000D02*
X112795000Y-62445000D01*
X111995000Y-61795000D02*
X111995000Y-62445000D01*
X112795000Y-60745000D02*
X112795000Y-61395000D01*
X111995000Y-60745000D02*
X112795000Y-60745000D01*
X111995000Y-61395000D02*
X111995000Y-60745000D01*
X111995000Y-60452000D02*
X112795000Y-60452000D01*
%TO.C,C2*%
X63080000Y-81515000D02*
X62430000Y-81515000D01*
X63080000Y-82315000D02*
X63080000Y-81515000D01*
X62430000Y-82315000D02*
X63080000Y-82315000D01*
X61380000Y-81515000D02*
X62030000Y-81515000D01*
X61380000Y-82315000D02*
X61380000Y-81515000D01*
X62030000Y-82315000D02*
X61380000Y-82315000D01*
X61087000Y-82315000D02*
X61087000Y-81515000D01*
%TO.C,C4*%
X63080000Y-73895000D02*
X62430000Y-73895000D01*
X63080000Y-74695000D02*
X63080000Y-73895000D01*
X62430000Y-74695000D02*
X63080000Y-74695000D01*
X61380000Y-73895000D02*
X62030000Y-73895000D01*
X61380000Y-74695000D02*
X61380000Y-73895000D01*
X62030000Y-74695000D02*
X61380000Y-74695000D01*
X61087000Y-74695000D02*
X61087000Y-73895000D01*
%TO.C,C6*%
X63080000Y-66275000D02*
X62430000Y-66275000D01*
X63080000Y-67075000D02*
X63080000Y-66275000D01*
X62430000Y-67075000D02*
X63080000Y-67075000D01*
X61380000Y-66275000D02*
X62030000Y-66275000D01*
X61380000Y-67075000D02*
X61380000Y-66275000D01*
X62030000Y-67075000D02*
X61380000Y-67075000D01*
X61087000Y-67075000D02*
X61087000Y-66275000D01*
%TO.C,C8*%
X91020000Y-81515000D02*
X90370000Y-81515000D01*
X91020000Y-82315000D02*
X91020000Y-81515000D01*
X90370000Y-82315000D02*
X91020000Y-82315000D01*
X89320000Y-81515000D02*
X89970000Y-81515000D01*
X89320000Y-82315000D02*
X89320000Y-81515000D01*
X89970000Y-82315000D02*
X89320000Y-82315000D01*
X89027000Y-82315000D02*
X89027000Y-81515000D01*
%TO.C,C10*%
X91020000Y-73895000D02*
X90370000Y-73895000D01*
X91020000Y-74695000D02*
X91020000Y-73895000D01*
X90370000Y-74695000D02*
X91020000Y-74695000D01*
X89320000Y-73895000D02*
X89970000Y-73895000D01*
X89320000Y-74695000D02*
X89320000Y-73895000D01*
X89970000Y-74695000D02*
X89320000Y-74695000D01*
X89027000Y-74695000D02*
X89027000Y-73895000D01*
%TO.C,C12*%
X91020000Y-66275000D02*
X90370000Y-66275000D01*
X91020000Y-67075000D02*
X91020000Y-66275000D01*
X90370000Y-67075000D02*
X91020000Y-67075000D01*
X89320000Y-66275000D02*
X89970000Y-66275000D01*
X89320000Y-67075000D02*
X89320000Y-66275000D01*
X89970000Y-67075000D02*
X89320000Y-67075000D01*
X89027000Y-67075000D02*
X89027000Y-66275000D01*
%TO.C,C14*%
X118960000Y-81515000D02*
X118310000Y-81515000D01*
X118960000Y-82315000D02*
X118960000Y-81515000D01*
X118310000Y-82315000D02*
X118960000Y-82315000D01*
X117260000Y-81515000D02*
X117910000Y-81515000D01*
X117260000Y-82315000D02*
X117260000Y-81515000D01*
X117910000Y-82315000D02*
X117260000Y-82315000D01*
X116967000Y-82315000D02*
X116967000Y-81515000D01*
%TO.C,C16*%
X118960000Y-73895000D02*
X118310000Y-73895000D01*
X118960000Y-74695000D02*
X118960000Y-73895000D01*
X118310000Y-74695000D02*
X118960000Y-74695000D01*
X117260000Y-73895000D02*
X117910000Y-73895000D01*
X117260000Y-74695000D02*
X117260000Y-73895000D01*
X117910000Y-74695000D02*
X117260000Y-74695000D01*
X116967000Y-74695000D02*
X116967000Y-73895000D01*
%TO.C,C18*%
X118960000Y-66275000D02*
X118310000Y-66275000D01*
X118960000Y-67075000D02*
X118960000Y-66275000D01*
X118310000Y-67075000D02*
X118960000Y-67075000D01*
X117260000Y-66275000D02*
X117910000Y-66275000D01*
X117260000Y-67075000D02*
X117260000Y-66275000D01*
X117910000Y-67075000D02*
X117260000Y-67075000D01*
X116967000Y-67075000D02*
X116967000Y-66275000D01*
%TO.C,C3*%
X67745000Y-79140000D02*
X67095000Y-79140000D01*
X67095000Y-79140000D02*
X67095000Y-78340000D01*
X67095000Y-78340000D02*
X67745000Y-78340000D01*
X68145000Y-79140000D02*
X68795000Y-79140000D01*
X68795000Y-79140000D02*
X68795000Y-78340000D01*
X68795000Y-78340000D02*
X68145000Y-78340000D01*
%TO.C,C5*%
X67745000Y-71520000D02*
X67095000Y-71520000D01*
X67095000Y-71520000D02*
X67095000Y-70720000D01*
X67095000Y-70720000D02*
X67745000Y-70720000D01*
X68145000Y-71520000D02*
X68795000Y-71520000D01*
X68795000Y-71520000D02*
X68795000Y-70720000D01*
X68795000Y-70720000D02*
X68145000Y-70720000D01*
%TO.C,C7*%
X67745000Y-63900000D02*
X67095000Y-63900000D01*
X67095000Y-63900000D02*
X67095000Y-63100000D01*
X67095000Y-63100000D02*
X67745000Y-63100000D01*
X68145000Y-63900000D02*
X68795000Y-63900000D01*
X68795000Y-63900000D02*
X68795000Y-63100000D01*
X68795000Y-63100000D02*
X68145000Y-63100000D01*
%TO.C,C9*%
X95685000Y-79140000D02*
X95035000Y-79140000D01*
X95035000Y-79140000D02*
X95035000Y-78340000D01*
X95035000Y-78340000D02*
X95685000Y-78340000D01*
X96085000Y-79140000D02*
X96735000Y-79140000D01*
X96735000Y-79140000D02*
X96735000Y-78340000D01*
X96735000Y-78340000D02*
X96085000Y-78340000D01*
%TO.C,C11*%
X95685000Y-71520000D02*
X95035000Y-71520000D01*
X95035000Y-71520000D02*
X95035000Y-70720000D01*
X95035000Y-70720000D02*
X95685000Y-70720000D01*
X96085000Y-71520000D02*
X96735000Y-71520000D01*
X96735000Y-71520000D02*
X96735000Y-70720000D01*
X96735000Y-70720000D02*
X96085000Y-70720000D01*
%TO.C,C13*%
X95685000Y-63900000D02*
X95035000Y-63900000D01*
X95035000Y-63900000D02*
X95035000Y-63100000D01*
X95035000Y-63100000D02*
X95685000Y-63100000D01*
X96085000Y-63900000D02*
X96735000Y-63900000D01*
X96735000Y-63900000D02*
X96735000Y-63100000D01*
X96735000Y-63100000D02*
X96085000Y-63100000D01*
%TO.C,C15*%
X123625000Y-79140000D02*
X122975000Y-79140000D01*
X122975000Y-79140000D02*
X122975000Y-78340000D01*
X122975000Y-78340000D02*
X123625000Y-78340000D01*
X124025000Y-79140000D02*
X124675000Y-79140000D01*
X124675000Y-79140000D02*
X124675000Y-78340000D01*
X124675000Y-78340000D02*
X124025000Y-78340000D01*
%TO.C,C17*%
X123625000Y-71520000D02*
X122975000Y-71520000D01*
X122975000Y-71520000D02*
X122975000Y-70720000D01*
X122975000Y-70720000D02*
X123625000Y-70720000D01*
X124025000Y-71520000D02*
X124675000Y-71520000D01*
X124675000Y-71520000D02*
X124675000Y-70720000D01*
X124675000Y-70720000D02*
X124025000Y-70720000D01*
%TO.C,C19*%
X123625000Y-63900000D02*
X122975000Y-63900000D01*
X122975000Y-63900000D02*
X122975000Y-63100000D01*
X122975000Y-63100000D02*
X123625000Y-63100000D01*
X124025000Y-63900000D02*
X124675000Y-63900000D01*
X124675000Y-63900000D02*
X124675000Y-63100000D01*
X124675000Y-63100000D02*
X124025000Y-63100000D01*
%TO.C,R3*%
X67745000Y-75330000D02*
X67095000Y-75330000D01*
X67095000Y-75330000D02*
X67095000Y-74530000D01*
X67095000Y-74530000D02*
X67745000Y-74530000D01*
X68145000Y-75330000D02*
X68795000Y-75330000D01*
X68795000Y-75330000D02*
X68795000Y-74530000D01*
X68795000Y-74530000D02*
X68145000Y-74530000D01*
%TO.C,R4*%
X67745000Y-77235000D02*
X67095000Y-77235000D01*
X67095000Y-77235000D02*
X67095000Y-76435000D01*
X67095000Y-76435000D02*
X67745000Y-76435000D01*
X68145000Y-77235000D02*
X68795000Y-77235000D01*
X68795000Y-77235000D02*
X68795000Y-76435000D01*
X68795000Y-76435000D02*
X68145000Y-76435000D01*
%TO.C,R6*%
X84055000Y-106480000D02*
X84055000Y-105830000D01*
X84055000Y-105830000D02*
X84855000Y-105830000D01*
X84855000Y-105830000D02*
X84855000Y-106480000D01*
X84055000Y-106880000D02*
X84055000Y-107530000D01*
X84055000Y-107530000D02*
X84855000Y-107530000D01*
X84855000Y-107530000D02*
X84855000Y-106880000D01*
%TO.C,R7*%
X67745000Y-67710000D02*
X67095000Y-67710000D01*
X67095000Y-67710000D02*
X67095000Y-66910000D01*
X67095000Y-66910000D02*
X67745000Y-66910000D01*
X68145000Y-67710000D02*
X68795000Y-67710000D01*
X68795000Y-67710000D02*
X68795000Y-66910000D01*
X68795000Y-66910000D02*
X68145000Y-66910000D01*
%TO.C,R9*%
X67745000Y-73425000D02*
X67095000Y-73425000D01*
X67095000Y-73425000D02*
X67095000Y-72625000D01*
X67095000Y-72625000D02*
X67745000Y-72625000D01*
X68145000Y-73425000D02*
X68795000Y-73425000D01*
X68795000Y-73425000D02*
X68795000Y-72625000D01*
X68795000Y-72625000D02*
X68145000Y-72625000D01*
%TO.C,R10*%
X84055000Y-101400000D02*
X84055000Y-100750000D01*
X84055000Y-100750000D02*
X84855000Y-100750000D01*
X84855000Y-100750000D02*
X84855000Y-101400000D01*
X84055000Y-101800000D02*
X84055000Y-102450000D01*
X84055000Y-102450000D02*
X84855000Y-102450000D01*
X84855000Y-102450000D02*
X84855000Y-101800000D01*
%TO.C,R12*%
X67745000Y-61995000D02*
X67095000Y-61995000D01*
X67095000Y-61995000D02*
X67095000Y-61195000D01*
X67095000Y-61195000D02*
X67745000Y-61195000D01*
X68145000Y-61995000D02*
X68795000Y-61995000D01*
X68795000Y-61995000D02*
X68795000Y-61195000D01*
X68795000Y-61195000D02*
X68145000Y-61195000D01*
%TO.C,R13*%
X67745000Y-65805000D02*
X67095000Y-65805000D01*
X67095000Y-65805000D02*
X67095000Y-65005000D01*
X67095000Y-65005000D02*
X67745000Y-65005000D01*
X68145000Y-65805000D02*
X68795000Y-65805000D01*
X68795000Y-65805000D02*
X68795000Y-65005000D01*
X68795000Y-65005000D02*
X68145000Y-65005000D01*
%TO.C,R15*%
X95685000Y-75330000D02*
X95035000Y-75330000D01*
X95035000Y-75330000D02*
X95035000Y-74530000D01*
X95035000Y-74530000D02*
X95685000Y-74530000D01*
X96085000Y-75330000D02*
X96735000Y-75330000D01*
X96735000Y-75330000D02*
X96735000Y-74530000D01*
X96735000Y-74530000D02*
X96085000Y-74530000D01*
%TO.C,R16*%
X95685000Y-77235000D02*
X95035000Y-77235000D01*
X95035000Y-77235000D02*
X95035000Y-76435000D01*
X95035000Y-76435000D02*
X95685000Y-76435000D01*
X96085000Y-77235000D02*
X96735000Y-77235000D01*
X96735000Y-77235000D02*
X96735000Y-76435000D01*
X96735000Y-76435000D02*
X96085000Y-76435000D01*
%TO.C,R18*%
X89135000Y-106480000D02*
X89135000Y-105830000D01*
X89135000Y-105830000D02*
X89935000Y-105830000D01*
X89935000Y-105830000D02*
X89935000Y-106480000D01*
X89135000Y-106880000D02*
X89135000Y-107530000D01*
X89135000Y-107530000D02*
X89935000Y-107530000D01*
X89935000Y-107530000D02*
X89935000Y-106880000D01*
%TO.C,R19*%
X95685000Y-67710000D02*
X95035000Y-67710000D01*
X95035000Y-67710000D02*
X95035000Y-66910000D01*
X95035000Y-66910000D02*
X95685000Y-66910000D01*
X96085000Y-67710000D02*
X96735000Y-67710000D01*
X96735000Y-67710000D02*
X96735000Y-66910000D01*
X96735000Y-66910000D02*
X96085000Y-66910000D01*
%TO.C,R21*%
X95685000Y-73425000D02*
X95035000Y-73425000D01*
X95035000Y-73425000D02*
X95035000Y-72625000D01*
X95035000Y-72625000D02*
X95685000Y-72625000D01*
X96085000Y-73425000D02*
X96735000Y-73425000D01*
X96735000Y-73425000D02*
X96735000Y-72625000D01*
X96735000Y-72625000D02*
X96085000Y-72625000D01*
%TO.C,R22*%
X89135000Y-101400000D02*
X89135000Y-100750000D01*
X89135000Y-100750000D02*
X89935000Y-100750000D01*
X89935000Y-100750000D02*
X89935000Y-101400000D01*
X89135000Y-101800000D02*
X89135000Y-102450000D01*
X89135000Y-102450000D02*
X89935000Y-102450000D01*
X89935000Y-102450000D02*
X89935000Y-101800000D01*
%TO.C,R24*%
X95685000Y-61995000D02*
X95035000Y-61995000D01*
X95035000Y-61995000D02*
X95035000Y-61195000D01*
X95035000Y-61195000D02*
X95685000Y-61195000D01*
X96085000Y-61995000D02*
X96735000Y-61995000D01*
X96735000Y-61995000D02*
X96735000Y-61195000D01*
X96735000Y-61195000D02*
X96085000Y-61195000D01*
%TO.C,R25*%
X95685000Y-65805000D02*
X95035000Y-65805000D01*
X95035000Y-65805000D02*
X95035000Y-65005000D01*
X95035000Y-65005000D02*
X95685000Y-65005000D01*
X96085000Y-65805000D02*
X96735000Y-65805000D01*
X96735000Y-65805000D02*
X96735000Y-65005000D01*
X96735000Y-65005000D02*
X96085000Y-65005000D01*
%TO.C,R27*%
X123625000Y-75330000D02*
X122975000Y-75330000D01*
X122975000Y-75330000D02*
X122975000Y-74530000D01*
X122975000Y-74530000D02*
X123625000Y-74530000D01*
X124025000Y-75330000D02*
X124675000Y-75330000D01*
X124675000Y-75330000D02*
X124675000Y-74530000D01*
X124675000Y-74530000D02*
X124025000Y-74530000D01*
%TO.C,R28*%
X123625000Y-77235000D02*
X122975000Y-77235000D01*
X122975000Y-77235000D02*
X122975000Y-76435000D01*
X122975000Y-76435000D02*
X123625000Y-76435000D01*
X124025000Y-77235000D02*
X124675000Y-77235000D01*
X124675000Y-77235000D02*
X124675000Y-76435000D01*
X124675000Y-76435000D02*
X124025000Y-76435000D01*
%TO.C,R2*%
X84055000Y-111560000D02*
X84055000Y-110910000D01*
X84055000Y-110910000D02*
X84855000Y-110910000D01*
X84855000Y-110910000D02*
X84855000Y-111560000D01*
X84055000Y-111960000D02*
X84055000Y-112610000D01*
X84055000Y-112610000D02*
X84855000Y-112610000D01*
X84855000Y-112610000D02*
X84855000Y-111960000D01*
%TO.C,R5*%
X67745000Y-81045000D02*
X67095000Y-81045000D01*
X67095000Y-81045000D02*
X67095000Y-80245000D01*
X67095000Y-80245000D02*
X67745000Y-80245000D01*
X68145000Y-81045000D02*
X68795000Y-81045000D01*
X68795000Y-81045000D02*
X68795000Y-80245000D01*
X68795000Y-80245000D02*
X68145000Y-80245000D01*
%TO.C,R8*%
X67745000Y-69615000D02*
X67095000Y-69615000D01*
X67095000Y-69615000D02*
X67095000Y-68815000D01*
X67095000Y-68815000D02*
X67745000Y-68815000D01*
X68145000Y-69615000D02*
X68795000Y-69615000D01*
X68795000Y-69615000D02*
X68795000Y-68815000D01*
X68795000Y-68815000D02*
X68145000Y-68815000D01*
%TO.C,R11*%
X67745000Y-60090000D02*
X67095000Y-60090000D01*
X67095000Y-60090000D02*
X67095000Y-59290000D01*
X67095000Y-59290000D02*
X67745000Y-59290000D01*
X68145000Y-60090000D02*
X68795000Y-60090000D01*
X68795000Y-60090000D02*
X68795000Y-59290000D01*
X68795000Y-59290000D02*
X68145000Y-59290000D01*
%TO.C,R14*%
X89135000Y-111560000D02*
X89135000Y-110910000D01*
X89135000Y-110910000D02*
X89935000Y-110910000D01*
X89935000Y-110910000D02*
X89935000Y-111560000D01*
X89135000Y-111960000D02*
X89135000Y-112610000D01*
X89135000Y-112610000D02*
X89935000Y-112610000D01*
X89935000Y-112610000D02*
X89935000Y-111960000D01*
%TO.C,R17*%
X95685000Y-81045000D02*
X95035000Y-81045000D01*
X95035000Y-81045000D02*
X95035000Y-80245000D01*
X95035000Y-80245000D02*
X95685000Y-80245000D01*
X96085000Y-81045000D02*
X96735000Y-81045000D01*
X96735000Y-81045000D02*
X96735000Y-80245000D01*
X96735000Y-80245000D02*
X96085000Y-80245000D01*
%TO.C,R20*%
X95685000Y-69615000D02*
X95035000Y-69615000D01*
X95035000Y-69615000D02*
X95035000Y-68815000D01*
X95035000Y-68815000D02*
X95685000Y-68815000D01*
X96085000Y-69615000D02*
X96735000Y-69615000D01*
X96735000Y-69615000D02*
X96735000Y-68815000D01*
X96735000Y-68815000D02*
X96085000Y-68815000D01*
%TO.C,R23*%
X95685000Y-60090000D02*
X95035000Y-60090000D01*
X95035000Y-60090000D02*
X95035000Y-59290000D01*
X95035000Y-59290000D02*
X95685000Y-59290000D01*
X96085000Y-60090000D02*
X96735000Y-60090000D01*
X96735000Y-60090000D02*
X96735000Y-59290000D01*
X96735000Y-59290000D02*
X96085000Y-59290000D01*
%TO.C,R26*%
X94215000Y-111560000D02*
X94215000Y-110910000D01*
X94215000Y-110910000D02*
X95015000Y-110910000D01*
X95015000Y-110910000D02*
X95015000Y-111560000D01*
X94215000Y-111960000D02*
X94215000Y-112610000D01*
X94215000Y-112610000D02*
X95015000Y-112610000D01*
X95015000Y-112610000D02*
X95015000Y-111960000D01*
%TO.C,R1*%
X81045000Y-124675000D02*
X81045000Y-124025000D01*
X80245000Y-124675000D02*
X81045000Y-124675000D01*
X80245000Y-124025000D02*
X80245000Y-124675000D01*
X81045000Y-122975000D02*
X81045000Y-123625000D01*
X80245000Y-122975000D02*
X81045000Y-122975000D01*
X80245000Y-123625000D02*
X80245000Y-122975000D01*
D14*
%TO.C,MH1*%
X95250000Y-85090000D02*
G75*
G03*
X95250000Y-85090000I-2540000J0D01*
G01*
%TO.C,MH2*%
X67310000Y-56515000D02*
G75*
G03*
X67310000Y-56515000I-2540000J0D01*
G01*
%TO.C,MH3*%
X123190000Y-56515000D02*
G75*
G03*
X123190000Y-56515000I-2540000J0D01*
G01*
%TO.C,D2*%
X80405000Y-120075000D02*
X75805000Y-120075000D01*
X75805000Y-120075000D02*
X75805000Y-127575000D01*
X75805000Y-127575000D02*
X80405000Y-127575000D01*
X80405000Y-127575000D02*
X80405000Y-120075000D01*
D13*
%TO.C,R29*%
X124675000Y-80245000D02*
X124025000Y-80245000D01*
X124675000Y-81045000D02*
X124675000Y-80245000D01*
X124025000Y-81045000D02*
X124675000Y-81045000D01*
X122975000Y-80245000D02*
X123625000Y-80245000D01*
X122975000Y-81045000D02*
X122975000Y-80245000D01*
X123625000Y-81045000D02*
X122975000Y-81045000D01*
%TO.C,R30*%
X94215000Y-106480000D02*
X94215000Y-105830000D01*
X94215000Y-105830000D02*
X95015000Y-105830000D01*
X95015000Y-105830000D02*
X95015000Y-106480000D01*
X94215000Y-106880000D02*
X94215000Y-107530000D01*
X94215000Y-107530000D02*
X95015000Y-107530000D01*
X95015000Y-107530000D02*
X95015000Y-106880000D01*
%TO.C,R31*%
X124675000Y-66910000D02*
X124025000Y-66910000D01*
X124675000Y-67710000D02*
X124675000Y-66910000D01*
X124025000Y-67710000D02*
X124675000Y-67710000D01*
X122975000Y-66910000D02*
X123625000Y-66910000D01*
X122975000Y-67710000D02*
X122975000Y-66910000D01*
X123625000Y-67710000D02*
X122975000Y-67710000D01*
%TO.C,R32*%
X124675000Y-68815000D02*
X124025000Y-68815000D01*
X124675000Y-69615000D02*
X124675000Y-68815000D01*
X124025000Y-69615000D02*
X124675000Y-69615000D01*
X122975000Y-68815000D02*
X123625000Y-68815000D01*
X122975000Y-69615000D02*
X122975000Y-68815000D01*
X123625000Y-69615000D02*
X122975000Y-69615000D01*
%TO.C,R33*%
X123625000Y-73425000D02*
X122975000Y-73425000D01*
X122975000Y-73425000D02*
X122975000Y-72625000D01*
X122975000Y-72625000D02*
X123625000Y-72625000D01*
X124025000Y-73425000D02*
X124675000Y-73425000D01*
X124675000Y-73425000D02*
X124675000Y-72625000D01*
X124675000Y-72625000D02*
X124025000Y-72625000D01*
%TO.C,R34*%
X94215000Y-101400000D02*
X94215000Y-100750000D01*
X94215000Y-100750000D02*
X95015000Y-100750000D01*
X95015000Y-100750000D02*
X95015000Y-101400000D01*
X94215000Y-101800000D02*
X94215000Y-102450000D01*
X94215000Y-102450000D02*
X95015000Y-102450000D01*
X95015000Y-102450000D02*
X95015000Y-101800000D01*
%TO.C,R35*%
X124675000Y-59290000D02*
X124025000Y-59290000D01*
X124675000Y-60090000D02*
X124675000Y-59290000D01*
X124025000Y-60090000D02*
X124675000Y-60090000D01*
X122975000Y-59290000D02*
X123625000Y-59290000D01*
X122975000Y-60090000D02*
X122975000Y-59290000D01*
X123625000Y-60090000D02*
X122975000Y-60090000D01*
%TO.C,R36*%
X124675000Y-61195000D02*
X124025000Y-61195000D01*
X124675000Y-61995000D02*
X124675000Y-61195000D01*
X124025000Y-61995000D02*
X124675000Y-61995000D01*
X122975000Y-61195000D02*
X123625000Y-61195000D01*
X122975000Y-61995000D02*
X122975000Y-61195000D01*
X123625000Y-61995000D02*
X122975000Y-61995000D01*
%TO.C,R37*%
X123625000Y-65805000D02*
X122975000Y-65805000D01*
X122975000Y-65805000D02*
X122975000Y-65005000D01*
X122975000Y-65005000D02*
X123625000Y-65005000D01*
X124025000Y-65805000D02*
X124675000Y-65805000D01*
X124675000Y-65805000D02*
X124675000Y-65005000D01*
X124675000Y-65005000D02*
X124025000Y-65005000D01*
%TO.C,U1*%
D15*
X60839047Y-74778809D02*
X60839047Y-75190047D01*
X60814857Y-75238428D01*
X60790666Y-75262619D01*
X60742285Y-75286809D01*
X60645523Y-75286809D01*
X60597142Y-75262619D01*
X60572952Y-75238428D01*
X60548761Y-75190047D01*
X60548761Y-74778809D01*
X60040761Y-75286809D02*
X60331047Y-75286809D01*
X60185904Y-75286809D02*
X60185904Y-74778809D01*
X60234285Y-74851380D01*
X60282666Y-74899761D01*
X60331047Y-74923952D01*
X61824809Y-76774523D02*
X61316809Y-76774523D01*
X61316809Y-76895476D01*
X61341000Y-76968047D01*
X61389380Y-77016428D01*
X61437761Y-77040619D01*
X61534523Y-77064809D01*
X61607095Y-77064809D01*
X61703857Y-77040619D01*
X61752238Y-77016428D01*
X61800619Y-76968047D01*
X61824809Y-76895476D01*
X61824809Y-76774523D01*
X61824809Y-77572809D02*
X61582904Y-77403476D01*
X61824809Y-77282523D02*
X61316809Y-77282523D01*
X61316809Y-77476047D01*
X61341000Y-77524428D01*
X61365190Y-77548619D01*
X61413571Y-77572809D01*
X61486142Y-77572809D01*
X61534523Y-77548619D01*
X61558714Y-77524428D01*
X61582904Y-77476047D01*
X61582904Y-77282523D01*
X61316809Y-77717952D02*
X61824809Y-77887285D01*
X61316809Y-78056619D01*
X61824809Y-78492047D02*
X61824809Y-78201761D01*
X61824809Y-78346904D02*
X61316809Y-78346904D01*
X61389380Y-78298523D01*
X61437761Y-78250142D01*
X61461952Y-78201761D01*
X61316809Y-78806523D02*
X61316809Y-78854904D01*
X61341000Y-78903285D01*
X61365190Y-78927476D01*
X61413571Y-78951666D01*
X61510333Y-78975857D01*
X61631285Y-78975857D01*
X61728047Y-78951666D01*
X61776428Y-78927476D01*
X61800619Y-78903285D01*
X61824809Y-78854904D01*
X61824809Y-78806523D01*
X61800619Y-78758142D01*
X61776428Y-78733952D01*
X61728047Y-78709761D01*
X61631285Y-78685571D01*
X61510333Y-78685571D01*
X61413571Y-78709761D01*
X61365190Y-78733952D01*
X61341000Y-78758142D01*
X61316809Y-78806523D01*
X61316809Y-79145190D02*
X61316809Y-79459666D01*
X61510333Y-79290333D01*
X61510333Y-79362904D01*
X61534523Y-79411285D01*
X61558714Y-79435476D01*
X61607095Y-79459666D01*
X61728047Y-79459666D01*
X61776428Y-79435476D01*
X61800619Y-79411285D01*
X61824809Y-79362904D01*
X61824809Y-79217761D01*
X61800619Y-79169380D01*
X61776428Y-79145190D01*
%TO.C,U2*%
X60839047Y-67158809D02*
X60839047Y-67570047D01*
X60814857Y-67618428D01*
X60790666Y-67642619D01*
X60742285Y-67666809D01*
X60645523Y-67666809D01*
X60597142Y-67642619D01*
X60572952Y-67618428D01*
X60548761Y-67570047D01*
X60548761Y-67158809D01*
X60331047Y-67207190D02*
X60306857Y-67183000D01*
X60258476Y-67158809D01*
X60137523Y-67158809D01*
X60089142Y-67183000D01*
X60064952Y-67207190D01*
X60040761Y-67255571D01*
X60040761Y-67303952D01*
X60064952Y-67376523D01*
X60355238Y-67666809D01*
X60040761Y-67666809D01*
X61824809Y-69154523D02*
X61316809Y-69154523D01*
X61316809Y-69275476D01*
X61341000Y-69348047D01*
X61389380Y-69396428D01*
X61437761Y-69420619D01*
X61534523Y-69444809D01*
X61607095Y-69444809D01*
X61703857Y-69420619D01*
X61752238Y-69396428D01*
X61800619Y-69348047D01*
X61824809Y-69275476D01*
X61824809Y-69154523D01*
X61824809Y-69952809D02*
X61582904Y-69783476D01*
X61824809Y-69662523D02*
X61316809Y-69662523D01*
X61316809Y-69856047D01*
X61341000Y-69904428D01*
X61365190Y-69928619D01*
X61413571Y-69952809D01*
X61486142Y-69952809D01*
X61534523Y-69928619D01*
X61558714Y-69904428D01*
X61582904Y-69856047D01*
X61582904Y-69662523D01*
X61316809Y-70097952D02*
X61824809Y-70267285D01*
X61316809Y-70436619D01*
X61824809Y-70872047D02*
X61824809Y-70581761D01*
X61824809Y-70726904D02*
X61316809Y-70726904D01*
X61389380Y-70678523D01*
X61437761Y-70630142D01*
X61461952Y-70581761D01*
X61316809Y-71186523D02*
X61316809Y-71234904D01*
X61341000Y-71283285D01*
X61365190Y-71307476D01*
X61413571Y-71331666D01*
X61510333Y-71355857D01*
X61631285Y-71355857D01*
X61728047Y-71331666D01*
X61776428Y-71307476D01*
X61800619Y-71283285D01*
X61824809Y-71234904D01*
X61824809Y-71186523D01*
X61800619Y-71138142D01*
X61776428Y-71113952D01*
X61728047Y-71089761D01*
X61631285Y-71065571D01*
X61510333Y-71065571D01*
X61413571Y-71089761D01*
X61365190Y-71113952D01*
X61341000Y-71138142D01*
X61316809Y-71186523D01*
X61316809Y-71525190D02*
X61316809Y-71839666D01*
X61510333Y-71670333D01*
X61510333Y-71742904D01*
X61534523Y-71791285D01*
X61558714Y-71815476D01*
X61607095Y-71839666D01*
X61728047Y-71839666D01*
X61776428Y-71815476D01*
X61800619Y-71791285D01*
X61824809Y-71742904D01*
X61824809Y-71597761D01*
X61800619Y-71549380D01*
X61776428Y-71525190D01*
%TO.C,U3*%
X60839047Y-59538809D02*
X60839047Y-59950047D01*
X60814857Y-59998428D01*
X60790666Y-60022619D01*
X60742285Y-60046809D01*
X60645523Y-60046809D01*
X60597142Y-60022619D01*
X60572952Y-59998428D01*
X60548761Y-59950047D01*
X60548761Y-59538809D01*
X60355238Y-59538809D02*
X60040761Y-59538809D01*
X60210095Y-59732333D01*
X60137523Y-59732333D01*
X60089142Y-59756523D01*
X60064952Y-59780714D01*
X60040761Y-59829095D01*
X60040761Y-59950047D01*
X60064952Y-59998428D01*
X60089142Y-60022619D01*
X60137523Y-60046809D01*
X60282666Y-60046809D01*
X60331047Y-60022619D01*
X60355238Y-59998428D01*
X61824809Y-61534523D02*
X61316809Y-61534523D01*
X61316809Y-61655476D01*
X61341000Y-61728047D01*
X61389380Y-61776428D01*
X61437761Y-61800619D01*
X61534523Y-61824809D01*
X61607095Y-61824809D01*
X61703857Y-61800619D01*
X61752238Y-61776428D01*
X61800619Y-61728047D01*
X61824809Y-61655476D01*
X61824809Y-61534523D01*
X61824809Y-62332809D02*
X61582904Y-62163476D01*
X61824809Y-62042523D02*
X61316809Y-62042523D01*
X61316809Y-62236047D01*
X61341000Y-62284428D01*
X61365190Y-62308619D01*
X61413571Y-62332809D01*
X61486142Y-62332809D01*
X61534523Y-62308619D01*
X61558714Y-62284428D01*
X61582904Y-62236047D01*
X61582904Y-62042523D01*
X61316809Y-62477952D02*
X61824809Y-62647285D01*
X61316809Y-62816619D01*
X61824809Y-63252047D02*
X61824809Y-62961761D01*
X61824809Y-63106904D02*
X61316809Y-63106904D01*
X61389380Y-63058523D01*
X61437761Y-63010142D01*
X61461952Y-62961761D01*
X61316809Y-63566523D02*
X61316809Y-63614904D01*
X61341000Y-63663285D01*
X61365190Y-63687476D01*
X61413571Y-63711666D01*
X61510333Y-63735857D01*
X61631285Y-63735857D01*
X61728047Y-63711666D01*
X61776428Y-63687476D01*
X61800619Y-63663285D01*
X61824809Y-63614904D01*
X61824809Y-63566523D01*
X61800619Y-63518142D01*
X61776428Y-63493952D01*
X61728047Y-63469761D01*
X61631285Y-63445571D01*
X61510333Y-63445571D01*
X61413571Y-63469761D01*
X61365190Y-63493952D01*
X61341000Y-63518142D01*
X61316809Y-63566523D01*
X61316809Y-63905190D02*
X61316809Y-64219666D01*
X61510333Y-64050333D01*
X61510333Y-64122904D01*
X61534523Y-64171285D01*
X61558714Y-64195476D01*
X61607095Y-64219666D01*
X61728047Y-64219666D01*
X61776428Y-64195476D01*
X61800619Y-64171285D01*
X61824809Y-64122904D01*
X61824809Y-63977761D01*
X61800619Y-63929380D01*
X61776428Y-63905190D01*
%TO.C,U4*%
X88779047Y-74778809D02*
X88779047Y-75190047D01*
X88754857Y-75238428D01*
X88730666Y-75262619D01*
X88682285Y-75286809D01*
X88585523Y-75286809D01*
X88537142Y-75262619D01*
X88512952Y-75238428D01*
X88488761Y-75190047D01*
X88488761Y-74778809D01*
X88029142Y-74948142D02*
X88029142Y-75286809D01*
X88150095Y-74754619D02*
X88271047Y-75117476D01*
X87956571Y-75117476D01*
X89764809Y-76774523D02*
X89256809Y-76774523D01*
X89256809Y-76895476D01*
X89281000Y-76968047D01*
X89329380Y-77016428D01*
X89377761Y-77040619D01*
X89474523Y-77064809D01*
X89547095Y-77064809D01*
X89643857Y-77040619D01*
X89692238Y-77016428D01*
X89740619Y-76968047D01*
X89764809Y-76895476D01*
X89764809Y-76774523D01*
X89764809Y-77572809D02*
X89522904Y-77403476D01*
X89764809Y-77282523D02*
X89256809Y-77282523D01*
X89256809Y-77476047D01*
X89281000Y-77524428D01*
X89305190Y-77548619D01*
X89353571Y-77572809D01*
X89426142Y-77572809D01*
X89474523Y-77548619D01*
X89498714Y-77524428D01*
X89522904Y-77476047D01*
X89522904Y-77282523D01*
X89256809Y-77717952D02*
X89764809Y-77887285D01*
X89256809Y-78056619D01*
X89764809Y-78492047D02*
X89764809Y-78201761D01*
X89764809Y-78346904D02*
X89256809Y-78346904D01*
X89329380Y-78298523D01*
X89377761Y-78250142D01*
X89401952Y-78201761D01*
X89256809Y-78806523D02*
X89256809Y-78854904D01*
X89281000Y-78903285D01*
X89305190Y-78927476D01*
X89353571Y-78951666D01*
X89450333Y-78975857D01*
X89571285Y-78975857D01*
X89668047Y-78951666D01*
X89716428Y-78927476D01*
X89740619Y-78903285D01*
X89764809Y-78854904D01*
X89764809Y-78806523D01*
X89740619Y-78758142D01*
X89716428Y-78733952D01*
X89668047Y-78709761D01*
X89571285Y-78685571D01*
X89450333Y-78685571D01*
X89353571Y-78709761D01*
X89305190Y-78733952D01*
X89281000Y-78758142D01*
X89256809Y-78806523D01*
X89256809Y-79145190D02*
X89256809Y-79459666D01*
X89450333Y-79290333D01*
X89450333Y-79362904D01*
X89474523Y-79411285D01*
X89498714Y-79435476D01*
X89547095Y-79459666D01*
X89668047Y-79459666D01*
X89716428Y-79435476D01*
X89740619Y-79411285D01*
X89764809Y-79362904D01*
X89764809Y-79217761D01*
X89740619Y-79169380D01*
X89716428Y-79145190D01*
%TO.C,U5*%
X88779047Y-67158809D02*
X88779047Y-67570047D01*
X88754857Y-67618428D01*
X88730666Y-67642619D01*
X88682285Y-67666809D01*
X88585523Y-67666809D01*
X88537142Y-67642619D01*
X88512952Y-67618428D01*
X88488761Y-67570047D01*
X88488761Y-67158809D01*
X88004952Y-67158809D02*
X88246857Y-67158809D01*
X88271047Y-67400714D01*
X88246857Y-67376523D01*
X88198476Y-67352333D01*
X88077523Y-67352333D01*
X88029142Y-67376523D01*
X88004952Y-67400714D01*
X87980761Y-67449095D01*
X87980761Y-67570047D01*
X88004952Y-67618428D01*
X88029142Y-67642619D01*
X88077523Y-67666809D01*
X88198476Y-67666809D01*
X88246857Y-67642619D01*
X88271047Y-67618428D01*
X89764809Y-69154523D02*
X89256809Y-69154523D01*
X89256809Y-69275476D01*
X89281000Y-69348047D01*
X89329380Y-69396428D01*
X89377761Y-69420619D01*
X89474523Y-69444809D01*
X89547095Y-69444809D01*
X89643857Y-69420619D01*
X89692238Y-69396428D01*
X89740619Y-69348047D01*
X89764809Y-69275476D01*
X89764809Y-69154523D01*
X89764809Y-69952809D02*
X89522904Y-69783476D01*
X89764809Y-69662523D02*
X89256809Y-69662523D01*
X89256809Y-69856047D01*
X89281000Y-69904428D01*
X89305190Y-69928619D01*
X89353571Y-69952809D01*
X89426142Y-69952809D01*
X89474523Y-69928619D01*
X89498714Y-69904428D01*
X89522904Y-69856047D01*
X89522904Y-69662523D01*
X89256809Y-70097952D02*
X89764809Y-70267285D01*
X89256809Y-70436619D01*
X89764809Y-70872047D02*
X89764809Y-70581761D01*
X89764809Y-70726904D02*
X89256809Y-70726904D01*
X89329380Y-70678523D01*
X89377761Y-70630142D01*
X89401952Y-70581761D01*
X89256809Y-71186523D02*
X89256809Y-71234904D01*
X89281000Y-71283285D01*
X89305190Y-71307476D01*
X89353571Y-71331666D01*
X89450333Y-71355857D01*
X89571285Y-71355857D01*
X89668047Y-71331666D01*
X89716428Y-71307476D01*
X89740619Y-71283285D01*
X89764809Y-71234904D01*
X89764809Y-71186523D01*
X89740619Y-71138142D01*
X89716428Y-71113952D01*
X89668047Y-71089761D01*
X89571285Y-71065571D01*
X89450333Y-71065571D01*
X89353571Y-71089761D01*
X89305190Y-71113952D01*
X89281000Y-71138142D01*
X89256809Y-71186523D01*
X89256809Y-71525190D02*
X89256809Y-71839666D01*
X89450333Y-71670333D01*
X89450333Y-71742904D01*
X89474523Y-71791285D01*
X89498714Y-71815476D01*
X89547095Y-71839666D01*
X89668047Y-71839666D01*
X89716428Y-71815476D01*
X89740619Y-71791285D01*
X89764809Y-71742904D01*
X89764809Y-71597761D01*
X89740619Y-71549380D01*
X89716428Y-71525190D01*
%TO.C,U6*%
X88779047Y-59538809D02*
X88779047Y-59950047D01*
X88754857Y-59998428D01*
X88730666Y-60022619D01*
X88682285Y-60046809D01*
X88585523Y-60046809D01*
X88537142Y-60022619D01*
X88512952Y-59998428D01*
X88488761Y-59950047D01*
X88488761Y-59538809D01*
X88029142Y-59538809D02*
X88125904Y-59538809D01*
X88174285Y-59563000D01*
X88198476Y-59587190D01*
X88246857Y-59659761D01*
X88271047Y-59756523D01*
X88271047Y-59950047D01*
X88246857Y-59998428D01*
X88222666Y-60022619D01*
X88174285Y-60046809D01*
X88077523Y-60046809D01*
X88029142Y-60022619D01*
X88004952Y-59998428D01*
X87980761Y-59950047D01*
X87980761Y-59829095D01*
X88004952Y-59780714D01*
X88029142Y-59756523D01*
X88077523Y-59732333D01*
X88174285Y-59732333D01*
X88222666Y-59756523D01*
X88246857Y-59780714D01*
X88271047Y-59829095D01*
X89764809Y-61534523D02*
X89256809Y-61534523D01*
X89256809Y-61655476D01*
X89281000Y-61728047D01*
X89329380Y-61776428D01*
X89377761Y-61800619D01*
X89474523Y-61824809D01*
X89547095Y-61824809D01*
X89643857Y-61800619D01*
X89692238Y-61776428D01*
X89740619Y-61728047D01*
X89764809Y-61655476D01*
X89764809Y-61534523D01*
X89764809Y-62332809D02*
X89522904Y-62163476D01*
X89764809Y-62042523D02*
X89256809Y-62042523D01*
X89256809Y-62236047D01*
X89281000Y-62284428D01*
X89305190Y-62308619D01*
X89353571Y-62332809D01*
X89426142Y-62332809D01*
X89474523Y-62308619D01*
X89498714Y-62284428D01*
X89522904Y-62236047D01*
X89522904Y-62042523D01*
X89256809Y-62477952D02*
X89764809Y-62647285D01*
X89256809Y-62816619D01*
X89764809Y-63252047D02*
X89764809Y-62961761D01*
X89764809Y-63106904D02*
X89256809Y-63106904D01*
X89329380Y-63058523D01*
X89377761Y-63010142D01*
X89401952Y-62961761D01*
X89256809Y-63566523D02*
X89256809Y-63614904D01*
X89281000Y-63663285D01*
X89305190Y-63687476D01*
X89353571Y-63711666D01*
X89450333Y-63735857D01*
X89571285Y-63735857D01*
X89668047Y-63711666D01*
X89716428Y-63687476D01*
X89740619Y-63663285D01*
X89764809Y-63614904D01*
X89764809Y-63566523D01*
X89740619Y-63518142D01*
X89716428Y-63493952D01*
X89668047Y-63469761D01*
X89571285Y-63445571D01*
X89450333Y-63445571D01*
X89353571Y-63469761D01*
X89305190Y-63493952D01*
X89281000Y-63518142D01*
X89256809Y-63566523D01*
X89256809Y-63905190D02*
X89256809Y-64219666D01*
X89450333Y-64050333D01*
X89450333Y-64122904D01*
X89474523Y-64171285D01*
X89498714Y-64195476D01*
X89547095Y-64219666D01*
X89668047Y-64219666D01*
X89716428Y-64195476D01*
X89740619Y-64171285D01*
X89764809Y-64122904D01*
X89764809Y-63977761D01*
X89740619Y-63929380D01*
X89716428Y-63905190D01*
%TO.C,U7*%
X116719047Y-74778809D02*
X116719047Y-75190047D01*
X116694857Y-75238428D01*
X116670666Y-75262619D01*
X116622285Y-75286809D01*
X116525523Y-75286809D01*
X116477142Y-75262619D01*
X116452952Y-75238428D01*
X116428761Y-75190047D01*
X116428761Y-74778809D01*
X116235238Y-74778809D02*
X115896571Y-74778809D01*
X116114285Y-75286809D01*
X117704809Y-76774523D02*
X117196809Y-76774523D01*
X117196809Y-76895476D01*
X117221000Y-76968047D01*
X117269380Y-77016428D01*
X117317761Y-77040619D01*
X117414523Y-77064809D01*
X117487095Y-77064809D01*
X117583857Y-77040619D01*
X117632238Y-77016428D01*
X117680619Y-76968047D01*
X117704809Y-76895476D01*
X117704809Y-76774523D01*
X117704809Y-77572809D02*
X117462904Y-77403476D01*
X117704809Y-77282523D02*
X117196809Y-77282523D01*
X117196809Y-77476047D01*
X117221000Y-77524428D01*
X117245190Y-77548619D01*
X117293571Y-77572809D01*
X117366142Y-77572809D01*
X117414523Y-77548619D01*
X117438714Y-77524428D01*
X117462904Y-77476047D01*
X117462904Y-77282523D01*
X117196809Y-77717952D02*
X117704809Y-77887285D01*
X117196809Y-78056619D01*
X117704809Y-78492047D02*
X117704809Y-78201761D01*
X117704809Y-78346904D02*
X117196809Y-78346904D01*
X117269380Y-78298523D01*
X117317761Y-78250142D01*
X117341952Y-78201761D01*
X117196809Y-78806523D02*
X117196809Y-78854904D01*
X117221000Y-78903285D01*
X117245190Y-78927476D01*
X117293571Y-78951666D01*
X117390333Y-78975857D01*
X117511285Y-78975857D01*
X117608047Y-78951666D01*
X117656428Y-78927476D01*
X117680619Y-78903285D01*
X117704809Y-78854904D01*
X117704809Y-78806523D01*
X117680619Y-78758142D01*
X117656428Y-78733952D01*
X117608047Y-78709761D01*
X117511285Y-78685571D01*
X117390333Y-78685571D01*
X117293571Y-78709761D01*
X117245190Y-78733952D01*
X117221000Y-78758142D01*
X117196809Y-78806523D01*
X117196809Y-79145190D02*
X117196809Y-79459666D01*
X117390333Y-79290333D01*
X117390333Y-79362904D01*
X117414523Y-79411285D01*
X117438714Y-79435476D01*
X117487095Y-79459666D01*
X117608047Y-79459666D01*
X117656428Y-79435476D01*
X117680619Y-79411285D01*
X117704809Y-79362904D01*
X117704809Y-79217761D01*
X117680619Y-79169380D01*
X117656428Y-79145190D01*
%TO.C,U8*%
X116719047Y-67158809D02*
X116719047Y-67570047D01*
X116694857Y-67618428D01*
X116670666Y-67642619D01*
X116622285Y-67666809D01*
X116525523Y-67666809D01*
X116477142Y-67642619D01*
X116452952Y-67618428D01*
X116428761Y-67570047D01*
X116428761Y-67158809D01*
X116114285Y-67376523D02*
X116162666Y-67352333D01*
X116186857Y-67328142D01*
X116211047Y-67279761D01*
X116211047Y-67255571D01*
X116186857Y-67207190D01*
X116162666Y-67183000D01*
X116114285Y-67158809D01*
X116017523Y-67158809D01*
X115969142Y-67183000D01*
X115944952Y-67207190D01*
X115920761Y-67255571D01*
X115920761Y-67279761D01*
X115944952Y-67328142D01*
X115969142Y-67352333D01*
X116017523Y-67376523D01*
X116114285Y-67376523D01*
X116162666Y-67400714D01*
X116186857Y-67424904D01*
X116211047Y-67473285D01*
X116211047Y-67570047D01*
X116186857Y-67618428D01*
X116162666Y-67642619D01*
X116114285Y-67666809D01*
X116017523Y-67666809D01*
X115969142Y-67642619D01*
X115944952Y-67618428D01*
X115920761Y-67570047D01*
X115920761Y-67473285D01*
X115944952Y-67424904D01*
X115969142Y-67400714D01*
X116017523Y-67376523D01*
X117704809Y-69154523D02*
X117196809Y-69154523D01*
X117196809Y-69275476D01*
X117221000Y-69348047D01*
X117269380Y-69396428D01*
X117317761Y-69420619D01*
X117414523Y-69444809D01*
X117487095Y-69444809D01*
X117583857Y-69420619D01*
X117632238Y-69396428D01*
X117680619Y-69348047D01*
X117704809Y-69275476D01*
X117704809Y-69154523D01*
X117704809Y-69952809D02*
X117462904Y-69783476D01*
X117704809Y-69662523D02*
X117196809Y-69662523D01*
X117196809Y-69856047D01*
X117221000Y-69904428D01*
X117245190Y-69928619D01*
X117293571Y-69952809D01*
X117366142Y-69952809D01*
X117414523Y-69928619D01*
X117438714Y-69904428D01*
X117462904Y-69856047D01*
X117462904Y-69662523D01*
X117196809Y-70097952D02*
X117704809Y-70267285D01*
X117196809Y-70436619D01*
X117704809Y-70872047D02*
X117704809Y-70581761D01*
X117704809Y-70726904D02*
X117196809Y-70726904D01*
X117269380Y-70678523D01*
X117317761Y-70630142D01*
X117341952Y-70581761D01*
X117196809Y-71186523D02*
X117196809Y-71234904D01*
X117221000Y-71283285D01*
X117245190Y-71307476D01*
X117293571Y-71331666D01*
X117390333Y-71355857D01*
X117511285Y-71355857D01*
X117608047Y-71331666D01*
X117656428Y-71307476D01*
X117680619Y-71283285D01*
X117704809Y-71234904D01*
X117704809Y-71186523D01*
X117680619Y-71138142D01*
X117656428Y-71113952D01*
X117608047Y-71089761D01*
X117511285Y-71065571D01*
X117390333Y-71065571D01*
X117293571Y-71089761D01*
X117245190Y-71113952D01*
X117221000Y-71138142D01*
X117196809Y-71186523D01*
X117196809Y-71525190D02*
X117196809Y-71839666D01*
X117390333Y-71670333D01*
X117390333Y-71742904D01*
X117414523Y-71791285D01*
X117438714Y-71815476D01*
X117487095Y-71839666D01*
X117608047Y-71839666D01*
X117656428Y-71815476D01*
X117680619Y-71791285D01*
X117704809Y-71742904D01*
X117704809Y-71597761D01*
X117680619Y-71549380D01*
X117656428Y-71525190D01*
%TO.C,U9*%
X116719047Y-59538809D02*
X116719047Y-59950047D01*
X116694857Y-59998428D01*
X116670666Y-60022619D01*
X116622285Y-60046809D01*
X116525523Y-60046809D01*
X116477142Y-60022619D01*
X116452952Y-59998428D01*
X116428761Y-59950047D01*
X116428761Y-59538809D01*
X116162666Y-60046809D02*
X116065904Y-60046809D01*
X116017523Y-60022619D01*
X115993333Y-59998428D01*
X115944952Y-59925857D01*
X115920761Y-59829095D01*
X115920761Y-59635571D01*
X115944952Y-59587190D01*
X115969142Y-59563000D01*
X116017523Y-59538809D01*
X116114285Y-59538809D01*
X116162666Y-59563000D01*
X116186857Y-59587190D01*
X116211047Y-59635571D01*
X116211047Y-59756523D01*
X116186857Y-59804904D01*
X116162666Y-59829095D01*
X116114285Y-59853285D01*
X116017523Y-59853285D01*
X115969142Y-59829095D01*
X115944952Y-59804904D01*
X115920761Y-59756523D01*
X117704809Y-61534523D02*
X117196809Y-61534523D01*
X117196809Y-61655476D01*
X117221000Y-61728047D01*
X117269380Y-61776428D01*
X117317761Y-61800619D01*
X117414523Y-61824809D01*
X117487095Y-61824809D01*
X117583857Y-61800619D01*
X117632238Y-61776428D01*
X117680619Y-61728047D01*
X117704809Y-61655476D01*
X117704809Y-61534523D01*
X117704809Y-62332809D02*
X117462904Y-62163476D01*
X117704809Y-62042523D02*
X117196809Y-62042523D01*
X117196809Y-62236047D01*
X117221000Y-62284428D01*
X117245190Y-62308619D01*
X117293571Y-62332809D01*
X117366142Y-62332809D01*
X117414523Y-62308619D01*
X117438714Y-62284428D01*
X117462904Y-62236047D01*
X117462904Y-62042523D01*
X117196809Y-62477952D02*
X117704809Y-62647285D01*
X117196809Y-62816619D01*
X117704809Y-63252047D02*
X117704809Y-62961761D01*
X117704809Y-63106904D02*
X117196809Y-63106904D01*
X117269380Y-63058523D01*
X117317761Y-63010142D01*
X117341952Y-62961761D01*
X117196809Y-63566523D02*
X117196809Y-63614904D01*
X117221000Y-63663285D01*
X117245190Y-63687476D01*
X117293571Y-63711666D01*
X117390333Y-63735857D01*
X117511285Y-63735857D01*
X117608047Y-63711666D01*
X117656428Y-63687476D01*
X117680619Y-63663285D01*
X117704809Y-63614904D01*
X117704809Y-63566523D01*
X117680619Y-63518142D01*
X117656428Y-63493952D01*
X117608047Y-63469761D01*
X117511285Y-63445571D01*
X117390333Y-63445571D01*
X117293571Y-63469761D01*
X117245190Y-63493952D01*
X117221000Y-63518142D01*
X117196809Y-63566523D01*
X117196809Y-63905190D02*
X117196809Y-64219666D01*
X117390333Y-64050333D01*
X117390333Y-64122904D01*
X117414523Y-64171285D01*
X117438714Y-64195476D01*
X117487095Y-64219666D01*
X117608047Y-64219666D01*
X117656428Y-64195476D01*
X117680619Y-64171285D01*
X117704809Y-64122904D01*
X117704809Y-63977761D01*
X117680619Y-63929380D01*
X117656428Y-63905190D01*
%TO.C,D3*%
X82289952Y-113386809D02*
X82289952Y-112878809D01*
X82169000Y-112878809D01*
X82096428Y-112903000D01*
X82048047Y-112951380D01*
X82023857Y-112999761D01*
X81999666Y-113096523D01*
X81999666Y-113169095D01*
X82023857Y-113265857D01*
X82048047Y-113314238D01*
X82096428Y-113362619D01*
X82169000Y-113386809D01*
X82289952Y-113386809D01*
X81830333Y-112878809D02*
X81515857Y-112878809D01*
X81685190Y-113072333D01*
X81612619Y-113072333D01*
X81564238Y-113096523D01*
X81540047Y-113120714D01*
X81515857Y-113169095D01*
X81515857Y-113290047D01*
X81540047Y-113338428D01*
X81564238Y-113362619D01*
X81612619Y-113386809D01*
X81757761Y-113386809D01*
X81806142Y-113362619D01*
X81830333Y-113338428D01*
%TO.C,D4*%
X56889952Y-78461809D02*
X56889952Y-77953809D01*
X56769000Y-77953809D01*
X56696428Y-77978000D01*
X56648047Y-78026380D01*
X56623857Y-78074761D01*
X56599666Y-78171523D01*
X56599666Y-78244095D01*
X56623857Y-78340857D01*
X56648047Y-78389238D01*
X56696428Y-78437619D01*
X56769000Y-78461809D01*
X56889952Y-78461809D01*
X56164238Y-78123142D02*
X56164238Y-78461809D01*
X56285190Y-77929619D02*
X56406142Y-78292476D01*
X56091666Y-78292476D01*
%TO.C,D5*%
X82289952Y-108306809D02*
X82289952Y-107798809D01*
X82169000Y-107798809D01*
X82096428Y-107823000D01*
X82048047Y-107871380D01*
X82023857Y-107919761D01*
X81999666Y-108016523D01*
X81999666Y-108089095D01*
X82023857Y-108185857D01*
X82048047Y-108234238D01*
X82096428Y-108282619D01*
X82169000Y-108306809D01*
X82289952Y-108306809D01*
X81540047Y-107798809D02*
X81781952Y-107798809D01*
X81806142Y-108040714D01*
X81781952Y-108016523D01*
X81733571Y-107992333D01*
X81612619Y-107992333D01*
X81564238Y-108016523D01*
X81540047Y-108040714D01*
X81515857Y-108089095D01*
X81515857Y-108210047D01*
X81540047Y-108258428D01*
X81564238Y-108282619D01*
X81612619Y-108306809D01*
X81733571Y-108306809D01*
X81781952Y-108282619D01*
X81806142Y-108258428D01*
%TO.C,D6*%
X56889952Y-70841809D02*
X56889952Y-70333809D01*
X56769000Y-70333809D01*
X56696428Y-70358000D01*
X56648047Y-70406380D01*
X56623857Y-70454761D01*
X56599666Y-70551523D01*
X56599666Y-70624095D01*
X56623857Y-70720857D01*
X56648047Y-70769238D01*
X56696428Y-70817619D01*
X56769000Y-70841809D01*
X56889952Y-70841809D01*
X56164238Y-70333809D02*
X56261000Y-70333809D01*
X56309380Y-70358000D01*
X56333571Y-70382190D01*
X56381952Y-70454761D01*
X56406142Y-70551523D01*
X56406142Y-70745047D01*
X56381952Y-70793428D01*
X56357761Y-70817619D01*
X56309380Y-70841809D01*
X56212619Y-70841809D01*
X56164238Y-70817619D01*
X56140047Y-70793428D01*
X56115857Y-70745047D01*
X56115857Y-70624095D01*
X56140047Y-70575714D01*
X56164238Y-70551523D01*
X56212619Y-70527333D01*
X56309380Y-70527333D01*
X56357761Y-70551523D01*
X56381952Y-70575714D01*
X56406142Y-70624095D01*
%TO.C,D7*%
X82289952Y-103226809D02*
X82289952Y-102718809D01*
X82169000Y-102718809D01*
X82096428Y-102743000D01*
X82048047Y-102791380D01*
X82023857Y-102839761D01*
X81999666Y-102936523D01*
X81999666Y-103009095D01*
X82023857Y-103105857D01*
X82048047Y-103154238D01*
X82096428Y-103202619D01*
X82169000Y-103226809D01*
X82289952Y-103226809D01*
X81830333Y-102718809D02*
X81491666Y-102718809D01*
X81709380Y-103226809D01*
%TO.C,D8*%
X56889952Y-63221809D02*
X56889952Y-62713809D01*
X56769000Y-62713809D01*
X56696428Y-62738000D01*
X56648047Y-62786380D01*
X56623857Y-62834761D01*
X56599666Y-62931523D01*
X56599666Y-63004095D01*
X56623857Y-63100857D01*
X56648047Y-63149238D01*
X56696428Y-63197619D01*
X56769000Y-63221809D01*
X56889952Y-63221809D01*
X56309380Y-62931523D02*
X56357761Y-62907333D01*
X56381952Y-62883142D01*
X56406142Y-62834761D01*
X56406142Y-62810571D01*
X56381952Y-62762190D01*
X56357761Y-62738000D01*
X56309380Y-62713809D01*
X56212619Y-62713809D01*
X56164238Y-62738000D01*
X56140047Y-62762190D01*
X56115857Y-62810571D01*
X56115857Y-62834761D01*
X56140047Y-62883142D01*
X56164238Y-62907333D01*
X56212619Y-62931523D01*
X56309380Y-62931523D01*
X56357761Y-62955714D01*
X56381952Y-62979904D01*
X56406142Y-63028285D01*
X56406142Y-63125047D01*
X56381952Y-63173428D01*
X56357761Y-63197619D01*
X56309380Y-63221809D01*
X56212619Y-63221809D01*
X56164238Y-63197619D01*
X56140047Y-63173428D01*
X56115857Y-63125047D01*
X56115857Y-63028285D01*
X56140047Y-62979904D01*
X56164238Y-62955714D01*
X56212619Y-62931523D01*
%TO.C,D9*%
X87369952Y-113386809D02*
X87369952Y-112878809D01*
X87249000Y-112878809D01*
X87176428Y-112903000D01*
X87128047Y-112951380D01*
X87103857Y-112999761D01*
X87079666Y-113096523D01*
X87079666Y-113169095D01*
X87103857Y-113265857D01*
X87128047Y-113314238D01*
X87176428Y-113362619D01*
X87249000Y-113386809D01*
X87369952Y-113386809D01*
X86837761Y-113386809D02*
X86741000Y-113386809D01*
X86692619Y-113362619D01*
X86668428Y-113338428D01*
X86620047Y-113265857D01*
X86595857Y-113169095D01*
X86595857Y-112975571D01*
X86620047Y-112927190D01*
X86644238Y-112903000D01*
X86692619Y-112878809D01*
X86789380Y-112878809D01*
X86837761Y-112903000D01*
X86861952Y-112927190D01*
X86886142Y-112975571D01*
X86886142Y-113096523D01*
X86861952Y-113144904D01*
X86837761Y-113169095D01*
X86789380Y-113193285D01*
X86692619Y-113193285D01*
X86644238Y-113169095D01*
X86620047Y-113144904D01*
X86595857Y-113096523D01*
%TO.C,D10*%
X85071857Y-78461809D02*
X85071857Y-77953809D01*
X84950904Y-77953809D01*
X84878333Y-77978000D01*
X84829952Y-78026380D01*
X84805761Y-78074761D01*
X84781571Y-78171523D01*
X84781571Y-78244095D01*
X84805761Y-78340857D01*
X84829952Y-78389238D01*
X84878333Y-78437619D01*
X84950904Y-78461809D01*
X85071857Y-78461809D01*
X84297761Y-78461809D02*
X84588047Y-78461809D01*
X84442904Y-78461809D02*
X84442904Y-77953809D01*
X84491285Y-78026380D01*
X84539666Y-78074761D01*
X84588047Y-78098952D01*
X83983285Y-77953809D02*
X83934904Y-77953809D01*
X83886523Y-77978000D01*
X83862333Y-78002190D01*
X83838142Y-78050571D01*
X83813952Y-78147333D01*
X83813952Y-78268285D01*
X83838142Y-78365047D01*
X83862333Y-78413428D01*
X83886523Y-78437619D01*
X83934904Y-78461809D01*
X83983285Y-78461809D01*
X84031666Y-78437619D01*
X84055857Y-78413428D01*
X84080047Y-78365047D01*
X84104238Y-78268285D01*
X84104238Y-78147333D01*
X84080047Y-78050571D01*
X84055857Y-78002190D01*
X84031666Y-77978000D01*
X83983285Y-77953809D01*
%TO.C,D11*%
X87611857Y-108306809D02*
X87611857Y-107798809D01*
X87490904Y-107798809D01*
X87418333Y-107823000D01*
X87369952Y-107871380D01*
X87345761Y-107919761D01*
X87321571Y-108016523D01*
X87321571Y-108089095D01*
X87345761Y-108185857D01*
X87369952Y-108234238D01*
X87418333Y-108282619D01*
X87490904Y-108306809D01*
X87611857Y-108306809D01*
X86837761Y-108306809D02*
X87128047Y-108306809D01*
X86982904Y-108306809D02*
X86982904Y-107798809D01*
X87031285Y-107871380D01*
X87079666Y-107919761D01*
X87128047Y-107943952D01*
X86353952Y-108306809D02*
X86644238Y-108306809D01*
X86499095Y-108306809D02*
X86499095Y-107798809D01*
X86547476Y-107871380D01*
X86595857Y-107919761D01*
X86644238Y-107943952D01*
%TO.C,D12*%
X85071857Y-70841809D02*
X85071857Y-70333809D01*
X84950904Y-70333809D01*
X84878333Y-70358000D01*
X84829952Y-70406380D01*
X84805761Y-70454761D01*
X84781571Y-70551523D01*
X84781571Y-70624095D01*
X84805761Y-70720857D01*
X84829952Y-70769238D01*
X84878333Y-70817619D01*
X84950904Y-70841809D01*
X85071857Y-70841809D01*
X84297761Y-70841809D02*
X84588047Y-70841809D01*
X84442904Y-70841809D02*
X84442904Y-70333809D01*
X84491285Y-70406380D01*
X84539666Y-70454761D01*
X84588047Y-70478952D01*
X84104238Y-70382190D02*
X84080047Y-70358000D01*
X84031666Y-70333809D01*
X83910714Y-70333809D01*
X83862333Y-70358000D01*
X83838142Y-70382190D01*
X83813952Y-70430571D01*
X83813952Y-70478952D01*
X83838142Y-70551523D01*
X84128428Y-70841809D01*
X83813952Y-70841809D01*
%TO.C,D13*%
X87611857Y-103226809D02*
X87611857Y-102718809D01*
X87490904Y-102718809D01*
X87418333Y-102743000D01*
X87369952Y-102791380D01*
X87345761Y-102839761D01*
X87321571Y-102936523D01*
X87321571Y-103009095D01*
X87345761Y-103105857D01*
X87369952Y-103154238D01*
X87418333Y-103202619D01*
X87490904Y-103226809D01*
X87611857Y-103226809D01*
X86837761Y-103226809D02*
X87128047Y-103226809D01*
X86982904Y-103226809D02*
X86982904Y-102718809D01*
X87031285Y-102791380D01*
X87079666Y-102839761D01*
X87128047Y-102863952D01*
X86668428Y-102718809D02*
X86353952Y-102718809D01*
X86523285Y-102912333D01*
X86450714Y-102912333D01*
X86402333Y-102936523D01*
X86378142Y-102960714D01*
X86353952Y-103009095D01*
X86353952Y-103130047D01*
X86378142Y-103178428D01*
X86402333Y-103202619D01*
X86450714Y-103226809D01*
X86595857Y-103226809D01*
X86644238Y-103202619D01*
X86668428Y-103178428D01*
%TO.C,D14*%
X85071857Y-63221809D02*
X85071857Y-62713809D01*
X84950904Y-62713809D01*
X84878333Y-62738000D01*
X84829952Y-62786380D01*
X84805761Y-62834761D01*
X84781571Y-62931523D01*
X84781571Y-63004095D01*
X84805761Y-63100857D01*
X84829952Y-63149238D01*
X84878333Y-63197619D01*
X84950904Y-63221809D01*
X85071857Y-63221809D01*
X84297761Y-63221809D02*
X84588047Y-63221809D01*
X84442904Y-63221809D02*
X84442904Y-62713809D01*
X84491285Y-62786380D01*
X84539666Y-62834761D01*
X84588047Y-62858952D01*
X83862333Y-62883142D02*
X83862333Y-63221809D01*
X83983285Y-62689619D02*
X84104238Y-63052476D01*
X83789761Y-63052476D01*
%TO.C,D15*%
X92691857Y-113386809D02*
X92691857Y-112878809D01*
X92570904Y-112878809D01*
X92498333Y-112903000D01*
X92449952Y-112951380D01*
X92425761Y-112999761D01*
X92401571Y-113096523D01*
X92401571Y-113169095D01*
X92425761Y-113265857D01*
X92449952Y-113314238D01*
X92498333Y-113362619D01*
X92570904Y-113386809D01*
X92691857Y-113386809D01*
X91917761Y-113386809D02*
X92208047Y-113386809D01*
X92062904Y-113386809D02*
X92062904Y-112878809D01*
X92111285Y-112951380D01*
X92159666Y-112999761D01*
X92208047Y-113023952D01*
X91458142Y-112878809D02*
X91700047Y-112878809D01*
X91724238Y-113120714D01*
X91700047Y-113096523D01*
X91651666Y-113072333D01*
X91530714Y-113072333D01*
X91482333Y-113096523D01*
X91458142Y-113120714D01*
X91433952Y-113169095D01*
X91433952Y-113290047D01*
X91458142Y-113338428D01*
X91482333Y-113362619D01*
X91530714Y-113386809D01*
X91651666Y-113386809D01*
X91700047Y-113362619D01*
X91724238Y-113338428D01*
%TO.C,D16*%
X113011857Y-78461809D02*
X113011857Y-77953809D01*
X112890904Y-77953809D01*
X112818333Y-77978000D01*
X112769952Y-78026380D01*
X112745761Y-78074761D01*
X112721571Y-78171523D01*
X112721571Y-78244095D01*
X112745761Y-78340857D01*
X112769952Y-78389238D01*
X112818333Y-78437619D01*
X112890904Y-78461809D01*
X113011857Y-78461809D01*
X112237761Y-78461809D02*
X112528047Y-78461809D01*
X112382904Y-78461809D02*
X112382904Y-77953809D01*
X112431285Y-78026380D01*
X112479666Y-78074761D01*
X112528047Y-78098952D01*
X111802333Y-77953809D02*
X111899095Y-77953809D01*
X111947476Y-77978000D01*
X111971666Y-78002190D01*
X112020047Y-78074761D01*
X112044238Y-78171523D01*
X112044238Y-78365047D01*
X112020047Y-78413428D01*
X111995857Y-78437619D01*
X111947476Y-78461809D01*
X111850714Y-78461809D01*
X111802333Y-78437619D01*
X111778142Y-78413428D01*
X111753952Y-78365047D01*
X111753952Y-78244095D01*
X111778142Y-78195714D01*
X111802333Y-78171523D01*
X111850714Y-78147333D01*
X111947476Y-78147333D01*
X111995857Y-78171523D01*
X112020047Y-78195714D01*
X112044238Y-78244095D01*
%TO.C,D17*%
X92691857Y-108306809D02*
X92691857Y-107798809D01*
X92570904Y-107798809D01*
X92498333Y-107823000D01*
X92449952Y-107871380D01*
X92425761Y-107919761D01*
X92401571Y-108016523D01*
X92401571Y-108089095D01*
X92425761Y-108185857D01*
X92449952Y-108234238D01*
X92498333Y-108282619D01*
X92570904Y-108306809D01*
X92691857Y-108306809D01*
X91917761Y-108306809D02*
X92208047Y-108306809D01*
X92062904Y-108306809D02*
X92062904Y-107798809D01*
X92111285Y-107871380D01*
X92159666Y-107919761D01*
X92208047Y-107943952D01*
X91748428Y-107798809D02*
X91409761Y-107798809D01*
X91627476Y-108306809D01*
%TO.C,D18*%
X113011857Y-70841809D02*
X113011857Y-70333809D01*
X112890904Y-70333809D01*
X112818333Y-70358000D01*
X112769952Y-70406380D01*
X112745761Y-70454761D01*
X112721571Y-70551523D01*
X112721571Y-70624095D01*
X112745761Y-70720857D01*
X112769952Y-70769238D01*
X112818333Y-70817619D01*
X112890904Y-70841809D01*
X113011857Y-70841809D01*
X112237761Y-70841809D02*
X112528047Y-70841809D01*
X112382904Y-70841809D02*
X112382904Y-70333809D01*
X112431285Y-70406380D01*
X112479666Y-70454761D01*
X112528047Y-70478952D01*
X111947476Y-70551523D02*
X111995857Y-70527333D01*
X112020047Y-70503142D01*
X112044238Y-70454761D01*
X112044238Y-70430571D01*
X112020047Y-70382190D01*
X111995857Y-70358000D01*
X111947476Y-70333809D01*
X111850714Y-70333809D01*
X111802333Y-70358000D01*
X111778142Y-70382190D01*
X111753952Y-70430571D01*
X111753952Y-70454761D01*
X111778142Y-70503142D01*
X111802333Y-70527333D01*
X111850714Y-70551523D01*
X111947476Y-70551523D01*
X111995857Y-70575714D01*
X112020047Y-70599904D01*
X112044238Y-70648285D01*
X112044238Y-70745047D01*
X112020047Y-70793428D01*
X111995857Y-70817619D01*
X111947476Y-70841809D01*
X111850714Y-70841809D01*
X111802333Y-70817619D01*
X111778142Y-70793428D01*
X111753952Y-70745047D01*
X111753952Y-70648285D01*
X111778142Y-70599904D01*
X111802333Y-70575714D01*
X111850714Y-70551523D01*
%TO.C,D19*%
X92691857Y-103226809D02*
X92691857Y-102718809D01*
X92570904Y-102718809D01*
X92498333Y-102743000D01*
X92449952Y-102791380D01*
X92425761Y-102839761D01*
X92401571Y-102936523D01*
X92401571Y-103009095D01*
X92425761Y-103105857D01*
X92449952Y-103154238D01*
X92498333Y-103202619D01*
X92570904Y-103226809D01*
X92691857Y-103226809D01*
X91917761Y-103226809D02*
X92208047Y-103226809D01*
X92062904Y-103226809D02*
X92062904Y-102718809D01*
X92111285Y-102791380D01*
X92159666Y-102839761D01*
X92208047Y-102863952D01*
X91675857Y-103226809D02*
X91579095Y-103226809D01*
X91530714Y-103202619D01*
X91506523Y-103178428D01*
X91458142Y-103105857D01*
X91433952Y-103009095D01*
X91433952Y-102815571D01*
X91458142Y-102767190D01*
X91482333Y-102743000D01*
X91530714Y-102718809D01*
X91627476Y-102718809D01*
X91675857Y-102743000D01*
X91700047Y-102767190D01*
X91724238Y-102815571D01*
X91724238Y-102936523D01*
X91700047Y-102984904D01*
X91675857Y-103009095D01*
X91627476Y-103033285D01*
X91530714Y-103033285D01*
X91482333Y-103009095D01*
X91458142Y-102984904D01*
X91433952Y-102936523D01*
%TO.C,D20*%
X113011857Y-63221809D02*
X113011857Y-62713809D01*
X112890904Y-62713809D01*
X112818333Y-62738000D01*
X112769952Y-62786380D01*
X112745761Y-62834761D01*
X112721571Y-62931523D01*
X112721571Y-63004095D01*
X112745761Y-63100857D01*
X112769952Y-63149238D01*
X112818333Y-63197619D01*
X112890904Y-63221809D01*
X113011857Y-63221809D01*
X112528047Y-62762190D02*
X112503857Y-62738000D01*
X112455476Y-62713809D01*
X112334523Y-62713809D01*
X112286142Y-62738000D01*
X112261952Y-62762190D01*
X112237761Y-62810571D01*
X112237761Y-62858952D01*
X112261952Y-62931523D01*
X112552238Y-63221809D01*
X112237761Y-63221809D01*
X111923285Y-62713809D02*
X111874904Y-62713809D01*
X111826523Y-62738000D01*
X111802333Y-62762190D01*
X111778142Y-62810571D01*
X111753952Y-62907333D01*
X111753952Y-63028285D01*
X111778142Y-63125047D01*
X111802333Y-63173428D01*
X111826523Y-63197619D01*
X111874904Y-63221809D01*
X111923285Y-63221809D01*
X111971666Y-63197619D01*
X111995857Y-63173428D01*
X112020047Y-63125047D01*
X112044238Y-63028285D01*
X112044238Y-62907333D01*
X112020047Y-62810571D01*
X111995857Y-62762190D01*
X111971666Y-62738000D01*
X111923285Y-62713809D01*
%TO.C,C2*%
X63808428Y-81830333D02*
X63832619Y-81806142D01*
X63856809Y-81733571D01*
X63856809Y-81685190D01*
X63832619Y-81612619D01*
X63784238Y-81564238D01*
X63735857Y-81540047D01*
X63639095Y-81515857D01*
X63566523Y-81515857D01*
X63469761Y-81540047D01*
X63421380Y-81564238D01*
X63373000Y-81612619D01*
X63348809Y-81685190D01*
X63348809Y-81733571D01*
X63373000Y-81806142D01*
X63397190Y-81830333D01*
X63397190Y-82023857D02*
X63373000Y-82048047D01*
X63348809Y-82096428D01*
X63348809Y-82217380D01*
X63373000Y-82265761D01*
X63397190Y-82289952D01*
X63445571Y-82314142D01*
X63493952Y-82314142D01*
X63566523Y-82289952D01*
X63856809Y-81999666D01*
X63856809Y-82314142D01*
%TO.C,C4*%
X63808428Y-74210333D02*
X63832619Y-74186142D01*
X63856809Y-74113571D01*
X63856809Y-74065190D01*
X63832619Y-73992619D01*
X63784238Y-73944238D01*
X63735857Y-73920047D01*
X63639095Y-73895857D01*
X63566523Y-73895857D01*
X63469761Y-73920047D01*
X63421380Y-73944238D01*
X63373000Y-73992619D01*
X63348809Y-74065190D01*
X63348809Y-74113571D01*
X63373000Y-74186142D01*
X63397190Y-74210333D01*
X63518142Y-74645761D02*
X63856809Y-74645761D01*
X63324619Y-74524809D02*
X63687476Y-74403857D01*
X63687476Y-74718333D01*
%TO.C,C6*%
X63808428Y-66590333D02*
X63832619Y-66566142D01*
X63856809Y-66493571D01*
X63856809Y-66445190D01*
X63832619Y-66372619D01*
X63784238Y-66324238D01*
X63735857Y-66300047D01*
X63639095Y-66275857D01*
X63566523Y-66275857D01*
X63469761Y-66300047D01*
X63421380Y-66324238D01*
X63373000Y-66372619D01*
X63348809Y-66445190D01*
X63348809Y-66493571D01*
X63373000Y-66566142D01*
X63397190Y-66590333D01*
X63348809Y-67025761D02*
X63348809Y-66929000D01*
X63373000Y-66880619D01*
X63397190Y-66856428D01*
X63469761Y-66808047D01*
X63566523Y-66783857D01*
X63760047Y-66783857D01*
X63808428Y-66808047D01*
X63832619Y-66832238D01*
X63856809Y-66880619D01*
X63856809Y-66977380D01*
X63832619Y-67025761D01*
X63808428Y-67049952D01*
X63760047Y-67074142D01*
X63639095Y-67074142D01*
X63590714Y-67049952D01*
X63566523Y-67025761D01*
X63542333Y-66977380D01*
X63542333Y-66880619D01*
X63566523Y-66832238D01*
X63590714Y-66808047D01*
X63639095Y-66783857D01*
%TO.C,C8*%
X91748428Y-81830333D02*
X91772619Y-81806142D01*
X91796809Y-81733571D01*
X91796809Y-81685190D01*
X91772619Y-81612619D01*
X91724238Y-81564238D01*
X91675857Y-81540047D01*
X91579095Y-81515857D01*
X91506523Y-81515857D01*
X91409761Y-81540047D01*
X91361380Y-81564238D01*
X91313000Y-81612619D01*
X91288809Y-81685190D01*
X91288809Y-81733571D01*
X91313000Y-81806142D01*
X91337190Y-81830333D01*
X91506523Y-82120619D02*
X91482333Y-82072238D01*
X91458142Y-82048047D01*
X91409761Y-82023857D01*
X91385571Y-82023857D01*
X91337190Y-82048047D01*
X91313000Y-82072238D01*
X91288809Y-82120619D01*
X91288809Y-82217380D01*
X91313000Y-82265761D01*
X91337190Y-82289952D01*
X91385571Y-82314142D01*
X91409761Y-82314142D01*
X91458142Y-82289952D01*
X91482333Y-82265761D01*
X91506523Y-82217380D01*
X91506523Y-82120619D01*
X91530714Y-82072238D01*
X91554904Y-82048047D01*
X91603285Y-82023857D01*
X91700047Y-82023857D01*
X91748428Y-82048047D01*
X91772619Y-82072238D01*
X91796809Y-82120619D01*
X91796809Y-82217380D01*
X91772619Y-82265761D01*
X91748428Y-82289952D01*
X91700047Y-82314142D01*
X91603285Y-82314142D01*
X91554904Y-82289952D01*
X91530714Y-82265761D01*
X91506523Y-82217380D01*
%TO.C,C10*%
X91748428Y-73968428D02*
X91772619Y-73944238D01*
X91796809Y-73871666D01*
X91796809Y-73823285D01*
X91772619Y-73750714D01*
X91724238Y-73702333D01*
X91675857Y-73678142D01*
X91579095Y-73653952D01*
X91506523Y-73653952D01*
X91409761Y-73678142D01*
X91361380Y-73702333D01*
X91313000Y-73750714D01*
X91288809Y-73823285D01*
X91288809Y-73871666D01*
X91313000Y-73944238D01*
X91337190Y-73968428D01*
X91796809Y-74452238D02*
X91796809Y-74161952D01*
X91796809Y-74307095D02*
X91288809Y-74307095D01*
X91361380Y-74258714D01*
X91409761Y-74210333D01*
X91433952Y-74161952D01*
X91288809Y-74766714D02*
X91288809Y-74815095D01*
X91313000Y-74863476D01*
X91337190Y-74887666D01*
X91385571Y-74911857D01*
X91482333Y-74936047D01*
X91603285Y-74936047D01*
X91700047Y-74911857D01*
X91748428Y-74887666D01*
X91772619Y-74863476D01*
X91796809Y-74815095D01*
X91796809Y-74766714D01*
X91772619Y-74718333D01*
X91748428Y-74694142D01*
X91700047Y-74669952D01*
X91603285Y-74645761D01*
X91482333Y-74645761D01*
X91385571Y-74669952D01*
X91337190Y-74694142D01*
X91313000Y-74718333D01*
X91288809Y-74766714D01*
%TO.C,C12*%
X91748428Y-66348428D02*
X91772619Y-66324238D01*
X91796809Y-66251666D01*
X91796809Y-66203285D01*
X91772619Y-66130714D01*
X91724238Y-66082333D01*
X91675857Y-66058142D01*
X91579095Y-66033952D01*
X91506523Y-66033952D01*
X91409761Y-66058142D01*
X91361380Y-66082333D01*
X91313000Y-66130714D01*
X91288809Y-66203285D01*
X91288809Y-66251666D01*
X91313000Y-66324238D01*
X91337190Y-66348428D01*
X91796809Y-66832238D02*
X91796809Y-66541952D01*
X91796809Y-66687095D02*
X91288809Y-66687095D01*
X91361380Y-66638714D01*
X91409761Y-66590333D01*
X91433952Y-66541952D01*
X91337190Y-67025761D02*
X91313000Y-67049952D01*
X91288809Y-67098333D01*
X91288809Y-67219285D01*
X91313000Y-67267666D01*
X91337190Y-67291857D01*
X91385571Y-67316047D01*
X91433952Y-67316047D01*
X91506523Y-67291857D01*
X91796809Y-67001571D01*
X91796809Y-67316047D01*
%TO.C,C14*%
X119688428Y-81588428D02*
X119712619Y-81564238D01*
X119736809Y-81491666D01*
X119736809Y-81443285D01*
X119712619Y-81370714D01*
X119664238Y-81322333D01*
X119615857Y-81298142D01*
X119519095Y-81273952D01*
X119446523Y-81273952D01*
X119349761Y-81298142D01*
X119301380Y-81322333D01*
X119253000Y-81370714D01*
X119228809Y-81443285D01*
X119228809Y-81491666D01*
X119253000Y-81564238D01*
X119277190Y-81588428D01*
X119736809Y-82072238D02*
X119736809Y-81781952D01*
X119736809Y-81927095D02*
X119228809Y-81927095D01*
X119301380Y-81878714D01*
X119349761Y-81830333D01*
X119373952Y-81781952D01*
X119398142Y-82507666D02*
X119736809Y-82507666D01*
X119204619Y-82386714D02*
X119567476Y-82265761D01*
X119567476Y-82580238D01*
%TO.C,C16*%
X119688428Y-73968428D02*
X119712619Y-73944238D01*
X119736809Y-73871666D01*
X119736809Y-73823285D01*
X119712619Y-73750714D01*
X119664238Y-73702333D01*
X119615857Y-73678142D01*
X119519095Y-73653952D01*
X119446523Y-73653952D01*
X119349761Y-73678142D01*
X119301380Y-73702333D01*
X119253000Y-73750714D01*
X119228809Y-73823285D01*
X119228809Y-73871666D01*
X119253000Y-73944238D01*
X119277190Y-73968428D01*
X119736809Y-74452238D02*
X119736809Y-74161952D01*
X119736809Y-74307095D02*
X119228809Y-74307095D01*
X119301380Y-74258714D01*
X119349761Y-74210333D01*
X119373952Y-74161952D01*
X119228809Y-74887666D02*
X119228809Y-74790904D01*
X119253000Y-74742523D01*
X119277190Y-74718333D01*
X119349761Y-74669952D01*
X119446523Y-74645761D01*
X119640047Y-74645761D01*
X119688428Y-74669952D01*
X119712619Y-74694142D01*
X119736809Y-74742523D01*
X119736809Y-74839285D01*
X119712619Y-74887666D01*
X119688428Y-74911857D01*
X119640047Y-74936047D01*
X119519095Y-74936047D01*
X119470714Y-74911857D01*
X119446523Y-74887666D01*
X119422333Y-74839285D01*
X119422333Y-74742523D01*
X119446523Y-74694142D01*
X119470714Y-74669952D01*
X119519095Y-74645761D01*
%TO.C,C18*%
X119688428Y-66348428D02*
X119712619Y-66324238D01*
X119736809Y-66251666D01*
X119736809Y-66203285D01*
X119712619Y-66130714D01*
X119664238Y-66082333D01*
X119615857Y-66058142D01*
X119519095Y-66033952D01*
X119446523Y-66033952D01*
X119349761Y-66058142D01*
X119301380Y-66082333D01*
X119253000Y-66130714D01*
X119228809Y-66203285D01*
X119228809Y-66251666D01*
X119253000Y-66324238D01*
X119277190Y-66348428D01*
X119736809Y-66832238D02*
X119736809Y-66541952D01*
X119736809Y-66687095D02*
X119228809Y-66687095D01*
X119301380Y-66638714D01*
X119349761Y-66590333D01*
X119373952Y-66541952D01*
X119446523Y-67122523D02*
X119422333Y-67074142D01*
X119398142Y-67049952D01*
X119349761Y-67025761D01*
X119325571Y-67025761D01*
X119277190Y-67049952D01*
X119253000Y-67074142D01*
X119228809Y-67122523D01*
X119228809Y-67219285D01*
X119253000Y-67267666D01*
X119277190Y-67291857D01*
X119325571Y-67316047D01*
X119349761Y-67316047D01*
X119398142Y-67291857D01*
X119422333Y-67267666D01*
X119446523Y-67219285D01*
X119446523Y-67122523D01*
X119470714Y-67074142D01*
X119494904Y-67049952D01*
X119543285Y-67025761D01*
X119640047Y-67025761D01*
X119688428Y-67049952D01*
X119712619Y-67074142D01*
X119736809Y-67122523D01*
X119736809Y-67219285D01*
X119712619Y-67267666D01*
X119688428Y-67291857D01*
X119640047Y-67316047D01*
X119543285Y-67316047D01*
X119494904Y-67291857D01*
X119470714Y-67267666D01*
X119446523Y-67219285D01*
%TO.C,C3*%
X69523428Y-78655333D02*
X69547619Y-78631142D01*
X69571809Y-78558571D01*
X69571809Y-78510190D01*
X69547619Y-78437619D01*
X69499238Y-78389238D01*
X69450857Y-78365047D01*
X69354095Y-78340857D01*
X69281523Y-78340857D01*
X69184761Y-78365047D01*
X69136380Y-78389238D01*
X69088000Y-78437619D01*
X69063809Y-78510190D01*
X69063809Y-78558571D01*
X69088000Y-78631142D01*
X69112190Y-78655333D01*
X69063809Y-78824666D02*
X69063809Y-79139142D01*
X69257333Y-78969809D01*
X69257333Y-79042380D01*
X69281523Y-79090761D01*
X69305714Y-79114952D01*
X69354095Y-79139142D01*
X69475047Y-79139142D01*
X69523428Y-79114952D01*
X69547619Y-79090761D01*
X69571809Y-79042380D01*
X69571809Y-78897238D01*
X69547619Y-78848857D01*
X69523428Y-78824666D01*
X66904809Y-78195714D02*
X66904809Y-77905428D01*
X66904809Y-78050571D02*
X66396809Y-78050571D01*
X66469380Y-78002190D01*
X66517761Y-77953809D01*
X66541952Y-77905428D01*
X66396809Y-78655333D02*
X66396809Y-78413428D01*
X66638714Y-78389238D01*
X66614523Y-78413428D01*
X66590333Y-78461809D01*
X66590333Y-78582761D01*
X66614523Y-78631142D01*
X66638714Y-78655333D01*
X66687095Y-78679523D01*
X66808047Y-78679523D01*
X66856428Y-78655333D01*
X66880619Y-78631142D01*
X66904809Y-78582761D01*
X66904809Y-78461809D01*
X66880619Y-78413428D01*
X66856428Y-78389238D01*
X66566142Y-78897238D02*
X66904809Y-78897238D01*
X66614523Y-78897238D02*
X66590333Y-78921428D01*
X66566142Y-78969809D01*
X66566142Y-79042380D01*
X66590333Y-79090761D01*
X66638714Y-79114952D01*
X66904809Y-79114952D01*
X66638714Y-79526190D02*
X66638714Y-79356857D01*
X66904809Y-79356857D02*
X66396809Y-79356857D01*
X66396809Y-79598761D01*
%TO.C,C5*%
X69523428Y-71035333D02*
X69547619Y-71011142D01*
X69571809Y-70938571D01*
X69571809Y-70890190D01*
X69547619Y-70817619D01*
X69499238Y-70769238D01*
X69450857Y-70745047D01*
X69354095Y-70720857D01*
X69281523Y-70720857D01*
X69184761Y-70745047D01*
X69136380Y-70769238D01*
X69088000Y-70817619D01*
X69063809Y-70890190D01*
X69063809Y-70938571D01*
X69088000Y-71011142D01*
X69112190Y-71035333D01*
X69063809Y-71494952D02*
X69063809Y-71253047D01*
X69305714Y-71228857D01*
X69281523Y-71253047D01*
X69257333Y-71301428D01*
X69257333Y-71422380D01*
X69281523Y-71470761D01*
X69305714Y-71494952D01*
X69354095Y-71519142D01*
X69475047Y-71519142D01*
X69523428Y-71494952D01*
X69547619Y-71470761D01*
X69571809Y-71422380D01*
X69571809Y-71301428D01*
X69547619Y-71253047D01*
X69523428Y-71228857D01*
X66904809Y-70575714D02*
X66904809Y-70285428D01*
X66904809Y-70430571D02*
X66396809Y-70430571D01*
X66469380Y-70382190D01*
X66517761Y-70333809D01*
X66541952Y-70285428D01*
X66396809Y-71035333D02*
X66396809Y-70793428D01*
X66638714Y-70769238D01*
X66614523Y-70793428D01*
X66590333Y-70841809D01*
X66590333Y-70962761D01*
X66614523Y-71011142D01*
X66638714Y-71035333D01*
X66687095Y-71059523D01*
X66808047Y-71059523D01*
X66856428Y-71035333D01*
X66880619Y-71011142D01*
X66904809Y-70962761D01*
X66904809Y-70841809D01*
X66880619Y-70793428D01*
X66856428Y-70769238D01*
X66566142Y-71277238D02*
X66904809Y-71277238D01*
X66614523Y-71277238D02*
X66590333Y-71301428D01*
X66566142Y-71349809D01*
X66566142Y-71422380D01*
X66590333Y-71470761D01*
X66638714Y-71494952D01*
X66904809Y-71494952D01*
X66638714Y-71906190D02*
X66638714Y-71736857D01*
X66904809Y-71736857D02*
X66396809Y-71736857D01*
X66396809Y-71978761D01*
%TO.C,C7*%
X69523428Y-63415333D02*
X69547619Y-63391142D01*
X69571809Y-63318571D01*
X69571809Y-63270190D01*
X69547619Y-63197619D01*
X69499238Y-63149238D01*
X69450857Y-63125047D01*
X69354095Y-63100857D01*
X69281523Y-63100857D01*
X69184761Y-63125047D01*
X69136380Y-63149238D01*
X69088000Y-63197619D01*
X69063809Y-63270190D01*
X69063809Y-63318571D01*
X69088000Y-63391142D01*
X69112190Y-63415333D01*
X69063809Y-63584666D02*
X69063809Y-63923333D01*
X69571809Y-63705619D01*
X66904809Y-62955714D02*
X66904809Y-62665428D01*
X66904809Y-62810571D02*
X66396809Y-62810571D01*
X66469380Y-62762190D01*
X66517761Y-62713809D01*
X66541952Y-62665428D01*
X66396809Y-63415333D02*
X66396809Y-63173428D01*
X66638714Y-63149238D01*
X66614523Y-63173428D01*
X66590333Y-63221809D01*
X66590333Y-63342761D01*
X66614523Y-63391142D01*
X66638714Y-63415333D01*
X66687095Y-63439523D01*
X66808047Y-63439523D01*
X66856428Y-63415333D01*
X66880619Y-63391142D01*
X66904809Y-63342761D01*
X66904809Y-63221809D01*
X66880619Y-63173428D01*
X66856428Y-63149238D01*
X66566142Y-63657238D02*
X66904809Y-63657238D01*
X66614523Y-63657238D02*
X66590333Y-63681428D01*
X66566142Y-63729809D01*
X66566142Y-63802380D01*
X66590333Y-63850761D01*
X66638714Y-63874952D01*
X66904809Y-63874952D01*
X66638714Y-64286190D02*
X66638714Y-64116857D01*
X66904809Y-64116857D02*
X66396809Y-64116857D01*
X66396809Y-64358761D01*
%TO.C,C9*%
X97463428Y-78655333D02*
X97487619Y-78631142D01*
X97511809Y-78558571D01*
X97511809Y-78510190D01*
X97487619Y-78437619D01*
X97439238Y-78389238D01*
X97390857Y-78365047D01*
X97294095Y-78340857D01*
X97221523Y-78340857D01*
X97124761Y-78365047D01*
X97076380Y-78389238D01*
X97028000Y-78437619D01*
X97003809Y-78510190D01*
X97003809Y-78558571D01*
X97028000Y-78631142D01*
X97052190Y-78655333D01*
X97511809Y-78897238D02*
X97511809Y-78994000D01*
X97487619Y-79042380D01*
X97463428Y-79066571D01*
X97390857Y-79114952D01*
X97294095Y-79139142D01*
X97100571Y-79139142D01*
X97052190Y-79114952D01*
X97028000Y-79090761D01*
X97003809Y-79042380D01*
X97003809Y-78945619D01*
X97028000Y-78897238D01*
X97052190Y-78873047D01*
X97100571Y-78848857D01*
X97221523Y-78848857D01*
X97269904Y-78873047D01*
X97294095Y-78897238D01*
X97318285Y-78945619D01*
X97318285Y-79042380D01*
X97294095Y-79090761D01*
X97269904Y-79114952D01*
X97221523Y-79139142D01*
X94844809Y-78195714D02*
X94844809Y-77905428D01*
X94844809Y-78050571D02*
X94336809Y-78050571D01*
X94409380Y-78002190D01*
X94457761Y-77953809D01*
X94481952Y-77905428D01*
X94336809Y-78655333D02*
X94336809Y-78413428D01*
X94578714Y-78389238D01*
X94554523Y-78413428D01*
X94530333Y-78461809D01*
X94530333Y-78582761D01*
X94554523Y-78631142D01*
X94578714Y-78655333D01*
X94627095Y-78679523D01*
X94748047Y-78679523D01*
X94796428Y-78655333D01*
X94820619Y-78631142D01*
X94844809Y-78582761D01*
X94844809Y-78461809D01*
X94820619Y-78413428D01*
X94796428Y-78389238D01*
X94506142Y-78897238D02*
X94844809Y-78897238D01*
X94554523Y-78897238D02*
X94530333Y-78921428D01*
X94506142Y-78969809D01*
X94506142Y-79042380D01*
X94530333Y-79090761D01*
X94578714Y-79114952D01*
X94844809Y-79114952D01*
X94578714Y-79526190D02*
X94578714Y-79356857D01*
X94844809Y-79356857D02*
X94336809Y-79356857D01*
X94336809Y-79598761D01*
%TO.C,C11*%
X97463428Y-70793428D02*
X97487619Y-70769238D01*
X97511809Y-70696666D01*
X97511809Y-70648285D01*
X97487619Y-70575714D01*
X97439238Y-70527333D01*
X97390857Y-70503142D01*
X97294095Y-70478952D01*
X97221523Y-70478952D01*
X97124761Y-70503142D01*
X97076380Y-70527333D01*
X97028000Y-70575714D01*
X97003809Y-70648285D01*
X97003809Y-70696666D01*
X97028000Y-70769238D01*
X97052190Y-70793428D01*
X97511809Y-71277238D02*
X97511809Y-70986952D01*
X97511809Y-71132095D02*
X97003809Y-71132095D01*
X97076380Y-71083714D01*
X97124761Y-71035333D01*
X97148952Y-70986952D01*
X97511809Y-71761047D02*
X97511809Y-71470761D01*
X97511809Y-71615904D02*
X97003809Y-71615904D01*
X97076380Y-71567523D01*
X97124761Y-71519142D01*
X97148952Y-71470761D01*
X94844809Y-70575714D02*
X94844809Y-70285428D01*
X94844809Y-70430571D02*
X94336809Y-70430571D01*
X94409380Y-70382190D01*
X94457761Y-70333809D01*
X94481952Y-70285428D01*
X94336809Y-71035333D02*
X94336809Y-70793428D01*
X94578714Y-70769238D01*
X94554523Y-70793428D01*
X94530333Y-70841809D01*
X94530333Y-70962761D01*
X94554523Y-71011142D01*
X94578714Y-71035333D01*
X94627095Y-71059523D01*
X94748047Y-71059523D01*
X94796428Y-71035333D01*
X94820619Y-71011142D01*
X94844809Y-70962761D01*
X94844809Y-70841809D01*
X94820619Y-70793428D01*
X94796428Y-70769238D01*
X94506142Y-71277238D02*
X94844809Y-71277238D01*
X94554523Y-71277238D02*
X94530333Y-71301428D01*
X94506142Y-71349809D01*
X94506142Y-71422380D01*
X94530333Y-71470761D01*
X94578714Y-71494952D01*
X94844809Y-71494952D01*
X94578714Y-71906190D02*
X94578714Y-71736857D01*
X94844809Y-71736857D02*
X94336809Y-71736857D01*
X94336809Y-71978761D01*
%TO.C,C13*%
X97463428Y-63173428D02*
X97487619Y-63149238D01*
X97511809Y-63076666D01*
X97511809Y-63028285D01*
X97487619Y-62955714D01*
X97439238Y-62907333D01*
X97390857Y-62883142D01*
X97294095Y-62858952D01*
X97221523Y-62858952D01*
X97124761Y-62883142D01*
X97076380Y-62907333D01*
X97028000Y-62955714D01*
X97003809Y-63028285D01*
X97003809Y-63076666D01*
X97028000Y-63149238D01*
X97052190Y-63173428D01*
X97511809Y-63657238D02*
X97511809Y-63366952D01*
X97511809Y-63512095D02*
X97003809Y-63512095D01*
X97076380Y-63463714D01*
X97124761Y-63415333D01*
X97148952Y-63366952D01*
X97003809Y-63826571D02*
X97003809Y-64141047D01*
X97197333Y-63971714D01*
X97197333Y-64044285D01*
X97221523Y-64092666D01*
X97245714Y-64116857D01*
X97294095Y-64141047D01*
X97415047Y-64141047D01*
X97463428Y-64116857D01*
X97487619Y-64092666D01*
X97511809Y-64044285D01*
X97511809Y-63899142D01*
X97487619Y-63850761D01*
X97463428Y-63826571D01*
X94844809Y-62955714D02*
X94844809Y-62665428D01*
X94844809Y-62810571D02*
X94336809Y-62810571D01*
X94409380Y-62762190D01*
X94457761Y-62713809D01*
X94481952Y-62665428D01*
X94336809Y-63415333D02*
X94336809Y-63173428D01*
X94578714Y-63149238D01*
X94554523Y-63173428D01*
X94530333Y-63221809D01*
X94530333Y-63342761D01*
X94554523Y-63391142D01*
X94578714Y-63415333D01*
X94627095Y-63439523D01*
X94748047Y-63439523D01*
X94796428Y-63415333D01*
X94820619Y-63391142D01*
X94844809Y-63342761D01*
X94844809Y-63221809D01*
X94820619Y-63173428D01*
X94796428Y-63149238D01*
X94506142Y-63657238D02*
X94844809Y-63657238D01*
X94554523Y-63657238D02*
X94530333Y-63681428D01*
X94506142Y-63729809D01*
X94506142Y-63802380D01*
X94530333Y-63850761D01*
X94578714Y-63874952D01*
X94844809Y-63874952D01*
X94578714Y-64286190D02*
X94578714Y-64116857D01*
X94844809Y-64116857D02*
X94336809Y-64116857D01*
X94336809Y-64358761D01*
%TO.C,C15*%
X125403428Y-78413428D02*
X125427619Y-78389238D01*
X125451809Y-78316666D01*
X125451809Y-78268285D01*
X125427619Y-78195714D01*
X125379238Y-78147333D01*
X125330857Y-78123142D01*
X125234095Y-78098952D01*
X125161523Y-78098952D01*
X125064761Y-78123142D01*
X125016380Y-78147333D01*
X124968000Y-78195714D01*
X124943809Y-78268285D01*
X124943809Y-78316666D01*
X124968000Y-78389238D01*
X124992190Y-78413428D01*
X125451809Y-78897238D02*
X125451809Y-78606952D01*
X125451809Y-78752095D02*
X124943809Y-78752095D01*
X125016380Y-78703714D01*
X125064761Y-78655333D01*
X125088952Y-78606952D01*
X124943809Y-79356857D02*
X124943809Y-79114952D01*
X125185714Y-79090761D01*
X125161523Y-79114952D01*
X125137333Y-79163333D01*
X125137333Y-79284285D01*
X125161523Y-79332666D01*
X125185714Y-79356857D01*
X125234095Y-79381047D01*
X125355047Y-79381047D01*
X125403428Y-79356857D01*
X125427619Y-79332666D01*
X125451809Y-79284285D01*
X125451809Y-79163333D01*
X125427619Y-79114952D01*
X125403428Y-79090761D01*
X122784809Y-78195714D02*
X122784809Y-77905428D01*
X122784809Y-78050571D02*
X122276809Y-78050571D01*
X122349380Y-78002190D01*
X122397761Y-77953809D01*
X122421952Y-77905428D01*
X122276809Y-78655333D02*
X122276809Y-78413428D01*
X122518714Y-78389238D01*
X122494523Y-78413428D01*
X122470333Y-78461809D01*
X122470333Y-78582761D01*
X122494523Y-78631142D01*
X122518714Y-78655333D01*
X122567095Y-78679523D01*
X122688047Y-78679523D01*
X122736428Y-78655333D01*
X122760619Y-78631142D01*
X122784809Y-78582761D01*
X122784809Y-78461809D01*
X122760619Y-78413428D01*
X122736428Y-78389238D01*
X122446142Y-78897238D02*
X122784809Y-78897238D01*
X122494523Y-78897238D02*
X122470333Y-78921428D01*
X122446142Y-78969809D01*
X122446142Y-79042380D01*
X122470333Y-79090761D01*
X122518714Y-79114952D01*
X122784809Y-79114952D01*
X122518714Y-79526190D02*
X122518714Y-79356857D01*
X122784809Y-79356857D02*
X122276809Y-79356857D01*
X122276809Y-79598761D01*
%TO.C,C17*%
X125403428Y-70793428D02*
X125427619Y-70769238D01*
X125451809Y-70696666D01*
X125451809Y-70648285D01*
X125427619Y-70575714D01*
X125379238Y-70527333D01*
X125330857Y-70503142D01*
X125234095Y-70478952D01*
X125161523Y-70478952D01*
X125064761Y-70503142D01*
X125016380Y-70527333D01*
X124968000Y-70575714D01*
X124943809Y-70648285D01*
X124943809Y-70696666D01*
X124968000Y-70769238D01*
X124992190Y-70793428D01*
X125451809Y-71277238D02*
X125451809Y-70986952D01*
X125451809Y-71132095D02*
X124943809Y-71132095D01*
X125016380Y-71083714D01*
X125064761Y-71035333D01*
X125088952Y-70986952D01*
X124943809Y-71446571D02*
X124943809Y-71785238D01*
X125451809Y-71567523D01*
X122784809Y-70575714D02*
X122784809Y-70285428D01*
X122784809Y-70430571D02*
X122276809Y-70430571D01*
X122349380Y-70382190D01*
X122397761Y-70333809D01*
X122421952Y-70285428D01*
X122276809Y-71035333D02*
X122276809Y-70793428D01*
X122518714Y-70769238D01*
X122494523Y-70793428D01*
X122470333Y-70841809D01*
X122470333Y-70962761D01*
X122494523Y-71011142D01*
X122518714Y-71035333D01*
X122567095Y-71059523D01*
X122688047Y-71059523D01*
X122736428Y-71035333D01*
X122760619Y-71011142D01*
X122784809Y-70962761D01*
X122784809Y-70841809D01*
X122760619Y-70793428D01*
X122736428Y-70769238D01*
X122446142Y-71277238D02*
X122784809Y-71277238D01*
X122494523Y-71277238D02*
X122470333Y-71301428D01*
X122446142Y-71349809D01*
X122446142Y-71422380D01*
X122470333Y-71470761D01*
X122518714Y-71494952D01*
X122784809Y-71494952D01*
X122518714Y-71906190D02*
X122518714Y-71736857D01*
X122784809Y-71736857D02*
X122276809Y-71736857D01*
X122276809Y-71978761D01*
%TO.C,C19*%
X125403428Y-63173428D02*
X125427619Y-63149238D01*
X125451809Y-63076666D01*
X125451809Y-63028285D01*
X125427619Y-62955714D01*
X125379238Y-62907333D01*
X125330857Y-62883142D01*
X125234095Y-62858952D01*
X125161523Y-62858952D01*
X125064761Y-62883142D01*
X125016380Y-62907333D01*
X124968000Y-62955714D01*
X124943809Y-63028285D01*
X124943809Y-63076666D01*
X124968000Y-63149238D01*
X124992190Y-63173428D01*
X125451809Y-63657238D02*
X125451809Y-63366952D01*
X125451809Y-63512095D02*
X124943809Y-63512095D01*
X125016380Y-63463714D01*
X125064761Y-63415333D01*
X125088952Y-63366952D01*
X125451809Y-63899142D02*
X125451809Y-63995904D01*
X125427619Y-64044285D01*
X125403428Y-64068476D01*
X125330857Y-64116857D01*
X125234095Y-64141047D01*
X125040571Y-64141047D01*
X124992190Y-64116857D01*
X124968000Y-64092666D01*
X124943809Y-64044285D01*
X124943809Y-63947523D01*
X124968000Y-63899142D01*
X124992190Y-63874952D01*
X125040571Y-63850761D01*
X125161523Y-63850761D01*
X125209904Y-63874952D01*
X125234095Y-63899142D01*
X125258285Y-63947523D01*
X125258285Y-64044285D01*
X125234095Y-64092666D01*
X125209904Y-64116857D01*
X125161523Y-64141047D01*
X122784809Y-62955714D02*
X122784809Y-62665428D01*
X122784809Y-62810571D02*
X122276809Y-62810571D01*
X122349380Y-62762190D01*
X122397761Y-62713809D01*
X122421952Y-62665428D01*
X122276809Y-63415333D02*
X122276809Y-63173428D01*
X122518714Y-63149238D01*
X122494523Y-63173428D01*
X122470333Y-63221809D01*
X122470333Y-63342761D01*
X122494523Y-63391142D01*
X122518714Y-63415333D01*
X122567095Y-63439523D01*
X122688047Y-63439523D01*
X122736428Y-63415333D01*
X122760619Y-63391142D01*
X122784809Y-63342761D01*
X122784809Y-63221809D01*
X122760619Y-63173428D01*
X122736428Y-63149238D01*
X122446142Y-63657238D02*
X122784809Y-63657238D01*
X122494523Y-63657238D02*
X122470333Y-63681428D01*
X122446142Y-63729809D01*
X122446142Y-63802380D01*
X122470333Y-63850761D01*
X122518714Y-63874952D01*
X122784809Y-63874952D01*
X122518714Y-64286190D02*
X122518714Y-64116857D01*
X122784809Y-64116857D02*
X122276809Y-64116857D01*
X122276809Y-64358761D01*
%TO.C,R3*%
X69571809Y-74845333D02*
X69329904Y-74676000D01*
X69571809Y-74555047D02*
X69063809Y-74555047D01*
X69063809Y-74748571D01*
X69088000Y-74796952D01*
X69112190Y-74821142D01*
X69160571Y-74845333D01*
X69233142Y-74845333D01*
X69281523Y-74821142D01*
X69305714Y-74796952D01*
X69329904Y-74748571D01*
X69329904Y-74555047D01*
X69063809Y-75014666D02*
X69063809Y-75329142D01*
X69257333Y-75159809D01*
X69257333Y-75232380D01*
X69281523Y-75280761D01*
X69305714Y-75304952D01*
X69354095Y-75329142D01*
X69475047Y-75329142D01*
X69523428Y-75304952D01*
X69547619Y-75280761D01*
X69571809Y-75232380D01*
X69571809Y-75087238D01*
X69547619Y-75038857D01*
X69523428Y-75014666D01*
X66904809Y-74385714D02*
X66904809Y-74095428D01*
X66904809Y-74240571D02*
X66396809Y-74240571D01*
X66469380Y-74192190D01*
X66517761Y-74143809D01*
X66541952Y-74095428D01*
X66396809Y-74845333D02*
X66396809Y-74603428D01*
X66638714Y-74579238D01*
X66614523Y-74603428D01*
X66590333Y-74651809D01*
X66590333Y-74772761D01*
X66614523Y-74821142D01*
X66638714Y-74845333D01*
X66687095Y-74869523D01*
X66808047Y-74869523D01*
X66856428Y-74845333D01*
X66880619Y-74821142D01*
X66904809Y-74772761D01*
X66904809Y-74651809D01*
X66880619Y-74603428D01*
X66856428Y-74579238D01*
X66396809Y-75184000D02*
X66396809Y-75232380D01*
X66421000Y-75280761D01*
X66445190Y-75304952D01*
X66493571Y-75329142D01*
X66590333Y-75353333D01*
X66711285Y-75353333D01*
X66808047Y-75329142D01*
X66856428Y-75304952D01*
X66880619Y-75280761D01*
X66904809Y-75232380D01*
X66904809Y-75184000D01*
X66880619Y-75135619D01*
X66856428Y-75111428D01*
X66808047Y-75087238D01*
X66711285Y-75063047D01*
X66590333Y-75063047D01*
X66493571Y-75087238D01*
X66445190Y-75111428D01*
X66421000Y-75135619D01*
X66396809Y-75184000D01*
X66904809Y-75571047D02*
X66396809Y-75571047D01*
X66711285Y-75619428D02*
X66904809Y-75764571D01*
X66566142Y-75764571D02*
X66759666Y-75571047D01*
%TO.C,R4*%
X69571809Y-76750333D02*
X69329904Y-76581000D01*
X69571809Y-76460047D02*
X69063809Y-76460047D01*
X69063809Y-76653571D01*
X69088000Y-76701952D01*
X69112190Y-76726142D01*
X69160571Y-76750333D01*
X69233142Y-76750333D01*
X69281523Y-76726142D01*
X69305714Y-76701952D01*
X69329904Y-76653571D01*
X69329904Y-76460047D01*
X69233142Y-77185761D02*
X69571809Y-77185761D01*
X69039619Y-77064809D02*
X69402476Y-76943857D01*
X69402476Y-77258333D01*
X66904809Y-76290714D02*
X66904809Y-76000428D01*
X66904809Y-76145571D02*
X66396809Y-76145571D01*
X66469380Y-76097190D01*
X66517761Y-76048809D01*
X66541952Y-76000428D01*
X66396809Y-76750333D02*
X66396809Y-76508428D01*
X66638714Y-76484238D01*
X66614523Y-76508428D01*
X66590333Y-76556809D01*
X66590333Y-76677761D01*
X66614523Y-76726142D01*
X66638714Y-76750333D01*
X66687095Y-76774523D01*
X66808047Y-76774523D01*
X66856428Y-76750333D01*
X66880619Y-76726142D01*
X66904809Y-76677761D01*
X66904809Y-76556809D01*
X66880619Y-76508428D01*
X66856428Y-76484238D01*
X66396809Y-77089000D02*
X66396809Y-77137380D01*
X66421000Y-77185761D01*
X66445190Y-77209952D01*
X66493571Y-77234142D01*
X66590333Y-77258333D01*
X66711285Y-77258333D01*
X66808047Y-77234142D01*
X66856428Y-77209952D01*
X66880619Y-77185761D01*
X66904809Y-77137380D01*
X66904809Y-77089000D01*
X66880619Y-77040619D01*
X66856428Y-77016428D01*
X66808047Y-76992238D01*
X66711285Y-76968047D01*
X66590333Y-76968047D01*
X66493571Y-76992238D01*
X66445190Y-77016428D01*
X66421000Y-77040619D01*
X66396809Y-77089000D01*
X66904809Y-77476047D02*
X66396809Y-77476047D01*
X66711285Y-77524428D02*
X66904809Y-77669571D01*
X66566142Y-77669571D02*
X66759666Y-77476047D01*
%TO.C,R6*%
X84539666Y-108306809D02*
X84709000Y-108064904D01*
X84829952Y-108306809D02*
X84829952Y-107798809D01*
X84636428Y-107798809D01*
X84588047Y-107823000D01*
X84563857Y-107847190D01*
X84539666Y-107895571D01*
X84539666Y-107968142D01*
X84563857Y-108016523D01*
X84588047Y-108040714D01*
X84636428Y-108064904D01*
X84829952Y-108064904D01*
X84104238Y-107798809D02*
X84201000Y-107798809D01*
X84249380Y-107823000D01*
X84273571Y-107847190D01*
X84321952Y-107919761D01*
X84346142Y-108016523D01*
X84346142Y-108210047D01*
X84321952Y-108258428D01*
X84297761Y-108282619D01*
X84249380Y-108306809D01*
X84152619Y-108306809D01*
X84104238Y-108282619D01*
X84080047Y-108258428D01*
X84055857Y-108210047D01*
X84055857Y-108089095D01*
X84080047Y-108040714D01*
X84104238Y-108016523D01*
X84152619Y-107992333D01*
X84249380Y-107992333D01*
X84297761Y-108016523D01*
X84321952Y-108040714D01*
X84346142Y-108089095D01*
X85108142Y-105131809D02*
X84793666Y-105131809D01*
X84963000Y-105325333D01*
X84890428Y-105325333D01*
X84842047Y-105349523D01*
X84817857Y-105373714D01*
X84793666Y-105422095D01*
X84793666Y-105543047D01*
X84817857Y-105591428D01*
X84842047Y-105615619D01*
X84890428Y-105639809D01*
X85035571Y-105639809D01*
X85083952Y-105615619D01*
X85108142Y-105591428D01*
X84551761Y-105639809D02*
X84455000Y-105639809D01*
X84406619Y-105615619D01*
X84382428Y-105591428D01*
X84334047Y-105518857D01*
X84309857Y-105422095D01*
X84309857Y-105228571D01*
X84334047Y-105180190D01*
X84358238Y-105156000D01*
X84406619Y-105131809D01*
X84503380Y-105131809D01*
X84551761Y-105156000D01*
X84575952Y-105180190D01*
X84600142Y-105228571D01*
X84600142Y-105349523D01*
X84575952Y-105397904D01*
X84551761Y-105422095D01*
X84503380Y-105446285D01*
X84406619Y-105446285D01*
X84358238Y-105422095D01*
X84334047Y-105397904D01*
X84309857Y-105349523D01*
X83995380Y-105131809D02*
X83947000Y-105131809D01*
X83898619Y-105156000D01*
X83874428Y-105180190D01*
X83850238Y-105228571D01*
X83826047Y-105325333D01*
X83826047Y-105446285D01*
X83850238Y-105543047D01*
X83874428Y-105591428D01*
X83898619Y-105615619D01*
X83947000Y-105639809D01*
X83995380Y-105639809D01*
X84043761Y-105615619D01*
X84067952Y-105591428D01*
X84092142Y-105543047D01*
X84116333Y-105446285D01*
X84116333Y-105325333D01*
X84092142Y-105228571D01*
X84067952Y-105180190D01*
X84043761Y-105156000D01*
X83995380Y-105131809D01*
%TO.C,R7*%
X69571809Y-67225333D02*
X69329904Y-67056000D01*
X69571809Y-66935047D02*
X69063809Y-66935047D01*
X69063809Y-67128571D01*
X69088000Y-67176952D01*
X69112190Y-67201142D01*
X69160571Y-67225333D01*
X69233142Y-67225333D01*
X69281523Y-67201142D01*
X69305714Y-67176952D01*
X69329904Y-67128571D01*
X69329904Y-66935047D01*
X69063809Y-67394666D02*
X69063809Y-67733333D01*
X69571809Y-67515619D01*
X66904809Y-66765714D02*
X66904809Y-66475428D01*
X66904809Y-66620571D02*
X66396809Y-66620571D01*
X66469380Y-66572190D01*
X66517761Y-66523809D01*
X66541952Y-66475428D01*
X66396809Y-67225333D02*
X66396809Y-66983428D01*
X66638714Y-66959238D01*
X66614523Y-66983428D01*
X66590333Y-67031809D01*
X66590333Y-67152761D01*
X66614523Y-67201142D01*
X66638714Y-67225333D01*
X66687095Y-67249523D01*
X66808047Y-67249523D01*
X66856428Y-67225333D01*
X66880619Y-67201142D01*
X66904809Y-67152761D01*
X66904809Y-67031809D01*
X66880619Y-66983428D01*
X66856428Y-66959238D01*
X66396809Y-67564000D02*
X66396809Y-67612380D01*
X66421000Y-67660761D01*
X66445190Y-67684952D01*
X66493571Y-67709142D01*
X66590333Y-67733333D01*
X66711285Y-67733333D01*
X66808047Y-67709142D01*
X66856428Y-67684952D01*
X66880619Y-67660761D01*
X66904809Y-67612380D01*
X66904809Y-67564000D01*
X66880619Y-67515619D01*
X66856428Y-67491428D01*
X66808047Y-67467238D01*
X66711285Y-67443047D01*
X66590333Y-67443047D01*
X66493571Y-67467238D01*
X66445190Y-67491428D01*
X66421000Y-67515619D01*
X66396809Y-67564000D01*
X66904809Y-67951047D02*
X66396809Y-67951047D01*
X66711285Y-67999428D02*
X66904809Y-68144571D01*
X66566142Y-68144571D02*
X66759666Y-67951047D01*
%TO.C,R9*%
X69571809Y-72940333D02*
X69329904Y-72771000D01*
X69571809Y-72650047D02*
X69063809Y-72650047D01*
X69063809Y-72843571D01*
X69088000Y-72891952D01*
X69112190Y-72916142D01*
X69160571Y-72940333D01*
X69233142Y-72940333D01*
X69281523Y-72916142D01*
X69305714Y-72891952D01*
X69329904Y-72843571D01*
X69329904Y-72650047D01*
X69571809Y-73182238D02*
X69571809Y-73279000D01*
X69547619Y-73327380D01*
X69523428Y-73351571D01*
X69450857Y-73399952D01*
X69354095Y-73424142D01*
X69160571Y-73424142D01*
X69112190Y-73399952D01*
X69088000Y-73375761D01*
X69063809Y-73327380D01*
X69063809Y-73230619D01*
X69088000Y-73182238D01*
X69112190Y-73158047D01*
X69160571Y-73133857D01*
X69281523Y-73133857D01*
X69329904Y-73158047D01*
X69354095Y-73182238D01*
X69378285Y-73230619D01*
X69378285Y-73327380D01*
X69354095Y-73375761D01*
X69329904Y-73399952D01*
X69281523Y-73424142D01*
X66445190Y-72190428D02*
X66421000Y-72214619D01*
X66396809Y-72263000D01*
X66396809Y-72383952D01*
X66421000Y-72432333D01*
X66445190Y-72456523D01*
X66493571Y-72480714D01*
X66541952Y-72480714D01*
X66614523Y-72456523D01*
X66904809Y-72166238D01*
X66904809Y-72480714D01*
X66396809Y-72795190D02*
X66396809Y-72843571D01*
X66421000Y-72891952D01*
X66445190Y-72916142D01*
X66493571Y-72940333D01*
X66590333Y-72964523D01*
X66711285Y-72964523D01*
X66808047Y-72940333D01*
X66856428Y-72916142D01*
X66880619Y-72891952D01*
X66904809Y-72843571D01*
X66904809Y-72795190D01*
X66880619Y-72746809D01*
X66856428Y-72722619D01*
X66808047Y-72698428D01*
X66711285Y-72674238D01*
X66590333Y-72674238D01*
X66493571Y-72698428D01*
X66445190Y-72722619D01*
X66421000Y-72746809D01*
X66396809Y-72795190D01*
X66396809Y-73424142D02*
X66396809Y-73182238D01*
X66638714Y-73158047D01*
X66614523Y-73182238D01*
X66590333Y-73230619D01*
X66590333Y-73351571D01*
X66614523Y-73399952D01*
X66638714Y-73424142D01*
X66687095Y-73448333D01*
X66808047Y-73448333D01*
X66856428Y-73424142D01*
X66880619Y-73399952D01*
X66904809Y-73351571D01*
X66904809Y-73230619D01*
X66880619Y-73182238D01*
X66856428Y-73158047D01*
X66904809Y-73666047D02*
X66396809Y-73666047D01*
X66711285Y-73714428D02*
X66904809Y-73859571D01*
X66566142Y-73859571D02*
X66759666Y-73666047D01*
%TO.C,R10*%
X84781571Y-103226809D02*
X84950904Y-102984904D01*
X85071857Y-103226809D02*
X85071857Y-102718809D01*
X84878333Y-102718809D01*
X84829952Y-102743000D01*
X84805761Y-102767190D01*
X84781571Y-102815571D01*
X84781571Y-102888142D01*
X84805761Y-102936523D01*
X84829952Y-102960714D01*
X84878333Y-102984904D01*
X85071857Y-102984904D01*
X84297761Y-103226809D02*
X84588047Y-103226809D01*
X84442904Y-103226809D02*
X84442904Y-102718809D01*
X84491285Y-102791380D01*
X84539666Y-102839761D01*
X84588047Y-102863952D01*
X83983285Y-102718809D02*
X83934904Y-102718809D01*
X83886523Y-102743000D01*
X83862333Y-102767190D01*
X83838142Y-102815571D01*
X83813952Y-102912333D01*
X83813952Y-103033285D01*
X83838142Y-103130047D01*
X83862333Y-103178428D01*
X83886523Y-103202619D01*
X83934904Y-103226809D01*
X83983285Y-103226809D01*
X84031666Y-103202619D01*
X84055857Y-103178428D01*
X84080047Y-103130047D01*
X84104238Y-103033285D01*
X84104238Y-102912333D01*
X84080047Y-102815571D01*
X84055857Y-102767190D01*
X84031666Y-102743000D01*
X83983285Y-102718809D01*
X85108142Y-100051809D02*
X84793666Y-100051809D01*
X84963000Y-100245333D01*
X84890428Y-100245333D01*
X84842047Y-100269523D01*
X84817857Y-100293714D01*
X84793666Y-100342095D01*
X84793666Y-100463047D01*
X84817857Y-100511428D01*
X84842047Y-100535619D01*
X84890428Y-100559809D01*
X85035571Y-100559809D01*
X85083952Y-100535619D01*
X85108142Y-100511428D01*
X84551761Y-100559809D02*
X84455000Y-100559809D01*
X84406619Y-100535619D01*
X84382428Y-100511428D01*
X84334047Y-100438857D01*
X84309857Y-100342095D01*
X84309857Y-100148571D01*
X84334047Y-100100190D01*
X84358238Y-100076000D01*
X84406619Y-100051809D01*
X84503380Y-100051809D01*
X84551761Y-100076000D01*
X84575952Y-100100190D01*
X84600142Y-100148571D01*
X84600142Y-100269523D01*
X84575952Y-100317904D01*
X84551761Y-100342095D01*
X84503380Y-100366285D01*
X84406619Y-100366285D01*
X84358238Y-100342095D01*
X84334047Y-100317904D01*
X84309857Y-100269523D01*
X83995380Y-100051809D02*
X83947000Y-100051809D01*
X83898619Y-100076000D01*
X83874428Y-100100190D01*
X83850238Y-100148571D01*
X83826047Y-100245333D01*
X83826047Y-100366285D01*
X83850238Y-100463047D01*
X83874428Y-100511428D01*
X83898619Y-100535619D01*
X83947000Y-100559809D01*
X83995380Y-100559809D01*
X84043761Y-100535619D01*
X84067952Y-100511428D01*
X84092142Y-100463047D01*
X84116333Y-100366285D01*
X84116333Y-100245333D01*
X84092142Y-100148571D01*
X84067952Y-100100190D01*
X84043761Y-100076000D01*
X83995380Y-100051809D01*
%TO.C,R12*%
X69571809Y-61268428D02*
X69329904Y-61099095D01*
X69571809Y-60978142D02*
X69063809Y-60978142D01*
X69063809Y-61171666D01*
X69088000Y-61220047D01*
X69112190Y-61244238D01*
X69160571Y-61268428D01*
X69233142Y-61268428D01*
X69281523Y-61244238D01*
X69305714Y-61220047D01*
X69329904Y-61171666D01*
X69329904Y-60978142D01*
X69571809Y-61752238D02*
X69571809Y-61461952D01*
X69571809Y-61607095D02*
X69063809Y-61607095D01*
X69136380Y-61558714D01*
X69184761Y-61510333D01*
X69208952Y-61461952D01*
X69112190Y-61945761D02*
X69088000Y-61969952D01*
X69063809Y-62018333D01*
X69063809Y-62139285D01*
X69088000Y-62187666D01*
X69112190Y-62211857D01*
X69160571Y-62236047D01*
X69208952Y-62236047D01*
X69281523Y-62211857D01*
X69571809Y-61921571D01*
X69571809Y-62236047D01*
X66904809Y-61050714D02*
X66904809Y-60760428D01*
X66904809Y-60905571D02*
X66396809Y-60905571D01*
X66469380Y-60857190D01*
X66517761Y-60808809D01*
X66541952Y-60760428D01*
X66396809Y-61510333D02*
X66396809Y-61268428D01*
X66638714Y-61244238D01*
X66614523Y-61268428D01*
X66590333Y-61316809D01*
X66590333Y-61437761D01*
X66614523Y-61486142D01*
X66638714Y-61510333D01*
X66687095Y-61534523D01*
X66808047Y-61534523D01*
X66856428Y-61510333D01*
X66880619Y-61486142D01*
X66904809Y-61437761D01*
X66904809Y-61316809D01*
X66880619Y-61268428D01*
X66856428Y-61244238D01*
X66396809Y-61849000D02*
X66396809Y-61897380D01*
X66421000Y-61945761D01*
X66445190Y-61969952D01*
X66493571Y-61994142D01*
X66590333Y-62018333D01*
X66711285Y-62018333D01*
X66808047Y-61994142D01*
X66856428Y-61969952D01*
X66880619Y-61945761D01*
X66904809Y-61897380D01*
X66904809Y-61849000D01*
X66880619Y-61800619D01*
X66856428Y-61776428D01*
X66808047Y-61752238D01*
X66711285Y-61728047D01*
X66590333Y-61728047D01*
X66493571Y-61752238D01*
X66445190Y-61776428D01*
X66421000Y-61800619D01*
X66396809Y-61849000D01*
X66904809Y-62236047D02*
X66396809Y-62236047D01*
X66711285Y-62284428D02*
X66904809Y-62429571D01*
X66566142Y-62429571D02*
X66759666Y-62236047D01*
%TO.C,R13*%
X69571809Y-65078428D02*
X69329904Y-64909095D01*
X69571809Y-64788142D02*
X69063809Y-64788142D01*
X69063809Y-64981666D01*
X69088000Y-65030047D01*
X69112190Y-65054238D01*
X69160571Y-65078428D01*
X69233142Y-65078428D01*
X69281523Y-65054238D01*
X69305714Y-65030047D01*
X69329904Y-64981666D01*
X69329904Y-64788142D01*
X69571809Y-65562238D02*
X69571809Y-65271952D01*
X69571809Y-65417095D02*
X69063809Y-65417095D01*
X69136380Y-65368714D01*
X69184761Y-65320333D01*
X69208952Y-65271952D01*
X69063809Y-65731571D02*
X69063809Y-66046047D01*
X69257333Y-65876714D01*
X69257333Y-65949285D01*
X69281523Y-65997666D01*
X69305714Y-66021857D01*
X69354095Y-66046047D01*
X69475047Y-66046047D01*
X69523428Y-66021857D01*
X69547619Y-65997666D01*
X69571809Y-65949285D01*
X69571809Y-65804142D01*
X69547619Y-65755761D01*
X69523428Y-65731571D01*
X66445190Y-64570428D02*
X66421000Y-64594619D01*
X66396809Y-64643000D01*
X66396809Y-64763952D01*
X66421000Y-64812333D01*
X66445190Y-64836523D01*
X66493571Y-64860714D01*
X66541952Y-64860714D01*
X66614523Y-64836523D01*
X66904809Y-64546238D01*
X66904809Y-64860714D01*
X66396809Y-65175190D02*
X66396809Y-65223571D01*
X66421000Y-65271952D01*
X66445190Y-65296142D01*
X66493571Y-65320333D01*
X66590333Y-65344523D01*
X66711285Y-65344523D01*
X66808047Y-65320333D01*
X66856428Y-65296142D01*
X66880619Y-65271952D01*
X66904809Y-65223571D01*
X66904809Y-65175190D01*
X66880619Y-65126809D01*
X66856428Y-65102619D01*
X66808047Y-65078428D01*
X66711285Y-65054238D01*
X66590333Y-65054238D01*
X66493571Y-65078428D01*
X66445190Y-65102619D01*
X66421000Y-65126809D01*
X66396809Y-65175190D01*
X66396809Y-65804142D02*
X66396809Y-65562238D01*
X66638714Y-65538047D01*
X66614523Y-65562238D01*
X66590333Y-65610619D01*
X66590333Y-65731571D01*
X66614523Y-65779952D01*
X66638714Y-65804142D01*
X66687095Y-65828333D01*
X66808047Y-65828333D01*
X66856428Y-65804142D01*
X66880619Y-65779952D01*
X66904809Y-65731571D01*
X66904809Y-65610619D01*
X66880619Y-65562238D01*
X66856428Y-65538047D01*
X66904809Y-66046047D02*
X66396809Y-66046047D01*
X66711285Y-66094428D02*
X66904809Y-66239571D01*
X66566142Y-66239571D02*
X66759666Y-66046047D01*
%TO.C,R15*%
X97511809Y-74603428D02*
X97269904Y-74434095D01*
X97511809Y-74313142D02*
X97003809Y-74313142D01*
X97003809Y-74506666D01*
X97028000Y-74555047D01*
X97052190Y-74579238D01*
X97100571Y-74603428D01*
X97173142Y-74603428D01*
X97221523Y-74579238D01*
X97245714Y-74555047D01*
X97269904Y-74506666D01*
X97269904Y-74313142D01*
X97511809Y-75087238D02*
X97511809Y-74796952D01*
X97511809Y-74942095D02*
X97003809Y-74942095D01*
X97076380Y-74893714D01*
X97124761Y-74845333D01*
X97148952Y-74796952D01*
X97003809Y-75546857D02*
X97003809Y-75304952D01*
X97245714Y-75280761D01*
X97221523Y-75304952D01*
X97197333Y-75353333D01*
X97197333Y-75474285D01*
X97221523Y-75522666D01*
X97245714Y-75546857D01*
X97294095Y-75571047D01*
X97415047Y-75571047D01*
X97463428Y-75546857D01*
X97487619Y-75522666D01*
X97511809Y-75474285D01*
X97511809Y-75353333D01*
X97487619Y-75304952D01*
X97463428Y-75280761D01*
X94844809Y-74385714D02*
X94844809Y-74095428D01*
X94844809Y-74240571D02*
X94336809Y-74240571D01*
X94409380Y-74192190D01*
X94457761Y-74143809D01*
X94481952Y-74095428D01*
X94336809Y-74845333D02*
X94336809Y-74603428D01*
X94578714Y-74579238D01*
X94554523Y-74603428D01*
X94530333Y-74651809D01*
X94530333Y-74772761D01*
X94554523Y-74821142D01*
X94578714Y-74845333D01*
X94627095Y-74869523D01*
X94748047Y-74869523D01*
X94796428Y-74845333D01*
X94820619Y-74821142D01*
X94844809Y-74772761D01*
X94844809Y-74651809D01*
X94820619Y-74603428D01*
X94796428Y-74579238D01*
X94336809Y-75184000D02*
X94336809Y-75232380D01*
X94361000Y-75280761D01*
X94385190Y-75304952D01*
X94433571Y-75329142D01*
X94530333Y-75353333D01*
X94651285Y-75353333D01*
X94748047Y-75329142D01*
X94796428Y-75304952D01*
X94820619Y-75280761D01*
X94844809Y-75232380D01*
X94844809Y-75184000D01*
X94820619Y-75135619D01*
X94796428Y-75111428D01*
X94748047Y-75087238D01*
X94651285Y-75063047D01*
X94530333Y-75063047D01*
X94433571Y-75087238D01*
X94385190Y-75111428D01*
X94361000Y-75135619D01*
X94336809Y-75184000D01*
X94844809Y-75571047D02*
X94336809Y-75571047D01*
X94651285Y-75619428D02*
X94844809Y-75764571D01*
X94506142Y-75764571D02*
X94699666Y-75571047D01*
%TO.C,R16*%
X97511809Y-76508428D02*
X97269904Y-76339095D01*
X97511809Y-76218142D02*
X97003809Y-76218142D01*
X97003809Y-76411666D01*
X97028000Y-76460047D01*
X97052190Y-76484238D01*
X97100571Y-76508428D01*
X97173142Y-76508428D01*
X97221523Y-76484238D01*
X97245714Y-76460047D01*
X97269904Y-76411666D01*
X97269904Y-76218142D01*
X97511809Y-76992238D02*
X97511809Y-76701952D01*
X97511809Y-76847095D02*
X97003809Y-76847095D01*
X97076380Y-76798714D01*
X97124761Y-76750333D01*
X97148952Y-76701952D01*
X97003809Y-77427666D02*
X97003809Y-77330904D01*
X97028000Y-77282523D01*
X97052190Y-77258333D01*
X97124761Y-77209952D01*
X97221523Y-77185761D01*
X97415047Y-77185761D01*
X97463428Y-77209952D01*
X97487619Y-77234142D01*
X97511809Y-77282523D01*
X97511809Y-77379285D01*
X97487619Y-77427666D01*
X97463428Y-77451857D01*
X97415047Y-77476047D01*
X97294095Y-77476047D01*
X97245714Y-77451857D01*
X97221523Y-77427666D01*
X97197333Y-77379285D01*
X97197333Y-77282523D01*
X97221523Y-77234142D01*
X97245714Y-77209952D01*
X97294095Y-77185761D01*
X94844809Y-76290714D02*
X94844809Y-76000428D01*
X94844809Y-76145571D02*
X94336809Y-76145571D01*
X94409380Y-76097190D01*
X94457761Y-76048809D01*
X94481952Y-76000428D01*
X94336809Y-76750333D02*
X94336809Y-76508428D01*
X94578714Y-76484238D01*
X94554523Y-76508428D01*
X94530333Y-76556809D01*
X94530333Y-76677761D01*
X94554523Y-76726142D01*
X94578714Y-76750333D01*
X94627095Y-76774523D01*
X94748047Y-76774523D01*
X94796428Y-76750333D01*
X94820619Y-76726142D01*
X94844809Y-76677761D01*
X94844809Y-76556809D01*
X94820619Y-76508428D01*
X94796428Y-76484238D01*
X94336809Y-77089000D02*
X94336809Y-77137380D01*
X94361000Y-77185761D01*
X94385190Y-77209952D01*
X94433571Y-77234142D01*
X94530333Y-77258333D01*
X94651285Y-77258333D01*
X94748047Y-77234142D01*
X94796428Y-77209952D01*
X94820619Y-77185761D01*
X94844809Y-77137380D01*
X94844809Y-77089000D01*
X94820619Y-77040619D01*
X94796428Y-77016428D01*
X94748047Y-76992238D01*
X94651285Y-76968047D01*
X94530333Y-76968047D01*
X94433571Y-76992238D01*
X94385190Y-77016428D01*
X94361000Y-77040619D01*
X94336809Y-77089000D01*
X94844809Y-77476047D02*
X94336809Y-77476047D01*
X94651285Y-77524428D02*
X94844809Y-77669571D01*
X94506142Y-77669571D02*
X94699666Y-77476047D01*
%TO.C,R18*%
X89861571Y-108306809D02*
X90030904Y-108064904D01*
X90151857Y-108306809D02*
X90151857Y-107798809D01*
X89958333Y-107798809D01*
X89909952Y-107823000D01*
X89885761Y-107847190D01*
X89861571Y-107895571D01*
X89861571Y-107968142D01*
X89885761Y-108016523D01*
X89909952Y-108040714D01*
X89958333Y-108064904D01*
X90151857Y-108064904D01*
X89377761Y-108306809D02*
X89668047Y-108306809D01*
X89522904Y-108306809D02*
X89522904Y-107798809D01*
X89571285Y-107871380D01*
X89619666Y-107919761D01*
X89668047Y-107943952D01*
X89087476Y-108016523D02*
X89135857Y-107992333D01*
X89160047Y-107968142D01*
X89184238Y-107919761D01*
X89184238Y-107895571D01*
X89160047Y-107847190D01*
X89135857Y-107823000D01*
X89087476Y-107798809D01*
X88990714Y-107798809D01*
X88942333Y-107823000D01*
X88918142Y-107847190D01*
X88893952Y-107895571D01*
X88893952Y-107919761D01*
X88918142Y-107968142D01*
X88942333Y-107992333D01*
X88990714Y-108016523D01*
X89087476Y-108016523D01*
X89135857Y-108040714D01*
X89160047Y-108064904D01*
X89184238Y-108113285D01*
X89184238Y-108210047D01*
X89160047Y-108258428D01*
X89135857Y-108282619D01*
X89087476Y-108306809D01*
X88990714Y-108306809D01*
X88942333Y-108282619D01*
X88918142Y-108258428D01*
X88893952Y-108210047D01*
X88893952Y-108113285D01*
X88918142Y-108064904D01*
X88942333Y-108040714D01*
X88990714Y-108016523D01*
X90188142Y-105131809D02*
X89873666Y-105131809D01*
X90043000Y-105325333D01*
X89970428Y-105325333D01*
X89922047Y-105349523D01*
X89897857Y-105373714D01*
X89873666Y-105422095D01*
X89873666Y-105543047D01*
X89897857Y-105591428D01*
X89922047Y-105615619D01*
X89970428Y-105639809D01*
X90115571Y-105639809D01*
X90163952Y-105615619D01*
X90188142Y-105591428D01*
X89631761Y-105639809D02*
X89535000Y-105639809D01*
X89486619Y-105615619D01*
X89462428Y-105591428D01*
X89414047Y-105518857D01*
X89389857Y-105422095D01*
X89389857Y-105228571D01*
X89414047Y-105180190D01*
X89438238Y-105156000D01*
X89486619Y-105131809D01*
X89583380Y-105131809D01*
X89631761Y-105156000D01*
X89655952Y-105180190D01*
X89680142Y-105228571D01*
X89680142Y-105349523D01*
X89655952Y-105397904D01*
X89631761Y-105422095D01*
X89583380Y-105446285D01*
X89486619Y-105446285D01*
X89438238Y-105422095D01*
X89414047Y-105397904D01*
X89389857Y-105349523D01*
X89075380Y-105131809D02*
X89027000Y-105131809D01*
X88978619Y-105156000D01*
X88954428Y-105180190D01*
X88930238Y-105228571D01*
X88906047Y-105325333D01*
X88906047Y-105446285D01*
X88930238Y-105543047D01*
X88954428Y-105591428D01*
X88978619Y-105615619D01*
X89027000Y-105639809D01*
X89075380Y-105639809D01*
X89123761Y-105615619D01*
X89147952Y-105591428D01*
X89172142Y-105543047D01*
X89196333Y-105446285D01*
X89196333Y-105325333D01*
X89172142Y-105228571D01*
X89147952Y-105180190D01*
X89123761Y-105156000D01*
X89075380Y-105131809D01*
%TO.C,R19*%
X97511809Y-66983428D02*
X97269904Y-66814095D01*
X97511809Y-66693142D02*
X97003809Y-66693142D01*
X97003809Y-66886666D01*
X97028000Y-66935047D01*
X97052190Y-66959238D01*
X97100571Y-66983428D01*
X97173142Y-66983428D01*
X97221523Y-66959238D01*
X97245714Y-66935047D01*
X97269904Y-66886666D01*
X97269904Y-66693142D01*
X97511809Y-67467238D02*
X97511809Y-67176952D01*
X97511809Y-67322095D02*
X97003809Y-67322095D01*
X97076380Y-67273714D01*
X97124761Y-67225333D01*
X97148952Y-67176952D01*
X97511809Y-67709142D02*
X97511809Y-67805904D01*
X97487619Y-67854285D01*
X97463428Y-67878476D01*
X97390857Y-67926857D01*
X97294095Y-67951047D01*
X97100571Y-67951047D01*
X97052190Y-67926857D01*
X97028000Y-67902666D01*
X97003809Y-67854285D01*
X97003809Y-67757523D01*
X97028000Y-67709142D01*
X97052190Y-67684952D01*
X97100571Y-67660761D01*
X97221523Y-67660761D01*
X97269904Y-67684952D01*
X97294095Y-67709142D01*
X97318285Y-67757523D01*
X97318285Y-67854285D01*
X97294095Y-67902666D01*
X97269904Y-67926857D01*
X97221523Y-67951047D01*
X94844809Y-66765714D02*
X94844809Y-66475428D01*
X94844809Y-66620571D02*
X94336809Y-66620571D01*
X94409380Y-66572190D01*
X94457761Y-66523809D01*
X94481952Y-66475428D01*
X94336809Y-67225333D02*
X94336809Y-66983428D01*
X94578714Y-66959238D01*
X94554523Y-66983428D01*
X94530333Y-67031809D01*
X94530333Y-67152761D01*
X94554523Y-67201142D01*
X94578714Y-67225333D01*
X94627095Y-67249523D01*
X94748047Y-67249523D01*
X94796428Y-67225333D01*
X94820619Y-67201142D01*
X94844809Y-67152761D01*
X94844809Y-67031809D01*
X94820619Y-66983428D01*
X94796428Y-66959238D01*
X94336809Y-67564000D02*
X94336809Y-67612380D01*
X94361000Y-67660761D01*
X94385190Y-67684952D01*
X94433571Y-67709142D01*
X94530333Y-67733333D01*
X94651285Y-67733333D01*
X94748047Y-67709142D01*
X94796428Y-67684952D01*
X94820619Y-67660761D01*
X94844809Y-67612380D01*
X94844809Y-67564000D01*
X94820619Y-67515619D01*
X94796428Y-67491428D01*
X94748047Y-67467238D01*
X94651285Y-67443047D01*
X94530333Y-67443047D01*
X94433571Y-67467238D01*
X94385190Y-67491428D01*
X94361000Y-67515619D01*
X94336809Y-67564000D01*
X94844809Y-67951047D02*
X94336809Y-67951047D01*
X94651285Y-67999428D02*
X94844809Y-68144571D01*
X94506142Y-68144571D02*
X94699666Y-67951047D01*
%TO.C,R21*%
X97511809Y-72698428D02*
X97269904Y-72529095D01*
X97511809Y-72408142D02*
X97003809Y-72408142D01*
X97003809Y-72601666D01*
X97028000Y-72650047D01*
X97052190Y-72674238D01*
X97100571Y-72698428D01*
X97173142Y-72698428D01*
X97221523Y-72674238D01*
X97245714Y-72650047D01*
X97269904Y-72601666D01*
X97269904Y-72408142D01*
X97052190Y-72891952D02*
X97028000Y-72916142D01*
X97003809Y-72964523D01*
X97003809Y-73085476D01*
X97028000Y-73133857D01*
X97052190Y-73158047D01*
X97100571Y-73182238D01*
X97148952Y-73182238D01*
X97221523Y-73158047D01*
X97511809Y-72867761D01*
X97511809Y-73182238D01*
X97511809Y-73666047D02*
X97511809Y-73375761D01*
X97511809Y-73520904D02*
X97003809Y-73520904D01*
X97076380Y-73472523D01*
X97124761Y-73424142D01*
X97148952Y-73375761D01*
X94385190Y-72190428D02*
X94361000Y-72214619D01*
X94336809Y-72263000D01*
X94336809Y-72383952D01*
X94361000Y-72432333D01*
X94385190Y-72456523D01*
X94433571Y-72480714D01*
X94481952Y-72480714D01*
X94554523Y-72456523D01*
X94844809Y-72166238D01*
X94844809Y-72480714D01*
X94336809Y-72795190D02*
X94336809Y-72843571D01*
X94361000Y-72891952D01*
X94385190Y-72916142D01*
X94433571Y-72940333D01*
X94530333Y-72964523D01*
X94651285Y-72964523D01*
X94748047Y-72940333D01*
X94796428Y-72916142D01*
X94820619Y-72891952D01*
X94844809Y-72843571D01*
X94844809Y-72795190D01*
X94820619Y-72746809D01*
X94796428Y-72722619D01*
X94748047Y-72698428D01*
X94651285Y-72674238D01*
X94530333Y-72674238D01*
X94433571Y-72698428D01*
X94385190Y-72722619D01*
X94361000Y-72746809D01*
X94336809Y-72795190D01*
X94336809Y-73424142D02*
X94336809Y-73182238D01*
X94578714Y-73158047D01*
X94554523Y-73182238D01*
X94530333Y-73230619D01*
X94530333Y-73351571D01*
X94554523Y-73399952D01*
X94578714Y-73424142D01*
X94627095Y-73448333D01*
X94748047Y-73448333D01*
X94796428Y-73424142D01*
X94820619Y-73399952D01*
X94844809Y-73351571D01*
X94844809Y-73230619D01*
X94820619Y-73182238D01*
X94796428Y-73158047D01*
X94844809Y-73666047D02*
X94336809Y-73666047D01*
X94651285Y-73714428D02*
X94844809Y-73859571D01*
X94506142Y-73859571D02*
X94699666Y-73666047D01*
%TO.C,R22*%
X89861571Y-103226809D02*
X90030904Y-102984904D01*
X90151857Y-103226809D02*
X90151857Y-102718809D01*
X89958333Y-102718809D01*
X89909952Y-102743000D01*
X89885761Y-102767190D01*
X89861571Y-102815571D01*
X89861571Y-102888142D01*
X89885761Y-102936523D01*
X89909952Y-102960714D01*
X89958333Y-102984904D01*
X90151857Y-102984904D01*
X89668047Y-102767190D02*
X89643857Y-102743000D01*
X89595476Y-102718809D01*
X89474523Y-102718809D01*
X89426142Y-102743000D01*
X89401952Y-102767190D01*
X89377761Y-102815571D01*
X89377761Y-102863952D01*
X89401952Y-102936523D01*
X89692238Y-103226809D01*
X89377761Y-103226809D01*
X89184238Y-102767190D02*
X89160047Y-102743000D01*
X89111666Y-102718809D01*
X88990714Y-102718809D01*
X88942333Y-102743000D01*
X88918142Y-102767190D01*
X88893952Y-102815571D01*
X88893952Y-102863952D01*
X88918142Y-102936523D01*
X89208428Y-103226809D01*
X88893952Y-103226809D01*
X90188142Y-100051809D02*
X89873666Y-100051809D01*
X90043000Y-100245333D01*
X89970428Y-100245333D01*
X89922047Y-100269523D01*
X89897857Y-100293714D01*
X89873666Y-100342095D01*
X89873666Y-100463047D01*
X89897857Y-100511428D01*
X89922047Y-100535619D01*
X89970428Y-100559809D01*
X90115571Y-100559809D01*
X90163952Y-100535619D01*
X90188142Y-100511428D01*
X89631761Y-100559809D02*
X89535000Y-100559809D01*
X89486619Y-100535619D01*
X89462428Y-100511428D01*
X89414047Y-100438857D01*
X89389857Y-100342095D01*
X89389857Y-100148571D01*
X89414047Y-100100190D01*
X89438238Y-100076000D01*
X89486619Y-100051809D01*
X89583380Y-100051809D01*
X89631761Y-100076000D01*
X89655952Y-100100190D01*
X89680142Y-100148571D01*
X89680142Y-100269523D01*
X89655952Y-100317904D01*
X89631761Y-100342095D01*
X89583380Y-100366285D01*
X89486619Y-100366285D01*
X89438238Y-100342095D01*
X89414047Y-100317904D01*
X89389857Y-100269523D01*
X89075380Y-100051809D02*
X89027000Y-100051809D01*
X88978619Y-100076000D01*
X88954428Y-100100190D01*
X88930238Y-100148571D01*
X88906047Y-100245333D01*
X88906047Y-100366285D01*
X88930238Y-100463047D01*
X88954428Y-100511428D01*
X88978619Y-100535619D01*
X89027000Y-100559809D01*
X89075380Y-100559809D01*
X89123761Y-100535619D01*
X89147952Y-100511428D01*
X89172142Y-100463047D01*
X89196333Y-100366285D01*
X89196333Y-100245333D01*
X89172142Y-100148571D01*
X89147952Y-100100190D01*
X89123761Y-100076000D01*
X89075380Y-100051809D01*
%TO.C,R24*%
X97511809Y-61268428D02*
X97269904Y-61099095D01*
X97511809Y-60978142D02*
X97003809Y-60978142D01*
X97003809Y-61171666D01*
X97028000Y-61220047D01*
X97052190Y-61244238D01*
X97100571Y-61268428D01*
X97173142Y-61268428D01*
X97221523Y-61244238D01*
X97245714Y-61220047D01*
X97269904Y-61171666D01*
X97269904Y-60978142D01*
X97052190Y-61461952D02*
X97028000Y-61486142D01*
X97003809Y-61534523D01*
X97003809Y-61655476D01*
X97028000Y-61703857D01*
X97052190Y-61728047D01*
X97100571Y-61752238D01*
X97148952Y-61752238D01*
X97221523Y-61728047D01*
X97511809Y-61437761D01*
X97511809Y-61752238D01*
X97173142Y-62187666D02*
X97511809Y-62187666D01*
X96979619Y-62066714D02*
X97342476Y-61945761D01*
X97342476Y-62260238D01*
X94844809Y-61050714D02*
X94844809Y-60760428D01*
X94844809Y-60905571D02*
X94336809Y-60905571D01*
X94409380Y-60857190D01*
X94457761Y-60808809D01*
X94481952Y-60760428D01*
X94336809Y-61510333D02*
X94336809Y-61268428D01*
X94578714Y-61244238D01*
X94554523Y-61268428D01*
X94530333Y-61316809D01*
X94530333Y-61437761D01*
X94554523Y-61486142D01*
X94578714Y-61510333D01*
X94627095Y-61534523D01*
X94748047Y-61534523D01*
X94796428Y-61510333D01*
X94820619Y-61486142D01*
X94844809Y-61437761D01*
X94844809Y-61316809D01*
X94820619Y-61268428D01*
X94796428Y-61244238D01*
X94336809Y-61849000D02*
X94336809Y-61897380D01*
X94361000Y-61945761D01*
X94385190Y-61969952D01*
X94433571Y-61994142D01*
X94530333Y-62018333D01*
X94651285Y-62018333D01*
X94748047Y-61994142D01*
X94796428Y-61969952D01*
X94820619Y-61945761D01*
X94844809Y-61897380D01*
X94844809Y-61849000D01*
X94820619Y-61800619D01*
X94796428Y-61776428D01*
X94748047Y-61752238D01*
X94651285Y-61728047D01*
X94530333Y-61728047D01*
X94433571Y-61752238D01*
X94385190Y-61776428D01*
X94361000Y-61800619D01*
X94336809Y-61849000D01*
X94844809Y-62236047D02*
X94336809Y-62236047D01*
X94651285Y-62284428D02*
X94844809Y-62429571D01*
X94506142Y-62429571D02*
X94699666Y-62236047D01*
%TO.C,R25*%
X97511809Y-65078428D02*
X97269904Y-64909095D01*
X97511809Y-64788142D02*
X97003809Y-64788142D01*
X97003809Y-64981666D01*
X97028000Y-65030047D01*
X97052190Y-65054238D01*
X97100571Y-65078428D01*
X97173142Y-65078428D01*
X97221523Y-65054238D01*
X97245714Y-65030047D01*
X97269904Y-64981666D01*
X97269904Y-64788142D01*
X97052190Y-65271952D02*
X97028000Y-65296142D01*
X97003809Y-65344523D01*
X97003809Y-65465476D01*
X97028000Y-65513857D01*
X97052190Y-65538047D01*
X97100571Y-65562238D01*
X97148952Y-65562238D01*
X97221523Y-65538047D01*
X97511809Y-65247761D01*
X97511809Y-65562238D01*
X97003809Y-66021857D02*
X97003809Y-65779952D01*
X97245714Y-65755761D01*
X97221523Y-65779952D01*
X97197333Y-65828333D01*
X97197333Y-65949285D01*
X97221523Y-65997666D01*
X97245714Y-66021857D01*
X97294095Y-66046047D01*
X97415047Y-66046047D01*
X97463428Y-66021857D01*
X97487619Y-65997666D01*
X97511809Y-65949285D01*
X97511809Y-65828333D01*
X97487619Y-65779952D01*
X97463428Y-65755761D01*
X94385190Y-64570428D02*
X94361000Y-64594619D01*
X94336809Y-64643000D01*
X94336809Y-64763952D01*
X94361000Y-64812333D01*
X94385190Y-64836523D01*
X94433571Y-64860714D01*
X94481952Y-64860714D01*
X94554523Y-64836523D01*
X94844809Y-64546238D01*
X94844809Y-64860714D01*
X94336809Y-65175190D02*
X94336809Y-65223571D01*
X94361000Y-65271952D01*
X94385190Y-65296142D01*
X94433571Y-65320333D01*
X94530333Y-65344523D01*
X94651285Y-65344523D01*
X94748047Y-65320333D01*
X94796428Y-65296142D01*
X94820619Y-65271952D01*
X94844809Y-65223571D01*
X94844809Y-65175190D01*
X94820619Y-65126809D01*
X94796428Y-65102619D01*
X94748047Y-65078428D01*
X94651285Y-65054238D01*
X94530333Y-65054238D01*
X94433571Y-65078428D01*
X94385190Y-65102619D01*
X94361000Y-65126809D01*
X94336809Y-65175190D01*
X94336809Y-65804142D02*
X94336809Y-65562238D01*
X94578714Y-65538047D01*
X94554523Y-65562238D01*
X94530333Y-65610619D01*
X94530333Y-65731571D01*
X94554523Y-65779952D01*
X94578714Y-65804142D01*
X94627095Y-65828333D01*
X94748047Y-65828333D01*
X94796428Y-65804142D01*
X94820619Y-65779952D01*
X94844809Y-65731571D01*
X94844809Y-65610619D01*
X94820619Y-65562238D01*
X94796428Y-65538047D01*
X94844809Y-66046047D02*
X94336809Y-66046047D01*
X94651285Y-66094428D02*
X94844809Y-66239571D01*
X94506142Y-66239571D02*
X94699666Y-66046047D01*
%TO.C,R27*%
X125451809Y-74603428D02*
X125209904Y-74434095D01*
X125451809Y-74313142D02*
X124943809Y-74313142D01*
X124943809Y-74506666D01*
X124968000Y-74555047D01*
X124992190Y-74579238D01*
X125040571Y-74603428D01*
X125113142Y-74603428D01*
X125161523Y-74579238D01*
X125185714Y-74555047D01*
X125209904Y-74506666D01*
X125209904Y-74313142D01*
X124992190Y-74796952D02*
X124968000Y-74821142D01*
X124943809Y-74869523D01*
X124943809Y-74990476D01*
X124968000Y-75038857D01*
X124992190Y-75063047D01*
X125040571Y-75087238D01*
X125088952Y-75087238D01*
X125161523Y-75063047D01*
X125451809Y-74772761D01*
X125451809Y-75087238D01*
X124943809Y-75256571D02*
X124943809Y-75595238D01*
X125451809Y-75377523D01*
X122784809Y-74385714D02*
X122784809Y-74095428D01*
X122784809Y-74240571D02*
X122276809Y-74240571D01*
X122349380Y-74192190D01*
X122397761Y-74143809D01*
X122421952Y-74095428D01*
X122276809Y-74845333D02*
X122276809Y-74603428D01*
X122518714Y-74579238D01*
X122494523Y-74603428D01*
X122470333Y-74651809D01*
X122470333Y-74772761D01*
X122494523Y-74821142D01*
X122518714Y-74845333D01*
X122567095Y-74869523D01*
X122688047Y-74869523D01*
X122736428Y-74845333D01*
X122760619Y-74821142D01*
X122784809Y-74772761D01*
X122784809Y-74651809D01*
X122760619Y-74603428D01*
X122736428Y-74579238D01*
X122276809Y-75184000D02*
X122276809Y-75232380D01*
X122301000Y-75280761D01*
X122325190Y-75304952D01*
X122373571Y-75329142D01*
X122470333Y-75353333D01*
X122591285Y-75353333D01*
X122688047Y-75329142D01*
X122736428Y-75304952D01*
X122760619Y-75280761D01*
X122784809Y-75232380D01*
X122784809Y-75184000D01*
X122760619Y-75135619D01*
X122736428Y-75111428D01*
X122688047Y-75087238D01*
X122591285Y-75063047D01*
X122470333Y-75063047D01*
X122373571Y-75087238D01*
X122325190Y-75111428D01*
X122301000Y-75135619D01*
X122276809Y-75184000D01*
X122784809Y-75571047D02*
X122276809Y-75571047D01*
X122591285Y-75619428D02*
X122784809Y-75764571D01*
X122446142Y-75764571D02*
X122639666Y-75571047D01*
%TO.C,R28*%
X125451809Y-76508428D02*
X125209904Y-76339095D01*
X125451809Y-76218142D02*
X124943809Y-76218142D01*
X124943809Y-76411666D01*
X124968000Y-76460047D01*
X124992190Y-76484238D01*
X125040571Y-76508428D01*
X125113142Y-76508428D01*
X125161523Y-76484238D01*
X125185714Y-76460047D01*
X125209904Y-76411666D01*
X125209904Y-76218142D01*
X124992190Y-76701952D02*
X124968000Y-76726142D01*
X124943809Y-76774523D01*
X124943809Y-76895476D01*
X124968000Y-76943857D01*
X124992190Y-76968047D01*
X125040571Y-76992238D01*
X125088952Y-76992238D01*
X125161523Y-76968047D01*
X125451809Y-76677761D01*
X125451809Y-76992238D01*
X125161523Y-77282523D02*
X125137333Y-77234142D01*
X125113142Y-77209952D01*
X125064761Y-77185761D01*
X125040571Y-77185761D01*
X124992190Y-77209952D01*
X124968000Y-77234142D01*
X124943809Y-77282523D01*
X124943809Y-77379285D01*
X124968000Y-77427666D01*
X124992190Y-77451857D01*
X125040571Y-77476047D01*
X125064761Y-77476047D01*
X125113142Y-77451857D01*
X125137333Y-77427666D01*
X125161523Y-77379285D01*
X125161523Y-77282523D01*
X125185714Y-77234142D01*
X125209904Y-77209952D01*
X125258285Y-77185761D01*
X125355047Y-77185761D01*
X125403428Y-77209952D01*
X125427619Y-77234142D01*
X125451809Y-77282523D01*
X125451809Y-77379285D01*
X125427619Y-77427666D01*
X125403428Y-77451857D01*
X125355047Y-77476047D01*
X125258285Y-77476047D01*
X125209904Y-77451857D01*
X125185714Y-77427666D01*
X125161523Y-77379285D01*
X122784809Y-76290714D02*
X122784809Y-76000428D01*
X122784809Y-76145571D02*
X122276809Y-76145571D01*
X122349380Y-76097190D01*
X122397761Y-76048809D01*
X122421952Y-76000428D01*
X122276809Y-76750333D02*
X122276809Y-76508428D01*
X122518714Y-76484238D01*
X122494523Y-76508428D01*
X122470333Y-76556809D01*
X122470333Y-76677761D01*
X122494523Y-76726142D01*
X122518714Y-76750333D01*
X122567095Y-76774523D01*
X122688047Y-76774523D01*
X122736428Y-76750333D01*
X122760619Y-76726142D01*
X122784809Y-76677761D01*
X122784809Y-76556809D01*
X122760619Y-76508428D01*
X122736428Y-76484238D01*
X122276809Y-77089000D02*
X122276809Y-77137380D01*
X122301000Y-77185761D01*
X122325190Y-77209952D01*
X122373571Y-77234142D01*
X122470333Y-77258333D01*
X122591285Y-77258333D01*
X122688047Y-77234142D01*
X122736428Y-77209952D01*
X122760619Y-77185761D01*
X122784809Y-77137380D01*
X122784809Y-77089000D01*
X122760619Y-77040619D01*
X122736428Y-77016428D01*
X122688047Y-76992238D01*
X122591285Y-76968047D01*
X122470333Y-76968047D01*
X122373571Y-76992238D01*
X122325190Y-77016428D01*
X122301000Y-77040619D01*
X122276809Y-77089000D01*
X122784809Y-77476047D02*
X122276809Y-77476047D01*
X122591285Y-77524428D02*
X122784809Y-77669571D01*
X122446142Y-77669571D02*
X122639666Y-77476047D01*
%TO.C,R2*%
X84539666Y-113386809D02*
X84709000Y-113144904D01*
X84829952Y-113386809D02*
X84829952Y-112878809D01*
X84636428Y-112878809D01*
X84588047Y-112903000D01*
X84563857Y-112927190D01*
X84539666Y-112975571D01*
X84539666Y-113048142D01*
X84563857Y-113096523D01*
X84588047Y-113120714D01*
X84636428Y-113144904D01*
X84829952Y-113144904D01*
X84346142Y-112927190D02*
X84321952Y-112903000D01*
X84273571Y-112878809D01*
X84152619Y-112878809D01*
X84104238Y-112903000D01*
X84080047Y-112927190D01*
X84055857Y-112975571D01*
X84055857Y-113023952D01*
X84080047Y-113096523D01*
X84370333Y-113386809D01*
X84055857Y-113386809D01*
X85108142Y-110211809D02*
X84793666Y-110211809D01*
X84963000Y-110405333D01*
X84890428Y-110405333D01*
X84842047Y-110429523D01*
X84817857Y-110453714D01*
X84793666Y-110502095D01*
X84793666Y-110623047D01*
X84817857Y-110671428D01*
X84842047Y-110695619D01*
X84890428Y-110719809D01*
X85035571Y-110719809D01*
X85083952Y-110695619D01*
X85108142Y-110671428D01*
X84551761Y-110719809D02*
X84455000Y-110719809D01*
X84406619Y-110695619D01*
X84382428Y-110671428D01*
X84334047Y-110598857D01*
X84309857Y-110502095D01*
X84309857Y-110308571D01*
X84334047Y-110260190D01*
X84358238Y-110236000D01*
X84406619Y-110211809D01*
X84503380Y-110211809D01*
X84551761Y-110236000D01*
X84575952Y-110260190D01*
X84600142Y-110308571D01*
X84600142Y-110429523D01*
X84575952Y-110477904D01*
X84551761Y-110502095D01*
X84503380Y-110526285D01*
X84406619Y-110526285D01*
X84358238Y-110502095D01*
X84334047Y-110477904D01*
X84309857Y-110429523D01*
X83995380Y-110211809D02*
X83947000Y-110211809D01*
X83898619Y-110236000D01*
X83874428Y-110260190D01*
X83850238Y-110308571D01*
X83826047Y-110405333D01*
X83826047Y-110526285D01*
X83850238Y-110623047D01*
X83874428Y-110671428D01*
X83898619Y-110695619D01*
X83947000Y-110719809D01*
X83995380Y-110719809D01*
X84043761Y-110695619D01*
X84067952Y-110671428D01*
X84092142Y-110623047D01*
X84116333Y-110526285D01*
X84116333Y-110405333D01*
X84092142Y-110308571D01*
X84067952Y-110260190D01*
X84043761Y-110236000D01*
X83995380Y-110211809D01*
%TO.C,R5*%
X69571809Y-80560333D02*
X69329904Y-80391000D01*
X69571809Y-80270047D02*
X69063809Y-80270047D01*
X69063809Y-80463571D01*
X69088000Y-80511952D01*
X69112190Y-80536142D01*
X69160571Y-80560333D01*
X69233142Y-80560333D01*
X69281523Y-80536142D01*
X69305714Y-80511952D01*
X69329904Y-80463571D01*
X69329904Y-80270047D01*
X69063809Y-81019952D02*
X69063809Y-80778047D01*
X69305714Y-80753857D01*
X69281523Y-80778047D01*
X69257333Y-80826428D01*
X69257333Y-80947380D01*
X69281523Y-80995761D01*
X69305714Y-81019952D01*
X69354095Y-81044142D01*
X69475047Y-81044142D01*
X69523428Y-81019952D01*
X69547619Y-80995761D01*
X69571809Y-80947380D01*
X69571809Y-80826428D01*
X69547619Y-80778047D01*
X69523428Y-80753857D01*
X66445190Y-79810428D02*
X66421000Y-79834619D01*
X66396809Y-79883000D01*
X66396809Y-80003952D01*
X66421000Y-80052333D01*
X66445190Y-80076523D01*
X66493571Y-80100714D01*
X66541952Y-80100714D01*
X66614523Y-80076523D01*
X66904809Y-79786238D01*
X66904809Y-80100714D01*
X66396809Y-80415190D02*
X66396809Y-80463571D01*
X66421000Y-80511952D01*
X66445190Y-80536142D01*
X66493571Y-80560333D01*
X66590333Y-80584523D01*
X66711285Y-80584523D01*
X66808047Y-80560333D01*
X66856428Y-80536142D01*
X66880619Y-80511952D01*
X66904809Y-80463571D01*
X66904809Y-80415190D01*
X66880619Y-80366809D01*
X66856428Y-80342619D01*
X66808047Y-80318428D01*
X66711285Y-80294238D01*
X66590333Y-80294238D01*
X66493571Y-80318428D01*
X66445190Y-80342619D01*
X66421000Y-80366809D01*
X66396809Y-80415190D01*
X66396809Y-81044142D02*
X66396809Y-80802238D01*
X66638714Y-80778047D01*
X66614523Y-80802238D01*
X66590333Y-80850619D01*
X66590333Y-80971571D01*
X66614523Y-81019952D01*
X66638714Y-81044142D01*
X66687095Y-81068333D01*
X66808047Y-81068333D01*
X66856428Y-81044142D01*
X66880619Y-81019952D01*
X66904809Y-80971571D01*
X66904809Y-80850619D01*
X66880619Y-80802238D01*
X66856428Y-80778047D01*
X66904809Y-81286047D02*
X66396809Y-81286047D01*
X66711285Y-81334428D02*
X66904809Y-81479571D01*
X66566142Y-81479571D02*
X66759666Y-81286047D01*
%TO.C,R8*%
X69571809Y-69130333D02*
X69329904Y-68961000D01*
X69571809Y-68840047D02*
X69063809Y-68840047D01*
X69063809Y-69033571D01*
X69088000Y-69081952D01*
X69112190Y-69106142D01*
X69160571Y-69130333D01*
X69233142Y-69130333D01*
X69281523Y-69106142D01*
X69305714Y-69081952D01*
X69329904Y-69033571D01*
X69329904Y-68840047D01*
X69281523Y-69420619D02*
X69257333Y-69372238D01*
X69233142Y-69348047D01*
X69184761Y-69323857D01*
X69160571Y-69323857D01*
X69112190Y-69348047D01*
X69088000Y-69372238D01*
X69063809Y-69420619D01*
X69063809Y-69517380D01*
X69088000Y-69565761D01*
X69112190Y-69589952D01*
X69160571Y-69614142D01*
X69184761Y-69614142D01*
X69233142Y-69589952D01*
X69257333Y-69565761D01*
X69281523Y-69517380D01*
X69281523Y-69420619D01*
X69305714Y-69372238D01*
X69329904Y-69348047D01*
X69378285Y-69323857D01*
X69475047Y-69323857D01*
X69523428Y-69348047D01*
X69547619Y-69372238D01*
X69571809Y-69420619D01*
X69571809Y-69517380D01*
X69547619Y-69565761D01*
X69523428Y-69589952D01*
X69475047Y-69614142D01*
X69378285Y-69614142D01*
X69329904Y-69589952D01*
X69305714Y-69565761D01*
X69281523Y-69517380D01*
X66904809Y-68670714D02*
X66904809Y-68380428D01*
X66904809Y-68525571D02*
X66396809Y-68525571D01*
X66469380Y-68477190D01*
X66517761Y-68428809D01*
X66541952Y-68380428D01*
X66396809Y-69130333D02*
X66396809Y-68888428D01*
X66638714Y-68864238D01*
X66614523Y-68888428D01*
X66590333Y-68936809D01*
X66590333Y-69057761D01*
X66614523Y-69106142D01*
X66638714Y-69130333D01*
X66687095Y-69154523D01*
X66808047Y-69154523D01*
X66856428Y-69130333D01*
X66880619Y-69106142D01*
X66904809Y-69057761D01*
X66904809Y-68936809D01*
X66880619Y-68888428D01*
X66856428Y-68864238D01*
X66396809Y-69469000D02*
X66396809Y-69517380D01*
X66421000Y-69565761D01*
X66445190Y-69589952D01*
X66493571Y-69614142D01*
X66590333Y-69638333D01*
X66711285Y-69638333D01*
X66808047Y-69614142D01*
X66856428Y-69589952D01*
X66880619Y-69565761D01*
X66904809Y-69517380D01*
X66904809Y-69469000D01*
X66880619Y-69420619D01*
X66856428Y-69396428D01*
X66808047Y-69372238D01*
X66711285Y-69348047D01*
X66590333Y-69348047D01*
X66493571Y-69372238D01*
X66445190Y-69396428D01*
X66421000Y-69420619D01*
X66396809Y-69469000D01*
X66904809Y-69856047D02*
X66396809Y-69856047D01*
X66711285Y-69904428D02*
X66904809Y-70049571D01*
X66566142Y-70049571D02*
X66759666Y-69856047D01*
%TO.C,R11*%
X69571809Y-59363428D02*
X69329904Y-59194095D01*
X69571809Y-59073142D02*
X69063809Y-59073142D01*
X69063809Y-59266666D01*
X69088000Y-59315047D01*
X69112190Y-59339238D01*
X69160571Y-59363428D01*
X69233142Y-59363428D01*
X69281523Y-59339238D01*
X69305714Y-59315047D01*
X69329904Y-59266666D01*
X69329904Y-59073142D01*
X69571809Y-59847238D02*
X69571809Y-59556952D01*
X69571809Y-59702095D02*
X69063809Y-59702095D01*
X69136380Y-59653714D01*
X69184761Y-59605333D01*
X69208952Y-59556952D01*
X69571809Y-60331047D02*
X69571809Y-60040761D01*
X69571809Y-60185904D02*
X69063809Y-60185904D01*
X69136380Y-60137523D01*
X69184761Y-60089142D01*
X69208952Y-60040761D01*
X66904809Y-59145714D02*
X66904809Y-58855428D01*
X66904809Y-59000571D02*
X66396809Y-59000571D01*
X66469380Y-58952190D01*
X66517761Y-58903809D01*
X66541952Y-58855428D01*
X66396809Y-59605333D02*
X66396809Y-59363428D01*
X66638714Y-59339238D01*
X66614523Y-59363428D01*
X66590333Y-59411809D01*
X66590333Y-59532761D01*
X66614523Y-59581142D01*
X66638714Y-59605333D01*
X66687095Y-59629523D01*
X66808047Y-59629523D01*
X66856428Y-59605333D01*
X66880619Y-59581142D01*
X66904809Y-59532761D01*
X66904809Y-59411809D01*
X66880619Y-59363428D01*
X66856428Y-59339238D01*
X66396809Y-59944000D02*
X66396809Y-59992380D01*
X66421000Y-60040761D01*
X66445190Y-60064952D01*
X66493571Y-60089142D01*
X66590333Y-60113333D01*
X66711285Y-60113333D01*
X66808047Y-60089142D01*
X66856428Y-60064952D01*
X66880619Y-60040761D01*
X66904809Y-59992380D01*
X66904809Y-59944000D01*
X66880619Y-59895619D01*
X66856428Y-59871428D01*
X66808047Y-59847238D01*
X66711285Y-59823047D01*
X66590333Y-59823047D01*
X66493571Y-59847238D01*
X66445190Y-59871428D01*
X66421000Y-59895619D01*
X66396809Y-59944000D01*
X66904809Y-60331047D02*
X66396809Y-60331047D01*
X66711285Y-60379428D02*
X66904809Y-60524571D01*
X66566142Y-60524571D02*
X66759666Y-60331047D01*
%TO.C,R14*%
X89861571Y-113386809D02*
X90030904Y-113144904D01*
X90151857Y-113386809D02*
X90151857Y-112878809D01*
X89958333Y-112878809D01*
X89909952Y-112903000D01*
X89885761Y-112927190D01*
X89861571Y-112975571D01*
X89861571Y-113048142D01*
X89885761Y-113096523D01*
X89909952Y-113120714D01*
X89958333Y-113144904D01*
X90151857Y-113144904D01*
X89377761Y-113386809D02*
X89668047Y-113386809D01*
X89522904Y-113386809D02*
X89522904Y-112878809D01*
X89571285Y-112951380D01*
X89619666Y-112999761D01*
X89668047Y-113023952D01*
X88942333Y-113048142D02*
X88942333Y-113386809D01*
X89063285Y-112854619D02*
X89184238Y-113217476D01*
X88869761Y-113217476D01*
X90188142Y-110211809D02*
X89873666Y-110211809D01*
X90043000Y-110405333D01*
X89970428Y-110405333D01*
X89922047Y-110429523D01*
X89897857Y-110453714D01*
X89873666Y-110502095D01*
X89873666Y-110623047D01*
X89897857Y-110671428D01*
X89922047Y-110695619D01*
X89970428Y-110719809D01*
X90115571Y-110719809D01*
X90163952Y-110695619D01*
X90188142Y-110671428D01*
X89631761Y-110719809D02*
X89535000Y-110719809D01*
X89486619Y-110695619D01*
X89462428Y-110671428D01*
X89414047Y-110598857D01*
X89389857Y-110502095D01*
X89389857Y-110308571D01*
X89414047Y-110260190D01*
X89438238Y-110236000D01*
X89486619Y-110211809D01*
X89583380Y-110211809D01*
X89631761Y-110236000D01*
X89655952Y-110260190D01*
X89680142Y-110308571D01*
X89680142Y-110429523D01*
X89655952Y-110477904D01*
X89631761Y-110502095D01*
X89583380Y-110526285D01*
X89486619Y-110526285D01*
X89438238Y-110502095D01*
X89414047Y-110477904D01*
X89389857Y-110429523D01*
X89075380Y-110211809D02*
X89027000Y-110211809D01*
X88978619Y-110236000D01*
X88954428Y-110260190D01*
X88930238Y-110308571D01*
X88906047Y-110405333D01*
X88906047Y-110526285D01*
X88930238Y-110623047D01*
X88954428Y-110671428D01*
X88978619Y-110695619D01*
X89027000Y-110719809D01*
X89075380Y-110719809D01*
X89123761Y-110695619D01*
X89147952Y-110671428D01*
X89172142Y-110623047D01*
X89196333Y-110526285D01*
X89196333Y-110405333D01*
X89172142Y-110308571D01*
X89147952Y-110260190D01*
X89123761Y-110236000D01*
X89075380Y-110211809D01*
%TO.C,R17*%
X97511809Y-80318428D02*
X97269904Y-80149095D01*
X97511809Y-80028142D02*
X97003809Y-80028142D01*
X97003809Y-80221666D01*
X97028000Y-80270047D01*
X97052190Y-80294238D01*
X97100571Y-80318428D01*
X97173142Y-80318428D01*
X97221523Y-80294238D01*
X97245714Y-80270047D01*
X97269904Y-80221666D01*
X97269904Y-80028142D01*
X97511809Y-80802238D02*
X97511809Y-80511952D01*
X97511809Y-80657095D02*
X97003809Y-80657095D01*
X97076380Y-80608714D01*
X97124761Y-80560333D01*
X97148952Y-80511952D01*
X97003809Y-80971571D02*
X97003809Y-81310238D01*
X97511809Y-81092523D01*
X94385190Y-79810428D02*
X94361000Y-79834619D01*
X94336809Y-79883000D01*
X94336809Y-80003952D01*
X94361000Y-80052333D01*
X94385190Y-80076523D01*
X94433571Y-80100714D01*
X94481952Y-80100714D01*
X94554523Y-80076523D01*
X94844809Y-79786238D01*
X94844809Y-80100714D01*
X94336809Y-80415190D02*
X94336809Y-80463571D01*
X94361000Y-80511952D01*
X94385190Y-80536142D01*
X94433571Y-80560333D01*
X94530333Y-80584523D01*
X94651285Y-80584523D01*
X94748047Y-80560333D01*
X94796428Y-80536142D01*
X94820619Y-80511952D01*
X94844809Y-80463571D01*
X94844809Y-80415190D01*
X94820619Y-80366809D01*
X94796428Y-80342619D01*
X94748047Y-80318428D01*
X94651285Y-80294238D01*
X94530333Y-80294238D01*
X94433571Y-80318428D01*
X94385190Y-80342619D01*
X94361000Y-80366809D01*
X94336809Y-80415190D01*
X94336809Y-81044142D02*
X94336809Y-80802238D01*
X94578714Y-80778047D01*
X94554523Y-80802238D01*
X94530333Y-80850619D01*
X94530333Y-80971571D01*
X94554523Y-81019952D01*
X94578714Y-81044142D01*
X94627095Y-81068333D01*
X94748047Y-81068333D01*
X94796428Y-81044142D01*
X94820619Y-81019952D01*
X94844809Y-80971571D01*
X94844809Y-80850619D01*
X94820619Y-80802238D01*
X94796428Y-80778047D01*
X94844809Y-81286047D02*
X94336809Y-81286047D01*
X94651285Y-81334428D02*
X94844809Y-81479571D01*
X94506142Y-81479571D02*
X94699666Y-81286047D01*
%TO.C,R20*%
X97511809Y-68888428D02*
X97269904Y-68719095D01*
X97511809Y-68598142D02*
X97003809Y-68598142D01*
X97003809Y-68791666D01*
X97028000Y-68840047D01*
X97052190Y-68864238D01*
X97100571Y-68888428D01*
X97173142Y-68888428D01*
X97221523Y-68864238D01*
X97245714Y-68840047D01*
X97269904Y-68791666D01*
X97269904Y-68598142D01*
X97052190Y-69081952D02*
X97028000Y-69106142D01*
X97003809Y-69154523D01*
X97003809Y-69275476D01*
X97028000Y-69323857D01*
X97052190Y-69348047D01*
X97100571Y-69372238D01*
X97148952Y-69372238D01*
X97221523Y-69348047D01*
X97511809Y-69057761D01*
X97511809Y-69372238D01*
X97003809Y-69686714D02*
X97003809Y-69735095D01*
X97028000Y-69783476D01*
X97052190Y-69807666D01*
X97100571Y-69831857D01*
X97197333Y-69856047D01*
X97318285Y-69856047D01*
X97415047Y-69831857D01*
X97463428Y-69807666D01*
X97487619Y-69783476D01*
X97511809Y-69735095D01*
X97511809Y-69686714D01*
X97487619Y-69638333D01*
X97463428Y-69614142D01*
X97415047Y-69589952D01*
X97318285Y-69565761D01*
X97197333Y-69565761D01*
X97100571Y-69589952D01*
X97052190Y-69614142D01*
X97028000Y-69638333D01*
X97003809Y-69686714D01*
X94844809Y-68670714D02*
X94844809Y-68380428D01*
X94844809Y-68525571D02*
X94336809Y-68525571D01*
X94409380Y-68477190D01*
X94457761Y-68428809D01*
X94481952Y-68380428D01*
X94336809Y-69130333D02*
X94336809Y-68888428D01*
X94578714Y-68864238D01*
X94554523Y-68888428D01*
X94530333Y-68936809D01*
X94530333Y-69057761D01*
X94554523Y-69106142D01*
X94578714Y-69130333D01*
X94627095Y-69154523D01*
X94748047Y-69154523D01*
X94796428Y-69130333D01*
X94820619Y-69106142D01*
X94844809Y-69057761D01*
X94844809Y-68936809D01*
X94820619Y-68888428D01*
X94796428Y-68864238D01*
X94336809Y-69469000D02*
X94336809Y-69517380D01*
X94361000Y-69565761D01*
X94385190Y-69589952D01*
X94433571Y-69614142D01*
X94530333Y-69638333D01*
X94651285Y-69638333D01*
X94748047Y-69614142D01*
X94796428Y-69589952D01*
X94820619Y-69565761D01*
X94844809Y-69517380D01*
X94844809Y-69469000D01*
X94820619Y-69420619D01*
X94796428Y-69396428D01*
X94748047Y-69372238D01*
X94651285Y-69348047D01*
X94530333Y-69348047D01*
X94433571Y-69372238D01*
X94385190Y-69396428D01*
X94361000Y-69420619D01*
X94336809Y-69469000D01*
X94844809Y-69856047D02*
X94336809Y-69856047D01*
X94651285Y-69904428D02*
X94844809Y-70049571D01*
X94506142Y-70049571D02*
X94699666Y-69856047D01*
%TO.C,R23*%
X97511809Y-59363428D02*
X97269904Y-59194095D01*
X97511809Y-59073142D02*
X97003809Y-59073142D01*
X97003809Y-59266666D01*
X97028000Y-59315047D01*
X97052190Y-59339238D01*
X97100571Y-59363428D01*
X97173142Y-59363428D01*
X97221523Y-59339238D01*
X97245714Y-59315047D01*
X97269904Y-59266666D01*
X97269904Y-59073142D01*
X97052190Y-59556952D02*
X97028000Y-59581142D01*
X97003809Y-59629523D01*
X97003809Y-59750476D01*
X97028000Y-59798857D01*
X97052190Y-59823047D01*
X97100571Y-59847238D01*
X97148952Y-59847238D01*
X97221523Y-59823047D01*
X97511809Y-59532761D01*
X97511809Y-59847238D01*
X97003809Y-60016571D02*
X97003809Y-60331047D01*
X97197333Y-60161714D01*
X97197333Y-60234285D01*
X97221523Y-60282666D01*
X97245714Y-60306857D01*
X97294095Y-60331047D01*
X97415047Y-60331047D01*
X97463428Y-60306857D01*
X97487619Y-60282666D01*
X97511809Y-60234285D01*
X97511809Y-60089142D01*
X97487619Y-60040761D01*
X97463428Y-60016571D01*
X94844809Y-59145714D02*
X94844809Y-58855428D01*
X94844809Y-59000571D02*
X94336809Y-59000571D01*
X94409380Y-58952190D01*
X94457761Y-58903809D01*
X94481952Y-58855428D01*
X94336809Y-59605333D02*
X94336809Y-59363428D01*
X94578714Y-59339238D01*
X94554523Y-59363428D01*
X94530333Y-59411809D01*
X94530333Y-59532761D01*
X94554523Y-59581142D01*
X94578714Y-59605333D01*
X94627095Y-59629523D01*
X94748047Y-59629523D01*
X94796428Y-59605333D01*
X94820619Y-59581142D01*
X94844809Y-59532761D01*
X94844809Y-59411809D01*
X94820619Y-59363428D01*
X94796428Y-59339238D01*
X94336809Y-59944000D02*
X94336809Y-59992380D01*
X94361000Y-60040761D01*
X94385190Y-60064952D01*
X94433571Y-60089142D01*
X94530333Y-60113333D01*
X94651285Y-60113333D01*
X94748047Y-60089142D01*
X94796428Y-60064952D01*
X94820619Y-60040761D01*
X94844809Y-59992380D01*
X94844809Y-59944000D01*
X94820619Y-59895619D01*
X94796428Y-59871428D01*
X94748047Y-59847238D01*
X94651285Y-59823047D01*
X94530333Y-59823047D01*
X94433571Y-59847238D01*
X94385190Y-59871428D01*
X94361000Y-59895619D01*
X94336809Y-59944000D01*
X94844809Y-60331047D02*
X94336809Y-60331047D01*
X94651285Y-60379428D02*
X94844809Y-60524571D01*
X94506142Y-60524571D02*
X94699666Y-60331047D01*
%TO.C,R26*%
X94941571Y-113386809D02*
X95110904Y-113144904D01*
X95231857Y-113386809D02*
X95231857Y-112878809D01*
X95038333Y-112878809D01*
X94989952Y-112903000D01*
X94965761Y-112927190D01*
X94941571Y-112975571D01*
X94941571Y-113048142D01*
X94965761Y-113096523D01*
X94989952Y-113120714D01*
X95038333Y-113144904D01*
X95231857Y-113144904D01*
X94748047Y-112927190D02*
X94723857Y-112903000D01*
X94675476Y-112878809D01*
X94554523Y-112878809D01*
X94506142Y-112903000D01*
X94481952Y-112927190D01*
X94457761Y-112975571D01*
X94457761Y-113023952D01*
X94481952Y-113096523D01*
X94772238Y-113386809D01*
X94457761Y-113386809D01*
X94022333Y-112878809D02*
X94119095Y-112878809D01*
X94167476Y-112903000D01*
X94191666Y-112927190D01*
X94240047Y-112999761D01*
X94264238Y-113096523D01*
X94264238Y-113290047D01*
X94240047Y-113338428D01*
X94215857Y-113362619D01*
X94167476Y-113386809D01*
X94070714Y-113386809D01*
X94022333Y-113362619D01*
X93998142Y-113338428D01*
X93973952Y-113290047D01*
X93973952Y-113169095D01*
X93998142Y-113120714D01*
X94022333Y-113096523D01*
X94070714Y-113072333D01*
X94167476Y-113072333D01*
X94215857Y-113096523D01*
X94240047Y-113120714D01*
X94264238Y-113169095D01*
X95268142Y-110211809D02*
X94953666Y-110211809D01*
X95123000Y-110405333D01*
X95050428Y-110405333D01*
X95002047Y-110429523D01*
X94977857Y-110453714D01*
X94953666Y-110502095D01*
X94953666Y-110623047D01*
X94977857Y-110671428D01*
X95002047Y-110695619D01*
X95050428Y-110719809D01*
X95195571Y-110719809D01*
X95243952Y-110695619D01*
X95268142Y-110671428D01*
X94711761Y-110719809D02*
X94615000Y-110719809D01*
X94566619Y-110695619D01*
X94542428Y-110671428D01*
X94494047Y-110598857D01*
X94469857Y-110502095D01*
X94469857Y-110308571D01*
X94494047Y-110260190D01*
X94518238Y-110236000D01*
X94566619Y-110211809D01*
X94663380Y-110211809D01*
X94711761Y-110236000D01*
X94735952Y-110260190D01*
X94760142Y-110308571D01*
X94760142Y-110429523D01*
X94735952Y-110477904D01*
X94711761Y-110502095D01*
X94663380Y-110526285D01*
X94566619Y-110526285D01*
X94518238Y-110502095D01*
X94494047Y-110477904D01*
X94469857Y-110429523D01*
X94155380Y-110211809D02*
X94107000Y-110211809D01*
X94058619Y-110236000D01*
X94034428Y-110260190D01*
X94010238Y-110308571D01*
X93986047Y-110405333D01*
X93986047Y-110526285D01*
X94010238Y-110623047D01*
X94034428Y-110671428D01*
X94058619Y-110695619D01*
X94107000Y-110719809D01*
X94155380Y-110719809D01*
X94203761Y-110695619D01*
X94227952Y-110671428D01*
X94252142Y-110623047D01*
X94276333Y-110526285D01*
X94276333Y-110405333D01*
X94252142Y-110308571D01*
X94227952Y-110260190D01*
X94203761Y-110236000D01*
X94155380Y-110211809D01*
%TO.C,R1*%
X80729666Y-125451809D02*
X80899000Y-125209904D01*
X81019952Y-125451809D02*
X81019952Y-124943809D01*
X80826428Y-124943809D01*
X80778047Y-124968000D01*
X80753857Y-124992190D01*
X80729666Y-125040571D01*
X80729666Y-125113142D01*
X80753857Y-125161523D01*
X80778047Y-125185714D01*
X80826428Y-125209904D01*
X81019952Y-125209904D01*
X80245857Y-125451809D02*
X80536142Y-125451809D01*
X80391000Y-125451809D02*
X80391000Y-124943809D01*
X80439380Y-125016380D01*
X80487761Y-125064761D01*
X80536142Y-125088952D01*
X81298142Y-122276809D02*
X80983666Y-122276809D01*
X81153000Y-122470333D01*
X81080428Y-122470333D01*
X81032047Y-122494523D01*
X81007857Y-122518714D01*
X80983666Y-122567095D01*
X80983666Y-122688047D01*
X81007857Y-122736428D01*
X81032047Y-122760619D01*
X81080428Y-122784809D01*
X81225571Y-122784809D01*
X81273952Y-122760619D01*
X81298142Y-122736428D01*
X80741761Y-122784809D02*
X80645000Y-122784809D01*
X80596619Y-122760619D01*
X80572428Y-122736428D01*
X80524047Y-122663857D01*
X80499857Y-122567095D01*
X80499857Y-122373571D01*
X80524047Y-122325190D01*
X80548238Y-122301000D01*
X80596619Y-122276809D01*
X80693380Y-122276809D01*
X80741761Y-122301000D01*
X80765952Y-122325190D01*
X80790142Y-122373571D01*
X80790142Y-122494523D01*
X80765952Y-122542904D01*
X80741761Y-122567095D01*
X80693380Y-122591285D01*
X80596619Y-122591285D01*
X80548238Y-122567095D01*
X80524047Y-122542904D01*
X80499857Y-122494523D01*
X80185380Y-122276809D02*
X80137000Y-122276809D01*
X80088619Y-122301000D01*
X80064428Y-122325190D01*
X80040238Y-122373571D01*
X80016047Y-122470333D01*
X80016047Y-122591285D01*
X80040238Y-122688047D01*
X80064428Y-122736428D01*
X80088619Y-122760619D01*
X80137000Y-122784809D01*
X80185380Y-122784809D01*
X80233761Y-122760619D01*
X80257952Y-122736428D01*
X80282142Y-122688047D01*
X80306333Y-122591285D01*
X80306333Y-122470333D01*
X80282142Y-122373571D01*
X80257952Y-122325190D01*
X80233761Y-122301000D01*
X80185380Y-122276809D01*
%TO.C,D2*%
D10*
X78854904Y-128884619D02*
X78854904Y-127868619D01*
X78613000Y-127868619D01*
X78467857Y-127917000D01*
X78371095Y-128013761D01*
X78322714Y-128110523D01*
X78274333Y-128304047D01*
X78274333Y-128449190D01*
X78322714Y-128642714D01*
X78371095Y-128739476D01*
X78467857Y-128836238D01*
X78613000Y-128884619D01*
X78854904Y-128884619D01*
X77887285Y-127965380D02*
X77838904Y-127917000D01*
X77742142Y-127868619D01*
X77500238Y-127868619D01*
X77403476Y-127917000D01*
X77355095Y-127965380D01*
X77306714Y-128062142D01*
X77306714Y-128158904D01*
X77355095Y-128304047D01*
X77935666Y-128884619D01*
X77306714Y-128884619D01*
%TO.C,R29*%
D15*
X125451809Y-80318428D02*
X125209904Y-80149095D01*
X125451809Y-80028142D02*
X124943809Y-80028142D01*
X124943809Y-80221666D01*
X124968000Y-80270047D01*
X124992190Y-80294238D01*
X125040571Y-80318428D01*
X125113142Y-80318428D01*
X125161523Y-80294238D01*
X125185714Y-80270047D01*
X125209904Y-80221666D01*
X125209904Y-80028142D01*
X124992190Y-80511952D02*
X124968000Y-80536142D01*
X124943809Y-80584523D01*
X124943809Y-80705476D01*
X124968000Y-80753857D01*
X124992190Y-80778047D01*
X125040571Y-80802238D01*
X125088952Y-80802238D01*
X125161523Y-80778047D01*
X125451809Y-80487761D01*
X125451809Y-80802238D01*
X125451809Y-81044142D02*
X125451809Y-81140904D01*
X125427619Y-81189285D01*
X125403428Y-81213476D01*
X125330857Y-81261857D01*
X125234095Y-81286047D01*
X125040571Y-81286047D01*
X124992190Y-81261857D01*
X124968000Y-81237666D01*
X124943809Y-81189285D01*
X124943809Y-81092523D01*
X124968000Y-81044142D01*
X124992190Y-81019952D01*
X125040571Y-80995761D01*
X125161523Y-80995761D01*
X125209904Y-81019952D01*
X125234095Y-81044142D01*
X125258285Y-81092523D01*
X125258285Y-81189285D01*
X125234095Y-81237666D01*
X125209904Y-81261857D01*
X125161523Y-81286047D01*
X122325190Y-79810428D02*
X122301000Y-79834619D01*
X122276809Y-79883000D01*
X122276809Y-80003952D01*
X122301000Y-80052333D01*
X122325190Y-80076523D01*
X122373571Y-80100714D01*
X122421952Y-80100714D01*
X122494523Y-80076523D01*
X122784809Y-79786238D01*
X122784809Y-80100714D01*
X122276809Y-80415190D02*
X122276809Y-80463571D01*
X122301000Y-80511952D01*
X122325190Y-80536142D01*
X122373571Y-80560333D01*
X122470333Y-80584523D01*
X122591285Y-80584523D01*
X122688047Y-80560333D01*
X122736428Y-80536142D01*
X122760619Y-80511952D01*
X122784809Y-80463571D01*
X122784809Y-80415190D01*
X122760619Y-80366809D01*
X122736428Y-80342619D01*
X122688047Y-80318428D01*
X122591285Y-80294238D01*
X122470333Y-80294238D01*
X122373571Y-80318428D01*
X122325190Y-80342619D01*
X122301000Y-80366809D01*
X122276809Y-80415190D01*
X122276809Y-81044142D02*
X122276809Y-80802238D01*
X122518714Y-80778047D01*
X122494523Y-80802238D01*
X122470333Y-80850619D01*
X122470333Y-80971571D01*
X122494523Y-81019952D01*
X122518714Y-81044142D01*
X122567095Y-81068333D01*
X122688047Y-81068333D01*
X122736428Y-81044142D01*
X122760619Y-81019952D01*
X122784809Y-80971571D01*
X122784809Y-80850619D01*
X122760619Y-80802238D01*
X122736428Y-80778047D01*
X122784809Y-81286047D02*
X122276809Y-81286047D01*
X122591285Y-81334428D02*
X122784809Y-81479571D01*
X122446142Y-81479571D02*
X122639666Y-81286047D01*
%TO.C,R30*%
X94941571Y-108306809D02*
X95110904Y-108064904D01*
X95231857Y-108306809D02*
X95231857Y-107798809D01*
X95038333Y-107798809D01*
X94989952Y-107823000D01*
X94965761Y-107847190D01*
X94941571Y-107895571D01*
X94941571Y-107968142D01*
X94965761Y-108016523D01*
X94989952Y-108040714D01*
X95038333Y-108064904D01*
X95231857Y-108064904D01*
X94772238Y-107798809D02*
X94457761Y-107798809D01*
X94627095Y-107992333D01*
X94554523Y-107992333D01*
X94506142Y-108016523D01*
X94481952Y-108040714D01*
X94457761Y-108089095D01*
X94457761Y-108210047D01*
X94481952Y-108258428D01*
X94506142Y-108282619D01*
X94554523Y-108306809D01*
X94699666Y-108306809D01*
X94748047Y-108282619D01*
X94772238Y-108258428D01*
X94143285Y-107798809D02*
X94094904Y-107798809D01*
X94046523Y-107823000D01*
X94022333Y-107847190D01*
X93998142Y-107895571D01*
X93973952Y-107992333D01*
X93973952Y-108113285D01*
X93998142Y-108210047D01*
X94022333Y-108258428D01*
X94046523Y-108282619D01*
X94094904Y-108306809D01*
X94143285Y-108306809D01*
X94191666Y-108282619D01*
X94215857Y-108258428D01*
X94240047Y-108210047D01*
X94264238Y-108113285D01*
X94264238Y-107992333D01*
X94240047Y-107895571D01*
X94215857Y-107847190D01*
X94191666Y-107823000D01*
X94143285Y-107798809D01*
X95268142Y-105131809D02*
X94953666Y-105131809D01*
X95123000Y-105325333D01*
X95050428Y-105325333D01*
X95002047Y-105349523D01*
X94977857Y-105373714D01*
X94953666Y-105422095D01*
X94953666Y-105543047D01*
X94977857Y-105591428D01*
X95002047Y-105615619D01*
X95050428Y-105639809D01*
X95195571Y-105639809D01*
X95243952Y-105615619D01*
X95268142Y-105591428D01*
X94711761Y-105639809D02*
X94615000Y-105639809D01*
X94566619Y-105615619D01*
X94542428Y-105591428D01*
X94494047Y-105518857D01*
X94469857Y-105422095D01*
X94469857Y-105228571D01*
X94494047Y-105180190D01*
X94518238Y-105156000D01*
X94566619Y-105131809D01*
X94663380Y-105131809D01*
X94711761Y-105156000D01*
X94735952Y-105180190D01*
X94760142Y-105228571D01*
X94760142Y-105349523D01*
X94735952Y-105397904D01*
X94711761Y-105422095D01*
X94663380Y-105446285D01*
X94566619Y-105446285D01*
X94518238Y-105422095D01*
X94494047Y-105397904D01*
X94469857Y-105349523D01*
X94155380Y-105131809D02*
X94107000Y-105131809D01*
X94058619Y-105156000D01*
X94034428Y-105180190D01*
X94010238Y-105228571D01*
X93986047Y-105325333D01*
X93986047Y-105446285D01*
X94010238Y-105543047D01*
X94034428Y-105591428D01*
X94058619Y-105615619D01*
X94107000Y-105639809D01*
X94155380Y-105639809D01*
X94203761Y-105615619D01*
X94227952Y-105591428D01*
X94252142Y-105543047D01*
X94276333Y-105446285D01*
X94276333Y-105325333D01*
X94252142Y-105228571D01*
X94227952Y-105180190D01*
X94203761Y-105156000D01*
X94155380Y-105131809D01*
%TO.C,R31*%
X125451809Y-66983428D02*
X125209904Y-66814095D01*
X125451809Y-66693142D02*
X124943809Y-66693142D01*
X124943809Y-66886666D01*
X124968000Y-66935047D01*
X124992190Y-66959238D01*
X125040571Y-66983428D01*
X125113142Y-66983428D01*
X125161523Y-66959238D01*
X125185714Y-66935047D01*
X125209904Y-66886666D01*
X125209904Y-66693142D01*
X124943809Y-67152761D02*
X124943809Y-67467238D01*
X125137333Y-67297904D01*
X125137333Y-67370476D01*
X125161523Y-67418857D01*
X125185714Y-67443047D01*
X125234095Y-67467238D01*
X125355047Y-67467238D01*
X125403428Y-67443047D01*
X125427619Y-67418857D01*
X125451809Y-67370476D01*
X125451809Y-67225333D01*
X125427619Y-67176952D01*
X125403428Y-67152761D01*
X125451809Y-67951047D02*
X125451809Y-67660761D01*
X125451809Y-67805904D02*
X124943809Y-67805904D01*
X125016380Y-67757523D01*
X125064761Y-67709142D01*
X125088952Y-67660761D01*
X122784809Y-66765714D02*
X122784809Y-66475428D01*
X122784809Y-66620571D02*
X122276809Y-66620571D01*
X122349380Y-66572190D01*
X122397761Y-66523809D01*
X122421952Y-66475428D01*
X122276809Y-67225333D02*
X122276809Y-66983428D01*
X122518714Y-66959238D01*
X122494523Y-66983428D01*
X122470333Y-67031809D01*
X122470333Y-67152761D01*
X122494523Y-67201142D01*
X122518714Y-67225333D01*
X122567095Y-67249523D01*
X122688047Y-67249523D01*
X122736428Y-67225333D01*
X122760619Y-67201142D01*
X122784809Y-67152761D01*
X122784809Y-67031809D01*
X122760619Y-66983428D01*
X122736428Y-66959238D01*
X122276809Y-67564000D02*
X122276809Y-67612380D01*
X122301000Y-67660761D01*
X122325190Y-67684952D01*
X122373571Y-67709142D01*
X122470333Y-67733333D01*
X122591285Y-67733333D01*
X122688047Y-67709142D01*
X122736428Y-67684952D01*
X122760619Y-67660761D01*
X122784809Y-67612380D01*
X122784809Y-67564000D01*
X122760619Y-67515619D01*
X122736428Y-67491428D01*
X122688047Y-67467238D01*
X122591285Y-67443047D01*
X122470333Y-67443047D01*
X122373571Y-67467238D01*
X122325190Y-67491428D01*
X122301000Y-67515619D01*
X122276809Y-67564000D01*
X122784809Y-67951047D02*
X122276809Y-67951047D01*
X122591285Y-67999428D02*
X122784809Y-68144571D01*
X122446142Y-68144571D02*
X122639666Y-67951047D01*
%TO.C,R32*%
X125451809Y-68888428D02*
X125209904Y-68719095D01*
X125451809Y-68598142D02*
X124943809Y-68598142D01*
X124943809Y-68791666D01*
X124968000Y-68840047D01*
X124992190Y-68864238D01*
X125040571Y-68888428D01*
X125113142Y-68888428D01*
X125161523Y-68864238D01*
X125185714Y-68840047D01*
X125209904Y-68791666D01*
X125209904Y-68598142D01*
X124943809Y-69057761D02*
X124943809Y-69372238D01*
X125137333Y-69202904D01*
X125137333Y-69275476D01*
X125161523Y-69323857D01*
X125185714Y-69348047D01*
X125234095Y-69372238D01*
X125355047Y-69372238D01*
X125403428Y-69348047D01*
X125427619Y-69323857D01*
X125451809Y-69275476D01*
X125451809Y-69130333D01*
X125427619Y-69081952D01*
X125403428Y-69057761D01*
X124992190Y-69565761D02*
X124968000Y-69589952D01*
X124943809Y-69638333D01*
X124943809Y-69759285D01*
X124968000Y-69807666D01*
X124992190Y-69831857D01*
X125040571Y-69856047D01*
X125088952Y-69856047D01*
X125161523Y-69831857D01*
X125451809Y-69541571D01*
X125451809Y-69856047D01*
X122784809Y-68670714D02*
X122784809Y-68380428D01*
X122784809Y-68525571D02*
X122276809Y-68525571D01*
X122349380Y-68477190D01*
X122397761Y-68428809D01*
X122421952Y-68380428D01*
X122276809Y-69130333D02*
X122276809Y-68888428D01*
X122518714Y-68864238D01*
X122494523Y-68888428D01*
X122470333Y-68936809D01*
X122470333Y-69057761D01*
X122494523Y-69106142D01*
X122518714Y-69130333D01*
X122567095Y-69154523D01*
X122688047Y-69154523D01*
X122736428Y-69130333D01*
X122760619Y-69106142D01*
X122784809Y-69057761D01*
X122784809Y-68936809D01*
X122760619Y-68888428D01*
X122736428Y-68864238D01*
X122276809Y-69469000D02*
X122276809Y-69517380D01*
X122301000Y-69565761D01*
X122325190Y-69589952D01*
X122373571Y-69614142D01*
X122470333Y-69638333D01*
X122591285Y-69638333D01*
X122688047Y-69614142D01*
X122736428Y-69589952D01*
X122760619Y-69565761D01*
X122784809Y-69517380D01*
X122784809Y-69469000D01*
X122760619Y-69420619D01*
X122736428Y-69396428D01*
X122688047Y-69372238D01*
X122591285Y-69348047D01*
X122470333Y-69348047D01*
X122373571Y-69372238D01*
X122325190Y-69396428D01*
X122301000Y-69420619D01*
X122276809Y-69469000D01*
X122784809Y-69856047D02*
X122276809Y-69856047D01*
X122591285Y-69904428D02*
X122784809Y-70049571D01*
X122446142Y-70049571D02*
X122639666Y-69856047D01*
%TO.C,R33*%
X125451809Y-72698428D02*
X125209904Y-72529095D01*
X125451809Y-72408142D02*
X124943809Y-72408142D01*
X124943809Y-72601666D01*
X124968000Y-72650047D01*
X124992190Y-72674238D01*
X125040571Y-72698428D01*
X125113142Y-72698428D01*
X125161523Y-72674238D01*
X125185714Y-72650047D01*
X125209904Y-72601666D01*
X125209904Y-72408142D01*
X124943809Y-72867761D02*
X124943809Y-73182238D01*
X125137333Y-73012904D01*
X125137333Y-73085476D01*
X125161523Y-73133857D01*
X125185714Y-73158047D01*
X125234095Y-73182238D01*
X125355047Y-73182238D01*
X125403428Y-73158047D01*
X125427619Y-73133857D01*
X125451809Y-73085476D01*
X125451809Y-72940333D01*
X125427619Y-72891952D01*
X125403428Y-72867761D01*
X124943809Y-73351571D02*
X124943809Y-73666047D01*
X125137333Y-73496714D01*
X125137333Y-73569285D01*
X125161523Y-73617666D01*
X125185714Y-73641857D01*
X125234095Y-73666047D01*
X125355047Y-73666047D01*
X125403428Y-73641857D01*
X125427619Y-73617666D01*
X125451809Y-73569285D01*
X125451809Y-73424142D01*
X125427619Y-73375761D01*
X125403428Y-73351571D01*
X122325190Y-72190428D02*
X122301000Y-72214619D01*
X122276809Y-72263000D01*
X122276809Y-72383952D01*
X122301000Y-72432333D01*
X122325190Y-72456523D01*
X122373571Y-72480714D01*
X122421952Y-72480714D01*
X122494523Y-72456523D01*
X122784809Y-72166238D01*
X122784809Y-72480714D01*
X122276809Y-72795190D02*
X122276809Y-72843571D01*
X122301000Y-72891952D01*
X122325190Y-72916142D01*
X122373571Y-72940333D01*
X122470333Y-72964523D01*
X122591285Y-72964523D01*
X122688047Y-72940333D01*
X122736428Y-72916142D01*
X122760619Y-72891952D01*
X122784809Y-72843571D01*
X122784809Y-72795190D01*
X122760619Y-72746809D01*
X122736428Y-72722619D01*
X122688047Y-72698428D01*
X122591285Y-72674238D01*
X122470333Y-72674238D01*
X122373571Y-72698428D01*
X122325190Y-72722619D01*
X122301000Y-72746809D01*
X122276809Y-72795190D01*
X122276809Y-73424142D02*
X122276809Y-73182238D01*
X122518714Y-73158047D01*
X122494523Y-73182238D01*
X122470333Y-73230619D01*
X122470333Y-73351571D01*
X122494523Y-73399952D01*
X122518714Y-73424142D01*
X122567095Y-73448333D01*
X122688047Y-73448333D01*
X122736428Y-73424142D01*
X122760619Y-73399952D01*
X122784809Y-73351571D01*
X122784809Y-73230619D01*
X122760619Y-73182238D01*
X122736428Y-73158047D01*
X122784809Y-73666047D02*
X122276809Y-73666047D01*
X122591285Y-73714428D02*
X122784809Y-73859571D01*
X122446142Y-73859571D02*
X122639666Y-73666047D01*
%TO.C,R34*%
X94941571Y-103226809D02*
X95110904Y-102984904D01*
X95231857Y-103226809D02*
X95231857Y-102718809D01*
X95038333Y-102718809D01*
X94989952Y-102743000D01*
X94965761Y-102767190D01*
X94941571Y-102815571D01*
X94941571Y-102888142D01*
X94965761Y-102936523D01*
X94989952Y-102960714D01*
X95038333Y-102984904D01*
X95231857Y-102984904D01*
X94772238Y-102718809D02*
X94457761Y-102718809D01*
X94627095Y-102912333D01*
X94554523Y-102912333D01*
X94506142Y-102936523D01*
X94481952Y-102960714D01*
X94457761Y-103009095D01*
X94457761Y-103130047D01*
X94481952Y-103178428D01*
X94506142Y-103202619D01*
X94554523Y-103226809D01*
X94699666Y-103226809D01*
X94748047Y-103202619D01*
X94772238Y-103178428D01*
X94022333Y-102888142D02*
X94022333Y-103226809D01*
X94143285Y-102694619D02*
X94264238Y-103057476D01*
X93949761Y-103057476D01*
X95268142Y-100051809D02*
X94953666Y-100051809D01*
X95123000Y-100245333D01*
X95050428Y-100245333D01*
X95002047Y-100269523D01*
X94977857Y-100293714D01*
X94953666Y-100342095D01*
X94953666Y-100463047D01*
X94977857Y-100511428D01*
X95002047Y-100535619D01*
X95050428Y-100559809D01*
X95195571Y-100559809D01*
X95243952Y-100535619D01*
X95268142Y-100511428D01*
X94711761Y-100559809D02*
X94615000Y-100559809D01*
X94566619Y-100535619D01*
X94542428Y-100511428D01*
X94494047Y-100438857D01*
X94469857Y-100342095D01*
X94469857Y-100148571D01*
X94494047Y-100100190D01*
X94518238Y-100076000D01*
X94566619Y-100051809D01*
X94663380Y-100051809D01*
X94711761Y-100076000D01*
X94735952Y-100100190D01*
X94760142Y-100148571D01*
X94760142Y-100269523D01*
X94735952Y-100317904D01*
X94711761Y-100342095D01*
X94663380Y-100366285D01*
X94566619Y-100366285D01*
X94518238Y-100342095D01*
X94494047Y-100317904D01*
X94469857Y-100269523D01*
X94155380Y-100051809D02*
X94107000Y-100051809D01*
X94058619Y-100076000D01*
X94034428Y-100100190D01*
X94010238Y-100148571D01*
X93986047Y-100245333D01*
X93986047Y-100366285D01*
X94010238Y-100463047D01*
X94034428Y-100511428D01*
X94058619Y-100535619D01*
X94107000Y-100559809D01*
X94155380Y-100559809D01*
X94203761Y-100535619D01*
X94227952Y-100511428D01*
X94252142Y-100463047D01*
X94276333Y-100366285D01*
X94276333Y-100245333D01*
X94252142Y-100148571D01*
X94227952Y-100100190D01*
X94203761Y-100076000D01*
X94155380Y-100051809D01*
%TO.C,R35*%
X125451809Y-59363428D02*
X125209904Y-59194095D01*
X125451809Y-59073142D02*
X124943809Y-59073142D01*
X124943809Y-59266666D01*
X124968000Y-59315047D01*
X124992190Y-59339238D01*
X125040571Y-59363428D01*
X125113142Y-59363428D01*
X125161523Y-59339238D01*
X125185714Y-59315047D01*
X125209904Y-59266666D01*
X125209904Y-59073142D01*
X124943809Y-59532761D02*
X124943809Y-59847238D01*
X125137333Y-59677904D01*
X125137333Y-59750476D01*
X125161523Y-59798857D01*
X125185714Y-59823047D01*
X125234095Y-59847238D01*
X125355047Y-59847238D01*
X125403428Y-59823047D01*
X125427619Y-59798857D01*
X125451809Y-59750476D01*
X125451809Y-59605333D01*
X125427619Y-59556952D01*
X125403428Y-59532761D01*
X124943809Y-60306857D02*
X124943809Y-60064952D01*
X125185714Y-60040761D01*
X125161523Y-60064952D01*
X125137333Y-60113333D01*
X125137333Y-60234285D01*
X125161523Y-60282666D01*
X125185714Y-60306857D01*
X125234095Y-60331047D01*
X125355047Y-60331047D01*
X125403428Y-60306857D01*
X125427619Y-60282666D01*
X125451809Y-60234285D01*
X125451809Y-60113333D01*
X125427619Y-60064952D01*
X125403428Y-60040761D01*
X122784809Y-59145714D02*
X122784809Y-58855428D01*
X122784809Y-59000571D02*
X122276809Y-59000571D01*
X122349380Y-58952190D01*
X122397761Y-58903809D01*
X122421952Y-58855428D01*
X122276809Y-59605333D02*
X122276809Y-59363428D01*
X122518714Y-59339238D01*
X122494523Y-59363428D01*
X122470333Y-59411809D01*
X122470333Y-59532761D01*
X122494523Y-59581142D01*
X122518714Y-59605333D01*
X122567095Y-59629523D01*
X122688047Y-59629523D01*
X122736428Y-59605333D01*
X122760619Y-59581142D01*
X122784809Y-59532761D01*
X122784809Y-59411809D01*
X122760619Y-59363428D01*
X122736428Y-59339238D01*
X122276809Y-59944000D02*
X122276809Y-59992380D01*
X122301000Y-60040761D01*
X122325190Y-60064952D01*
X122373571Y-60089142D01*
X122470333Y-60113333D01*
X122591285Y-60113333D01*
X122688047Y-60089142D01*
X122736428Y-60064952D01*
X122760619Y-60040761D01*
X122784809Y-59992380D01*
X122784809Y-59944000D01*
X122760619Y-59895619D01*
X122736428Y-59871428D01*
X122688047Y-59847238D01*
X122591285Y-59823047D01*
X122470333Y-59823047D01*
X122373571Y-59847238D01*
X122325190Y-59871428D01*
X122301000Y-59895619D01*
X122276809Y-59944000D01*
X122784809Y-60331047D02*
X122276809Y-60331047D01*
X122591285Y-60379428D02*
X122784809Y-60524571D01*
X122446142Y-60524571D02*
X122639666Y-60331047D01*
%TO.C,R36*%
X125451809Y-61268428D02*
X125209904Y-61099095D01*
X125451809Y-60978142D02*
X124943809Y-60978142D01*
X124943809Y-61171666D01*
X124968000Y-61220047D01*
X124992190Y-61244238D01*
X125040571Y-61268428D01*
X125113142Y-61268428D01*
X125161523Y-61244238D01*
X125185714Y-61220047D01*
X125209904Y-61171666D01*
X125209904Y-60978142D01*
X124943809Y-61437761D02*
X124943809Y-61752238D01*
X125137333Y-61582904D01*
X125137333Y-61655476D01*
X125161523Y-61703857D01*
X125185714Y-61728047D01*
X125234095Y-61752238D01*
X125355047Y-61752238D01*
X125403428Y-61728047D01*
X125427619Y-61703857D01*
X125451809Y-61655476D01*
X125451809Y-61510333D01*
X125427619Y-61461952D01*
X125403428Y-61437761D01*
X124943809Y-62187666D02*
X124943809Y-62090904D01*
X124968000Y-62042523D01*
X124992190Y-62018333D01*
X125064761Y-61969952D01*
X125161523Y-61945761D01*
X125355047Y-61945761D01*
X125403428Y-61969952D01*
X125427619Y-61994142D01*
X125451809Y-62042523D01*
X125451809Y-62139285D01*
X125427619Y-62187666D01*
X125403428Y-62211857D01*
X125355047Y-62236047D01*
X125234095Y-62236047D01*
X125185714Y-62211857D01*
X125161523Y-62187666D01*
X125137333Y-62139285D01*
X125137333Y-62042523D01*
X125161523Y-61994142D01*
X125185714Y-61969952D01*
X125234095Y-61945761D01*
X122784809Y-61050714D02*
X122784809Y-60760428D01*
X122784809Y-60905571D02*
X122276809Y-60905571D01*
X122349380Y-60857190D01*
X122397761Y-60808809D01*
X122421952Y-60760428D01*
X122276809Y-61510333D02*
X122276809Y-61268428D01*
X122518714Y-61244238D01*
X122494523Y-61268428D01*
X122470333Y-61316809D01*
X122470333Y-61437761D01*
X122494523Y-61486142D01*
X122518714Y-61510333D01*
X122567095Y-61534523D01*
X122688047Y-61534523D01*
X122736428Y-61510333D01*
X122760619Y-61486142D01*
X122784809Y-61437761D01*
X122784809Y-61316809D01*
X122760619Y-61268428D01*
X122736428Y-61244238D01*
X122276809Y-61849000D02*
X122276809Y-61897380D01*
X122301000Y-61945761D01*
X122325190Y-61969952D01*
X122373571Y-61994142D01*
X122470333Y-62018333D01*
X122591285Y-62018333D01*
X122688047Y-61994142D01*
X122736428Y-61969952D01*
X122760619Y-61945761D01*
X122784809Y-61897380D01*
X122784809Y-61849000D01*
X122760619Y-61800619D01*
X122736428Y-61776428D01*
X122688047Y-61752238D01*
X122591285Y-61728047D01*
X122470333Y-61728047D01*
X122373571Y-61752238D01*
X122325190Y-61776428D01*
X122301000Y-61800619D01*
X122276809Y-61849000D01*
X122784809Y-62236047D02*
X122276809Y-62236047D01*
X122591285Y-62284428D02*
X122784809Y-62429571D01*
X122446142Y-62429571D02*
X122639666Y-62236047D01*
%TO.C,R37*%
X125451809Y-65078428D02*
X125209904Y-64909095D01*
X125451809Y-64788142D02*
X124943809Y-64788142D01*
X124943809Y-64981666D01*
X124968000Y-65030047D01*
X124992190Y-65054238D01*
X125040571Y-65078428D01*
X125113142Y-65078428D01*
X125161523Y-65054238D01*
X125185714Y-65030047D01*
X125209904Y-64981666D01*
X125209904Y-64788142D01*
X124943809Y-65247761D02*
X124943809Y-65562238D01*
X125137333Y-65392904D01*
X125137333Y-65465476D01*
X125161523Y-65513857D01*
X125185714Y-65538047D01*
X125234095Y-65562238D01*
X125355047Y-65562238D01*
X125403428Y-65538047D01*
X125427619Y-65513857D01*
X125451809Y-65465476D01*
X125451809Y-65320333D01*
X125427619Y-65271952D01*
X125403428Y-65247761D01*
X124943809Y-65731571D02*
X124943809Y-66070238D01*
X125451809Y-65852523D01*
X122325190Y-64570428D02*
X122301000Y-64594619D01*
X122276809Y-64643000D01*
X122276809Y-64763952D01*
X122301000Y-64812333D01*
X122325190Y-64836523D01*
X122373571Y-64860714D01*
X122421952Y-64860714D01*
X122494523Y-64836523D01*
X122784809Y-64546238D01*
X122784809Y-64860714D01*
X122276809Y-65175190D02*
X122276809Y-65223571D01*
X122301000Y-65271952D01*
X122325190Y-65296142D01*
X122373571Y-65320333D01*
X122470333Y-65344523D01*
X122591285Y-65344523D01*
X122688047Y-65320333D01*
X122736428Y-65296142D01*
X122760619Y-65271952D01*
X122784809Y-65223571D01*
X122784809Y-65175190D01*
X122760619Y-65126809D01*
X122736428Y-65102619D01*
X122688047Y-65078428D01*
X122591285Y-65054238D01*
X122470333Y-65054238D01*
X122373571Y-65078428D01*
X122325190Y-65102619D01*
X122301000Y-65126809D01*
X122276809Y-65175190D01*
X122276809Y-65804142D02*
X122276809Y-65562238D01*
X122518714Y-65538047D01*
X122494523Y-65562238D01*
X122470333Y-65610619D01*
X122470333Y-65731571D01*
X122494523Y-65779952D01*
X122518714Y-65804142D01*
X122567095Y-65828333D01*
X122688047Y-65828333D01*
X122736428Y-65804142D01*
X122760619Y-65779952D01*
X122784809Y-65731571D01*
X122784809Y-65610619D01*
X122760619Y-65562238D01*
X122736428Y-65538047D01*
X122784809Y-66046047D02*
X122276809Y-66046047D01*
X122591285Y-66094428D02*
X122784809Y-66239571D01*
X122446142Y-66239571D02*
X122639666Y-66046047D01*
%TD*%
%LPC*%
D16*
%TO.C,TEENSY1*%
X100965000Y-127000000D03*
X100965000Y-124460000D03*
X100965000Y-121920000D03*
X100965000Y-119380000D03*
X100965000Y-116840000D03*
X100965000Y-114300000D03*
X100965000Y-111760000D03*
X100965000Y-109220000D03*
X100965000Y-106680000D03*
X100965000Y-104140000D03*
X100965000Y-101600000D03*
X100965000Y-99060000D03*
X100965000Y-96520000D03*
X100965000Y-93980000D03*
X116205000Y-93980000D03*
X116205000Y-96520000D03*
X116205000Y-99060000D03*
X116205000Y-101600000D03*
X116205000Y-104140000D03*
X116205000Y-106680000D03*
X116205000Y-109220000D03*
X116205000Y-111760000D03*
X116205000Y-114300000D03*
X116205000Y-116840000D03*
X116205000Y-119380000D03*
X116205000Y-121920000D03*
X116205000Y-124460000D03*
D17*
X116205000Y-127000000D03*
%TD*%
D18*
%TO.C,S1*%
X52705000Y-75565000D03*
X52705000Y-78105000D03*
%TD*%
%TO.C,S2*%
X52705000Y-67945000D03*
X52705000Y-70485000D03*
%TD*%
%TO.C,S3*%
X52705000Y-60325000D03*
X52705000Y-62865000D03*
%TD*%
%TO.C,S4*%
X80645000Y-75565000D03*
X80645000Y-78105000D03*
%TD*%
%TO.C,S5*%
X80645000Y-67945000D03*
X80645000Y-70485000D03*
%TD*%
%TO.C,S6*%
X80645000Y-60325000D03*
X80645000Y-62865000D03*
%TD*%
%TO.C,S7*%
X108585000Y-75565000D03*
X108585000Y-78105000D03*
%TD*%
%TO.C,S8*%
X108585000Y-67945000D03*
X108585000Y-70485000D03*
%TD*%
%TO.C,S9*%
X108585000Y-60325000D03*
X108585000Y-62865000D03*
%TD*%
D19*
%TO.C,P1*%
X67945000Y-124635000D03*
%TD*%
D20*
%TO.C,U1*%
X59537600Y-76200000D03*
X59537600Y-77470000D03*
X59537600Y-78740000D03*
X59537600Y-80010000D03*
X64922400Y-80010000D03*
X64922400Y-78740000D03*
X64922400Y-77470000D03*
X64922400Y-76200000D03*
%TD*%
%TO.C,U2*%
X59537600Y-68580000D03*
X59537600Y-69850000D03*
X59537600Y-71120000D03*
X59537600Y-72390000D03*
X64922400Y-72390000D03*
X64922400Y-71120000D03*
X64922400Y-69850000D03*
X64922400Y-68580000D03*
%TD*%
%TO.C,U3*%
X59537600Y-60960000D03*
X59537600Y-62230000D03*
X59537600Y-63500000D03*
X59537600Y-64770000D03*
X64922400Y-64770000D03*
X64922400Y-63500000D03*
X64922400Y-62230000D03*
X64922400Y-60960000D03*
%TD*%
%TO.C,U4*%
X87477600Y-76200000D03*
X87477600Y-77470000D03*
X87477600Y-78740000D03*
X87477600Y-80010000D03*
X92862400Y-80010000D03*
X92862400Y-78740000D03*
X92862400Y-77470000D03*
X92862400Y-76200000D03*
%TD*%
%TO.C,U5*%
X87477600Y-68580000D03*
X87477600Y-69850000D03*
X87477600Y-71120000D03*
X87477600Y-72390000D03*
X92862400Y-72390000D03*
X92862400Y-71120000D03*
X92862400Y-69850000D03*
X92862400Y-68580000D03*
%TD*%
%TO.C,U6*%
X87477600Y-60960000D03*
X87477600Y-62230000D03*
X87477600Y-63500000D03*
X87477600Y-64770000D03*
X92862400Y-64770000D03*
X92862400Y-63500000D03*
X92862400Y-62230000D03*
X92862400Y-60960000D03*
%TD*%
%TO.C,U7*%
X115417600Y-76200000D03*
X115417600Y-77470000D03*
X115417600Y-78740000D03*
X115417600Y-80010000D03*
X120802400Y-80010000D03*
X120802400Y-78740000D03*
X120802400Y-77470000D03*
X120802400Y-76200000D03*
%TD*%
%TO.C,U8*%
X115417600Y-68580000D03*
X115417600Y-69850000D03*
X115417600Y-71120000D03*
X115417600Y-72390000D03*
X120802400Y-72390000D03*
X120802400Y-71120000D03*
X120802400Y-69850000D03*
X120802400Y-68580000D03*
%TD*%
%TO.C,U9*%
X115417600Y-60960000D03*
X115417600Y-62230000D03*
X115417600Y-63500000D03*
X115417600Y-64770000D03*
X120802400Y-64770000D03*
X120802400Y-63500000D03*
X120802400Y-62230000D03*
X120802400Y-60960000D03*
%TD*%
D21*
%TO.C,D3*%
X81915000Y-112260000D03*
X81915000Y-111260000D03*
%TD*%
%TO.C,D4*%
X56515000Y-77335000D03*
X56515000Y-76335000D03*
%TD*%
%TO.C,D5*%
X81915000Y-107180000D03*
X81915000Y-106180000D03*
%TD*%
%TO.C,D6*%
X56515000Y-69715000D03*
X56515000Y-68715000D03*
%TD*%
%TO.C,D7*%
X81915000Y-102100000D03*
X81915000Y-101100000D03*
%TD*%
%TO.C,D8*%
X56515000Y-62095000D03*
X56515000Y-61095000D03*
%TD*%
%TO.C,D9*%
X86995000Y-112260000D03*
X86995000Y-111260000D03*
%TD*%
%TO.C,D10*%
X84455000Y-77335000D03*
X84455000Y-76335000D03*
%TD*%
%TO.C,D11*%
X86995000Y-107180000D03*
X86995000Y-106180000D03*
%TD*%
%TO.C,D12*%
X84455000Y-69715000D03*
X84455000Y-68715000D03*
%TD*%
%TO.C,D13*%
X86995000Y-102100000D03*
X86995000Y-101100000D03*
%TD*%
%TO.C,D14*%
X84455000Y-62095000D03*
X84455000Y-61095000D03*
%TD*%
%TO.C,D15*%
X92075000Y-112260000D03*
X92075000Y-111260000D03*
%TD*%
%TO.C,D16*%
X112395000Y-77335000D03*
X112395000Y-76335000D03*
%TD*%
%TO.C,D17*%
X92075000Y-107180000D03*
X92075000Y-106180000D03*
%TD*%
%TO.C,D18*%
X112395000Y-69715000D03*
X112395000Y-68715000D03*
%TD*%
%TO.C,D19*%
X92075000Y-102100000D03*
X92075000Y-101100000D03*
%TD*%
%TO.C,D20*%
X112395000Y-62095000D03*
X112395000Y-61095000D03*
%TD*%
D22*
%TO.C,C2*%
X62730000Y-81915000D03*
X61730000Y-81915000D03*
%TD*%
%TO.C,C4*%
X62730000Y-74295000D03*
X61730000Y-74295000D03*
%TD*%
%TO.C,C6*%
X62730000Y-66675000D03*
X61730000Y-66675000D03*
%TD*%
%TO.C,C8*%
X90670000Y-81915000D03*
X89670000Y-81915000D03*
%TD*%
%TO.C,C10*%
X90670000Y-74295000D03*
X89670000Y-74295000D03*
%TD*%
%TO.C,C12*%
X90670000Y-66675000D03*
X89670000Y-66675000D03*
%TD*%
%TO.C,C14*%
X118610000Y-81915000D03*
X117610000Y-81915000D03*
%TD*%
%TO.C,C16*%
X118610000Y-74295000D03*
X117610000Y-74295000D03*
%TD*%
%TO.C,C18*%
X118610000Y-66675000D03*
X117610000Y-66675000D03*
%TD*%
%TO.C,C3*%
X68445000Y-78740000D03*
X67445000Y-78740000D03*
%TD*%
%TO.C,C5*%
X68445000Y-71120000D03*
X67445000Y-71120000D03*
%TD*%
%TO.C,C7*%
X68445000Y-63500000D03*
X67445000Y-63500000D03*
%TD*%
%TO.C,C9*%
X96385000Y-78740000D03*
X95385000Y-78740000D03*
%TD*%
%TO.C,C11*%
X96385000Y-71120000D03*
X95385000Y-71120000D03*
%TD*%
%TO.C,C13*%
X96385000Y-63500000D03*
X95385000Y-63500000D03*
%TD*%
%TO.C,C15*%
X124325000Y-78740000D03*
X123325000Y-78740000D03*
%TD*%
%TO.C,C17*%
X124325000Y-71120000D03*
X123325000Y-71120000D03*
%TD*%
%TO.C,C19*%
X124325000Y-63500000D03*
X123325000Y-63500000D03*
%TD*%
%TO.C,R3*%
X68445000Y-74930000D03*
X67445000Y-74930000D03*
%TD*%
%TO.C,R4*%
X68445000Y-76835000D03*
X67445000Y-76835000D03*
%TD*%
D21*
%TO.C,R6*%
X84455000Y-107180000D03*
X84455000Y-106180000D03*
%TD*%
D22*
%TO.C,R7*%
X68445000Y-67310000D03*
X67445000Y-67310000D03*
%TD*%
%TO.C,R9*%
X68445000Y-73025000D03*
X67445000Y-73025000D03*
%TD*%
D21*
%TO.C,R10*%
X84455000Y-102100000D03*
X84455000Y-101100000D03*
%TD*%
D22*
%TO.C,R12*%
X68445000Y-61595000D03*
X67445000Y-61595000D03*
%TD*%
%TO.C,R13*%
X68445000Y-65405000D03*
X67445000Y-65405000D03*
%TD*%
%TO.C,R15*%
X96385000Y-74930000D03*
X95385000Y-74930000D03*
%TD*%
%TO.C,R16*%
X96385000Y-76835000D03*
X95385000Y-76835000D03*
%TD*%
D21*
%TO.C,R18*%
X89535000Y-107180000D03*
X89535000Y-106180000D03*
%TD*%
D22*
%TO.C,R19*%
X96385000Y-67310000D03*
X95385000Y-67310000D03*
%TD*%
%TO.C,R21*%
X96385000Y-73025000D03*
X95385000Y-73025000D03*
%TD*%
D21*
%TO.C,R22*%
X89535000Y-102100000D03*
X89535000Y-101100000D03*
%TD*%
D22*
%TO.C,R24*%
X96385000Y-61595000D03*
X95385000Y-61595000D03*
%TD*%
%TO.C,R25*%
X96385000Y-65405000D03*
X95385000Y-65405000D03*
%TD*%
%TO.C,R27*%
X124325000Y-74930000D03*
X123325000Y-74930000D03*
%TD*%
%TO.C,R28*%
X124325000Y-76835000D03*
X123325000Y-76835000D03*
%TD*%
D21*
%TO.C,R2*%
X84455000Y-112260000D03*
X84455000Y-111260000D03*
%TD*%
D22*
%TO.C,R5*%
X68445000Y-80645000D03*
X67445000Y-80645000D03*
%TD*%
%TO.C,R8*%
X68445000Y-69215000D03*
X67445000Y-69215000D03*
%TD*%
%TO.C,R11*%
X68445000Y-59690000D03*
X67445000Y-59690000D03*
%TD*%
D21*
%TO.C,R14*%
X89535000Y-112260000D03*
X89535000Y-111260000D03*
%TD*%
D22*
%TO.C,R17*%
X96385000Y-80645000D03*
X95385000Y-80645000D03*
%TD*%
%TO.C,R20*%
X96385000Y-69215000D03*
X95385000Y-69215000D03*
%TD*%
%TO.C,R23*%
X96385000Y-59690000D03*
X95385000Y-59690000D03*
%TD*%
D21*
%TO.C,R26*%
X94615000Y-112260000D03*
X94615000Y-111260000D03*
%TD*%
%TO.C,R1*%
X80645000Y-124325000D03*
X80645000Y-123325000D03*
%TD*%
D23*
%TO.C,MH1*%
X92710000Y-85090000D03*
%TD*%
%TO.C,MH2*%
X64770000Y-56515000D03*
%TD*%
%TO.C,MH3*%
X120650000Y-56515000D03*
%TD*%
D24*
%TO.C,D2*%
X78105000Y-124845000D03*
D25*
X79170000Y-121045000D03*
X77040000Y-121045000D03*
%TD*%
D22*
%TO.C,R29*%
X123325000Y-80645000D03*
X124325000Y-80645000D03*
%TD*%
D21*
%TO.C,R30*%
X94615000Y-107180000D03*
X94615000Y-106180000D03*
%TD*%
D22*
%TO.C,R31*%
X123325000Y-67310000D03*
X124325000Y-67310000D03*
%TD*%
%TO.C,R32*%
X123325000Y-69215000D03*
X124325000Y-69215000D03*
%TD*%
%TO.C,R33*%
X124325000Y-73025000D03*
X123325000Y-73025000D03*
%TD*%
D21*
%TO.C,R34*%
X94615000Y-102100000D03*
X94615000Y-101100000D03*
%TD*%
D22*
%TO.C,R35*%
X123325000Y-59690000D03*
X124325000Y-59690000D03*
%TD*%
%TO.C,R36*%
X123325000Y-61595000D03*
X124325000Y-61595000D03*
%TD*%
%TO.C,R37*%
X124325000Y-65405000D03*
X123325000Y-65405000D03*
%TD*%
M02*
