%TF.GenerationSoftware,KiCad,Pcbnew,5.1.6-c6e7f7d~87~ubuntu20.04.1*%
%TF.CreationDate,2020-08-03T15:13:37-04:00*%
%TF.ProjectId,y_arena_valve_controller,795f6172-656e-4615-9f76-616c76655f63,1.2*%
%TF.SameCoordinates,Original*%
%TF.FileFunction,Soldermask,Bot*%
%TF.FilePolarity,Negative*%
%FSLAX46Y46*%
G04 Gerber Fmt 4.6, Leading zero omitted, Abs format (unit mm)*
G04 Created by KiCad (PCBNEW 5.1.6-c6e7f7d~87~ubuntu20.04.1) date 2020-08-03 15:13:37*
%MOMM*%
%LPD*%
G01*
G04 APERTURE LIST*
%ADD10C,2.386000*%
%ADD11O,2.640000X2.284400*%
%ADD12R,2.640000X2.284400*%
%ADD13C,3.100000*%
%ADD14R,1.649400X0.699440*%
%ADD15R,0.800000X0.700000*%
%ADD16R,0.700000X0.800000*%
%ADD17C,3.656000*%
G04 APERTURE END LIST*
D10*
%TO.C,S1*%
X52705000Y-75565000D03*
X52705000Y-78105000D03*
%TD*%
%TO.C,S2*%
X52705000Y-67945000D03*
X52705000Y-70485000D03*
%TD*%
%TO.C,S3*%
X52705000Y-60325000D03*
X52705000Y-62865000D03*
%TD*%
%TO.C,S4*%
X80645000Y-75565000D03*
X80645000Y-78105000D03*
%TD*%
%TO.C,S5*%
X80645000Y-67945000D03*
X80645000Y-70485000D03*
%TD*%
%TO.C,S6*%
X80645000Y-60325000D03*
X80645000Y-62865000D03*
%TD*%
%TO.C,S7*%
X108585000Y-75565000D03*
X108585000Y-78105000D03*
%TD*%
%TO.C,S8*%
X108585000Y-67945000D03*
X108585000Y-70485000D03*
%TD*%
%TO.C,S9*%
X108585000Y-60325000D03*
X108585000Y-62865000D03*
%TD*%
D11*
%TO.C,TEENSY1*%
X100965000Y-129540000D03*
X100965000Y-127000000D03*
X100965000Y-124460000D03*
X100965000Y-121920000D03*
X100965000Y-119380000D03*
X100965000Y-116840000D03*
X100965000Y-114300000D03*
X100965000Y-111760000D03*
X100965000Y-109220000D03*
X100965000Y-106680000D03*
X100965000Y-104140000D03*
X100965000Y-101600000D03*
X100965000Y-99060000D03*
X100965000Y-96520000D03*
X116205000Y-96520000D03*
X116205000Y-99060000D03*
X116205000Y-101600000D03*
X116205000Y-104140000D03*
X116205000Y-106680000D03*
X116205000Y-109220000D03*
X116205000Y-111760000D03*
X116205000Y-114300000D03*
X116205000Y-116840000D03*
X116205000Y-119380000D03*
X116205000Y-121920000D03*
X116205000Y-124460000D03*
X116205000Y-127000000D03*
D12*
X116205000Y-129540000D03*
%TD*%
D13*
%TO.C,P1*%
X67945000Y-127175000D03*
%TD*%
D14*
%TO.C,U1*%
X59537600Y-76200000D03*
X59537600Y-77470000D03*
X59537600Y-78740000D03*
X59537600Y-80010000D03*
X64922400Y-80010000D03*
X64922400Y-78740000D03*
X64922400Y-77470000D03*
X64922400Y-76200000D03*
%TD*%
%TO.C,U2*%
X59537600Y-68580000D03*
X59537600Y-69850000D03*
X59537600Y-71120000D03*
X59537600Y-72390000D03*
X64922400Y-72390000D03*
X64922400Y-71120000D03*
X64922400Y-69850000D03*
X64922400Y-68580000D03*
%TD*%
%TO.C,U3*%
X59537600Y-60960000D03*
X59537600Y-62230000D03*
X59537600Y-63500000D03*
X59537600Y-64770000D03*
X64922400Y-64770000D03*
X64922400Y-63500000D03*
X64922400Y-62230000D03*
X64922400Y-60960000D03*
%TD*%
%TO.C,U4*%
X87477600Y-76200000D03*
X87477600Y-77470000D03*
X87477600Y-78740000D03*
X87477600Y-80010000D03*
X92862400Y-80010000D03*
X92862400Y-78740000D03*
X92862400Y-77470000D03*
X92862400Y-76200000D03*
%TD*%
%TO.C,U5*%
X87477600Y-68580000D03*
X87477600Y-69850000D03*
X87477600Y-71120000D03*
X87477600Y-72390000D03*
X92862400Y-72390000D03*
X92862400Y-71120000D03*
X92862400Y-69850000D03*
X92862400Y-68580000D03*
%TD*%
%TO.C,U6*%
X87477600Y-60960000D03*
X87477600Y-62230000D03*
X87477600Y-63500000D03*
X87477600Y-64770000D03*
X92862400Y-64770000D03*
X92862400Y-63500000D03*
X92862400Y-62230000D03*
X92862400Y-60960000D03*
%TD*%
%TO.C,U7*%
X115417600Y-76200000D03*
X115417600Y-77470000D03*
X115417600Y-78740000D03*
X115417600Y-80010000D03*
X120802400Y-80010000D03*
X120802400Y-78740000D03*
X120802400Y-77470000D03*
X120802400Y-76200000D03*
%TD*%
%TO.C,U8*%
X115417600Y-68580000D03*
X115417600Y-69850000D03*
X115417600Y-71120000D03*
X115417600Y-72390000D03*
X120802400Y-72390000D03*
X120802400Y-71120000D03*
X120802400Y-69850000D03*
X120802400Y-68580000D03*
%TD*%
%TO.C,U9*%
X115417600Y-60960000D03*
X115417600Y-62230000D03*
X115417600Y-63500000D03*
X115417600Y-64770000D03*
X120802400Y-64770000D03*
X120802400Y-63500000D03*
X120802400Y-62230000D03*
X120802400Y-60960000D03*
%TD*%
D15*
%TO.C,D3*%
X81915000Y-114800000D03*
X81915000Y-113800000D03*
%TD*%
%TO.C,D4*%
X56515000Y-77335000D03*
X56515000Y-76335000D03*
%TD*%
%TO.C,D5*%
X81915000Y-109720000D03*
X81915000Y-108720000D03*
%TD*%
%TO.C,D6*%
X56515000Y-69715000D03*
X56515000Y-68715000D03*
%TD*%
%TO.C,D7*%
X81915000Y-104640000D03*
X81915000Y-103640000D03*
%TD*%
%TO.C,D8*%
X56515000Y-62095000D03*
X56515000Y-61095000D03*
%TD*%
%TO.C,D9*%
X86995000Y-114800000D03*
X86995000Y-113800000D03*
%TD*%
%TO.C,D10*%
X84455000Y-77335000D03*
X84455000Y-76335000D03*
%TD*%
%TO.C,D11*%
X86995000Y-109720000D03*
X86995000Y-108720000D03*
%TD*%
%TO.C,D12*%
X84455000Y-69715000D03*
X84455000Y-68715000D03*
%TD*%
%TO.C,D13*%
X86995000Y-104640000D03*
X86995000Y-103640000D03*
%TD*%
%TO.C,D14*%
X84455000Y-62095000D03*
X84455000Y-61095000D03*
%TD*%
%TO.C,D15*%
X92075000Y-114800000D03*
X92075000Y-113800000D03*
%TD*%
%TO.C,D16*%
X112395000Y-77335000D03*
X112395000Y-76335000D03*
%TD*%
%TO.C,D17*%
X92075000Y-109720000D03*
X92075000Y-108720000D03*
%TD*%
%TO.C,D18*%
X112395000Y-69715000D03*
X112395000Y-68715000D03*
%TD*%
%TO.C,D19*%
X92075000Y-104640000D03*
X92075000Y-103640000D03*
%TD*%
%TO.C,D20*%
X112395000Y-62095000D03*
X112395000Y-61095000D03*
%TD*%
D16*
%TO.C,C2*%
X62730000Y-81915000D03*
X61730000Y-81915000D03*
%TD*%
%TO.C,C4*%
X62730000Y-74295000D03*
X61730000Y-74295000D03*
%TD*%
%TO.C,C6*%
X62730000Y-66675000D03*
X61730000Y-66675000D03*
%TD*%
%TO.C,C8*%
X90670000Y-81915000D03*
X89670000Y-81915000D03*
%TD*%
%TO.C,C10*%
X90670000Y-74295000D03*
X89670000Y-74295000D03*
%TD*%
%TO.C,C12*%
X90670000Y-66675000D03*
X89670000Y-66675000D03*
%TD*%
%TO.C,C14*%
X118610000Y-81915000D03*
X117610000Y-81915000D03*
%TD*%
%TO.C,C16*%
X118610000Y-74295000D03*
X117610000Y-74295000D03*
%TD*%
%TO.C,C18*%
X118610000Y-66675000D03*
X117610000Y-66675000D03*
%TD*%
%TO.C,C3*%
X68445000Y-78105000D03*
X67445000Y-78105000D03*
%TD*%
%TO.C,C5*%
X68445000Y-70485000D03*
X67445000Y-70485000D03*
%TD*%
%TO.C,C7*%
X68445000Y-62865000D03*
X67445000Y-62865000D03*
%TD*%
%TO.C,C9*%
X96385000Y-78105000D03*
X95385000Y-78105000D03*
%TD*%
%TO.C,C11*%
X96385000Y-70485000D03*
X95385000Y-70485000D03*
%TD*%
%TO.C,C13*%
X96385000Y-62865000D03*
X95385000Y-62865000D03*
%TD*%
%TO.C,C15*%
X124325000Y-78105000D03*
X123325000Y-78105000D03*
%TD*%
%TO.C,C17*%
X124325000Y-70485000D03*
X123325000Y-70485000D03*
%TD*%
%TO.C,C19*%
X124325000Y-62865000D03*
X123325000Y-62865000D03*
%TD*%
%TO.C,R3*%
X68445000Y-75565000D03*
X67445000Y-75565000D03*
%TD*%
%TO.C,R4*%
X68445000Y-80645000D03*
X67445000Y-80645000D03*
%TD*%
%TO.C,R6*%
X68445000Y-67945000D03*
X67445000Y-67945000D03*
%TD*%
%TO.C,R7*%
X68445000Y-73025000D03*
X67445000Y-73025000D03*
%TD*%
%TO.C,R9*%
X68445000Y-60325000D03*
X67445000Y-60325000D03*
%TD*%
%TO.C,R10*%
X68445000Y-65405000D03*
X67445000Y-65405000D03*
%TD*%
%TO.C,R12*%
X96385000Y-75565000D03*
X95385000Y-75565000D03*
%TD*%
%TO.C,R13*%
X96385000Y-80645000D03*
X95385000Y-80645000D03*
%TD*%
%TO.C,R15*%
X96385000Y-67945000D03*
X95385000Y-67945000D03*
%TD*%
%TO.C,R16*%
X96385000Y-73025000D03*
X95385000Y-73025000D03*
%TD*%
%TO.C,R18*%
X96385000Y-60325000D03*
X95385000Y-60325000D03*
%TD*%
%TO.C,R19*%
X96385000Y-65405000D03*
X95385000Y-65405000D03*
%TD*%
%TO.C,R21*%
X124325000Y-75565000D03*
X123325000Y-75565000D03*
%TD*%
%TO.C,R22*%
X124325000Y-80645000D03*
X123325000Y-80645000D03*
%TD*%
%TO.C,R24*%
X124325000Y-67945000D03*
X123325000Y-67945000D03*
%TD*%
%TO.C,R25*%
X124325000Y-73025000D03*
X123325000Y-73025000D03*
%TD*%
%TO.C,R27*%
X124325000Y-60325000D03*
X123325000Y-60325000D03*
%TD*%
%TO.C,R28*%
X124325000Y-65405000D03*
X123325000Y-65405000D03*
%TD*%
D15*
%TO.C,R2*%
X84455000Y-114800000D03*
X84455000Y-113800000D03*
%TD*%
%TO.C,R5*%
X84455000Y-109720000D03*
X84455000Y-108720000D03*
%TD*%
%TO.C,R8*%
X84455000Y-104640000D03*
X84455000Y-103640000D03*
%TD*%
%TO.C,R11*%
X89535000Y-114800000D03*
X89535000Y-113800000D03*
%TD*%
%TO.C,R14*%
X89535000Y-109720000D03*
X89535000Y-108720000D03*
%TD*%
%TO.C,R17*%
X89535000Y-104640000D03*
X89535000Y-103640000D03*
%TD*%
%TO.C,R20*%
X94615000Y-114800000D03*
X94615000Y-113800000D03*
%TD*%
%TO.C,R23*%
X94615000Y-109720000D03*
X94615000Y-108720000D03*
%TD*%
%TO.C,R26*%
X94615000Y-104640000D03*
X94615000Y-103640000D03*
%TD*%
%TO.C,D2*%
X78105000Y-126865000D03*
X78105000Y-125865000D03*
%TD*%
%TO.C,R1*%
X80645000Y-126865000D03*
X80645000Y-125865000D03*
%TD*%
D17*
%TO.C,MH1*%
X92710000Y-85090000D03*
%TD*%
%TO.C,MH2*%
X64770000Y-56515000D03*
%TD*%
%TO.C,MH3*%
X120650000Y-56515000D03*
%TD*%
M02*
