%TF.GenerationSoftware,KiCad,Pcbnew,5.1.6-c6e7f7d~87~ubuntu20.04.1*%
%TF.CreationDate,2020-07-22T10:08:30-04:00*%
%TF.ProjectId,y_arena_valve_controller,795f6172-656e-4615-9f76-616c76655f63,1.1*%
%TF.SameCoordinates,Original*%
%TF.FileFunction,Soldermask,Bot*%
%TF.FilePolarity,Negative*%
%FSLAX46Y46*%
G04 Gerber Fmt 4.6, Leading zero omitted, Abs format (unit mm)*
G04 Created by KiCad (PCBNEW 5.1.6-c6e7f7d~87~ubuntu20.04.1) date 2020-07-22 10:08:30*
%MOMM*%
%LPD*%
G01*
G04 APERTURE LIST*
%ADD10C,2.386000*%
%ADD11O,2.132000X1.624000*%
%ADD12C,6.297600*%
%ADD13C,3.656000*%
%ADD14C,4.600000*%
%ADD15C,2.000000*%
G04 APERTURE END LIST*
D10*
%TO.C,S7*%
X108585000Y-75565000D03*
X108585000Y-78105000D03*
%TD*%
%TO.C,S1*%
X52705000Y-75565000D03*
X52705000Y-78105000D03*
%TD*%
%TO.C,S2*%
X52705000Y-67945000D03*
X52705000Y-70485000D03*
%TD*%
%TO.C,S3*%
X52705000Y-60325000D03*
X52705000Y-62865000D03*
%TD*%
%TO.C,S4*%
X80645000Y-75565000D03*
X80645000Y-78105000D03*
%TD*%
%TO.C,S5*%
X80645000Y-67945000D03*
X80645000Y-70485000D03*
%TD*%
%TO.C,S6*%
X80645000Y-60325000D03*
X80645000Y-62865000D03*
%TD*%
%TO.C,S8*%
X108585000Y-67945000D03*
X108585000Y-70485000D03*
%TD*%
%TO.C,S9*%
X108585000Y-60325000D03*
X108585000Y-62865000D03*
%TD*%
D11*
%TO.C,PHIDGET1*%
X75565000Y-99060000D03*
X75565000Y-111760000D03*
X75565000Y-137160000D03*
X75565000Y-129540000D03*
X75565000Y-116840000D03*
X75565000Y-114300000D03*
X75565000Y-134620000D03*
X75565000Y-121920000D03*
X75565000Y-119380000D03*
X75565000Y-132080000D03*
X75565000Y-109220000D03*
X75565000Y-127000000D03*
X75565000Y-101600000D03*
X75565000Y-104140000D03*
X75565000Y-106680000D03*
X75565000Y-124460000D03*
X100965000Y-99060000D03*
X100965000Y-101600000D03*
X100965000Y-137160000D03*
D12*
X59055000Y-135255000D03*
X59055000Y-69215000D03*
X117475000Y-69215000D03*
X117475000Y-135255000D03*
D11*
X100965000Y-104140000D03*
X100965000Y-106680000D03*
X100965000Y-109220000D03*
X100965000Y-111760000D03*
X100965000Y-114300000D03*
X100965000Y-116840000D03*
X100965000Y-119380000D03*
X100965000Y-121920000D03*
X100965000Y-124460000D03*
X100965000Y-127000000D03*
X100965000Y-129540000D03*
X100965000Y-132080000D03*
X100965000Y-134620000D03*
%TD*%
D13*
%TO.C,MH1*%
X92710000Y-85090000D03*
%TD*%
%TO.C,MH2*%
X64770000Y-56515000D03*
%TD*%
%TO.C,MH3*%
X120650000Y-56515000D03*
%TD*%
D14*
%TO.C,P1*%
X88265000Y-125730000D03*
D15*
X84165000Y-127730000D03*
X92365000Y-127730000D03*
%TD*%
M02*
