<?xml version="1.0" standalone="no"?>
 <!DOCTYPE svg PUBLIC "-//W3C//DTD SVG 1.1//EN" 
 "http://www.w3.org/Graphics/SVG/1.1/DTD/svg11.dtd"> 
<svg
  xmlns:svg="http://www.w3.org/2000/svg"
  xmlns="http://www.w3.org/2000/svg"
  xmlns:xlink="http://www.w3.org/1999/xlink"
  version="1.1"
  width="8.382000cm" height="8.890000cm" viewBox="0 0 33000 35000">
<title>SVG Picture created as y_arena_valve_controller-F_SilkS.svg date 2020/08/02 15:12:19 </title>
  <desc>Picture generated by PCBNEW </desc>
<g style="fill:#000000; fill-opacity:1;stroke:#000000; stroke-opacity:1;
stroke-linecap:round; stroke-linejoin:round;"
 transform="translate(0 0) scale(1 1)">
</g>
<g style="fill:#000000; fill-opacity:0.0; 
stroke:#000000; stroke-width:-0.000393701; stroke-opacity:1; 
stroke-linecap:round; stroke-linejoin:round;">
</g>
<g style="fill:#008484; fill-opacity:0.0; 
stroke:#008484; stroke-width:-0.000393701; stroke-opacity:1; 
stroke-linecap:round; stroke-linejoin:round;">
</g>
<g style="fill:#008484; fill-opacity:0.0; 
stroke:#008484; stroke-width:100; stroke-opacity:1; 
stroke-linecap:round; stroke-linejoin:round;">
<text x="13250" y="25200"
textLength="445.952" font-size="533.333" lengthAdjust="spacingAndGlyphs"
text-anchor="middle" opacity="0">1</text>
<path d="M13364 25180
L13135 25180
" />
<path d="M13250 25180
L13250 24780
L13211 24838
L13173 24876
L13135 24895
" />
<text x="13250" y="23200"
textLength="510.952" font-size="533.333" lengthAdjust="spacingAndGlyphs"
text-anchor="middle" opacity="0">2</text>
<path d="M13135 22819
L13154 22800
L13192 22780
L13288 22780
L13326 22800
L13345 22819
L13364 22857
L13364 22895
L13345 22952
L13116 23180
L13364 23180
" />
<text x="13250" y="27200"
textLength="510.952" font-size="533.333" lengthAdjust="spacingAndGlyphs"
text-anchor="middle" opacity="0">0</text>
<path d="M13230 26780
L13269 26780
L13307 26800
L13326 26819
L13345 26857
L13364 26933
L13364 27028
L13345 27104
L13326 27142
L13307 27161
L13269 27180
L13230 27180
L13192 27161
L13173 27142
L13154 27104
L13135 27028
L13135 26933
L13154 26857
L13173 26819
L13192 26800
L13230 26780
" />
<text x="18750" y="21700"
textLength="510.952" font-size="533.333" lengthAdjust="spacingAndGlyphs"
text-anchor="middle" opacity="0">2</text>
<path d="M18635 21319
L18654 21300
L18692 21280
L18788 21280
L18826 21300
L18845 21319
L18864 21357
L18864 21395
L18845 21452
L18616 21680
L18864 21680
" />
<text x="16750" y="21700"
textLength="510.952" font-size="533.333" lengthAdjust="spacingAndGlyphs"
text-anchor="middle" opacity="0">1</text>
<path d="M16864 21680
L16635 21680
" />
<path d="M16750 21680
L16750 21280
L16711 21338
L16673 21376
L16635 21395
" />
<text x="14750" y="21700"
textLength="510.952" font-size="533.333" lengthAdjust="spacingAndGlyphs"
text-anchor="middle" opacity="0">0</text>
<path d="M14730 21280
L14769 21280
L14807 21300
L14826 21319
L14845 21357
L14864 21433
L14864 21528
L14845 21604
L14826 21642
L14807 21661
L14769 21680
L14730 21680
L14692 21661
L14673 21642
L14654 21604
L14635 21528
L14635 21433
L14654 21357
L14673 21319
L14692 21300
L14730 21280
" />
<g transform="rotate(-90 12250 25000)">
<text x="12250" y="25200"
textLength="1844.29" font-size="533.333" lengthAdjust="spacingAndGlyphs"
text-anchor="middle" opacity="0">VALVE</text>
</g>
<path d="M12030 25819
L12430 25685
L12030 25552
" />
<path d="M12316 25438
L12316 25247
" />
<path d="M12430 25476
L12030 25342
L12430 25209
" />
<path d="M12430 24885
L12430 25076
L12030 25076
" />
<path d="M12030 24809
L12430 24676
L12030 24542
" />
<path d="M12221 24409
L12221 24276
" />
<path d="M12430 24219
L12430 24409
L12030 24409
L12030 24219
" />
<text x="16750" y="20700"
textLength="1330" font-size="533.333" lengthAdjust="spacingAndGlyphs"
text-anchor="middle" opacity="0">ARM</text>
<path d="M16226 20566
L16416 20566
" />
<path d="M16188 20680
L16321 20280
L16454 20680
" />
<path d="M16816 20680
L16683 20490
" />
<path d="M16588 20680
L16588 20280
L16740 20280
L16778 20300
L16797 20319
L16816 20357
L16816 20414
L16797 20452
L16778 20471
L16740 20490
L16588 20490
" />
<path d="M16988 20680
L16988 20280
L17121 20566
L17254 20280
L17254 20680
" />
</g>
<g style="fill:#008484; fill-opacity:0.0; 
stroke:#008484; stroke-width:110; stroke-opacity:1; 
stroke-linecap:round; stroke-linejoin:round;">
<path d="M12750 26000
L19750 26000
" />
<path d="M12750 24000
L19750 24000
" />
<path d="M17750 22000
L17750 21000
" />
<path d="M15750 22000
L15750 21000
" />
<path d="M19750 20000
L19750 21000
" />
<path d="M13750 20000
L19750 20000
" />
<path d="M13750 21000
L13750 20000
" />
<path d="M19750 21000
L19750 22000
" />
<path d="M13750 21000
L19750 21000
" />
<path d="M13750 22000
L13750 21000
" />
<path d="M12750 28000
L11750 28000
" />
<path d="M11750 22000
L11750 28000
" />
<path d="M11750 22000
L12750 22000
" />
<path d="M13750 28000
L12750 28000
" />
<path d="M12750 22000
L12750 28000
" />
<path d="M12750 22000
L13750 22000
" />
<path d="M19750 28000
L17750 28000
" />
<path d="M19750 22000
L19750 28000
" />
<path d="M17750 22000
L19750 22000
" />
<path d="M17750 28000
L15750 28000
" />
<path d="M17750 22000
L17750 28000
" />
<path d="M15750 22000
L17750 22000
" />
<path d="M15750 28000
L13750 28000
" />
<path d="M15750 22000
L15750 28000
" />
<path d="M13750 22000
L15750 22000
" />
<path d="M13750 28000
L13750 22000
" />
<circle cx="18750" cy="23000" r="1000" /> 
<circle cx="18750" cy="25000" r="1000" /> 
<circle cx="16750" cy="23000" r="1000" /> 
<circle cx="16750" cy="25000" r="1000" /> 
<circle cx="18750" cy="27000" r="1000" /> 
<circle cx="16750" cy="27000" r="1000" /> 
<circle cx="14750" cy="23000" r="1000" /> 
<circle cx="14750" cy="25000" r="1000" /> 
<circle cx="14750" cy="27000" r="1000" /> 
</g>
<g style="fill:#008484; fill-opacity:0.0; 
stroke:#008484; stroke-width:137.5; stroke-opacity:1; 
stroke-linecap:round; stroke-linejoin:round;">
<text x="8000" y="19562.5"
textLength="10213.3" font-size="733.333" lengthAdjust="spacingAndGlyphs"
text-anchor="middle" opacity="0">y_arena_valve_controller</text>
<path d="M3036 19169
L3167 19536
" />
<path d="M3298 19169
L3167 19536
L3115 19667
L3089 19693
L3036 19719
" />
<path d="M3377 19588
L3796 19588
" />
<path d="M4163 19536
L4163 19248
L4136 19195
L4084 19169
L3979 19169
L3927 19195
" />
<path d="M4163 19510
L4110 19536
L3979 19536
L3927 19510
L3901 19457
L3901 19405
L3927 19352
L3979 19326
L4110 19326
L4163 19300
" />
<path d="M4425 19536
L4425 19169
" />
<path d="M4425 19274
L4451 19222
L4477 19195
L4529 19169
L4582 19169
" />
<path d="M4975 19510
L4922 19536
L4817 19536
L4765 19510
L4739 19457
L4739 19248
L4765 19195
L4817 19169
L4922 19169
L4975 19195
L5001 19248
L5001 19300
L4739 19352
" />
<path d="M5236 19169
L5236 19536
" />
<path d="M5236 19222
L5263 19195
L5315 19169
L5394 19169
L5446 19195
L5472 19248
L5472 19536
" />
<path d="M5970 19536
L5970 19248
L5944 19195
L5891 19169
L5786 19169
L5734 19195
" />
<path d="M5970 19510
L5917 19536
L5786 19536
L5734 19510
L5708 19457
L5708 19405
L5734 19352
L5786 19326
L5917 19326
L5970 19300
" />
<path d="M6101 19588
L6520 19588
" />
<path d="M6598 19169
L6729 19536
L6860 19169
" />
<path d="M7305 19536
L7305 19248
L7279 19195
L7227 19169
L7122 19169
L7070 19195
" />
<path d="M7305 19510
L7253 19536
L7122 19536
L7070 19510
L7044 19457
L7044 19405
L7070 19352
L7122 19326
L7253 19326
L7305 19300
" />
<path d="M7646 19536
L7594 19510
L7567 19457
L7567 18986
" />
<path d="M7803 19169
L7934 19536
L8065 19169
" />
<path d="M8484 19510
L8432 19536
L8327 19536
L8275 19510
L8248 19457
L8248 19248
L8275 19195
L8327 19169
L8432 19169
L8484 19195
L8510 19248
L8510 19300
L8248 19352
" />
<path d="M8615 19588
L9034 19588
" />
<path d="M9401 19510
L9348 19536
L9244 19536
L9191 19510
L9165 19483
L9139 19431
L9139 19274
L9165 19222
L9191 19195
L9244 19169
L9348 19169
L9401 19195
" />
<path d="M9715 19536
L9663 19510
L9636 19483
L9610 19431
L9610 19274
L9636 19222
L9663 19195
L9715 19169
L9794 19169
L9846 19195
L9872 19222
L9898 19274
L9898 19431
L9872 19483
L9846 19510
L9794 19536
L9715 19536
" />
<path d="M10134 19169
L10134 19536
" />
<path d="M10134 19222
L10160 19195
L10213 19169
L10291 19169
L10344 19195
L10370 19248
L10370 19536
" />
<path d="M10553 19169
L10763 19169
" />
<path d="M10632 18986
L10632 19457
L10658 19510
L10710 19536
L10763 19536
" />
<path d="M10946 19536
L10946 19169
" />
<path d="M10946 19274
L10972 19222
L10998 19195
L11051 19169
L11103 19169
" />
<path d="M11365 19536
L11313 19510
L11286 19483
L11260 19431
L11260 19274
L11286 19222
L11313 19195
L11365 19169
L11444 19169
L11496 19195
L11522 19222
L11548 19274
L11548 19431
L11522 19483
L11496 19510
L11444 19536
L11365 19536
" />
<path d="M11863 19536
L11810 19510
L11784 19457
L11784 18986
" />
<path d="M12151 19536
L12098 19510
L12072 19457
L12072 18986
" />
<path d="M12570 19510
L12517 19536
L12413 19536
L12360 19510
L12334 19457
L12334 19248
L12360 19195
L12413 19169
L12517 19169
L12570 19195
L12596 19248
L12596 19300
L12334 19352
" />
<path d="M12832 19536
L12832 19169
" />
<path d="M12832 19274
L12858 19222
L12884 19195
L12936 19169
L12989 19169
" />
<text x="8000" y="20525"
textLength="10916.8" font-size="733.333" lengthAdjust="spacingAndGlyphs"
text-anchor="middle" opacity="0">Janelia Research Campus</text>
<path d="M2919 19948
L2919 20341
L2892 20420
L2840 20472
L2761 20498
L2709 20498
" />
<path d="M3416 20498
L3416 20210
L3390 20158
L3338 20132
L3233 20132
L3180 20158
" />
<path d="M3416 20472
L3364 20498
L3233 20498
L3180 20472
L3154 20420
L3154 20367
L3180 20315
L3233 20289
L3364 20289
L3416 20263
" />
<path d="M3678 20132
L3678 20498
" />
<path d="M3678 20184
L3704 20158
L3757 20132
L3835 20132
L3888 20158
L3914 20210
L3914 20498
" />
<path d="M4385 20472
L4333 20498
L4228 20498
L4176 20472
L4150 20420
L4150 20210
L4176 20158
L4228 20132
L4333 20132
L4385 20158
L4411 20210
L4411 20263
L4150 20315
" />
<path d="M4726 20498
L4673 20472
L4647 20420
L4647 19948
" />
<path d="M4935 20498
L4935 20132
" />
<path d="M4935 19948
L4909 19975
L4935 20001
L4961 19975
L4935 19948
L4935 20001
" />
<path d="M5433 20498
L5433 20210
L5407 20158
L5354 20132
L5250 20132
L5197 20158
" />
<path d="M5433 20472
L5380 20498
L5250 20498
L5197 20472
L5171 20420
L5171 20367
L5197 20315
L5250 20289
L5380 20289
L5433 20263
" />
<path d="M6428 20498
L6245 20236
" />
<path d="M6114 20498
L6114 19948
L6323 19948
L6376 19975
L6402 20001
L6428 20053
L6428 20132
L6402 20184
L6376 20210
L6323 20236
L6114 20236
" />
<path d="M6873 20472
L6821 20498
L6716 20498
L6664 20472
L6638 20420
L6638 20210
L6664 20158
L6716 20132
L6821 20132
L6873 20158
L6900 20210
L6900 20263
L6638 20315
" />
<path d="M7109 20472
L7161 20498
L7266 20498
L7319 20472
L7345 20420
L7345 20394
L7319 20341
L7266 20315
L7188 20315
L7135 20289
L7109 20236
L7109 20210
L7135 20158
L7188 20132
L7266 20132
L7319 20158
" />
<path d="M7790 20472
L7738 20498
L7633 20498
L7580 20472
L7554 20420
L7554 20210
L7580 20158
L7633 20132
L7738 20132
L7790 20158
L7816 20210
L7816 20263
L7554 20315
" />
<path d="M8288 20498
L8288 20210
L8261 20158
L8209 20132
L8104 20132
L8052 20158
" />
<path d="M8288 20472
L8235 20498
L8104 20498
L8052 20472
L8026 20420
L8026 20367
L8052 20315
L8104 20289
L8235 20289
L8288 20263
" />
<path d="M8550 20498
L8550 20132
" />
<path d="M8550 20236
L8576 20184
L8602 20158
L8654 20132
L8707 20132
" />
<path d="M9126 20472
L9073 20498
L8969 20498
L8916 20472
L8890 20446
L8864 20394
L8864 20236
L8890 20184
L8916 20158
L8969 20132
L9073 20132
L9126 20158
" />
<path d="M9361 20498
L9361 19948
" />
<path d="M9597 20498
L9597 20210
L9571 20158
L9519 20132
L9440 20132
L9388 20158
L9361 20184
" />
<path d="M10592 20446
L10566 20472
L10488 20498
L10435 20498
L10357 20472
L10304 20420
L10278 20367
L10252 20263
L10252 20184
L10278 20079
L10304 20027
L10357 19975
L10435 19948
L10488 19948
L10566 19975
L10592 20001
" />
<path d="M11064 20498
L11064 20210
L11038 20158
L10985 20132
L10880 20132
L10828 20158
" />
<path d="M11064 20472
L11011 20498
L10880 20498
L10828 20472
L10802 20420
L10802 20367
L10828 20315
L10880 20289
L11011 20289
L11064 20263
" />
<path d="M11326 20498
L11326 20132
" />
<path d="M11326 20184
L11352 20158
L11404 20132
L11483 20132
L11535 20158
L11561 20210
L11561 20498
" />
<path d="M11561 20210
L11588 20158
L11640 20132
L11719 20132
L11771 20158
L11797 20210
L11797 20498
" />
<path d="M12059 20132
L12059 20682
" />
<path d="M12059 20158
L12111 20132
L12216 20132
L12269 20158
L12295 20184
L12321 20236
L12321 20394
L12295 20446
L12269 20472
L12216 20498
L12111 20498
L12059 20472
" />
<path d="M12792 20132
L12792 20498
" />
<path d="M12557 20132
L12557 20420
L12583 20472
L12635 20498
L12714 20498
L12766 20472
L12792 20446
" />
<path d="M13028 20472
L13080 20498
L13185 20498
L13238 20472
L13264 20420
L13264 20394
L13238 20341
L13185 20315
L13107 20315
L13054 20289
L13028 20236
L13028 20210
L13054 20158
L13107 20132
L13185 20132
L13238 20158
" />
<text x="8000" y="21487.5"
textLength="8900.18" font-size="733.333" lengthAdjust="spacingAndGlyphs"
text-anchor="middle" opacity="0">07/31/2020 ver 1.2</text>
<path d="M3875 20911
L3927 20911
L3979 20937
L4005 20963
L4032 21016
L4058 21120
L4058 21251
L4032 21356
L4005 21408
L3979 21435
L3927 21461
L3875 21461
L3822 21435
L3796 21408
L3770 21356
L3744 21251
L3744 21120
L3770 21016
L3796 20963
L3822 20937
L3875 20911
" />
<path d="M4241 20911
L4608 20911
L4372 21461
" />
<path d="M5210 20885
L4739 21592
" />
<path d="M5341 20911
L5682 20911
L5498 21120
L5577 21120
L5629 21147
L5655 21173
L5682 21225
L5682 21356
L5655 21408
L5629 21435
L5577 21461
L5420 21461
L5367 21435
L5341 21408
" />
<path d="M6205 21461
L5891 21461
" />
<path d="M6048 21461
L6048 20911
L5996 20989
L5944 21042
L5891 21068
" />
<path d="M6834 20885
L6363 21592
" />
<path d="M6991 20963
L7017 20937
L7070 20911
L7201 20911
L7253 20937
L7279 20963
L7305 21016
L7305 21068
L7279 21147
L6965 21461
L7305 21461
" />
<path d="M7646 20911
L7698 20911
L7751 20937
L7777 20963
L7803 21016
L7829 21120
L7829 21251
L7803 21356
L7777 21408
L7751 21435
L7698 21461
L7646 21461
L7594 21435
L7567 21408
L7541 21356
L7515 21251
L7515 21120
L7541 21016
L7567 20963
L7594 20937
L7646 20911
" />
<path d="M8039 20963
L8065 20937
L8117 20911
L8248 20911
L8301 20937
L8327 20963
L8353 21016
L8353 21068
L8327 21147
L8013 21461
L8353 21461
" />
<path d="M8694 20911
L8746 20911
L8798 20937
L8825 20963
L8851 21016
L8877 21120
L8877 21251
L8851 21356
L8825 21408
L8798 21435
L8746 21461
L8694 21461
L8641 21435
L8615 21408
L8589 21356
L8563 21251
L8563 21120
L8589 21016
L8615 20963
L8641 20937
L8694 20911
" />
<path d="M9479 21094
L9610 21461
L9741 21094
" />
<path d="M10160 21435
L10108 21461
L10003 21461
L9951 21435
L9925 21382
L9925 21173
L9951 21120
L10003 21094
L10108 21094
L10160 21120
L10186 21173
L10186 21225
L9925 21277
" />
<path d="M10422 21461
L10422 21094
" />
<path d="M10422 21199
L10448 21147
L10475 21120
L10527 21094
L10579 21094
" />
<path d="M11470 21461
L11155 21461
" />
<path d="M11313 21461
L11313 20911
L11260 20989
L11208 21042
L11155 21068
" />
<path d="M11705 21408
L11732 21435
L11705 21461
L11679 21435
L11705 21408
L11705 21461
" />
<path d="M11941 20963
L11967 20937
L12020 20911
L12151 20911
L12203 20937
L12229 20963
L12255 21016
L12255 21068
L12229 21147
L11915 21461
L12255 21461
" />
</g>
<g style="fill:#008484; fill-opacity:0.0; 
stroke:#008484; stroke-width:100; stroke-opacity:1; 
stroke-linecap:round; stroke-linejoin:round;">
<text x="3750" y="30500"
textLength="2407.32" font-size="533.333" lengthAdjust="spacingAndGlyphs"
text-anchor="middle" opacity="0">2.1x5.5</text>
<path d="M2711 30119
L2730 30100
L2769 30080
L2864 30080
L2902 30100
L2921 30119
L2940 30157
L2940 30195
L2921 30252
L2692 30480
L2940 30480
" />
<path d="M3111 30442
L3130 30461
L3111 30480
L3092 30461
L3111 30442
L3111 30480
" />
<path d="M3511 30480
L3283 30480
" />
<path d="M3397 30480
L3397 30080
L3359 30138
L3321 30176
L3283 30195
" />
<path d="M3645 30480
L3854 30214
" />
<path d="M3645 30214
L3854 30480
" />
<path d="M4197 30080
L4007 30080
L3988 30271
L4007 30252
L4045 30233
L4140 30233
L4178 30252
L4197 30271
L4216 30309
L4216 30404
L4197 30442
L4178 30461
L4140 30480
L4045 30480
L4007 30461
L3988 30442
" />
<path d="M4388 30442
L4407 30461
L4388 30480
L4369 30461
L4388 30442
L4388 30480
" />
<path d="M4769 30080
L4578 30080
L4559 30271
L4578 30252
L4616 30233
L4711 30233
L4750 30252
L4769 30271
L4788 30309
L4788 30404
L4769 30442
L4750 30461
L4711 30480
L4616 30480
L4578 30461
L4559 30442
" />
<text x="3750" y="31200"
textLength="2853.81" font-size="533.333" lengthAdjust="spacingAndGlyphs"
text-anchor="middle" opacity="0">Center +</text>
<path d="M2711 31142
L2692 31161
L2635 31180
L2597 31180
L2540 31161
L2502 31123
L2483 31085
L2464 31009
L2464 30952
L2483 30876
L2502 30838
L2540 30800
L2597 30780
L2635 30780
L2692 30800
L2711 30819
" />
<path d="M3035 31161
L2997 31180
L2921 31180
L2883 31161
L2864 31123
L2864 30971
L2883 30933
L2921 30914
L2997 30914
L3035 30933
L3054 30971
L3054 31009
L2864 31047
" />
<path d="M3226 30914
L3226 31180
" />
<path d="M3226 30952
L3245 30933
L3283 30914
L3340 30914
L3378 30933
L3397 30971
L3397 31180
" />
<path d="M3530 30914
L3683 30914
" />
<path d="M3588 30780
L3588 31123
L3607 31161
L3645 31180
L3683 31180
" />
<path d="M3969 31161
L3930 31180
L3854 31180
L3816 31161
L3797 31123
L3797 30971
L3816 30933
L3854 30914
L3930 30914
L3969 30933
L3988 30971
L3988 31009
L3797 31047
" />
<path d="M4159 31180
L4159 30914
" />
<path d="M4159 30990
L4178 30952
L4197 30933
L4235 30914
L4273 30914
" />
<path d="M4711 31028
L5016 31028
" />
<path d="M4864 31180
L4864 30876
" />
<text x="3750" y="31900"
textLength="2530" font-size="533.333" lengthAdjust="spacingAndGlyphs"
text-anchor="middle" opacity="0">+12VDC</text>
<path d="M2645 31728
L2950 31728
" />
<path d="M2797 31880
L2797 31576
" />
<path d="M3350 31880
L3121 31880
" />
<path d="M3235 31880
L3235 31480
L3197 31538
L3159 31576
L3121 31595
" />
<path d="M3502 31519
L3521 31500
L3559 31480
L3654 31480
L3692 31500
L3711 31519
L3730 31557
L3730 31595
L3711 31652
L3483 31880
L3730 31880
" />
<path d="M3845 31480
L3978 31880
L4111 31480
" />
<path d="M4245 31880
L4245 31480
L4340 31480
L4397 31500
L4435 31538
L4454 31576
L4473 31652
L4473 31709
L4454 31785
L4435 31823
L4397 31861
L4340 31880
L4245 31880
" />
<path d="M4873 31842
L4854 31861
L4797 31880
L4759 31880
L4702 31861
L4664 31823
L4645 31785
L4626 31709
L4626 31652
L4645 31576
L4664 31538
L4702 31500
L4759 31480
L4797 31480
L4854 31500
L4873 31519
" />
</g>
<g style="fill:#008484; fill-opacity:0.0; 
stroke:#008484; stroke-width:110; stroke-opacity:1; 
stroke-linecap:round; stroke-linejoin:round;">
<path d="M15750 31500
L16500 30750
" />
<circle cx="18000" cy="31750" r="250" /> 
<circle cx="15500" cy="31750" r="250" /> 
<circle cx="16750" cy="30500" r="250" /> 
<path d="M16650 34800
L16650 33600
" />
<path d="M15650 34800
L16650 34800
" />
<path d="M15650 33600
L15650 34800
" />
</g>
<g style="fill:#008484; fill-opacity:0.0; 
stroke:#008484; stroke-width:150; stroke-opacity:1; 
stroke-linecap:round; stroke-linejoin:round;">
<path d="M14750 29220
L14750 33590
" />
<path d="M18750 33590
L14750 33590
" />
<path d="M18750 29220
L18750 33590
" />
<path d="M18750 29220
L14750 29220
" />
<path d="M6978 33250
L6978 27541
" />
<path d="M6978 27541
L10521 27541
" />
<path d="M10521 27541
L10521 33250
" />
<path d="M6978 33250
L10521 33250
" />
<path d="M9832 33250
L9832 29647
" />
<path d="M7667 29647
L9832 29647
" />
<path d="M7667 33250
L7667 29647
" />
</g>
<g style="fill:#008484; fill-opacity:0.0; 
stroke:#008484; stroke-width:50; stroke-opacity:1; 
stroke-linecap:round; stroke-linejoin:round;">
<path d="M14500 27150
L14750 27000
" />
<path d="M14750 27000
L15000 27150
" />
<path d="M14500 27150
L15000 27150
" />
<path d="M14700 26950
L14800 26950
" />
<path d="M14800 26950
L14800 26850
" />
<path d="M14800 26850
L14700 26850
" />
<path d="M14700 26850
L14700 26950
" />
<path d="M14500 25150
L14750 25000
" />
<path d="M14750 25000
L15000 25150
" />
<path d="M14500 25150
L15000 25150
" />
<path d="M14700 24950
L14800 24950
" />
<path d="M14800 24950
L14800 24850
" />
<path d="M14800 24850
L14700 24850
" />
<path d="M14700 24850
L14700 24950
" />
<path d="M14500 23150
L14750 23000
" />
<path d="M14750 23000
L15000 23150
" />
<path d="M14500 23150
L15000 23150
" />
<path d="M14700 22950
L14800 22950
" />
<path d="M14800 22950
L14800 22850
" />
<path d="M14800 22850
L14700 22850
" />
<path d="M14700 22850
L14700 22950
" />
<path d="M16500 27150
L16750 27000
" />
<path d="M16750 27000
L17000 27150
" />
<path d="M16500 27150
L17000 27150
" />
<path d="M16700 26950
L16800 26950
" />
<path d="M16800 26950
L16800 26850
" />
<path d="M16800 26850
L16700 26850
" />
<path d="M16700 26850
L16700 26950
" />
<path d="M16500 25150
L16750 25000
" />
<path d="M16750 25000
L17000 25150
" />
<path d="M16500 25150
L17000 25150
" />
<path d="M16700 24950
L16800 24950
" />
<path d="M16800 24950
L16800 24850
" />
<path d="M16800 24850
L16700 24850
" />
<path d="M16700 24850
L16700 24950
" />
<path d="M16500 23150
L16750 23000
" />
<path d="M16750 23000
L17000 23150
" />
<path d="M16500 23150
L17000 23150
" />
<path d="M16700 22950
L16800 22950
" />
<path d="M16800 22950
L16800 22850
" />
<path d="M16800 22850
L16700 22850
" />
<path d="M16700 22850
L16700 22950
" />
<path d="M18500 27150
L18750 27000
" />
<path d="M18750 27000
L19000 27150
" />
<path d="M18500 27150
L19000 27150
" />
<path d="M18700 26950
L18800 26950
" />
<path d="M18800 26950
L18800 26850
" />
<path d="M18800 26850
L18700 26850
" />
<path d="M18700 26850
L18700 26950
" />
<path d="M18500 25150
L18750 25000
" />
<path d="M18750 25000
L19000 25150
" />
<path d="M18500 25150
L19000 25150
" />
<path d="M18700 24950
L18800 24950
" />
<path d="M18800 24950
L18800 24850
" />
<path d="M18800 24850
L18700 24850
" />
<path d="M18700 24850
L18700 24950
" />
<path d="M18500 23150
L18750 23000
" />
<path d="M18750 23000
L19000 23150
" />
<path d="M18500 23150
L19000 23150
" />
<path d="M18700 22950
L18800 22950
" />
<path d="M18800 22950
L18800 22850
" />
<path d="M18800 22850
L18700 22850
" />
<path d="M18700 22850
L18700 22950
" />
</g>
<g style="fill:#008484; fill-opacity:0.0; 
stroke:#008484; stroke-width:110; stroke-opacity:1; 
stroke-linecap:round; stroke-linejoin:round;">
<path d="M5840 13720
L5840 10780
" />
<path d="M7840 13720
L7840 10780
" />
<path d="M8840 10780
L5040 10780
" />
<path d="M8840 13720
L5040 13720
" />
<path d="M8840 13720
L8840 10780
" />
</g>
<g style="fill:#008484; fill-opacity:0.0; 
stroke:#008484; stroke-width:59.0551; stroke-opacity:1; 
stroke-linecap:round; stroke-linejoin:round;">
<circle cx="2750" cy="12750" r="500" /> 
<circle cx="2750" cy="11750" r="500" /> 
</g>
<g style="fill:#008484; fill-opacity:0.0; 
stroke:#008484; stroke-width:110; stroke-opacity:1; 
stroke-linecap:round; stroke-linejoin:round;">
<circle cx="3550" cy="12250" r="1470" /> 
<path d="M3550 13720
L5040 13720
" />
<path d="M5040 13720
L5040 10780
" />
<path d="M5040 10780
L3550 10780
" />
<path d="M5840 10720
L5840 7780
" />
<path d="M7840 10720
L7840 7780
" />
<path d="M8840 7780
L5040 7780
" />
<path d="M8840 10720
L5040 10720
" />
<path d="M8840 10720
L8840 7780
" />
</g>
<g style="fill:#008484; fill-opacity:0.0; 
stroke:#008484; stroke-width:59.0551; stroke-opacity:1; 
stroke-linecap:round; stroke-linejoin:round;">
<circle cx="2750" cy="9750" r="500" /> 
<circle cx="2750" cy="8750" r="500" /> 
</g>
<g style="fill:#008484; fill-opacity:0.0; 
stroke:#008484; stroke-width:110; stroke-opacity:1; 
stroke-linecap:round; stroke-linejoin:round;">
<circle cx="3550" cy="9250" r="1470" /> 
<path d="M3550 10720
L5040 10720
" />
<path d="M5040 10720
L5040 7780
" />
<path d="M5040 7780
L3550 7780
" />
<path d="M5840 7720
L5840 4780
" />
<path d="M7840 7720
L7840 4780
" />
<path d="M8840 4780
L5040 4780
" />
<path d="M8840 7720
L5040 7720
" />
<path d="M8840 7720
L8840 4780
" />
</g>
<g style="fill:#008484; fill-opacity:0.0; 
stroke:#008484; stroke-width:59.0551; stroke-opacity:1; 
stroke-linecap:round; stroke-linejoin:round;">
<circle cx="2750" cy="6750" r="500" /> 
<circle cx="2750" cy="5750" r="500" /> 
</g>
<g style="fill:#008484; fill-opacity:0.0; 
stroke:#008484; stroke-width:110; stroke-opacity:1; 
stroke-linecap:round; stroke-linejoin:round;">
<circle cx="3550" cy="6250" r="1470" /> 
<path d="M3550 7720
L5040 7720
" />
<path d="M5040 7720
L5040 4780
" />
<path d="M5040 4780
L3550 4780
" />
<path d="M16840 13720
L16840 10780
" />
<path d="M18840 13720
L18840 10780
" />
<path d="M19840 10780
L16040 10780
" />
<path d="M19840 13720
L16040 13720
" />
<path d="M19840 13720
L19840 10780
" />
</g>
<g style="fill:#008484; fill-opacity:0.0; 
stroke:#008484; stroke-width:59.0551; stroke-opacity:1; 
stroke-linecap:round; stroke-linejoin:round;">
<circle cx="13750" cy="12750" r="500" /> 
<circle cx="13750" cy="11750" r="500" /> 
</g>
<g style="fill:#008484; fill-opacity:0.0; 
stroke:#008484; stroke-width:110; stroke-opacity:1; 
stroke-linecap:round; stroke-linejoin:round;">
<circle cx="14550" cy="12250" r="1470" /> 
<path d="M14550 13720
L16040 13720
" />
<path d="M16040 13720
L16040 10780
" />
<path d="M16040 10780
L14550 10780
" />
<path d="M16840 10720
L16840 7780
" />
<path d="M18840 10720
L18840 7780
" />
<path d="M19840 7780
L16040 7780
" />
<path d="M19840 10720
L16040 10720
" />
<path d="M19840 10720
L19840 7780
" />
</g>
<g style="fill:#008484; fill-opacity:0.0; 
stroke:#008484; stroke-width:59.0551; stroke-opacity:1; 
stroke-linecap:round; stroke-linejoin:round;">
<circle cx="13750" cy="9750" r="500" /> 
<circle cx="13750" cy="8750" r="500" /> 
</g>
<g style="fill:#008484; fill-opacity:0.0; 
stroke:#008484; stroke-width:110; stroke-opacity:1; 
stroke-linecap:round; stroke-linejoin:round;">
<circle cx="14550" cy="9250" r="1470" /> 
<path d="M14550 10720
L16040 10720
" />
<path d="M16040 10720
L16040 7780
" />
<path d="M16040 7780
L14550 7780
" />
<path d="M16840 7720
L16840 4780
" />
<path d="M18840 7720
L18840 4780
" />
<path d="M19840 4780
L16040 4780
" />
<path d="M19840 7720
L16040 7720
" />
<path d="M19840 7720
L19840 4780
" />
</g>
<g style="fill:#008484; fill-opacity:0.0; 
stroke:#008484; stroke-width:59.0551; stroke-opacity:1; 
stroke-linecap:round; stroke-linejoin:round;">
<circle cx="13750" cy="6750" r="500" /> 
<circle cx="13750" cy="5750" r="500" /> 
</g>
<g style="fill:#008484; fill-opacity:0.0; 
stroke:#008484; stroke-width:110; stroke-opacity:1; 
stroke-linecap:round; stroke-linejoin:round;">
<circle cx="14550" cy="6250" r="1470" /> 
<path d="M14550 7720
L16040 7720
" />
<path d="M16040 7720
L16040 4780
" />
<path d="M16040 4780
L14550 4780
" />
<path d="M27840 13720
L27840 10780
" />
<path d="M29840 13720
L29840 10780
" />
<path d="M30840 10780
L27040 10780
" />
<path d="M30840 13720
L27040 13720
" />
<path d="M30840 13720
L30840 10780
" />
</g>
<g style="fill:#008484; fill-opacity:0.0; 
stroke:#008484; stroke-width:59.0551; stroke-opacity:1; 
stroke-linecap:round; stroke-linejoin:round;">
<circle cx="24750" cy="12750" r="500" /> 
<circle cx="24750" cy="11750" r="500" /> 
</g>
<g style="fill:#008484; fill-opacity:0.0; 
stroke:#008484; stroke-width:110; stroke-opacity:1; 
stroke-linecap:round; stroke-linejoin:round;">
<circle cx="25550" cy="12250" r="1470" /> 
<path d="M25550 13720
L27040 13720
" />
<path d="M27040 13720
L27040 10780
" />
<path d="M27040 10780
L25550 10780
" />
<path d="M27840 10720
L27840 7780
" />
<path d="M29840 10720
L29840 7780
" />
<path d="M30840 7780
L27040 7780
" />
<path d="M30840 10720
L27040 10720
" />
<path d="M30840 10720
L30840 7780
" />
</g>
<g style="fill:#008484; fill-opacity:0.0; 
stroke:#008484; stroke-width:59.0551; stroke-opacity:1; 
stroke-linecap:round; stroke-linejoin:round;">
<circle cx="24750" cy="9750" r="500" /> 
<circle cx="24750" cy="8750" r="500" /> 
</g>
<g style="fill:#008484; fill-opacity:0.0; 
stroke:#008484; stroke-width:110; stroke-opacity:1; 
stroke-linecap:round; stroke-linejoin:round;">
<circle cx="25550" cy="9250" r="1470" /> 
<path d="M25550 10720
L27040 10720
" />
<path d="M27040 10720
L27040 7780
" />
<path d="M27040 7780
L25550 7780
" />
<path d="M27840 7720
L27840 4780
" />
<path d="M29840 7720
L29840 4780
" />
<path d="M30840 4780
L27040 4780
" />
<path d="M30840 7720
L27040 7720
" />
<path d="M30840 7720
L30840 4780
" />
</g>
<g style="fill:#008484; fill-opacity:0.0; 
stroke:#008484; stroke-width:59.0551; stroke-opacity:1; 
stroke-linecap:round; stroke-linejoin:round;">
<circle cx="24750" cy="6750" r="500" /> 
<circle cx="24750" cy="5750" r="500" /> 
</g>
<g style="fill:#008484; fill-opacity:0.0; 
stroke:#008484; stroke-width:110; stroke-opacity:1; 
stroke-linecap:round; stroke-linejoin:round;">
<circle cx="25550" cy="6250" r="1470" /> 
<path d="M25550 7720
L27040 7720
" />
<path d="M27040 7720
L27040 4780
" />
<path d="M27040 4780
L25550 4780
" />
</g>
<g style="fill:#008484; fill-opacity:0.0; 
stroke:#008484; stroke-width:50; stroke-opacity:1; 
stroke-linecap:round; stroke-linejoin:round;">
<path d="M13200 31600
L13200 31700
" />
<path d="M13300 31600
L13200 31600
" />
<path d="M13300 31700
L13300 31600
" />
<path d="M13200 31700
L13300 31700
" />
<path d="M13000 31900
L13500 31900
" />
<path d="M13250 31750
L13500 31900
" />
<path d="M13000 31900
L13250 31750
" />
</g>
<g style="fill:#008484; fill-opacity:0.0; 
stroke:#008484; stroke-width:70; stroke-opacity:1; 
stroke-linecap:round; stroke-linejoin:round;">
<path d="M7350 24000
L7350 23650
" />
<path d="M7350 23650
L6650 23650
" />
<path d="M6650 23650
L6650 24000
" />
<path d="M7350 24500
L7350 24850
" />
<path d="M7350 24850
L6650 24850
" />
<path d="M6650 24850
L6650 24500
" />
</g>
<g style="fill:#008484; fill-opacity:0.0; 
stroke:#008484; stroke-width:90; stroke-opacity:1; 
stroke-linecap:round; stroke-linejoin:round;">
<path d="M9655 25726
L7844 25726
" />
<path d="M7844 25726
L7844 22773
" />
<path d="M7844 22773
L9655 22773
" />
<path d="M9655 22773
L9655 25726
" />
</g>
<g style="fill:#008484; fill-opacity:0.0; 
stroke:#008484; stroke-width:70; stroke-opacity:1; 
stroke-linecap:round; stroke-linejoin:round;">
<path d="M22750 29000
L26750 29000
" />
<path d="M22750 25000
L22750 29000
" />
<path d="M26750 25000
L22750 25000
" />
<path d="M26750 29000
L26750 25000
" />
<path d="M27250 32500
L27250 33500
" />
<path d="M28250 32500
L27250 32500
" />
<circle cx="21750" cy="20000" r="500" /> 
<circle cx="21750" cy="21000" r="500" /> 
<circle cx="21750" cy="22000" r="500" /> 
<circle cx="21750" cy="23000" r="500" /> 
<circle cx="21750" cy="24000" r="500" /> 
<circle cx="21750" cy="25000" r="500" /> 
<circle cx="21750" cy="26000" r="500" /> 
<circle cx="21750" cy="27000" r="500" /> 
<circle cx="21750" cy="28000" r="500" /> 
<circle cx="21750" cy="29000" r="500" /> 
<circle cx="21750" cy="30000" r="500" /> 
<circle cx="21750" cy="31000" r="500" /> 
<circle cx="21750" cy="32000" r="500" /> 
<circle cx="21750" cy="33000" r="500" /> 
<circle cx="27750" cy="20000" r="500" /> 
<circle cx="27750" cy="21000" r="500" /> 
<circle cx="27750" cy="22000" r="500" /> 
<circle cx="27750" cy="23000" r="500" /> 
<circle cx="27750" cy="24000" r="500" /> 
<circle cx="27750" cy="25000" r="500" /> 
<circle cx="27750" cy="26000" r="500" /> 
<circle cx="27750" cy="27000" r="500" /> 
<circle cx="27750" cy="28000" r="500" /> 
<circle cx="27750" cy="29000" r="500" /> 
<circle cx="27750" cy="30000" r="500" /> 
<circle cx="27750" cy="31000" r="500" /> 
<circle cx="27750" cy="32000" r="500" /> 
</g>
<g style="fill:#008484; fill-opacity:0.0; 
stroke:#008484; stroke-width:150; stroke-opacity:1; 
stroke-linecap:round; stroke-linejoin:round;">
<circle cx="24750" cy="21500" r="500" /> 
<path d="M24250 20500
L24250 22500
" />
<path d="M24250 22500
L25250 22500
" />
<path d="M25250 22500
L25250 20500
" />
<path d="M25250 20500
L24250 20500
" />
<path d="M26250 33500
L26250 34000
" />
<path d="M26250 34000
L23250 34000
" />
<path d="M23250 34000
L23250 33500
" />
<path d="M28250 33500
L28250 19500
" />
<path d="M28250 19500
L21250 19500
" />
<path d="M21250 19500
L21250 33500
" />
<path d="M21250 33500
L28250 33500
" />
</g>
<g style="fill:#008484; fill-opacity:0.0; 
stroke:#008484; stroke-width:100; stroke-opacity:1; 
stroke-linecap:round; stroke-linejoin:round;">
<text x="16750" y="28700"
textLength="1349.05" font-size="533.333" lengthAdjust="spacingAndGlyphs"
text-anchor="middle" opacity="0">SW1</text>
<path d="M16216 28661
L16273 28680
L16369 28680
L16407 28661
L16426 28642
L16445 28604
L16445 28566
L16426 28528
L16407 28509
L16369 28490
L16292 28471
L16254 28452
L16235 28433
L16216 28395
L16216 28357
L16235 28319
L16254 28300
L16292 28280
L16388 28280
L16445 28300
" />
<path d="M16578 28280
L16673 28680
L16750 28395
L16826 28680
L16921 28280
" />
<path d="M17283 28680
L17054 28680
" />
<path d="M17169 28680
L17169 28280
L17130 28338
L17092 28376
L17054 28395
" />
</g>
<g style="fill:#008484; fill-opacity:0.0; 
stroke:#008484; stroke-width:125; stroke-opacity:1; 
stroke-linecap:round; stroke-linejoin:round;">
<g transform="rotate(-90 14250 31750)">
<text x="14250" y="32000"
textLength="1177.62" font-size="666.667" lengthAdjust="spacingAndGlyphs"
text-anchor="middle" opacity="0">ON</text>
</g>
<path d="M13976 32059
L13976 31964
L14000 31916
L14047 31869
L14142 31845
L14309 31845
L14404 31869
L14452 31916
L14476 31964
L14476 32059
L14452 32107
L14404 32154
L14309 32178
L14142 32178
L14047 32154
L14000 32107
L13976 32059
" />
<path d="M14476 31630
L13976 31630
L14476 31345
L13976 31345
" />
<g transform="rotate(-90 19250 31750)">
<text x="19250" y="32000"
textLength="1543.45" font-size="666.667" lengthAdjust="spacingAndGlyphs"
text-anchor="middle" opacity="0">OFF</text>
</g>
<path d="M18976 32226
L18976 32130
L19000 32083
L19047 32035
L19142 32011
L19309 32011
L19404 32035
L19452 32083
L19476 32130
L19476 32226
L19452 32273
L19404 32321
L19309 32345
L19142 32345
L19047 32321
L19000 32273
L18976 32226
" />
<path d="M19214 31630
L19214 31797
" />
<path d="M19476 31797
L18976 31797
L18976 31559
" />
<path d="M19214 31202
L19214 31369
" />
<path d="M19476 31369
L18976 31369
L18976 31130
" />
</g>
<g style="fill:#008484; fill-opacity:0.0; 
stroke:#008484; stroke-width:100; stroke-opacity:1; 
stroke-linecap:round; stroke-linejoin:round;">
<g transform="rotate(-90 6500 28250)">
<text x="6500" y="28450"
textLength="943.452" font-size="533.333" lengthAdjust="spacingAndGlyphs"
text-anchor="middle" opacity="0">P1</text>
</g>
<path d="M6680 28545
L6280 28545
L6280 28392
L6300 28354
L6319 28335
L6357 28316
L6414 28316
L6452 28335
L6471 28354
L6490 28392
L6490 28545
" />
<path d="M6680 27935
L6680 28164
" />
<path d="M6680 28050
L6280 28050
L6338 28088
L6376 28126
L6395 28164
" />
</g>
<g style="fill:#008484; fill-opacity:0.0; 
stroke:#008484; stroke-width:50; stroke-opacity:1; 
stroke-linecap:round; stroke-linejoin:round;">
<text x="14750" y="26300"
textLength="482.381" font-size="266.667" lengthAdjust="spacingAndGlyphs"
text-anchor="middle" opacity="0">L2</text>
<path d="M14716 26290
L14621 26290
L14621 26090
" />
<path d="M14773 26109
L14783 26100
L14802 26090
L14850 26090
L14869 26100
L14878 26109
L14888 26128
L14888 26147
L14878 26176
L14764 26290
L14888 26290
" />
<text x="14750" y="24300"
textLength="417.381" font-size="266.667" lengthAdjust="spacingAndGlyphs"
text-anchor="middle" opacity="0">L3</text>
<path d="M14716 24290
L14621 24290
L14621 24090
" />
<path d="M14764 24090
L14888 24090
L14821 24166
L14850 24166
L14869 24176
L14878 24185
L14888 24204
L14888 24252
L14878 24271
L14869 24280
L14850 24290
L14792 24290
L14773 24280
L14764 24271
" />
<text x="14750" y="22300"
textLength="417.381" font-size="266.667" lengthAdjust="spacingAndGlyphs"
text-anchor="middle" opacity="0">L4</text>
<path d="M14716 22290
L14621 22290
L14621 22090
" />
<path d="M14869 22157
L14869 22290
" />
<path d="M14821 22080
L14773 22223
L14897 22223
" />
<text x="16750" y="26300"
textLength="417.381" font-size="266.667" lengthAdjust="spacingAndGlyphs"
text-anchor="middle" opacity="0">L5</text>
<path d="M16716 26290
L16621 26290
L16621 26090
" />
<path d="M16878 26090
L16783 26090
L16773 26185
L16783 26176
L16802 26166
L16850 26166
L16869 26176
L16878 26185
L16888 26204
L16888 26252
L16878 26271
L16869 26280
L16850 26290
L16802 26290
L16783 26280
L16773 26271
" />
<text x="16750" y="24300"
textLength="417.381" font-size="266.667" lengthAdjust="spacingAndGlyphs"
text-anchor="middle" opacity="0">L6</text>
<path d="M16716 24290
L16621 24290
L16621 24090
" />
<path d="M16869 24090
L16830 24090
L16811 24100
L16802 24109
L16783 24138
L16773 24176
L16773 24252
L16783 24271
L16792 24280
L16811 24290
L16850 24290
L16869 24280
L16878 24271
L16888 24252
L16888 24204
L16878 24185
L16869 24176
L16850 24166
L16811 24166
L16792 24176
L16783 24185
L16773 24204
" />
<text x="16750" y="22300"
textLength="417.381" font-size="266.667" lengthAdjust="spacingAndGlyphs"
text-anchor="middle" opacity="0">L7</text>
<path d="M16716 22290
L16621 22290
L16621 22090
" />
<path d="M16764 22090
L16897 22090
L16811 22290
" />
<text x="18750" y="26300"
textLength="417.381" font-size="266.667" lengthAdjust="spacingAndGlyphs"
text-anchor="middle" opacity="0">L8</text>
<path d="M18716 26290
L18621 26290
L18621 26090
" />
<path d="M18811 26176
L18792 26166
L18783 26157
L18773 26138
L18773 26128
L18783 26109
L18792 26100
L18811 26090
L18850 26090
L18869 26100
L18878 26109
L18888 26128
L18888 26138
L18878 26157
L18869 26166
L18850 26176
L18811 26176
L18792 26185
L18783 26195
L18773 26214
L18773 26252
L18783 26271
L18792 26280
L18811 26290
L18850 26290
L18869 26280
L18878 26271
L18888 26252
L18888 26214
L18878 26195
L18869 26185
L18850 26176
" />
<text x="18750" y="24300"
textLength="417.381" font-size="266.667" lengthAdjust="spacingAndGlyphs"
text-anchor="middle" opacity="0">L9</text>
<path d="M18716 24290
L18621 24290
L18621 24090
" />
<path d="M18792 24290
L18830 24290
L18850 24280
L18859 24271
L18878 24242
L18888 24204
L18888 24128
L18878 24109
L18869 24100
L18850 24090
L18811 24090
L18792 24100
L18783 24109
L18773 24128
L18773 24176
L18783 24195
L18792 24204
L18811 24214
L18850 24214
L18869 24204
L18878 24195
L18888 24176
" />
<text x="18750" y="22300"
textLength="607.857" font-size="266.667" lengthAdjust="spacingAndGlyphs"
text-anchor="middle" opacity="0">L10</text>
<path d="M18621 22290
L18526 22290
L18526 22090
" />
<path d="M18792 22290
L18678 22290
" />
<path d="M18735 22290
L18735 22090
L18716 22119
L18697 22138
L18678 22147
" />
<path d="M18916 22090
L18935 22090
L18954 22100
L18964 22109
L18973 22128
L18983 22166
L18983 22214
L18973 22252
L18964 22271
L18954 22280
L18935 22290
L18916 22290
L18897 22280
L18888 22271
L18878 22252
L18869 22214
L18869 22166
L18878 22128
L18888 22109
L18897 22100
L18916 22090
" />
</g>
<g style="fill:#008484; fill-opacity:0.0; 
stroke:#008484; stroke-width:100; stroke-opacity:1; 
stroke-linecap:round; stroke-linejoin:round;">
<g transform="rotate(-90 3550 12250)">
<text x="3550" y="12450"
textLength="826.905" font-size="533.333" lengthAdjust="spacingAndGlyphs"
text-anchor="middle" opacity="0">S1</text>
</g>
<path d="M3711 12554
L3730 12497
L3730 12402
L3711 12364
L3692 12345
L3654 12326
L3616 12326
L3578 12345
L3559 12364
L3540 12402
L3521 12478
L3502 12516
L3483 12535
L3445 12554
L3407 12554
L3369 12535
L3350 12516
L3330 12478
L3330 12383
L3350 12326
" />
<path d="M3730 11945
L3730 12173
" />
<path d="M3730 12059
L3330 12059
L3388 12097
L3426 12135
L3445 12173
" />
<g transform="rotate(-90 3550 9250)">
<text x="3550" y="9450"
textLength="891.905" font-size="533.333" lengthAdjust="spacingAndGlyphs"
text-anchor="middle" opacity="0">S2</text>
</g>
<path d="M3711 9554
L3730 9497
L3730 9402
L3711 9364
L3692 9345
L3654 9326
L3616 9326
L3578 9345
L3559 9364
L3540 9402
L3521 9478
L3502 9516
L3483 9535
L3445 9554
L3407 9554
L3369 9535
L3350 9516
L3330 9478
L3330 9383
L3350 9326
" />
<path d="M3369 9173
L3350 9154
L3330 9116
L3330 9021
L3350 8983
L3369 8964
L3407 8945
L3445 8945
L3502 8964
L3730 9192
L3730 8945
" />
<g transform="rotate(-90 3550 6250)">
<text x="3550" y="6450"
textLength="891.905" font-size="533.333" lengthAdjust="spacingAndGlyphs"
text-anchor="middle" opacity="0">S3</text>
</g>
<path d="M3711 6554
L3730 6497
L3730 6402
L3711 6364
L3692 6345
L3654 6326
L3616 6326
L3578 6345
L3559 6364
L3540 6402
L3521 6478
L3502 6516
L3483 6535
L3445 6554
L3407 6554
L3369 6535
L3350 6516
L3330 6478
L3330 6383
L3350 6326
" />
<path d="M3330 6192
L3330 5945
L3483 6078
L3483 6021
L3502 5983
L3521 5964
L3559 5945
L3654 5945
L3692 5964
L3711 5983
L3730 6021
L3730 6135
L3711 6173
L3692 6192
" />
<g transform="rotate(-90 14550 12250)">
<text x="14550" y="12450"
textLength="891.905" font-size="533.333" lengthAdjust="spacingAndGlyphs"
text-anchor="middle" opacity="0">S4</text>
</g>
<path d="M14711 12554
L14730 12497
L14730 12402
L14711 12364
L14692 12345
L14654 12326
L14616 12326
L14578 12345
L14559 12364
L14540 12402
L14521 12478
L14502 12516
L14483 12535
L14445 12554
L14407 12554
L14369 12535
L14350 12516
L14330 12478
L14330 12383
L14350 12326
" />
<path d="M14464 11983
L14730 11983
" />
<path d="M14311 12078
L14597 12173
L14597 11926
" />
<g transform="rotate(-90 14550 9250)">
<text x="14550" y="9450"
textLength="891.905" font-size="533.333" lengthAdjust="spacingAndGlyphs"
text-anchor="middle" opacity="0">S5</text>
</g>
<path d="M14711 9554
L14730 9497
L14730 9402
L14711 9364
L14692 9345
L14654 9326
L14616 9326
L14578 9345
L14559 9364
L14540 9402
L14521 9478
L14502 9516
L14483 9535
L14445 9554
L14407 9554
L14369 9535
L14350 9516
L14330 9478
L14330 9383
L14350 9326
" />
<path d="M14330 8964
L14330 9154
L14521 9173
L14502 9154
L14483 9116
L14483 9021
L14502 8983
L14521 8964
L14559 8945
L14654 8945
L14692 8964
L14711 8983
L14730 9021
L14730 9116
L14711 9154
L14692 9173
" />
<g transform="rotate(-90 14550 6250)">
<text x="14550" y="6450"
textLength="891.905" font-size="533.333" lengthAdjust="spacingAndGlyphs"
text-anchor="middle" opacity="0">S6</text>
</g>
<path d="M14711 6554
L14730 6497
L14730 6402
L14711 6364
L14692 6345
L14654 6326
L14616 6326
L14578 6345
L14559 6364
L14540 6402
L14521 6478
L14502 6516
L14483 6535
L14445 6554
L14407 6554
L14369 6535
L14350 6516
L14330 6478
L14330 6383
L14350 6326
" />
<path d="M14330 5983
L14330 6059
L14350 6097
L14369 6116
L14426 6154
L14502 6173
L14654 6173
L14692 6154
L14711 6135
L14730 6097
L14730 6021
L14711 5983
L14692 5964
L14654 5945
L14559 5945
L14521 5964
L14502 5983
L14483 6021
L14483 6097
L14502 6135
L14521 6154
L14559 6173
" />
<g transform="rotate(-90 25550 12250)">
<text x="25550" y="12450"
textLength="891.905" font-size="533.333" lengthAdjust="spacingAndGlyphs"
text-anchor="middle" opacity="0">S7</text>
</g>
<path d="M25711 12554
L25730 12497
L25730 12402
L25711 12364
L25692 12345
L25654 12326
L25616 12326
L25578 12345
L25559 12364
L25540 12402
L25521 12478
L25502 12516
L25483 12535
L25445 12554
L25407 12554
L25369 12535
L25350 12516
L25330 12478
L25330 12383
L25350 12326
" />
<path d="M25330 12192
L25330 11926
L25730 12097
" />
<g transform="rotate(-90 25550 9250)">
<text x="25550" y="9450"
textLength="891.905" font-size="533.333" lengthAdjust="spacingAndGlyphs"
text-anchor="middle" opacity="0">S8</text>
</g>
<path d="M25711 9554
L25730 9497
L25730 9402
L25711 9364
L25692 9345
L25654 9326
L25616 9326
L25578 9345
L25559 9364
L25540 9402
L25521 9478
L25502 9516
L25483 9535
L25445 9554
L25407 9554
L25369 9535
L25350 9516
L25330 9478
L25330 9383
L25350 9326
" />
<path d="M25502 9097
L25483 9135
L25464 9154
L25426 9173
L25407 9173
L25369 9154
L25350 9135
L25330 9097
L25330 9021
L25350 8983
L25369 8964
L25407 8945
L25426 8945
L25464 8964
L25483 8983
L25502 9021
L25502 9097
L25521 9135
L25540 9154
L25578 9173
L25654 9173
L25692 9154
L25711 9135
L25730 9097
L25730 9021
L25711 8983
L25692 8964
L25654 8945
L25578 8945
L25540 8964
L25521 8983
L25502 9021
" />
<g transform="rotate(-90 25550 6250)">
<text x="25550" y="6450"
textLength="891.905" font-size="533.333" lengthAdjust="spacingAndGlyphs"
text-anchor="middle" opacity="0">S9</text>
</g>
<path d="M25711 6554
L25730 6497
L25730 6402
L25711 6364
L25692 6345
L25654 6326
L25616 6326
L25578 6345
L25559 6364
L25540 6402
L25521 6478
L25502 6516
L25483 6535
L25445 6554
L25407 6554
L25369 6535
L25350 6516
L25330 6478
L25330 6383
L25350 6326
" />
<path d="M25730 6135
L25730 6059
L25711 6021
L25692 6002
L25635 5964
L25559 5945
L25407 5945
L25369 5964
L25350 5983
L25330 6021
L25330 6097
L25350 6135
L25369 6154
L25407 6173
L25502 6173
L25540 6154
L25559 6135
L25578 6097
L25578 6021
L25559 5983
L25540 5964
L25502 5945
" />
</g>
<g style="fill:#008484; fill-opacity:0.0; 
stroke:#008484; stroke-width:50; stroke-opacity:1; 
stroke-linecap:round; stroke-linejoin:round;">
<text x="13250" y="31050"
textLength="482.381" font-size="266.667" lengthAdjust="spacingAndGlyphs"
text-anchor="middle" opacity="0">L1</text>
<path d="M13216 31040
L13121 31040
L13121 30840
" />
<path d="M13388 31040
L13273 31040
" />
<path d="M13330 31040
L13330 30840
L13311 30869
L13292 30888
L13273 30897
" />
</g>
<g style="fill:#008484; fill-opacity:0.0; 
stroke:#008484; stroke-width:62.5; stroke-opacity:1; 
stroke-linecap:round; stroke-linejoin:round;">
<text x="7000" y="25175"
textLength="553.095" font-size="333.333" lengthAdjust="spacingAndGlyphs"
text-anchor="middle" opacity="0">C1</text>
<path d="M6958 25139
L6946 25151
L6910 25163
L6886 25163
L6851 25151
L6827 25127
L6815 25103
L6803 25055
L6803 25020
L6815 24972
L6827 24948
L6851 24925
L6886 24913
L6910 24913
L6946 24925
L6958 24936
" />
<path d="M7196 25163
L7053 25163
" />
<path d="M7125 25163
L7125 24913
L7101 24948
L7077 24972
L7053 24984
" />
<text x="7000" y="23575"
textLength="997.917" font-size="333.333" lengthAdjust="spacingAndGlyphs"
text-anchor="middle" opacity="0">10uF</text>
<path d="M6732 23563
L6589 23563
" />
<path d="M6660 23563
L6660 23313
L6636 23348
L6613 23372
L6589 23384
" />
<path d="M6886 23313
L6910 23313
L6934 23325
L6946 23336
L6958 23360
L6970 23408
L6970 23467
L6958 23515
L6946 23539
L6934 23551
L6910 23563
L6886 23563
L6863 23551
L6851 23539
L6839 23515
L6827 23467
L6827 23408
L6839 23360
L6851 23336
L6863 23325
L6886 23313
" />
<path d="M7184 23396
L7184 23563
" />
<path d="M7077 23396
L7077 23527
L7089 23551
L7113 23563
L7148 23563
L7172 23551
L7184 23539
" />
<path d="M7386 23432
L7303 23432
" />
<path d="M7303 23563
L7303 23313
L7422 23313
" />
</g>
<g style="fill:#008484; fill-opacity:0.0; 
stroke:#008484; stroke-width:100; stroke-opacity:1; 
stroke-linecap:round; stroke-linejoin:round;">
<text x="8750" y="22639"
textLength="862.202" font-size="533.333" lengthAdjust="spacingAndGlyphs"
text-anchor="middle" opacity="0">D1</text>
<path d="M8454 22619
L8454 22219
L8550 22219
L8607 22238
L8645 22277
L8664 22315
L8683 22391
L8683 22448
L8664 22524
L8645 22562
L8607 22600
L8550 22619
L8454 22619
" />
<path d="M9064 22619
L8835 22619
" />
<path d="M8950 22619
L8950 22219
L8911 22277
L8873 22315
L8835 22334
" />
<text x="24750" y="19200"
textLength="2682.38" font-size="533.333" lengthAdjust="spacingAndGlyphs"
text-anchor="middle" opacity="0">TEENSY1</text>
<path d="M23511 18780
L23740 18780
" />
<path d="M23626 19180
L23626 18780
" />
<path d="M23873 18971
L24007 18971
" />
<path d="M24064 19180
L23873 19180
L23873 18780
L24064 18780
" />
<path d="M24235 18971
L24369 18971
" />
<path d="M24426 19180
L24235 19180
L24235 18780
L24426 18780
" />
<path d="M24597 19180
L24597 18780
L24826 19180
L24826 18780
" />
<path d="M24997 19161
L25054 19180
L25150 19180
L25188 19161
L25207 19142
L25226 19104
L25226 19066
L25207 19028
L25188 19009
L25150 18990
L25073 18971
L25035 18952
L25016 18933
L24997 18895
L24997 18857
L25016 18819
L25035 18800
L25073 18780
L25169 18780
L25226 18800
" />
<path d="M25473 18990
L25473 19180
" />
<path d="M25340 18780
L25473 18990
L25607 18780
" />
<path d="M25950 19180
L25721 19180
" />
<path d="M25835 19180
L25835 18780
L25797 18838
L25759 18876
L25721 18895
" />
<text x="24750" y="33196.1"
textLength="3558.57" font-size="533.333" lengthAdjust="spacingAndGlyphs"
text-anchor="middle" opacity="0">TEENSY_4.0</text>
<path d="M23073 32777
L23302 32777
" />
<path d="M23188 33177
L23188 32777
" />
<path d="M23435 32967
L23569 32967
" />
<path d="M23626 33177
L23435 33177
L23435 32777
L23626 32777
" />
<path d="M23797 32967
L23930 32967
" />
<path d="M23988 33177
L23797 33177
L23797 32777
L23988 32777
" />
<path d="M24159 33177
L24159 32777
L24388 33177
L24388 32777
" />
<path d="M24559 33157
L24616 33177
L24711 33177
L24750 33157
L24769 33138
L24788 33100
L24788 33062
L24769 33024
L24750 33005
L24711 32986
L24635 32967
L24597 32948
L24578 32929
L24559 32891
L24559 32853
L24578 32815
L24597 32796
L24635 32777
L24730 32777
L24788 32796
" />
<path d="M25035 32986
L25035 33177
" />
<path d="M24902 32777
L25035 32986
L25169 32777
" />
<path d="M25207 33215
L25511 33215
" />
<path d="M25778 32910
L25778 33177
" />
<path d="M25683 32757
L25588 33043
L25835 33043
" />
<path d="M25988 33138
L26007 33157
L25988 33177
L25969 33157
L25988 33138
L25988 33177
" />
<path d="M26254 32777
L26292 32777
L26330 32796
L26350 32815
L26369 32853
L26388 32929
L26388 33024
L26369 33100
L26350 33138
L26330 33157
L26292 33177
L26254 33177
L26216 33157
L26197 33138
L26178 33100
L26159 33024
L26159 32929
L26178 32853
L26197 32815
L26216 32796
L26254 32777
" />
</g>
<g style="fill:#008484; fill-opacity:0.0; 
stroke:#008484; stroke-width:70; stroke-opacity:1; 
stroke-linecap:round; stroke-linejoin:round;">
<text x="24750" y="27700"
textLength="3387.14" font-size="533.333" lengthAdjust="spacingAndGlyphs"
text-anchor="middle" opacity="0">iMXRT1062</text>
<path d="M23216 27680
L23216 27414
" />
<path d="M23216 27280
L23197 27300
L23216 27319
L23235 27300
L23216 27280
L23216 27319
" />
<path d="M23407 27680
L23407 27280
L23540 27566
L23673 27280
L23673 27680
" />
<path d="M23826 27280
L24092 27680
" />
<path d="M24092 27280
L23826 27680
" />
<path d="M24473 27680
L24340 27490
" />
<path d="M24245 27680
L24245 27280
L24397 27280
L24435 27300
L24454 27319
L24473 27357
L24473 27414
L24454 27452
L24435 27471
L24397 27490
L24245 27490
" />
<path d="M24588 27280
L24816 27280
" />
<path d="M24702 27680
L24702 27280
" />
<path d="M25159 27680
L24930 27680
" />
<path d="M25045 27680
L25045 27280
L25007 27338
L24969 27376
L24930 27395
" />
<path d="M25407 27280
L25445 27280
L25483 27300
L25502 27319
L25521 27357
L25540 27433
L25540 27528
L25521 27604
L25502 27642
L25483 27661
L25445 27680
L25407 27680
L25369 27661
L25350 27642
L25330 27604
L25311 27528
L25311 27433
L25330 27357
L25350 27319
L25369 27300
L25407 27280
" />
<path d="M25883 27280
L25807 27280
L25769 27300
L25750 27319
L25711 27376
L25692 27452
L25692 27604
L25711 27642
L25730 27661
L25769 27680
L25845 27680
L25883 27661
L25902 27642
L25921 27604
L25921 27509
L25902 27471
L25883 27452
L25845 27433
L25769 27433
L25730 27452
L25711 27471
L25692 27509
" />
<path d="M26073 27319
L26092 27300
L26130 27280
L26226 27280
L26264 27300
L26283 27319
L26302 27357
L26302 27395
L26283 27452
L26054 27680
L26302 27680
" />
<g >
</g>
</g>
<g style="fill:#000000; fill-opacity:0.0; 
stroke:#000000; stroke-width:70; stroke-opacity:1; 
stroke-linecap:round; stroke-linejoin:round;">
</g>
<g style="fill:#C2C200; fill-opacity:0.0; 
stroke:#C2C200; stroke-width:70; stroke-opacity:1; 
stroke-linecap:round; stroke-linejoin:round;">
</g>
<g style="fill:#C2C200; fill-opacity:0.0; 
stroke:#C2C200; stroke-width:110; stroke-opacity:1; 
stroke-linecap:round; stroke-linejoin:round;">
<path d="M29000 33750 A2500 2500 0.0 0 0 31500 31250" />
<path d="M2000 31250 A2500 2500 0.0 0 0 4500 33750" />
<path d="M31500 4500 A2500 2500 0.0 0 0 29000 2000" />
<path d="M4500 2000 A2500 2500 0.0 0 0 2000 4500" />
<path d="M4500 2000
L29000 2000
" />
<path d="M2000 31250
L2000 4500
" />
<path d="M29000 33750
L4500 33750
" />
<path d="M31500 4500
L31500 31250
" />
<g >
</g>
<g >
</g>
<g >
</g>
<g >
</g>
<g >
</g>
<g >
</g>
<g >
</g>
<g >
</g>
<g >
</g>
<g >
</g>
<g >
</g>
<g >
</g>
<g >
</g>
<g >
</g>
<g >
</g>
<g >
</g>
<g >
</g>
<g >
</g>
<g >
</g>
<g >
</g>
<g >
</g>
<g >
</g>
<g >
</g>
<g >
</g>
<g >
</g>
<g >
</g>
<g >
</g>
<g >
</g>
<g >
</g>
<g >
</g>
<g >
</g>
<g >
</g>
<g >
</g>
<g >
</g>
<g >
</g>
<g >
</g>
<g >
</g>
<g >
</g>
<g >
</g>
<g >
</g>
<g >
</g>
<g >
</g>
<g >
</g>
<g >
</g>
<g >
</g>
<g >
</g>
<g >
</g>
<g >
</g>
<g >
</g>
<g >
</g>
<g >
</g>
<g >
</g>
<g >
</g>
<g >
</g>
<g >
</g>
<g >
</g>
<g >
</g>
<g >
</g>
<g >
</g>
<g >
</g>
<g >
</g>
<g >
</g>
<g >
</g>
<g >
</g>
<g >
</g>
<g >
</g>
<g >
</g>
<g >
</g>
<g >
</g>
<g >
</g>
<g >
</g>
<g >
</g>
<g >
</g>
<g >
</g>
<g >
</g>
<g >
</g>
<g >
</g>
<g >
</g>
<g >
</g>
<g >
</g>
<g >
</g>
<g >
</g>
<g >
</g>
<g >
</g>
<g >
</g>
<g >
</g>
<g >
</g>
<g >
</g>
<g >
</g>
<g >
</g>
<g >
</g>
<g >
</g>
<g >
</g>
<g >
</g>
<g >
</g>
<g >
</g>
<g >
</g>
<g >
</g>
<g >
</g>
<g >
</g>
<g >
</g>
<g >
</g>
<g >
</g>
<g >
</g>
<g >
</g>
<g >
</g>
</g> 
</svg>
