%TF.GenerationSoftware,KiCad,Pcbnew,5.1.6-c6e7f7d~87~ubuntu20.04.1*%
%TF.CreationDate,2020-08-03T15:13:37-04:00*%
%TF.ProjectId,y_arena_valve_controller,795f6172-656e-4615-9f76-616c76655f63,1.2*%
%TF.SameCoordinates,Original*%
%TF.FileFunction,Copper,L1,Top*%
%TF.FilePolarity,Positive*%
%FSLAX46Y46*%
G04 Gerber Fmt 4.6, Leading zero omitted, Abs format (unit mm)*
G04 Created by KiCad (PCBNEW 5.1.6-c6e7f7d~87~ubuntu20.04.1) date 2020-08-03 15:13:37*
%MOMM*%
%LPD*%
G01*
G04 APERTURE LIST*
%TA.AperFunction,ComponentPad*%
%ADD10C,2.286000*%
%TD*%
%TA.AperFunction,ComponentPad*%
%ADD11O,2.540000X2.184400*%
%TD*%
%TA.AperFunction,ComponentPad*%
%ADD12R,2.540000X2.184400*%
%TD*%
%TA.AperFunction,SMDPad,CuDef*%
%ADD13R,3.810000X2.030000*%
%TD*%
%TA.AperFunction,SMDPad,CuDef*%
%ADD14R,1.020000X2.290000*%
%TD*%
%TA.AperFunction,SMDPad,CuDef*%
%ADD15R,2.999999X2.500000*%
%TD*%
%TA.AperFunction,ComponentPad*%
%ADD16C,3.000000*%
%TD*%
%TA.AperFunction,SMDPad,CuDef*%
%ADD17R,3.900000X6.200000*%
%TD*%
%TA.AperFunction,SMDPad,CuDef*%
%ADD18R,3.300000X4.400000*%
%TD*%
%TA.AperFunction,SMDPad,CuDef*%
%ADD19R,1.193800X1.193800*%
%TD*%
%TA.AperFunction,SMDPad,CuDef*%
%ADD20C,0.500000*%
%TD*%
%TA.AperFunction,ComponentPad*%
%ADD21C,3.556000*%
%TD*%
%TA.AperFunction,SMDPad,CuDef*%
%ADD22R,1.600200X0.787400*%
%TD*%
%TA.AperFunction,SMDPad,CuDef*%
%ADD23R,1.600000X1.440000*%
%TD*%
%TA.AperFunction,SMDPad,CuDef*%
%ADD24R,3.800000X4.960000*%
%TD*%
%TA.AperFunction,ViaPad*%
%ADD25C,0.889000*%
%TD*%
%TA.AperFunction,Conductor*%
%ADD26C,0.406400*%
%TD*%
%TA.AperFunction,Conductor*%
%ADD27C,0.203200*%
%TD*%
G04 APERTURE END LIST*
D10*
%TO.P,S1,2*%
%TO.N,VCC*%
X52705000Y-75565000D03*
%TO.P,S1,1*%
%TO.N,/valve_0/SH*%
X52705000Y-78105000D03*
%TD*%
%TO.P,S2,2*%
%TO.N,VCC*%
X52705000Y-67945000D03*
%TO.P,S2,1*%
%TO.N,/valve_1/SH*%
X52705000Y-70485000D03*
%TD*%
%TO.P,S3,2*%
%TO.N,VCC*%
X52705000Y-60325000D03*
%TO.P,S3,1*%
%TO.N,/valve_2/SH*%
X52705000Y-62865000D03*
%TD*%
%TO.P,S4,2*%
%TO.N,VCC*%
X80645000Y-75565000D03*
%TO.P,S4,1*%
%TO.N,/valve_3/SH*%
X80645000Y-78105000D03*
%TD*%
%TO.P,S5,2*%
%TO.N,VCC*%
X80645000Y-67945000D03*
%TO.P,S5,1*%
%TO.N,/valve_4/SH*%
X80645000Y-70485000D03*
%TD*%
%TO.P,S6,2*%
%TO.N,VCC*%
X80645000Y-60325000D03*
%TO.P,S6,1*%
%TO.N,/valve_5/SH*%
X80645000Y-62865000D03*
%TD*%
%TO.P,S7,2*%
%TO.N,VCC*%
X108585000Y-75565000D03*
%TO.P,S7,1*%
%TO.N,/valve_6/SH*%
X108585000Y-78105000D03*
%TD*%
%TO.P,S8,2*%
%TO.N,VCC*%
X108585000Y-67945000D03*
%TO.P,S8,1*%
%TO.N,/valve_7/SH*%
X108585000Y-70485000D03*
%TD*%
%TO.P,S9,2*%
%TO.N,VCC*%
X108585000Y-60325000D03*
%TO.P,S9,1*%
%TO.N,/valve_8/SH*%
X108585000Y-62865000D03*
%TD*%
D11*
%TO.P,TEENSY1,V_IN*%
%TO.N,N/C*%
X100965000Y-129540000D03*
%TO.P,TEENSY1,*%
%TO.N,*%
X100965000Y-127000000D03*
%TO.P,TEENSY1,3V3*%
%TO.N,N/C*%
X100965000Y-124460000D03*
%TO.P,TEENSY1,23*%
X100965000Y-121920000D03*
%TO.P,TEENSY1,22*%
%TO.N,/VALVE_0*%
X100965000Y-119380000D03*
%TO.P,TEENSY1,21*%
%TO.N,/VALVE_1*%
X100965000Y-116840000D03*
%TO.P,TEENSY1,20*%
%TO.N,/VALVE_2*%
X100965000Y-114300000D03*
%TO.P,TEENSY1,19*%
%TO.N,/VALVE_3*%
X100965000Y-111760000D03*
%TO.P,TEENSY1,18*%
%TO.N,/VALVE_4*%
X100965000Y-109220000D03*
%TO.P,TEENSY1,17*%
%TO.N,/VALVE_5*%
X100965000Y-106680000D03*
%TO.P,TEENSY1,16*%
%TO.N,/VALVE_6*%
X100965000Y-104140000D03*
%TO.P,TEENSY1,15*%
%TO.N,/VALVE_7*%
X100965000Y-101600000D03*
%TO.P,TEENSY1,14*%
%TO.N,/VALVE_8*%
X100965000Y-99060000D03*
%TO.P,TEENSY1,13*%
%TO.N,N/C*%
X100965000Y-96520000D03*
%TO.P,TEENSY1,12*%
X116205000Y-96520000D03*
%TO.P,TEENSY1,11*%
X116205000Y-99060000D03*
%TO.P,TEENSY1,10*%
X116205000Y-101600000D03*
%TO.P,TEENSY1,9*%
X116205000Y-104140000D03*
%TO.P,TEENSY1,8*%
X116205000Y-106680000D03*
%TO.P,TEENSY1,7*%
X116205000Y-109220000D03*
%TO.P,TEENSY1,6*%
X116205000Y-111760000D03*
%TO.P,TEENSY1,5*%
X116205000Y-114300000D03*
%TO.P,TEENSY1,4*%
X116205000Y-116840000D03*
%TO.P,TEENSY1,3*%
X116205000Y-119380000D03*
%TO.P,TEENSY1,2*%
X116205000Y-121920000D03*
%TO.P,TEENSY1,1*%
X116205000Y-124460000D03*
%TO.P,TEENSY1,0*%
X116205000Y-127000000D03*
D12*
%TO.P,TEENSY1,GND*%
%TO.N,GND*%
X116205000Y-129540000D03*
%TD*%
D13*
%TO.P,SW1,1*%
%TO.N,/Vled*%
X84580000Y-120470000D03*
%TO.P,SW1,3*%
%TO.N,N/C*%
X91950000Y-120470000D03*
D14*
%TO.P,SW1,2*%
%TO.N,VCC*%
X88265000Y-120470000D03*
D15*
%TO.P,SW1,*%
%TO.N,*%
X93265000Y-129540000D03*
X83265000Y-129540000D03*
%TD*%
D16*
%TO.P,P1,*%
%TO.N,*%
X67945000Y-127175000D03*
D17*
%TO.P,P1,3*%
%TO.N,N/C*%
X74395000Y-123375000D03*
%TO.P,P1,2*%
%TO.N,GND*%
X61495000Y-123375000D03*
D18*
%TO.P,P1,1*%
%TO.N,VAA*%
X68595000Y-114425000D03*
%TD*%
D19*
%TO.P,L2,2*%
%TO.N,/valve_0/SH*%
X83185000Y-113245900D03*
%TO.P,L2,1*%
%TO.N,Net-(L2-Pad1)*%
X83185000Y-115354100D03*
%TD*%
%TO.P,L3,2*%
%TO.N,/valve_1/SH*%
X83185000Y-108165900D03*
%TO.P,L3,1*%
%TO.N,Net-(L3-Pad1)*%
X83185000Y-110274100D03*
%TD*%
%TO.P,L4,2*%
%TO.N,/valve_2/SH*%
X83185000Y-103085900D03*
%TO.P,L4,1*%
%TO.N,Net-(L4-Pad1)*%
X83185000Y-105194100D03*
%TD*%
%TO.P,L5,2*%
%TO.N,/valve_3/SH*%
X88265000Y-113245900D03*
%TO.P,L5,1*%
%TO.N,Net-(L5-Pad1)*%
X88265000Y-115354100D03*
%TD*%
%TO.P,L6,2*%
%TO.N,/valve_4/SH*%
X88265000Y-108165900D03*
%TO.P,L6,1*%
%TO.N,Net-(L6-Pad1)*%
X88265000Y-110274100D03*
%TD*%
%TO.P,L7,2*%
%TO.N,/valve_5/SH*%
X88265000Y-103085900D03*
%TO.P,L7,1*%
%TO.N,Net-(L7-Pad1)*%
X88265000Y-105194100D03*
%TD*%
%TO.P,L8,2*%
%TO.N,/valve_6/SH*%
X93345000Y-113245900D03*
%TO.P,L8,1*%
%TO.N,Net-(L8-Pad1)*%
X93345000Y-115354100D03*
%TD*%
%TO.P,L9,2*%
%TO.N,/valve_7/SH*%
X93345000Y-108165900D03*
%TO.P,L9,1*%
%TO.N,Net-(L9-Pad1)*%
X93345000Y-110274100D03*
%TD*%
%TO.P,L10,2*%
%TO.N,/valve_8/SH*%
X93345000Y-103085900D03*
%TO.P,L10,1*%
%TO.N,Net-(L10-Pad1)*%
X93345000Y-105194100D03*
%TD*%
%TO.P,L1,2*%
%TO.N,GND*%
X79375000Y-125310900D03*
%TO.P,L1,1*%
%TO.N,Net-(L1-Pad1)*%
X79375000Y-127419100D03*
%TD*%
D20*
%TO.P,FID1,~*%
%TO.N,N/C*%
X53975000Y-53975000D03*
%TD*%
%TO.P,FID2,~*%
%TO.N,N/C*%
X122555000Y-53975000D03*
%TD*%
%TO.P,FID3,~*%
%TO.N,N/C*%
X122555000Y-128270000D03*
%TD*%
%TO.P,FID4,~*%
%TO.N,N/C*%
X53975000Y-128270000D03*
%TD*%
D21*
%TO.P,MH1,1*%
%TO.N,N/C*%
X92710000Y-85090000D03*
%TD*%
%TO.P,MH2,1*%
%TO.N,N/C*%
X64770000Y-56515000D03*
%TD*%
%TO.P,MH3,1*%
%TO.N,N/C*%
X120650000Y-56515000D03*
%TD*%
D22*
%TO.P,C1,2*%
%TO.N,GND*%
X63500000Y-108356400D03*
%TO.P,C1,1*%
%TO.N,VCC*%
X63500000Y-106273600D03*
%TD*%
D23*
%TO.P,D1,2*%
%TO.N,VAA*%
X66880000Y-110095000D03*
X69010000Y-110095000D03*
D24*
%TO.P,D1,1*%
%TO.N,VCC*%
X67945000Y-106295000D03*
%TD*%
D25*
%TO.N,/VALVE_0*%
X63607900Y-78095900D03*
%TO.N,/VALVE_1*%
X63617700Y-70467700D03*
%TO.N,/VALVE_3*%
X89597600Y-78236000D03*
%TO.N,/VALVE_4*%
X89247700Y-68287600D03*
%TO.N,/VALVE_8*%
X117057700Y-61295300D03*
%TO.N,GND*%
X62394700Y-86351100D03*
%TO.N,/Vled*%
X82346800Y-121947400D03*
%TO.N,Net-(L1-Pad1)*%
X81044100Y-127746500D03*
%TO.N,Net-(L2-Pad1)*%
X83185000Y-116534600D03*
%TO.N,Net-(L3-Pad1)*%
X84413000Y-110577900D03*
%TO.N,Net-(L4-Pad1)*%
X84262600Y-106118800D03*
%TO.N,Net-(L5-Pad1)*%
X89674600Y-115662300D03*
%TO.N,Net-(L6-Pad1)*%
X89448800Y-110583300D03*
%TO.N,Net-(L7-Pad1)*%
X89416600Y-105488000D03*
%TO.N,Net-(L8-Pad1)*%
X95543100Y-114974600D03*
%TO.N,Net-(L9-Pad1)*%
X94528800Y-110598900D03*
%TO.N,Net-(L10-Pad1)*%
X94509700Y-105523700D03*
%TD*%
D26*
%TO.N,/VALVE_0*%
X99366800Y-119380000D02*
X98836100Y-118849300D01*
X98836100Y-118849300D02*
X90104300Y-118849300D01*
X90104300Y-118849300D02*
X85512200Y-114257200D01*
X85512200Y-114257200D02*
X85512200Y-105896000D01*
X85512200Y-105896000D02*
X83908300Y-104292100D01*
X83908300Y-104292100D02*
X82765500Y-104292100D01*
X82765500Y-104292100D02*
X82282900Y-103809500D01*
X82282900Y-103809500D02*
X82282900Y-96770900D01*
X82282900Y-96770900D02*
X63607900Y-78095900D01*
X100965000Y-119380000D02*
X99366800Y-119380000D01*
%TO.N,/VALVE_1*%
X63617700Y-70467700D02*
X86138500Y-92988500D01*
X86138500Y-92988500D02*
X86138500Y-112761000D01*
X86138500Y-112761000D02*
X87829500Y-114452000D01*
X87829500Y-114452000D02*
X89567500Y-114452000D01*
X89567500Y-114452000D02*
X91955500Y-116840000D01*
X91955500Y-116840000D02*
X99366800Y-116840000D01*
X100965000Y-116840000D02*
X99366800Y-116840000D01*
%TO.N,/VALVE_3*%
X89597600Y-78236000D02*
X89597600Y-92222700D01*
X89597600Y-92222700D02*
X90528400Y-93153500D01*
X90528400Y-93153500D02*
X90528400Y-114283500D01*
X90528400Y-114283500D02*
X92501100Y-116256200D01*
X92501100Y-116256200D02*
X96468800Y-116256200D01*
X96468800Y-116256200D02*
X100965000Y-111760000D01*
%TO.N,/VALVE_4*%
X100965000Y-109220000D02*
X96037000Y-114148000D01*
X96037000Y-114148000D02*
X92555200Y-114148000D01*
X92555200Y-114148000D02*
X92442900Y-114035700D01*
X92442900Y-114035700D02*
X92442900Y-94095200D01*
X92442900Y-94095200D02*
X90528500Y-92180800D01*
X90528500Y-92180800D02*
X90528500Y-69568400D01*
X90528500Y-69568400D02*
X89247700Y-68287600D01*
%TO.N,/VALVE_8*%
X100965000Y-99060000D02*
X117057700Y-82967300D01*
X117057700Y-82967300D02*
X117057700Y-61295300D01*
%TO.N,VAA*%
X68008200Y-110095000D02*
X68008200Y-110141400D01*
X68008200Y-110141400D02*
X69010000Y-111143200D01*
X66880000Y-110095000D02*
X68008200Y-110095000D01*
X69010000Y-111143200D02*
X68595000Y-111558200D01*
X68595000Y-111558200D02*
X68595000Y-114425000D01*
X69010000Y-110095000D02*
X69010000Y-111143200D01*
%TO.N,GND*%
X63500000Y-107634500D02*
X63229300Y-107634500D01*
X63229300Y-107634500D02*
X62394700Y-106799900D01*
X62394700Y-106799900D02*
X62394700Y-86351100D01*
X63500000Y-108356400D02*
X63500000Y-107634500D01*
X63500000Y-108356400D02*
X63500000Y-121660900D01*
X63500000Y-121660900D02*
X65727300Y-121660900D01*
X65727300Y-121660900D02*
X70945000Y-126878600D01*
X70945000Y-126878600D02*
X76882200Y-126878600D01*
X76882200Y-126878600D02*
X78449900Y-125310900D01*
X61495000Y-121660900D02*
X63500000Y-121660900D01*
X79375000Y-125310900D02*
X78449900Y-125310900D01*
X61495000Y-123375000D02*
X61495000Y-121660900D01*
%TO.N,VCC*%
X64064200Y-106273600D02*
X64064200Y-86924200D01*
X64064200Y-86924200D02*
X52705000Y-75565000D01*
X80645000Y-60325000D02*
X108585000Y-60325000D01*
X79152000Y-61818000D02*
X80645000Y-60325000D01*
X80645000Y-67945000D02*
X79152000Y-66452000D01*
X79152000Y-66452000D02*
X79152000Y-61818000D01*
X79152000Y-61818000D02*
X54198000Y-61818000D01*
X54198000Y-61818000D02*
X52705000Y-60325000D01*
X108585000Y-60325000D02*
X110040500Y-61780500D01*
X110040500Y-61780500D02*
X110040500Y-66489500D01*
X110040500Y-66489500D02*
X108585000Y-67945000D01*
X52705000Y-67945000D02*
X51213600Y-66453600D01*
X51213600Y-66453600D02*
X51213600Y-61816400D01*
X51213600Y-61816400D02*
X52705000Y-60325000D01*
X67945000Y-106295000D02*
X70173200Y-106295000D01*
X88265000Y-120470000D02*
X88265000Y-118996800D01*
X88265000Y-118996800D02*
X82875000Y-118996800D01*
X82875000Y-118996800D02*
X70173200Y-106295000D01*
X64064200Y-106273600D02*
X64628300Y-106273600D01*
X63500000Y-106273600D02*
X64064200Y-106273600D01*
X67945000Y-106295000D02*
X64649700Y-106295000D01*
X64649700Y-106295000D02*
X64628300Y-106273600D01*
%TO.N,/Vled*%
X82346800Y-120470000D02*
X82346800Y-121947400D01*
X84580000Y-120470000D02*
X82346800Y-120470000D01*
%TO.N,/valve_0/SH*%
X83185000Y-113245900D02*
X83185000Y-112320800D01*
X52705000Y-78105000D02*
X51213600Y-76613600D01*
X51213600Y-76613600D02*
X51213600Y-74962200D01*
X51213600Y-74962200D02*
X52104700Y-74071100D01*
X52104700Y-74071100D02*
X53292600Y-74071100D01*
X53292600Y-74071100D02*
X79759400Y-100537900D01*
X79759400Y-100537900D02*
X79759400Y-108895200D01*
X79759400Y-108895200D02*
X83185000Y-112320800D01*
%TO.N,/valve_1/SH*%
X83185000Y-108165900D02*
X83185000Y-107240800D01*
X52705000Y-70485000D02*
X81678100Y-99458100D01*
X81678100Y-99458100D02*
X81678100Y-105733900D01*
X81678100Y-105733900D02*
X83185000Y-107240800D01*
%TO.N,/valve_2/SH*%
X52705000Y-62865000D02*
X83184900Y-93344900D01*
X83184900Y-93344900D02*
X83184900Y-102160800D01*
X83184900Y-102160800D02*
X83185000Y-102160800D01*
X83185000Y-103085900D02*
X83185000Y-102160800D01*
%TO.N,/valve_3/SH*%
X80645000Y-78105000D02*
X86708500Y-84168500D01*
X86708500Y-84168500D02*
X86708500Y-110764300D01*
X86708500Y-110764300D02*
X88265000Y-112320800D01*
X88265000Y-113245900D02*
X88265000Y-112320800D01*
%TO.N,/valve_4/SH*%
X80645000Y-70485000D02*
X87362900Y-77202900D01*
X87362900Y-77202900D02*
X87362900Y-106338700D01*
X87362900Y-106338700D02*
X88265000Y-107240800D01*
X88265000Y-108165900D02*
X88265000Y-107240800D01*
%TO.N,/valve_5/SH*%
X80645000Y-62865000D02*
X88265000Y-70485000D01*
X88265000Y-70485000D02*
X88265000Y-103085900D01*
%TO.N,/valve_6/SH*%
X93345000Y-113245900D02*
X93345000Y-112320800D01*
X108585000Y-78105000D02*
X98255400Y-88434600D01*
X98255400Y-88434600D02*
X98255400Y-107988600D01*
X98255400Y-107988600D02*
X93923200Y-112320800D01*
X93923200Y-112320800D02*
X93345000Y-112320800D01*
%TO.N,/valve_7/SH*%
X93345000Y-107240800D02*
X93880100Y-107240800D01*
X93880100Y-107240800D02*
X96313800Y-104807100D01*
X96313800Y-104807100D02*
X96313800Y-82756200D01*
X96313800Y-82756200D02*
X108585000Y-70485000D01*
X93345000Y-108165900D02*
X93345000Y-107240800D01*
%TO.N,/valve_8/SH*%
X93345000Y-103085900D02*
X93345000Y-102160800D01*
X108585000Y-62865000D02*
X95551500Y-75898500D01*
X95551500Y-75898500D02*
X95551500Y-99954300D01*
X95551500Y-99954300D02*
X93345000Y-102160800D01*
%TO.N,Net-(L1-Pad1)*%
X79375000Y-127419100D02*
X80716700Y-127419100D01*
X80716700Y-127419100D02*
X81044100Y-127746500D01*
%TO.N,Net-(L2-Pad1)*%
X83185000Y-116279200D02*
X83185000Y-116534600D01*
X83185000Y-115354100D02*
X83185000Y-116279200D01*
%TO.N,Net-(L3-Pad1)*%
X84110100Y-110274100D02*
X84110100Y-110275000D01*
X84110100Y-110275000D02*
X84413000Y-110577900D01*
X83185000Y-110274100D02*
X84110100Y-110274100D01*
%TO.N,Net-(L4-Pad1)*%
X84262600Y-106118800D02*
X84109700Y-106118800D01*
X84109700Y-106118800D02*
X83185000Y-105194100D01*
%TO.N,Net-(L5-Pad1)*%
X88265000Y-115354100D02*
X89190100Y-115354100D01*
X89674600Y-115662300D02*
X89498300Y-115662300D01*
X89498300Y-115662300D02*
X89190100Y-115354100D01*
%TO.N,Net-(L6-Pad1)*%
X89190100Y-110274100D02*
X89190100Y-110324600D01*
X89190100Y-110324600D02*
X89448800Y-110583300D01*
X88265000Y-110274100D02*
X89190100Y-110274100D01*
%TO.N,Net-(L7-Pad1)*%
X89190100Y-105194100D02*
X89190100Y-105261500D01*
X89190100Y-105261500D02*
X89416600Y-105488000D01*
X88265000Y-105194100D02*
X89190100Y-105194100D01*
%TO.N,Net-(L8-Pad1)*%
X94270100Y-115354100D02*
X94649600Y-114974600D01*
X94649600Y-114974600D02*
X95543100Y-114974600D01*
X93345000Y-115354100D02*
X94270100Y-115354100D01*
%TO.N,Net-(L9-Pad1)*%
X94270100Y-110274100D02*
X94270100Y-110340200D01*
X94270100Y-110340200D02*
X94528800Y-110598900D01*
X93345000Y-110274100D02*
X94270100Y-110274100D01*
%TO.N,Net-(L10-Pad1)*%
X94270100Y-105194100D02*
X94270100Y-105284100D01*
X94270100Y-105284100D02*
X94509700Y-105523700D01*
X93345000Y-105194100D02*
X94270100Y-105194100D01*
%TD*%
D27*
%TO.N,VCC*%
G36*
X120303614Y-51318565D02*
G01*
X121204475Y-51534843D01*
X122060412Y-51889384D01*
X122850358Y-52373463D01*
X123554850Y-52975156D01*
X124156535Y-53679639D01*
X124640615Y-54469583D01*
X124995158Y-55325526D01*
X125211436Y-56226392D01*
X125285500Y-57167467D01*
X125285501Y-125077520D01*
X125211436Y-126018608D01*
X124995158Y-126919474D01*
X124640615Y-127775417D01*
X124156535Y-128565361D01*
X123554850Y-129269844D01*
X122850358Y-129871537D01*
X122060412Y-130355616D01*
X121204475Y-130710157D01*
X120303614Y-130926435D01*
X119362533Y-131000500D01*
X94986547Y-131000500D01*
X95019657Y-130960157D01*
X95047959Y-130907206D01*
X95065388Y-130849751D01*
X95071273Y-130790000D01*
X95071273Y-128290000D01*
X95065388Y-128230249D01*
X95047959Y-128172794D01*
X95019657Y-128119843D01*
X94981567Y-128073432D01*
X94935156Y-128035342D01*
X94882205Y-128007040D01*
X94824750Y-127989611D01*
X94764999Y-127983726D01*
X91765001Y-127983726D01*
X91705250Y-127989611D01*
X91647795Y-128007040D01*
X91594844Y-128035342D01*
X91548433Y-128073432D01*
X91510343Y-128119843D01*
X91482041Y-128172794D01*
X91464612Y-128230249D01*
X91458727Y-128290000D01*
X91458727Y-130790000D01*
X91464612Y-130849751D01*
X91482041Y-130907206D01*
X91510343Y-130960157D01*
X91543453Y-131000500D01*
X84986547Y-131000500D01*
X85019657Y-130960157D01*
X85047959Y-130907206D01*
X85065388Y-130849751D01*
X85071273Y-130790000D01*
X85071273Y-128290000D01*
X85065388Y-128230249D01*
X85047959Y-128172794D01*
X85019657Y-128119843D01*
X84981567Y-128073432D01*
X84935156Y-128035342D01*
X84882205Y-128007040D01*
X84824750Y-127989611D01*
X84764999Y-127983726D01*
X81765001Y-127983726D01*
X81756529Y-127984560D01*
X81764605Y-127965063D01*
X81793400Y-127820300D01*
X81793400Y-127672700D01*
X81764605Y-127527937D01*
X81708121Y-127391573D01*
X81626120Y-127268849D01*
X81521751Y-127164480D01*
X81399027Y-127082479D01*
X81262663Y-127025995D01*
X81117900Y-126997200D01*
X81003377Y-126997200D01*
X81000295Y-126994671D01*
X80912043Y-126947499D01*
X80816285Y-126918451D01*
X80741647Y-126911100D01*
X80741644Y-126911100D01*
X80716700Y-126908643D01*
X80691756Y-126911100D01*
X80278174Y-126911100D01*
X80278174Y-126822200D01*
X80272289Y-126762449D01*
X80254860Y-126704994D01*
X80226558Y-126652043D01*
X80188468Y-126605632D01*
X80142057Y-126567542D01*
X80089106Y-126539240D01*
X80031651Y-126521811D01*
X79971900Y-126515926D01*
X78778100Y-126515926D01*
X78718349Y-126521811D01*
X78660894Y-126539240D01*
X78607943Y-126567542D01*
X78561532Y-126605632D01*
X78523442Y-126652043D01*
X78495140Y-126704994D01*
X78477711Y-126762449D01*
X78471826Y-126822200D01*
X78471826Y-128016000D01*
X78477711Y-128075751D01*
X78495140Y-128133206D01*
X78523442Y-128186157D01*
X78561532Y-128232568D01*
X78607943Y-128270658D01*
X78660894Y-128298960D01*
X78718349Y-128316389D01*
X78778100Y-128322274D01*
X79971900Y-128322274D01*
X80031651Y-128316389D01*
X80089106Y-128298960D01*
X80142057Y-128270658D01*
X80188468Y-128232568D01*
X80226558Y-128186157D01*
X80254860Y-128133206D01*
X80272289Y-128075751D01*
X80278174Y-128016000D01*
X80278174Y-127927100D01*
X80316044Y-127927100D01*
X80323595Y-127965063D01*
X80380079Y-128101427D01*
X80462080Y-128224151D01*
X80566449Y-128328520D01*
X80689173Y-128410521D01*
X80825537Y-128467005D01*
X80970300Y-128495800D01*
X81117900Y-128495800D01*
X81262663Y-128467005D01*
X81399027Y-128410521D01*
X81458727Y-128370631D01*
X81458727Y-130790000D01*
X81464612Y-130849751D01*
X81482041Y-130907206D01*
X81510343Y-130960157D01*
X81543453Y-131000500D01*
X57167467Y-131000500D01*
X56226392Y-130926436D01*
X55325526Y-130710158D01*
X54469583Y-130355615D01*
X53679639Y-129871535D01*
X52975156Y-129269850D01*
X52373463Y-128565358D01*
X52156158Y-128210748D01*
X53373400Y-128210748D01*
X53373400Y-128329252D01*
X53396519Y-128445480D01*
X53441869Y-128554965D01*
X53507707Y-128653498D01*
X53591502Y-128737293D01*
X53690035Y-128803131D01*
X53799520Y-128848481D01*
X53915748Y-128871600D01*
X54034252Y-128871600D01*
X54150480Y-128848481D01*
X54259965Y-128803131D01*
X54358498Y-128737293D01*
X54442293Y-128653498D01*
X54508131Y-128554965D01*
X54553481Y-128445480D01*
X54576600Y-128329252D01*
X54576600Y-128210748D01*
X54553481Y-128094520D01*
X54508131Y-127985035D01*
X54442293Y-127886502D01*
X54358498Y-127802707D01*
X54259965Y-127736869D01*
X54150480Y-127691519D01*
X54034252Y-127668400D01*
X53915748Y-127668400D01*
X53799520Y-127691519D01*
X53690035Y-127736869D01*
X53591502Y-127802707D01*
X53507707Y-127886502D01*
X53441869Y-127985035D01*
X53396519Y-128094520D01*
X53373400Y-128210748D01*
X52156158Y-128210748D01*
X51889384Y-127775412D01*
X51567056Y-126997243D01*
X66140200Y-126997243D01*
X66140200Y-127352757D01*
X66209557Y-127701441D01*
X66345607Y-128029894D01*
X66543120Y-128325493D01*
X66794507Y-128576880D01*
X67090106Y-128774393D01*
X67418559Y-128910443D01*
X67767243Y-128979800D01*
X68122757Y-128979800D01*
X68471441Y-128910443D01*
X68799894Y-128774393D01*
X69095493Y-128576880D01*
X69346880Y-128325493D01*
X69544393Y-128029894D01*
X69680443Y-127701441D01*
X69749800Y-127352757D01*
X69749800Y-126997243D01*
X69680443Y-126648559D01*
X69544393Y-126320106D01*
X69346880Y-126024507D01*
X69095493Y-125773120D01*
X68799894Y-125575607D01*
X68471441Y-125439557D01*
X68122757Y-125370200D01*
X67767243Y-125370200D01*
X67418559Y-125439557D01*
X67090106Y-125575607D01*
X66794507Y-125773120D01*
X66543120Y-126024507D01*
X66345607Y-126320106D01*
X66209557Y-126648559D01*
X66140200Y-126997243D01*
X51567056Y-126997243D01*
X51534843Y-126919475D01*
X51318565Y-126018614D01*
X51244500Y-125077533D01*
X51244500Y-120275000D01*
X59238726Y-120275000D01*
X59238726Y-126475000D01*
X59244611Y-126534751D01*
X59262040Y-126592206D01*
X59290342Y-126645157D01*
X59328432Y-126691568D01*
X59374843Y-126729658D01*
X59427794Y-126757960D01*
X59485249Y-126775389D01*
X59545000Y-126781274D01*
X63445000Y-126781274D01*
X63504751Y-126775389D01*
X63562206Y-126757960D01*
X63615157Y-126729658D01*
X63661568Y-126691568D01*
X63699658Y-126645157D01*
X63727960Y-126592206D01*
X63745389Y-126534751D01*
X63751274Y-126475000D01*
X63751274Y-122168900D01*
X65516880Y-122168900D01*
X70568150Y-127220171D01*
X70584052Y-127239548D01*
X70603429Y-127255450D01*
X70661404Y-127303029D01*
X70708576Y-127328243D01*
X70749657Y-127350201D01*
X70845415Y-127379249D01*
X70920053Y-127386600D01*
X70920055Y-127386600D01*
X70944999Y-127389057D01*
X70969943Y-127386600D01*
X76857256Y-127386600D01*
X76882200Y-127389057D01*
X76907144Y-127386600D01*
X76907147Y-127386600D01*
X76981785Y-127379249D01*
X77077543Y-127350201D01*
X77165795Y-127303029D01*
X77243148Y-127239548D01*
X77259055Y-127220165D01*
X78485615Y-125993605D01*
X78495140Y-126025006D01*
X78523442Y-126077957D01*
X78561532Y-126124368D01*
X78607943Y-126162458D01*
X78660894Y-126190760D01*
X78718349Y-126208189D01*
X78778100Y-126214074D01*
X79971900Y-126214074D01*
X80031651Y-126208189D01*
X80089106Y-126190760D01*
X80142057Y-126162458D01*
X80188468Y-126124368D01*
X80226558Y-126077957D01*
X80254860Y-126025006D01*
X80272289Y-125967551D01*
X80278174Y-125907800D01*
X80278174Y-124714000D01*
X80272289Y-124654249D01*
X80254860Y-124596794D01*
X80226558Y-124543843D01*
X80188468Y-124497432D01*
X80142057Y-124459342D01*
X80089106Y-124431040D01*
X80031651Y-124413611D01*
X79971900Y-124407726D01*
X78778100Y-124407726D01*
X78718349Y-124413611D01*
X78660894Y-124431040D01*
X78607943Y-124459342D01*
X78561532Y-124497432D01*
X78523442Y-124543843D01*
X78495140Y-124596794D01*
X78477711Y-124654249D01*
X78471826Y-124714000D01*
X78471826Y-124802603D01*
X78449900Y-124800443D01*
X78424956Y-124802900D01*
X78424953Y-124802900D01*
X78350315Y-124810251D01*
X78254557Y-124839299D01*
X78166305Y-124886471D01*
X78088952Y-124949952D01*
X78073045Y-124969335D01*
X76671780Y-126370600D01*
X76651274Y-126370600D01*
X76651274Y-121873600D01*
X81597500Y-121873600D01*
X81597500Y-122021200D01*
X81626295Y-122165963D01*
X81682779Y-122302327D01*
X81764780Y-122425051D01*
X81869149Y-122529420D01*
X81991873Y-122611421D01*
X82128237Y-122667905D01*
X82273000Y-122696700D01*
X82420600Y-122696700D01*
X82565363Y-122667905D01*
X82701727Y-122611421D01*
X82824451Y-122529420D01*
X82928820Y-122425051D01*
X83010821Y-122302327D01*
X83067305Y-122165963D01*
X83096100Y-122021200D01*
X83096100Y-121873600D01*
X83079724Y-121791274D01*
X86485000Y-121791274D01*
X86544751Y-121785389D01*
X86602206Y-121767960D01*
X86655157Y-121739658D01*
X86701568Y-121701568D01*
X86739658Y-121655157D01*
X86761121Y-121615000D01*
X87142450Y-121615000D01*
X87154220Y-121734503D01*
X87189078Y-121849413D01*
X87245683Y-121955315D01*
X87321862Y-122048138D01*
X87414685Y-122124317D01*
X87520587Y-122180922D01*
X87635497Y-122215780D01*
X87755000Y-122227550D01*
X87960200Y-122224600D01*
X88112600Y-122072200D01*
X88112600Y-120622400D01*
X88417400Y-120622400D01*
X88417400Y-122072200D01*
X88569800Y-122224600D01*
X88775000Y-122227550D01*
X88894503Y-122215780D01*
X89009413Y-122180922D01*
X89115315Y-122124317D01*
X89208138Y-122048138D01*
X89284317Y-121955315D01*
X89340922Y-121849413D01*
X89375780Y-121734503D01*
X89387550Y-121615000D01*
X89384600Y-120774800D01*
X89232200Y-120622400D01*
X88417400Y-120622400D01*
X88112600Y-120622400D01*
X87297800Y-120622400D01*
X87145400Y-120774800D01*
X87142450Y-121615000D01*
X86761121Y-121615000D01*
X86767960Y-121602206D01*
X86785389Y-121544751D01*
X86791274Y-121485000D01*
X86791274Y-119455000D01*
X86785389Y-119395249D01*
X86767960Y-119337794D01*
X86761122Y-119325000D01*
X87142450Y-119325000D01*
X87145400Y-120165200D01*
X87297800Y-120317600D01*
X88112600Y-120317600D01*
X88112600Y-118867800D01*
X88417400Y-118867800D01*
X88417400Y-120317600D01*
X89232200Y-120317600D01*
X89384600Y-120165200D01*
X89387550Y-119325000D01*
X89375780Y-119205497D01*
X89340922Y-119090587D01*
X89284317Y-118984685D01*
X89208138Y-118891862D01*
X89115315Y-118815683D01*
X89009413Y-118759078D01*
X88894503Y-118724220D01*
X88775000Y-118712450D01*
X88569800Y-118715400D01*
X88417400Y-118867800D01*
X88112600Y-118867800D01*
X87960200Y-118715400D01*
X87755000Y-118712450D01*
X87635497Y-118724220D01*
X87520587Y-118759078D01*
X87414685Y-118815683D01*
X87321862Y-118891862D01*
X87245683Y-118984685D01*
X87189078Y-119090587D01*
X87154220Y-119205497D01*
X87142450Y-119325000D01*
X86761122Y-119325000D01*
X86739658Y-119284843D01*
X86701568Y-119238432D01*
X86655157Y-119200342D01*
X86602206Y-119172040D01*
X86544751Y-119154611D01*
X86485000Y-119148726D01*
X82675000Y-119148726D01*
X82615249Y-119154611D01*
X82557794Y-119172040D01*
X82504843Y-119200342D01*
X82458432Y-119238432D01*
X82420342Y-119284843D01*
X82392040Y-119337794D01*
X82374611Y-119395249D01*
X82368726Y-119455000D01*
X82368726Y-119961702D01*
X82346800Y-119959543D01*
X82321853Y-119962000D01*
X82247215Y-119969351D01*
X82151457Y-119998399D01*
X82063205Y-120045571D01*
X81985852Y-120109052D01*
X81922371Y-120186405D01*
X81875199Y-120274657D01*
X81846151Y-120370415D01*
X81836343Y-120470000D01*
X81838800Y-120494947D01*
X81838801Y-121395728D01*
X81764780Y-121469749D01*
X81682779Y-121592473D01*
X81626295Y-121728837D01*
X81597500Y-121873600D01*
X76651274Y-121873600D01*
X76651274Y-120275000D01*
X76645389Y-120215249D01*
X76627960Y-120157794D01*
X76599658Y-120104843D01*
X76561568Y-120058432D01*
X76515157Y-120020342D01*
X76462206Y-119992040D01*
X76404751Y-119974611D01*
X76345000Y-119968726D01*
X72445000Y-119968726D01*
X72385249Y-119974611D01*
X72327794Y-119992040D01*
X72274843Y-120020342D01*
X72228432Y-120058432D01*
X72190342Y-120104843D01*
X72162040Y-120157794D01*
X72144611Y-120215249D01*
X72138726Y-120275000D01*
X72138726Y-126370600D01*
X71155421Y-126370600D01*
X66104155Y-121319335D01*
X66088248Y-121299952D01*
X66010895Y-121236471D01*
X65922643Y-121189299D01*
X65826885Y-121160251D01*
X65752247Y-121152900D01*
X65752244Y-121152900D01*
X65727300Y-121150443D01*
X65702356Y-121152900D01*
X64008000Y-121152900D01*
X64008000Y-109056374D01*
X64300100Y-109056374D01*
X64359851Y-109050489D01*
X64417306Y-109033060D01*
X64470257Y-109004758D01*
X64516668Y-108966668D01*
X64554758Y-108920257D01*
X64583060Y-108867306D01*
X64600489Y-108809851D01*
X64603921Y-108775000D01*
X65432450Y-108775000D01*
X65444220Y-108894503D01*
X65479078Y-109009413D01*
X65535683Y-109115315D01*
X65611862Y-109208138D01*
X65704685Y-109284317D01*
X65778758Y-109323909D01*
X65773726Y-109375000D01*
X65773726Y-110815000D01*
X65779611Y-110874751D01*
X65797040Y-110932206D01*
X65825342Y-110985157D01*
X65863432Y-111031568D01*
X65909843Y-111069658D01*
X65962794Y-111097960D01*
X66020249Y-111115389D01*
X66080000Y-111121274D01*
X67680000Y-111121274D01*
X67739751Y-111115389D01*
X67797206Y-111097960D01*
X67850157Y-111069658D01*
X67896568Y-111031568D01*
X67934658Y-110985157D01*
X67945000Y-110965808D01*
X67955342Y-110985157D01*
X67993432Y-111031568D01*
X68039843Y-111069658D01*
X68092794Y-111097960D01*
X68150249Y-111115389D01*
X68210000Y-111121274D01*
X68269653Y-111121274D01*
X68291580Y-111143200D01*
X68253435Y-111181345D01*
X68234052Y-111197252D01*
X68170571Y-111274605D01*
X68123399Y-111362858D01*
X68094351Y-111458616D01*
X68087000Y-111533253D01*
X68084543Y-111558200D01*
X68087000Y-111583144D01*
X68087000Y-111918726D01*
X66945000Y-111918726D01*
X66885249Y-111924611D01*
X66827794Y-111942040D01*
X66774843Y-111970342D01*
X66728432Y-112008432D01*
X66690342Y-112054843D01*
X66662040Y-112107794D01*
X66644611Y-112165249D01*
X66638726Y-112225000D01*
X66638726Y-116625000D01*
X66644611Y-116684751D01*
X66662040Y-116742206D01*
X66690342Y-116795157D01*
X66728432Y-116841568D01*
X66774843Y-116879658D01*
X66827794Y-116907960D01*
X66885249Y-116925389D01*
X66945000Y-116931274D01*
X70245000Y-116931274D01*
X70304751Y-116925389D01*
X70362206Y-116907960D01*
X70415157Y-116879658D01*
X70461568Y-116841568D01*
X70499658Y-116795157D01*
X70527960Y-116742206D01*
X70545389Y-116684751D01*
X70551274Y-116625000D01*
X70551274Y-114757200D01*
X82281826Y-114757200D01*
X82281826Y-115951000D01*
X82287711Y-116010751D01*
X82305140Y-116068206D01*
X82333442Y-116121157D01*
X82371532Y-116167568D01*
X82417943Y-116205658D01*
X82470894Y-116233960D01*
X82495412Y-116241397D01*
X82464495Y-116316037D01*
X82435700Y-116460800D01*
X82435700Y-116608400D01*
X82464495Y-116753163D01*
X82520979Y-116889527D01*
X82602980Y-117012251D01*
X82707349Y-117116620D01*
X82830073Y-117198621D01*
X82966437Y-117255105D01*
X83111200Y-117283900D01*
X83258800Y-117283900D01*
X83403563Y-117255105D01*
X83539927Y-117198621D01*
X83662651Y-117116620D01*
X83767020Y-117012251D01*
X83849021Y-116889527D01*
X83905505Y-116753163D01*
X83934300Y-116608400D01*
X83934300Y-116460800D01*
X83905505Y-116316037D01*
X83874588Y-116241397D01*
X83899106Y-116233960D01*
X83952057Y-116205658D01*
X83998468Y-116167568D01*
X84036558Y-116121157D01*
X84064860Y-116068206D01*
X84082289Y-116010751D01*
X84088174Y-115951000D01*
X84088174Y-114757200D01*
X84082289Y-114697449D01*
X84064860Y-114639994D01*
X84036558Y-114587043D01*
X83998468Y-114540632D01*
X83952057Y-114502542D01*
X83899106Y-114474240D01*
X83841651Y-114456811D01*
X83781900Y-114450926D01*
X82588100Y-114450926D01*
X82528349Y-114456811D01*
X82470894Y-114474240D01*
X82417943Y-114502542D01*
X82371532Y-114540632D01*
X82333442Y-114587043D01*
X82305140Y-114639994D01*
X82287711Y-114697449D01*
X82281826Y-114757200D01*
X70551274Y-114757200D01*
X70551274Y-112225000D01*
X70545389Y-112165249D01*
X70527960Y-112107794D01*
X70499658Y-112054843D01*
X70461568Y-112008432D01*
X70415157Y-111970342D01*
X70362206Y-111942040D01*
X70304751Y-111924611D01*
X70245000Y-111918726D01*
X69103000Y-111918726D01*
X69103000Y-111768620D01*
X69351565Y-111520055D01*
X69370948Y-111504148D01*
X69434429Y-111426795D01*
X69481601Y-111338543D01*
X69510649Y-111242785D01*
X69518000Y-111168147D01*
X69518000Y-111168144D01*
X69520457Y-111143200D01*
X69518297Y-111121274D01*
X69810000Y-111121274D01*
X69869751Y-111115389D01*
X69927206Y-111097960D01*
X69980157Y-111069658D01*
X70026568Y-111031568D01*
X70064658Y-110985157D01*
X70092960Y-110932206D01*
X70110389Y-110874751D01*
X70116274Y-110815000D01*
X70116274Y-109375000D01*
X70111242Y-109323909D01*
X70185315Y-109284317D01*
X70278138Y-109208138D01*
X70354317Y-109115315D01*
X70410922Y-109009413D01*
X70445780Y-108894503D01*
X70457550Y-108775000D01*
X70454600Y-106599800D01*
X70302200Y-106447400D01*
X68097400Y-106447400D01*
X68097400Y-106467400D01*
X67792600Y-106467400D01*
X67792600Y-106447400D01*
X65587800Y-106447400D01*
X65435400Y-106599800D01*
X65432450Y-108775000D01*
X64603921Y-108775000D01*
X64606374Y-108750100D01*
X64606374Y-107962700D01*
X64600489Y-107902949D01*
X64583060Y-107845494D01*
X64554758Y-107792543D01*
X64516668Y-107746132D01*
X64470257Y-107708042D01*
X64417306Y-107679740D01*
X64359851Y-107662311D01*
X64300100Y-107656426D01*
X64008298Y-107656426D01*
X64010457Y-107634500D01*
X64000649Y-107534915D01*
X63971601Y-107439157D01*
X63924429Y-107350905D01*
X63863985Y-107277253D01*
X64300100Y-107279850D01*
X64419603Y-107268080D01*
X64534513Y-107233222D01*
X64640415Y-107176617D01*
X64733238Y-107100438D01*
X64809417Y-107007615D01*
X64866022Y-106901713D01*
X64900880Y-106786803D01*
X64912650Y-106667300D01*
X64909700Y-106578400D01*
X64757300Y-106426000D01*
X63652400Y-106426000D01*
X63652400Y-106446000D01*
X63347600Y-106446000D01*
X63347600Y-106426000D01*
X63327600Y-106426000D01*
X63327600Y-106121200D01*
X63347600Y-106121200D01*
X63347600Y-105422700D01*
X63652400Y-105422700D01*
X63652400Y-106121200D01*
X64757300Y-106121200D01*
X64909700Y-105968800D01*
X64912650Y-105879900D01*
X64900880Y-105760397D01*
X64866022Y-105645487D01*
X64809417Y-105539585D01*
X64733238Y-105446762D01*
X64640415Y-105370583D01*
X64534513Y-105313978D01*
X64419603Y-105279120D01*
X64300100Y-105267350D01*
X63804800Y-105270300D01*
X63652400Y-105422700D01*
X63347600Y-105422700D01*
X63195200Y-105270300D01*
X62902700Y-105268558D01*
X62902700Y-103815000D01*
X65432450Y-103815000D01*
X65435400Y-105990200D01*
X65587800Y-106142600D01*
X67792600Y-106142600D01*
X67792600Y-103357800D01*
X68097400Y-103357800D01*
X68097400Y-106142600D01*
X70302200Y-106142600D01*
X70454600Y-105990200D01*
X70457550Y-103815000D01*
X70445780Y-103695497D01*
X70410922Y-103580587D01*
X70354317Y-103474685D01*
X70278138Y-103381862D01*
X70185315Y-103305683D01*
X70079413Y-103249078D01*
X69964503Y-103214220D01*
X69845000Y-103202450D01*
X68249800Y-103205400D01*
X68097400Y-103357800D01*
X67792600Y-103357800D01*
X67640200Y-103205400D01*
X66045000Y-103202450D01*
X65925497Y-103214220D01*
X65810587Y-103249078D01*
X65704685Y-103305683D01*
X65611862Y-103381862D01*
X65535683Y-103474685D01*
X65479078Y-103580587D01*
X65444220Y-103695497D01*
X65432450Y-103815000D01*
X62902700Y-103815000D01*
X62902700Y-86902771D01*
X62976720Y-86828751D01*
X63058721Y-86706027D01*
X63115205Y-86569663D01*
X63144000Y-86424900D01*
X63144000Y-86277300D01*
X63115205Y-86132537D01*
X63058721Y-85996173D01*
X62976720Y-85873449D01*
X62872351Y-85769080D01*
X62749627Y-85687079D01*
X62613263Y-85630595D01*
X62468500Y-85601800D01*
X62320900Y-85601800D01*
X62176137Y-85630595D01*
X62039773Y-85687079D01*
X61917049Y-85769080D01*
X61812680Y-85873449D01*
X61730679Y-85996173D01*
X61674195Y-86132537D01*
X61645400Y-86277300D01*
X61645400Y-86424900D01*
X61674195Y-86569663D01*
X61730679Y-86706027D01*
X61812680Y-86828751D01*
X61886701Y-86902772D01*
X61886700Y-106774956D01*
X61884243Y-106799900D01*
X61886700Y-106824844D01*
X61886700Y-106824846D01*
X61894051Y-106899484D01*
X61923099Y-106995242D01*
X61970271Y-107083495D01*
X62033752Y-107160848D01*
X62053135Y-107176755D01*
X62565376Y-107688996D01*
X62529743Y-107708042D01*
X62483332Y-107746132D01*
X62445242Y-107792543D01*
X62416940Y-107845494D01*
X62399511Y-107902949D01*
X62393626Y-107962700D01*
X62393626Y-108750100D01*
X62399511Y-108809851D01*
X62416940Y-108867306D01*
X62445242Y-108920257D01*
X62483332Y-108966668D01*
X62529743Y-109004758D01*
X62582694Y-109033060D01*
X62640149Y-109050489D01*
X62699900Y-109056374D01*
X62992000Y-109056374D01*
X62992001Y-119968726D01*
X59545000Y-119968726D01*
X59485249Y-119974611D01*
X59427794Y-119992040D01*
X59374843Y-120020342D01*
X59328432Y-120058432D01*
X59290342Y-120104843D01*
X59262040Y-120157794D01*
X59244611Y-120215249D01*
X59238726Y-120275000D01*
X51244500Y-120275000D01*
X51244500Y-77362920D01*
X51386482Y-77504902D01*
X51312838Y-77682692D01*
X51257200Y-77962404D01*
X51257200Y-78247596D01*
X51312838Y-78527308D01*
X51421977Y-78790790D01*
X51580421Y-79027919D01*
X51782081Y-79229579D01*
X52019210Y-79388023D01*
X52282692Y-79497162D01*
X52562404Y-79552800D01*
X52847596Y-79552800D01*
X53127308Y-79497162D01*
X53390790Y-79388023D01*
X53627919Y-79229579D01*
X53829579Y-79027919D01*
X53988023Y-78790790D01*
X54097162Y-78527308D01*
X54152800Y-78247596D01*
X54152800Y-77962404D01*
X54097162Y-77682692D01*
X53988023Y-77419210D01*
X53829579Y-77182081D01*
X53645802Y-76998304D01*
X53729630Y-76805156D01*
X52705000Y-75780526D01*
X52690858Y-75794669D01*
X52475332Y-75579143D01*
X52489474Y-75565000D01*
X52475332Y-75550858D01*
X52690858Y-75335332D01*
X52705000Y-75349474D01*
X52719143Y-75335332D01*
X52934669Y-75550858D01*
X52920526Y-75565000D01*
X53945156Y-76589630D01*
X54213977Y-76472959D01*
X54362117Y-76161126D01*
X54422979Y-75919899D01*
X79251400Y-100748320D01*
X79251401Y-108870246D01*
X79248943Y-108895200D01*
X79253002Y-108936406D01*
X79258752Y-108994785D01*
X79265630Y-109017458D01*
X79287800Y-109090543D01*
X79334971Y-109178795D01*
X79382550Y-109236770D01*
X79398453Y-109256148D01*
X79417830Y-109272050D01*
X82502294Y-112356515D01*
X82470894Y-112366040D01*
X82417943Y-112394342D01*
X82371532Y-112432432D01*
X82333442Y-112478843D01*
X82305140Y-112531794D01*
X82287711Y-112589249D01*
X82281826Y-112649000D01*
X82281826Y-113842800D01*
X82287711Y-113902551D01*
X82305140Y-113960006D01*
X82333442Y-114012957D01*
X82371532Y-114059368D01*
X82417943Y-114097458D01*
X82470894Y-114125760D01*
X82528349Y-114143189D01*
X82588100Y-114149074D01*
X83781900Y-114149074D01*
X83841651Y-114143189D01*
X83899106Y-114125760D01*
X83952057Y-114097458D01*
X83998468Y-114059368D01*
X84036558Y-114012957D01*
X84064860Y-113960006D01*
X84082289Y-113902551D01*
X84088174Y-113842800D01*
X84088174Y-112649000D01*
X84082289Y-112589249D01*
X84064860Y-112531794D01*
X84036558Y-112478843D01*
X83998468Y-112432432D01*
X83952057Y-112394342D01*
X83899106Y-112366040D01*
X83841651Y-112348611D01*
X83781900Y-112342726D01*
X83693297Y-112342726D01*
X83695457Y-112320800D01*
X83692364Y-112289400D01*
X83685649Y-112221215D01*
X83656601Y-112125457D01*
X83618857Y-112054843D01*
X83609429Y-112037204D01*
X83561850Y-111979229D01*
X83545948Y-111959852D01*
X83526571Y-111943950D01*
X82759895Y-111177274D01*
X83781900Y-111177274D01*
X83841651Y-111171389D01*
X83899106Y-111153960D01*
X83918841Y-111143412D01*
X83935349Y-111159920D01*
X84058073Y-111241921D01*
X84194437Y-111298405D01*
X84339200Y-111327200D01*
X84486800Y-111327200D01*
X84631563Y-111298405D01*
X84767927Y-111241921D01*
X84890651Y-111159920D01*
X84995020Y-111055551D01*
X85004200Y-111041811D01*
X85004200Y-114232256D01*
X85001743Y-114257200D01*
X85004200Y-114282144D01*
X85004200Y-114282146D01*
X85011551Y-114356784D01*
X85040599Y-114452542D01*
X85087771Y-114540795D01*
X85151252Y-114618148D01*
X85170635Y-114634055D01*
X89727449Y-119190870D01*
X89743352Y-119210248D01*
X89762729Y-119226150D01*
X89808012Y-119263313D01*
X89790342Y-119284843D01*
X89762040Y-119337794D01*
X89744611Y-119395249D01*
X89738726Y-119455000D01*
X89738726Y-121485000D01*
X89744611Y-121544751D01*
X89762040Y-121602206D01*
X89790342Y-121655157D01*
X89828432Y-121701568D01*
X89874843Y-121739658D01*
X89927794Y-121767960D01*
X89985249Y-121785389D01*
X90045000Y-121791274D01*
X93855000Y-121791274D01*
X93914751Y-121785389D01*
X93972206Y-121767960D01*
X94025157Y-121739658D01*
X94071568Y-121701568D01*
X94109658Y-121655157D01*
X94137960Y-121602206D01*
X94155389Y-121544751D01*
X94161274Y-121485000D01*
X94161274Y-119455000D01*
X94155389Y-119395249D01*
X94143877Y-119357300D01*
X98625680Y-119357300D01*
X98989949Y-119721570D01*
X99005852Y-119740948D01*
X99025229Y-119756850D01*
X99083204Y-119804429D01*
X99171455Y-119851600D01*
X99171457Y-119851601D01*
X99267215Y-119880649D01*
X99341853Y-119888000D01*
X99341855Y-119888000D01*
X99366799Y-119890457D01*
X99391743Y-119888000D01*
X99481440Y-119888000D01*
X99490296Y-119917195D01*
X99620017Y-120159887D01*
X99794592Y-120372608D01*
X100007313Y-120547183D01*
X100199671Y-120650000D01*
X100007313Y-120752817D01*
X99794592Y-120927392D01*
X99620017Y-121140113D01*
X99490296Y-121382805D01*
X99410414Y-121646140D01*
X99383441Y-121920000D01*
X99410414Y-122193860D01*
X99490296Y-122457195D01*
X99620017Y-122699887D01*
X99794592Y-122912608D01*
X100007313Y-123087183D01*
X100199671Y-123190000D01*
X100007313Y-123292817D01*
X99794592Y-123467392D01*
X99620017Y-123680113D01*
X99490296Y-123922805D01*
X99410414Y-124186140D01*
X99383441Y-124460000D01*
X99410414Y-124733860D01*
X99490296Y-124997195D01*
X99620017Y-125239887D01*
X99794592Y-125452608D01*
X100007313Y-125627183D01*
X100199671Y-125730000D01*
X100007313Y-125832817D01*
X99794592Y-126007392D01*
X99620017Y-126220113D01*
X99490296Y-126462805D01*
X99410414Y-126726140D01*
X99383441Y-127000000D01*
X99410414Y-127273860D01*
X99490296Y-127537195D01*
X99620017Y-127779887D01*
X99794592Y-127992608D01*
X100007313Y-128167183D01*
X100199671Y-128270000D01*
X100007313Y-128372817D01*
X99794592Y-128547392D01*
X99620017Y-128760113D01*
X99490296Y-129002805D01*
X99410414Y-129266140D01*
X99383441Y-129540000D01*
X99410414Y-129813860D01*
X99490296Y-130077195D01*
X99620017Y-130319887D01*
X99794592Y-130532608D01*
X100007313Y-130707183D01*
X100250005Y-130836904D01*
X100513340Y-130916786D01*
X100718575Y-130937000D01*
X101211425Y-130937000D01*
X101416660Y-130916786D01*
X101679995Y-130836904D01*
X101922687Y-130707183D01*
X102135408Y-130532608D01*
X102309983Y-130319887D01*
X102439704Y-130077195D01*
X102519586Y-129813860D01*
X102546559Y-129540000D01*
X102519586Y-129266140D01*
X102439704Y-129002805D01*
X102309983Y-128760113D01*
X102135408Y-128547392D01*
X101922687Y-128372817D01*
X101730329Y-128270000D01*
X101922687Y-128167183D01*
X102135408Y-127992608D01*
X102309983Y-127779887D01*
X102439704Y-127537195D01*
X102519586Y-127273860D01*
X102546559Y-127000000D01*
X102519586Y-126726140D01*
X102439704Y-126462805D01*
X102309983Y-126220113D01*
X102135408Y-126007392D01*
X101922687Y-125832817D01*
X101730329Y-125730000D01*
X101922687Y-125627183D01*
X102135408Y-125452608D01*
X102309983Y-125239887D01*
X102439704Y-124997195D01*
X102519586Y-124733860D01*
X102546559Y-124460000D01*
X102519586Y-124186140D01*
X102439704Y-123922805D01*
X102309983Y-123680113D01*
X102135408Y-123467392D01*
X101922687Y-123292817D01*
X101730329Y-123190000D01*
X101922687Y-123087183D01*
X102135408Y-122912608D01*
X102309983Y-122699887D01*
X102439704Y-122457195D01*
X102519586Y-122193860D01*
X102546559Y-121920000D01*
X102519586Y-121646140D01*
X102439704Y-121382805D01*
X102309983Y-121140113D01*
X102135408Y-120927392D01*
X101922687Y-120752817D01*
X101730329Y-120650000D01*
X101922687Y-120547183D01*
X102135408Y-120372608D01*
X102309983Y-120159887D01*
X102439704Y-119917195D01*
X102519586Y-119653860D01*
X102546559Y-119380000D01*
X102519586Y-119106140D01*
X102439704Y-118842805D01*
X102309983Y-118600113D01*
X102135408Y-118387392D01*
X101922687Y-118212817D01*
X101730329Y-118110000D01*
X101922687Y-118007183D01*
X102135408Y-117832608D01*
X102309983Y-117619887D01*
X102439704Y-117377195D01*
X102519586Y-117113860D01*
X102546559Y-116840000D01*
X102519586Y-116566140D01*
X102439704Y-116302805D01*
X102309983Y-116060113D01*
X102135408Y-115847392D01*
X101922687Y-115672817D01*
X101730329Y-115570000D01*
X101922687Y-115467183D01*
X102135408Y-115292608D01*
X102309983Y-115079887D01*
X102439704Y-114837195D01*
X102519586Y-114573860D01*
X102546559Y-114300000D01*
X102519586Y-114026140D01*
X102439704Y-113762805D01*
X102309983Y-113520113D01*
X102135408Y-113307392D01*
X101922687Y-113132817D01*
X101730329Y-113030000D01*
X101922687Y-112927183D01*
X102135408Y-112752608D01*
X102309983Y-112539887D01*
X102439704Y-112297195D01*
X102519586Y-112033860D01*
X102546559Y-111760000D01*
X102519586Y-111486140D01*
X102439704Y-111222805D01*
X102309983Y-110980113D01*
X102135408Y-110767392D01*
X101922687Y-110592817D01*
X101730329Y-110490000D01*
X101922687Y-110387183D01*
X102135408Y-110212608D01*
X102309983Y-109999887D01*
X102439704Y-109757195D01*
X102519586Y-109493860D01*
X102546559Y-109220000D01*
X102519586Y-108946140D01*
X102439704Y-108682805D01*
X102309983Y-108440113D01*
X102135408Y-108227392D01*
X101922687Y-108052817D01*
X101730329Y-107950000D01*
X101922687Y-107847183D01*
X102135408Y-107672608D01*
X102309983Y-107459887D01*
X102439704Y-107217195D01*
X102519586Y-106953860D01*
X102546559Y-106680000D01*
X102519586Y-106406140D01*
X102439704Y-106142805D01*
X102309983Y-105900113D01*
X102135408Y-105687392D01*
X101922687Y-105512817D01*
X101730329Y-105410000D01*
X101922687Y-105307183D01*
X102135408Y-105132608D01*
X102309983Y-104919887D01*
X102439704Y-104677195D01*
X102519586Y-104413860D01*
X102546559Y-104140000D01*
X102519586Y-103866140D01*
X102439704Y-103602805D01*
X102309983Y-103360113D01*
X102135408Y-103147392D01*
X101922687Y-102972817D01*
X101730329Y-102870000D01*
X101922687Y-102767183D01*
X102135408Y-102592608D01*
X102309983Y-102379887D01*
X102439704Y-102137195D01*
X102519586Y-101873860D01*
X102546559Y-101600000D01*
X102519586Y-101326140D01*
X102439704Y-101062805D01*
X102309983Y-100820113D01*
X102135408Y-100607392D01*
X101922687Y-100432817D01*
X101730329Y-100330000D01*
X101922687Y-100227183D01*
X102135408Y-100052608D01*
X102309983Y-99839887D01*
X102439704Y-99597195D01*
X102519586Y-99333860D01*
X102546559Y-99060000D01*
X102519586Y-98786140D01*
X102439704Y-98522805D01*
X102363390Y-98380030D01*
X104223420Y-96520000D01*
X114623441Y-96520000D01*
X114650414Y-96793860D01*
X114730296Y-97057195D01*
X114860017Y-97299887D01*
X115034592Y-97512608D01*
X115247313Y-97687183D01*
X115439671Y-97790000D01*
X115247313Y-97892817D01*
X115034592Y-98067392D01*
X114860017Y-98280113D01*
X114730296Y-98522805D01*
X114650414Y-98786140D01*
X114623441Y-99060000D01*
X114650414Y-99333860D01*
X114730296Y-99597195D01*
X114860017Y-99839887D01*
X115034592Y-100052608D01*
X115247313Y-100227183D01*
X115439671Y-100330000D01*
X115247313Y-100432817D01*
X115034592Y-100607392D01*
X114860017Y-100820113D01*
X114730296Y-101062805D01*
X114650414Y-101326140D01*
X114623441Y-101600000D01*
X114650414Y-101873860D01*
X114730296Y-102137195D01*
X114860017Y-102379887D01*
X115034592Y-102592608D01*
X115247313Y-102767183D01*
X115439671Y-102870000D01*
X115247313Y-102972817D01*
X115034592Y-103147392D01*
X114860017Y-103360113D01*
X114730296Y-103602805D01*
X114650414Y-103866140D01*
X114623441Y-104140000D01*
X114650414Y-104413860D01*
X114730296Y-104677195D01*
X114860017Y-104919887D01*
X115034592Y-105132608D01*
X115247313Y-105307183D01*
X115439671Y-105410000D01*
X115247313Y-105512817D01*
X115034592Y-105687392D01*
X114860017Y-105900113D01*
X114730296Y-106142805D01*
X114650414Y-106406140D01*
X114623441Y-106680000D01*
X114650414Y-106953860D01*
X114730296Y-107217195D01*
X114860017Y-107459887D01*
X115034592Y-107672608D01*
X115247313Y-107847183D01*
X115439671Y-107950000D01*
X115247313Y-108052817D01*
X115034592Y-108227392D01*
X114860017Y-108440113D01*
X114730296Y-108682805D01*
X114650414Y-108946140D01*
X114623441Y-109220000D01*
X114650414Y-109493860D01*
X114730296Y-109757195D01*
X114860017Y-109999887D01*
X115034592Y-110212608D01*
X115247313Y-110387183D01*
X115439671Y-110490000D01*
X115247313Y-110592817D01*
X115034592Y-110767392D01*
X114860017Y-110980113D01*
X114730296Y-111222805D01*
X114650414Y-111486140D01*
X114623441Y-111760000D01*
X114650414Y-112033860D01*
X114730296Y-112297195D01*
X114860017Y-112539887D01*
X115034592Y-112752608D01*
X115247313Y-112927183D01*
X115439671Y-113030000D01*
X115247313Y-113132817D01*
X115034592Y-113307392D01*
X114860017Y-113520113D01*
X114730296Y-113762805D01*
X114650414Y-114026140D01*
X114623441Y-114300000D01*
X114650414Y-114573860D01*
X114730296Y-114837195D01*
X114860017Y-115079887D01*
X115034592Y-115292608D01*
X115247313Y-115467183D01*
X115439671Y-115570000D01*
X115247313Y-115672817D01*
X115034592Y-115847392D01*
X114860017Y-116060113D01*
X114730296Y-116302805D01*
X114650414Y-116566140D01*
X114623441Y-116840000D01*
X114650414Y-117113860D01*
X114730296Y-117377195D01*
X114860017Y-117619887D01*
X115034592Y-117832608D01*
X115247313Y-118007183D01*
X115439671Y-118110000D01*
X115247313Y-118212817D01*
X115034592Y-118387392D01*
X114860017Y-118600113D01*
X114730296Y-118842805D01*
X114650414Y-119106140D01*
X114623441Y-119380000D01*
X114650414Y-119653860D01*
X114730296Y-119917195D01*
X114860017Y-120159887D01*
X115034592Y-120372608D01*
X115247313Y-120547183D01*
X115439671Y-120650000D01*
X115247313Y-120752817D01*
X115034592Y-120927392D01*
X114860017Y-121140113D01*
X114730296Y-121382805D01*
X114650414Y-121646140D01*
X114623441Y-121920000D01*
X114650414Y-122193860D01*
X114730296Y-122457195D01*
X114860017Y-122699887D01*
X115034592Y-122912608D01*
X115247313Y-123087183D01*
X115439671Y-123190000D01*
X115247313Y-123292817D01*
X115034592Y-123467392D01*
X114860017Y-123680113D01*
X114730296Y-123922805D01*
X114650414Y-124186140D01*
X114623441Y-124460000D01*
X114650414Y-124733860D01*
X114730296Y-124997195D01*
X114860017Y-125239887D01*
X115034592Y-125452608D01*
X115247313Y-125627183D01*
X115439671Y-125730000D01*
X115247313Y-125832817D01*
X115034592Y-126007392D01*
X114860017Y-126220113D01*
X114730296Y-126462805D01*
X114650414Y-126726140D01*
X114623441Y-127000000D01*
X114650414Y-127273860D01*
X114730296Y-127537195D01*
X114860017Y-127779887D01*
X115034592Y-127992608D01*
X115216050Y-128141526D01*
X114935000Y-128141526D01*
X114875249Y-128147411D01*
X114817794Y-128164840D01*
X114764843Y-128193142D01*
X114718432Y-128231232D01*
X114680342Y-128277643D01*
X114652040Y-128330594D01*
X114634611Y-128388049D01*
X114628726Y-128447800D01*
X114628726Y-130632200D01*
X114634611Y-130691951D01*
X114652040Y-130749406D01*
X114680342Y-130802357D01*
X114718432Y-130848768D01*
X114764843Y-130886858D01*
X114817794Y-130915160D01*
X114875249Y-130932589D01*
X114935000Y-130938474D01*
X117475000Y-130938474D01*
X117534751Y-130932589D01*
X117592206Y-130915160D01*
X117645157Y-130886858D01*
X117691568Y-130848768D01*
X117729658Y-130802357D01*
X117757960Y-130749406D01*
X117775389Y-130691951D01*
X117781274Y-130632200D01*
X117781274Y-128447800D01*
X117775389Y-128388049D01*
X117757960Y-128330594D01*
X117729658Y-128277643D01*
X117691568Y-128231232D01*
X117666610Y-128210748D01*
X121953400Y-128210748D01*
X121953400Y-128329252D01*
X121976519Y-128445480D01*
X122021869Y-128554965D01*
X122087707Y-128653498D01*
X122171502Y-128737293D01*
X122270035Y-128803131D01*
X122379520Y-128848481D01*
X122495748Y-128871600D01*
X122614252Y-128871600D01*
X122730480Y-128848481D01*
X122839965Y-128803131D01*
X122938498Y-128737293D01*
X123022293Y-128653498D01*
X123088131Y-128554965D01*
X123133481Y-128445480D01*
X123156600Y-128329252D01*
X123156600Y-128210748D01*
X123133481Y-128094520D01*
X123088131Y-127985035D01*
X123022293Y-127886502D01*
X122938498Y-127802707D01*
X122839965Y-127736869D01*
X122730480Y-127691519D01*
X122614252Y-127668400D01*
X122495748Y-127668400D01*
X122379520Y-127691519D01*
X122270035Y-127736869D01*
X122171502Y-127802707D01*
X122087707Y-127886502D01*
X122021869Y-127985035D01*
X121976519Y-128094520D01*
X121953400Y-128210748D01*
X117666610Y-128210748D01*
X117645157Y-128193142D01*
X117592206Y-128164840D01*
X117534751Y-128147411D01*
X117475000Y-128141526D01*
X117193950Y-128141526D01*
X117375408Y-127992608D01*
X117549983Y-127779887D01*
X117679704Y-127537195D01*
X117759586Y-127273860D01*
X117786559Y-127000000D01*
X117759586Y-126726140D01*
X117679704Y-126462805D01*
X117549983Y-126220113D01*
X117375408Y-126007392D01*
X117162687Y-125832817D01*
X116970329Y-125730000D01*
X117162687Y-125627183D01*
X117375408Y-125452608D01*
X117549983Y-125239887D01*
X117679704Y-124997195D01*
X117759586Y-124733860D01*
X117786559Y-124460000D01*
X117759586Y-124186140D01*
X117679704Y-123922805D01*
X117549983Y-123680113D01*
X117375408Y-123467392D01*
X117162687Y-123292817D01*
X116970329Y-123190000D01*
X117162687Y-123087183D01*
X117375408Y-122912608D01*
X117549983Y-122699887D01*
X117679704Y-122457195D01*
X117759586Y-122193860D01*
X117786559Y-121920000D01*
X117759586Y-121646140D01*
X117679704Y-121382805D01*
X117549983Y-121140113D01*
X117375408Y-120927392D01*
X117162687Y-120752817D01*
X116970329Y-120650000D01*
X117162687Y-120547183D01*
X117375408Y-120372608D01*
X117549983Y-120159887D01*
X117679704Y-119917195D01*
X117759586Y-119653860D01*
X117786559Y-119380000D01*
X117759586Y-119106140D01*
X117679704Y-118842805D01*
X117549983Y-118600113D01*
X117375408Y-118387392D01*
X117162687Y-118212817D01*
X116970329Y-118110000D01*
X117162687Y-118007183D01*
X117375408Y-117832608D01*
X117549983Y-117619887D01*
X117679704Y-117377195D01*
X117759586Y-117113860D01*
X117786559Y-116840000D01*
X117759586Y-116566140D01*
X117679704Y-116302805D01*
X117549983Y-116060113D01*
X117375408Y-115847392D01*
X117162687Y-115672817D01*
X116970329Y-115570000D01*
X117162687Y-115467183D01*
X117375408Y-115292608D01*
X117549983Y-115079887D01*
X117679704Y-114837195D01*
X117759586Y-114573860D01*
X117786559Y-114300000D01*
X117759586Y-114026140D01*
X117679704Y-113762805D01*
X117549983Y-113520113D01*
X117375408Y-113307392D01*
X117162687Y-113132817D01*
X116970329Y-113030000D01*
X117162687Y-112927183D01*
X117375408Y-112752608D01*
X117549983Y-112539887D01*
X117679704Y-112297195D01*
X117759586Y-112033860D01*
X117786559Y-111760000D01*
X117759586Y-111486140D01*
X117679704Y-111222805D01*
X117549983Y-110980113D01*
X117375408Y-110767392D01*
X117162687Y-110592817D01*
X116970329Y-110490000D01*
X117162687Y-110387183D01*
X117375408Y-110212608D01*
X117549983Y-109999887D01*
X117679704Y-109757195D01*
X117759586Y-109493860D01*
X117786559Y-109220000D01*
X117759586Y-108946140D01*
X117679704Y-108682805D01*
X117549983Y-108440113D01*
X117375408Y-108227392D01*
X117162687Y-108052817D01*
X116970329Y-107950000D01*
X117162687Y-107847183D01*
X117375408Y-107672608D01*
X117549983Y-107459887D01*
X117679704Y-107217195D01*
X117759586Y-106953860D01*
X117786559Y-106680000D01*
X117759586Y-106406140D01*
X117679704Y-106142805D01*
X117549983Y-105900113D01*
X117375408Y-105687392D01*
X117162687Y-105512817D01*
X116970329Y-105410000D01*
X117162687Y-105307183D01*
X117375408Y-105132608D01*
X117549983Y-104919887D01*
X117679704Y-104677195D01*
X117759586Y-104413860D01*
X117786559Y-104140000D01*
X117759586Y-103866140D01*
X117679704Y-103602805D01*
X117549983Y-103360113D01*
X117375408Y-103147392D01*
X117162687Y-102972817D01*
X116970329Y-102870000D01*
X117162687Y-102767183D01*
X117375408Y-102592608D01*
X117549983Y-102379887D01*
X117679704Y-102137195D01*
X117759586Y-101873860D01*
X117786559Y-101600000D01*
X117759586Y-101326140D01*
X117679704Y-101062805D01*
X117549983Y-100820113D01*
X117375408Y-100607392D01*
X117162687Y-100432817D01*
X116970329Y-100330000D01*
X117162687Y-100227183D01*
X117375408Y-100052608D01*
X117549983Y-99839887D01*
X117679704Y-99597195D01*
X117759586Y-99333860D01*
X117786559Y-99060000D01*
X117759586Y-98786140D01*
X117679704Y-98522805D01*
X117549983Y-98280113D01*
X117375408Y-98067392D01*
X117162687Y-97892817D01*
X116970329Y-97790000D01*
X117162687Y-97687183D01*
X117375408Y-97512608D01*
X117549983Y-97299887D01*
X117679704Y-97057195D01*
X117759586Y-96793860D01*
X117786559Y-96520000D01*
X117759586Y-96246140D01*
X117679704Y-95982805D01*
X117549983Y-95740113D01*
X117375408Y-95527392D01*
X117162687Y-95352817D01*
X116919995Y-95223096D01*
X116656660Y-95143214D01*
X116451425Y-95123000D01*
X115958575Y-95123000D01*
X115753340Y-95143214D01*
X115490005Y-95223096D01*
X115247313Y-95352817D01*
X115034592Y-95527392D01*
X114860017Y-95740113D01*
X114730296Y-95982805D01*
X114650414Y-96246140D01*
X114623441Y-96520000D01*
X104223420Y-96520000D01*
X117399265Y-83344155D01*
X117418648Y-83328248D01*
X117482129Y-83250895D01*
X117529301Y-83162643D01*
X117558349Y-83066885D01*
X117565700Y-82992247D01*
X117565700Y-82992244D01*
X117568157Y-82967300D01*
X117565700Y-82942356D01*
X117565700Y-61846971D01*
X117639720Y-61772951D01*
X117721721Y-61650227D01*
X117778205Y-61513863D01*
X117807000Y-61369100D01*
X117807000Y-61221500D01*
X117778205Y-61076737D01*
X117721721Y-60940373D01*
X117639720Y-60817649D01*
X117535351Y-60713280D01*
X117412627Y-60631279D01*
X117276263Y-60574795D01*
X117131500Y-60546000D01*
X116983900Y-60546000D01*
X116839137Y-60574795D01*
X116702773Y-60631279D01*
X116580049Y-60713280D01*
X116475680Y-60817649D01*
X116393679Y-60940373D01*
X116337195Y-61076737D01*
X116308400Y-61221500D01*
X116308400Y-61369100D01*
X116337195Y-61513863D01*
X116393679Y-61650227D01*
X116475680Y-61772951D01*
X116549701Y-61846972D01*
X116549700Y-82756880D01*
X102520336Y-96786244D01*
X102546559Y-96520000D01*
X102519586Y-96246140D01*
X102439704Y-95982805D01*
X102309983Y-95740113D01*
X102135408Y-95527392D01*
X101922687Y-95352817D01*
X101679995Y-95223096D01*
X101416660Y-95143214D01*
X101211425Y-95123000D01*
X100718575Y-95123000D01*
X100513340Y-95143214D01*
X100250005Y-95223096D01*
X100007313Y-95352817D01*
X99794592Y-95527392D01*
X99620017Y-95740113D01*
X99490296Y-95982805D01*
X99410414Y-96246140D01*
X99383441Y-96520000D01*
X99410414Y-96793860D01*
X99490296Y-97057195D01*
X99620017Y-97299887D01*
X99794592Y-97512608D01*
X100007313Y-97687183D01*
X100199671Y-97790000D01*
X100007313Y-97892817D01*
X99794592Y-98067392D01*
X99620017Y-98280113D01*
X99490296Y-98522805D01*
X99410414Y-98786140D01*
X99383441Y-99060000D01*
X99410414Y-99333860D01*
X99490296Y-99597195D01*
X99620017Y-99839887D01*
X99794592Y-100052608D01*
X100007313Y-100227183D01*
X100199671Y-100330000D01*
X100007313Y-100432817D01*
X99794592Y-100607392D01*
X99620017Y-100820113D01*
X99490296Y-101062805D01*
X99410414Y-101326140D01*
X99383441Y-101600000D01*
X99410414Y-101873860D01*
X99490296Y-102137195D01*
X99620017Y-102379887D01*
X99794592Y-102592608D01*
X100007313Y-102767183D01*
X100199671Y-102870000D01*
X100007313Y-102972817D01*
X99794592Y-103147392D01*
X99620017Y-103360113D01*
X99490296Y-103602805D01*
X99410414Y-103866140D01*
X99383441Y-104140000D01*
X99410414Y-104413860D01*
X99490296Y-104677195D01*
X99620017Y-104919887D01*
X99794592Y-105132608D01*
X100007313Y-105307183D01*
X100199671Y-105410000D01*
X100007313Y-105512817D01*
X99794592Y-105687392D01*
X99620017Y-105900113D01*
X99490296Y-106142805D01*
X99410414Y-106406140D01*
X99383441Y-106680000D01*
X99410414Y-106953860D01*
X99490296Y-107217195D01*
X99620017Y-107459887D01*
X99794592Y-107672608D01*
X100007313Y-107847183D01*
X100199671Y-107950000D01*
X100007313Y-108052817D01*
X99794592Y-108227392D01*
X99620017Y-108440113D01*
X99490296Y-108682805D01*
X99410414Y-108946140D01*
X99383441Y-109220000D01*
X99410414Y-109493860D01*
X99490296Y-109757195D01*
X99566610Y-109899969D01*
X95826580Y-113640000D01*
X94248174Y-113640000D01*
X94248174Y-112711271D01*
X94284148Y-112681748D01*
X94300055Y-112662365D01*
X98596971Y-108365450D01*
X98616348Y-108349548D01*
X98635024Y-108326790D01*
X98679829Y-108272196D01*
X98705043Y-108225024D01*
X98727001Y-108183943D01*
X98756049Y-108088185D01*
X98763400Y-108013547D01*
X98763400Y-108013544D01*
X98765857Y-107988600D01*
X98763400Y-107963656D01*
X98763400Y-88645020D01*
X107984903Y-79423518D01*
X108162692Y-79497162D01*
X108442404Y-79552800D01*
X108727596Y-79552800D01*
X109007308Y-79497162D01*
X109270790Y-79388023D01*
X109507919Y-79229579D01*
X109709579Y-79027919D01*
X109868023Y-78790790D01*
X109977162Y-78527308D01*
X110032800Y-78247596D01*
X110032800Y-77962404D01*
X109977162Y-77682692D01*
X109868023Y-77419210D01*
X109709579Y-77182081D01*
X109525802Y-76998304D01*
X109609630Y-76805156D01*
X108585000Y-75780526D01*
X107560370Y-76805156D01*
X107644198Y-76998304D01*
X107460421Y-77182081D01*
X107301977Y-77419210D01*
X107192838Y-77682692D01*
X107137200Y-77962404D01*
X107137200Y-78247596D01*
X107192838Y-78527308D01*
X107266482Y-78705097D01*
X97913835Y-88057745D01*
X97894452Y-88073652D01*
X97830971Y-88151005D01*
X97783799Y-88239258D01*
X97754751Y-88335016D01*
X97747400Y-88409653D01*
X97744943Y-88434600D01*
X97747400Y-88459544D01*
X97747401Y-107778178D01*
X95218826Y-110306754D01*
X95192821Y-110243973D01*
X95110820Y-110121249D01*
X95006451Y-110016880D01*
X94883727Y-109934879D01*
X94747363Y-109878395D01*
X94602600Y-109849600D01*
X94553562Y-109849600D01*
X94465443Y-109802499D01*
X94369685Y-109773451D01*
X94295047Y-109766100D01*
X94270100Y-109763643D01*
X94248174Y-109765802D01*
X94248174Y-109677200D01*
X94242289Y-109617449D01*
X94224860Y-109559994D01*
X94196558Y-109507043D01*
X94158468Y-109460632D01*
X94112057Y-109422542D01*
X94059106Y-109394240D01*
X94001651Y-109376811D01*
X93941900Y-109370926D01*
X92950900Y-109370926D01*
X92950900Y-109069074D01*
X93941900Y-109069074D01*
X94001651Y-109063189D01*
X94059106Y-109045760D01*
X94112057Y-109017458D01*
X94158468Y-108979368D01*
X94196558Y-108932957D01*
X94224860Y-108880006D01*
X94242289Y-108822551D01*
X94248174Y-108762800D01*
X94248174Y-107593065D01*
X94256955Y-107582365D01*
X96655365Y-105183955D01*
X96674748Y-105168048D01*
X96738229Y-105090695D01*
X96785401Y-105002443D01*
X96814449Y-104906685D01*
X96821800Y-104832047D01*
X96821800Y-104832044D01*
X96824257Y-104807100D01*
X96821800Y-104782156D01*
X96821800Y-82966620D01*
X104140017Y-75648403D01*
X106825897Y-75648403D01*
X106875969Y-75989985D01*
X106991718Y-76315234D01*
X107076023Y-76472959D01*
X107344844Y-76589630D01*
X108369474Y-75565000D01*
X108800526Y-75565000D01*
X109825156Y-76589630D01*
X110093977Y-76472959D01*
X110242117Y-76161126D01*
X110326574Y-75826383D01*
X110344103Y-75481597D01*
X110294031Y-75140015D01*
X110178282Y-74814766D01*
X110093977Y-74657041D01*
X109825156Y-74540370D01*
X108800526Y-75565000D01*
X108369474Y-75565000D01*
X107344844Y-74540370D01*
X107076023Y-74657041D01*
X106927883Y-74968874D01*
X106843426Y-75303617D01*
X106825897Y-75648403D01*
X104140017Y-75648403D01*
X105463576Y-74324844D01*
X107560370Y-74324844D01*
X108585000Y-75349474D01*
X109609630Y-74324844D01*
X109492959Y-74056023D01*
X109181126Y-73907883D01*
X108846383Y-73823426D01*
X108501597Y-73805897D01*
X108160015Y-73855969D01*
X107834766Y-73971718D01*
X107677041Y-74056023D01*
X107560370Y-74324844D01*
X105463576Y-74324844D01*
X107984903Y-71803518D01*
X108162692Y-71877162D01*
X108442404Y-71932800D01*
X108727596Y-71932800D01*
X109007308Y-71877162D01*
X109270790Y-71768023D01*
X109507919Y-71609579D01*
X109709579Y-71407919D01*
X109868023Y-71170790D01*
X109977162Y-70907308D01*
X110032800Y-70627596D01*
X110032800Y-70342404D01*
X109977162Y-70062692D01*
X109868023Y-69799210D01*
X109709579Y-69562081D01*
X109525802Y-69378304D01*
X109609630Y-69185156D01*
X108585000Y-68160526D01*
X107560370Y-69185156D01*
X107644198Y-69378304D01*
X107460421Y-69562081D01*
X107301977Y-69799210D01*
X107192838Y-70062692D01*
X107137200Y-70342404D01*
X107137200Y-70627596D01*
X107192838Y-70907308D01*
X107266482Y-71085097D01*
X96059500Y-82292080D01*
X96059500Y-76108920D01*
X104140017Y-68028403D01*
X106825897Y-68028403D01*
X106875969Y-68369985D01*
X106991718Y-68695234D01*
X107076023Y-68852959D01*
X107344844Y-68969630D01*
X108369474Y-67945000D01*
X108800526Y-67945000D01*
X109825156Y-68969630D01*
X110093977Y-68852959D01*
X110242117Y-68541126D01*
X110326574Y-68206383D01*
X110344103Y-67861597D01*
X110294031Y-67520015D01*
X110178282Y-67194766D01*
X110093977Y-67037041D01*
X109825156Y-66920370D01*
X108800526Y-67945000D01*
X108369474Y-67945000D01*
X107344844Y-66920370D01*
X107076023Y-67037041D01*
X106927883Y-67348874D01*
X106843426Y-67683617D01*
X106825897Y-68028403D01*
X104140017Y-68028403D01*
X105463576Y-66704844D01*
X107560370Y-66704844D01*
X108585000Y-67729474D01*
X109609630Y-66704844D01*
X109492959Y-66436023D01*
X109181126Y-66287883D01*
X108846383Y-66203426D01*
X108501597Y-66185897D01*
X108160015Y-66235969D01*
X107834766Y-66351718D01*
X107677041Y-66436023D01*
X107560370Y-66704844D01*
X105463576Y-66704844D01*
X107984903Y-64183518D01*
X108162692Y-64257162D01*
X108442404Y-64312800D01*
X108727596Y-64312800D01*
X109007308Y-64257162D01*
X109270790Y-64148023D01*
X109507919Y-63989579D01*
X109709579Y-63787919D01*
X109868023Y-63550790D01*
X109977162Y-63287308D01*
X110032800Y-63007596D01*
X110032800Y-62722404D01*
X109977162Y-62442692D01*
X109868023Y-62179210D01*
X109709579Y-61942081D01*
X109525802Y-61758304D01*
X109609630Y-61565156D01*
X108585000Y-60540526D01*
X107560370Y-61565156D01*
X107644198Y-61758304D01*
X107460421Y-61942081D01*
X107301977Y-62179210D01*
X107192838Y-62442692D01*
X107137200Y-62722404D01*
X107137200Y-63007596D01*
X107192838Y-63287308D01*
X107266482Y-63465097D01*
X95209935Y-75521645D01*
X95190552Y-75537552D01*
X95127071Y-75614905D01*
X95079899Y-75703158D01*
X95050851Y-75798916D01*
X95043500Y-75873553D01*
X95041043Y-75898500D01*
X95043500Y-75923444D01*
X95043501Y-99743878D01*
X93003430Y-101783950D01*
X92984053Y-101799852D01*
X92968151Y-101819229D01*
X92968150Y-101819230D01*
X92950900Y-101840249D01*
X92950900Y-94120143D01*
X92953357Y-94095199D01*
X92950900Y-94070253D01*
X92943549Y-93995615D01*
X92914501Y-93899857D01*
X92885472Y-93845548D01*
X92867329Y-93811604D01*
X92819750Y-93753629D01*
X92803848Y-93734252D01*
X92784471Y-93718350D01*
X91036500Y-91970380D01*
X91036500Y-86334372D01*
X91092183Y-86417708D01*
X91382292Y-86707817D01*
X91723424Y-86935754D01*
X92102470Y-87092759D01*
X92504862Y-87172800D01*
X92915138Y-87172800D01*
X93317530Y-87092759D01*
X93696576Y-86935754D01*
X94037708Y-86707817D01*
X94327817Y-86417708D01*
X94555754Y-86076576D01*
X94712759Y-85697530D01*
X94792800Y-85295138D01*
X94792800Y-84884862D01*
X94712759Y-84482470D01*
X94555754Y-84103424D01*
X94327817Y-83762292D01*
X94037708Y-83472183D01*
X93696576Y-83244246D01*
X93317530Y-83087241D01*
X92915138Y-83007200D01*
X92504862Y-83007200D01*
X92102470Y-83087241D01*
X91723424Y-83244246D01*
X91382292Y-83472183D01*
X91092183Y-83762292D01*
X91036500Y-83845628D01*
X91036500Y-69593344D01*
X91038957Y-69568400D01*
X91036500Y-69543453D01*
X91029149Y-69468815D01*
X91000101Y-69373057D01*
X90952929Y-69284805D01*
X90889448Y-69207452D01*
X90870065Y-69191545D01*
X89997000Y-68318480D01*
X89997000Y-68213800D01*
X89968205Y-68069037D01*
X89911721Y-67932673D01*
X89829720Y-67809949D01*
X89725351Y-67705580D01*
X89602627Y-67623579D01*
X89466263Y-67567095D01*
X89321500Y-67538300D01*
X89173900Y-67538300D01*
X89029137Y-67567095D01*
X88892773Y-67623579D01*
X88770049Y-67705580D01*
X88665680Y-67809949D01*
X88583679Y-67932673D01*
X88527195Y-68069037D01*
X88498400Y-68213800D01*
X88498400Y-68361400D01*
X88527195Y-68506163D01*
X88583679Y-68642527D01*
X88665680Y-68765251D01*
X88770049Y-68869620D01*
X88892773Y-68951621D01*
X89029137Y-69008105D01*
X89173900Y-69036900D01*
X89278580Y-69036900D01*
X90020501Y-69778821D01*
X90020501Y-77617397D01*
X89952527Y-77571979D01*
X89816163Y-77515495D01*
X89671400Y-77486700D01*
X89523800Y-77486700D01*
X89379037Y-77515495D01*
X89242673Y-77571979D01*
X89119949Y-77653980D01*
X89015580Y-77758349D01*
X88933579Y-77881073D01*
X88877095Y-78017437D01*
X88848300Y-78162200D01*
X88848300Y-78309800D01*
X88877095Y-78454563D01*
X88933579Y-78590927D01*
X89015580Y-78713651D01*
X89089600Y-78787671D01*
X89089601Y-92197746D01*
X89087143Y-92222700D01*
X89092825Y-92280384D01*
X89096952Y-92322285D01*
X89113290Y-92376143D01*
X89126000Y-92418043D01*
X89173171Y-92506295D01*
X89202267Y-92541748D01*
X89236653Y-92583648D01*
X89256030Y-92599550D01*
X90020400Y-93363921D01*
X90020401Y-105042946D01*
X89998620Y-105010349D01*
X89894251Y-104905980D01*
X89771527Y-104823979D01*
X89635163Y-104767495D01*
X89490400Y-104738700D01*
X89415753Y-104738700D01*
X89385443Y-104722499D01*
X89289685Y-104693451D01*
X89215047Y-104686100D01*
X89190100Y-104683643D01*
X89168174Y-104685802D01*
X89168174Y-104597200D01*
X89162289Y-104537449D01*
X89144860Y-104479994D01*
X89116558Y-104427043D01*
X89078468Y-104380632D01*
X89032057Y-104342542D01*
X88979106Y-104314240D01*
X88921651Y-104296811D01*
X88861900Y-104290926D01*
X87870900Y-104290926D01*
X87870900Y-103989074D01*
X88861900Y-103989074D01*
X88921651Y-103983189D01*
X88979106Y-103965760D01*
X89032057Y-103937458D01*
X89078468Y-103899368D01*
X89116558Y-103852957D01*
X89144860Y-103800006D01*
X89162289Y-103742551D01*
X89168174Y-103682800D01*
X89168174Y-102489000D01*
X89162289Y-102429249D01*
X89144860Y-102371794D01*
X89116558Y-102318843D01*
X89078468Y-102272432D01*
X89032057Y-102234342D01*
X88979106Y-102206040D01*
X88921651Y-102188611D01*
X88861900Y-102182726D01*
X88773000Y-102182726D01*
X88773000Y-70509943D01*
X88775457Y-70484999D01*
X88773000Y-70460053D01*
X88765649Y-70385415D01*
X88736601Y-70289657D01*
X88727354Y-70272357D01*
X88689429Y-70201404D01*
X88641850Y-70143429D01*
X88625948Y-70124052D01*
X88606571Y-70108150D01*
X81963518Y-63465098D01*
X82037162Y-63287308D01*
X82092800Y-63007596D01*
X82092800Y-62722404D01*
X82037162Y-62442692D01*
X81928023Y-62179210D01*
X81769579Y-61942081D01*
X81585802Y-61758304D01*
X81669630Y-61565156D01*
X80645000Y-60540526D01*
X79620370Y-61565156D01*
X79704198Y-61758304D01*
X79520421Y-61942081D01*
X79361977Y-62179210D01*
X79252838Y-62442692D01*
X79197200Y-62722404D01*
X79197200Y-63007596D01*
X79252838Y-63287308D01*
X79361977Y-63550790D01*
X79520421Y-63787919D01*
X79722081Y-63989579D01*
X79959210Y-64148023D01*
X80222692Y-64257162D01*
X80502404Y-64312800D01*
X80787596Y-64312800D01*
X81067308Y-64257162D01*
X81245098Y-64183518D01*
X87757000Y-70695421D01*
X87757000Y-76882348D01*
X87739750Y-76861329D01*
X87723848Y-76841952D01*
X87704471Y-76826050D01*
X81963518Y-71085098D01*
X82037162Y-70907308D01*
X82092800Y-70627596D01*
X82092800Y-70342404D01*
X82037162Y-70062692D01*
X81928023Y-69799210D01*
X81769579Y-69562081D01*
X81585802Y-69378304D01*
X81669630Y-69185156D01*
X80645000Y-68160526D01*
X79620370Y-69185156D01*
X79704198Y-69378304D01*
X79520421Y-69562081D01*
X79361977Y-69799210D01*
X79252838Y-70062692D01*
X79197200Y-70342404D01*
X79197200Y-70627596D01*
X79252838Y-70907308D01*
X79361977Y-71170790D01*
X79520421Y-71407919D01*
X79722081Y-71609579D01*
X79959210Y-71768023D01*
X80222692Y-71877162D01*
X80502404Y-71932800D01*
X80787596Y-71932800D01*
X81067308Y-71877162D01*
X81245098Y-71803518D01*
X86854900Y-77413321D01*
X86854900Y-83596479D01*
X81963518Y-78705098D01*
X82037162Y-78527308D01*
X82092800Y-78247596D01*
X82092800Y-77962404D01*
X82037162Y-77682692D01*
X81928023Y-77419210D01*
X81769579Y-77182081D01*
X81585802Y-76998304D01*
X81669630Y-76805156D01*
X80645000Y-75780526D01*
X79620370Y-76805156D01*
X79704198Y-76998304D01*
X79520421Y-77182081D01*
X79361977Y-77419210D01*
X79252838Y-77682692D01*
X79197200Y-77962404D01*
X79197200Y-78247596D01*
X79252838Y-78527308D01*
X79361977Y-78790790D01*
X79520421Y-79027919D01*
X79722081Y-79229579D01*
X79959210Y-79388023D01*
X80222692Y-79497162D01*
X80502404Y-79552800D01*
X80787596Y-79552800D01*
X81067308Y-79497162D01*
X81245098Y-79423518D01*
X86200500Y-84378921D01*
X86200500Y-92332080D01*
X69516823Y-75648403D01*
X78885897Y-75648403D01*
X78935969Y-75989985D01*
X79051718Y-76315234D01*
X79136023Y-76472959D01*
X79404844Y-76589630D01*
X80429474Y-75565000D01*
X80860526Y-75565000D01*
X81885156Y-76589630D01*
X82153977Y-76472959D01*
X82302117Y-76161126D01*
X82386574Y-75826383D01*
X82404103Y-75481597D01*
X82354031Y-75140015D01*
X82238282Y-74814766D01*
X82153977Y-74657041D01*
X81885156Y-74540370D01*
X80860526Y-75565000D01*
X80429474Y-75565000D01*
X79404844Y-74540370D01*
X79136023Y-74657041D01*
X78987883Y-74968874D01*
X78903426Y-75303617D01*
X78885897Y-75648403D01*
X69516823Y-75648403D01*
X68193264Y-74324844D01*
X79620370Y-74324844D01*
X80645000Y-75349474D01*
X81669630Y-74324844D01*
X81552959Y-74056023D01*
X81241126Y-73907883D01*
X80906383Y-73823426D01*
X80561597Y-73805897D01*
X80220015Y-73855969D01*
X79894766Y-73971718D01*
X79737041Y-74056023D01*
X79620370Y-74324844D01*
X68193264Y-74324844D01*
X64367000Y-70498580D01*
X64367000Y-70393900D01*
X64338205Y-70249137D01*
X64281721Y-70112773D01*
X64199720Y-69990049D01*
X64095351Y-69885680D01*
X63972627Y-69803679D01*
X63836263Y-69747195D01*
X63691500Y-69718400D01*
X63543900Y-69718400D01*
X63399137Y-69747195D01*
X63262773Y-69803679D01*
X63140049Y-69885680D01*
X63035680Y-69990049D01*
X62953679Y-70112773D01*
X62897195Y-70249137D01*
X62868400Y-70393900D01*
X62868400Y-70541500D01*
X62897195Y-70686263D01*
X62953679Y-70822627D01*
X63035680Y-70945351D01*
X63140049Y-71049720D01*
X63262773Y-71131721D01*
X63399137Y-71188205D01*
X63543900Y-71217000D01*
X63648580Y-71217000D01*
X85630500Y-93198920D01*
X85630501Y-105295880D01*
X84285155Y-103950535D01*
X84269248Y-103931152D01*
X84191895Y-103867671D01*
X84103643Y-103820499D01*
X84060846Y-103807517D01*
X84064860Y-103800006D01*
X84082289Y-103742551D01*
X84088174Y-103682800D01*
X84088174Y-102489000D01*
X84082289Y-102429249D01*
X84064860Y-102371794D01*
X84036558Y-102318843D01*
X83998468Y-102272432D01*
X83952057Y-102234342D01*
X83899106Y-102206040D01*
X83841651Y-102188611D01*
X83781900Y-102182726D01*
X83693298Y-102182726D01*
X83695457Y-102160800D01*
X83692900Y-102134838D01*
X83692900Y-93369844D01*
X83695357Y-93344900D01*
X83692900Y-93319953D01*
X83685549Y-93245315D01*
X83656501Y-93149557D01*
X83623643Y-93088084D01*
X83609329Y-93061304D01*
X83561750Y-93003329D01*
X83545848Y-92983952D01*
X83526471Y-92968050D01*
X58586824Y-68028403D01*
X78885897Y-68028403D01*
X78935969Y-68369985D01*
X79051718Y-68695234D01*
X79136023Y-68852959D01*
X79404844Y-68969630D01*
X80429474Y-67945000D01*
X80860526Y-67945000D01*
X81885156Y-68969630D01*
X82153977Y-68852959D01*
X82302117Y-68541126D01*
X82386574Y-68206383D01*
X82404103Y-67861597D01*
X82354031Y-67520015D01*
X82238282Y-67194766D01*
X82153977Y-67037041D01*
X81885156Y-66920370D01*
X80860526Y-67945000D01*
X80429474Y-67945000D01*
X79404844Y-66920370D01*
X79136023Y-67037041D01*
X78987883Y-67348874D01*
X78903426Y-67683617D01*
X78885897Y-68028403D01*
X58586824Y-68028403D01*
X57263265Y-66704844D01*
X79620370Y-66704844D01*
X80645000Y-67729474D01*
X81669630Y-66704844D01*
X81552959Y-66436023D01*
X81241126Y-66287883D01*
X80906383Y-66203426D01*
X80561597Y-66185897D01*
X80220015Y-66235969D01*
X79894766Y-66351718D01*
X79737041Y-66436023D01*
X79620370Y-66704844D01*
X57263265Y-66704844D01*
X54023518Y-63465098D01*
X54097162Y-63287308D01*
X54152800Y-63007596D01*
X54152800Y-62722404D01*
X54097162Y-62442692D01*
X53988023Y-62179210D01*
X53829579Y-61942081D01*
X53645802Y-61758304D01*
X53729630Y-61565156D01*
X52705000Y-60540526D01*
X51680370Y-61565156D01*
X51764198Y-61758304D01*
X51580421Y-61942081D01*
X51421977Y-62179210D01*
X51312838Y-62442692D01*
X51257200Y-62722404D01*
X51257200Y-63007596D01*
X51312838Y-63287308D01*
X51421977Y-63550790D01*
X51580421Y-63787919D01*
X51782081Y-63989579D01*
X52019210Y-64148023D01*
X52282692Y-64257162D01*
X52562404Y-64312800D01*
X52847596Y-64312800D01*
X53127308Y-64257162D01*
X53305098Y-64183518D01*
X82676900Y-93555321D01*
X82676900Y-96450227D01*
X82659750Y-96429329D01*
X82643848Y-96409952D01*
X82624471Y-96394050D01*
X64357200Y-78126780D01*
X64357200Y-78022100D01*
X64328405Y-77877337D01*
X64271921Y-77740973D01*
X64189920Y-77618249D01*
X64085551Y-77513880D01*
X63962827Y-77431879D01*
X63826463Y-77375395D01*
X63681700Y-77346600D01*
X63534100Y-77346600D01*
X63389337Y-77375395D01*
X63252973Y-77431879D01*
X63130249Y-77513880D01*
X63025880Y-77618249D01*
X62943879Y-77740973D01*
X62887395Y-77877337D01*
X62858600Y-78022100D01*
X62858600Y-78169700D01*
X62887395Y-78314463D01*
X62943879Y-78450827D01*
X63025880Y-78573551D01*
X63130249Y-78677920D01*
X63252973Y-78759921D01*
X63389337Y-78816405D01*
X63534100Y-78845200D01*
X63638780Y-78845200D01*
X81774901Y-96981322D01*
X81774901Y-98836480D01*
X54023518Y-71085098D01*
X54097162Y-70907308D01*
X54152800Y-70627596D01*
X54152800Y-70342404D01*
X54097162Y-70062692D01*
X53988023Y-69799210D01*
X53829579Y-69562081D01*
X53645802Y-69378304D01*
X53729630Y-69185156D01*
X52705000Y-68160526D01*
X51680370Y-69185156D01*
X51764198Y-69378304D01*
X51580421Y-69562081D01*
X51421977Y-69799210D01*
X51312838Y-70062692D01*
X51257200Y-70342404D01*
X51257200Y-70627596D01*
X51312838Y-70907308D01*
X51421977Y-71170790D01*
X51580421Y-71407919D01*
X51782081Y-71609579D01*
X52019210Y-71768023D01*
X52282692Y-71877162D01*
X52562404Y-71932800D01*
X52847596Y-71932800D01*
X53127308Y-71877162D01*
X53305098Y-71803518D01*
X81170100Y-99668521D01*
X81170101Y-105708946D01*
X81167643Y-105733900D01*
X81176574Y-105824574D01*
X81177452Y-105833485D01*
X81201400Y-105912429D01*
X81206500Y-105929243D01*
X81253671Y-106017495D01*
X81276244Y-106045000D01*
X81317153Y-106094848D01*
X81336530Y-106110750D01*
X82502294Y-107276515D01*
X82470894Y-107286040D01*
X82417943Y-107314342D01*
X82371532Y-107352432D01*
X82333442Y-107398843D01*
X82305140Y-107451794D01*
X82287711Y-107509249D01*
X82281826Y-107569000D01*
X82281826Y-108762800D01*
X82287711Y-108822551D01*
X82305140Y-108880006D01*
X82333442Y-108932957D01*
X82371532Y-108979368D01*
X82417943Y-109017458D01*
X82470894Y-109045760D01*
X82528349Y-109063189D01*
X82588100Y-109069074D01*
X83781900Y-109069074D01*
X83841651Y-109063189D01*
X83899106Y-109045760D01*
X83952057Y-109017458D01*
X83998468Y-108979368D01*
X84036558Y-108932957D01*
X84064860Y-108880006D01*
X84082289Y-108822551D01*
X84088174Y-108762800D01*
X84088174Y-107569000D01*
X84082289Y-107509249D01*
X84064860Y-107451794D01*
X84036558Y-107398843D01*
X83998468Y-107352432D01*
X83952057Y-107314342D01*
X83899106Y-107286040D01*
X83841651Y-107268611D01*
X83781900Y-107262726D01*
X83693297Y-107262726D01*
X83695457Y-107240799D01*
X83693000Y-107215853D01*
X83685649Y-107141215D01*
X83656601Y-107045457D01*
X83629761Y-106995243D01*
X83609429Y-106957204D01*
X83561850Y-106899229D01*
X83545948Y-106879852D01*
X83526571Y-106863950D01*
X82759894Y-106097274D01*
X83369753Y-106097274D01*
X83525273Y-106252794D01*
X83542095Y-106337363D01*
X83598579Y-106473727D01*
X83680580Y-106596451D01*
X83784949Y-106700820D01*
X83907673Y-106782821D01*
X84044037Y-106839305D01*
X84188800Y-106868100D01*
X84336400Y-106868100D01*
X84481163Y-106839305D01*
X84617527Y-106782821D01*
X84740251Y-106700820D01*
X84844620Y-106596451D01*
X84926621Y-106473727D01*
X84983105Y-106337363D01*
X85004201Y-106231306D01*
X85004200Y-110113989D01*
X84995020Y-110100249D01*
X84890651Y-109995880D01*
X84767927Y-109913879D01*
X84631563Y-109857395D01*
X84486800Y-109828600D01*
X84354274Y-109828600D01*
X84305443Y-109802499D01*
X84209685Y-109773451D01*
X84135047Y-109766100D01*
X84110100Y-109763643D01*
X84088174Y-109765802D01*
X84088174Y-109677200D01*
X84082289Y-109617449D01*
X84064860Y-109559994D01*
X84036558Y-109507043D01*
X83998468Y-109460632D01*
X83952057Y-109422542D01*
X83899106Y-109394240D01*
X83841651Y-109376811D01*
X83781900Y-109370926D01*
X82588100Y-109370926D01*
X82528349Y-109376811D01*
X82470894Y-109394240D01*
X82417943Y-109422542D01*
X82371532Y-109460632D01*
X82333442Y-109507043D01*
X82305140Y-109559994D01*
X82287711Y-109617449D01*
X82281826Y-109677200D01*
X82281826Y-110699205D01*
X80267400Y-108684780D01*
X80267400Y-100562844D01*
X80269857Y-100537900D01*
X80262653Y-100464757D01*
X80260049Y-100438315D01*
X80231001Y-100342557D01*
X80183829Y-100254305D01*
X80120348Y-100176952D01*
X80100965Y-100161045D01*
X53669455Y-73729535D01*
X53653548Y-73710152D01*
X53576195Y-73646671D01*
X53487943Y-73599499D01*
X53392185Y-73570451D01*
X53317547Y-73563100D01*
X53317544Y-73563100D01*
X53292600Y-73560643D01*
X53267656Y-73563100D01*
X52129644Y-73563100D01*
X52104700Y-73560643D01*
X52079756Y-73563100D01*
X52079753Y-73563100D01*
X52005115Y-73570451D01*
X51909357Y-73599499D01*
X51821105Y-73646671D01*
X51743752Y-73710152D01*
X51727845Y-73729535D01*
X51244500Y-74212880D01*
X51244500Y-68873999D01*
X51464844Y-68969630D01*
X52489474Y-67945000D01*
X52920526Y-67945000D01*
X53945156Y-68969630D01*
X54213977Y-68852959D01*
X54362117Y-68541126D01*
X54446574Y-68206383D01*
X54464103Y-67861597D01*
X54414031Y-67520015D01*
X54298282Y-67194766D01*
X54213977Y-67037041D01*
X53945156Y-66920370D01*
X52920526Y-67945000D01*
X52489474Y-67945000D01*
X51464844Y-66920370D01*
X51244500Y-67016001D01*
X51244500Y-66704844D01*
X51680370Y-66704844D01*
X52705000Y-67729474D01*
X53729630Y-66704844D01*
X53612959Y-66436023D01*
X53301126Y-66287883D01*
X52966383Y-66203426D01*
X52621597Y-66185897D01*
X52280015Y-66235969D01*
X51954766Y-66351718D01*
X51797041Y-66436023D01*
X51680370Y-66704844D01*
X51244500Y-66704844D01*
X51244500Y-61253999D01*
X51464844Y-61349630D01*
X52489474Y-60325000D01*
X52920526Y-60325000D01*
X53945156Y-61349630D01*
X54213977Y-61232959D01*
X54362117Y-60921126D01*
X54446574Y-60586383D01*
X54455622Y-60408403D01*
X78885897Y-60408403D01*
X78935969Y-60749985D01*
X79051718Y-61075234D01*
X79136023Y-61232959D01*
X79404844Y-61349630D01*
X80429474Y-60325000D01*
X80860526Y-60325000D01*
X81885156Y-61349630D01*
X82153977Y-61232959D01*
X82302117Y-60921126D01*
X82386574Y-60586383D01*
X82395622Y-60408403D01*
X106825897Y-60408403D01*
X106875969Y-60749985D01*
X106991718Y-61075234D01*
X107076023Y-61232959D01*
X107344844Y-61349630D01*
X108369474Y-60325000D01*
X108800526Y-60325000D01*
X109825156Y-61349630D01*
X110093977Y-61232959D01*
X110242117Y-60921126D01*
X110326574Y-60586383D01*
X110344103Y-60241597D01*
X110294031Y-59900015D01*
X110178282Y-59574766D01*
X110093977Y-59417041D01*
X109825156Y-59300370D01*
X108800526Y-60325000D01*
X108369474Y-60325000D01*
X107344844Y-59300370D01*
X107076023Y-59417041D01*
X106927883Y-59728874D01*
X106843426Y-60063617D01*
X106825897Y-60408403D01*
X82395622Y-60408403D01*
X82404103Y-60241597D01*
X82354031Y-59900015D01*
X82238282Y-59574766D01*
X82153977Y-59417041D01*
X81885156Y-59300370D01*
X80860526Y-60325000D01*
X80429474Y-60325000D01*
X79404844Y-59300370D01*
X79136023Y-59417041D01*
X78987883Y-59728874D01*
X78903426Y-60063617D01*
X78885897Y-60408403D01*
X54455622Y-60408403D01*
X54464103Y-60241597D01*
X54414031Y-59900015D01*
X54298282Y-59574766D01*
X54213977Y-59417041D01*
X53945156Y-59300370D01*
X52920526Y-60325000D01*
X52489474Y-60325000D01*
X51464844Y-59300370D01*
X51244500Y-59396001D01*
X51244500Y-59084844D01*
X51680370Y-59084844D01*
X52705000Y-60109474D01*
X53729630Y-59084844D01*
X79620370Y-59084844D01*
X80645000Y-60109474D01*
X81669630Y-59084844D01*
X107560370Y-59084844D01*
X108585000Y-60109474D01*
X109609630Y-59084844D01*
X109492959Y-58816023D01*
X109181126Y-58667883D01*
X108846383Y-58583426D01*
X108501597Y-58565897D01*
X108160015Y-58615969D01*
X107834766Y-58731718D01*
X107677041Y-58816023D01*
X107560370Y-59084844D01*
X81669630Y-59084844D01*
X81552959Y-58816023D01*
X81241126Y-58667883D01*
X80906383Y-58583426D01*
X80561597Y-58565897D01*
X80220015Y-58615969D01*
X79894766Y-58731718D01*
X79737041Y-58816023D01*
X79620370Y-59084844D01*
X53729630Y-59084844D01*
X53612959Y-58816023D01*
X53301126Y-58667883D01*
X52966383Y-58583426D01*
X52621597Y-58565897D01*
X52280015Y-58615969D01*
X51954766Y-58731718D01*
X51797041Y-58816023D01*
X51680370Y-59084844D01*
X51244500Y-59084844D01*
X51244500Y-57167467D01*
X51311995Y-56309862D01*
X62687200Y-56309862D01*
X62687200Y-56720138D01*
X62767241Y-57122530D01*
X62924246Y-57501576D01*
X63152183Y-57842708D01*
X63442292Y-58132817D01*
X63783424Y-58360754D01*
X64162470Y-58517759D01*
X64564862Y-58597800D01*
X64975138Y-58597800D01*
X65377530Y-58517759D01*
X65756576Y-58360754D01*
X66097708Y-58132817D01*
X66387817Y-57842708D01*
X66615754Y-57501576D01*
X66772759Y-57122530D01*
X66852800Y-56720138D01*
X66852800Y-56309862D01*
X118567200Y-56309862D01*
X118567200Y-56720138D01*
X118647241Y-57122530D01*
X118804246Y-57501576D01*
X119032183Y-57842708D01*
X119322292Y-58132817D01*
X119663424Y-58360754D01*
X120042470Y-58517759D01*
X120444862Y-58597800D01*
X120855138Y-58597800D01*
X121257530Y-58517759D01*
X121636576Y-58360754D01*
X121977708Y-58132817D01*
X122267817Y-57842708D01*
X122495754Y-57501576D01*
X122652759Y-57122530D01*
X122732800Y-56720138D01*
X122732800Y-56309862D01*
X122652759Y-55907470D01*
X122495754Y-55528424D01*
X122267817Y-55187292D01*
X121977708Y-54897183D01*
X121636576Y-54669246D01*
X121257530Y-54512241D01*
X120855138Y-54432200D01*
X120444862Y-54432200D01*
X120042470Y-54512241D01*
X119663424Y-54669246D01*
X119322292Y-54897183D01*
X119032183Y-55187292D01*
X118804246Y-55528424D01*
X118647241Y-55907470D01*
X118567200Y-56309862D01*
X66852800Y-56309862D01*
X66772759Y-55907470D01*
X66615754Y-55528424D01*
X66387817Y-55187292D01*
X66097708Y-54897183D01*
X65756576Y-54669246D01*
X65377530Y-54512241D01*
X64975138Y-54432200D01*
X64564862Y-54432200D01*
X64162470Y-54512241D01*
X63783424Y-54669246D01*
X63442292Y-54897183D01*
X63152183Y-55187292D01*
X62924246Y-55528424D01*
X62767241Y-55907470D01*
X62687200Y-56309862D01*
X51311995Y-56309862D01*
X51318565Y-56226386D01*
X51534843Y-55325525D01*
X51889384Y-54469588D01*
X52228777Y-53915748D01*
X53373400Y-53915748D01*
X53373400Y-54034252D01*
X53396519Y-54150480D01*
X53441869Y-54259965D01*
X53507707Y-54358498D01*
X53591502Y-54442293D01*
X53690035Y-54508131D01*
X53799520Y-54553481D01*
X53915748Y-54576600D01*
X54034252Y-54576600D01*
X54150480Y-54553481D01*
X54259965Y-54508131D01*
X54358498Y-54442293D01*
X54442293Y-54358498D01*
X54508131Y-54259965D01*
X54553481Y-54150480D01*
X54576600Y-54034252D01*
X54576600Y-53915748D01*
X121953400Y-53915748D01*
X121953400Y-54034252D01*
X121976519Y-54150480D01*
X122021869Y-54259965D01*
X122087707Y-54358498D01*
X122171502Y-54442293D01*
X122270035Y-54508131D01*
X122379520Y-54553481D01*
X122495748Y-54576600D01*
X122614252Y-54576600D01*
X122730480Y-54553481D01*
X122839965Y-54508131D01*
X122938498Y-54442293D01*
X123022293Y-54358498D01*
X123088131Y-54259965D01*
X123133481Y-54150480D01*
X123156600Y-54034252D01*
X123156600Y-53915748D01*
X123133481Y-53799520D01*
X123088131Y-53690035D01*
X123022293Y-53591502D01*
X122938498Y-53507707D01*
X122839965Y-53441869D01*
X122730480Y-53396519D01*
X122614252Y-53373400D01*
X122495748Y-53373400D01*
X122379520Y-53396519D01*
X122270035Y-53441869D01*
X122171502Y-53507707D01*
X122087707Y-53591502D01*
X122021869Y-53690035D01*
X121976519Y-53799520D01*
X121953400Y-53915748D01*
X54576600Y-53915748D01*
X54553481Y-53799520D01*
X54508131Y-53690035D01*
X54442293Y-53591502D01*
X54358498Y-53507707D01*
X54259965Y-53441869D01*
X54150480Y-53396519D01*
X54034252Y-53373400D01*
X53915748Y-53373400D01*
X53799520Y-53396519D01*
X53690035Y-53441869D01*
X53591502Y-53507707D01*
X53507707Y-53591502D01*
X53441869Y-53690035D01*
X53396519Y-53799520D01*
X53373400Y-53915748D01*
X52228777Y-53915748D01*
X52373463Y-53679642D01*
X52975156Y-52975150D01*
X53679639Y-52373465D01*
X54469583Y-51889385D01*
X55325526Y-51534842D01*
X56226392Y-51318564D01*
X57167467Y-51244500D01*
X119362533Y-51244500D01*
X120303614Y-51318565D01*
G37*
X120303614Y-51318565D02*
X121204475Y-51534843D01*
X122060412Y-51889384D01*
X122850358Y-52373463D01*
X123554850Y-52975156D01*
X124156535Y-53679639D01*
X124640615Y-54469583D01*
X124995158Y-55325526D01*
X125211436Y-56226392D01*
X125285500Y-57167467D01*
X125285501Y-125077520D01*
X125211436Y-126018608D01*
X124995158Y-126919474D01*
X124640615Y-127775417D01*
X124156535Y-128565361D01*
X123554850Y-129269844D01*
X122850358Y-129871537D01*
X122060412Y-130355616D01*
X121204475Y-130710157D01*
X120303614Y-130926435D01*
X119362533Y-131000500D01*
X94986547Y-131000500D01*
X95019657Y-130960157D01*
X95047959Y-130907206D01*
X95065388Y-130849751D01*
X95071273Y-130790000D01*
X95071273Y-128290000D01*
X95065388Y-128230249D01*
X95047959Y-128172794D01*
X95019657Y-128119843D01*
X94981567Y-128073432D01*
X94935156Y-128035342D01*
X94882205Y-128007040D01*
X94824750Y-127989611D01*
X94764999Y-127983726D01*
X91765001Y-127983726D01*
X91705250Y-127989611D01*
X91647795Y-128007040D01*
X91594844Y-128035342D01*
X91548433Y-128073432D01*
X91510343Y-128119843D01*
X91482041Y-128172794D01*
X91464612Y-128230249D01*
X91458727Y-128290000D01*
X91458727Y-130790000D01*
X91464612Y-130849751D01*
X91482041Y-130907206D01*
X91510343Y-130960157D01*
X91543453Y-131000500D01*
X84986547Y-131000500D01*
X85019657Y-130960157D01*
X85047959Y-130907206D01*
X85065388Y-130849751D01*
X85071273Y-130790000D01*
X85071273Y-128290000D01*
X85065388Y-128230249D01*
X85047959Y-128172794D01*
X85019657Y-128119843D01*
X84981567Y-128073432D01*
X84935156Y-128035342D01*
X84882205Y-128007040D01*
X84824750Y-127989611D01*
X84764999Y-127983726D01*
X81765001Y-127983726D01*
X81756529Y-127984560D01*
X81764605Y-127965063D01*
X81793400Y-127820300D01*
X81793400Y-127672700D01*
X81764605Y-127527937D01*
X81708121Y-127391573D01*
X81626120Y-127268849D01*
X81521751Y-127164480D01*
X81399027Y-127082479D01*
X81262663Y-127025995D01*
X81117900Y-126997200D01*
X81003377Y-126997200D01*
X81000295Y-126994671D01*
X80912043Y-126947499D01*
X80816285Y-126918451D01*
X80741647Y-126911100D01*
X80741644Y-126911100D01*
X80716700Y-126908643D01*
X80691756Y-126911100D01*
X80278174Y-126911100D01*
X80278174Y-126822200D01*
X80272289Y-126762449D01*
X80254860Y-126704994D01*
X80226558Y-126652043D01*
X80188468Y-126605632D01*
X80142057Y-126567542D01*
X80089106Y-126539240D01*
X80031651Y-126521811D01*
X79971900Y-126515926D01*
X78778100Y-126515926D01*
X78718349Y-126521811D01*
X78660894Y-126539240D01*
X78607943Y-126567542D01*
X78561532Y-126605632D01*
X78523442Y-126652043D01*
X78495140Y-126704994D01*
X78477711Y-126762449D01*
X78471826Y-126822200D01*
X78471826Y-128016000D01*
X78477711Y-128075751D01*
X78495140Y-128133206D01*
X78523442Y-128186157D01*
X78561532Y-128232568D01*
X78607943Y-128270658D01*
X78660894Y-128298960D01*
X78718349Y-128316389D01*
X78778100Y-128322274D01*
X79971900Y-128322274D01*
X80031651Y-128316389D01*
X80089106Y-128298960D01*
X80142057Y-128270658D01*
X80188468Y-128232568D01*
X80226558Y-128186157D01*
X80254860Y-128133206D01*
X80272289Y-128075751D01*
X80278174Y-128016000D01*
X80278174Y-127927100D01*
X80316044Y-127927100D01*
X80323595Y-127965063D01*
X80380079Y-128101427D01*
X80462080Y-128224151D01*
X80566449Y-128328520D01*
X80689173Y-128410521D01*
X80825537Y-128467005D01*
X80970300Y-128495800D01*
X81117900Y-128495800D01*
X81262663Y-128467005D01*
X81399027Y-128410521D01*
X81458727Y-128370631D01*
X81458727Y-130790000D01*
X81464612Y-130849751D01*
X81482041Y-130907206D01*
X81510343Y-130960157D01*
X81543453Y-131000500D01*
X57167467Y-131000500D01*
X56226392Y-130926436D01*
X55325526Y-130710158D01*
X54469583Y-130355615D01*
X53679639Y-129871535D01*
X52975156Y-129269850D01*
X52373463Y-128565358D01*
X52156158Y-128210748D01*
X53373400Y-128210748D01*
X53373400Y-128329252D01*
X53396519Y-128445480D01*
X53441869Y-128554965D01*
X53507707Y-128653498D01*
X53591502Y-128737293D01*
X53690035Y-128803131D01*
X53799520Y-128848481D01*
X53915748Y-128871600D01*
X54034252Y-128871600D01*
X54150480Y-128848481D01*
X54259965Y-128803131D01*
X54358498Y-128737293D01*
X54442293Y-128653498D01*
X54508131Y-128554965D01*
X54553481Y-128445480D01*
X54576600Y-128329252D01*
X54576600Y-128210748D01*
X54553481Y-128094520D01*
X54508131Y-127985035D01*
X54442293Y-127886502D01*
X54358498Y-127802707D01*
X54259965Y-127736869D01*
X54150480Y-127691519D01*
X54034252Y-127668400D01*
X53915748Y-127668400D01*
X53799520Y-127691519D01*
X53690035Y-127736869D01*
X53591502Y-127802707D01*
X53507707Y-127886502D01*
X53441869Y-127985035D01*
X53396519Y-128094520D01*
X53373400Y-128210748D01*
X52156158Y-128210748D01*
X51889384Y-127775412D01*
X51567056Y-126997243D01*
X66140200Y-126997243D01*
X66140200Y-127352757D01*
X66209557Y-127701441D01*
X66345607Y-128029894D01*
X66543120Y-128325493D01*
X66794507Y-128576880D01*
X67090106Y-128774393D01*
X67418559Y-128910443D01*
X67767243Y-128979800D01*
X68122757Y-128979800D01*
X68471441Y-128910443D01*
X68799894Y-128774393D01*
X69095493Y-128576880D01*
X69346880Y-128325493D01*
X69544393Y-128029894D01*
X69680443Y-127701441D01*
X69749800Y-127352757D01*
X69749800Y-126997243D01*
X69680443Y-126648559D01*
X69544393Y-126320106D01*
X69346880Y-126024507D01*
X69095493Y-125773120D01*
X68799894Y-125575607D01*
X68471441Y-125439557D01*
X68122757Y-125370200D01*
X67767243Y-125370200D01*
X67418559Y-125439557D01*
X67090106Y-125575607D01*
X66794507Y-125773120D01*
X66543120Y-126024507D01*
X66345607Y-126320106D01*
X66209557Y-126648559D01*
X66140200Y-126997243D01*
X51567056Y-126997243D01*
X51534843Y-126919475D01*
X51318565Y-126018614D01*
X51244500Y-125077533D01*
X51244500Y-120275000D01*
X59238726Y-120275000D01*
X59238726Y-126475000D01*
X59244611Y-126534751D01*
X59262040Y-126592206D01*
X59290342Y-126645157D01*
X59328432Y-126691568D01*
X59374843Y-126729658D01*
X59427794Y-126757960D01*
X59485249Y-126775389D01*
X59545000Y-126781274D01*
X63445000Y-126781274D01*
X63504751Y-126775389D01*
X63562206Y-126757960D01*
X63615157Y-126729658D01*
X63661568Y-126691568D01*
X63699658Y-126645157D01*
X63727960Y-126592206D01*
X63745389Y-126534751D01*
X63751274Y-126475000D01*
X63751274Y-122168900D01*
X65516880Y-122168900D01*
X70568150Y-127220171D01*
X70584052Y-127239548D01*
X70603429Y-127255450D01*
X70661404Y-127303029D01*
X70708576Y-127328243D01*
X70749657Y-127350201D01*
X70845415Y-127379249D01*
X70920053Y-127386600D01*
X70920055Y-127386600D01*
X70944999Y-127389057D01*
X70969943Y-127386600D01*
X76857256Y-127386600D01*
X76882200Y-127389057D01*
X76907144Y-127386600D01*
X76907147Y-127386600D01*
X76981785Y-127379249D01*
X77077543Y-127350201D01*
X77165795Y-127303029D01*
X77243148Y-127239548D01*
X77259055Y-127220165D01*
X78485615Y-125993605D01*
X78495140Y-126025006D01*
X78523442Y-126077957D01*
X78561532Y-126124368D01*
X78607943Y-126162458D01*
X78660894Y-126190760D01*
X78718349Y-126208189D01*
X78778100Y-126214074D01*
X79971900Y-126214074D01*
X80031651Y-126208189D01*
X80089106Y-126190760D01*
X80142057Y-126162458D01*
X80188468Y-126124368D01*
X80226558Y-126077957D01*
X80254860Y-126025006D01*
X80272289Y-125967551D01*
X80278174Y-125907800D01*
X80278174Y-124714000D01*
X80272289Y-124654249D01*
X80254860Y-124596794D01*
X80226558Y-124543843D01*
X80188468Y-124497432D01*
X80142057Y-124459342D01*
X80089106Y-124431040D01*
X80031651Y-124413611D01*
X79971900Y-124407726D01*
X78778100Y-124407726D01*
X78718349Y-124413611D01*
X78660894Y-124431040D01*
X78607943Y-124459342D01*
X78561532Y-124497432D01*
X78523442Y-124543843D01*
X78495140Y-124596794D01*
X78477711Y-124654249D01*
X78471826Y-124714000D01*
X78471826Y-124802603D01*
X78449900Y-124800443D01*
X78424956Y-124802900D01*
X78424953Y-124802900D01*
X78350315Y-124810251D01*
X78254557Y-124839299D01*
X78166305Y-124886471D01*
X78088952Y-124949952D01*
X78073045Y-124969335D01*
X76671780Y-126370600D01*
X76651274Y-126370600D01*
X76651274Y-121873600D01*
X81597500Y-121873600D01*
X81597500Y-122021200D01*
X81626295Y-122165963D01*
X81682779Y-122302327D01*
X81764780Y-122425051D01*
X81869149Y-122529420D01*
X81991873Y-122611421D01*
X82128237Y-122667905D01*
X82273000Y-122696700D01*
X82420600Y-122696700D01*
X82565363Y-122667905D01*
X82701727Y-122611421D01*
X82824451Y-122529420D01*
X82928820Y-122425051D01*
X83010821Y-122302327D01*
X83067305Y-122165963D01*
X83096100Y-122021200D01*
X83096100Y-121873600D01*
X83079724Y-121791274D01*
X86485000Y-121791274D01*
X86544751Y-121785389D01*
X86602206Y-121767960D01*
X86655157Y-121739658D01*
X86701568Y-121701568D01*
X86739658Y-121655157D01*
X86761121Y-121615000D01*
X87142450Y-121615000D01*
X87154220Y-121734503D01*
X87189078Y-121849413D01*
X87245683Y-121955315D01*
X87321862Y-122048138D01*
X87414685Y-122124317D01*
X87520587Y-122180922D01*
X87635497Y-122215780D01*
X87755000Y-122227550D01*
X87960200Y-122224600D01*
X88112600Y-122072200D01*
X88112600Y-120622400D01*
X88417400Y-120622400D01*
X88417400Y-122072200D01*
X88569800Y-122224600D01*
X88775000Y-122227550D01*
X88894503Y-122215780D01*
X89009413Y-122180922D01*
X89115315Y-122124317D01*
X89208138Y-122048138D01*
X89284317Y-121955315D01*
X89340922Y-121849413D01*
X89375780Y-121734503D01*
X89387550Y-121615000D01*
X89384600Y-120774800D01*
X89232200Y-120622400D01*
X88417400Y-120622400D01*
X88112600Y-120622400D01*
X87297800Y-120622400D01*
X87145400Y-120774800D01*
X87142450Y-121615000D01*
X86761121Y-121615000D01*
X86767960Y-121602206D01*
X86785389Y-121544751D01*
X86791274Y-121485000D01*
X86791274Y-119455000D01*
X86785389Y-119395249D01*
X86767960Y-119337794D01*
X86761122Y-119325000D01*
X87142450Y-119325000D01*
X87145400Y-120165200D01*
X87297800Y-120317600D01*
X88112600Y-120317600D01*
X88112600Y-118867800D01*
X88417400Y-118867800D01*
X88417400Y-120317600D01*
X89232200Y-120317600D01*
X89384600Y-120165200D01*
X89387550Y-119325000D01*
X89375780Y-119205497D01*
X89340922Y-119090587D01*
X89284317Y-118984685D01*
X89208138Y-118891862D01*
X89115315Y-118815683D01*
X89009413Y-118759078D01*
X88894503Y-118724220D01*
X88775000Y-118712450D01*
X88569800Y-118715400D01*
X88417400Y-118867800D01*
X88112600Y-118867800D01*
X87960200Y-118715400D01*
X87755000Y-118712450D01*
X87635497Y-118724220D01*
X87520587Y-118759078D01*
X87414685Y-118815683D01*
X87321862Y-118891862D01*
X87245683Y-118984685D01*
X87189078Y-119090587D01*
X87154220Y-119205497D01*
X87142450Y-119325000D01*
X86761122Y-119325000D01*
X86739658Y-119284843D01*
X86701568Y-119238432D01*
X86655157Y-119200342D01*
X86602206Y-119172040D01*
X86544751Y-119154611D01*
X86485000Y-119148726D01*
X82675000Y-119148726D01*
X82615249Y-119154611D01*
X82557794Y-119172040D01*
X82504843Y-119200342D01*
X82458432Y-119238432D01*
X82420342Y-119284843D01*
X82392040Y-119337794D01*
X82374611Y-119395249D01*
X82368726Y-119455000D01*
X82368726Y-119961702D01*
X82346800Y-119959543D01*
X82321853Y-119962000D01*
X82247215Y-119969351D01*
X82151457Y-119998399D01*
X82063205Y-120045571D01*
X81985852Y-120109052D01*
X81922371Y-120186405D01*
X81875199Y-120274657D01*
X81846151Y-120370415D01*
X81836343Y-120470000D01*
X81838800Y-120494947D01*
X81838801Y-121395728D01*
X81764780Y-121469749D01*
X81682779Y-121592473D01*
X81626295Y-121728837D01*
X81597500Y-121873600D01*
X76651274Y-121873600D01*
X76651274Y-120275000D01*
X76645389Y-120215249D01*
X76627960Y-120157794D01*
X76599658Y-120104843D01*
X76561568Y-120058432D01*
X76515157Y-120020342D01*
X76462206Y-119992040D01*
X76404751Y-119974611D01*
X76345000Y-119968726D01*
X72445000Y-119968726D01*
X72385249Y-119974611D01*
X72327794Y-119992040D01*
X72274843Y-120020342D01*
X72228432Y-120058432D01*
X72190342Y-120104843D01*
X72162040Y-120157794D01*
X72144611Y-120215249D01*
X72138726Y-120275000D01*
X72138726Y-126370600D01*
X71155421Y-126370600D01*
X66104155Y-121319335D01*
X66088248Y-121299952D01*
X66010895Y-121236471D01*
X65922643Y-121189299D01*
X65826885Y-121160251D01*
X65752247Y-121152900D01*
X65752244Y-121152900D01*
X65727300Y-121150443D01*
X65702356Y-121152900D01*
X64008000Y-121152900D01*
X64008000Y-109056374D01*
X64300100Y-109056374D01*
X64359851Y-109050489D01*
X64417306Y-109033060D01*
X64470257Y-109004758D01*
X64516668Y-108966668D01*
X64554758Y-108920257D01*
X64583060Y-108867306D01*
X64600489Y-108809851D01*
X64603921Y-108775000D01*
X65432450Y-108775000D01*
X65444220Y-108894503D01*
X65479078Y-109009413D01*
X65535683Y-109115315D01*
X65611862Y-109208138D01*
X65704685Y-109284317D01*
X65778758Y-109323909D01*
X65773726Y-109375000D01*
X65773726Y-110815000D01*
X65779611Y-110874751D01*
X65797040Y-110932206D01*
X65825342Y-110985157D01*
X65863432Y-111031568D01*
X65909843Y-111069658D01*
X65962794Y-111097960D01*
X66020249Y-111115389D01*
X66080000Y-111121274D01*
X67680000Y-111121274D01*
X67739751Y-111115389D01*
X67797206Y-111097960D01*
X67850157Y-111069658D01*
X67896568Y-111031568D01*
X67934658Y-110985157D01*
X67945000Y-110965808D01*
X67955342Y-110985157D01*
X67993432Y-111031568D01*
X68039843Y-111069658D01*
X68092794Y-111097960D01*
X68150249Y-111115389D01*
X68210000Y-111121274D01*
X68269653Y-111121274D01*
X68291580Y-111143200D01*
X68253435Y-111181345D01*
X68234052Y-111197252D01*
X68170571Y-111274605D01*
X68123399Y-111362858D01*
X68094351Y-111458616D01*
X68087000Y-111533253D01*
X68084543Y-111558200D01*
X68087000Y-111583144D01*
X68087000Y-111918726D01*
X66945000Y-111918726D01*
X66885249Y-111924611D01*
X66827794Y-111942040D01*
X66774843Y-111970342D01*
X66728432Y-112008432D01*
X66690342Y-112054843D01*
X66662040Y-112107794D01*
X66644611Y-112165249D01*
X66638726Y-112225000D01*
X66638726Y-116625000D01*
X66644611Y-116684751D01*
X66662040Y-116742206D01*
X66690342Y-116795157D01*
X66728432Y-116841568D01*
X66774843Y-116879658D01*
X66827794Y-116907960D01*
X66885249Y-116925389D01*
X66945000Y-116931274D01*
X70245000Y-116931274D01*
X70304751Y-116925389D01*
X70362206Y-116907960D01*
X70415157Y-116879658D01*
X70461568Y-116841568D01*
X70499658Y-116795157D01*
X70527960Y-116742206D01*
X70545389Y-116684751D01*
X70551274Y-116625000D01*
X70551274Y-114757200D01*
X82281826Y-114757200D01*
X82281826Y-115951000D01*
X82287711Y-116010751D01*
X82305140Y-116068206D01*
X82333442Y-116121157D01*
X82371532Y-116167568D01*
X82417943Y-116205658D01*
X82470894Y-116233960D01*
X82495412Y-116241397D01*
X82464495Y-116316037D01*
X82435700Y-116460800D01*
X82435700Y-116608400D01*
X82464495Y-116753163D01*
X82520979Y-116889527D01*
X82602980Y-117012251D01*
X82707349Y-117116620D01*
X82830073Y-117198621D01*
X82966437Y-117255105D01*
X83111200Y-117283900D01*
X83258800Y-117283900D01*
X83403563Y-117255105D01*
X83539927Y-117198621D01*
X83662651Y-117116620D01*
X83767020Y-117012251D01*
X83849021Y-116889527D01*
X83905505Y-116753163D01*
X83934300Y-116608400D01*
X83934300Y-116460800D01*
X83905505Y-116316037D01*
X83874588Y-116241397D01*
X83899106Y-116233960D01*
X83952057Y-116205658D01*
X83998468Y-116167568D01*
X84036558Y-116121157D01*
X84064860Y-116068206D01*
X84082289Y-116010751D01*
X84088174Y-115951000D01*
X84088174Y-114757200D01*
X84082289Y-114697449D01*
X84064860Y-114639994D01*
X84036558Y-114587043D01*
X83998468Y-114540632D01*
X83952057Y-114502542D01*
X83899106Y-114474240D01*
X83841651Y-114456811D01*
X83781900Y-114450926D01*
X82588100Y-114450926D01*
X82528349Y-114456811D01*
X82470894Y-114474240D01*
X82417943Y-114502542D01*
X82371532Y-114540632D01*
X82333442Y-114587043D01*
X82305140Y-114639994D01*
X82287711Y-114697449D01*
X82281826Y-114757200D01*
X70551274Y-114757200D01*
X70551274Y-112225000D01*
X70545389Y-112165249D01*
X70527960Y-112107794D01*
X70499658Y-112054843D01*
X70461568Y-112008432D01*
X70415157Y-111970342D01*
X70362206Y-111942040D01*
X70304751Y-111924611D01*
X70245000Y-111918726D01*
X69103000Y-111918726D01*
X69103000Y-111768620D01*
X69351565Y-111520055D01*
X69370948Y-111504148D01*
X69434429Y-111426795D01*
X69481601Y-111338543D01*
X69510649Y-111242785D01*
X69518000Y-111168147D01*
X69518000Y-111168144D01*
X69520457Y-111143200D01*
X69518297Y-111121274D01*
X69810000Y-111121274D01*
X69869751Y-111115389D01*
X69927206Y-111097960D01*
X69980157Y-111069658D01*
X70026568Y-111031568D01*
X70064658Y-110985157D01*
X70092960Y-110932206D01*
X70110389Y-110874751D01*
X70116274Y-110815000D01*
X70116274Y-109375000D01*
X70111242Y-109323909D01*
X70185315Y-109284317D01*
X70278138Y-109208138D01*
X70354317Y-109115315D01*
X70410922Y-109009413D01*
X70445780Y-108894503D01*
X70457550Y-108775000D01*
X70454600Y-106599800D01*
X70302200Y-106447400D01*
X68097400Y-106447400D01*
X68097400Y-106467400D01*
X67792600Y-106467400D01*
X67792600Y-106447400D01*
X65587800Y-106447400D01*
X65435400Y-106599800D01*
X65432450Y-108775000D01*
X64603921Y-108775000D01*
X64606374Y-108750100D01*
X64606374Y-107962700D01*
X64600489Y-107902949D01*
X64583060Y-107845494D01*
X64554758Y-107792543D01*
X64516668Y-107746132D01*
X64470257Y-107708042D01*
X64417306Y-107679740D01*
X64359851Y-107662311D01*
X64300100Y-107656426D01*
X64008298Y-107656426D01*
X64010457Y-107634500D01*
X64000649Y-107534915D01*
X63971601Y-107439157D01*
X63924429Y-107350905D01*
X63863985Y-107277253D01*
X64300100Y-107279850D01*
X64419603Y-107268080D01*
X64534513Y-107233222D01*
X64640415Y-107176617D01*
X64733238Y-107100438D01*
X64809417Y-107007615D01*
X64866022Y-106901713D01*
X64900880Y-106786803D01*
X64912650Y-106667300D01*
X64909700Y-106578400D01*
X64757300Y-106426000D01*
X63652400Y-106426000D01*
X63652400Y-106446000D01*
X63347600Y-106446000D01*
X63347600Y-106426000D01*
X63327600Y-106426000D01*
X63327600Y-106121200D01*
X63347600Y-106121200D01*
X63347600Y-105422700D01*
X63652400Y-105422700D01*
X63652400Y-106121200D01*
X64757300Y-106121200D01*
X64909700Y-105968800D01*
X64912650Y-105879900D01*
X64900880Y-105760397D01*
X64866022Y-105645487D01*
X64809417Y-105539585D01*
X64733238Y-105446762D01*
X64640415Y-105370583D01*
X64534513Y-105313978D01*
X64419603Y-105279120D01*
X64300100Y-105267350D01*
X63804800Y-105270300D01*
X63652400Y-105422700D01*
X63347600Y-105422700D01*
X63195200Y-105270300D01*
X62902700Y-105268558D01*
X62902700Y-103815000D01*
X65432450Y-103815000D01*
X65435400Y-105990200D01*
X65587800Y-106142600D01*
X67792600Y-106142600D01*
X67792600Y-103357800D01*
X68097400Y-103357800D01*
X68097400Y-106142600D01*
X70302200Y-106142600D01*
X70454600Y-105990200D01*
X70457550Y-103815000D01*
X70445780Y-103695497D01*
X70410922Y-103580587D01*
X70354317Y-103474685D01*
X70278138Y-103381862D01*
X70185315Y-103305683D01*
X70079413Y-103249078D01*
X69964503Y-103214220D01*
X69845000Y-103202450D01*
X68249800Y-103205400D01*
X68097400Y-103357800D01*
X67792600Y-103357800D01*
X67640200Y-103205400D01*
X66045000Y-103202450D01*
X65925497Y-103214220D01*
X65810587Y-103249078D01*
X65704685Y-103305683D01*
X65611862Y-103381862D01*
X65535683Y-103474685D01*
X65479078Y-103580587D01*
X65444220Y-103695497D01*
X65432450Y-103815000D01*
X62902700Y-103815000D01*
X62902700Y-86902771D01*
X62976720Y-86828751D01*
X63058721Y-86706027D01*
X63115205Y-86569663D01*
X63144000Y-86424900D01*
X63144000Y-86277300D01*
X63115205Y-86132537D01*
X63058721Y-85996173D01*
X62976720Y-85873449D01*
X62872351Y-85769080D01*
X62749627Y-85687079D01*
X62613263Y-85630595D01*
X62468500Y-85601800D01*
X62320900Y-85601800D01*
X62176137Y-85630595D01*
X62039773Y-85687079D01*
X61917049Y-85769080D01*
X61812680Y-85873449D01*
X61730679Y-85996173D01*
X61674195Y-86132537D01*
X61645400Y-86277300D01*
X61645400Y-86424900D01*
X61674195Y-86569663D01*
X61730679Y-86706027D01*
X61812680Y-86828751D01*
X61886701Y-86902772D01*
X61886700Y-106774956D01*
X61884243Y-106799900D01*
X61886700Y-106824844D01*
X61886700Y-106824846D01*
X61894051Y-106899484D01*
X61923099Y-106995242D01*
X61970271Y-107083495D01*
X62033752Y-107160848D01*
X62053135Y-107176755D01*
X62565376Y-107688996D01*
X62529743Y-107708042D01*
X62483332Y-107746132D01*
X62445242Y-107792543D01*
X62416940Y-107845494D01*
X62399511Y-107902949D01*
X62393626Y-107962700D01*
X62393626Y-108750100D01*
X62399511Y-108809851D01*
X62416940Y-108867306D01*
X62445242Y-108920257D01*
X62483332Y-108966668D01*
X62529743Y-109004758D01*
X62582694Y-109033060D01*
X62640149Y-109050489D01*
X62699900Y-109056374D01*
X62992000Y-109056374D01*
X62992001Y-119968726D01*
X59545000Y-119968726D01*
X59485249Y-119974611D01*
X59427794Y-119992040D01*
X59374843Y-120020342D01*
X59328432Y-120058432D01*
X59290342Y-120104843D01*
X59262040Y-120157794D01*
X59244611Y-120215249D01*
X59238726Y-120275000D01*
X51244500Y-120275000D01*
X51244500Y-77362920D01*
X51386482Y-77504902D01*
X51312838Y-77682692D01*
X51257200Y-77962404D01*
X51257200Y-78247596D01*
X51312838Y-78527308D01*
X51421977Y-78790790D01*
X51580421Y-79027919D01*
X51782081Y-79229579D01*
X52019210Y-79388023D01*
X52282692Y-79497162D01*
X52562404Y-79552800D01*
X52847596Y-79552800D01*
X53127308Y-79497162D01*
X53390790Y-79388023D01*
X53627919Y-79229579D01*
X53829579Y-79027919D01*
X53988023Y-78790790D01*
X54097162Y-78527308D01*
X54152800Y-78247596D01*
X54152800Y-77962404D01*
X54097162Y-77682692D01*
X53988023Y-77419210D01*
X53829579Y-77182081D01*
X53645802Y-76998304D01*
X53729630Y-76805156D01*
X52705000Y-75780526D01*
X52690858Y-75794669D01*
X52475332Y-75579143D01*
X52489474Y-75565000D01*
X52475332Y-75550858D01*
X52690858Y-75335332D01*
X52705000Y-75349474D01*
X52719143Y-75335332D01*
X52934669Y-75550858D01*
X52920526Y-75565000D01*
X53945156Y-76589630D01*
X54213977Y-76472959D01*
X54362117Y-76161126D01*
X54422979Y-75919899D01*
X79251400Y-100748320D01*
X79251401Y-108870246D01*
X79248943Y-108895200D01*
X79253002Y-108936406D01*
X79258752Y-108994785D01*
X79265630Y-109017458D01*
X79287800Y-109090543D01*
X79334971Y-109178795D01*
X79382550Y-109236770D01*
X79398453Y-109256148D01*
X79417830Y-109272050D01*
X82502294Y-112356515D01*
X82470894Y-112366040D01*
X82417943Y-112394342D01*
X82371532Y-112432432D01*
X82333442Y-112478843D01*
X82305140Y-112531794D01*
X82287711Y-112589249D01*
X82281826Y-112649000D01*
X82281826Y-113842800D01*
X82287711Y-113902551D01*
X82305140Y-113960006D01*
X82333442Y-114012957D01*
X82371532Y-114059368D01*
X82417943Y-114097458D01*
X82470894Y-114125760D01*
X82528349Y-114143189D01*
X82588100Y-114149074D01*
X83781900Y-114149074D01*
X83841651Y-114143189D01*
X83899106Y-114125760D01*
X83952057Y-114097458D01*
X83998468Y-114059368D01*
X84036558Y-114012957D01*
X84064860Y-113960006D01*
X84082289Y-113902551D01*
X84088174Y-113842800D01*
X84088174Y-112649000D01*
X84082289Y-112589249D01*
X84064860Y-112531794D01*
X84036558Y-112478843D01*
X83998468Y-112432432D01*
X83952057Y-112394342D01*
X83899106Y-112366040D01*
X83841651Y-112348611D01*
X83781900Y-112342726D01*
X83693297Y-112342726D01*
X83695457Y-112320800D01*
X83692364Y-112289400D01*
X83685649Y-112221215D01*
X83656601Y-112125457D01*
X83618857Y-112054843D01*
X83609429Y-112037204D01*
X83561850Y-111979229D01*
X83545948Y-111959852D01*
X83526571Y-111943950D01*
X82759895Y-111177274D01*
X83781900Y-111177274D01*
X83841651Y-111171389D01*
X83899106Y-111153960D01*
X83918841Y-111143412D01*
X83935349Y-111159920D01*
X84058073Y-111241921D01*
X84194437Y-111298405D01*
X84339200Y-111327200D01*
X84486800Y-111327200D01*
X84631563Y-111298405D01*
X84767927Y-111241921D01*
X84890651Y-111159920D01*
X84995020Y-111055551D01*
X85004200Y-111041811D01*
X85004200Y-114232256D01*
X85001743Y-114257200D01*
X85004200Y-114282144D01*
X85004200Y-114282146D01*
X85011551Y-114356784D01*
X85040599Y-114452542D01*
X85087771Y-114540795D01*
X85151252Y-114618148D01*
X85170635Y-114634055D01*
X89727449Y-119190870D01*
X89743352Y-119210248D01*
X89762729Y-119226150D01*
X89808012Y-119263313D01*
X89790342Y-119284843D01*
X89762040Y-119337794D01*
X89744611Y-119395249D01*
X89738726Y-119455000D01*
X89738726Y-121485000D01*
X89744611Y-121544751D01*
X89762040Y-121602206D01*
X89790342Y-121655157D01*
X89828432Y-121701568D01*
X89874843Y-121739658D01*
X89927794Y-121767960D01*
X89985249Y-121785389D01*
X90045000Y-121791274D01*
X93855000Y-121791274D01*
X93914751Y-121785389D01*
X93972206Y-121767960D01*
X94025157Y-121739658D01*
X94071568Y-121701568D01*
X94109658Y-121655157D01*
X94137960Y-121602206D01*
X94155389Y-121544751D01*
X94161274Y-121485000D01*
X94161274Y-119455000D01*
X94155389Y-119395249D01*
X94143877Y-119357300D01*
X98625680Y-119357300D01*
X98989949Y-119721570D01*
X99005852Y-119740948D01*
X99025229Y-119756850D01*
X99083204Y-119804429D01*
X99171455Y-119851600D01*
X99171457Y-119851601D01*
X99267215Y-119880649D01*
X99341853Y-119888000D01*
X99341855Y-119888000D01*
X99366799Y-119890457D01*
X99391743Y-119888000D01*
X99481440Y-119888000D01*
X99490296Y-119917195D01*
X99620017Y-120159887D01*
X99794592Y-120372608D01*
X100007313Y-120547183D01*
X100199671Y-120650000D01*
X100007313Y-120752817D01*
X99794592Y-120927392D01*
X99620017Y-121140113D01*
X99490296Y-121382805D01*
X99410414Y-121646140D01*
X99383441Y-121920000D01*
X99410414Y-122193860D01*
X99490296Y-122457195D01*
X99620017Y-122699887D01*
X99794592Y-122912608D01*
X100007313Y-123087183D01*
X100199671Y-123190000D01*
X100007313Y-123292817D01*
X99794592Y-123467392D01*
X99620017Y-123680113D01*
X99490296Y-123922805D01*
X99410414Y-124186140D01*
X99383441Y-124460000D01*
X99410414Y-124733860D01*
X99490296Y-124997195D01*
X99620017Y-125239887D01*
X99794592Y-125452608D01*
X100007313Y-125627183D01*
X100199671Y-125730000D01*
X100007313Y-125832817D01*
X99794592Y-126007392D01*
X99620017Y-126220113D01*
X99490296Y-126462805D01*
X99410414Y-126726140D01*
X99383441Y-127000000D01*
X99410414Y-127273860D01*
X99490296Y-127537195D01*
X99620017Y-127779887D01*
X99794592Y-127992608D01*
X100007313Y-128167183D01*
X100199671Y-128270000D01*
X100007313Y-128372817D01*
X99794592Y-128547392D01*
X99620017Y-128760113D01*
X99490296Y-129002805D01*
X99410414Y-129266140D01*
X99383441Y-129540000D01*
X99410414Y-129813860D01*
X99490296Y-130077195D01*
X99620017Y-130319887D01*
X99794592Y-130532608D01*
X100007313Y-130707183D01*
X100250005Y-130836904D01*
X100513340Y-130916786D01*
X100718575Y-130937000D01*
X101211425Y-130937000D01*
X101416660Y-130916786D01*
X101679995Y-130836904D01*
X101922687Y-130707183D01*
X102135408Y-130532608D01*
X102309983Y-130319887D01*
X102439704Y-130077195D01*
X102519586Y-129813860D01*
X102546559Y-129540000D01*
X102519586Y-129266140D01*
X102439704Y-129002805D01*
X102309983Y-128760113D01*
X102135408Y-128547392D01*
X101922687Y-128372817D01*
X101730329Y-128270000D01*
X101922687Y-128167183D01*
X102135408Y-127992608D01*
X102309983Y-127779887D01*
X102439704Y-127537195D01*
X102519586Y-127273860D01*
X102546559Y-127000000D01*
X102519586Y-126726140D01*
X102439704Y-126462805D01*
X102309983Y-126220113D01*
X102135408Y-126007392D01*
X101922687Y-125832817D01*
X101730329Y-125730000D01*
X101922687Y-125627183D01*
X102135408Y-125452608D01*
X102309983Y-125239887D01*
X102439704Y-124997195D01*
X102519586Y-124733860D01*
X102546559Y-124460000D01*
X102519586Y-124186140D01*
X102439704Y-123922805D01*
X102309983Y-123680113D01*
X102135408Y-123467392D01*
X101922687Y-123292817D01*
X101730329Y-123190000D01*
X101922687Y-123087183D01*
X102135408Y-122912608D01*
X102309983Y-122699887D01*
X102439704Y-122457195D01*
X102519586Y-122193860D01*
X102546559Y-121920000D01*
X102519586Y-121646140D01*
X102439704Y-121382805D01*
X102309983Y-121140113D01*
X102135408Y-120927392D01*
X101922687Y-120752817D01*
X101730329Y-120650000D01*
X101922687Y-120547183D01*
X102135408Y-120372608D01*
X102309983Y-120159887D01*
X102439704Y-119917195D01*
X102519586Y-119653860D01*
X102546559Y-119380000D01*
X102519586Y-119106140D01*
X102439704Y-118842805D01*
X102309983Y-118600113D01*
X102135408Y-118387392D01*
X101922687Y-118212817D01*
X101730329Y-118110000D01*
X101922687Y-118007183D01*
X102135408Y-117832608D01*
X102309983Y-117619887D01*
X102439704Y-117377195D01*
X102519586Y-117113860D01*
X102546559Y-116840000D01*
X102519586Y-116566140D01*
X102439704Y-116302805D01*
X102309983Y-116060113D01*
X102135408Y-115847392D01*
X101922687Y-115672817D01*
X101730329Y-115570000D01*
X101922687Y-115467183D01*
X102135408Y-115292608D01*
X102309983Y-115079887D01*
X102439704Y-114837195D01*
X102519586Y-114573860D01*
X102546559Y-114300000D01*
X102519586Y-114026140D01*
X102439704Y-113762805D01*
X102309983Y-113520113D01*
X102135408Y-113307392D01*
X101922687Y-113132817D01*
X101730329Y-113030000D01*
X101922687Y-112927183D01*
X102135408Y-112752608D01*
X102309983Y-112539887D01*
X102439704Y-112297195D01*
X102519586Y-112033860D01*
X102546559Y-111760000D01*
X102519586Y-111486140D01*
X102439704Y-111222805D01*
X102309983Y-110980113D01*
X102135408Y-110767392D01*
X101922687Y-110592817D01*
X101730329Y-110490000D01*
X101922687Y-110387183D01*
X102135408Y-110212608D01*
X102309983Y-109999887D01*
X102439704Y-109757195D01*
X102519586Y-109493860D01*
X102546559Y-109220000D01*
X102519586Y-108946140D01*
X102439704Y-108682805D01*
X102309983Y-108440113D01*
X102135408Y-108227392D01*
X101922687Y-108052817D01*
X101730329Y-107950000D01*
X101922687Y-107847183D01*
X102135408Y-107672608D01*
X102309983Y-107459887D01*
X102439704Y-107217195D01*
X102519586Y-106953860D01*
X102546559Y-106680000D01*
X102519586Y-106406140D01*
X102439704Y-106142805D01*
X102309983Y-105900113D01*
X102135408Y-105687392D01*
X101922687Y-105512817D01*
X101730329Y-105410000D01*
X101922687Y-105307183D01*
X102135408Y-105132608D01*
X102309983Y-104919887D01*
X102439704Y-104677195D01*
X102519586Y-104413860D01*
X102546559Y-104140000D01*
X102519586Y-103866140D01*
X102439704Y-103602805D01*
X102309983Y-103360113D01*
X102135408Y-103147392D01*
X101922687Y-102972817D01*
X101730329Y-102870000D01*
X101922687Y-102767183D01*
X102135408Y-102592608D01*
X102309983Y-102379887D01*
X102439704Y-102137195D01*
X102519586Y-101873860D01*
X102546559Y-101600000D01*
X102519586Y-101326140D01*
X102439704Y-101062805D01*
X102309983Y-100820113D01*
X102135408Y-100607392D01*
X101922687Y-100432817D01*
X101730329Y-100330000D01*
X101922687Y-100227183D01*
X102135408Y-100052608D01*
X102309983Y-99839887D01*
X102439704Y-99597195D01*
X102519586Y-99333860D01*
X102546559Y-99060000D01*
X102519586Y-98786140D01*
X102439704Y-98522805D01*
X102363390Y-98380030D01*
X104223420Y-96520000D01*
X114623441Y-96520000D01*
X114650414Y-96793860D01*
X114730296Y-97057195D01*
X114860017Y-97299887D01*
X115034592Y-97512608D01*
X115247313Y-97687183D01*
X115439671Y-97790000D01*
X115247313Y-97892817D01*
X115034592Y-98067392D01*
X114860017Y-98280113D01*
X114730296Y-98522805D01*
X114650414Y-98786140D01*
X114623441Y-99060000D01*
X114650414Y-99333860D01*
X114730296Y-99597195D01*
X114860017Y-99839887D01*
X115034592Y-100052608D01*
X115247313Y-100227183D01*
X115439671Y-100330000D01*
X115247313Y-100432817D01*
X115034592Y-100607392D01*
X114860017Y-100820113D01*
X114730296Y-101062805D01*
X114650414Y-101326140D01*
X114623441Y-101600000D01*
X114650414Y-101873860D01*
X114730296Y-102137195D01*
X114860017Y-102379887D01*
X115034592Y-102592608D01*
X115247313Y-102767183D01*
X115439671Y-102870000D01*
X115247313Y-102972817D01*
X115034592Y-103147392D01*
X114860017Y-103360113D01*
X114730296Y-103602805D01*
X114650414Y-103866140D01*
X114623441Y-104140000D01*
X114650414Y-104413860D01*
X114730296Y-104677195D01*
X114860017Y-104919887D01*
X115034592Y-105132608D01*
X115247313Y-105307183D01*
X115439671Y-105410000D01*
X115247313Y-105512817D01*
X115034592Y-105687392D01*
X114860017Y-105900113D01*
X114730296Y-106142805D01*
X114650414Y-106406140D01*
X114623441Y-106680000D01*
X114650414Y-106953860D01*
X114730296Y-107217195D01*
X114860017Y-107459887D01*
X115034592Y-107672608D01*
X115247313Y-107847183D01*
X115439671Y-107950000D01*
X115247313Y-108052817D01*
X115034592Y-108227392D01*
X114860017Y-108440113D01*
X114730296Y-108682805D01*
X114650414Y-108946140D01*
X114623441Y-109220000D01*
X114650414Y-109493860D01*
X114730296Y-109757195D01*
X114860017Y-109999887D01*
X115034592Y-110212608D01*
X115247313Y-110387183D01*
X115439671Y-110490000D01*
X115247313Y-110592817D01*
X115034592Y-110767392D01*
X114860017Y-110980113D01*
X114730296Y-111222805D01*
X114650414Y-111486140D01*
X114623441Y-111760000D01*
X114650414Y-112033860D01*
X114730296Y-112297195D01*
X114860017Y-112539887D01*
X115034592Y-112752608D01*
X115247313Y-112927183D01*
X115439671Y-113030000D01*
X115247313Y-113132817D01*
X115034592Y-113307392D01*
X114860017Y-113520113D01*
X114730296Y-113762805D01*
X114650414Y-114026140D01*
X114623441Y-114300000D01*
X114650414Y-114573860D01*
X114730296Y-114837195D01*
X114860017Y-115079887D01*
X115034592Y-115292608D01*
X115247313Y-115467183D01*
X115439671Y-115570000D01*
X115247313Y-115672817D01*
X115034592Y-115847392D01*
X114860017Y-116060113D01*
X114730296Y-116302805D01*
X114650414Y-116566140D01*
X114623441Y-116840000D01*
X114650414Y-117113860D01*
X114730296Y-117377195D01*
X114860017Y-117619887D01*
X115034592Y-117832608D01*
X115247313Y-118007183D01*
X115439671Y-118110000D01*
X115247313Y-118212817D01*
X115034592Y-118387392D01*
X114860017Y-118600113D01*
X114730296Y-118842805D01*
X114650414Y-119106140D01*
X114623441Y-119380000D01*
X114650414Y-119653860D01*
X114730296Y-119917195D01*
X114860017Y-120159887D01*
X115034592Y-120372608D01*
X115247313Y-120547183D01*
X115439671Y-120650000D01*
X115247313Y-120752817D01*
X115034592Y-120927392D01*
X114860017Y-121140113D01*
X114730296Y-121382805D01*
X114650414Y-121646140D01*
X114623441Y-121920000D01*
X114650414Y-122193860D01*
X114730296Y-122457195D01*
X114860017Y-122699887D01*
X115034592Y-122912608D01*
X115247313Y-123087183D01*
X115439671Y-123190000D01*
X115247313Y-123292817D01*
X115034592Y-123467392D01*
X114860017Y-123680113D01*
X114730296Y-123922805D01*
X114650414Y-124186140D01*
X114623441Y-124460000D01*
X114650414Y-124733860D01*
X114730296Y-124997195D01*
X114860017Y-125239887D01*
X115034592Y-125452608D01*
X115247313Y-125627183D01*
X115439671Y-125730000D01*
X115247313Y-125832817D01*
X115034592Y-126007392D01*
X114860017Y-126220113D01*
X114730296Y-126462805D01*
X114650414Y-126726140D01*
X114623441Y-127000000D01*
X114650414Y-127273860D01*
X114730296Y-127537195D01*
X114860017Y-127779887D01*
X115034592Y-127992608D01*
X115216050Y-128141526D01*
X114935000Y-128141526D01*
X114875249Y-128147411D01*
X114817794Y-128164840D01*
X114764843Y-128193142D01*
X114718432Y-128231232D01*
X114680342Y-128277643D01*
X114652040Y-128330594D01*
X114634611Y-128388049D01*
X114628726Y-128447800D01*
X114628726Y-130632200D01*
X114634611Y-130691951D01*
X114652040Y-130749406D01*
X114680342Y-130802357D01*
X114718432Y-130848768D01*
X114764843Y-130886858D01*
X114817794Y-130915160D01*
X114875249Y-130932589D01*
X114935000Y-130938474D01*
X117475000Y-130938474D01*
X117534751Y-130932589D01*
X117592206Y-130915160D01*
X117645157Y-130886858D01*
X117691568Y-130848768D01*
X117729658Y-130802357D01*
X117757960Y-130749406D01*
X117775389Y-130691951D01*
X117781274Y-130632200D01*
X117781274Y-128447800D01*
X117775389Y-128388049D01*
X117757960Y-128330594D01*
X117729658Y-128277643D01*
X117691568Y-128231232D01*
X117666610Y-128210748D01*
X121953400Y-128210748D01*
X121953400Y-128329252D01*
X121976519Y-128445480D01*
X122021869Y-128554965D01*
X122087707Y-128653498D01*
X122171502Y-128737293D01*
X122270035Y-128803131D01*
X122379520Y-128848481D01*
X122495748Y-128871600D01*
X122614252Y-128871600D01*
X122730480Y-128848481D01*
X122839965Y-128803131D01*
X122938498Y-128737293D01*
X123022293Y-128653498D01*
X123088131Y-128554965D01*
X123133481Y-128445480D01*
X123156600Y-128329252D01*
X123156600Y-128210748D01*
X123133481Y-128094520D01*
X123088131Y-127985035D01*
X123022293Y-127886502D01*
X122938498Y-127802707D01*
X122839965Y-127736869D01*
X122730480Y-127691519D01*
X122614252Y-127668400D01*
X122495748Y-127668400D01*
X122379520Y-127691519D01*
X122270035Y-127736869D01*
X122171502Y-127802707D01*
X122087707Y-127886502D01*
X122021869Y-127985035D01*
X121976519Y-128094520D01*
X121953400Y-128210748D01*
X117666610Y-128210748D01*
X117645157Y-128193142D01*
X117592206Y-128164840D01*
X117534751Y-128147411D01*
X117475000Y-128141526D01*
X117193950Y-128141526D01*
X117375408Y-127992608D01*
X117549983Y-127779887D01*
X117679704Y-127537195D01*
X117759586Y-127273860D01*
X117786559Y-127000000D01*
X117759586Y-126726140D01*
X117679704Y-126462805D01*
X117549983Y-126220113D01*
X117375408Y-126007392D01*
X117162687Y-125832817D01*
X116970329Y-125730000D01*
X117162687Y-125627183D01*
X117375408Y-125452608D01*
X117549983Y-125239887D01*
X117679704Y-124997195D01*
X117759586Y-124733860D01*
X117786559Y-124460000D01*
X117759586Y-124186140D01*
X117679704Y-123922805D01*
X117549983Y-123680113D01*
X117375408Y-123467392D01*
X117162687Y-123292817D01*
X116970329Y-123190000D01*
X117162687Y-123087183D01*
X117375408Y-122912608D01*
X117549983Y-122699887D01*
X117679704Y-122457195D01*
X117759586Y-122193860D01*
X117786559Y-121920000D01*
X117759586Y-121646140D01*
X117679704Y-121382805D01*
X117549983Y-121140113D01*
X117375408Y-120927392D01*
X117162687Y-120752817D01*
X116970329Y-120650000D01*
X117162687Y-120547183D01*
X117375408Y-120372608D01*
X117549983Y-120159887D01*
X117679704Y-119917195D01*
X117759586Y-119653860D01*
X117786559Y-119380000D01*
X117759586Y-119106140D01*
X117679704Y-118842805D01*
X117549983Y-118600113D01*
X117375408Y-118387392D01*
X117162687Y-118212817D01*
X116970329Y-118110000D01*
X117162687Y-118007183D01*
X117375408Y-117832608D01*
X117549983Y-117619887D01*
X117679704Y-117377195D01*
X117759586Y-117113860D01*
X117786559Y-116840000D01*
X117759586Y-116566140D01*
X117679704Y-116302805D01*
X117549983Y-116060113D01*
X117375408Y-115847392D01*
X117162687Y-115672817D01*
X116970329Y-115570000D01*
X117162687Y-115467183D01*
X117375408Y-115292608D01*
X117549983Y-115079887D01*
X117679704Y-114837195D01*
X117759586Y-114573860D01*
X117786559Y-114300000D01*
X117759586Y-114026140D01*
X117679704Y-113762805D01*
X117549983Y-113520113D01*
X117375408Y-113307392D01*
X117162687Y-113132817D01*
X116970329Y-113030000D01*
X117162687Y-112927183D01*
X117375408Y-112752608D01*
X117549983Y-112539887D01*
X117679704Y-112297195D01*
X117759586Y-112033860D01*
X117786559Y-111760000D01*
X117759586Y-111486140D01*
X117679704Y-111222805D01*
X117549983Y-110980113D01*
X117375408Y-110767392D01*
X117162687Y-110592817D01*
X116970329Y-110490000D01*
X117162687Y-110387183D01*
X117375408Y-110212608D01*
X117549983Y-109999887D01*
X117679704Y-109757195D01*
X117759586Y-109493860D01*
X117786559Y-109220000D01*
X117759586Y-108946140D01*
X117679704Y-108682805D01*
X117549983Y-108440113D01*
X117375408Y-108227392D01*
X117162687Y-108052817D01*
X116970329Y-107950000D01*
X117162687Y-107847183D01*
X117375408Y-107672608D01*
X117549983Y-107459887D01*
X117679704Y-107217195D01*
X117759586Y-106953860D01*
X117786559Y-106680000D01*
X117759586Y-106406140D01*
X117679704Y-106142805D01*
X117549983Y-105900113D01*
X117375408Y-105687392D01*
X117162687Y-105512817D01*
X116970329Y-105410000D01*
X117162687Y-105307183D01*
X117375408Y-105132608D01*
X117549983Y-104919887D01*
X117679704Y-104677195D01*
X117759586Y-104413860D01*
X117786559Y-104140000D01*
X117759586Y-103866140D01*
X117679704Y-103602805D01*
X117549983Y-103360113D01*
X117375408Y-103147392D01*
X117162687Y-102972817D01*
X116970329Y-102870000D01*
X117162687Y-102767183D01*
X117375408Y-102592608D01*
X117549983Y-102379887D01*
X117679704Y-102137195D01*
X117759586Y-101873860D01*
X117786559Y-101600000D01*
X117759586Y-101326140D01*
X117679704Y-101062805D01*
X117549983Y-100820113D01*
X117375408Y-100607392D01*
X117162687Y-100432817D01*
X116970329Y-100330000D01*
X117162687Y-100227183D01*
X117375408Y-100052608D01*
X117549983Y-99839887D01*
X117679704Y-99597195D01*
X117759586Y-99333860D01*
X117786559Y-99060000D01*
X117759586Y-98786140D01*
X117679704Y-98522805D01*
X117549983Y-98280113D01*
X117375408Y-98067392D01*
X117162687Y-97892817D01*
X116970329Y-97790000D01*
X117162687Y-97687183D01*
X117375408Y-97512608D01*
X117549983Y-97299887D01*
X117679704Y-97057195D01*
X117759586Y-96793860D01*
X117786559Y-96520000D01*
X117759586Y-96246140D01*
X117679704Y-95982805D01*
X117549983Y-95740113D01*
X117375408Y-95527392D01*
X117162687Y-95352817D01*
X116919995Y-95223096D01*
X116656660Y-95143214D01*
X116451425Y-95123000D01*
X115958575Y-95123000D01*
X115753340Y-95143214D01*
X115490005Y-95223096D01*
X115247313Y-95352817D01*
X115034592Y-95527392D01*
X114860017Y-95740113D01*
X114730296Y-95982805D01*
X114650414Y-96246140D01*
X114623441Y-96520000D01*
X104223420Y-96520000D01*
X117399265Y-83344155D01*
X117418648Y-83328248D01*
X117482129Y-83250895D01*
X117529301Y-83162643D01*
X117558349Y-83066885D01*
X117565700Y-82992247D01*
X117565700Y-82992244D01*
X117568157Y-82967300D01*
X117565700Y-82942356D01*
X117565700Y-61846971D01*
X117639720Y-61772951D01*
X117721721Y-61650227D01*
X117778205Y-61513863D01*
X117807000Y-61369100D01*
X117807000Y-61221500D01*
X117778205Y-61076737D01*
X117721721Y-60940373D01*
X117639720Y-60817649D01*
X117535351Y-60713280D01*
X117412627Y-60631279D01*
X117276263Y-60574795D01*
X117131500Y-60546000D01*
X116983900Y-60546000D01*
X116839137Y-60574795D01*
X116702773Y-60631279D01*
X116580049Y-60713280D01*
X116475680Y-60817649D01*
X116393679Y-60940373D01*
X116337195Y-61076737D01*
X116308400Y-61221500D01*
X116308400Y-61369100D01*
X116337195Y-61513863D01*
X116393679Y-61650227D01*
X116475680Y-61772951D01*
X116549701Y-61846972D01*
X116549700Y-82756880D01*
X102520336Y-96786244D01*
X102546559Y-96520000D01*
X102519586Y-96246140D01*
X102439704Y-95982805D01*
X102309983Y-95740113D01*
X102135408Y-95527392D01*
X101922687Y-95352817D01*
X101679995Y-95223096D01*
X101416660Y-95143214D01*
X101211425Y-95123000D01*
X100718575Y-95123000D01*
X100513340Y-95143214D01*
X100250005Y-95223096D01*
X100007313Y-95352817D01*
X99794592Y-95527392D01*
X99620017Y-95740113D01*
X99490296Y-95982805D01*
X99410414Y-96246140D01*
X99383441Y-96520000D01*
X99410414Y-96793860D01*
X99490296Y-97057195D01*
X99620017Y-97299887D01*
X99794592Y-97512608D01*
X100007313Y-97687183D01*
X100199671Y-97790000D01*
X100007313Y-97892817D01*
X99794592Y-98067392D01*
X99620017Y-98280113D01*
X99490296Y-98522805D01*
X99410414Y-98786140D01*
X99383441Y-99060000D01*
X99410414Y-99333860D01*
X99490296Y-99597195D01*
X99620017Y-99839887D01*
X99794592Y-100052608D01*
X100007313Y-100227183D01*
X100199671Y-100330000D01*
X100007313Y-100432817D01*
X99794592Y-100607392D01*
X99620017Y-100820113D01*
X99490296Y-101062805D01*
X99410414Y-101326140D01*
X99383441Y-101600000D01*
X99410414Y-101873860D01*
X99490296Y-102137195D01*
X99620017Y-102379887D01*
X99794592Y-102592608D01*
X100007313Y-102767183D01*
X100199671Y-102870000D01*
X100007313Y-102972817D01*
X99794592Y-103147392D01*
X99620017Y-103360113D01*
X99490296Y-103602805D01*
X99410414Y-103866140D01*
X99383441Y-104140000D01*
X99410414Y-104413860D01*
X99490296Y-104677195D01*
X99620017Y-104919887D01*
X99794592Y-105132608D01*
X100007313Y-105307183D01*
X100199671Y-105410000D01*
X100007313Y-105512817D01*
X99794592Y-105687392D01*
X99620017Y-105900113D01*
X99490296Y-106142805D01*
X99410414Y-106406140D01*
X99383441Y-106680000D01*
X99410414Y-106953860D01*
X99490296Y-107217195D01*
X99620017Y-107459887D01*
X99794592Y-107672608D01*
X100007313Y-107847183D01*
X100199671Y-107950000D01*
X100007313Y-108052817D01*
X99794592Y-108227392D01*
X99620017Y-108440113D01*
X99490296Y-108682805D01*
X99410414Y-108946140D01*
X99383441Y-109220000D01*
X99410414Y-109493860D01*
X99490296Y-109757195D01*
X99566610Y-109899969D01*
X95826580Y-113640000D01*
X94248174Y-113640000D01*
X94248174Y-112711271D01*
X94284148Y-112681748D01*
X94300055Y-112662365D01*
X98596971Y-108365450D01*
X98616348Y-108349548D01*
X98635024Y-108326790D01*
X98679829Y-108272196D01*
X98705043Y-108225024D01*
X98727001Y-108183943D01*
X98756049Y-108088185D01*
X98763400Y-108013547D01*
X98763400Y-108013544D01*
X98765857Y-107988600D01*
X98763400Y-107963656D01*
X98763400Y-88645020D01*
X107984903Y-79423518D01*
X108162692Y-79497162D01*
X108442404Y-79552800D01*
X108727596Y-79552800D01*
X109007308Y-79497162D01*
X109270790Y-79388023D01*
X109507919Y-79229579D01*
X109709579Y-79027919D01*
X109868023Y-78790790D01*
X109977162Y-78527308D01*
X110032800Y-78247596D01*
X110032800Y-77962404D01*
X109977162Y-77682692D01*
X109868023Y-77419210D01*
X109709579Y-77182081D01*
X109525802Y-76998304D01*
X109609630Y-76805156D01*
X108585000Y-75780526D01*
X107560370Y-76805156D01*
X107644198Y-76998304D01*
X107460421Y-77182081D01*
X107301977Y-77419210D01*
X107192838Y-77682692D01*
X107137200Y-77962404D01*
X107137200Y-78247596D01*
X107192838Y-78527308D01*
X107266482Y-78705097D01*
X97913835Y-88057745D01*
X97894452Y-88073652D01*
X97830971Y-88151005D01*
X97783799Y-88239258D01*
X97754751Y-88335016D01*
X97747400Y-88409653D01*
X97744943Y-88434600D01*
X97747400Y-88459544D01*
X97747401Y-107778178D01*
X95218826Y-110306754D01*
X95192821Y-110243973D01*
X95110820Y-110121249D01*
X95006451Y-110016880D01*
X94883727Y-109934879D01*
X94747363Y-109878395D01*
X94602600Y-109849600D01*
X94553562Y-109849600D01*
X94465443Y-109802499D01*
X94369685Y-109773451D01*
X94295047Y-109766100D01*
X94270100Y-109763643D01*
X94248174Y-109765802D01*
X94248174Y-109677200D01*
X94242289Y-109617449D01*
X94224860Y-109559994D01*
X94196558Y-109507043D01*
X94158468Y-109460632D01*
X94112057Y-109422542D01*
X94059106Y-109394240D01*
X94001651Y-109376811D01*
X93941900Y-109370926D01*
X92950900Y-109370926D01*
X92950900Y-109069074D01*
X93941900Y-109069074D01*
X94001651Y-109063189D01*
X94059106Y-109045760D01*
X94112057Y-109017458D01*
X94158468Y-108979368D01*
X94196558Y-108932957D01*
X94224860Y-108880006D01*
X94242289Y-108822551D01*
X94248174Y-108762800D01*
X94248174Y-107593065D01*
X94256955Y-107582365D01*
X96655365Y-105183955D01*
X96674748Y-105168048D01*
X96738229Y-105090695D01*
X96785401Y-105002443D01*
X96814449Y-104906685D01*
X96821800Y-104832047D01*
X96821800Y-104832044D01*
X96824257Y-104807100D01*
X96821800Y-104782156D01*
X96821800Y-82966620D01*
X104140017Y-75648403D01*
X106825897Y-75648403D01*
X106875969Y-75989985D01*
X106991718Y-76315234D01*
X107076023Y-76472959D01*
X107344844Y-76589630D01*
X108369474Y-75565000D01*
X108800526Y-75565000D01*
X109825156Y-76589630D01*
X110093977Y-76472959D01*
X110242117Y-76161126D01*
X110326574Y-75826383D01*
X110344103Y-75481597D01*
X110294031Y-75140015D01*
X110178282Y-74814766D01*
X110093977Y-74657041D01*
X109825156Y-74540370D01*
X108800526Y-75565000D01*
X108369474Y-75565000D01*
X107344844Y-74540370D01*
X107076023Y-74657041D01*
X106927883Y-74968874D01*
X106843426Y-75303617D01*
X106825897Y-75648403D01*
X104140017Y-75648403D01*
X105463576Y-74324844D01*
X107560370Y-74324844D01*
X108585000Y-75349474D01*
X109609630Y-74324844D01*
X109492959Y-74056023D01*
X109181126Y-73907883D01*
X108846383Y-73823426D01*
X108501597Y-73805897D01*
X108160015Y-73855969D01*
X107834766Y-73971718D01*
X107677041Y-74056023D01*
X107560370Y-74324844D01*
X105463576Y-74324844D01*
X107984903Y-71803518D01*
X108162692Y-71877162D01*
X108442404Y-71932800D01*
X108727596Y-71932800D01*
X109007308Y-71877162D01*
X109270790Y-71768023D01*
X109507919Y-71609579D01*
X109709579Y-71407919D01*
X109868023Y-71170790D01*
X109977162Y-70907308D01*
X110032800Y-70627596D01*
X110032800Y-70342404D01*
X109977162Y-70062692D01*
X109868023Y-69799210D01*
X109709579Y-69562081D01*
X109525802Y-69378304D01*
X109609630Y-69185156D01*
X108585000Y-68160526D01*
X107560370Y-69185156D01*
X107644198Y-69378304D01*
X107460421Y-69562081D01*
X107301977Y-69799210D01*
X107192838Y-70062692D01*
X107137200Y-70342404D01*
X107137200Y-70627596D01*
X107192838Y-70907308D01*
X107266482Y-71085097D01*
X96059500Y-82292080D01*
X96059500Y-76108920D01*
X104140017Y-68028403D01*
X106825897Y-68028403D01*
X106875969Y-68369985D01*
X106991718Y-68695234D01*
X107076023Y-68852959D01*
X107344844Y-68969630D01*
X108369474Y-67945000D01*
X108800526Y-67945000D01*
X109825156Y-68969630D01*
X110093977Y-68852959D01*
X110242117Y-68541126D01*
X110326574Y-68206383D01*
X110344103Y-67861597D01*
X110294031Y-67520015D01*
X110178282Y-67194766D01*
X110093977Y-67037041D01*
X109825156Y-66920370D01*
X108800526Y-67945000D01*
X108369474Y-67945000D01*
X107344844Y-66920370D01*
X107076023Y-67037041D01*
X106927883Y-67348874D01*
X106843426Y-67683617D01*
X106825897Y-68028403D01*
X104140017Y-68028403D01*
X105463576Y-66704844D01*
X107560370Y-66704844D01*
X108585000Y-67729474D01*
X109609630Y-66704844D01*
X109492959Y-66436023D01*
X109181126Y-66287883D01*
X108846383Y-66203426D01*
X108501597Y-66185897D01*
X108160015Y-66235969D01*
X107834766Y-66351718D01*
X107677041Y-66436023D01*
X107560370Y-66704844D01*
X105463576Y-66704844D01*
X107984903Y-64183518D01*
X108162692Y-64257162D01*
X108442404Y-64312800D01*
X108727596Y-64312800D01*
X109007308Y-64257162D01*
X109270790Y-64148023D01*
X109507919Y-63989579D01*
X109709579Y-63787919D01*
X109868023Y-63550790D01*
X109977162Y-63287308D01*
X110032800Y-63007596D01*
X110032800Y-62722404D01*
X109977162Y-62442692D01*
X109868023Y-62179210D01*
X109709579Y-61942081D01*
X109525802Y-61758304D01*
X109609630Y-61565156D01*
X108585000Y-60540526D01*
X107560370Y-61565156D01*
X107644198Y-61758304D01*
X107460421Y-61942081D01*
X107301977Y-62179210D01*
X107192838Y-62442692D01*
X107137200Y-62722404D01*
X107137200Y-63007596D01*
X107192838Y-63287308D01*
X107266482Y-63465097D01*
X95209935Y-75521645D01*
X95190552Y-75537552D01*
X95127071Y-75614905D01*
X95079899Y-75703158D01*
X95050851Y-75798916D01*
X95043500Y-75873553D01*
X95041043Y-75898500D01*
X95043500Y-75923444D01*
X95043501Y-99743878D01*
X93003430Y-101783950D01*
X92984053Y-101799852D01*
X92968151Y-101819229D01*
X92968150Y-101819230D01*
X92950900Y-101840249D01*
X92950900Y-94120143D01*
X92953357Y-94095199D01*
X92950900Y-94070253D01*
X92943549Y-93995615D01*
X92914501Y-93899857D01*
X92885472Y-93845548D01*
X92867329Y-93811604D01*
X92819750Y-93753629D01*
X92803848Y-93734252D01*
X92784471Y-93718350D01*
X91036500Y-91970380D01*
X91036500Y-86334372D01*
X91092183Y-86417708D01*
X91382292Y-86707817D01*
X91723424Y-86935754D01*
X92102470Y-87092759D01*
X92504862Y-87172800D01*
X92915138Y-87172800D01*
X93317530Y-87092759D01*
X93696576Y-86935754D01*
X94037708Y-86707817D01*
X94327817Y-86417708D01*
X94555754Y-86076576D01*
X94712759Y-85697530D01*
X94792800Y-85295138D01*
X94792800Y-84884862D01*
X94712759Y-84482470D01*
X94555754Y-84103424D01*
X94327817Y-83762292D01*
X94037708Y-83472183D01*
X93696576Y-83244246D01*
X93317530Y-83087241D01*
X92915138Y-83007200D01*
X92504862Y-83007200D01*
X92102470Y-83087241D01*
X91723424Y-83244246D01*
X91382292Y-83472183D01*
X91092183Y-83762292D01*
X91036500Y-83845628D01*
X91036500Y-69593344D01*
X91038957Y-69568400D01*
X91036500Y-69543453D01*
X91029149Y-69468815D01*
X91000101Y-69373057D01*
X90952929Y-69284805D01*
X90889448Y-69207452D01*
X90870065Y-69191545D01*
X89997000Y-68318480D01*
X89997000Y-68213800D01*
X89968205Y-68069037D01*
X89911721Y-67932673D01*
X89829720Y-67809949D01*
X89725351Y-67705580D01*
X89602627Y-67623579D01*
X89466263Y-67567095D01*
X89321500Y-67538300D01*
X89173900Y-67538300D01*
X89029137Y-67567095D01*
X88892773Y-67623579D01*
X88770049Y-67705580D01*
X88665680Y-67809949D01*
X88583679Y-67932673D01*
X88527195Y-68069037D01*
X88498400Y-68213800D01*
X88498400Y-68361400D01*
X88527195Y-68506163D01*
X88583679Y-68642527D01*
X88665680Y-68765251D01*
X88770049Y-68869620D01*
X88892773Y-68951621D01*
X89029137Y-69008105D01*
X89173900Y-69036900D01*
X89278580Y-69036900D01*
X90020501Y-69778821D01*
X90020501Y-77617397D01*
X89952527Y-77571979D01*
X89816163Y-77515495D01*
X89671400Y-77486700D01*
X89523800Y-77486700D01*
X89379037Y-77515495D01*
X89242673Y-77571979D01*
X89119949Y-77653980D01*
X89015580Y-77758349D01*
X88933579Y-77881073D01*
X88877095Y-78017437D01*
X88848300Y-78162200D01*
X88848300Y-78309800D01*
X88877095Y-78454563D01*
X88933579Y-78590927D01*
X89015580Y-78713651D01*
X89089600Y-78787671D01*
X89089601Y-92197746D01*
X89087143Y-92222700D01*
X89092825Y-92280384D01*
X89096952Y-92322285D01*
X89113290Y-92376143D01*
X89126000Y-92418043D01*
X89173171Y-92506295D01*
X89202267Y-92541748D01*
X89236653Y-92583648D01*
X89256030Y-92599550D01*
X90020400Y-93363921D01*
X90020401Y-105042946D01*
X89998620Y-105010349D01*
X89894251Y-104905980D01*
X89771527Y-104823979D01*
X89635163Y-104767495D01*
X89490400Y-104738700D01*
X89415753Y-104738700D01*
X89385443Y-104722499D01*
X89289685Y-104693451D01*
X89215047Y-104686100D01*
X89190100Y-104683643D01*
X89168174Y-104685802D01*
X89168174Y-104597200D01*
X89162289Y-104537449D01*
X89144860Y-104479994D01*
X89116558Y-104427043D01*
X89078468Y-104380632D01*
X89032057Y-104342542D01*
X88979106Y-104314240D01*
X88921651Y-104296811D01*
X88861900Y-104290926D01*
X87870900Y-104290926D01*
X87870900Y-103989074D01*
X88861900Y-103989074D01*
X88921651Y-103983189D01*
X88979106Y-103965760D01*
X89032057Y-103937458D01*
X89078468Y-103899368D01*
X89116558Y-103852957D01*
X89144860Y-103800006D01*
X89162289Y-103742551D01*
X89168174Y-103682800D01*
X89168174Y-102489000D01*
X89162289Y-102429249D01*
X89144860Y-102371794D01*
X89116558Y-102318843D01*
X89078468Y-102272432D01*
X89032057Y-102234342D01*
X88979106Y-102206040D01*
X88921651Y-102188611D01*
X88861900Y-102182726D01*
X88773000Y-102182726D01*
X88773000Y-70509943D01*
X88775457Y-70484999D01*
X88773000Y-70460053D01*
X88765649Y-70385415D01*
X88736601Y-70289657D01*
X88727354Y-70272357D01*
X88689429Y-70201404D01*
X88641850Y-70143429D01*
X88625948Y-70124052D01*
X88606571Y-70108150D01*
X81963518Y-63465098D01*
X82037162Y-63287308D01*
X82092800Y-63007596D01*
X82092800Y-62722404D01*
X82037162Y-62442692D01*
X81928023Y-62179210D01*
X81769579Y-61942081D01*
X81585802Y-61758304D01*
X81669630Y-61565156D01*
X80645000Y-60540526D01*
X79620370Y-61565156D01*
X79704198Y-61758304D01*
X79520421Y-61942081D01*
X79361977Y-62179210D01*
X79252838Y-62442692D01*
X79197200Y-62722404D01*
X79197200Y-63007596D01*
X79252838Y-63287308D01*
X79361977Y-63550790D01*
X79520421Y-63787919D01*
X79722081Y-63989579D01*
X79959210Y-64148023D01*
X80222692Y-64257162D01*
X80502404Y-64312800D01*
X80787596Y-64312800D01*
X81067308Y-64257162D01*
X81245098Y-64183518D01*
X87757000Y-70695421D01*
X87757000Y-76882348D01*
X87739750Y-76861329D01*
X87723848Y-76841952D01*
X87704471Y-76826050D01*
X81963518Y-71085098D01*
X82037162Y-70907308D01*
X82092800Y-70627596D01*
X82092800Y-70342404D01*
X82037162Y-70062692D01*
X81928023Y-69799210D01*
X81769579Y-69562081D01*
X81585802Y-69378304D01*
X81669630Y-69185156D01*
X80645000Y-68160526D01*
X79620370Y-69185156D01*
X79704198Y-69378304D01*
X79520421Y-69562081D01*
X79361977Y-69799210D01*
X79252838Y-70062692D01*
X79197200Y-70342404D01*
X79197200Y-70627596D01*
X79252838Y-70907308D01*
X79361977Y-71170790D01*
X79520421Y-71407919D01*
X79722081Y-71609579D01*
X79959210Y-71768023D01*
X80222692Y-71877162D01*
X80502404Y-71932800D01*
X80787596Y-71932800D01*
X81067308Y-71877162D01*
X81245098Y-71803518D01*
X86854900Y-77413321D01*
X86854900Y-83596479D01*
X81963518Y-78705098D01*
X82037162Y-78527308D01*
X82092800Y-78247596D01*
X82092800Y-77962404D01*
X82037162Y-77682692D01*
X81928023Y-77419210D01*
X81769579Y-77182081D01*
X81585802Y-76998304D01*
X81669630Y-76805156D01*
X80645000Y-75780526D01*
X79620370Y-76805156D01*
X79704198Y-76998304D01*
X79520421Y-77182081D01*
X79361977Y-77419210D01*
X79252838Y-77682692D01*
X79197200Y-77962404D01*
X79197200Y-78247596D01*
X79252838Y-78527308D01*
X79361977Y-78790790D01*
X79520421Y-79027919D01*
X79722081Y-79229579D01*
X79959210Y-79388023D01*
X80222692Y-79497162D01*
X80502404Y-79552800D01*
X80787596Y-79552800D01*
X81067308Y-79497162D01*
X81245098Y-79423518D01*
X86200500Y-84378921D01*
X86200500Y-92332080D01*
X69516823Y-75648403D01*
X78885897Y-75648403D01*
X78935969Y-75989985D01*
X79051718Y-76315234D01*
X79136023Y-76472959D01*
X79404844Y-76589630D01*
X80429474Y-75565000D01*
X80860526Y-75565000D01*
X81885156Y-76589630D01*
X82153977Y-76472959D01*
X82302117Y-76161126D01*
X82386574Y-75826383D01*
X82404103Y-75481597D01*
X82354031Y-75140015D01*
X82238282Y-74814766D01*
X82153977Y-74657041D01*
X81885156Y-74540370D01*
X80860526Y-75565000D01*
X80429474Y-75565000D01*
X79404844Y-74540370D01*
X79136023Y-74657041D01*
X78987883Y-74968874D01*
X78903426Y-75303617D01*
X78885897Y-75648403D01*
X69516823Y-75648403D01*
X68193264Y-74324844D01*
X79620370Y-74324844D01*
X80645000Y-75349474D01*
X81669630Y-74324844D01*
X81552959Y-74056023D01*
X81241126Y-73907883D01*
X80906383Y-73823426D01*
X80561597Y-73805897D01*
X80220015Y-73855969D01*
X79894766Y-73971718D01*
X79737041Y-74056023D01*
X79620370Y-74324844D01*
X68193264Y-74324844D01*
X64367000Y-70498580D01*
X64367000Y-70393900D01*
X64338205Y-70249137D01*
X64281721Y-70112773D01*
X64199720Y-69990049D01*
X64095351Y-69885680D01*
X63972627Y-69803679D01*
X63836263Y-69747195D01*
X63691500Y-69718400D01*
X63543900Y-69718400D01*
X63399137Y-69747195D01*
X63262773Y-69803679D01*
X63140049Y-69885680D01*
X63035680Y-69990049D01*
X62953679Y-70112773D01*
X62897195Y-70249137D01*
X62868400Y-70393900D01*
X62868400Y-70541500D01*
X62897195Y-70686263D01*
X62953679Y-70822627D01*
X63035680Y-70945351D01*
X63140049Y-71049720D01*
X63262773Y-71131721D01*
X63399137Y-71188205D01*
X63543900Y-71217000D01*
X63648580Y-71217000D01*
X85630500Y-93198920D01*
X85630501Y-105295880D01*
X84285155Y-103950535D01*
X84269248Y-103931152D01*
X84191895Y-103867671D01*
X84103643Y-103820499D01*
X84060846Y-103807517D01*
X84064860Y-103800006D01*
X84082289Y-103742551D01*
X84088174Y-103682800D01*
X84088174Y-102489000D01*
X84082289Y-102429249D01*
X84064860Y-102371794D01*
X84036558Y-102318843D01*
X83998468Y-102272432D01*
X83952057Y-102234342D01*
X83899106Y-102206040D01*
X83841651Y-102188611D01*
X83781900Y-102182726D01*
X83693298Y-102182726D01*
X83695457Y-102160800D01*
X83692900Y-102134838D01*
X83692900Y-93369844D01*
X83695357Y-93344900D01*
X83692900Y-93319953D01*
X83685549Y-93245315D01*
X83656501Y-93149557D01*
X83623643Y-93088084D01*
X83609329Y-93061304D01*
X83561750Y-93003329D01*
X83545848Y-92983952D01*
X83526471Y-92968050D01*
X58586824Y-68028403D01*
X78885897Y-68028403D01*
X78935969Y-68369985D01*
X79051718Y-68695234D01*
X79136023Y-68852959D01*
X79404844Y-68969630D01*
X80429474Y-67945000D01*
X80860526Y-67945000D01*
X81885156Y-68969630D01*
X82153977Y-68852959D01*
X82302117Y-68541126D01*
X82386574Y-68206383D01*
X82404103Y-67861597D01*
X82354031Y-67520015D01*
X82238282Y-67194766D01*
X82153977Y-67037041D01*
X81885156Y-66920370D01*
X80860526Y-67945000D01*
X80429474Y-67945000D01*
X79404844Y-66920370D01*
X79136023Y-67037041D01*
X78987883Y-67348874D01*
X78903426Y-67683617D01*
X78885897Y-68028403D01*
X58586824Y-68028403D01*
X57263265Y-66704844D01*
X79620370Y-66704844D01*
X80645000Y-67729474D01*
X81669630Y-66704844D01*
X81552959Y-66436023D01*
X81241126Y-66287883D01*
X80906383Y-66203426D01*
X80561597Y-66185897D01*
X80220015Y-66235969D01*
X79894766Y-66351718D01*
X79737041Y-66436023D01*
X79620370Y-66704844D01*
X57263265Y-66704844D01*
X54023518Y-63465098D01*
X54097162Y-63287308D01*
X54152800Y-63007596D01*
X54152800Y-62722404D01*
X54097162Y-62442692D01*
X53988023Y-62179210D01*
X53829579Y-61942081D01*
X53645802Y-61758304D01*
X53729630Y-61565156D01*
X52705000Y-60540526D01*
X51680370Y-61565156D01*
X51764198Y-61758304D01*
X51580421Y-61942081D01*
X51421977Y-62179210D01*
X51312838Y-62442692D01*
X51257200Y-62722404D01*
X51257200Y-63007596D01*
X51312838Y-63287308D01*
X51421977Y-63550790D01*
X51580421Y-63787919D01*
X51782081Y-63989579D01*
X52019210Y-64148023D01*
X52282692Y-64257162D01*
X52562404Y-64312800D01*
X52847596Y-64312800D01*
X53127308Y-64257162D01*
X53305098Y-64183518D01*
X82676900Y-93555321D01*
X82676900Y-96450227D01*
X82659750Y-96429329D01*
X82643848Y-96409952D01*
X82624471Y-96394050D01*
X64357200Y-78126780D01*
X64357200Y-78022100D01*
X64328405Y-77877337D01*
X64271921Y-77740973D01*
X64189920Y-77618249D01*
X64085551Y-77513880D01*
X63962827Y-77431879D01*
X63826463Y-77375395D01*
X63681700Y-77346600D01*
X63534100Y-77346600D01*
X63389337Y-77375395D01*
X63252973Y-77431879D01*
X63130249Y-77513880D01*
X63025880Y-77618249D01*
X62943879Y-77740973D01*
X62887395Y-77877337D01*
X62858600Y-78022100D01*
X62858600Y-78169700D01*
X62887395Y-78314463D01*
X62943879Y-78450827D01*
X63025880Y-78573551D01*
X63130249Y-78677920D01*
X63252973Y-78759921D01*
X63389337Y-78816405D01*
X63534100Y-78845200D01*
X63638780Y-78845200D01*
X81774901Y-96981322D01*
X81774901Y-98836480D01*
X54023518Y-71085098D01*
X54097162Y-70907308D01*
X54152800Y-70627596D01*
X54152800Y-70342404D01*
X54097162Y-70062692D01*
X53988023Y-69799210D01*
X53829579Y-69562081D01*
X53645802Y-69378304D01*
X53729630Y-69185156D01*
X52705000Y-68160526D01*
X51680370Y-69185156D01*
X51764198Y-69378304D01*
X51580421Y-69562081D01*
X51421977Y-69799210D01*
X51312838Y-70062692D01*
X51257200Y-70342404D01*
X51257200Y-70627596D01*
X51312838Y-70907308D01*
X51421977Y-71170790D01*
X51580421Y-71407919D01*
X51782081Y-71609579D01*
X52019210Y-71768023D01*
X52282692Y-71877162D01*
X52562404Y-71932800D01*
X52847596Y-71932800D01*
X53127308Y-71877162D01*
X53305098Y-71803518D01*
X81170100Y-99668521D01*
X81170101Y-105708946D01*
X81167643Y-105733900D01*
X81176574Y-105824574D01*
X81177452Y-105833485D01*
X81201400Y-105912429D01*
X81206500Y-105929243D01*
X81253671Y-106017495D01*
X81276244Y-106045000D01*
X81317153Y-106094848D01*
X81336530Y-106110750D01*
X82502294Y-107276515D01*
X82470894Y-107286040D01*
X82417943Y-107314342D01*
X82371532Y-107352432D01*
X82333442Y-107398843D01*
X82305140Y-107451794D01*
X82287711Y-107509249D01*
X82281826Y-107569000D01*
X82281826Y-108762800D01*
X82287711Y-108822551D01*
X82305140Y-108880006D01*
X82333442Y-108932957D01*
X82371532Y-108979368D01*
X82417943Y-109017458D01*
X82470894Y-109045760D01*
X82528349Y-109063189D01*
X82588100Y-109069074D01*
X83781900Y-109069074D01*
X83841651Y-109063189D01*
X83899106Y-109045760D01*
X83952057Y-109017458D01*
X83998468Y-108979368D01*
X84036558Y-108932957D01*
X84064860Y-108880006D01*
X84082289Y-108822551D01*
X84088174Y-108762800D01*
X84088174Y-107569000D01*
X84082289Y-107509249D01*
X84064860Y-107451794D01*
X84036558Y-107398843D01*
X83998468Y-107352432D01*
X83952057Y-107314342D01*
X83899106Y-107286040D01*
X83841651Y-107268611D01*
X83781900Y-107262726D01*
X83693297Y-107262726D01*
X83695457Y-107240799D01*
X83693000Y-107215853D01*
X83685649Y-107141215D01*
X83656601Y-107045457D01*
X83629761Y-106995243D01*
X83609429Y-106957204D01*
X83561850Y-106899229D01*
X83545948Y-106879852D01*
X83526571Y-106863950D01*
X82759894Y-106097274D01*
X83369753Y-106097274D01*
X83525273Y-106252794D01*
X83542095Y-106337363D01*
X83598579Y-106473727D01*
X83680580Y-106596451D01*
X83784949Y-106700820D01*
X83907673Y-106782821D01*
X84044037Y-106839305D01*
X84188800Y-106868100D01*
X84336400Y-106868100D01*
X84481163Y-106839305D01*
X84617527Y-106782821D01*
X84740251Y-106700820D01*
X84844620Y-106596451D01*
X84926621Y-106473727D01*
X84983105Y-106337363D01*
X85004201Y-106231306D01*
X85004200Y-110113989D01*
X84995020Y-110100249D01*
X84890651Y-109995880D01*
X84767927Y-109913879D01*
X84631563Y-109857395D01*
X84486800Y-109828600D01*
X84354274Y-109828600D01*
X84305443Y-109802499D01*
X84209685Y-109773451D01*
X84135047Y-109766100D01*
X84110100Y-109763643D01*
X84088174Y-109765802D01*
X84088174Y-109677200D01*
X84082289Y-109617449D01*
X84064860Y-109559994D01*
X84036558Y-109507043D01*
X83998468Y-109460632D01*
X83952057Y-109422542D01*
X83899106Y-109394240D01*
X83841651Y-109376811D01*
X83781900Y-109370926D01*
X82588100Y-109370926D01*
X82528349Y-109376811D01*
X82470894Y-109394240D01*
X82417943Y-109422542D01*
X82371532Y-109460632D01*
X82333442Y-109507043D01*
X82305140Y-109559994D01*
X82287711Y-109617449D01*
X82281826Y-109677200D01*
X82281826Y-110699205D01*
X80267400Y-108684780D01*
X80267400Y-100562844D01*
X80269857Y-100537900D01*
X80262653Y-100464757D01*
X80260049Y-100438315D01*
X80231001Y-100342557D01*
X80183829Y-100254305D01*
X80120348Y-100176952D01*
X80100965Y-100161045D01*
X53669455Y-73729535D01*
X53653548Y-73710152D01*
X53576195Y-73646671D01*
X53487943Y-73599499D01*
X53392185Y-73570451D01*
X53317547Y-73563100D01*
X53317544Y-73563100D01*
X53292600Y-73560643D01*
X53267656Y-73563100D01*
X52129644Y-73563100D01*
X52104700Y-73560643D01*
X52079756Y-73563100D01*
X52079753Y-73563100D01*
X52005115Y-73570451D01*
X51909357Y-73599499D01*
X51821105Y-73646671D01*
X51743752Y-73710152D01*
X51727845Y-73729535D01*
X51244500Y-74212880D01*
X51244500Y-68873999D01*
X51464844Y-68969630D01*
X52489474Y-67945000D01*
X52920526Y-67945000D01*
X53945156Y-68969630D01*
X54213977Y-68852959D01*
X54362117Y-68541126D01*
X54446574Y-68206383D01*
X54464103Y-67861597D01*
X54414031Y-67520015D01*
X54298282Y-67194766D01*
X54213977Y-67037041D01*
X53945156Y-66920370D01*
X52920526Y-67945000D01*
X52489474Y-67945000D01*
X51464844Y-66920370D01*
X51244500Y-67016001D01*
X51244500Y-66704844D01*
X51680370Y-66704844D01*
X52705000Y-67729474D01*
X53729630Y-66704844D01*
X53612959Y-66436023D01*
X53301126Y-66287883D01*
X52966383Y-66203426D01*
X52621597Y-66185897D01*
X52280015Y-66235969D01*
X51954766Y-66351718D01*
X51797041Y-66436023D01*
X51680370Y-66704844D01*
X51244500Y-66704844D01*
X51244500Y-61253999D01*
X51464844Y-61349630D01*
X52489474Y-60325000D01*
X52920526Y-60325000D01*
X53945156Y-61349630D01*
X54213977Y-61232959D01*
X54362117Y-60921126D01*
X54446574Y-60586383D01*
X54455622Y-60408403D01*
X78885897Y-60408403D01*
X78935969Y-60749985D01*
X79051718Y-61075234D01*
X79136023Y-61232959D01*
X79404844Y-61349630D01*
X80429474Y-60325000D01*
X80860526Y-60325000D01*
X81885156Y-61349630D01*
X82153977Y-61232959D01*
X82302117Y-60921126D01*
X82386574Y-60586383D01*
X82395622Y-60408403D01*
X106825897Y-60408403D01*
X106875969Y-60749985D01*
X106991718Y-61075234D01*
X107076023Y-61232959D01*
X107344844Y-61349630D01*
X108369474Y-60325000D01*
X108800526Y-60325000D01*
X109825156Y-61349630D01*
X110093977Y-61232959D01*
X110242117Y-60921126D01*
X110326574Y-60586383D01*
X110344103Y-60241597D01*
X110294031Y-59900015D01*
X110178282Y-59574766D01*
X110093977Y-59417041D01*
X109825156Y-59300370D01*
X108800526Y-60325000D01*
X108369474Y-60325000D01*
X107344844Y-59300370D01*
X107076023Y-59417041D01*
X106927883Y-59728874D01*
X106843426Y-60063617D01*
X106825897Y-60408403D01*
X82395622Y-60408403D01*
X82404103Y-60241597D01*
X82354031Y-59900015D01*
X82238282Y-59574766D01*
X82153977Y-59417041D01*
X81885156Y-59300370D01*
X80860526Y-60325000D01*
X80429474Y-60325000D01*
X79404844Y-59300370D01*
X79136023Y-59417041D01*
X78987883Y-59728874D01*
X78903426Y-60063617D01*
X78885897Y-60408403D01*
X54455622Y-60408403D01*
X54464103Y-60241597D01*
X54414031Y-59900015D01*
X54298282Y-59574766D01*
X54213977Y-59417041D01*
X53945156Y-59300370D01*
X52920526Y-60325000D01*
X52489474Y-60325000D01*
X51464844Y-59300370D01*
X51244500Y-59396001D01*
X51244500Y-59084844D01*
X51680370Y-59084844D01*
X52705000Y-60109474D01*
X53729630Y-59084844D01*
X79620370Y-59084844D01*
X80645000Y-60109474D01*
X81669630Y-59084844D01*
X107560370Y-59084844D01*
X108585000Y-60109474D01*
X109609630Y-59084844D01*
X109492959Y-58816023D01*
X109181126Y-58667883D01*
X108846383Y-58583426D01*
X108501597Y-58565897D01*
X108160015Y-58615969D01*
X107834766Y-58731718D01*
X107677041Y-58816023D01*
X107560370Y-59084844D01*
X81669630Y-59084844D01*
X81552959Y-58816023D01*
X81241126Y-58667883D01*
X80906383Y-58583426D01*
X80561597Y-58565897D01*
X80220015Y-58615969D01*
X79894766Y-58731718D01*
X79737041Y-58816023D01*
X79620370Y-59084844D01*
X53729630Y-59084844D01*
X53612959Y-58816023D01*
X53301126Y-58667883D01*
X52966383Y-58583426D01*
X52621597Y-58565897D01*
X52280015Y-58615969D01*
X51954766Y-58731718D01*
X51797041Y-58816023D01*
X51680370Y-59084844D01*
X51244500Y-59084844D01*
X51244500Y-57167467D01*
X51311995Y-56309862D01*
X62687200Y-56309862D01*
X62687200Y-56720138D01*
X62767241Y-57122530D01*
X62924246Y-57501576D01*
X63152183Y-57842708D01*
X63442292Y-58132817D01*
X63783424Y-58360754D01*
X64162470Y-58517759D01*
X64564862Y-58597800D01*
X64975138Y-58597800D01*
X65377530Y-58517759D01*
X65756576Y-58360754D01*
X66097708Y-58132817D01*
X66387817Y-57842708D01*
X66615754Y-57501576D01*
X66772759Y-57122530D01*
X66852800Y-56720138D01*
X66852800Y-56309862D01*
X118567200Y-56309862D01*
X118567200Y-56720138D01*
X118647241Y-57122530D01*
X118804246Y-57501576D01*
X119032183Y-57842708D01*
X119322292Y-58132817D01*
X119663424Y-58360754D01*
X120042470Y-58517759D01*
X120444862Y-58597800D01*
X120855138Y-58597800D01*
X121257530Y-58517759D01*
X121636576Y-58360754D01*
X121977708Y-58132817D01*
X122267817Y-57842708D01*
X122495754Y-57501576D01*
X122652759Y-57122530D01*
X122732800Y-56720138D01*
X122732800Y-56309862D01*
X122652759Y-55907470D01*
X122495754Y-55528424D01*
X122267817Y-55187292D01*
X121977708Y-54897183D01*
X121636576Y-54669246D01*
X121257530Y-54512241D01*
X120855138Y-54432200D01*
X120444862Y-54432200D01*
X120042470Y-54512241D01*
X119663424Y-54669246D01*
X119322292Y-54897183D01*
X119032183Y-55187292D01*
X118804246Y-55528424D01*
X118647241Y-55907470D01*
X118567200Y-56309862D01*
X66852800Y-56309862D01*
X66772759Y-55907470D01*
X66615754Y-55528424D01*
X66387817Y-55187292D01*
X66097708Y-54897183D01*
X65756576Y-54669246D01*
X65377530Y-54512241D01*
X64975138Y-54432200D01*
X64564862Y-54432200D01*
X64162470Y-54512241D01*
X63783424Y-54669246D01*
X63442292Y-54897183D01*
X63152183Y-55187292D01*
X62924246Y-55528424D01*
X62767241Y-55907470D01*
X62687200Y-56309862D01*
X51311995Y-56309862D01*
X51318565Y-56226386D01*
X51534843Y-55325525D01*
X51889384Y-54469588D01*
X52228777Y-53915748D01*
X53373400Y-53915748D01*
X53373400Y-54034252D01*
X53396519Y-54150480D01*
X53441869Y-54259965D01*
X53507707Y-54358498D01*
X53591502Y-54442293D01*
X53690035Y-54508131D01*
X53799520Y-54553481D01*
X53915748Y-54576600D01*
X54034252Y-54576600D01*
X54150480Y-54553481D01*
X54259965Y-54508131D01*
X54358498Y-54442293D01*
X54442293Y-54358498D01*
X54508131Y-54259965D01*
X54553481Y-54150480D01*
X54576600Y-54034252D01*
X54576600Y-53915748D01*
X121953400Y-53915748D01*
X121953400Y-54034252D01*
X121976519Y-54150480D01*
X122021869Y-54259965D01*
X122087707Y-54358498D01*
X122171502Y-54442293D01*
X122270035Y-54508131D01*
X122379520Y-54553481D01*
X122495748Y-54576600D01*
X122614252Y-54576600D01*
X122730480Y-54553481D01*
X122839965Y-54508131D01*
X122938498Y-54442293D01*
X123022293Y-54358498D01*
X123088131Y-54259965D01*
X123133481Y-54150480D01*
X123156600Y-54034252D01*
X123156600Y-53915748D01*
X123133481Y-53799520D01*
X123088131Y-53690035D01*
X123022293Y-53591502D01*
X122938498Y-53507707D01*
X122839965Y-53441869D01*
X122730480Y-53396519D01*
X122614252Y-53373400D01*
X122495748Y-53373400D01*
X122379520Y-53396519D01*
X122270035Y-53441869D01*
X122171502Y-53507707D01*
X122087707Y-53591502D01*
X122021869Y-53690035D01*
X121976519Y-53799520D01*
X121953400Y-53915748D01*
X54576600Y-53915748D01*
X54553481Y-53799520D01*
X54508131Y-53690035D01*
X54442293Y-53591502D01*
X54358498Y-53507707D01*
X54259965Y-53441869D01*
X54150480Y-53396519D01*
X54034252Y-53373400D01*
X53915748Y-53373400D01*
X53799520Y-53396519D01*
X53690035Y-53441869D01*
X53591502Y-53507707D01*
X53507707Y-53591502D01*
X53441869Y-53690035D01*
X53396519Y-53799520D01*
X53373400Y-53915748D01*
X52228777Y-53915748D01*
X52373463Y-53679642D01*
X52975156Y-52975150D01*
X53679639Y-52373465D01*
X54469583Y-51889385D01*
X55325526Y-51534842D01*
X56226392Y-51318564D01*
X57167467Y-51244500D01*
X119362533Y-51244500D01*
X120303614Y-51318565D01*
%TD*%
M02*
