M48
; DRILL file {KiCad 5.1.7-a382d34a8~87~ubuntu20.04.1} date Wed Oct 21 15:21:12 2020
; FORMAT={2:4/ absolute / inch / keep zeros}
; #@! TF.CreationDate,2020-10-21T15:21:12-04:00
; #@! TF.GenerationSoftware,Kicad,Pcbnew,5.1.7-a382d34a8~87~ubuntu20.04.1
FMAT,2
INCH
T1C0.0250
T2C0.0600
T3C0.0610
T4C0.0787
T5C0.1300
%
G90
G05
T1
X024856Y-041216
X026643Y-026863
X026770Y-029855
X030458Y-047157
X031556Y-045475
X031750Y-049281
X031795Y-025576
X031957Y-048085
X033218Y-040536
X033222Y-042541
X033603Y-044197
X035219Y-044531
X035232Y-042533
X035245Y-040532
X035318Y-030536
X037214Y-040546
X037230Y-042535
X037250Y-044551
X043648Y-023098
X046210Y-031431
T2
X042750Y-026750
X042750Y-027750
X020750Y-029750
X020750Y-030750
X031750Y-029750
X031750Y-030750
X042750Y-023750
X042750Y-024750
X020750Y-023750
X020750Y-024750
X042750Y-029750
X042750Y-030750
X031750Y-023750
X031750Y-024750
X020750Y-026750
X020750Y-027750
X031750Y-026750
X031750Y-027750
T3
X039750Y-037000
X039750Y-038000
X039750Y-039000
X039750Y-040000
X039750Y-041000
X039750Y-042000
X039750Y-043000
X039750Y-044000
X039750Y-045000
X039750Y-046000
X039750Y-047000
X039750Y-048000
X039750Y-049000
X039750Y-050000
X045750Y-037000
X045750Y-038000
X045750Y-039000
X045750Y-040000
X045750Y-041000
X045750Y-042000
X045750Y-043000
X045750Y-044000
X045750Y-045000
X045750Y-046000
X045750Y-047000
X045750Y-048000
X045750Y-049000
X045750Y-050000
T4
X026750Y-049069
T5
X025500Y-022250
X036500Y-033500
X047500Y-022250
T0
M30
