%FSLAX45Y45*%
G04 Gerber Fmt 4.5, Leading zero omitted, Abs format (unit mm)*
G04 Created by KiCad (PCBNEW 5.1.6-c6e7f7d~87~ubuntu20.04.1) date 2020-07-21 10:48:39*
%MOMM*%
%LPD*%
G01*
G04 APERTURE LIST*
%TA.AperFunction,Profile*%
%ADD10C,0.279400*%
%TD*%
%ADD11C,0.200000*%
%ADD12C,0.300000*%
G04 APERTURE END LIST*
D10*
X12573000Y-14224000D02*
G75*
G02*
X11938000Y-14859000I-635000J0D01*
G01*
X5715000Y-14859000D02*
G75*
G02*
X5080000Y-14224000I0J635000D01*
G01*
X11938000Y-5080000D02*
G75*
G02*
X12573000Y-5715000I0J-635000D01*
G01*
X5080000Y-5715000D02*
G75*
G02*
X5715000Y-5080000I635000J0D01*
G01*
X5715000Y-5080000D02*
X11938000Y-5080000D01*
X5080000Y-14224000D02*
X5080000Y-5715000D01*
X11938000Y-14859000D02*
X5715000Y-14859000D01*
X12573000Y-5715000D02*
X12573000Y-14224000D01*
D11*
X6349430Y-10721670D02*
X6412930Y-10785170D01*
X6412930Y-10721670D02*
X6349430Y-10785170D01*
X6460900Y-11121380D02*
X6524400Y-11184880D01*
X6524400Y-11121380D02*
X6460900Y-11184880D01*
X5956300Y-9842500D02*
G75*
G03*
X5956300Y-9842500I-50800J0D01*
G01*
X5956300Y-10096500D02*
G75*
G03*
X5956300Y-10096500I-50800J0D01*
G01*
X5956300Y-10350500D02*
G75*
G03*
X5956300Y-10350500I-50800J0D01*
G01*
X5956300Y-10604500D02*
G75*
G03*
X5956300Y-10604500I-50800J0D01*
G01*
X5956300Y-10858500D02*
G75*
G03*
X5956300Y-10858500I-50800J0D01*
G01*
X5956300Y-11112500D02*
G75*
G03*
X5956300Y-11112500I-50800J0D01*
G01*
X5956300Y-11366500D02*
G75*
G03*
X5956300Y-11366500I-50800J0D01*
G01*
X5956300Y-11620500D02*
G75*
G03*
X5956300Y-11620500I-50800J0D01*
G01*
X5956300Y-11874500D02*
G75*
G03*
X5956300Y-11874500I-50800J0D01*
G01*
X5956300Y-12128500D02*
G75*
G03*
X5956300Y-12128500I-50800J0D01*
G01*
X5956300Y-12382500D02*
G75*
G03*
X5956300Y-12382500I-50800J0D01*
G01*
X5956300Y-12636500D02*
G75*
G03*
X5956300Y-12636500I-50800J0D01*
G01*
X5956300Y-12890500D02*
G75*
G03*
X5956300Y-12890500I-50800J0D01*
G01*
X5956300Y-13144500D02*
G75*
G03*
X5956300Y-13144500I-50800J0D01*
G01*
X5956300Y-13398500D02*
G75*
G03*
X5956300Y-13398500I-50800J0D01*
G01*
X5956300Y-13652500D02*
G75*
G03*
X5956300Y-13652500I-50800J0D01*
G01*
X11798300Y-9842500D02*
G75*
G03*
X11798300Y-9842500I-50800J0D01*
G01*
X11798300Y-10096500D02*
G75*
G03*
X11798300Y-10096500I-50800J0D01*
G01*
X11798300Y-10350500D02*
G75*
G03*
X11798300Y-10350500I-50800J0D01*
G01*
X11798300Y-10604500D02*
G75*
G03*
X11798300Y-10604500I-50800J0D01*
G01*
X11798300Y-10858500D02*
G75*
G03*
X11798300Y-10858500I-50800J0D01*
G01*
X11798300Y-11112500D02*
G75*
G03*
X11798300Y-11112500I-50800J0D01*
G01*
X11798300Y-11366500D02*
G75*
G03*
X11798300Y-11366500I-50800J0D01*
G01*
X11798300Y-11620500D02*
G75*
G03*
X11798300Y-11620500I-50800J0D01*
G01*
X11798300Y-11874500D02*
G75*
G03*
X11798300Y-11874500I-50800J0D01*
G01*
X11798300Y-12128500D02*
G75*
G03*
X11798300Y-12128500I-50800J0D01*
G01*
X11798300Y-12382500D02*
G75*
G03*
X11798300Y-12382500I-50800J0D01*
G01*
X11798300Y-12636500D02*
G75*
G03*
X11798300Y-12636500I-50800J0D01*
G01*
X11798300Y-12890500D02*
G75*
G03*
X11798300Y-12890500I-50800J0D01*
G01*
X11798300Y-13144500D02*
G75*
G03*
X11798300Y-13144500I-50800J0D01*
G01*
X11798300Y-13398500D02*
G75*
G03*
X11798300Y-13398500I-50800J0D01*
G01*
X11798300Y-13652500D02*
G75*
G03*
X11798300Y-13652500I-50800J0D01*
G01*
X8064500Y-6718300D02*
X8064500Y-6870700D01*
X7988300Y-6794500D02*
X8140700Y-6794500D01*
X8064500Y-6972300D02*
X8064500Y-7124700D01*
X7988300Y-7048500D02*
X8140700Y-7048500D01*
X5270500Y-7480300D02*
X5270500Y-7632700D01*
X5194300Y-7556500D02*
X5346700Y-7556500D01*
X5270500Y-7734300D02*
X5270500Y-7886700D01*
X5194300Y-7810500D02*
X5346700Y-7810500D01*
X8064500Y-7480300D02*
X8064500Y-7632700D01*
X7988300Y-7556500D02*
X8140700Y-7556500D01*
X8064500Y-7734300D02*
X8064500Y-7886700D01*
X7988300Y-7810500D02*
X8140700Y-7810500D01*
X5270500Y-5956300D02*
X5270500Y-6108700D01*
X5194300Y-6032500D02*
X5346700Y-6032500D01*
X5270500Y-6210300D02*
X5270500Y-6362700D01*
X5194300Y-6286500D02*
X5346700Y-6286500D01*
X5270500Y-6718300D02*
X5270500Y-6870700D01*
X5194300Y-6794500D02*
X5346700Y-6794500D01*
X5270500Y-6972300D02*
X5270500Y-7124700D01*
X5194300Y-7048500D02*
X5346700Y-7048500D01*
X10858500Y-6718300D02*
X10858500Y-6870700D01*
X10782300Y-6794500D02*
X10934700Y-6794500D01*
X10858500Y-6972300D02*
X10858500Y-7124700D01*
X10782300Y-7048500D02*
X10934700Y-7048500D01*
X10858500Y-7480300D02*
X10858500Y-7632700D01*
X10782300Y-7556500D02*
X10934700Y-7556500D01*
X10858500Y-7734300D02*
X10858500Y-7886700D01*
X10782300Y-7810500D02*
X10934700Y-7810500D01*
X8064500Y-5956300D02*
X8064500Y-6108700D01*
X7988300Y-6032500D02*
X8140700Y-6032500D01*
X8064500Y-6210300D02*
X8064500Y-6362700D01*
X7988300Y-6286500D02*
X8140700Y-6286500D01*
X10858500Y-5956300D02*
X10858500Y-6108700D01*
X10782300Y-6032500D02*
X10934700Y-6032500D01*
X10858500Y-6210300D02*
X10858500Y-6362700D01*
X10782300Y-6286500D02*
X10934700Y-6286500D01*
X8476605Y-13150605D02*
X8476605Y-13030395D01*
X8356395Y-13030395D01*
X8356395Y-13150605D01*
X8476605Y-13150605D01*
X9296605Y-13150605D02*
X9296605Y-13030395D01*
X9176395Y-13030395D01*
X9176395Y-13150605D01*
X9296605Y-13150605D01*
X12065000Y-5816600D02*
X12230100Y-5651500D01*
X12065000Y-5486400D01*
X11899900Y-5651500D01*
X12065000Y-5816600D01*
X6477000Y-5816600D02*
X6642100Y-5651500D01*
X6477000Y-5486400D01*
X6311900Y-5651500D01*
X6477000Y-5816600D01*
X9271000Y-8674100D02*
X9436100Y-8509000D01*
X9271000Y-8343900D01*
X9105900Y-8509000D01*
X9271000Y-8674100D01*
X8616500Y-12680500D02*
X9036500Y-13100500D01*
X9036500Y-12680500D02*
X8616500Y-13100500D01*
X9036500Y-12890500D02*
G75*
G03*
X9036500Y-12890500I-210000J0D01*
G01*
X5694680Y-7472680D02*
X6116320Y-7894320D01*
X6116320Y-7472680D02*
X5694680Y-7894320D01*
X5905500Y-7472680D02*
X5905500Y-7894320D01*
X5694680Y-7683500D02*
X6116320Y-7683500D01*
X5694680Y-14076680D02*
X6116320Y-14498320D01*
X6116320Y-14076680D02*
X5694680Y-14498320D01*
X5905500Y-14076680D02*
X5905500Y-14498320D01*
X5694680Y-14287500D02*
X6116320Y-14287500D01*
X11536680Y-7472680D02*
X11958320Y-7894320D01*
X11958320Y-7472680D02*
X11536680Y-7894320D01*
X11747500Y-7472680D02*
X11747500Y-7894320D01*
X11536680Y-7683500D02*
X11958320Y-7683500D01*
X11536680Y-14076680D02*
X11958320Y-14498320D01*
X11958320Y-14076680D02*
X11536680Y-14498320D01*
X11747500Y-14076680D02*
X11747500Y-14498320D01*
X11536680Y-14287500D02*
X11958320Y-14287500D01*
D12*
X5352458Y-15338684D02*
X5352458Y-15038684D01*
X5423887Y-15038684D01*
X5466744Y-15052970D01*
X5495316Y-15081541D01*
X5509601Y-15110113D01*
X5523887Y-15167256D01*
X5523887Y-15210113D01*
X5509601Y-15267256D01*
X5495316Y-15295827D01*
X5466744Y-15324399D01*
X5423887Y-15338684D01*
X5352458Y-15338684D01*
X5652458Y-15338684D02*
X5652458Y-15138684D01*
X5652458Y-15195827D02*
X5666744Y-15167256D01*
X5681030Y-15152970D01*
X5709601Y-15138684D01*
X5738173Y-15138684D01*
X5838173Y-15338684D02*
X5838173Y-15138684D01*
X5838173Y-15038684D02*
X5823887Y-15052970D01*
X5838173Y-15067256D01*
X5852458Y-15052970D01*
X5838173Y-15038684D01*
X5838173Y-15067256D01*
X6023887Y-15338684D02*
X5995316Y-15324399D01*
X5981030Y-15295827D01*
X5981030Y-15038684D01*
X6181030Y-15338684D02*
X6152458Y-15324399D01*
X6138173Y-15295827D01*
X6138173Y-15038684D01*
X6523887Y-15338684D02*
X6523887Y-15038684D01*
X6623887Y-15252970D01*
X6723887Y-15038684D01*
X6723887Y-15338684D01*
X6995316Y-15338684D02*
X6995316Y-15181541D01*
X6981030Y-15152970D01*
X6952458Y-15138684D01*
X6895316Y-15138684D01*
X6866744Y-15152970D01*
X6995316Y-15324399D02*
X6966744Y-15338684D01*
X6895316Y-15338684D01*
X6866744Y-15324399D01*
X6852458Y-15295827D01*
X6852458Y-15267256D01*
X6866744Y-15238684D01*
X6895316Y-15224399D01*
X6966744Y-15224399D01*
X6995316Y-15210113D01*
X7138173Y-15138684D02*
X7138173Y-15438684D01*
X7138173Y-15152970D02*
X7166744Y-15138684D01*
X7223887Y-15138684D01*
X7252458Y-15152970D01*
X7266744Y-15167256D01*
X7281030Y-15195827D01*
X7281030Y-15281541D01*
X7266744Y-15310113D01*
X7252458Y-15324399D01*
X7223887Y-15338684D01*
X7166744Y-15338684D01*
X7138173Y-15324399D01*
X7409601Y-15310113D02*
X7423887Y-15324399D01*
X7409601Y-15338684D01*
X7395316Y-15324399D01*
X7409601Y-15310113D01*
X7409601Y-15338684D01*
X7409601Y-15152970D02*
X7423887Y-15167256D01*
X7409601Y-15181541D01*
X7395316Y-15167256D01*
X7409601Y-15152970D01*
X7409601Y-15181541D01*
X5002530Y-15801220D02*
X5066030Y-15864720D01*
X5066030Y-15801220D02*
X5002530Y-15864720D01*
X5409601Y-15668684D02*
X5438173Y-15668684D01*
X5466744Y-15682970D01*
X5481030Y-15697256D01*
X5495316Y-15725827D01*
X5509601Y-15782970D01*
X5509601Y-15854399D01*
X5495316Y-15911541D01*
X5481030Y-15940113D01*
X5466744Y-15954399D01*
X5438173Y-15968684D01*
X5409601Y-15968684D01*
X5381030Y-15954399D01*
X5366744Y-15940113D01*
X5352458Y-15911541D01*
X5338173Y-15854399D01*
X5338173Y-15782970D01*
X5352458Y-15725827D01*
X5366744Y-15697256D01*
X5381030Y-15682970D01*
X5409601Y-15668684D01*
X5638173Y-15940113D02*
X5652458Y-15954399D01*
X5638173Y-15968684D01*
X5623887Y-15954399D01*
X5638173Y-15940113D01*
X5638173Y-15968684D01*
X5909601Y-15668684D02*
X5852458Y-15668684D01*
X5823887Y-15682970D01*
X5809601Y-15697256D01*
X5781030Y-15740113D01*
X5766744Y-15797256D01*
X5766744Y-15911541D01*
X5781030Y-15940113D01*
X5795316Y-15954399D01*
X5823887Y-15968684D01*
X5881030Y-15968684D01*
X5909601Y-15954399D01*
X5923887Y-15940113D01*
X5938173Y-15911541D01*
X5938173Y-15840113D01*
X5923887Y-15811541D01*
X5909601Y-15797256D01*
X5881030Y-15782970D01*
X5823887Y-15782970D01*
X5795316Y-15797256D01*
X5781030Y-15811541D01*
X5766744Y-15840113D01*
X6195316Y-15768684D02*
X6195316Y-15968684D01*
X6123887Y-15654399D02*
X6052458Y-15868684D01*
X6238173Y-15868684D01*
X6352458Y-15968684D02*
X6352458Y-15768684D01*
X6352458Y-15797256D02*
X6366744Y-15782970D01*
X6395316Y-15768684D01*
X6438173Y-15768684D01*
X6466744Y-15782970D01*
X6481030Y-15811541D01*
X6481030Y-15968684D01*
X6481030Y-15811541D02*
X6495316Y-15782970D01*
X6523887Y-15768684D01*
X6566744Y-15768684D01*
X6595316Y-15782970D01*
X6609601Y-15811541D01*
X6609601Y-15968684D01*
X6752458Y-15968684D02*
X6752458Y-15768684D01*
X6752458Y-15797256D02*
X6766744Y-15782970D01*
X6795316Y-15768684D01*
X6838173Y-15768684D01*
X6866744Y-15782970D01*
X6881030Y-15811541D01*
X6881030Y-15968684D01*
X6881030Y-15811541D02*
X6895316Y-15782970D01*
X6923887Y-15768684D01*
X6966744Y-15768684D01*
X6995316Y-15782970D01*
X7009601Y-15811541D01*
X7009601Y-15968684D01*
X7595316Y-15654399D02*
X7338173Y-16040113D01*
X7981030Y-15668684D02*
X8009601Y-15668684D01*
X8038173Y-15682970D01*
X8052458Y-15697256D01*
X8066744Y-15725827D01*
X8081030Y-15782970D01*
X8081030Y-15854399D01*
X8066744Y-15911541D01*
X8052458Y-15940113D01*
X8038173Y-15954399D01*
X8009601Y-15968684D01*
X7981030Y-15968684D01*
X7952458Y-15954399D01*
X7938173Y-15940113D01*
X7923887Y-15911541D01*
X7909601Y-15854399D01*
X7909601Y-15782970D01*
X7923887Y-15725827D01*
X7938173Y-15697256D01*
X7952458Y-15682970D01*
X7981030Y-15668684D01*
X8209601Y-15940113D02*
X8223887Y-15954399D01*
X8209601Y-15968684D01*
X8195316Y-15954399D01*
X8209601Y-15940113D01*
X8209601Y-15968684D01*
X8409601Y-15668684D02*
X8438173Y-15668684D01*
X8466744Y-15682970D01*
X8481030Y-15697256D01*
X8495316Y-15725827D01*
X8509601Y-15782970D01*
X8509601Y-15854399D01*
X8495316Y-15911541D01*
X8481030Y-15940113D01*
X8466744Y-15954399D01*
X8438173Y-15968684D01*
X8409601Y-15968684D01*
X8381030Y-15954399D01*
X8366744Y-15940113D01*
X8352458Y-15911541D01*
X8338173Y-15854399D01*
X8338173Y-15782970D01*
X8352458Y-15725827D01*
X8366744Y-15697256D01*
X8381030Y-15682970D01*
X8409601Y-15668684D01*
X8623887Y-15697256D02*
X8638173Y-15682970D01*
X8666744Y-15668684D01*
X8738173Y-15668684D01*
X8766744Y-15682970D01*
X8781030Y-15697256D01*
X8795316Y-15725827D01*
X8795316Y-15754399D01*
X8781030Y-15797256D01*
X8609601Y-15968684D01*
X8795316Y-15968684D01*
X9066744Y-15668684D02*
X8923887Y-15668684D01*
X8909601Y-15811541D01*
X8923887Y-15797256D01*
X8952458Y-15782970D01*
X9023887Y-15782970D01*
X9052458Y-15797256D01*
X9066744Y-15811541D01*
X9081030Y-15840113D01*
X9081030Y-15911541D01*
X9066744Y-15940113D01*
X9052458Y-15954399D01*
X9023887Y-15968684D01*
X8952458Y-15968684D01*
X8923887Y-15954399D01*
X8909601Y-15940113D01*
X9195316Y-15668684D02*
X9195316Y-15725827D01*
X9309601Y-15668684D02*
X9309601Y-15725827D01*
X9752458Y-16082970D02*
X9738173Y-16068684D01*
X9709601Y-16025827D01*
X9695316Y-15997256D01*
X9681030Y-15954399D01*
X9666744Y-15882970D01*
X9666744Y-15825827D01*
X9681030Y-15754399D01*
X9695316Y-15711541D01*
X9709601Y-15682970D01*
X9738173Y-15640113D01*
X9752458Y-15625827D01*
X9852458Y-15697256D02*
X9866744Y-15682970D01*
X9895316Y-15668684D01*
X9966744Y-15668684D01*
X9995316Y-15682970D01*
X10009601Y-15697256D01*
X10023887Y-15725827D01*
X10023887Y-15754399D01*
X10009601Y-15797256D01*
X9838173Y-15968684D01*
X10023887Y-15968684D01*
X10381030Y-15968684D02*
X10381030Y-15668684D01*
X10509601Y-15968684D02*
X10509601Y-15811541D01*
X10495316Y-15782970D01*
X10466744Y-15768684D01*
X10423887Y-15768684D01*
X10395316Y-15782970D01*
X10381030Y-15797256D01*
X10695316Y-15968684D02*
X10666744Y-15954399D01*
X10652458Y-15940113D01*
X10638173Y-15911541D01*
X10638173Y-15825827D01*
X10652458Y-15797256D01*
X10666744Y-15782970D01*
X10695316Y-15768684D01*
X10738173Y-15768684D01*
X10766744Y-15782970D01*
X10781030Y-15797256D01*
X10795316Y-15825827D01*
X10795316Y-15911541D01*
X10781030Y-15940113D01*
X10766744Y-15954399D01*
X10738173Y-15968684D01*
X10695316Y-15968684D01*
X10966744Y-15968684D02*
X10938173Y-15954399D01*
X10923887Y-15925827D01*
X10923887Y-15668684D01*
X11195316Y-15954399D02*
X11166744Y-15968684D01*
X11109601Y-15968684D01*
X11081030Y-15954399D01*
X11066744Y-15925827D01*
X11066744Y-15811541D01*
X11081030Y-15782970D01*
X11109601Y-15768684D01*
X11166744Y-15768684D01*
X11195316Y-15782970D01*
X11209601Y-15811541D01*
X11209601Y-15840113D01*
X11066744Y-15868684D01*
X11323887Y-15954399D02*
X11352458Y-15968684D01*
X11409601Y-15968684D01*
X11438173Y-15954399D01*
X11452458Y-15925827D01*
X11452458Y-15911541D01*
X11438173Y-15882970D01*
X11409601Y-15868684D01*
X11366744Y-15868684D01*
X11338173Y-15854399D01*
X11323887Y-15825827D01*
X11323887Y-15811541D01*
X11338173Y-15782970D01*
X11366744Y-15768684D01*
X11409601Y-15768684D01*
X11438173Y-15782970D01*
X11552458Y-16082970D02*
X11566744Y-16068684D01*
X11595316Y-16025827D01*
X11609601Y-15997256D01*
X11623887Y-15954399D01*
X11638173Y-15882970D01*
X11638173Y-15825827D01*
X11623887Y-15754399D01*
X11609601Y-15711541D01*
X11595316Y-15682970D01*
X11566744Y-15640113D01*
X11552458Y-15625827D01*
X5066030Y-16228970D02*
G75*
G03*
X5066030Y-16228970I-50800J0D01*
G01*
X5509601Y-16364684D02*
X5338173Y-16364684D01*
X5423887Y-16364684D02*
X5423887Y-16064684D01*
X5395316Y-16107541D01*
X5366744Y-16136113D01*
X5338173Y-16150399D01*
X5638173Y-16336113D02*
X5652458Y-16350399D01*
X5638173Y-16364684D01*
X5623887Y-16350399D01*
X5638173Y-16336113D01*
X5638173Y-16364684D01*
X5838173Y-16064684D02*
X5866744Y-16064684D01*
X5895316Y-16078970D01*
X5909601Y-16093256D01*
X5923887Y-16121827D01*
X5938173Y-16178970D01*
X5938173Y-16250399D01*
X5923887Y-16307541D01*
X5909601Y-16336113D01*
X5895316Y-16350399D01*
X5866744Y-16364684D01*
X5838173Y-16364684D01*
X5809601Y-16350399D01*
X5795316Y-16336113D01*
X5781030Y-16307541D01*
X5766744Y-16250399D01*
X5766744Y-16178970D01*
X5781030Y-16121827D01*
X5795316Y-16093256D01*
X5809601Y-16078970D01*
X5838173Y-16064684D01*
X6052458Y-16093256D02*
X6066744Y-16078970D01*
X6095316Y-16064684D01*
X6166744Y-16064684D01*
X6195316Y-16078970D01*
X6209601Y-16093256D01*
X6223887Y-16121827D01*
X6223887Y-16150399D01*
X6209601Y-16193256D01*
X6038173Y-16364684D01*
X6223887Y-16364684D01*
X6352458Y-16364684D02*
X6352458Y-16164684D01*
X6352458Y-16193256D02*
X6366744Y-16178970D01*
X6395316Y-16164684D01*
X6438173Y-16164684D01*
X6466744Y-16178970D01*
X6481030Y-16207541D01*
X6481030Y-16364684D01*
X6481030Y-16207541D02*
X6495316Y-16178970D01*
X6523887Y-16164684D01*
X6566744Y-16164684D01*
X6595316Y-16178970D01*
X6609601Y-16207541D01*
X6609601Y-16364684D01*
X6752458Y-16364684D02*
X6752458Y-16164684D01*
X6752458Y-16193256D02*
X6766744Y-16178970D01*
X6795316Y-16164684D01*
X6838173Y-16164684D01*
X6866744Y-16178970D01*
X6881030Y-16207541D01*
X6881030Y-16364684D01*
X6881030Y-16207541D02*
X6895316Y-16178970D01*
X6923887Y-16164684D01*
X6966744Y-16164684D01*
X6995316Y-16178970D01*
X7009601Y-16207541D01*
X7009601Y-16364684D01*
X7595316Y-16050399D02*
X7338173Y-16436113D01*
X7981030Y-16064684D02*
X8009601Y-16064684D01*
X8038173Y-16078970D01*
X8052458Y-16093256D01*
X8066744Y-16121827D01*
X8081030Y-16178970D01*
X8081030Y-16250399D01*
X8066744Y-16307541D01*
X8052458Y-16336113D01*
X8038173Y-16350399D01*
X8009601Y-16364684D01*
X7981030Y-16364684D01*
X7952458Y-16350399D01*
X7938173Y-16336113D01*
X7923887Y-16307541D01*
X7909601Y-16250399D01*
X7909601Y-16178970D01*
X7923887Y-16121827D01*
X7938173Y-16093256D01*
X7952458Y-16078970D01*
X7981030Y-16064684D01*
X8209601Y-16336113D02*
X8223887Y-16350399D01*
X8209601Y-16364684D01*
X8195316Y-16350399D01*
X8209601Y-16336113D01*
X8209601Y-16364684D01*
X8409601Y-16064684D02*
X8438173Y-16064684D01*
X8466744Y-16078970D01*
X8481030Y-16093256D01*
X8495316Y-16121827D01*
X8509601Y-16178970D01*
X8509601Y-16250399D01*
X8495316Y-16307541D01*
X8481030Y-16336113D01*
X8466744Y-16350399D01*
X8438173Y-16364684D01*
X8409601Y-16364684D01*
X8381030Y-16350399D01*
X8366744Y-16336113D01*
X8352458Y-16307541D01*
X8338173Y-16250399D01*
X8338173Y-16178970D01*
X8352458Y-16121827D01*
X8366744Y-16093256D01*
X8381030Y-16078970D01*
X8409601Y-16064684D01*
X8766744Y-16164684D02*
X8766744Y-16364684D01*
X8695316Y-16050399D02*
X8623887Y-16264684D01*
X8809601Y-16264684D01*
X8981030Y-16064684D02*
X9009601Y-16064684D01*
X9038173Y-16078970D01*
X9052458Y-16093256D01*
X9066744Y-16121827D01*
X9081030Y-16178970D01*
X9081030Y-16250399D01*
X9066744Y-16307541D01*
X9052458Y-16336113D01*
X9038173Y-16350399D01*
X9009601Y-16364684D01*
X8981030Y-16364684D01*
X8952458Y-16350399D01*
X8938173Y-16336113D01*
X8923887Y-16307541D01*
X8909601Y-16250399D01*
X8909601Y-16178970D01*
X8923887Y-16121827D01*
X8938173Y-16093256D01*
X8952458Y-16078970D01*
X8981030Y-16064684D01*
X9195316Y-16064684D02*
X9195316Y-16121827D01*
X9309601Y-16064684D02*
X9309601Y-16121827D01*
X9752458Y-16478970D02*
X9738173Y-16464684D01*
X9709601Y-16421827D01*
X9695316Y-16393256D01*
X9681030Y-16350399D01*
X9666744Y-16278970D01*
X9666744Y-16221827D01*
X9681030Y-16150399D01*
X9695316Y-16107541D01*
X9709601Y-16078970D01*
X9738173Y-16036113D01*
X9752458Y-16021827D01*
X9838173Y-16064684D02*
X10023887Y-16064684D01*
X9923887Y-16178970D01*
X9966744Y-16178970D01*
X9995316Y-16193256D01*
X10009601Y-16207541D01*
X10023887Y-16236113D01*
X10023887Y-16307541D01*
X10009601Y-16336113D01*
X9995316Y-16350399D01*
X9966744Y-16364684D01*
X9881030Y-16364684D01*
X9852458Y-16350399D01*
X9838173Y-16336113D01*
X10138173Y-16093256D02*
X10152458Y-16078970D01*
X10181030Y-16064684D01*
X10252458Y-16064684D01*
X10281030Y-16078970D01*
X10295316Y-16093256D01*
X10309601Y-16121827D01*
X10309601Y-16150399D01*
X10295316Y-16193256D01*
X10123887Y-16364684D01*
X10309601Y-16364684D01*
X10666744Y-16364684D02*
X10666744Y-16064684D01*
X10795316Y-16364684D02*
X10795316Y-16207541D01*
X10781030Y-16178970D01*
X10752458Y-16164684D01*
X10709601Y-16164684D01*
X10681030Y-16178970D01*
X10666744Y-16193256D01*
X10981030Y-16364684D02*
X10952458Y-16350399D01*
X10938173Y-16336113D01*
X10923887Y-16307541D01*
X10923887Y-16221827D01*
X10938173Y-16193256D01*
X10952458Y-16178970D01*
X10981030Y-16164684D01*
X11023887Y-16164684D01*
X11052458Y-16178970D01*
X11066744Y-16193256D01*
X11081030Y-16221827D01*
X11081030Y-16307541D01*
X11066744Y-16336113D01*
X11052458Y-16350399D01*
X11023887Y-16364684D01*
X10981030Y-16364684D01*
X11252458Y-16364684D02*
X11223887Y-16350399D01*
X11209601Y-16321827D01*
X11209601Y-16064684D01*
X11481030Y-16350399D02*
X11452458Y-16364684D01*
X11395316Y-16364684D01*
X11366744Y-16350399D01*
X11352458Y-16321827D01*
X11352458Y-16207541D01*
X11366744Y-16178970D01*
X11395316Y-16164684D01*
X11452458Y-16164684D01*
X11481030Y-16178970D01*
X11495316Y-16207541D01*
X11495316Y-16236113D01*
X11352458Y-16264684D01*
X11609601Y-16350399D02*
X11638173Y-16364684D01*
X11695316Y-16364684D01*
X11723887Y-16350399D01*
X11738173Y-16321827D01*
X11738173Y-16307541D01*
X11723887Y-16278970D01*
X11695316Y-16264684D01*
X11652458Y-16264684D01*
X11623887Y-16250399D01*
X11609601Y-16221827D01*
X11609601Y-16207541D01*
X11623887Y-16178970D01*
X11652458Y-16164684D01*
X11695316Y-16164684D01*
X11723887Y-16178970D01*
X11838173Y-16478970D02*
X11852458Y-16464684D01*
X11881030Y-16421827D01*
X11895316Y-16393256D01*
X11909601Y-16350399D01*
X11923887Y-16278970D01*
X11923887Y-16221827D01*
X11909601Y-16150399D01*
X11895316Y-16107541D01*
X11881030Y-16078970D01*
X11852458Y-16036113D01*
X11838173Y-16021827D01*
X4989830Y-16548770D02*
X4989830Y-16701170D01*
X4913630Y-16624970D02*
X5066030Y-16624970D01*
X5509601Y-16760684D02*
X5338173Y-16760684D01*
X5423887Y-16760684D02*
X5423887Y-16460684D01*
X5395316Y-16503541D01*
X5366744Y-16532113D01*
X5338173Y-16546399D01*
X5638173Y-16732113D02*
X5652458Y-16746399D01*
X5638173Y-16760684D01*
X5623887Y-16746399D01*
X5638173Y-16732113D01*
X5638173Y-16760684D01*
X5923887Y-16460684D02*
X5781030Y-16460684D01*
X5766744Y-16603541D01*
X5781030Y-16589256D01*
X5809601Y-16574970D01*
X5881030Y-16574970D01*
X5909601Y-16589256D01*
X5923887Y-16603541D01*
X5938173Y-16632113D01*
X5938173Y-16703541D01*
X5923887Y-16732113D01*
X5909601Y-16746399D01*
X5881030Y-16760684D01*
X5809601Y-16760684D01*
X5781030Y-16746399D01*
X5766744Y-16732113D01*
X6052458Y-16489256D02*
X6066744Y-16474970D01*
X6095316Y-16460684D01*
X6166744Y-16460684D01*
X6195316Y-16474970D01*
X6209601Y-16489256D01*
X6223887Y-16517827D01*
X6223887Y-16546399D01*
X6209601Y-16589256D01*
X6038173Y-16760684D01*
X6223887Y-16760684D01*
X6352458Y-16760684D02*
X6352458Y-16560684D01*
X6352458Y-16589256D02*
X6366744Y-16574970D01*
X6395316Y-16560684D01*
X6438173Y-16560684D01*
X6466744Y-16574970D01*
X6481030Y-16603541D01*
X6481030Y-16760684D01*
X6481030Y-16603541D02*
X6495316Y-16574970D01*
X6523887Y-16560684D01*
X6566744Y-16560684D01*
X6595316Y-16574970D01*
X6609601Y-16603541D01*
X6609601Y-16760684D01*
X6752458Y-16760684D02*
X6752458Y-16560684D01*
X6752458Y-16589256D02*
X6766744Y-16574970D01*
X6795316Y-16560684D01*
X6838173Y-16560684D01*
X6866744Y-16574970D01*
X6881030Y-16603541D01*
X6881030Y-16760684D01*
X6881030Y-16603541D02*
X6895316Y-16574970D01*
X6923887Y-16560684D01*
X6966744Y-16560684D01*
X6995316Y-16574970D01*
X7009601Y-16603541D01*
X7009601Y-16760684D01*
X7595316Y-16446399D02*
X7338173Y-16832113D01*
X7981030Y-16460684D02*
X8009601Y-16460684D01*
X8038173Y-16474970D01*
X8052458Y-16489256D01*
X8066744Y-16517827D01*
X8081030Y-16574970D01*
X8081030Y-16646399D01*
X8066744Y-16703541D01*
X8052458Y-16732113D01*
X8038173Y-16746399D01*
X8009601Y-16760684D01*
X7981030Y-16760684D01*
X7952458Y-16746399D01*
X7938173Y-16732113D01*
X7923887Y-16703541D01*
X7909601Y-16646399D01*
X7909601Y-16574970D01*
X7923887Y-16517827D01*
X7938173Y-16489256D01*
X7952458Y-16474970D01*
X7981030Y-16460684D01*
X8209601Y-16732113D02*
X8223887Y-16746399D01*
X8209601Y-16760684D01*
X8195316Y-16746399D01*
X8209601Y-16732113D01*
X8209601Y-16760684D01*
X8409601Y-16460684D02*
X8438173Y-16460684D01*
X8466744Y-16474970D01*
X8481030Y-16489256D01*
X8495316Y-16517827D01*
X8509601Y-16574970D01*
X8509601Y-16646399D01*
X8495316Y-16703541D01*
X8481030Y-16732113D01*
X8466744Y-16746399D01*
X8438173Y-16760684D01*
X8409601Y-16760684D01*
X8381030Y-16746399D01*
X8366744Y-16732113D01*
X8352458Y-16703541D01*
X8338173Y-16646399D01*
X8338173Y-16574970D01*
X8352458Y-16517827D01*
X8366744Y-16489256D01*
X8381030Y-16474970D01*
X8409601Y-16460684D01*
X8766744Y-16460684D02*
X8709601Y-16460684D01*
X8681030Y-16474970D01*
X8666744Y-16489256D01*
X8638173Y-16532113D01*
X8623887Y-16589256D01*
X8623887Y-16703541D01*
X8638173Y-16732113D01*
X8652458Y-16746399D01*
X8681030Y-16760684D01*
X8738173Y-16760684D01*
X8766744Y-16746399D01*
X8781030Y-16732113D01*
X8795316Y-16703541D01*
X8795316Y-16632113D01*
X8781030Y-16603541D01*
X8766744Y-16589256D01*
X8738173Y-16574970D01*
X8681030Y-16574970D01*
X8652458Y-16589256D01*
X8638173Y-16603541D01*
X8623887Y-16632113D01*
X8981030Y-16460684D02*
X9009601Y-16460684D01*
X9038173Y-16474970D01*
X9052458Y-16489256D01*
X9066744Y-16517827D01*
X9081030Y-16574970D01*
X9081030Y-16646399D01*
X9066744Y-16703541D01*
X9052458Y-16732113D01*
X9038173Y-16746399D01*
X9009601Y-16760684D01*
X8981030Y-16760684D01*
X8952458Y-16746399D01*
X8938173Y-16732113D01*
X8923887Y-16703541D01*
X8909601Y-16646399D01*
X8909601Y-16574970D01*
X8923887Y-16517827D01*
X8938173Y-16489256D01*
X8952458Y-16474970D01*
X8981030Y-16460684D01*
X9195316Y-16460684D02*
X9195316Y-16517827D01*
X9309601Y-16460684D02*
X9309601Y-16517827D01*
X9752458Y-16874970D02*
X9738173Y-16860684D01*
X9709601Y-16817827D01*
X9695316Y-16789256D01*
X9681030Y-16746399D01*
X9666744Y-16674970D01*
X9666744Y-16617827D01*
X9681030Y-16546399D01*
X9695316Y-16503541D01*
X9709601Y-16474970D01*
X9738173Y-16432113D01*
X9752458Y-16417827D01*
X10023887Y-16760684D02*
X9852458Y-16760684D01*
X9938173Y-16760684D02*
X9938173Y-16460684D01*
X9909601Y-16503541D01*
X9881030Y-16532113D01*
X9852458Y-16546399D01*
X10195316Y-16589256D02*
X10166744Y-16574970D01*
X10152458Y-16560684D01*
X10138173Y-16532113D01*
X10138173Y-16517827D01*
X10152458Y-16489256D01*
X10166744Y-16474970D01*
X10195316Y-16460684D01*
X10252458Y-16460684D01*
X10281030Y-16474970D01*
X10295316Y-16489256D01*
X10309601Y-16517827D01*
X10309601Y-16532113D01*
X10295316Y-16560684D01*
X10281030Y-16574970D01*
X10252458Y-16589256D01*
X10195316Y-16589256D01*
X10166744Y-16603541D01*
X10152458Y-16617827D01*
X10138173Y-16646399D01*
X10138173Y-16703541D01*
X10152458Y-16732113D01*
X10166744Y-16746399D01*
X10195316Y-16760684D01*
X10252458Y-16760684D01*
X10281030Y-16746399D01*
X10295316Y-16732113D01*
X10309601Y-16703541D01*
X10309601Y-16646399D01*
X10295316Y-16617827D01*
X10281030Y-16603541D01*
X10252458Y-16589256D01*
X10666744Y-16760684D02*
X10666744Y-16460684D01*
X10795316Y-16760684D02*
X10795316Y-16603541D01*
X10781030Y-16574970D01*
X10752458Y-16560684D01*
X10709601Y-16560684D01*
X10681030Y-16574970D01*
X10666744Y-16589256D01*
X10981030Y-16760684D02*
X10952458Y-16746399D01*
X10938173Y-16732113D01*
X10923887Y-16703541D01*
X10923887Y-16617827D01*
X10938173Y-16589256D01*
X10952458Y-16574970D01*
X10981030Y-16560684D01*
X11023887Y-16560684D01*
X11052458Y-16574970D01*
X11066744Y-16589256D01*
X11081030Y-16617827D01*
X11081030Y-16703541D01*
X11066744Y-16732113D01*
X11052458Y-16746399D01*
X11023887Y-16760684D01*
X10981030Y-16760684D01*
X11252458Y-16760684D02*
X11223887Y-16746399D01*
X11209601Y-16717827D01*
X11209601Y-16460684D01*
X11481030Y-16746399D02*
X11452458Y-16760684D01*
X11395316Y-16760684D01*
X11366744Y-16746399D01*
X11352458Y-16717827D01*
X11352458Y-16603541D01*
X11366744Y-16574970D01*
X11395316Y-16560684D01*
X11452458Y-16560684D01*
X11481030Y-16574970D01*
X11495316Y-16603541D01*
X11495316Y-16632113D01*
X11352458Y-16660684D01*
X11609601Y-16746399D02*
X11638173Y-16760684D01*
X11695316Y-16760684D01*
X11723887Y-16746399D01*
X11738173Y-16717827D01*
X11738173Y-16703541D01*
X11723887Y-16674970D01*
X11695316Y-16660684D01*
X11652458Y-16660684D01*
X11623887Y-16646399D01*
X11609601Y-16617827D01*
X11609601Y-16603541D01*
X11623887Y-16574970D01*
X11652458Y-16560684D01*
X11695316Y-16560684D01*
X11723887Y-16574970D01*
X11838173Y-16874970D02*
X11852458Y-16860684D01*
X11881030Y-16817827D01*
X11895316Y-16789256D01*
X11909601Y-16746399D01*
X11923887Y-16674970D01*
X11923887Y-16617827D01*
X11909601Y-16546399D01*
X11895316Y-16503541D01*
X11881030Y-16474970D01*
X11852458Y-16432113D01*
X11838173Y-16417827D01*
X5041135Y-17081075D02*
X5041135Y-16960865D01*
X4920925Y-16960865D01*
X4920925Y-17081075D01*
X5041135Y-17081075D01*
X5509601Y-17156684D02*
X5338173Y-17156684D01*
X5423887Y-17156684D02*
X5423887Y-16856684D01*
X5395316Y-16899542D01*
X5366744Y-16928113D01*
X5338173Y-16942399D01*
X5638173Y-17128113D02*
X5652458Y-17142399D01*
X5638173Y-17156684D01*
X5623887Y-17142399D01*
X5638173Y-17128113D01*
X5638173Y-17156684D01*
X5752458Y-16856684D02*
X5952458Y-16856684D01*
X5823887Y-17156684D01*
X6123887Y-16856684D02*
X6152458Y-16856684D01*
X6181030Y-16870970D01*
X6195316Y-16885256D01*
X6209601Y-16913827D01*
X6223887Y-16970970D01*
X6223887Y-17042399D01*
X6209601Y-17099542D01*
X6195316Y-17128113D01*
X6181030Y-17142399D01*
X6152458Y-17156684D01*
X6123887Y-17156684D01*
X6095316Y-17142399D01*
X6081030Y-17128113D01*
X6066744Y-17099542D01*
X6052458Y-17042399D01*
X6052458Y-16970970D01*
X6066744Y-16913827D01*
X6081030Y-16885256D01*
X6095316Y-16870970D01*
X6123887Y-16856684D01*
X6352458Y-17156684D02*
X6352458Y-16956684D01*
X6352458Y-16985256D02*
X6366744Y-16970970D01*
X6395316Y-16956684D01*
X6438173Y-16956684D01*
X6466744Y-16970970D01*
X6481030Y-16999542D01*
X6481030Y-17156684D01*
X6481030Y-16999542D02*
X6495316Y-16970970D01*
X6523887Y-16956684D01*
X6566744Y-16956684D01*
X6595316Y-16970970D01*
X6609601Y-16999542D01*
X6609601Y-17156684D01*
X6752458Y-17156684D02*
X6752458Y-16956684D01*
X6752458Y-16985256D02*
X6766744Y-16970970D01*
X6795316Y-16956684D01*
X6838173Y-16956684D01*
X6866744Y-16970970D01*
X6881030Y-16999542D01*
X6881030Y-17156684D01*
X6881030Y-16999542D02*
X6895316Y-16970970D01*
X6923887Y-16956684D01*
X6966744Y-16956684D01*
X6995316Y-16970970D01*
X7009601Y-16999542D01*
X7009601Y-17156684D01*
X7595316Y-16842399D02*
X7338173Y-17228113D01*
X7981030Y-16856684D02*
X8009601Y-16856684D01*
X8038173Y-16870970D01*
X8052458Y-16885256D01*
X8066744Y-16913827D01*
X8081030Y-16970970D01*
X8081030Y-17042399D01*
X8066744Y-17099542D01*
X8052458Y-17128113D01*
X8038173Y-17142399D01*
X8009601Y-17156684D01*
X7981030Y-17156684D01*
X7952458Y-17142399D01*
X7938173Y-17128113D01*
X7923887Y-17099542D01*
X7909601Y-17042399D01*
X7909601Y-16970970D01*
X7923887Y-16913827D01*
X7938173Y-16885256D01*
X7952458Y-16870970D01*
X7981030Y-16856684D01*
X8209601Y-17128113D02*
X8223887Y-17142399D01*
X8209601Y-17156684D01*
X8195316Y-17142399D01*
X8209601Y-17128113D01*
X8209601Y-17156684D01*
X8409601Y-16856684D02*
X8438173Y-16856684D01*
X8466744Y-16870970D01*
X8481030Y-16885256D01*
X8495316Y-16913827D01*
X8509601Y-16970970D01*
X8509601Y-17042399D01*
X8495316Y-17099542D01*
X8481030Y-17128113D01*
X8466744Y-17142399D01*
X8438173Y-17156684D01*
X8409601Y-17156684D01*
X8381030Y-17142399D01*
X8366744Y-17128113D01*
X8352458Y-17099542D01*
X8338173Y-17042399D01*
X8338173Y-16970970D01*
X8352458Y-16913827D01*
X8366744Y-16885256D01*
X8381030Y-16870970D01*
X8409601Y-16856684D01*
X8766744Y-16856684D02*
X8709601Y-16856684D01*
X8681030Y-16870970D01*
X8666744Y-16885256D01*
X8638173Y-16928113D01*
X8623887Y-16985256D01*
X8623887Y-17099542D01*
X8638173Y-17128113D01*
X8652458Y-17142399D01*
X8681030Y-17156684D01*
X8738173Y-17156684D01*
X8766744Y-17142399D01*
X8781030Y-17128113D01*
X8795316Y-17099542D01*
X8795316Y-17028113D01*
X8781030Y-16999542D01*
X8766744Y-16985256D01*
X8738173Y-16970970D01*
X8681030Y-16970970D01*
X8652458Y-16985256D01*
X8638173Y-16999542D01*
X8623887Y-17028113D01*
X8895316Y-16856684D02*
X9095316Y-16856684D01*
X8966744Y-17156684D01*
X9195316Y-16856684D02*
X9195316Y-16913827D01*
X9309601Y-16856684D02*
X9309601Y-16913827D01*
X9752458Y-17270970D02*
X9738173Y-17256684D01*
X9709601Y-17213827D01*
X9695316Y-17185256D01*
X9681030Y-17142399D01*
X9666744Y-17070970D01*
X9666744Y-17013827D01*
X9681030Y-16942399D01*
X9695316Y-16899542D01*
X9709601Y-16870970D01*
X9738173Y-16828113D01*
X9752458Y-16813827D01*
X9852458Y-16885256D02*
X9866744Y-16870970D01*
X9895316Y-16856684D01*
X9966744Y-16856684D01*
X9995316Y-16870970D01*
X10009601Y-16885256D01*
X10023887Y-16913827D01*
X10023887Y-16942399D01*
X10009601Y-16985256D01*
X9838173Y-17156684D01*
X10023887Y-17156684D01*
X10381030Y-17156684D02*
X10381030Y-16856684D01*
X10509601Y-17156684D02*
X10509601Y-16999542D01*
X10495316Y-16970970D01*
X10466744Y-16956684D01*
X10423887Y-16956684D01*
X10395316Y-16970970D01*
X10381030Y-16985256D01*
X10695316Y-17156684D02*
X10666744Y-17142399D01*
X10652458Y-17128113D01*
X10638173Y-17099542D01*
X10638173Y-17013827D01*
X10652458Y-16985256D01*
X10666744Y-16970970D01*
X10695316Y-16956684D01*
X10738173Y-16956684D01*
X10766744Y-16970970D01*
X10781030Y-16985256D01*
X10795316Y-17013827D01*
X10795316Y-17099542D01*
X10781030Y-17128113D01*
X10766744Y-17142399D01*
X10738173Y-17156684D01*
X10695316Y-17156684D01*
X10966744Y-17156684D02*
X10938173Y-17142399D01*
X10923887Y-17113827D01*
X10923887Y-16856684D01*
X11195316Y-17142399D02*
X11166744Y-17156684D01*
X11109601Y-17156684D01*
X11081030Y-17142399D01*
X11066744Y-17113827D01*
X11066744Y-16999542D01*
X11081030Y-16970970D01*
X11109601Y-16956684D01*
X11166744Y-16956684D01*
X11195316Y-16970970D01*
X11209601Y-16999542D01*
X11209601Y-17028113D01*
X11066744Y-17056684D01*
X11323887Y-17142399D02*
X11352458Y-17156684D01*
X11409601Y-17156684D01*
X11438173Y-17142399D01*
X11452458Y-17113827D01*
X11452458Y-17099542D01*
X11438173Y-17070970D01*
X11409601Y-17056684D01*
X11366744Y-17056684D01*
X11338173Y-17042399D01*
X11323887Y-17013827D01*
X11323887Y-16999542D01*
X11338173Y-16970970D01*
X11366744Y-16956684D01*
X11409601Y-16956684D01*
X11438173Y-16970970D01*
X11552458Y-17270970D02*
X11566744Y-17256684D01*
X11595316Y-17213827D01*
X11609601Y-17185256D01*
X11623887Y-17142399D01*
X11638173Y-17070970D01*
X11638173Y-17013827D01*
X11623887Y-16942399D01*
X11609601Y-16899542D01*
X11595316Y-16870970D01*
X11566744Y-16828113D01*
X11552458Y-16813827D01*
X4900930Y-17582070D02*
X5066030Y-17416970D01*
X4900930Y-17251870D01*
X4735830Y-17416970D01*
X4900930Y-17582070D01*
X5323887Y-17252684D02*
X5509601Y-17252684D01*
X5409601Y-17366970D01*
X5452458Y-17366970D01*
X5481030Y-17381256D01*
X5495316Y-17395542D01*
X5509601Y-17424113D01*
X5509601Y-17495542D01*
X5495316Y-17524113D01*
X5481030Y-17538399D01*
X5452458Y-17552684D01*
X5366744Y-17552684D01*
X5338173Y-17538399D01*
X5323887Y-17524113D01*
X5638173Y-17524113D02*
X5652458Y-17538399D01*
X5638173Y-17552684D01*
X5623887Y-17538399D01*
X5638173Y-17524113D01*
X5638173Y-17552684D01*
X5752458Y-17252684D02*
X5938173Y-17252684D01*
X5838173Y-17366970D01*
X5881030Y-17366970D01*
X5909601Y-17381256D01*
X5923887Y-17395542D01*
X5938173Y-17424113D01*
X5938173Y-17495542D01*
X5923887Y-17524113D01*
X5909601Y-17538399D01*
X5881030Y-17552684D01*
X5795316Y-17552684D01*
X5766744Y-17538399D01*
X5752458Y-17524113D01*
X6123887Y-17252684D02*
X6152458Y-17252684D01*
X6181030Y-17266970D01*
X6195316Y-17281256D01*
X6209601Y-17309827D01*
X6223887Y-17366970D01*
X6223887Y-17438399D01*
X6209601Y-17495542D01*
X6195316Y-17524113D01*
X6181030Y-17538399D01*
X6152458Y-17552684D01*
X6123887Y-17552684D01*
X6095316Y-17538399D01*
X6081030Y-17524113D01*
X6066744Y-17495542D01*
X6052458Y-17438399D01*
X6052458Y-17366970D01*
X6066744Y-17309827D01*
X6081030Y-17281256D01*
X6095316Y-17266970D01*
X6123887Y-17252684D01*
X6352458Y-17552684D02*
X6352458Y-17352684D01*
X6352458Y-17381256D02*
X6366744Y-17366970D01*
X6395316Y-17352684D01*
X6438173Y-17352684D01*
X6466744Y-17366970D01*
X6481030Y-17395542D01*
X6481030Y-17552684D01*
X6481030Y-17395542D02*
X6495316Y-17366970D01*
X6523887Y-17352684D01*
X6566744Y-17352684D01*
X6595316Y-17366970D01*
X6609601Y-17395542D01*
X6609601Y-17552684D01*
X6752458Y-17552684D02*
X6752458Y-17352684D01*
X6752458Y-17381256D02*
X6766744Y-17366970D01*
X6795316Y-17352684D01*
X6838173Y-17352684D01*
X6866744Y-17366970D01*
X6881030Y-17395542D01*
X6881030Y-17552684D01*
X6881030Y-17395542D02*
X6895316Y-17366970D01*
X6923887Y-17352684D01*
X6966744Y-17352684D01*
X6995316Y-17366970D01*
X7009601Y-17395542D01*
X7009601Y-17552684D01*
X7595316Y-17238399D02*
X7338173Y-17624113D01*
X7981030Y-17252684D02*
X8009601Y-17252684D01*
X8038173Y-17266970D01*
X8052458Y-17281256D01*
X8066744Y-17309827D01*
X8081030Y-17366970D01*
X8081030Y-17438399D01*
X8066744Y-17495542D01*
X8052458Y-17524113D01*
X8038173Y-17538399D01*
X8009601Y-17552684D01*
X7981030Y-17552684D01*
X7952458Y-17538399D01*
X7938173Y-17524113D01*
X7923887Y-17495542D01*
X7909601Y-17438399D01*
X7909601Y-17366970D01*
X7923887Y-17309827D01*
X7938173Y-17281256D01*
X7952458Y-17266970D01*
X7981030Y-17252684D01*
X8209601Y-17524113D02*
X8223887Y-17538399D01*
X8209601Y-17552684D01*
X8195316Y-17538399D01*
X8209601Y-17524113D01*
X8209601Y-17552684D01*
X8509601Y-17552684D02*
X8338173Y-17552684D01*
X8423887Y-17552684D02*
X8423887Y-17252684D01*
X8395316Y-17295542D01*
X8366744Y-17324113D01*
X8338173Y-17338399D01*
X8609601Y-17252684D02*
X8795316Y-17252684D01*
X8695316Y-17366970D01*
X8738173Y-17366970D01*
X8766744Y-17381256D01*
X8781030Y-17395542D01*
X8795316Y-17424113D01*
X8795316Y-17495542D01*
X8781030Y-17524113D01*
X8766744Y-17538399D01*
X8738173Y-17552684D01*
X8652458Y-17552684D01*
X8623887Y-17538399D01*
X8609601Y-17524113D01*
X8981030Y-17252684D02*
X9009601Y-17252684D01*
X9038173Y-17266970D01*
X9052458Y-17281256D01*
X9066744Y-17309827D01*
X9081030Y-17366970D01*
X9081030Y-17438399D01*
X9066744Y-17495542D01*
X9052458Y-17524113D01*
X9038173Y-17538399D01*
X9009601Y-17552684D01*
X8981030Y-17552684D01*
X8952458Y-17538399D01*
X8938173Y-17524113D01*
X8923887Y-17495542D01*
X8909601Y-17438399D01*
X8909601Y-17366970D01*
X8923887Y-17309827D01*
X8938173Y-17281256D01*
X8952458Y-17266970D01*
X8981030Y-17252684D01*
X9195316Y-17252684D02*
X9195316Y-17309827D01*
X9309601Y-17252684D02*
X9309601Y-17309827D01*
X9752458Y-17666970D02*
X9738173Y-17652684D01*
X9709601Y-17609827D01*
X9695316Y-17581256D01*
X9681030Y-17538399D01*
X9666744Y-17466970D01*
X9666744Y-17409827D01*
X9681030Y-17338399D01*
X9695316Y-17295542D01*
X9709601Y-17266970D01*
X9738173Y-17224113D01*
X9752458Y-17209827D01*
X9838173Y-17252684D02*
X10023887Y-17252684D01*
X9923887Y-17366970D01*
X9966744Y-17366970D01*
X9995316Y-17381256D01*
X10009601Y-17395542D01*
X10023887Y-17424113D01*
X10023887Y-17495542D01*
X10009601Y-17524113D01*
X9995316Y-17538399D01*
X9966744Y-17552684D01*
X9881030Y-17552684D01*
X9852458Y-17538399D01*
X9838173Y-17524113D01*
X10381030Y-17552684D02*
X10381030Y-17252684D01*
X10509601Y-17552684D02*
X10509601Y-17395542D01*
X10495316Y-17366970D01*
X10466744Y-17352684D01*
X10423887Y-17352684D01*
X10395316Y-17366970D01*
X10381030Y-17381256D01*
X10695316Y-17552684D02*
X10666744Y-17538399D01*
X10652458Y-17524113D01*
X10638173Y-17495542D01*
X10638173Y-17409827D01*
X10652458Y-17381256D01*
X10666744Y-17366970D01*
X10695316Y-17352684D01*
X10738173Y-17352684D01*
X10766744Y-17366970D01*
X10781030Y-17381256D01*
X10795316Y-17409827D01*
X10795316Y-17495542D01*
X10781030Y-17524113D01*
X10766744Y-17538399D01*
X10738173Y-17552684D01*
X10695316Y-17552684D01*
X10966744Y-17552684D02*
X10938173Y-17538399D01*
X10923887Y-17509827D01*
X10923887Y-17252684D01*
X11195316Y-17538399D02*
X11166744Y-17552684D01*
X11109601Y-17552684D01*
X11081030Y-17538399D01*
X11066744Y-17509827D01*
X11066744Y-17395542D01*
X11081030Y-17366970D01*
X11109601Y-17352684D01*
X11166744Y-17352684D01*
X11195316Y-17366970D01*
X11209601Y-17395542D01*
X11209601Y-17424113D01*
X11066744Y-17452684D01*
X11323887Y-17538399D02*
X11352458Y-17552684D01*
X11409601Y-17552684D01*
X11438173Y-17538399D01*
X11452458Y-17509827D01*
X11452458Y-17495542D01*
X11438173Y-17466970D01*
X11409601Y-17452684D01*
X11366744Y-17452684D01*
X11338173Y-17438399D01*
X11323887Y-17409827D01*
X11323887Y-17395542D01*
X11338173Y-17366970D01*
X11366744Y-17352684D01*
X11409601Y-17352684D01*
X11438173Y-17366970D01*
X11552458Y-17666970D02*
X11566744Y-17652684D01*
X11595316Y-17609827D01*
X11609601Y-17581256D01*
X11623887Y-17538399D01*
X11638173Y-17466970D01*
X11638173Y-17409827D01*
X11623887Y-17338399D01*
X11609601Y-17295542D01*
X11595316Y-17266970D01*
X11566744Y-17224113D01*
X11552458Y-17209827D01*
X4646030Y-17667170D02*
X5066030Y-18087170D01*
X5066030Y-17667170D02*
X4646030Y-18087170D01*
X5066030Y-17877170D02*
G75*
G03*
X5066030Y-17877170I-210000J0D01*
G01*
X5481030Y-17812884D02*
X5481030Y-18012884D01*
X5409601Y-17698599D02*
X5338173Y-17912884D01*
X5523887Y-17912884D01*
X5638173Y-17984313D02*
X5652458Y-17998599D01*
X5638173Y-18012884D01*
X5623887Y-17998599D01*
X5638173Y-17984313D01*
X5638173Y-18012884D01*
X5766744Y-17741456D02*
X5781030Y-17727170D01*
X5809601Y-17712884D01*
X5881030Y-17712884D01*
X5909601Y-17727170D01*
X5923887Y-17741456D01*
X5938173Y-17770027D01*
X5938173Y-17798599D01*
X5923887Y-17841456D01*
X5752458Y-18012884D01*
X5938173Y-18012884D01*
X6123887Y-17712884D02*
X6152458Y-17712884D01*
X6181030Y-17727170D01*
X6195316Y-17741456D01*
X6209601Y-17770027D01*
X6223887Y-17827170D01*
X6223887Y-17898599D01*
X6209601Y-17955742D01*
X6195316Y-17984313D01*
X6181030Y-17998599D01*
X6152458Y-18012884D01*
X6123887Y-18012884D01*
X6095316Y-17998599D01*
X6081030Y-17984313D01*
X6066744Y-17955742D01*
X6052458Y-17898599D01*
X6052458Y-17827170D01*
X6066744Y-17770027D01*
X6081030Y-17741456D01*
X6095316Y-17727170D01*
X6123887Y-17712884D01*
X6352458Y-18012884D02*
X6352458Y-17812884D01*
X6352458Y-17841456D02*
X6366744Y-17827170D01*
X6395316Y-17812884D01*
X6438173Y-17812884D01*
X6466744Y-17827170D01*
X6481030Y-17855742D01*
X6481030Y-18012884D01*
X6481030Y-17855742D02*
X6495316Y-17827170D01*
X6523887Y-17812884D01*
X6566744Y-17812884D01*
X6595316Y-17827170D01*
X6609601Y-17855742D01*
X6609601Y-18012884D01*
X6752458Y-18012884D02*
X6752458Y-17812884D01*
X6752458Y-17841456D02*
X6766744Y-17827170D01*
X6795316Y-17812884D01*
X6838173Y-17812884D01*
X6866744Y-17827170D01*
X6881030Y-17855742D01*
X6881030Y-18012884D01*
X6881030Y-17855742D02*
X6895316Y-17827170D01*
X6923887Y-17812884D01*
X6966744Y-17812884D01*
X6995316Y-17827170D01*
X7009601Y-17855742D01*
X7009601Y-18012884D01*
X7595316Y-17698599D02*
X7338173Y-18084313D01*
X7981030Y-17712884D02*
X8009601Y-17712884D01*
X8038173Y-17727170D01*
X8052458Y-17741456D01*
X8066744Y-17770027D01*
X8081030Y-17827170D01*
X8081030Y-17898599D01*
X8066744Y-17955742D01*
X8052458Y-17984313D01*
X8038173Y-17998599D01*
X8009601Y-18012884D01*
X7981030Y-18012884D01*
X7952458Y-17998599D01*
X7938173Y-17984313D01*
X7923887Y-17955742D01*
X7909601Y-17898599D01*
X7909601Y-17827170D01*
X7923887Y-17770027D01*
X7938173Y-17741456D01*
X7952458Y-17727170D01*
X7981030Y-17712884D01*
X8209601Y-17984313D02*
X8223887Y-17998599D01*
X8209601Y-18012884D01*
X8195316Y-17998599D01*
X8209601Y-17984313D01*
X8209601Y-18012884D01*
X8509601Y-18012884D02*
X8338173Y-18012884D01*
X8423887Y-18012884D02*
X8423887Y-17712884D01*
X8395316Y-17755742D01*
X8366744Y-17784313D01*
X8338173Y-17798599D01*
X8766744Y-17712884D02*
X8709601Y-17712884D01*
X8681030Y-17727170D01*
X8666744Y-17741456D01*
X8638173Y-17784313D01*
X8623887Y-17841456D01*
X8623887Y-17955742D01*
X8638173Y-17984313D01*
X8652458Y-17998599D01*
X8681030Y-18012884D01*
X8738173Y-18012884D01*
X8766744Y-17998599D01*
X8781030Y-17984313D01*
X8795316Y-17955742D01*
X8795316Y-17884313D01*
X8781030Y-17855742D01*
X8766744Y-17841456D01*
X8738173Y-17827170D01*
X8681030Y-17827170D01*
X8652458Y-17841456D01*
X8638173Y-17855742D01*
X8623887Y-17884313D01*
X9066744Y-17712884D02*
X8923887Y-17712884D01*
X8909601Y-17855742D01*
X8923887Y-17841456D01*
X8952458Y-17827170D01*
X9023887Y-17827170D01*
X9052458Y-17841456D01*
X9066744Y-17855742D01*
X9081030Y-17884313D01*
X9081030Y-17955742D01*
X9066744Y-17984313D01*
X9052458Y-17998599D01*
X9023887Y-18012884D01*
X8952458Y-18012884D01*
X8923887Y-17998599D01*
X8909601Y-17984313D01*
X9195316Y-17712884D02*
X9195316Y-17770027D01*
X9309601Y-17712884D02*
X9309601Y-17770027D01*
X9752458Y-18127170D02*
X9738173Y-18112884D01*
X9709601Y-18070027D01*
X9695316Y-18041456D01*
X9681030Y-17998599D01*
X9666744Y-17927170D01*
X9666744Y-17870027D01*
X9681030Y-17798599D01*
X9695316Y-17755742D01*
X9709601Y-17727170D01*
X9738173Y-17684313D01*
X9752458Y-17670027D01*
X10023887Y-18012884D02*
X9852458Y-18012884D01*
X9938173Y-18012884D02*
X9938173Y-17712884D01*
X9909601Y-17755742D01*
X9881030Y-17784313D01*
X9852458Y-17798599D01*
X10381030Y-18012884D02*
X10381030Y-17712884D01*
X10509601Y-18012884D02*
X10509601Y-17855742D01*
X10495316Y-17827170D01*
X10466744Y-17812884D01*
X10423887Y-17812884D01*
X10395316Y-17827170D01*
X10381030Y-17841456D01*
X10695316Y-18012884D02*
X10666744Y-17998599D01*
X10652458Y-17984313D01*
X10638173Y-17955742D01*
X10638173Y-17870027D01*
X10652458Y-17841456D01*
X10666744Y-17827170D01*
X10695316Y-17812884D01*
X10738173Y-17812884D01*
X10766744Y-17827170D01*
X10781030Y-17841456D01*
X10795316Y-17870027D01*
X10795316Y-17955742D01*
X10781030Y-17984313D01*
X10766744Y-17998599D01*
X10738173Y-18012884D01*
X10695316Y-18012884D01*
X10966744Y-18012884D02*
X10938173Y-17998599D01*
X10923887Y-17970027D01*
X10923887Y-17712884D01*
X11195316Y-17998599D02*
X11166744Y-18012884D01*
X11109601Y-18012884D01*
X11081030Y-17998599D01*
X11066744Y-17970027D01*
X11066744Y-17855742D01*
X11081030Y-17827170D01*
X11109601Y-17812884D01*
X11166744Y-17812884D01*
X11195316Y-17827170D01*
X11209601Y-17855742D01*
X11209601Y-17884313D01*
X11066744Y-17912884D01*
X11309601Y-18127170D02*
X11323887Y-18112884D01*
X11352458Y-18070027D01*
X11366744Y-18041456D01*
X11381030Y-17998599D01*
X11395316Y-17927170D01*
X11395316Y-17870027D01*
X11381030Y-17798599D01*
X11366744Y-17755742D01*
X11352458Y-17727170D01*
X11323887Y-17684313D01*
X11309601Y-17670027D01*
X4644390Y-18216350D02*
X5066030Y-18637990D01*
X5066030Y-18216350D02*
X4644390Y-18637990D01*
X4855210Y-18216350D02*
X4855210Y-18637990D01*
X4644390Y-18427170D02*
X5066030Y-18427170D01*
X5481030Y-18362884D02*
X5481030Y-18562884D01*
X5409601Y-18248599D02*
X5338173Y-18462884D01*
X5523887Y-18462884D01*
X5638173Y-18534313D02*
X5652458Y-18548599D01*
X5638173Y-18562884D01*
X5623887Y-18548599D01*
X5638173Y-18534313D01*
X5638173Y-18562884D01*
X5766744Y-18291456D02*
X5781030Y-18277170D01*
X5809601Y-18262884D01*
X5881030Y-18262884D01*
X5909601Y-18277170D01*
X5923887Y-18291456D01*
X5938173Y-18320027D01*
X5938173Y-18348599D01*
X5923887Y-18391456D01*
X5752458Y-18562884D01*
X5938173Y-18562884D01*
X6052458Y-18291456D02*
X6066744Y-18277170D01*
X6095316Y-18262884D01*
X6166744Y-18262884D01*
X6195316Y-18277170D01*
X6209601Y-18291456D01*
X6223887Y-18320027D01*
X6223887Y-18348599D01*
X6209601Y-18391456D01*
X6038173Y-18562884D01*
X6223887Y-18562884D01*
X6352458Y-18562884D02*
X6352458Y-18362884D01*
X6352458Y-18391456D02*
X6366744Y-18377170D01*
X6395316Y-18362884D01*
X6438173Y-18362884D01*
X6466744Y-18377170D01*
X6481030Y-18405742D01*
X6481030Y-18562884D01*
X6481030Y-18405742D02*
X6495316Y-18377170D01*
X6523887Y-18362884D01*
X6566744Y-18362884D01*
X6595316Y-18377170D01*
X6609601Y-18405742D01*
X6609601Y-18562884D01*
X6752458Y-18562884D02*
X6752458Y-18362884D01*
X6752458Y-18391456D02*
X6766744Y-18377170D01*
X6795316Y-18362884D01*
X6838173Y-18362884D01*
X6866744Y-18377170D01*
X6881030Y-18405742D01*
X6881030Y-18562884D01*
X6881030Y-18405742D02*
X6895316Y-18377170D01*
X6923887Y-18362884D01*
X6966744Y-18362884D01*
X6995316Y-18377170D01*
X7009601Y-18405742D01*
X7009601Y-18562884D01*
X7595316Y-18248599D02*
X7338173Y-18634313D01*
X7981030Y-18262884D02*
X8009601Y-18262884D01*
X8038173Y-18277170D01*
X8052458Y-18291456D01*
X8066744Y-18320027D01*
X8081030Y-18377170D01*
X8081030Y-18448599D01*
X8066744Y-18505742D01*
X8052458Y-18534313D01*
X8038173Y-18548599D01*
X8009601Y-18562884D01*
X7981030Y-18562884D01*
X7952458Y-18548599D01*
X7938173Y-18534313D01*
X7923887Y-18505742D01*
X7909601Y-18448599D01*
X7909601Y-18377170D01*
X7923887Y-18320027D01*
X7938173Y-18291456D01*
X7952458Y-18277170D01*
X7981030Y-18262884D01*
X8209601Y-18534313D02*
X8223887Y-18548599D01*
X8209601Y-18562884D01*
X8195316Y-18548599D01*
X8209601Y-18534313D01*
X8209601Y-18562884D01*
X8509601Y-18562884D02*
X8338173Y-18562884D01*
X8423887Y-18562884D02*
X8423887Y-18262884D01*
X8395316Y-18305742D01*
X8366744Y-18334313D01*
X8338173Y-18348599D01*
X8766744Y-18262884D02*
X8709601Y-18262884D01*
X8681030Y-18277170D01*
X8666744Y-18291456D01*
X8638173Y-18334313D01*
X8623887Y-18391456D01*
X8623887Y-18505742D01*
X8638173Y-18534313D01*
X8652458Y-18548599D01*
X8681030Y-18562884D01*
X8738173Y-18562884D01*
X8766744Y-18548599D01*
X8781030Y-18534313D01*
X8795316Y-18505742D01*
X8795316Y-18434313D01*
X8781030Y-18405742D01*
X8766744Y-18391456D01*
X8738173Y-18377170D01*
X8681030Y-18377170D01*
X8652458Y-18391456D01*
X8638173Y-18405742D01*
X8623887Y-18434313D01*
X9052458Y-18262884D02*
X8995316Y-18262884D01*
X8966744Y-18277170D01*
X8952458Y-18291456D01*
X8923887Y-18334313D01*
X8909601Y-18391456D01*
X8909601Y-18505742D01*
X8923887Y-18534313D01*
X8938173Y-18548599D01*
X8966744Y-18562884D01*
X9023887Y-18562884D01*
X9052458Y-18548599D01*
X9066744Y-18534313D01*
X9081030Y-18505742D01*
X9081030Y-18434313D01*
X9066744Y-18405742D01*
X9052458Y-18391456D01*
X9023887Y-18377170D01*
X8966744Y-18377170D01*
X8938173Y-18391456D01*
X8923887Y-18405742D01*
X8909601Y-18434313D01*
X9195316Y-18262884D02*
X9195316Y-18320027D01*
X9309601Y-18262884D02*
X9309601Y-18320027D01*
X9752458Y-18677170D02*
X9738173Y-18662884D01*
X9709601Y-18620027D01*
X9695316Y-18591456D01*
X9681030Y-18548599D01*
X9666744Y-18477170D01*
X9666744Y-18420027D01*
X9681030Y-18348599D01*
X9695316Y-18305742D01*
X9709601Y-18277170D01*
X9738173Y-18234313D01*
X9752458Y-18220027D01*
X9995316Y-18362884D02*
X9995316Y-18562884D01*
X9923887Y-18248599D02*
X9852458Y-18462884D01*
X10038173Y-18462884D01*
X10381030Y-18562884D02*
X10381030Y-18262884D01*
X10509601Y-18562884D02*
X10509601Y-18405742D01*
X10495316Y-18377170D01*
X10466744Y-18362884D01*
X10423887Y-18362884D01*
X10395316Y-18377170D01*
X10381030Y-18391456D01*
X10695316Y-18562884D02*
X10666744Y-18548599D01*
X10652458Y-18534313D01*
X10638173Y-18505742D01*
X10638173Y-18420027D01*
X10652458Y-18391456D01*
X10666744Y-18377170D01*
X10695316Y-18362884D01*
X10738173Y-18362884D01*
X10766744Y-18377170D01*
X10781030Y-18391456D01*
X10795316Y-18420027D01*
X10795316Y-18505742D01*
X10781030Y-18534313D01*
X10766744Y-18548599D01*
X10738173Y-18562884D01*
X10695316Y-18562884D01*
X10966744Y-18562884D02*
X10938173Y-18548599D01*
X10923887Y-18520027D01*
X10923887Y-18262884D01*
X11195316Y-18548599D02*
X11166744Y-18562884D01*
X11109601Y-18562884D01*
X11081030Y-18548599D01*
X11066744Y-18520027D01*
X11066744Y-18405742D01*
X11081030Y-18377170D01*
X11109601Y-18362884D01*
X11166744Y-18362884D01*
X11195316Y-18377170D01*
X11209601Y-18405742D01*
X11209601Y-18434313D01*
X11066744Y-18462884D01*
X11323887Y-18548599D02*
X11352458Y-18562884D01*
X11409601Y-18562884D01*
X11438173Y-18548599D01*
X11452458Y-18520027D01*
X11452458Y-18505742D01*
X11438173Y-18477170D01*
X11409601Y-18462884D01*
X11366744Y-18462884D01*
X11338173Y-18448599D01*
X11323887Y-18420027D01*
X11323887Y-18405742D01*
X11338173Y-18377170D01*
X11366744Y-18362884D01*
X11409601Y-18362884D01*
X11438173Y-18377170D01*
X11552458Y-18677170D02*
X11566744Y-18662884D01*
X11595316Y-18620027D01*
X11609601Y-18591456D01*
X11623887Y-18548599D01*
X11638173Y-18477170D01*
X11638173Y-18420027D01*
X11623887Y-18348599D01*
X11609601Y-18305742D01*
X11595316Y-18277170D01*
X11566744Y-18234313D01*
X11552458Y-18220027D01*
M02*
