<?xml version="1.0" standalone="no"?>
 <!DOCTYPE svg PUBLIC "-//W3C//DTD SVG 1.1//EN" 
 "http://www.w3.org/Graphics/SVG/1.1/DTD/svg11.dtd"> 
<svg
  xmlns:svg="http://www.w3.org/2000/svg"
  xmlns="http://www.w3.org/2000/svg"
  xmlns:xlink="http://www.w3.org/1999/xlink"
  version="1.1"
  width="8.803640cm" height="9.906000cm" viewBox="0 0 34660 39000">
<title>SVG Picture created as y_arena_valve_controller-B_SilkS.svg date 2020/07/22 10:08:20 </title>
  <desc>Picture generated by PCBNEW </desc>
<g style="fill:#000000; fill-opacity:1;stroke:#000000; stroke-opacity:1;
stroke-linecap:round; stroke-linejoin:round;"
 transform="translate(0 0) scale(1 1)">
</g>
<g style="fill:#000000; fill-opacity:0.0; 
stroke:#000000; stroke-width:-0.000393701; stroke-opacity:1; 
stroke-linecap:round; stroke-linejoin:round;">
</g>
<g style="fill:#840084; fill-opacity:0.0; 
stroke:#840084; stroke-width:-0.000393701; stroke-opacity:1; 
stroke-linecap:round; stroke-linejoin:round;">
</g>
<g style="fill:#840084; fill-opacity:0.0; 
stroke:#840084; stroke-width:110; stroke-opacity:1; 
stroke-linecap:round; stroke-linejoin:round;">
<circle cx="25550" cy="12250" r="1470" /> 
<circle cx="3550" cy="12250" r="1470" /> 
<circle cx="3550" cy="9250" r="1470" /> 
<circle cx="3550" cy="6250" r="1470" /> 
<circle cx="14550" cy="12250" r="1470" /> 
<circle cx="14550" cy="9250" r="1470" /> 
<circle cx="14550" cy="6250" r="1470" /> 
<circle cx="25550" cy="9250" r="1470" /> 
<circle cx="25550" cy="6250" r="1470" /> 
<circle cx="28250" cy="9250" r="1300" /> 
<circle cx="5250" cy="9250" r="1300" /> 
<circle cx="5250" cy="35250" r="1300" /> 
<circle cx="28250" cy="35250" r="1300" /> 
</g>
<g style="fill:#840084; fill-opacity:0.0; 
stroke:#840084; stroke-width:150; stroke-opacity:1; 
stroke-linecap:round; stroke-linejoin:round;">
<path d="M18250 36750
L15250 36750
" />
<path d="M15250 35750
L15250 36750
" />
<path d="M18250 35750
L15250 35750
" />
<path d="M18250 36750
L18250 35750
" />
<path d="M30075 7350
L3425 7350
" />
<path d="M30075 7350
L30075 37150
" />
<path d="M30075 37150
L3425 37150
" />
<path d="M3425 37150
L3425 7350
" />
</g>
<g style="fill:#840084; fill-opacity:0.0; 
stroke:#840084; stroke-width:90; stroke-opacity:1; 
stroke-linecap:round; stroke-linejoin:round;">
<circle cx="18500" cy="15500" r="1000" /> 
<circle cx="7500" cy="4250" r="1000" /> 
<circle cx="29500" cy="4250" r="1000" /> 
</g>
<g style="fill:#840084; fill-opacity:0.0; 
stroke:#840084; stroke-width:100; stroke-opacity:1; 
stroke-linecap:round; stroke-linejoin:round;">
<g transform="rotate(-90 25750 12250)">
<text x="25750" y="12450"
textLength="643.794" font-size="533.333" lengthAdjust="spacingAndGlyphs"
text-anchor="middle" opacity="0">S7</text>
</g>
<path d="M25911 11945
L25930 12002
L25930 12097
L25911 12135
L25892 12154
L25854 12173
L25816 12173
L25778 12154
L25759 12135
L25740 12097
L25721 12021
L25702 11983
L25683 11964
L25645 11945
L25607 11945
L25569 11964
L25550 11983
L25530 12021
L25530 12116
L25550 12173
" />
<path d="M25530 12307
L25530 12573
L25930 12402
" />
<g transform="rotate(-90 3750 12250)">
<text x="3750" y="12450"
textLength="631.905" font-size="533.333" lengthAdjust="spacingAndGlyphs"
text-anchor="middle" opacity="0">S1</text>
</g>
<path d="M3911 11945
L3930 12002
L3930 12097
L3911 12135
L3892 12154
L3854 12173
L3816 12173
L3778 12154
L3759 12135
L3740 12097
L3721 12021
L3702 11983
L3683 11964
L3645 11945
L3607 11945
L3569 11964
L3550 11983
L3530 12021
L3530 12116
L3550 12173
" />
<path d="M3930 12554
L3930 12326
" />
<path d="M3930 12440
L3530 12440
L3588 12402
L3626 12364
L3645 12326
" />
<g transform="rotate(-90 3750 9250)">
<text x="3750" y="9450"
textLength="631.905" font-size="533.333" lengthAdjust="spacingAndGlyphs"
text-anchor="middle" opacity="0">S2</text>
</g>
<path d="M3911 8945
L3930 9002
L3930 9097
L3911 9135
L3892 9154
L3854 9173
L3816 9173
L3778 9154
L3759 9135
L3740 9097
L3721 9021
L3702 8983
L3683 8964
L3645 8945
L3607 8945
L3569 8964
L3550 8983
L3530 9021
L3530 9116
L3550 9173
" />
<path d="M3569 9326
L3550 9345
L3530 9383
L3530 9478
L3550 9516
L3569 9535
L3607 9554
L3645 9554
L3702 9535
L3930 9307
L3930 9554
" />
<g transform="rotate(-90 3750 6250)">
<text x="3750" y="6450"
textLength="631.905" font-size="533.333" lengthAdjust="spacingAndGlyphs"
text-anchor="middle" opacity="0">S3</text>
</g>
<path d="M3911 5945
L3930 6002
L3930 6097
L3911 6135
L3892 6154
L3854 6173
L3816 6173
L3778 6154
L3759 6135
L3740 6097
L3721 6021
L3702 5983
L3683 5964
L3645 5945
L3607 5945
L3569 5964
L3550 5983
L3530 6021
L3530 6116
L3550 6173
" />
<path d="M3530 6307
L3530 6554
L3683 6421
L3683 6478
L3702 6516
L3721 6535
L3759 6554
L3854 6554
L3892 6535
L3911 6516
L3930 6478
L3930 6364
L3911 6326
L3892 6307
" />
<g transform="rotate(-90 14750 12250)">
<text x="14750" y="12450"
textLength="631.905" font-size="533.333" lengthAdjust="spacingAndGlyphs"
text-anchor="middle" opacity="0">S4</text>
</g>
<path d="M14911 11945
L14930 12002
L14930 12097
L14911 12135
L14892 12154
L14854 12173
L14816 12173
L14778 12154
L14759 12135
L14740 12097
L14721 12021
L14702 11983
L14683 11964
L14645 11945
L14607 11945
L14569 11964
L14550 11983
L14530 12021
L14530 12116
L14550 12173
" />
<path d="M14664 12516
L14930 12516
" />
<path d="M14511 12421
L14797 12326
L14797 12573
" />
<g transform="rotate(-90 14750 9250)">
<text x="14750" y="9450"
textLength="631.905" font-size="533.333" lengthAdjust="spacingAndGlyphs"
text-anchor="middle" opacity="0">S5</text>
</g>
<path d="M14911 8945
L14930 9002
L14930 9097
L14911 9135
L14892 9154
L14854 9173
L14816 9173
L14778 9154
L14759 9135
L14740 9097
L14721 9021
L14702 8983
L14683 8964
L14645 8945
L14607 8945
L14569 8964
L14550 8983
L14530 9021
L14530 9116
L14550 9173
" />
<path d="M14530 9535
L14530 9345
L14721 9326
L14702 9345
L14683 9383
L14683 9478
L14702 9516
L14721 9535
L14759 9554
L14854 9554
L14892 9535
L14911 9516
L14930 9478
L14930 9383
L14911 9345
L14892 9326
" />
<g transform="rotate(-90 14750 6250)">
<text x="14750" y="6450"
textLength="631.905" font-size="533.333" lengthAdjust="spacingAndGlyphs"
text-anchor="middle" opacity="0">S6</text>
</g>
<path d="M14911 5945
L14930 6002
L14930 6097
L14911 6135
L14892 6154
L14854 6173
L14816 6173
L14778 6154
L14759 6135
L14740 6097
L14721 6021
L14702 5983
L14683 5964
L14645 5945
L14607 5945
L14569 5964
L14550 5983
L14530 6021
L14530 6116
L14550 6173
" />
<path d="M14530 6516
L14530 6440
L14550 6402
L14569 6383
L14626 6345
L14702 6326
L14854 6326
L14892 6345
L14911 6364
L14930 6402
L14930 6478
L14911 6516
L14892 6535
L14854 6554
L14759 6554
L14721 6535
L14702 6516
L14683 6478
L14683 6402
L14702 6364
L14721 6345
L14759 6326
" />
<g transform="rotate(-90 25750 9250)">
<text x="25750" y="9450"
textLength="631.905" font-size="533.333" lengthAdjust="spacingAndGlyphs"
text-anchor="middle" opacity="0">S8</text>
</g>
<path d="M25911 8945
L25930 9002
L25930 9097
L25911 9135
L25892 9154
L25854 9173
L25816 9173
L25778 9154
L25759 9135
L25740 9097
L25721 9021
L25702 8983
L25683 8964
L25645 8945
L25607 8945
L25569 8964
L25550 8983
L25530 9021
L25530 9116
L25550 9173
" />
<path d="M25702 9402
L25683 9364
L25664 9345
L25626 9326
L25607 9326
L25569 9345
L25550 9364
L25530 9402
L25530 9478
L25550 9516
L25569 9535
L25607 9554
L25626 9554
L25664 9535
L25683 9516
L25702 9478
L25702 9402
L25721 9364
L25740 9345
L25778 9326
L25854 9326
L25892 9345
L25911 9364
L25930 9402
L25930 9478
L25911 9516
L25892 9535
L25854 9554
L25778 9554
L25740 9535
L25721 9516
L25702 9478
" />
<g transform="rotate(-90 25750 6250)">
<text x="25750" y="6450"
textLength="631.905" font-size="533.333" lengthAdjust="spacingAndGlyphs"
text-anchor="middle" opacity="0">S9</text>
</g>
<path d="M25911 5945
L25930 6002
L25930 6097
L25911 6135
L25892 6154
L25854 6173
L25816 6173
L25778 6154
L25759 6135
L25740 6097
L25721 6021
L25702 5983
L25683 5964
L25645 5945
L25607 5945
L25569 5964
L25550 5983
L25530 6021
L25530 6116
L25550 6173
" />
<path d="M25930 6364
L25930 6440
L25911 6478
L25892 6497
L25835 6535
L25759 6554
L25607 6554
L25569 6535
L25550 6516
L25530 6478
L25530 6402
L25550 6364
L25569 6345
L25607 6326
L25702 6326
L25740 6345
L25759 6364
L25778 6402
L25778 6478
L25759 6516
L25740 6535
L25702 6554
" />
</g>
<g style="fill:#840084; fill-opacity:0.0; 
stroke:#840084; stroke-width:150; stroke-opacity:1; 
stroke-linecap:round; stroke-linejoin:round;">
<g transform="rotate(90 2750 22250)">
<text x="2750" y="22550"
textLength="4155.71" font-size="800" lengthAdjust="spacingAndGlyphs"
text-anchor="middle" opacity="0">PHIDGET1</text>
</g>
<path d="M2478 24250
L3078 24250
L3078 24021
L3050 23964
L3021 23935
L2964 23907
L2878 23907
L2821 23935
L2792 23964
L2764 24021
L2764 24250
" />
<path d="M2478 23650
L3078 23650
" />
<path d="M2792 23650
L2792 23307
" />
<path d="M2478 23307
L3078 23307
" />
<path d="M2478 23021
L3078 23021
" />
<path d="M2478 22735
L3078 22735
L3078 22592
L3050 22507
L2992 22450
L2935 22421
L2821 22392
L2735 22392
L2621 22421
L2564 22450
L2507 22507
L2478 22592
L2478 22735
" />
<path d="M3050 21821
L3078 21878
L3078 21964
L3050 22050
L2992 22107
L2935 22135
L2821 22164
L2735 22164
L2621 22135
L2564 22107
L2507 22050
L2478 21964
L2478 21907
L2507 21821
L2535 21792
L2735 21792
L2735 21907
" />
<path d="M2792 21535
L2792 21335
" />
<path d="M2478 21250
L2478 21535
L3078 21535
L3078 21250
" />
<path d="M3078 21078
L3078 20735
" />
<path d="M2478 20907
L3078 20907
" />
<path d="M2478 20221
L2478 20564
" />
<path d="M2478 20392
L3078 20392
L2992 20450
L2935 20507
L2907 20564
" />
</g>
<g style="fill:#840084; fill-opacity:0.0; 
stroke:#840084; stroke-width:250; stroke-opacity:1; 
stroke-linecap:round; stroke-linejoin:round;">
<g transform="rotate(-90 6500 22250)">
<text x="6500" y="22750"
textLength="14852.6" font-size="1333.33" lengthAdjust="spacingAndGlyphs"
text-anchor="middle" opacity="0">State Relay Phidget</text>
</g>
<path d="M6904 14916
L6952 15059
L6952 15297
L6904 15392
L6857 15440
L6761 15488
L6666 15488
L6571 15440
L6523 15392
L6476 15297
L6428 15107
L6380 15011
L6333 14964
L6238 14916
L6142 14916
L6047 14964
L6000 15011
L5952 15107
L5952 15345
L6000 15488
" />
<path d="M6285 15773
L6285 16154
" />
<path d="M5952 15916
L6809 15916
L6904 15964
L6952 16059
L6952 16154
" />
<path d="M6952 16916
L6428 16916
L6333 16869
L6285 16773
L6285 16583
L6333 16488
" />
<path d="M6904 16916
L6952 16821
L6952 16583
L6904 16488
L6809 16440
L6714 16440
L6619 16488
L6571 16583
L6571 16821
L6523 16916
" />
<path d="M6285 17250
L6285 17630
" />
<path d="M5952 17392
L6809 17392
L6904 17440
L6952 17535
L6952 17630
" />
<path d="M6904 18345
L6952 18250
L6952 18059
L6904 17964
L6809 17916
L6428 17916
L6333 17964
L6285 18059
L6285 18250
L6333 18345
L6428 18392
L6523 18392
L6619 17916
" />
<path d="M6952 20154
L6476 19821
" />
<path d="M6952 19583
L5952 19583
L5952 19964
L6000 20059
L6047 20107
L6142 20154
L6285 20154
L6380 20107
L6428 20059
L6476 19964
L6476 19583
" />
<path d="M6904 20964
L6952 20869
L6952 20678
L6904 20583
L6809 20535
L6428 20535
L6333 20583
L6285 20678
L6285 20869
L6333 20964
L6428 21011
L6523 21011
L6619 20535
" />
<path d="M6952 21583
L6904 21488
L6809 21440
L5952 21440
" />
<path d="M6952 22392
L6428 22392
L6333 22345
L6285 22250
L6285 22059
L6333 21964
" />
<path d="M6904 22392
L6952 22297
L6952 22059
L6904 21964
L6809 21916
L6714 21916
L6619 21964
L6571 22059
L6571 22297
L6523 22392
" />
<path d="M6285 22773
L6952 23011
" />
<path d="M6285 23250
L6952 23011
L7190 22916
L7238 22869
L7285 22773
" />
<path d="M6952 24392
L5952 24392
L5952 24773
L6000 24869
L6047 24916
L6142 24964
L6285 24964
L6380 24916
L6428 24869
L6476 24773
L6476 24392
" />
<path d="M6952 25392
L5952 25392
" />
<path d="M6952 25821
L6428 25821
L6333 25773
L6285 25678
L6285 25535
L6333 25440
L6380 25392
" />
<path d="M6952 26297
L6285 26297
" />
<path d="M5952 26297
L6000 26250
L6047 26297
L6000 26345
L5952 26297
L6047 26297
" />
<path d="M6952 27202
L5952 27202
" />
<path d="M6904 27202
L6952 27107
L6952 26916
L6904 26821
L6857 26773
L6761 26726
L6476 26726
L6380 26773
L6333 26821
L6285 26916
L6285 27107
L6333 27202
" />
<path d="M6285 28107
L7095 28107
L7190 28059
L7238 28011
L7285 27916
L7285 27773
L7238 27678
" />
<path d="M6904 28107
L6952 28011
L6952 27821
L6904 27726
L6857 27678
L6761 27630
L6476 27630
L6380 27678
L6333 27726
L6285 27821
L6285 28011
L6333 28107
" />
<path d="M6904 28964
L6952 28869
L6952 28678
L6904 28583
L6809 28535
L6428 28535
L6333 28583
L6285 28678
L6285 28869
L6333 28964
L6428 29011
L6523 29011
L6619 28535
" />
<path d="M6285 29297
L6285 29678
" />
<path d="M5952 29440
L6809 29440
L6904 29488
L6952 29583
L6952 29678
" />
<g transform="rotate(-90 8250 22250)">
<text x="8250" y="22750"
textLength="13627.4" font-size="1333.33" lengthAdjust="spacingAndGlyphs"
text-anchor="middle" opacity="0">16x Isolated Solid</text>
</g>
<path d="M8702 16035
L8702 15464
" />
<path d="M8702 15750
L7702 15750
L7845 15654
L7940 15559
L7988 15464
" />
<path d="M7702 16892
L7702 16702
L7750 16607
L7797 16559
L7940 16464
L8130 16416
L8511 16416
L8607 16464
L8654 16511
L8702 16607
L8702 16797
L8654 16892
L8607 16940
L8511 16988
L8273 16988
L8178 16940
L8130 16892
L8083 16797
L8083 16607
L8130 16511
L8178 16464
L8273 16416
" />
<path d="M8702 17321
L8035 17845
" />
<path d="M8035 17321
L8702 17845
" />
<path d="M8702 18988
L7702 18988
" />
<path d="M8654 19416
L8702 19511
L8702 19702
L8654 19797
L8559 19845
L8511 19845
L8416 19797
L8369 19702
L8369 19559
L8321 19464
L8226 19416
L8178 19416
L8083 19464
L8035 19559
L8035 19702
L8083 19797
" />
<path d="M8702 20416
L8654 20321
L8607 20273
L8511 20226
L8226 20226
L8130 20273
L8083 20321
L8035 20416
L8035 20559
L8083 20654
L8130 20702
L8226 20750
L8511 20750
L8607 20702
L8654 20654
L8702 20559
L8702 20416
" />
<path d="M8702 21321
L8654 21226
L8559 21178
L7702 21178
" />
<path d="M8702 22130
L8178 22130
L8083 22083
L8035 21988
L8035 21797
L8083 21702
" />
<path d="M8654 22130
L8702 22035
L8702 21797
L8654 21702
L8559 21654
L8464 21654
L8369 21702
L8321 21797
L8321 22035
L8273 22130
" />
<path d="M8035 22464
L8035 22845
" />
<path d="M7702 22607
L8559 22607
L8654 22654
L8702 22750
L8702 22845
" />
<path d="M8654 23559
L8702 23464
L8702 23273
L8654 23178
L8559 23130
L8178 23130
L8083 23178
L8035 23273
L8035 23464
L8083 23559
L8178 23607
L8273 23607
L8369 23130
" />
<path d="M8702 24464
L7702 24464
" />
<path d="M8654 24464
L8702 24369
L8702 24178
L8654 24083
L8607 24035
L8511 23988
L8226 23988
L8130 24035
L8083 24083
L8035 24178
L8035 24369
L8083 24464
" />
<path d="M8654 25654
L8702 25797
L8702 26035
L8654 26130
L8607 26178
L8511 26226
L8416 26226
L8321 26178
L8273 26130
L8226 26035
L8178 25845
L8130 25750
L8083 25702
L7988 25654
L7892 25654
L7797 25702
L7750 25750
L7702 25845
L7702 26083
L7750 26226
" />
<path d="M8702 26797
L8654 26702
L8607 26654
L8511 26607
L8226 26607
L8130 26654
L8083 26702
L8035 26797
L8035 26940
L8083 27035
L8130 27083
L8226 27130
L8511 27130
L8607 27083
L8654 27035
L8702 26940
L8702 26797
" />
<path d="M8702 27702
L8654 27607
L8559 27559
L7702 27559
" />
<path d="M8702 28083
L8035 28083
" />
<path d="M7702 28083
L7750 28035
L7797 28083
L7750 28130
L7702 28083
L7797 28083
" />
<path d="M8702 28988
L7702 28988
" />
<path d="M8654 28988
L8702 28892
L8702 28702
L8654 28607
L8607 28559
L8511 28511
L8226 28511
L8130 28559
L8083 28607
L8035 28702
L8035 28892
L8083 28988
" />
<g >
</g>
</g>
<g style="fill:#000000; fill-opacity:0.0; 
stroke:#000000; stroke-width:250; stroke-opacity:1; 
stroke-linecap:round; stroke-linejoin:round;">
</g>
<g style="fill:#C2C200; fill-opacity:0.0; 
stroke:#C2C200; stroke-width:250; stroke-opacity:1; 
stroke-linecap:round; stroke-linejoin:round;">
</g>
<g style="fill:#C2C200; fill-opacity:0.0; 
stroke:#C2C200; stroke-width:110; stroke-opacity:1; 
stroke-linecap:round; stroke-linejoin:round;">
<path d="M29000 37500 A2500 2500 0.0 0 0 31500 35000" />
<path d="M2000 35000 A2500 2500 0.0 0 0 4500 37500" />
<path d="M31500 4500 A2500 2500 0.0 0 0 29000 2000" />
<path d="M4500 2000 A2500 2500 0.0 0 0 2000 4500" />
<path d="M4500 2000
L29000 2000
" />
<path d="M2000 35000
L2000 4500
" />
<path d="M29000 37500
L4500 37500
" />
<path d="M31500 4500
L31500 35000
" />
<g >
</g>
<g >
</g>
<g >
</g>
<g >
</g>
<g >
</g>
<g >
</g>
<g >
</g>
<g >
</g>
<g >
</g>
<g >
</g>
<g >
</g>
<g >
</g>
<g >
</g>
<g >
</g>
<g >
</g>
<g >
</g>
<g >
</g>
<g >
</g>
<g >
</g>
<g >
</g>
<g >
</g>
</g> 
</svg>
