M48
; DRILL file {KiCad 5.1.8-db9833491~87~ubuntu20.04.1} date Thu Nov 19 10:17:25 2020
; FORMAT={2:4/ absolute / inch / keep zeros}
; #@! TF.CreationDate,2020-11-19T10:17:25-05:00
; #@! TF.GenerationSoftware,Kicad,Pcbnew,5.1.8-db9833491~87~ubuntu20.04.1
FMAT,2
INCH
T1C0.0250
T2C0.0600
T3C0.0610
T4C0.0787
T5C0.1300
%
G90
G05
T1
X024565Y-033996
X025042Y-030746
X025046Y-027743
X031907Y-050294
X032420Y-048011
X032750Y-045880
X033174Y-041779
X033233Y-043535
X035137Y-026885
X035203Y-041531
X035216Y-043537
X035275Y-030802
X035305Y-045536
X037209Y-041545
X037216Y-043543
X037615Y-045266
X046086Y-024132
T2
X042750Y-026750
X042750Y-027750
X020750Y-023750
X020750Y-024750
X031750Y-026750
X031750Y-027750
X031750Y-029750
X031750Y-030750
X020750Y-029750
X020750Y-030750
X042750Y-029750
X042750Y-030750
X042750Y-023750
X042750Y-024750
X031750Y-023750
X031750Y-024750
X020750Y-026750
X020750Y-027750
T3
X039750Y-038000
X039750Y-039000
X039750Y-040000
X039750Y-041000
X039750Y-042000
X039750Y-043000
X039750Y-044000
X039750Y-045000
X039750Y-046000
X039750Y-047000
X039750Y-048000
X039750Y-049000
X039750Y-050000
X039750Y-051000
X045750Y-038000
X045750Y-039000
X045750Y-040000
X045750Y-041000
X045750Y-042000
X045750Y-043000
X045750Y-044000
X045750Y-045000
X045750Y-046000
X045750Y-047000
X045750Y-048000
X045750Y-049000
X045750Y-050000
X045750Y-051000
T4
X026750Y-050069
T5
X025500Y-022250
X036500Y-033500
X047500Y-022250
T0
M30
