M48
; DRILL file {KiCad 5.1.6-c6e7f7d~87~ubuntu20.04.1} date Wed Jul 22 10:08:33 2020
; FORMAT={2:4/ absolute / inch / keep zeros}
; #@! TF.CreationDate,2020-07-22T10:08:33-04:00
; #@! TF.GenerationSoftware,Kicad,Pcbnew,5.1.6-c6e7f7d~87~ubuntu20.04.1
; #@! TF.FileFunction,Plated,1,2,PTH
FMAT,2
INCH
T1C0.0400
T2C0.0600
T3C0.0669
T4C0.1300
T5C0.1654
T6C0.1660
%
G90
G05
T1
X029750Y-039000
X029750Y-040000
X029750Y-041000
X029750Y-042000
X029750Y-043000
X029750Y-044000
X029750Y-045000
X029750Y-046000
X029750Y-047000
X029750Y-048000
X029750Y-049000
X029750Y-050000
X029750Y-051000
X029750Y-052000
X029750Y-053000
X029750Y-054000
X039750Y-039000
X039750Y-040000
X039750Y-041000
X039750Y-042000
X039750Y-043000
X039750Y-044000
X039750Y-045000
X039750Y-046000
X039750Y-047000
X039750Y-048000
X039750Y-049000
X039750Y-050000
X039750Y-051000
X039750Y-052000
X039750Y-053000
X039750Y-054000
T2
X020750Y-023750
X020750Y-024750
X042750Y-026750
X042750Y-027750
X020750Y-026750
X020750Y-027750
X042750Y-029750
X042750Y-030750
X031750Y-029750
X031750Y-030750
X042750Y-023750
X042750Y-024750
X031750Y-023750
X031750Y-024750
X031750Y-026750
X031750Y-027750
X020750Y-029750
X020750Y-030750
T3
X033136Y-050287
X036364Y-050287
T4
X047500Y-022250
X025500Y-022250
X036500Y-033500
T5
X034750Y-049500
T6
X023250Y-027250
X023250Y-053250
X046250Y-027250
X046250Y-053250
T0
M30
