%TF.GenerationSoftware,KiCad,Pcbnew,5.1.6-c6e7f7d~87~ubuntu20.04.1*%
%TF.CreationDate,2020-07-21T15:37:17-04:00*%
%TF.ProjectId,y_arena_valve_controller,795f6172-656e-4615-9f76-616c76655f63,1.1*%
%TF.SameCoordinates,Original*%
%TF.FileFunction,Legend,Top*%
%TF.FilePolarity,Positive*%
%FSLAX46Y46*%
G04 Gerber Fmt 4.6, Leading zero omitted, Abs format (unit mm)*
G04 Created by KiCad (PCBNEW 5.1.6-c6e7f7d~87~ubuntu20.04.1) date 2020-07-21 15:37:17*
%MOMM*%
%LPD*%
G01*
G04 APERTURE LIST*
%ADD10C,0.381000*%
%ADD11C,0.279400*%
%ADD12C,0.150000*%
%ADD13C,0.177800*%
%ADD14C,0.228600*%
%ADD15C,0.400000*%
%ADD16C,0.254000*%
%ADD17C,0.158750*%
%ADD18O,2.132000X1.624000*%
%ADD19C,6.297600*%
%ADD20C,2.386000*%
%ADD21C,1.000000*%
%ADD22C,3.656000*%
%ADD23R,1.700200X0.887400*%
%ADD24R,4.000000X5.160000*%
%ADD25R,1.800000X1.640000*%
%ADD26C,4.600000*%
%ADD27C,2.000000*%
%ADD28R,5.100000X5.300000*%
%ADD29R,3.850000X5.100000*%
G04 APERTURE END LIST*
D10*
X64316428Y-131862285D02*
X65332428Y-131499428D01*
X64316428Y-131136571D02*
X65332428Y-131499428D01*
X65695285Y-131644571D01*
X65767857Y-131717142D01*
X65840428Y-131862285D01*
X65477571Y-130918857D02*
X65477571Y-129757714D01*
X65332428Y-128741714D02*
X64534142Y-128741714D01*
X64389000Y-128814285D01*
X64316428Y-128959428D01*
X64316428Y-129249714D01*
X64389000Y-129394857D01*
X65259857Y-128741714D02*
X65332428Y-128886857D01*
X65332428Y-129249714D01*
X65259857Y-129394857D01*
X65114714Y-129467428D01*
X64969571Y-129467428D01*
X64824428Y-129394857D01*
X64751857Y-129249714D01*
X64751857Y-128886857D01*
X64679285Y-128741714D01*
X65332428Y-128016000D02*
X64316428Y-128016000D01*
X64606714Y-128016000D02*
X64461571Y-127943428D01*
X64389000Y-127870857D01*
X64316428Y-127725714D01*
X64316428Y-127580571D01*
X65259857Y-126492000D02*
X65332428Y-126637142D01*
X65332428Y-126927428D01*
X65259857Y-127072571D01*
X65114714Y-127145142D01*
X64534142Y-127145142D01*
X64389000Y-127072571D01*
X64316428Y-126927428D01*
X64316428Y-126637142D01*
X64389000Y-126492000D01*
X64534142Y-126419428D01*
X64679285Y-126419428D01*
X64824428Y-127145142D01*
X64316428Y-125766285D02*
X65332428Y-125766285D01*
X64461571Y-125766285D02*
X64389000Y-125693714D01*
X64316428Y-125548571D01*
X64316428Y-125330857D01*
X64389000Y-125185714D01*
X64534142Y-125113142D01*
X65332428Y-125113142D01*
X65332428Y-123734285D02*
X64534142Y-123734285D01*
X64389000Y-123806857D01*
X64316428Y-123952000D01*
X64316428Y-124242285D01*
X64389000Y-124387428D01*
X65259857Y-123734285D02*
X65332428Y-123879428D01*
X65332428Y-124242285D01*
X65259857Y-124387428D01*
X65114714Y-124460000D01*
X64969571Y-124460000D01*
X64824428Y-124387428D01*
X64751857Y-124242285D01*
X64751857Y-123879428D01*
X64679285Y-123734285D01*
X65477571Y-123371428D02*
X65477571Y-122210285D01*
X64316428Y-121992571D02*
X65332428Y-121629714D01*
X64316428Y-121266857D01*
X65332428Y-120033142D02*
X64534142Y-120033142D01*
X64389000Y-120105714D01*
X64316428Y-120250857D01*
X64316428Y-120541142D01*
X64389000Y-120686285D01*
X65259857Y-120033142D02*
X65332428Y-120178285D01*
X65332428Y-120541142D01*
X65259857Y-120686285D01*
X65114714Y-120758857D01*
X64969571Y-120758857D01*
X64824428Y-120686285D01*
X64751857Y-120541142D01*
X64751857Y-120178285D01*
X64679285Y-120033142D01*
X65332428Y-119089714D02*
X65259857Y-119234857D01*
X65114714Y-119307428D01*
X63808428Y-119307428D01*
X64316428Y-118654285D02*
X65332428Y-118291428D01*
X64316428Y-117928571D01*
X65259857Y-116767428D02*
X65332428Y-116912571D01*
X65332428Y-117202857D01*
X65259857Y-117348000D01*
X65114714Y-117420571D01*
X64534142Y-117420571D01*
X64389000Y-117348000D01*
X64316428Y-117202857D01*
X64316428Y-116912571D01*
X64389000Y-116767428D01*
X64534142Y-116694857D01*
X64679285Y-116694857D01*
X64824428Y-117420571D01*
X65477571Y-116404571D02*
X65477571Y-115243428D01*
X65259857Y-114227428D02*
X65332428Y-114372571D01*
X65332428Y-114662857D01*
X65259857Y-114808000D01*
X65187285Y-114880571D01*
X65042142Y-114953142D01*
X64606714Y-114953142D01*
X64461571Y-114880571D01*
X64389000Y-114808000D01*
X64316428Y-114662857D01*
X64316428Y-114372571D01*
X64389000Y-114227428D01*
X65332428Y-113356571D02*
X65259857Y-113501714D01*
X65187285Y-113574285D01*
X65042142Y-113646857D01*
X64606714Y-113646857D01*
X64461571Y-113574285D01*
X64389000Y-113501714D01*
X64316428Y-113356571D01*
X64316428Y-113138857D01*
X64389000Y-112993714D01*
X64461571Y-112921142D01*
X64606714Y-112848571D01*
X65042142Y-112848571D01*
X65187285Y-112921142D01*
X65259857Y-112993714D01*
X65332428Y-113138857D01*
X65332428Y-113356571D01*
X64316428Y-112195428D02*
X65332428Y-112195428D01*
X64461571Y-112195428D02*
X64389000Y-112122857D01*
X64316428Y-111977714D01*
X64316428Y-111760000D01*
X64389000Y-111614857D01*
X64534142Y-111542285D01*
X65332428Y-111542285D01*
X64316428Y-111034285D02*
X64316428Y-110453714D01*
X63808428Y-110816571D02*
X65114714Y-110816571D01*
X65259857Y-110744000D01*
X65332428Y-110598857D01*
X65332428Y-110453714D01*
X65332428Y-109945714D02*
X64316428Y-109945714D01*
X64606714Y-109945714D02*
X64461571Y-109873142D01*
X64389000Y-109800571D01*
X64316428Y-109655428D01*
X64316428Y-109510285D01*
X65332428Y-108784571D02*
X65259857Y-108929714D01*
X65187285Y-109002285D01*
X65042142Y-109074857D01*
X64606714Y-109074857D01*
X64461571Y-109002285D01*
X64389000Y-108929714D01*
X64316428Y-108784571D01*
X64316428Y-108566857D01*
X64389000Y-108421714D01*
X64461571Y-108349142D01*
X64606714Y-108276571D01*
X65042142Y-108276571D01*
X65187285Y-108349142D01*
X65259857Y-108421714D01*
X65332428Y-108566857D01*
X65332428Y-108784571D01*
X65332428Y-107405714D02*
X65259857Y-107550857D01*
X65114714Y-107623428D01*
X63808428Y-107623428D01*
X65332428Y-106607428D02*
X65259857Y-106752571D01*
X65114714Y-106825142D01*
X63808428Y-106825142D01*
X65259857Y-105446285D02*
X65332428Y-105591428D01*
X65332428Y-105881714D01*
X65259857Y-106026857D01*
X65114714Y-106099428D01*
X64534142Y-106099428D01*
X64389000Y-106026857D01*
X64316428Y-105881714D01*
X64316428Y-105591428D01*
X64389000Y-105446285D01*
X64534142Y-105373714D01*
X64679285Y-105373714D01*
X64824428Y-106099428D01*
X65332428Y-104720571D02*
X64316428Y-104720571D01*
X64606714Y-104720571D02*
X64461571Y-104648000D01*
X64389000Y-104575428D01*
X64316428Y-104430285D01*
X64316428Y-104285142D01*
X66475428Y-132188857D02*
X67564000Y-132188857D01*
X67781714Y-132261428D01*
X67926857Y-132406571D01*
X67999428Y-132624285D01*
X67999428Y-132769428D01*
X67999428Y-130810000D02*
X67201142Y-130810000D01*
X67056000Y-130882571D01*
X66983428Y-131027714D01*
X66983428Y-131318000D01*
X67056000Y-131463142D01*
X67926857Y-130810000D02*
X67999428Y-130955142D01*
X67999428Y-131318000D01*
X67926857Y-131463142D01*
X67781714Y-131535714D01*
X67636571Y-131535714D01*
X67491428Y-131463142D01*
X67418857Y-131318000D01*
X67418857Y-130955142D01*
X67346285Y-130810000D01*
X66983428Y-130084285D02*
X67999428Y-130084285D01*
X67128571Y-130084285D02*
X67056000Y-130011714D01*
X66983428Y-129866571D01*
X66983428Y-129648857D01*
X67056000Y-129503714D01*
X67201142Y-129431142D01*
X67999428Y-129431142D01*
X67926857Y-128124857D02*
X67999428Y-128270000D01*
X67999428Y-128560285D01*
X67926857Y-128705428D01*
X67781714Y-128778000D01*
X67201142Y-128778000D01*
X67056000Y-128705428D01*
X66983428Y-128560285D01*
X66983428Y-128270000D01*
X67056000Y-128124857D01*
X67201142Y-128052285D01*
X67346285Y-128052285D01*
X67491428Y-128778000D01*
X67999428Y-127181428D02*
X67926857Y-127326571D01*
X67781714Y-127399142D01*
X66475428Y-127399142D01*
X67999428Y-126600857D02*
X66983428Y-126600857D01*
X66475428Y-126600857D02*
X66548000Y-126673428D01*
X66620571Y-126600857D01*
X66548000Y-126528285D01*
X66475428Y-126600857D01*
X66620571Y-126600857D01*
X67999428Y-125222000D02*
X67201142Y-125222000D01*
X67056000Y-125294571D01*
X66983428Y-125439714D01*
X66983428Y-125730000D01*
X67056000Y-125875142D01*
X67926857Y-125222000D02*
X67999428Y-125367142D01*
X67999428Y-125730000D01*
X67926857Y-125875142D01*
X67781714Y-125947714D01*
X67636571Y-125947714D01*
X67491428Y-125875142D01*
X67418857Y-125730000D01*
X67418857Y-125367142D01*
X67346285Y-125222000D01*
X67999428Y-122464285D02*
X67273714Y-122972285D01*
X67999428Y-123335142D02*
X66475428Y-123335142D01*
X66475428Y-122754571D01*
X66548000Y-122609428D01*
X66620571Y-122536857D01*
X66765714Y-122464285D01*
X66983428Y-122464285D01*
X67128571Y-122536857D01*
X67201142Y-122609428D01*
X67273714Y-122754571D01*
X67273714Y-123335142D01*
X67926857Y-121230571D02*
X67999428Y-121375714D01*
X67999428Y-121666000D01*
X67926857Y-121811142D01*
X67781714Y-121883714D01*
X67201142Y-121883714D01*
X67056000Y-121811142D01*
X66983428Y-121666000D01*
X66983428Y-121375714D01*
X67056000Y-121230571D01*
X67201142Y-121158000D01*
X67346285Y-121158000D01*
X67491428Y-121883714D01*
X67926857Y-120577428D02*
X67999428Y-120432285D01*
X67999428Y-120142000D01*
X67926857Y-119996857D01*
X67781714Y-119924285D01*
X67709142Y-119924285D01*
X67564000Y-119996857D01*
X67491428Y-120142000D01*
X67491428Y-120359714D01*
X67418857Y-120504857D01*
X67273714Y-120577428D01*
X67201142Y-120577428D01*
X67056000Y-120504857D01*
X66983428Y-120359714D01*
X66983428Y-120142000D01*
X67056000Y-119996857D01*
X67926857Y-118690571D02*
X67999428Y-118835714D01*
X67999428Y-119126000D01*
X67926857Y-119271142D01*
X67781714Y-119343714D01*
X67201142Y-119343714D01*
X67056000Y-119271142D01*
X66983428Y-119126000D01*
X66983428Y-118835714D01*
X67056000Y-118690571D01*
X67201142Y-118618000D01*
X67346285Y-118618000D01*
X67491428Y-119343714D01*
X67999428Y-117311714D02*
X67201142Y-117311714D01*
X67056000Y-117384285D01*
X66983428Y-117529428D01*
X66983428Y-117819714D01*
X67056000Y-117964857D01*
X67926857Y-117311714D02*
X67999428Y-117456857D01*
X67999428Y-117819714D01*
X67926857Y-117964857D01*
X67781714Y-118037428D01*
X67636571Y-118037428D01*
X67491428Y-117964857D01*
X67418857Y-117819714D01*
X67418857Y-117456857D01*
X67346285Y-117311714D01*
X67999428Y-116586000D02*
X66983428Y-116586000D01*
X67273714Y-116586000D02*
X67128571Y-116513428D01*
X67056000Y-116440857D01*
X66983428Y-116295714D01*
X66983428Y-116150571D01*
X67926857Y-114989428D02*
X67999428Y-115134571D01*
X67999428Y-115424857D01*
X67926857Y-115570000D01*
X67854285Y-115642571D01*
X67709142Y-115715142D01*
X67273714Y-115715142D01*
X67128571Y-115642571D01*
X67056000Y-115570000D01*
X66983428Y-115424857D01*
X66983428Y-115134571D01*
X67056000Y-114989428D01*
X67999428Y-114336285D02*
X66475428Y-114336285D01*
X67999428Y-113683142D02*
X67201142Y-113683142D01*
X67056000Y-113755714D01*
X66983428Y-113900857D01*
X66983428Y-114118571D01*
X67056000Y-114263714D01*
X67128571Y-114336285D01*
X67854285Y-110925428D02*
X67926857Y-110998000D01*
X67999428Y-111215714D01*
X67999428Y-111360857D01*
X67926857Y-111578571D01*
X67781714Y-111723714D01*
X67636571Y-111796285D01*
X67346285Y-111868857D01*
X67128571Y-111868857D01*
X66838285Y-111796285D01*
X66693142Y-111723714D01*
X66548000Y-111578571D01*
X66475428Y-111360857D01*
X66475428Y-111215714D01*
X66548000Y-110998000D01*
X66620571Y-110925428D01*
X67999428Y-109619142D02*
X67201142Y-109619142D01*
X67056000Y-109691714D01*
X66983428Y-109836857D01*
X66983428Y-110127142D01*
X67056000Y-110272285D01*
X67926857Y-109619142D02*
X67999428Y-109764285D01*
X67999428Y-110127142D01*
X67926857Y-110272285D01*
X67781714Y-110344857D01*
X67636571Y-110344857D01*
X67491428Y-110272285D01*
X67418857Y-110127142D01*
X67418857Y-109764285D01*
X67346285Y-109619142D01*
X67999428Y-108893428D02*
X66983428Y-108893428D01*
X67128571Y-108893428D02*
X67056000Y-108820857D01*
X66983428Y-108675714D01*
X66983428Y-108458000D01*
X67056000Y-108312857D01*
X67201142Y-108240285D01*
X67999428Y-108240285D01*
X67201142Y-108240285D02*
X67056000Y-108167714D01*
X66983428Y-108022571D01*
X66983428Y-107804857D01*
X67056000Y-107659714D01*
X67201142Y-107587142D01*
X67999428Y-107587142D01*
X66983428Y-106861428D02*
X68507428Y-106861428D01*
X67056000Y-106861428D02*
X66983428Y-106716285D01*
X66983428Y-106426000D01*
X67056000Y-106280857D01*
X67128571Y-106208285D01*
X67273714Y-106135714D01*
X67709142Y-106135714D01*
X67854285Y-106208285D01*
X67926857Y-106280857D01*
X67999428Y-106426000D01*
X67999428Y-106716285D01*
X67926857Y-106861428D01*
X66983428Y-104829428D02*
X67999428Y-104829428D01*
X66983428Y-105482571D02*
X67781714Y-105482571D01*
X67926857Y-105410000D01*
X67999428Y-105264857D01*
X67999428Y-105047142D01*
X67926857Y-104902000D01*
X67854285Y-104829428D01*
X67926857Y-104176285D02*
X67999428Y-104031142D01*
X67999428Y-103740857D01*
X67926857Y-103595714D01*
X67781714Y-103523142D01*
X67709142Y-103523142D01*
X67564000Y-103595714D01*
X67491428Y-103740857D01*
X67491428Y-103958571D01*
X67418857Y-104103714D01*
X67273714Y-104176285D01*
X67201142Y-104176285D01*
X67056000Y-104103714D01*
X66983428Y-103958571D01*
X66983428Y-103740857D01*
X67056000Y-103595714D01*
X69142428Y-129540000D02*
X69142428Y-129394857D01*
X69215000Y-129249714D01*
X69287571Y-129177142D01*
X69432714Y-129104571D01*
X69723000Y-129032000D01*
X70085857Y-129032000D01*
X70376142Y-129104571D01*
X70521285Y-129177142D01*
X70593857Y-129249714D01*
X70666428Y-129394857D01*
X70666428Y-129540000D01*
X70593857Y-129685142D01*
X70521285Y-129757714D01*
X70376142Y-129830285D01*
X70085857Y-129902857D01*
X69723000Y-129902857D01*
X69432714Y-129830285D01*
X69287571Y-129757714D01*
X69215000Y-129685142D01*
X69142428Y-129540000D01*
X69142428Y-128524000D02*
X69142428Y-127508000D01*
X70666428Y-128161142D01*
X69069857Y-125838857D02*
X71029285Y-127145142D01*
X69287571Y-125403428D02*
X69215000Y-125330857D01*
X69142428Y-125185714D01*
X69142428Y-124822857D01*
X69215000Y-124677714D01*
X69287571Y-124605142D01*
X69432714Y-124532571D01*
X69577857Y-124532571D01*
X69795571Y-124605142D01*
X70666428Y-125476000D01*
X70666428Y-124532571D01*
X69142428Y-123589142D02*
X69142428Y-123444000D01*
X69215000Y-123298857D01*
X69287571Y-123226285D01*
X69432714Y-123153714D01*
X69723000Y-123081142D01*
X70085857Y-123081142D01*
X70376142Y-123153714D01*
X70521285Y-123226285D01*
X70593857Y-123298857D01*
X70666428Y-123444000D01*
X70666428Y-123589142D01*
X70593857Y-123734285D01*
X70521285Y-123806857D01*
X70376142Y-123879428D01*
X70085857Y-123952000D01*
X69723000Y-123952000D01*
X69432714Y-123879428D01*
X69287571Y-123806857D01*
X69215000Y-123734285D01*
X69142428Y-123589142D01*
X69069857Y-121339428D02*
X71029285Y-122645714D01*
X69287571Y-120904000D02*
X69215000Y-120831428D01*
X69142428Y-120686285D01*
X69142428Y-120323428D01*
X69215000Y-120178285D01*
X69287571Y-120105714D01*
X69432714Y-120033142D01*
X69577857Y-120033142D01*
X69795571Y-120105714D01*
X70666428Y-120976571D01*
X70666428Y-120033142D01*
X69142428Y-119089714D02*
X69142428Y-118944571D01*
X69215000Y-118799428D01*
X69287571Y-118726857D01*
X69432714Y-118654285D01*
X69723000Y-118581714D01*
X70085857Y-118581714D01*
X70376142Y-118654285D01*
X70521285Y-118726857D01*
X70593857Y-118799428D01*
X70666428Y-118944571D01*
X70666428Y-119089714D01*
X70593857Y-119234857D01*
X70521285Y-119307428D01*
X70376142Y-119380000D01*
X70085857Y-119452571D01*
X69723000Y-119452571D01*
X69432714Y-119380000D01*
X69287571Y-119307428D01*
X69215000Y-119234857D01*
X69142428Y-119089714D01*
X69287571Y-118001142D02*
X69215000Y-117928571D01*
X69142428Y-117783428D01*
X69142428Y-117420571D01*
X69215000Y-117275428D01*
X69287571Y-117202857D01*
X69432714Y-117130285D01*
X69577857Y-117130285D01*
X69795571Y-117202857D01*
X70666428Y-118073714D01*
X70666428Y-117130285D01*
X69142428Y-116186857D02*
X69142428Y-116041714D01*
X69215000Y-115896571D01*
X69287571Y-115824000D01*
X69432714Y-115751428D01*
X69723000Y-115678857D01*
X70085857Y-115678857D01*
X70376142Y-115751428D01*
X70521285Y-115824000D01*
X70593857Y-115896571D01*
X70666428Y-116041714D01*
X70666428Y-116186857D01*
X70593857Y-116332000D01*
X70521285Y-116404571D01*
X70376142Y-116477142D01*
X70085857Y-116549714D01*
X69723000Y-116549714D01*
X69432714Y-116477142D01*
X69287571Y-116404571D01*
X69215000Y-116332000D01*
X69142428Y-116186857D01*
X69650428Y-114009714D02*
X70666428Y-113646857D01*
X69650428Y-113284000D01*
X70593857Y-112122857D02*
X70666428Y-112268000D01*
X70666428Y-112558285D01*
X70593857Y-112703428D01*
X70448714Y-112776000D01*
X69868142Y-112776000D01*
X69723000Y-112703428D01*
X69650428Y-112558285D01*
X69650428Y-112268000D01*
X69723000Y-112122857D01*
X69868142Y-112050285D01*
X70013285Y-112050285D01*
X70158428Y-112776000D01*
X70666428Y-111397142D02*
X69650428Y-111397142D01*
X69940714Y-111397142D02*
X69795571Y-111324571D01*
X69723000Y-111252000D01*
X69650428Y-111106857D01*
X69650428Y-110961714D01*
X70666428Y-108494285D02*
X70666428Y-109365142D01*
X70666428Y-108929714D02*
X69142428Y-108929714D01*
X69360142Y-109074857D01*
X69505285Y-109220000D01*
X69577857Y-109365142D01*
X70521285Y-107841142D02*
X70593857Y-107768571D01*
X70666428Y-107841142D01*
X70593857Y-107913714D01*
X70521285Y-107841142D01*
X70666428Y-107841142D01*
X70666428Y-106317142D02*
X70666428Y-107188000D01*
X70666428Y-106752571D02*
X69142428Y-106752571D01*
X69360142Y-106897714D01*
X69505285Y-107042857D01*
X69577857Y-107188000D01*
X105264857Y-133168571D02*
X105337428Y-133096000D01*
X105482571Y-133023428D01*
X105845428Y-133023428D01*
X105990571Y-133096000D01*
X106063142Y-133168571D01*
X106135714Y-133313714D01*
X106135714Y-133458857D01*
X106063142Y-133676571D01*
X105192285Y-134547428D01*
X106135714Y-134547428D01*
X106788857Y-134402285D02*
X106861428Y-134474857D01*
X106788857Y-134547428D01*
X106716285Y-134474857D01*
X106788857Y-134402285D01*
X106788857Y-134547428D01*
X108312857Y-134547428D02*
X107442000Y-134547428D01*
X107877428Y-134547428D02*
X107877428Y-133023428D01*
X107732285Y-133241142D01*
X107587142Y-133386285D01*
X107442000Y-133458857D01*
X108820857Y-134547428D02*
X109619142Y-133531428D01*
X108820857Y-133531428D02*
X109619142Y-134547428D01*
X110925428Y-133023428D02*
X110199714Y-133023428D01*
X110127142Y-133749142D01*
X110199714Y-133676571D01*
X110344857Y-133604000D01*
X110707714Y-133604000D01*
X110852857Y-133676571D01*
X110925428Y-133749142D01*
X110998000Y-133894285D01*
X110998000Y-134257142D01*
X110925428Y-134402285D01*
X110852857Y-134474857D01*
X110707714Y-134547428D01*
X110344857Y-134547428D01*
X110199714Y-134474857D01*
X110127142Y-134402285D01*
X111651142Y-134402285D02*
X111723714Y-134474857D01*
X111651142Y-134547428D01*
X111578571Y-134474857D01*
X111651142Y-134402285D01*
X111651142Y-134547428D01*
X113102571Y-133023428D02*
X112376857Y-133023428D01*
X112304285Y-133749142D01*
X112376857Y-133676571D01*
X112522000Y-133604000D01*
X112884857Y-133604000D01*
X113030000Y-133676571D01*
X113102571Y-133749142D01*
X113175142Y-133894285D01*
X113175142Y-134257142D01*
X113102571Y-134402285D01*
X113030000Y-134474857D01*
X112884857Y-134547428D01*
X112522000Y-134547428D01*
X112376857Y-134474857D01*
X112304285Y-134402285D01*
X105264857Y-137069285D02*
X105192285Y-137141857D01*
X104974571Y-137214428D01*
X104829428Y-137214428D01*
X104611714Y-137141857D01*
X104466571Y-136996714D01*
X104394000Y-136851571D01*
X104321428Y-136561285D01*
X104321428Y-136343571D01*
X104394000Y-136053285D01*
X104466571Y-135908142D01*
X104611714Y-135763000D01*
X104829428Y-135690428D01*
X104974571Y-135690428D01*
X105192285Y-135763000D01*
X105264857Y-135835571D01*
X106498571Y-137141857D02*
X106353428Y-137214428D01*
X106063142Y-137214428D01*
X105918000Y-137141857D01*
X105845428Y-136996714D01*
X105845428Y-136416142D01*
X105918000Y-136271000D01*
X106063142Y-136198428D01*
X106353428Y-136198428D01*
X106498571Y-136271000D01*
X106571142Y-136416142D01*
X106571142Y-136561285D01*
X105845428Y-136706428D01*
X107224285Y-136198428D02*
X107224285Y-137214428D01*
X107224285Y-136343571D02*
X107296857Y-136271000D01*
X107442000Y-136198428D01*
X107659714Y-136198428D01*
X107804857Y-136271000D01*
X107877428Y-136416142D01*
X107877428Y-137214428D01*
X108385428Y-136198428D02*
X108966000Y-136198428D01*
X108603142Y-135690428D02*
X108603142Y-136996714D01*
X108675714Y-137141857D01*
X108820857Y-137214428D01*
X108966000Y-137214428D01*
X110054571Y-137141857D02*
X109909428Y-137214428D01*
X109619142Y-137214428D01*
X109474000Y-137141857D01*
X109401428Y-136996714D01*
X109401428Y-136416142D01*
X109474000Y-136271000D01*
X109619142Y-136198428D01*
X109909428Y-136198428D01*
X110054571Y-136271000D01*
X110127142Y-136416142D01*
X110127142Y-136561285D01*
X109401428Y-136706428D01*
X110780285Y-137214428D02*
X110780285Y-136198428D01*
X110780285Y-136488714D02*
X110852857Y-136343571D01*
X110925428Y-136271000D01*
X111070571Y-136198428D01*
X111215714Y-136198428D01*
X112884857Y-136633857D02*
X114046000Y-136633857D01*
X113465428Y-137214428D02*
X113465428Y-136053285D01*
X105010857Y-139300857D02*
X106172000Y-139300857D01*
X105591428Y-139881428D02*
X105591428Y-138720285D01*
X107696000Y-139881428D02*
X106825142Y-139881428D01*
X107260571Y-139881428D02*
X107260571Y-138357428D01*
X107115428Y-138575142D01*
X106970285Y-138720285D01*
X106825142Y-138792857D01*
X108276571Y-138502571D02*
X108349142Y-138430000D01*
X108494285Y-138357428D01*
X108857142Y-138357428D01*
X109002285Y-138430000D01*
X109074857Y-138502571D01*
X109147428Y-138647714D01*
X109147428Y-138792857D01*
X109074857Y-139010571D01*
X108204000Y-139881428D01*
X109147428Y-139881428D01*
X109582857Y-138357428D02*
X110090857Y-139881428D01*
X110598857Y-138357428D01*
X111106857Y-139881428D02*
X111106857Y-138357428D01*
X111469714Y-138357428D01*
X111687428Y-138430000D01*
X111832571Y-138575142D01*
X111905142Y-138720285D01*
X111977714Y-139010571D01*
X111977714Y-139228285D01*
X111905142Y-139518571D01*
X111832571Y-139663714D01*
X111687428Y-139808857D01*
X111469714Y-139881428D01*
X111106857Y-139881428D01*
X113501714Y-139736285D02*
X113429142Y-139808857D01*
X113211428Y-139881428D01*
X113066285Y-139881428D01*
X112848571Y-139808857D01*
X112703428Y-139663714D01*
X112630857Y-139518571D01*
X112558285Y-139228285D01*
X112558285Y-139010571D01*
X112630857Y-138720285D01*
X112703428Y-138575142D01*
X112848571Y-138430000D01*
X113066285Y-138357428D01*
X113211428Y-138357428D01*
X113429142Y-138430000D01*
X113501714Y-138502571D01*
D11*
%TO.C,PHIDGET1*%
X103505000Y-139700000D02*
X103505000Y-96520000D01*
X103505000Y-96520000D02*
X98425000Y-96520000D01*
X98425000Y-96520000D02*
X98425000Y-139700000D01*
X98425000Y-139700000D02*
X103505000Y-139700000D01*
X96520000Y-121920000D02*
X98425000Y-121920000D01*
X96520000Y-121920000D02*
X96520000Y-114300000D01*
X98425000Y-114300000D02*
X96520000Y-114300000D01*
X97155000Y-100330000D02*
X97155000Y-97790000D01*
X97155000Y-97790000D02*
X98425000Y-99060000D01*
X98425000Y-99060000D02*
X97155000Y-100330000D01*
X79375000Y-138430000D02*
X78105000Y-137160000D01*
X79375000Y-135890000D02*
X79375000Y-138430000D01*
X78105000Y-96520000D02*
X73025000Y-96520000D01*
X73025000Y-96520000D02*
X73025000Y-139700000D01*
X78105000Y-139700000D02*
X78105000Y-96520000D01*
X78105000Y-137160000D02*
X79375000Y-135890000D01*
X73025000Y-139700000D02*
X78105000Y-139700000D01*
X78105000Y-121920000D02*
X80010000Y-121920000D01*
X80010000Y-114300000D02*
X78105000Y-114300000D01*
X80010000Y-114300000D02*
X80010000Y-121920000D01*
%TO.C,S1*%
X58521600Y-73101200D02*
X54737000Y-73101200D01*
X58521600Y-80568800D02*
X58521600Y-73101200D01*
X54737000Y-80568800D02*
X58521600Y-80568800D01*
X58470800Y-76835000D02*
G75*
G03*
X58470800Y-76835000I-3733800J0D01*
G01*
D12*
X53975000Y-75565000D02*
G75*
G03*
X53975000Y-75565000I-1270000J0D01*
G01*
X53975000Y-78105000D02*
G75*
G03*
X53975000Y-78105000I-1270000J0D01*
G01*
D11*
X68173600Y-80568800D02*
X68173600Y-73101200D01*
X68173600Y-80568800D02*
X58521600Y-80568800D01*
X68173600Y-73101200D02*
X58521600Y-73101200D01*
X65633600Y-80568800D02*
X65633600Y-73101200D01*
X60553600Y-80568800D02*
X60553600Y-73101200D01*
%TO.C,S2*%
X58521600Y-65481200D02*
X54737000Y-65481200D01*
X58521600Y-72948800D02*
X58521600Y-65481200D01*
X54737000Y-72948800D02*
X58521600Y-72948800D01*
X58470800Y-69215000D02*
G75*
G03*
X58470800Y-69215000I-3733800J0D01*
G01*
D12*
X53975000Y-67945000D02*
G75*
G03*
X53975000Y-67945000I-1270000J0D01*
G01*
X53975000Y-70485000D02*
G75*
G03*
X53975000Y-70485000I-1270000J0D01*
G01*
D11*
X68173600Y-72948800D02*
X68173600Y-65481200D01*
X68173600Y-72948800D02*
X58521600Y-72948800D01*
X68173600Y-65481200D02*
X58521600Y-65481200D01*
X65633600Y-72948800D02*
X65633600Y-65481200D01*
X60553600Y-72948800D02*
X60553600Y-65481200D01*
%TO.C,S3*%
X58521600Y-57861200D02*
X54737000Y-57861200D01*
X58521600Y-65328800D02*
X58521600Y-57861200D01*
X54737000Y-65328800D02*
X58521600Y-65328800D01*
X58470800Y-61595000D02*
G75*
G03*
X58470800Y-61595000I-3733800J0D01*
G01*
D12*
X53975000Y-60325000D02*
G75*
G03*
X53975000Y-60325000I-1270000J0D01*
G01*
X53975000Y-62865000D02*
G75*
G03*
X53975000Y-62865000I-1270000J0D01*
G01*
D11*
X68173600Y-65328800D02*
X68173600Y-57861200D01*
X68173600Y-65328800D02*
X58521600Y-65328800D01*
X68173600Y-57861200D02*
X58521600Y-57861200D01*
X65633600Y-65328800D02*
X65633600Y-57861200D01*
X60553600Y-65328800D02*
X60553600Y-57861200D01*
%TO.C,S4*%
X86461600Y-73101200D02*
X82677000Y-73101200D01*
X86461600Y-80568800D02*
X86461600Y-73101200D01*
X82677000Y-80568800D02*
X86461600Y-80568800D01*
X86410800Y-76835000D02*
G75*
G03*
X86410800Y-76835000I-3733800J0D01*
G01*
D12*
X81915000Y-75565000D02*
G75*
G03*
X81915000Y-75565000I-1270000J0D01*
G01*
X81915000Y-78105000D02*
G75*
G03*
X81915000Y-78105000I-1270000J0D01*
G01*
D11*
X96113600Y-80568800D02*
X96113600Y-73101200D01*
X96113600Y-80568800D02*
X86461600Y-80568800D01*
X96113600Y-73101200D02*
X86461600Y-73101200D01*
X93573600Y-80568800D02*
X93573600Y-73101200D01*
X88493600Y-80568800D02*
X88493600Y-73101200D01*
%TO.C,S5*%
X86461600Y-65481200D02*
X82677000Y-65481200D01*
X86461600Y-72948800D02*
X86461600Y-65481200D01*
X82677000Y-72948800D02*
X86461600Y-72948800D01*
X86410800Y-69215000D02*
G75*
G03*
X86410800Y-69215000I-3733800J0D01*
G01*
D12*
X81915000Y-67945000D02*
G75*
G03*
X81915000Y-67945000I-1270000J0D01*
G01*
X81915000Y-70485000D02*
G75*
G03*
X81915000Y-70485000I-1270000J0D01*
G01*
D11*
X96113600Y-72948800D02*
X96113600Y-65481200D01*
X96113600Y-72948800D02*
X86461600Y-72948800D01*
X96113600Y-65481200D02*
X86461600Y-65481200D01*
X93573600Y-72948800D02*
X93573600Y-65481200D01*
X88493600Y-72948800D02*
X88493600Y-65481200D01*
%TO.C,S6*%
X86461600Y-57861200D02*
X82677000Y-57861200D01*
X86461600Y-65328800D02*
X86461600Y-57861200D01*
X82677000Y-65328800D02*
X86461600Y-65328800D01*
X86410800Y-61595000D02*
G75*
G03*
X86410800Y-61595000I-3733800J0D01*
G01*
D12*
X81915000Y-60325000D02*
G75*
G03*
X81915000Y-60325000I-1270000J0D01*
G01*
X81915000Y-62865000D02*
G75*
G03*
X81915000Y-62865000I-1270000J0D01*
G01*
D11*
X96113600Y-65328800D02*
X96113600Y-57861200D01*
X96113600Y-65328800D02*
X86461600Y-65328800D01*
X96113600Y-57861200D02*
X86461600Y-57861200D01*
X93573600Y-65328800D02*
X93573600Y-57861200D01*
X88493600Y-65328800D02*
X88493600Y-57861200D01*
%TO.C,S7*%
X114401600Y-73101200D02*
X110617000Y-73101200D01*
X114401600Y-80568800D02*
X114401600Y-73101200D01*
X110617000Y-80568800D02*
X114401600Y-80568800D01*
X114350800Y-76835000D02*
G75*
G03*
X114350800Y-76835000I-3733800J0D01*
G01*
D12*
X109855000Y-75565000D02*
G75*
G03*
X109855000Y-75565000I-1270000J0D01*
G01*
X109855000Y-78105000D02*
G75*
G03*
X109855000Y-78105000I-1270000J0D01*
G01*
D11*
X124053600Y-80568800D02*
X124053600Y-73101200D01*
X124053600Y-80568800D02*
X114401600Y-80568800D01*
X124053600Y-73101200D02*
X114401600Y-73101200D01*
X121513600Y-80568800D02*
X121513600Y-73101200D01*
X116433600Y-80568800D02*
X116433600Y-73101200D01*
%TO.C,S8*%
X114401600Y-65481200D02*
X110617000Y-65481200D01*
X114401600Y-72948800D02*
X114401600Y-65481200D01*
X110617000Y-72948800D02*
X114401600Y-72948800D01*
X114350800Y-69215000D02*
G75*
G03*
X114350800Y-69215000I-3733800J0D01*
G01*
D12*
X109855000Y-67945000D02*
G75*
G03*
X109855000Y-67945000I-1270000J0D01*
G01*
X109855000Y-70485000D02*
G75*
G03*
X109855000Y-70485000I-1270000J0D01*
G01*
D11*
X124053600Y-72948800D02*
X124053600Y-65481200D01*
X124053600Y-72948800D02*
X114401600Y-72948800D01*
X124053600Y-65481200D02*
X114401600Y-65481200D01*
X121513600Y-72948800D02*
X121513600Y-65481200D01*
X116433600Y-72948800D02*
X116433600Y-65481200D01*
%TO.C,S9*%
X114401600Y-57861200D02*
X110617000Y-57861200D01*
X114401600Y-65328800D02*
X114401600Y-57861200D01*
X110617000Y-65328800D02*
X114401600Y-65328800D01*
X114350800Y-61595000D02*
G75*
G03*
X114350800Y-61595000I-3733800J0D01*
G01*
D12*
X109855000Y-60325000D02*
G75*
G03*
X109855000Y-60325000I-1270000J0D01*
G01*
X109855000Y-62865000D02*
G75*
G03*
X109855000Y-62865000I-1270000J0D01*
G01*
D11*
X124053600Y-65328800D02*
X124053600Y-57861200D01*
X124053600Y-65328800D02*
X114401600Y-65328800D01*
X124053600Y-57861200D02*
X114401600Y-57861200D01*
X121513600Y-65328800D02*
X121513600Y-57861200D01*
X116433600Y-65328800D02*
X116433600Y-57861200D01*
D13*
%TO.C,C1*%
X82296000Y-110744000D02*
X82296000Y-109855000D01*
X84074000Y-110744000D02*
X82296000Y-110744000D01*
X84074000Y-109855000D02*
X84074000Y-110744000D01*
X82296000Y-107696000D02*
X82296000Y-108585000D01*
X84074000Y-107696000D02*
X82296000Y-107696000D01*
X84074000Y-108585000D02*
X84074000Y-107696000D01*
D14*
%TO.C,D1*%
X90565000Y-112970000D02*
X85965000Y-112970000D01*
X85965000Y-112970000D02*
X85965000Y-105470000D01*
X85965000Y-105470000D02*
X90565000Y-105470000D01*
X90565000Y-105470000D02*
X90565000Y-112970000D01*
D15*
%TO.C,P1*%
X81765000Y-135530000D02*
X94765000Y-135530000D01*
X81765000Y-119830000D02*
X94765000Y-119830000D01*
X81765000Y-119830000D02*
X81765000Y-135530000D01*
X94765000Y-119830000D02*
X94765000Y-135530000D01*
%TO.C,PHIDGET1*%
D16*
X79931380Y-134571619D02*
X79931380Y-134668380D01*
X79883000Y-134765142D01*
X79834619Y-134813523D01*
X79737857Y-134861904D01*
X79544333Y-134910285D01*
X79302428Y-134910285D01*
X79108904Y-134861904D01*
X79012142Y-134813523D01*
X78963761Y-134765142D01*
X78915380Y-134668380D01*
X78915380Y-134571619D01*
X78963761Y-134474857D01*
X79012142Y-134426476D01*
X79108904Y-134378095D01*
X79302428Y-134329714D01*
X79544333Y-134329714D01*
X79737857Y-134378095D01*
X79834619Y-134426476D01*
X79883000Y-134474857D01*
X79931380Y-134571619D01*
X78915380Y-129830285D02*
X78915380Y-129249714D01*
X78915380Y-129540000D02*
X79931380Y-129540000D01*
X79786238Y-129443238D01*
X79689476Y-129346476D01*
X79641095Y-129249714D01*
X79931380Y-98721333D02*
X79931380Y-99398666D01*
X78915380Y-98963238D01*
X79931380Y-104333523D02*
X79931380Y-104140000D01*
X79883000Y-104043238D01*
X79834619Y-103994857D01*
X79689476Y-103898095D01*
X79495952Y-103849714D01*
X79108904Y-103849714D01*
X79012142Y-103898095D01*
X78963761Y-103946476D01*
X78915380Y-104043238D01*
X78915380Y-104236761D01*
X78963761Y-104333523D01*
X79012142Y-104381904D01*
X79108904Y-104430285D01*
X79350809Y-104430285D01*
X79447571Y-104381904D01*
X79495952Y-104333523D01*
X79544333Y-104236761D01*
X79544333Y-104043238D01*
X79495952Y-103946476D01*
X79447571Y-103898095D01*
X79350809Y-103849714D01*
X79931380Y-109461904D02*
X79931380Y-108978095D01*
X79447571Y-108929714D01*
X79495952Y-108978095D01*
X79544333Y-109074857D01*
X79544333Y-109316761D01*
X79495952Y-109413523D01*
X79447571Y-109461904D01*
X79350809Y-109510285D01*
X79108904Y-109510285D01*
X79012142Y-109461904D01*
X78963761Y-109413523D01*
X78915380Y-109316761D01*
X78915380Y-109074857D01*
X78963761Y-108978095D01*
X79012142Y-108929714D01*
X79834619Y-124169714D02*
X79883000Y-124218095D01*
X79931380Y-124314857D01*
X79931380Y-124556761D01*
X79883000Y-124653523D01*
X79834619Y-124701904D01*
X79737857Y-124750285D01*
X79641095Y-124750285D01*
X79495952Y-124701904D01*
X78915380Y-124121333D01*
X78915380Y-124750285D01*
X97034047Y-101696761D02*
X96985666Y-101793523D01*
X96937285Y-101841904D01*
X96840523Y-101890285D01*
X96792142Y-101890285D01*
X96695380Y-101841904D01*
X96647000Y-101793523D01*
X96598619Y-101696761D01*
X96598619Y-101503238D01*
X96647000Y-101406476D01*
X96695380Y-101358095D01*
X96792142Y-101309714D01*
X96840523Y-101309714D01*
X96937285Y-101358095D01*
X96985666Y-101406476D01*
X97034047Y-101503238D01*
X97034047Y-101696761D01*
X97082428Y-101793523D01*
X97130809Y-101841904D01*
X97227571Y-101890285D01*
X97421095Y-101890285D01*
X97517857Y-101841904D01*
X97566238Y-101793523D01*
X97614619Y-101696761D01*
X97614619Y-101503238D01*
X97566238Y-101406476D01*
X97517857Y-101358095D01*
X97421095Y-101309714D01*
X97227571Y-101309714D01*
X97130809Y-101358095D01*
X97082428Y-101406476D01*
X97034047Y-101503238D01*
X97614619Y-137353523D02*
X97614619Y-137934095D01*
X97614619Y-137643809D02*
X96598619Y-137643809D01*
X96743761Y-137740571D01*
X96840523Y-137837333D01*
X96888904Y-137934095D01*
X96598619Y-136434285D02*
X96598619Y-136918095D01*
X97082428Y-136966476D01*
X97034047Y-136918095D01*
X96985666Y-136821333D01*
X96985666Y-136579428D01*
X97034047Y-136482666D01*
X97082428Y-136434285D01*
X97179190Y-136385904D01*
X97421095Y-136385904D01*
X97517857Y-136434285D01*
X97566238Y-136482666D01*
X97614619Y-136579428D01*
X97614619Y-136821333D01*
X97566238Y-136918095D01*
X97517857Y-136966476D01*
X97614619Y-132273523D02*
X97614619Y-132854095D01*
X97614619Y-132563809D02*
X96598619Y-132563809D01*
X96743761Y-132660571D01*
X96840523Y-132757333D01*
X96888904Y-132854095D01*
X96937285Y-131402666D02*
X97614619Y-131402666D01*
X96550238Y-131644571D02*
X97275952Y-131886476D01*
X97275952Y-131257523D01*
X97614619Y-127193523D02*
X97614619Y-127774095D01*
X97614619Y-127483809D02*
X96598619Y-127483809D01*
X96743761Y-127580571D01*
X96840523Y-127677333D01*
X96888904Y-127774095D01*
X96598619Y-126854857D02*
X96598619Y-126225904D01*
X96985666Y-126564571D01*
X96985666Y-126419428D01*
X97034047Y-126322666D01*
X97082428Y-126274285D01*
X97179190Y-126225904D01*
X97421095Y-126225904D01*
X97517857Y-126274285D01*
X97566238Y-126322666D01*
X97614619Y-126419428D01*
X97614619Y-126709714D01*
X97566238Y-126806476D01*
X97517857Y-126854857D01*
X97614619Y-111953523D02*
X97614619Y-112534095D01*
X97614619Y-112243809D02*
X96598619Y-112243809D01*
X96743761Y-112340571D01*
X96840523Y-112437333D01*
X96888904Y-112534095D01*
X96598619Y-111324571D02*
X96598619Y-111227809D01*
X96647000Y-111131047D01*
X96695380Y-111082666D01*
X96792142Y-111034285D01*
X96985666Y-110985904D01*
X97227571Y-110985904D01*
X97421095Y-111034285D01*
X97517857Y-111082666D01*
X97566238Y-111131047D01*
X97614619Y-111227809D01*
X97614619Y-111324571D01*
X97566238Y-111421333D01*
X97517857Y-111469714D01*
X97421095Y-111518095D01*
X97227571Y-111566476D01*
X96985666Y-111566476D01*
X96792142Y-111518095D01*
X96695380Y-111469714D01*
X96647000Y-111421333D01*
X96598619Y-111324571D01*
X97614619Y-106873523D02*
X97614619Y-106680000D01*
X97566238Y-106583238D01*
X97517857Y-106534857D01*
X97372714Y-106438095D01*
X97179190Y-106389714D01*
X96792142Y-106389714D01*
X96695380Y-106438095D01*
X96647000Y-106486476D01*
X96598619Y-106583238D01*
X96598619Y-106776761D01*
X96647000Y-106873523D01*
X96695380Y-106921904D01*
X96792142Y-106970285D01*
X97034047Y-106970285D01*
X97130809Y-106921904D01*
X97179190Y-106873523D01*
X97227571Y-106776761D01*
X97227571Y-106583238D01*
X97179190Y-106486476D01*
X97130809Y-106438095D01*
X97034047Y-106389714D01*
%TO.C,C1*%
D17*
X83079166Y-111478785D02*
X83048928Y-111509023D01*
X82958214Y-111539261D01*
X82897738Y-111539261D01*
X82807023Y-111509023D01*
X82746547Y-111448547D01*
X82716309Y-111388071D01*
X82686071Y-111267119D01*
X82686071Y-111176404D01*
X82716309Y-111055452D01*
X82746547Y-110994976D01*
X82807023Y-110934500D01*
X82897738Y-110904261D01*
X82958214Y-110904261D01*
X83048928Y-110934500D01*
X83079166Y-110964738D01*
X83683928Y-111539261D02*
X83321071Y-111539261D01*
X83502500Y-111539261D02*
X83502500Y-110904261D01*
X83442023Y-110994976D01*
X83381547Y-111055452D01*
X83321071Y-111085690D01*
X82504642Y-107475261D02*
X82141785Y-107475261D01*
X82323214Y-107475261D02*
X82323214Y-106840261D01*
X82262738Y-106930976D01*
X82202261Y-106991452D01*
X82141785Y-107021690D01*
X82897738Y-106840261D02*
X82958214Y-106840261D01*
X83018690Y-106870500D01*
X83048928Y-106900738D01*
X83079166Y-106961214D01*
X83109404Y-107082166D01*
X83109404Y-107233357D01*
X83079166Y-107354309D01*
X83048928Y-107414785D01*
X83018690Y-107445023D01*
X82958214Y-107475261D01*
X82897738Y-107475261D01*
X82837261Y-107445023D01*
X82807023Y-107414785D01*
X82776785Y-107354309D01*
X82746547Y-107233357D01*
X82746547Y-107082166D01*
X82776785Y-106961214D01*
X82807023Y-106900738D01*
X82837261Y-106870500D01*
X82897738Y-106840261D01*
X83653690Y-107051928D02*
X83653690Y-107475261D01*
X83381547Y-107051928D02*
X83381547Y-107384547D01*
X83411785Y-107445023D01*
X83472261Y-107475261D01*
X83562976Y-107475261D01*
X83623452Y-107445023D01*
X83653690Y-107414785D01*
X84167738Y-107142642D02*
X83956071Y-107142642D01*
X83956071Y-107475261D02*
X83956071Y-106840261D01*
X84258452Y-106840261D01*
%TO.C,D1*%
D16*
X87515095Y-105079619D02*
X87515095Y-104063619D01*
X87757000Y-104063619D01*
X87902142Y-104112000D01*
X87998904Y-104208761D01*
X88047285Y-104305523D01*
X88095666Y-104499047D01*
X88095666Y-104644190D01*
X88047285Y-104837714D01*
X87998904Y-104934476D01*
X87902142Y-105031238D01*
X87757000Y-105079619D01*
X87515095Y-105079619D01*
X89063285Y-105079619D02*
X88482714Y-105079619D01*
X88773000Y-105079619D02*
X88773000Y-104063619D01*
X88676238Y-104208761D01*
X88579476Y-104305523D01*
X88482714Y-104353904D01*
%TO.C,P1*%
X93117004Y-119204619D02*
X93117004Y-118188619D01*
X93504052Y-118188619D01*
X93600814Y-118237000D01*
X93649195Y-118285380D01*
X93697576Y-118382142D01*
X93697576Y-118527285D01*
X93649195Y-118624047D01*
X93600814Y-118672428D01*
X93504052Y-118720809D01*
X93117004Y-118720809D01*
X94665195Y-119204619D02*
X94084623Y-119204619D01*
X94374909Y-119204619D02*
X94374909Y-118188619D01*
X94278147Y-118333761D01*
X94181385Y-118430523D01*
X94084623Y-118478904D01*
%TD*%
%LPC*%
D18*
%TO.C,PHIDGET1*%
X75565000Y-99060000D03*
X75565000Y-111760000D03*
X75565000Y-137160000D03*
X75565000Y-129540000D03*
X75565000Y-116840000D03*
X75565000Y-114300000D03*
X75565000Y-134620000D03*
X75565000Y-121920000D03*
X75565000Y-119380000D03*
X75565000Y-132080000D03*
X75565000Y-109220000D03*
X75565000Y-127000000D03*
X75565000Y-101600000D03*
X75565000Y-104140000D03*
X75565000Y-106680000D03*
X75565000Y-124460000D03*
X100965000Y-99060000D03*
X100965000Y-101600000D03*
X100965000Y-137160000D03*
D19*
X59055000Y-135255000D03*
X59055000Y-69215000D03*
X117475000Y-69215000D03*
X117475000Y-135255000D03*
D18*
X100965000Y-104140000D03*
X100965000Y-106680000D03*
X100965000Y-109220000D03*
X100965000Y-111760000D03*
X100965000Y-114300000D03*
X100965000Y-116840000D03*
X100965000Y-119380000D03*
X100965000Y-121920000D03*
X100965000Y-124460000D03*
X100965000Y-127000000D03*
X100965000Y-129540000D03*
X100965000Y-132080000D03*
X100965000Y-134620000D03*
%TD*%
D20*
%TO.C,S1*%
X52705000Y-75565000D03*
X52705000Y-78105000D03*
%TD*%
%TO.C,S2*%
X52705000Y-67945000D03*
X52705000Y-70485000D03*
%TD*%
%TO.C,S3*%
X52705000Y-60325000D03*
X52705000Y-62865000D03*
%TD*%
%TO.C,S4*%
X80645000Y-75565000D03*
X80645000Y-78105000D03*
%TD*%
%TO.C,S5*%
X80645000Y-67945000D03*
X80645000Y-70485000D03*
%TD*%
%TO.C,S6*%
X80645000Y-60325000D03*
X80645000Y-62865000D03*
%TD*%
%TO.C,S7*%
X108585000Y-75565000D03*
X108585000Y-78105000D03*
%TD*%
%TO.C,S8*%
X108585000Y-67945000D03*
X108585000Y-70485000D03*
%TD*%
%TO.C,S9*%
X108585000Y-60325000D03*
X108585000Y-62865000D03*
%TD*%
D21*
%TO.C,FID1*%
X53975000Y-53975000D03*
%TD*%
%TO.C,FID2*%
X122555000Y-53975000D03*
%TD*%
%TO.C,FID3*%
X122555000Y-137795000D03*
%TD*%
%TO.C,FID4*%
X53975000Y-137795000D03*
%TD*%
D22*
%TO.C,MH1*%
X92710000Y-85090000D03*
%TD*%
%TO.C,MH2*%
X64770000Y-56515000D03*
%TD*%
%TO.C,MH3*%
X120650000Y-56515000D03*
%TD*%
D23*
%TO.C,C1*%
X83185000Y-110261400D03*
X83185000Y-108178600D03*
%TD*%
D24*
%TO.C,D1*%
X88265000Y-108200000D03*
D25*
X89330000Y-112000000D03*
X87200000Y-112000000D03*
%TD*%
D26*
%TO.C,P1*%
X88265000Y-125730000D03*
D27*
X84165000Y-127730000D03*
X92365000Y-127730000D03*
D28*
X88265000Y-118130000D03*
D29*
X85890000Y-137030000D03*
X90640000Y-137030000D03*
%TD*%
M02*
