<?xml version="1.0" standalone="no"?>
 <!DOCTYPE svg PUBLIC "-//W3C//DTD SVG 1.1//EN" 
 "http://www.w3.org/Graphics/SVG/1.1/DTD/svg11.dtd"> 
<svg
  xmlns:svg="http://www.w3.org/2000/svg"
  xmlns="http://www.w3.org/2000/svg"
  xmlns:xlink="http://www.w3.org/1999/xlink"
  version="1.1"
  width="9.009380cm" height="10.287000cm" viewBox="0 0 35470 40500">
<title>SVG Picture created as y_arena_valve_controller-B_SilkS.svg date 2020/07/21 10:49:24 </title>
  <desc>Picture generated by PCBNEW </desc>
<g style="fill:#000000; fill-opacity:1;stroke:#000000; stroke-opacity:1;
stroke-linecap:round; stroke-linejoin:round;"
 transform="translate(0 0) scale(1 1)">
</g>
<g style="fill:#000000; fill-opacity:0.0; 
stroke:#000000; stroke-width:-0.000393701; stroke-opacity:1; 
stroke-linecap:round; stroke-linejoin:round;">
</g>
<g style="fill:#840084; fill-opacity:0.0; 
stroke:#840084; stroke-width:-0.000393701; stroke-opacity:1; 
stroke-linecap:round; stroke-linejoin:round;">
</g>
<g style="fill:#840084; fill-opacity:0.0; 
stroke:#840084; stroke-width:150; stroke-opacity:1; 
stroke-linecap:round; stroke-linejoin:round;">
<path d="M4235 39150
L4235 9350
" />
<path d="M30885 39150
L4235 39150
" />
<path d="M30885 9350
L30885 39150
" />
<path d="M30885 9350
L4235 9350
" />
<path d="M19060 38750
L19060 37750
" />
<path d="M19060 37750
L16060 37750
" />
<path d="M16060 37750
L16060 38750
" />
<path d="M19060 38750
L16060 38750
" />
</g>
<g style="fill:#840084; fill-opacity:0.0; 
stroke:#840084; stroke-width:110; stroke-opacity:1; 
stroke-linecap:round; stroke-linejoin:round;">
<circle cx="29060.7" cy="37250" r="1300" /> 
<circle cx="6060.71" cy="37250" r="1300" /> 
<circle cx="6060.71" cy="11250" r="1300" /> 
<circle cx="29060.7" cy="11250" r="1300" /> 
<circle cx="4360.71" cy="11250" r="1470" /> 
<circle cx="4360.71" cy="8250" r="1470" /> 
<circle cx="4360.71" cy="5250" r="1470" /> 
<circle cx="15360.7" cy="11250" r="1470" /> 
<circle cx="15360.7" cy="8250" r="1470" /> 
<circle cx="15360.7" cy="5250" r="1470" /> 
<circle cx="26360.7" cy="11250" r="1470" /> 
<circle cx="26360.7" cy="8250" r="1470" /> 
<circle cx="26360.7" cy="5250" r="1470" /> 
</g>
<g style="fill:#840084; fill-opacity:0.0; 
stroke:#840084; stroke-width:90; stroke-opacity:1; 
stroke-linecap:round; stroke-linejoin:round;">
<circle cx="19310.7" cy="14500" r="1000" /> 
<circle cx="8310.71" cy="3250" r="1000" /> 
<circle cx="30310.7" cy="3250" r="1000" /> 
</g>
<g style="fill:#840084; fill-opacity:0.0; 
stroke:#840084; stroke-width:150; stroke-opacity:1; 
stroke-linecap:round; stroke-linejoin:round;">
<g transform="rotate(-90 3560.71 24250)">
<text x="3560.71" y="24550"
textLength="4167.6" font-size="800" lengthAdjust="spacingAndGlyphs"
text-anchor="middle" opacity="0">PHIDGET1</text>
</g>
<path d="M3832 22250
L3232 22250
L3232 22478
L3260 22535
L3289 22564
L3346 22592
L3432 22592
L3489 22564
L3517 22535
L3546 22478
L3546 22250
" />
<path d="M3832 22850
L3232 22850
" />
<path d="M3517 22850
L3517 23192
" />
<path d="M3832 23192
L3232 23192
" />
<path d="M3832 23478
L3232 23478
" />
<path d="M3832 23764
L3232 23764
L3232 23907
L3260 23992
L3317 24050
L3374 24078
L3489 24107
L3574 24107
L3689 24078
L3746 24050
L3803 23992
L3832 23907
L3832 23764
" />
<path d="M3260 24678
L3232 24621
L3232 24535
L3260 24450
L3317 24392
L3374 24364
L3489 24335
L3574 24335
L3689 24364
L3746 24392
L3803 24450
L3832 24535
L3832 24592
L3803 24678
L3774 24707
L3574 24707
L3574 24592
" />
<path d="M3517 24964
L3517 25164
" />
<path d="M3832 25250
L3832 24964
L3232 24964
L3232 25250
" />
<path d="M3232 25421
L3232 25764
" />
<path d="M3832 25592
L3232 25592
" />
<path d="M3832 26278
L3832 25935
" />
<path d="M3832 26107
L3232 26107
L3317 26050
L3374 25992
L3403 25935
" />
</g>
<g style="fill:#840084; fill-opacity:0.0; 
stroke:#840084; stroke-width:250; stroke-opacity:1; 
stroke-linecap:round; stroke-linejoin:round;">
<g transform="rotate(-90 16560.7 24250)">
<text x="16560.7" y="24750"
textLength="14852.6" font-size="1333.33" lengthAdjust="spacingAndGlyphs"
text-anchor="middle" opacity="0">State Relay Phidget</text>
</g>
<path d="M16965 16916
L17013 17059
L17013 17297
L16965 17392
L16917 17440
L16822 17488
L16727 17488
L16632 17440
L16584 17392
L16536 17297
L16489 17107
L16441 17011
L16394 16964
L16298 16916
L16203 16916
L16108 16964
L16060 17011
L16013 17107
L16013 17345
L16060 17488
" />
<path d="M16346 17773
L16346 18154
" />
<path d="M16013 17916
L16870 17916
L16965 17964
L17013 18059
L17013 18154
" />
<path d="M17013 18916
L16489 18916
L16394 18869
L16346 18773
L16346 18583
L16394 18488
" />
<path d="M16965 18916
L17013 18821
L17013 18583
L16965 18488
L16870 18440
L16774 18440
L16679 18488
L16632 18583
L16632 18821
L16584 18916
" />
<path d="M16346 19250
L16346 19630
" />
<path d="M16013 19392
L16870 19392
L16965 19440
L17013 19535
L17013 19630
" />
<path d="M16965 20345
L17013 20250
L17013 20059
L16965 19964
L16870 19916
L16489 19916
L16394 19964
L16346 20059
L16346 20250
L16394 20345
L16489 20392
L16584 20392
L16679 19916
" />
<path d="M17013 22154
L16536 21821
" />
<path d="M17013 21583
L16013 21583
L16013 21964
L16060 22059
L16108 22107
L16203 22154
L16346 22154
L16441 22107
L16489 22059
L16536 21964
L16536 21583
" />
<path d="M16965 22964
L17013 22869
L17013 22678
L16965 22583
L16870 22535
L16489 22535
L16394 22583
L16346 22678
L16346 22869
L16394 22964
L16489 23011
L16584 23011
L16679 22535
" />
<path d="M17013 23583
L16965 23488
L16870 23440
L16013 23440
" />
<path d="M17013 24392
L16489 24392
L16394 24345
L16346 24250
L16346 24059
L16394 23964
" />
<path d="M16965 24392
L17013 24297
L17013 24059
L16965 23964
L16870 23916
L16774 23916
L16679 23964
L16632 24059
L16632 24297
L16584 24392
" />
<path d="M16346 24773
L17013 25011
" />
<path d="M16346 25250
L17013 25011
L17251 24916
L17298 24869
L17346 24773
" />
<path d="M17013 26392
L16013 26392
L16013 26773
L16060 26869
L16108 26916
L16203 26964
L16346 26964
L16441 26916
L16489 26869
L16536 26773
L16536 26392
" />
<path d="M17013 27392
L16013 27392
" />
<path d="M17013 27821
L16489 27821
L16394 27773
L16346 27678
L16346 27535
L16394 27440
L16441 27392
" />
<path d="M17013 28297
L16346 28297
" />
<path d="M16013 28297
L16060 28250
L16108 28297
L16060 28345
L16013 28297
L16108 28297
" />
<path d="M17013 29202
L16013 29202
" />
<path d="M16965 29202
L17013 29107
L17013 28916
L16965 28821
L16917 28773
L16822 28726
L16536 28726
L16441 28773
L16394 28821
L16346 28916
L16346 29107
L16394 29202
" />
<path d="M16346 30107
L17155 30107
L17251 30059
L17298 30011
L17346 29916
L17346 29773
L17298 29678
" />
<path d="M16965 30107
L17013 30011
L17013 29821
L16965 29726
L16917 29678
L16822 29630
L16536 29630
L16441 29678
L16394 29726
L16346 29821
L16346 30011
L16394 30107
" />
<path d="M16965 30964
L17013 30869
L17013 30678
L16965 30583
L16870 30535
L16489 30535
L16394 30583
L16346 30678
L16346 30869
L16394 30964
L16489 31011
L16584 31011
L16679 30535
" />
<path d="M16346 31297
L16346 31678
" />
<path d="M16013 31440
L16870 31440
L16965 31488
L17013 31583
L17013 31678
" />
<g transform="rotate(-90 18560.7 24250)">
<text x="18560.7" y="24750"
textLength="13627.4" font-size="1333.33" lengthAdjust="spacingAndGlyphs"
text-anchor="middle" opacity="0">16x Isolated Solid</text>
</g>
<path d="M19013 18035
L19013 17464
" />
<path d="M19013 17750
L18013 17750
L18155 17654
L18251 17559
L18298 17464
" />
<path d="M18013 18892
L18013 18702
L18060 18607
L18108 18559
L18251 18464
L18441 18416
L18822 18416
L18917 18464
L18965 18511
L19013 18607
L19013 18797
L18965 18892
L18917 18940
L18822 18988
L18584 18988
L18489 18940
L18441 18892
L18394 18797
L18394 18607
L18441 18511
L18489 18464
L18584 18416
" />
<path d="M19013 19321
L18346 19845
" />
<path d="M18346 19321
L19013 19845
" />
<path d="M19013 20988
L18013 20988
" />
<path d="M18965 21416
L19013 21511
L19013 21702
L18965 21797
L18870 21845
L18822 21845
L18727 21797
L18679 21702
L18679 21559
L18632 21464
L18536 21416
L18489 21416
L18394 21464
L18346 21559
L18346 21702
L18394 21797
" />
<path d="M19013 22416
L18965 22321
L18917 22273
L18822 22226
L18536 22226
L18441 22273
L18394 22321
L18346 22416
L18346 22559
L18394 22654
L18441 22702
L18536 22750
L18822 22750
L18917 22702
L18965 22654
L19013 22559
L19013 22416
" />
<path d="M19013 23321
L18965 23226
L18870 23178
L18013 23178
" />
<path d="M19013 24130
L18489 24130
L18394 24083
L18346 23988
L18346 23797
L18394 23702
" />
<path d="M18965 24130
L19013 24035
L19013 23797
L18965 23702
L18870 23654
L18774 23654
L18679 23702
L18632 23797
L18632 24035
L18584 24130
" />
<path d="M18346 24464
L18346 24845
" />
<path d="M18013 24607
L18870 24607
L18965 24654
L19013 24750
L19013 24845
" />
<path d="M18965 25559
L19013 25464
L19013 25273
L18965 25178
L18870 25130
L18489 25130
L18394 25178
L18346 25273
L18346 25464
L18394 25559
L18489 25607
L18584 25607
L18679 25130
" />
<path d="M19013 26464
L18013 26464
" />
<path d="M18965 26464
L19013 26369
L19013 26178
L18965 26083
L18917 26035
L18822 25988
L18536 25988
L18441 26035
L18394 26083
L18346 26178
L18346 26369
L18394 26464
" />
<path d="M18965 27654
L19013 27797
L19013 28035
L18965 28130
L18917 28178
L18822 28226
L18727 28226
L18632 28178
L18584 28130
L18536 28035
L18489 27845
L18441 27750
L18394 27702
L18298 27654
L18203 27654
L18108 27702
L18060 27750
L18013 27845
L18013 28083
L18060 28226
" />
<path d="M19013 28797
L18965 28702
L18917 28654
L18822 28607
L18536 28607
L18441 28654
L18394 28702
L18346 28797
L18346 28940
L18394 29035
L18441 29083
L18536 29130
L18822 29130
L18917 29083
L18965 29035
L19013 28940
L19013 28797
" />
<path d="M19013 29702
L18965 29607
L18870 29559
L18013 29559
" />
<path d="M19013 30083
L18346 30083
" />
<path d="M18013 30083
L18060 30035
L18108 30083
L18060 30130
L18013 30083
L18108 30083
" />
<path d="M19013 30988
L18013 30988
" />
<path d="M18965 30988
L19013 30892
L19013 30702
L18965 30607
L18917 30559
L18822 30511
L18536 30511
L18441 30559
L18394 30607
L18346 30702
L18346 30892
L18394 30988
" />
</g>
<g style="fill:#840084; fill-opacity:0.0; 
stroke:#840084; stroke-width:100; stroke-opacity:1; 
stroke-linecap:round; stroke-linejoin:round;">
<text x="3560.71" y="13200"
textLength="436.905" font-size="533.333" lengthAdjust="spacingAndGlyphs"
text-anchor="middle" opacity="0">S1</text>
<path d="M3865 13161
L3808 13180
L3713 13180
L3674 13161
L3655 13142
L3636 13104
L3636 13066
L3655 13028
L3674 13009
L3713 12990
L3789 12971
L3827 12952
L3846 12933
L3865 12895
L3865 12857
L3846 12819
L3827 12800
L3789 12780
L3694 12780
L3636 12800
" />
<path d="M3255 13180
L3484 13180
" />
<path d="M3370 13180
L3370 12780
L3408 12838
L3446 12876
L3484 12895
" />
<g transform="rotate(-90 6310.71 8250)">
<text x="6310.71" y="8450"
textLength="631.905" font-size="533.333" lengthAdjust="spacingAndGlyphs"
text-anchor="middle" opacity="0">S2</text>
</g>
<path d="M6472 7945
L6491 8002
L6491 8097
L6472 8135
L6453 8154
L6415 8173
L6377 8173
L6339 8154
L6320 8135
L6301 8097
L6282 8021
L6263 7983
L6244 7964
L6205 7945
L6167 7945
L6129 7964
L6110 7983
L6091 8021
L6091 8116
L6110 8173
" />
<path d="M6129 8326
L6110 8345
L6091 8383
L6091 8478
L6110 8516
L6129 8535
L6167 8554
L6205 8554
L6263 8535
L6491 8307
L6491 8554
" />
<g transform="rotate(-90 6310.71 5250)">
<text x="6310.71" y="5450"
textLength="631.905" font-size="533.333" lengthAdjust="spacingAndGlyphs"
text-anchor="middle" opacity="0">S3</text>
</g>
<path d="M6472 4945
L6491 5002
L6491 5097
L6472 5135
L6453 5154
L6415 5173
L6377 5173
L6339 5154
L6320 5135
L6301 5097
L6282 5021
L6263 4983
L6244 4964
L6205 4945
L6167 4945
L6129 4964
L6110 4983
L6091 5021
L6091 5116
L6110 5173
" />
<path d="M6091 5307
L6091 5554
L6244 5421
L6244 5478
L6263 5516
L6282 5535
L6320 5554
L6415 5554
L6453 5535
L6472 5516
L6491 5478
L6491 5364
L6472 5326
L6453 5307
" />
<g transform="rotate(-90 17310.7 11250)">
<text x="17310.7" y="11450"
textLength="631.905" font-size="533.333" lengthAdjust="spacingAndGlyphs"
text-anchor="middle" opacity="0">S4</text>
</g>
<path d="M17472 10945
L17491 11002
L17491 11097
L17472 11135
L17453 11154
L17415 11173
L17377 11173
L17339 11154
L17320 11135
L17301 11097
L17282 11021
L17263 10983
L17244 10964
L17205 10945
L17167 10945
L17129 10964
L17110 10983
L17091 11021
L17091 11116
L17110 11173
" />
<path d="M17224 11516
L17491 11516
" />
<path d="M17072 11421
L17358 11326
L17358 11573
" />
<g transform="rotate(-90 17310.7 8250)">
<text x="17310.7" y="8450"
textLength="631.905" font-size="533.333" lengthAdjust="spacingAndGlyphs"
text-anchor="middle" opacity="0">S5</text>
</g>
<path d="M17472 7945
L17491 8002
L17491 8097
L17472 8135
L17453 8154
L17415 8173
L17377 8173
L17339 8154
L17320 8135
L17301 8097
L17282 8021
L17263 7983
L17244 7964
L17205 7945
L17167 7945
L17129 7964
L17110 7983
L17091 8021
L17091 8116
L17110 8173
" />
<path d="M17091 8535
L17091 8345
L17282 8326
L17263 8345
L17244 8383
L17244 8478
L17263 8516
L17282 8535
L17320 8554
L17415 8554
L17453 8535
L17472 8516
L17491 8478
L17491 8383
L17472 8345
L17453 8326
" />
<g transform="rotate(-90 17310.7 5250)">
<text x="17310.7" y="5450"
textLength="631.905" font-size="533.333" lengthAdjust="spacingAndGlyphs"
text-anchor="middle" opacity="0">S6</text>
</g>
<path d="M17472 4945
L17491 5002
L17491 5097
L17472 5135
L17453 5154
L17415 5173
L17377 5173
L17339 5154
L17320 5135
L17301 5097
L17282 5021
L17263 4983
L17244 4964
L17205 4945
L17167 4945
L17129 4964
L17110 4983
L17091 5021
L17091 5116
L17110 5173
" />
<path d="M17091 5516
L17091 5440
L17110 5402
L17129 5383
L17186 5345
L17263 5326
L17415 5326
L17453 5345
L17472 5364
L17491 5402
L17491 5478
L17472 5516
L17453 5535
L17415 5554
L17320 5554
L17282 5535
L17263 5516
L17244 5478
L17244 5402
L17263 5364
L17282 5345
L17320 5326
" />
<text x="25560.7" y="13200"
textLength="631.905" font-size="533.333" lengthAdjust="spacingAndGlyphs"
text-anchor="middle" opacity="0">S7</text>
<path d="M25865 13161
L25808 13180
L25713 13180
L25674 13161
L25655 13142
L25636 13104
L25636 13066
L25655 13028
L25674 13009
L25713 12990
L25789 12971
L25827 12952
L25846 12933
L25865 12895
L25865 12857
L25846 12819
L25827 12800
L25789 12780
L25694 12780
L25636 12800
" />
<path d="M25503 12780
L25236 12780
L25408 13180
" />
<g transform="rotate(-90 28310.7 8250)">
<text x="28310.7" y="8450"
textLength="631.905" font-size="533.333" lengthAdjust="spacingAndGlyphs"
text-anchor="middle" opacity="0">S8</text>
</g>
<path d="M28472 7945
L28491 8002
L28491 8097
L28472 8135
L28453 8154
L28415 8173
L28377 8173
L28339 8154
L28320 8135
L28301 8097
L28282 8021
L28263 7983
L28244 7964
L28205 7945
L28167 7945
L28129 7964
L28110 7983
L28091 8021
L28091 8116
L28110 8173
" />
<path d="M28263 8402
L28244 8364
L28224 8345
L28186 8326
L28167 8326
L28129 8345
L28110 8364
L28091 8402
L28091 8478
L28110 8516
L28129 8535
L28167 8554
L28186 8554
L28224 8535
L28244 8516
L28263 8478
L28263 8402
L28282 8364
L28301 8345
L28339 8326
L28415 8326
L28453 8345
L28472 8364
L28491 8402
L28491 8478
L28472 8516
L28453 8535
L28415 8554
L28339 8554
L28301 8535
L28282 8516
L28263 8478
" />
<g transform="rotate(-90 28310.7 5250)">
<text x="28310.7" y="5450"
textLength="631.905" font-size="533.333" lengthAdjust="spacingAndGlyphs"
text-anchor="middle" opacity="0">S9</text>
</g>
<path d="M28472 4945
L28491 5002
L28491 5097
L28472 5135
L28453 5154
L28415 5173
L28377 5173
L28339 5154
L28320 5135
L28301 5097
L28282 5021
L28263 4983
L28244 4964
L28205 4945
L28167 4945
L28129 4964
L28110 4983
L28091 5021
L28091 5116
L28110 5173
" />
<path d="M28491 5364
L28491 5440
L28472 5478
L28453 5497
L28396 5535
L28320 5554
L28167 5554
L28129 5535
L28110 5516
L28091 5478
L28091 5402
L28110 5364
L28129 5345
L28167 5326
L28263 5326
L28301 5345
L28320 5364
L28339 5402
L28339 5478
L28320 5516
L28301 5535
L28263 5554
" />
<g >
</g>
</g>
<g style="fill:#000000; fill-opacity:0.0; 
stroke:#000000; stroke-width:100; stroke-opacity:1; 
stroke-linecap:round; stroke-linejoin:round;">
</g>
<g style="fill:#C2C200; fill-opacity:0.0; 
stroke:#C2C200; stroke-width:100; stroke-opacity:1; 
stroke-linecap:round; stroke-linejoin:round;">
</g>
<g style="fill:#C2C200; fill-opacity:0.0; 
stroke:#C2C200; stroke-width:110; stroke-opacity:1; 
stroke-linecap:round; stroke-linejoin:round;">
<path d="M29810.7 39500 A2500 2500 0.0 0 0 32310.7 37000" />
<path d="M2810.71 37000 A2500 2500 0.0 0 0 5310.71 39500" />
<path d="M32310.7 3500 A2500 2500 0.0 0 0 29810.7 1000" />
<path d="M5310.71 1000 A2500 2500 0.0 0 0 2810.71 3500" />
<path d="M5310 1000
L29810 1000
" />
<path d="M2810 37000
L2810 3500
" />
<path d="M29810 39500
L5310 39500
" />
<path d="M32310 3500
L32310 37000
" />
<g >
</g>
<g >
</g>
<g >
</g>
<g >
</g>
<g >
</g>
<g >
</g>
<g >
</g>
<g >
</g>
<g >
</g>
<g >
</g>
<g >
</g>
<g >
</g>
<g >
</g>
<g >
</g>
<g >
</g>
<g >
</g>
<g >
</g>
<g >
</g>
<g >
</g>
<g >
</g>
<g >
</g>
</g> 
</svg>
