%TF.GenerationSoftware,KiCad,Pcbnew,5.1.6-c6e7f7d~87~ubuntu20.04.1*%
%TF.CreationDate,2020-07-21T15:37:17-04:00*%
%TF.ProjectId,y_arena_valve_controller,795f6172-656e-4615-9f76-616c76655f63,1.1*%
%TF.SameCoordinates,Original*%
%TF.FileFunction,Copper,L2,Bot*%
%TF.FilePolarity,Positive*%
%FSLAX46Y46*%
G04 Gerber Fmt 4.6, Leading zero omitted, Abs format (unit mm)*
G04 Created by KiCad (PCBNEW 5.1.6-c6e7f7d~87~ubuntu20.04.1) date 2020-07-21 15:37:17*
%MOMM*%
%LPD*%
G01*
G04 APERTURE LIST*
%TA.AperFunction,ComponentPad*%
%ADD10O,2.032000X1.524000*%
%TD*%
%TA.AperFunction,ComponentPad*%
%ADD11C,6.197600*%
%TD*%
%TA.AperFunction,ComponentPad*%
%ADD12C,2.286000*%
%TD*%
%TA.AperFunction,ComponentPad*%
%ADD13C,3.556000*%
%TD*%
%TA.AperFunction,ComponentPad*%
%ADD14C,4.500000*%
%TD*%
%TA.AperFunction,ComponentPad*%
%ADD15C,1.900000*%
%TD*%
%TA.AperFunction,Conductor*%
%ADD16C,0.812800*%
%TD*%
%TA.AperFunction,Conductor*%
%ADD17C,0.254000*%
%TD*%
G04 APERTURE END LIST*
D10*
%TO.P,PHIDGET1,16*%
%TO.N,/VALVE_7*%
X75565000Y-99060000D03*
%TO.P,PHIDGET1,11*%
%TO.N,GND*%
X75565000Y-111760000D03*
%TO.P,PHIDGET1,1*%
X75565000Y-137160000D03*
%TO.P,PHIDGET1,4*%
%TO.N,/VALVE_1*%
X75565000Y-129540000D03*
%TO.P,PHIDGET1,9*%
%TO.N,GND*%
X75565000Y-116840000D03*
%TO.P,PHIDGET1,10*%
%TO.N,/VALVE_4*%
X75565000Y-114300000D03*
%TO.P,PHIDGET1,2*%
%TO.N,/VALVE_0*%
X75565000Y-134620000D03*
%TO.P,PHIDGET1,7*%
%TO.N,GND*%
X75565000Y-121920000D03*
%TO.P,PHIDGET1,8*%
%TO.N,/VALVE_3*%
X75565000Y-119380000D03*
%TO.P,PHIDGET1,3*%
%TO.N,GND*%
X75565000Y-132080000D03*
%TO.P,PHIDGET1,12*%
%TO.N,/VALVE_5*%
X75565000Y-109220000D03*
%TO.P,PHIDGET1,5*%
%TO.N,GND*%
X75565000Y-127000000D03*
%TO.P,PHIDGET1,15*%
X75565000Y-101600000D03*
%TO.P,PHIDGET1,14*%
%TO.N,/VALVE_6*%
X75565000Y-104140000D03*
%TO.P,PHIDGET1,13*%
%TO.N,GND*%
X75565000Y-106680000D03*
%TO.P,PHIDGET1,6*%
%TO.N,/VALVE_2*%
X75565000Y-124460000D03*
%TO.P,PHIDGET1,17*%
%TO.N,GND*%
X100965000Y-99060000D03*
%TO.P,PHIDGET1,18*%
%TO.N,/VALVE_8*%
X100965000Y-101600000D03*
%TO.P,PHIDGET1,32*%
%TO.N,N/C*%
X100965000Y-137160000D03*
D11*
%TO.P,PHIDGET1,*%
%TO.N,*%
X59055000Y-135255000D03*
X59055000Y-69215000D03*
X117475000Y-69215000D03*
X117475000Y-135255000D03*
D10*
%TO.P,PHIDGET1,19*%
%TO.N,GND*%
X100965000Y-104140000D03*
%TO.P,PHIDGET1,20*%
%TO.N,N/C*%
X100965000Y-106680000D03*
%TO.P,PHIDGET1,21*%
%TO.N,GND*%
X100965000Y-109220000D03*
%TO.P,PHIDGET1,22*%
%TO.N,N/C*%
X100965000Y-111760000D03*
%TO.P,PHIDGET1,23*%
%TO.N,GND*%
X100965000Y-114300000D03*
%TO.P,PHIDGET1,24*%
%TO.N,N/C*%
X100965000Y-116840000D03*
%TO.P,PHIDGET1,25*%
%TO.N,GND*%
X100965000Y-119380000D03*
%TO.P,PHIDGET1,26*%
%TO.N,N/C*%
X100965000Y-121920000D03*
%TO.P,PHIDGET1,27*%
%TO.N,GND*%
X100965000Y-124460000D03*
%TO.P,PHIDGET1,28*%
%TO.N,N/C*%
X100965000Y-127000000D03*
%TO.P,PHIDGET1,29*%
%TO.N,GND*%
X100965000Y-129540000D03*
%TO.P,PHIDGET1,30*%
%TO.N,N/C*%
X100965000Y-132080000D03*
%TO.P,PHIDGET1,31*%
%TO.N,GND*%
X100965000Y-134620000D03*
%TD*%
D12*
%TO.P,S1,2*%
%TO.N,/VALVE_0*%
X52705000Y-75565000D03*
%TO.P,S1,1*%
%TO.N,VCC*%
X52705000Y-78105000D03*
%TD*%
%TO.P,S2,2*%
%TO.N,/VALVE_1*%
X52705000Y-67945000D03*
%TO.P,S2,1*%
%TO.N,VCC*%
X52705000Y-70485000D03*
%TD*%
%TO.P,S3,2*%
%TO.N,/VALVE_2*%
X52705000Y-60325000D03*
%TO.P,S3,1*%
%TO.N,VCC*%
X52705000Y-62865000D03*
%TD*%
%TO.P,S4,2*%
%TO.N,/VALVE_3*%
X80645000Y-75565000D03*
%TO.P,S4,1*%
%TO.N,VCC*%
X80645000Y-78105000D03*
%TD*%
%TO.P,S5,2*%
%TO.N,/VALVE_4*%
X80645000Y-67945000D03*
%TO.P,S5,1*%
%TO.N,VCC*%
X80645000Y-70485000D03*
%TD*%
%TO.P,S6,2*%
%TO.N,/VALVE_5*%
X80645000Y-60325000D03*
%TO.P,S6,1*%
%TO.N,VCC*%
X80645000Y-62865000D03*
%TD*%
%TO.P,S7,2*%
%TO.N,/VALVE_6*%
X108585000Y-75565000D03*
%TO.P,S7,1*%
%TO.N,VCC*%
X108585000Y-78105000D03*
%TD*%
%TO.P,S8,2*%
%TO.N,/VALVE_7*%
X108585000Y-67945000D03*
%TO.P,S8,1*%
%TO.N,VCC*%
X108585000Y-70485000D03*
%TD*%
%TO.P,S9,2*%
%TO.N,/VALVE_8*%
X108585000Y-60325000D03*
%TO.P,S9,1*%
%TO.N,VCC*%
X108585000Y-62865000D03*
%TD*%
D13*
%TO.P,MH1,1*%
%TO.N,N/C*%
X92710000Y-85090000D03*
%TD*%
%TO.P,MH2,1*%
%TO.N,N/C*%
X64770000Y-56515000D03*
%TD*%
%TO.P,MH3,1*%
%TO.N,N/C*%
X120650000Y-56515000D03*
%TD*%
D14*
%TO.P,P1,*%
%TO.N,*%
X88265000Y-125730000D03*
D15*
X84165000Y-127730000D03*
X92365000Y-127730000D03*
%TD*%
D16*
%TO.N,/VALVE_1*%
X75565000Y-129540000D02*
X55271100Y-109246100D01*
X55271100Y-109246100D02*
X55271100Y-70511100D01*
X55271100Y-70511100D02*
X52705000Y-67945000D01*
%TO.N,/VALVE_3*%
X80645000Y-75565000D02*
X73122300Y-83087700D01*
X73122300Y-83087700D02*
X73122300Y-116937300D01*
X73122300Y-116937300D02*
X75565000Y-119380000D01*
%TO.N,/VALVE_4*%
X80645000Y-67945000D02*
X78986800Y-69603200D01*
X78986800Y-69603200D02*
X78986800Y-71221600D01*
X78986800Y-71221600D02*
X82332000Y-74566800D01*
X82332000Y-74566800D02*
X82332000Y-86112000D01*
X82332000Y-86112000D02*
X74038900Y-94405100D01*
X74038900Y-94405100D02*
X74038900Y-112773900D01*
X74038900Y-112773900D02*
X75565000Y-114300000D01*
%TO.N,/VALVE_6*%
X108585000Y-75565000D02*
X80010000Y-104140000D01*
X80010000Y-104140000D02*
X75565000Y-104140000D01*
%TO.N,/VALVE_7*%
X75565000Y-99060000D02*
X75565000Y-97766600D01*
X108585000Y-67945000D02*
X105386600Y-67945000D01*
X105386600Y-67945000D02*
X75565000Y-97766600D01*
%TO.N,GND*%
X75565000Y-116840000D02*
X77089400Y-118364400D01*
X77089400Y-118364400D02*
X77089400Y-120395600D01*
X77089400Y-120395600D02*
X75565000Y-121920000D01*
X100965000Y-129540000D02*
X99333000Y-127908000D01*
X99333000Y-127908000D02*
X99333000Y-126092000D01*
X99333000Y-126092000D02*
X100965000Y-124460000D01*
X75565000Y-132080000D02*
X77089400Y-130555600D01*
X77089400Y-130555600D02*
X77089400Y-128524400D01*
X77089400Y-128524400D02*
X75565000Y-127000000D01*
X100965000Y-104140000D02*
X99436500Y-102611500D01*
X99436500Y-102611500D02*
X99436500Y-100588500D01*
X99436500Y-100588500D02*
X100965000Y-99060000D01*
%TO.N,VCC*%
X52705000Y-70485000D02*
X54356300Y-72136300D01*
X54356300Y-72136300D02*
X54356300Y-76453700D01*
X54356300Y-76453700D02*
X52705000Y-78105000D01*
X80645000Y-62865000D02*
X52705000Y-62865000D01*
X82297700Y-64517700D02*
X80645000Y-62865000D01*
X80645000Y-70485000D02*
X82297700Y-68832300D01*
X82297700Y-68832300D02*
X82297700Y-64517700D01*
X108585000Y-62865000D02*
X83950400Y-62865000D01*
X83950400Y-62865000D02*
X82297700Y-64517700D01*
%TD*%
D17*
%TO.N,GND*%
G36*
X120251795Y-51645707D02*
G01*
X121102124Y-51849853D01*
X121910044Y-52184505D01*
X122655671Y-52641426D01*
X123320639Y-53209362D01*
X123888573Y-53874326D01*
X124345495Y-54619956D01*
X124680147Y-55427876D01*
X124884293Y-56278205D01*
X124955300Y-57180441D01*
X124955301Y-134589547D01*
X124884293Y-135491795D01*
X124680147Y-136342124D01*
X124345495Y-137150044D01*
X123888573Y-137895674D01*
X123320639Y-138560638D01*
X122655671Y-139128574D01*
X121910044Y-139585495D01*
X121102124Y-139920147D01*
X120251795Y-140124293D01*
X119349560Y-140195300D01*
X57180441Y-140195300D01*
X56278205Y-140124293D01*
X55427876Y-139920147D01*
X54619956Y-139585495D01*
X53874326Y-139128573D01*
X53209362Y-138560639D01*
X52641426Y-137895671D01*
X52184505Y-137150044D01*
X51849853Y-136342124D01*
X51645707Y-135491795D01*
X51598129Y-134887253D01*
X55321200Y-134887253D01*
X55321200Y-135622747D01*
X55464688Y-136344109D01*
X55746150Y-137023617D01*
X56154768Y-137635159D01*
X56674841Y-138155232D01*
X57286383Y-138563850D01*
X57965891Y-138845312D01*
X58687253Y-138988800D01*
X59422747Y-138988800D01*
X60144109Y-138845312D01*
X60823617Y-138563850D01*
X61435159Y-138155232D01*
X61955232Y-137635159D01*
X62043490Y-137503070D01*
X73956780Y-137503070D01*
X73971738Y-137577276D01*
X74078878Y-137830535D01*
X74233368Y-138058026D01*
X74429271Y-138251006D01*
X74659058Y-138402059D01*
X74913899Y-138505381D01*
X75184000Y-138557000D01*
X75438000Y-138557000D01*
X75438000Y-137287000D01*
X75692000Y-137287000D01*
X75692000Y-138557000D01*
X75946000Y-138557000D01*
X76216101Y-138505381D01*
X76470942Y-138402059D01*
X76700729Y-138251006D01*
X76896632Y-138058026D01*
X77051122Y-137830535D01*
X77158262Y-137577276D01*
X77173220Y-137503070D01*
X77050720Y-137287000D01*
X75692000Y-137287000D01*
X75438000Y-137287000D01*
X74079280Y-137287000D01*
X73956780Y-137503070D01*
X62043490Y-137503070D01*
X62272721Y-137160000D01*
X99307241Y-137160000D01*
X99334214Y-137433860D01*
X99414096Y-137697195D01*
X99543817Y-137939887D01*
X99718392Y-138152608D01*
X99931113Y-138327183D01*
X100173805Y-138456904D01*
X100437140Y-138536786D01*
X100642375Y-138557000D01*
X101287625Y-138557000D01*
X101492860Y-138536786D01*
X101756195Y-138456904D01*
X101998887Y-138327183D01*
X102211608Y-138152608D01*
X102386183Y-137939887D01*
X102515904Y-137697195D01*
X102595786Y-137433860D01*
X102622759Y-137160000D01*
X102595786Y-136886140D01*
X102515904Y-136622805D01*
X102386183Y-136380113D01*
X102211608Y-136167392D01*
X101998887Y-135992817D01*
X101804587Y-135888962D01*
X101870942Y-135862059D01*
X102100729Y-135711006D01*
X102296632Y-135518026D01*
X102451122Y-135290535D01*
X102558262Y-135037276D01*
X102573220Y-134963070D01*
X102530236Y-134887253D01*
X113741200Y-134887253D01*
X113741200Y-135622747D01*
X113884688Y-136344109D01*
X114166150Y-137023617D01*
X114574768Y-137635159D01*
X115094841Y-138155232D01*
X115706383Y-138563850D01*
X116385891Y-138845312D01*
X117107253Y-138988800D01*
X117842747Y-138988800D01*
X118564109Y-138845312D01*
X119243617Y-138563850D01*
X119855159Y-138155232D01*
X120375232Y-137635159D01*
X120783850Y-137023617D01*
X121065312Y-136344109D01*
X121208800Y-135622747D01*
X121208800Y-134887253D01*
X121065312Y-134165891D01*
X120783850Y-133486383D01*
X120375232Y-132874841D01*
X119855159Y-132354768D01*
X119243617Y-131946150D01*
X118564109Y-131664688D01*
X117842747Y-131521200D01*
X117107253Y-131521200D01*
X116385891Y-131664688D01*
X115706383Y-131946150D01*
X115094841Y-132354768D01*
X114574768Y-132874841D01*
X114166150Y-133486383D01*
X113884688Y-134165891D01*
X113741200Y-134887253D01*
X102530236Y-134887253D01*
X102450720Y-134747000D01*
X101092000Y-134747000D01*
X101092000Y-134767000D01*
X100838000Y-134767000D01*
X100838000Y-134747000D01*
X99479280Y-134747000D01*
X99356780Y-134963070D01*
X99371738Y-135037276D01*
X99478878Y-135290535D01*
X99633368Y-135518026D01*
X99829271Y-135711006D01*
X100059058Y-135862059D01*
X100125413Y-135888962D01*
X99931113Y-135992817D01*
X99718392Y-136167392D01*
X99543817Y-136380113D01*
X99414096Y-136622805D01*
X99334214Y-136886140D01*
X99307241Y-137160000D01*
X62272721Y-137160000D01*
X62363850Y-137023617D01*
X62645312Y-136344109D01*
X62788800Y-135622747D01*
X62788800Y-134887253D01*
X62735641Y-134620000D01*
X73907241Y-134620000D01*
X73934214Y-134893860D01*
X74014096Y-135157195D01*
X74143817Y-135399887D01*
X74318392Y-135612608D01*
X74531113Y-135787183D01*
X74725413Y-135891038D01*
X74659058Y-135917941D01*
X74429271Y-136068994D01*
X74233368Y-136261974D01*
X74078878Y-136489465D01*
X73971738Y-136742724D01*
X73956780Y-136816930D01*
X74079280Y-137033000D01*
X75438000Y-137033000D01*
X75438000Y-137013000D01*
X75692000Y-137013000D01*
X75692000Y-137033000D01*
X77050720Y-137033000D01*
X77173220Y-136816930D01*
X77158262Y-136742724D01*
X77051122Y-136489465D01*
X76896632Y-136261974D01*
X76700729Y-136068994D01*
X76470942Y-135917941D01*
X76404587Y-135891038D01*
X76598887Y-135787183D01*
X76811608Y-135612608D01*
X76986183Y-135399887D01*
X77115904Y-135157195D01*
X77195786Y-134893860D01*
X77222759Y-134620000D01*
X77195786Y-134346140D01*
X77115904Y-134082805D01*
X76986183Y-133840113D01*
X76811608Y-133627392D01*
X76598887Y-133452817D01*
X76404587Y-133348962D01*
X76470942Y-133322059D01*
X76700729Y-133171006D01*
X76896632Y-132978026D01*
X77051122Y-132750535D01*
X77158262Y-132497276D01*
X77173220Y-132423070D01*
X77050720Y-132207000D01*
X75692000Y-132207000D01*
X75692000Y-132227000D01*
X75438000Y-132227000D01*
X75438000Y-132207000D01*
X74079280Y-132207000D01*
X73956780Y-132423070D01*
X73971738Y-132497276D01*
X74078878Y-132750535D01*
X74233368Y-132978026D01*
X74429271Y-133171006D01*
X74659058Y-133322059D01*
X74725413Y-133348962D01*
X74531113Y-133452817D01*
X74318392Y-133627392D01*
X74143817Y-133840113D01*
X74014096Y-134082805D01*
X73934214Y-134346140D01*
X73907241Y-134620000D01*
X62735641Y-134620000D01*
X62645312Y-134165891D01*
X62363850Y-133486383D01*
X61955232Y-132874841D01*
X61435159Y-132354768D01*
X61023939Y-132080000D01*
X99307241Y-132080000D01*
X99334214Y-132353860D01*
X99414096Y-132617195D01*
X99543817Y-132859887D01*
X99718392Y-133072608D01*
X99931113Y-133247183D01*
X100125413Y-133351038D01*
X100059058Y-133377941D01*
X99829271Y-133528994D01*
X99633368Y-133721974D01*
X99478878Y-133949465D01*
X99371738Y-134202724D01*
X99356780Y-134276930D01*
X99479280Y-134493000D01*
X100838000Y-134493000D01*
X100838000Y-134473000D01*
X101092000Y-134473000D01*
X101092000Y-134493000D01*
X102450720Y-134493000D01*
X102573220Y-134276930D01*
X102558262Y-134202724D01*
X102451122Y-133949465D01*
X102296632Y-133721974D01*
X102100729Y-133528994D01*
X101870942Y-133377941D01*
X101804587Y-133351038D01*
X101998887Y-133247183D01*
X102211608Y-133072608D01*
X102386183Y-132859887D01*
X102515904Y-132617195D01*
X102595786Y-132353860D01*
X102622759Y-132080000D01*
X102595786Y-131806140D01*
X102515904Y-131542805D01*
X102386183Y-131300113D01*
X102211608Y-131087392D01*
X101998887Y-130912817D01*
X101804587Y-130808962D01*
X101870942Y-130782059D01*
X102100729Y-130631006D01*
X102296632Y-130438026D01*
X102451122Y-130210535D01*
X102558262Y-129957276D01*
X102573220Y-129883070D01*
X102450720Y-129667000D01*
X101092000Y-129667000D01*
X101092000Y-129687000D01*
X100838000Y-129687000D01*
X100838000Y-129667000D01*
X99479280Y-129667000D01*
X99356780Y-129883070D01*
X99371738Y-129957276D01*
X99478878Y-130210535D01*
X99633368Y-130438026D01*
X99829271Y-130631006D01*
X100059058Y-130782059D01*
X100125413Y-130808962D01*
X99931113Y-130912817D01*
X99718392Y-131087392D01*
X99543817Y-131300113D01*
X99414096Y-131542805D01*
X99334214Y-131806140D01*
X99307241Y-132080000D01*
X61023939Y-132080000D01*
X60823617Y-131946150D01*
X60144109Y-131664688D01*
X59422747Y-131521200D01*
X58687253Y-131521200D01*
X57965891Y-131664688D01*
X57286383Y-131946150D01*
X56674841Y-132354768D01*
X56154768Y-132874841D01*
X55746150Y-133486383D01*
X55464688Y-134165891D01*
X55321200Y-134887253D01*
X51598129Y-134887253D01*
X51574700Y-134589560D01*
X51574700Y-79488140D01*
X51862801Y-79680643D01*
X52186377Y-79814672D01*
X52529882Y-79883000D01*
X52880118Y-79883000D01*
X53223623Y-79814672D01*
X53547199Y-79680643D01*
X53838409Y-79486063D01*
X54086063Y-79238409D01*
X54229701Y-79023440D01*
X54229700Y-109194959D01*
X54224663Y-109246100D01*
X54229700Y-109297241D01*
X54229700Y-109297251D01*
X54244769Y-109450249D01*
X54304317Y-109646553D01*
X54401019Y-109827470D01*
X54531157Y-109986043D01*
X54570891Y-110018652D01*
X73923828Y-129371590D01*
X73907241Y-129540000D01*
X73934214Y-129813860D01*
X74014096Y-130077195D01*
X74143817Y-130319887D01*
X74318392Y-130532608D01*
X74531113Y-130707183D01*
X74725413Y-130811038D01*
X74659058Y-130837941D01*
X74429271Y-130988994D01*
X74233368Y-131181974D01*
X74078878Y-131409465D01*
X73971738Y-131662724D01*
X73956780Y-131736930D01*
X74079280Y-131953000D01*
X75438000Y-131953000D01*
X75438000Y-131933000D01*
X75692000Y-131933000D01*
X75692000Y-131953000D01*
X77050720Y-131953000D01*
X77173220Y-131736930D01*
X77158262Y-131662724D01*
X77051122Y-131409465D01*
X76896632Y-131181974D01*
X76700729Y-130988994D01*
X76470942Y-130837941D01*
X76404587Y-130811038D01*
X76598887Y-130707183D01*
X76811608Y-130532608D01*
X76986183Y-130319887D01*
X77115904Y-130077195D01*
X77195786Y-129813860D01*
X77222759Y-129540000D01*
X77195786Y-129266140D01*
X77115904Y-129002805D01*
X76986183Y-128760113D01*
X76811608Y-128547392D01*
X76598887Y-128372817D01*
X76404587Y-128268962D01*
X76470942Y-128242059D01*
X76700729Y-128091006D01*
X76896632Y-127898026D01*
X77051122Y-127670535D01*
X77092006Y-127573891D01*
X82580000Y-127573891D01*
X82580000Y-127886109D01*
X82640911Y-128192327D01*
X82760391Y-128480779D01*
X82933850Y-128740379D01*
X83154621Y-128961150D01*
X83414221Y-129134609D01*
X83702673Y-129254089D01*
X84008891Y-129315000D01*
X84321109Y-129315000D01*
X84627327Y-129254089D01*
X84915779Y-129134609D01*
X85175379Y-128961150D01*
X85396150Y-128740379D01*
X85569609Y-128480779D01*
X85689089Y-128192327D01*
X85750000Y-127886109D01*
X85750000Y-127573891D01*
X85689089Y-127267673D01*
X85569609Y-126979221D01*
X85396150Y-126719621D01*
X85175379Y-126498850D01*
X84915779Y-126325391D01*
X84627327Y-126205911D01*
X84321109Y-126145000D01*
X84008891Y-126145000D01*
X83702673Y-126205911D01*
X83414221Y-126325391D01*
X83154621Y-126498850D01*
X82933850Y-126719621D01*
X82760391Y-126979221D01*
X82640911Y-127267673D01*
X82580000Y-127573891D01*
X77092006Y-127573891D01*
X77158262Y-127417276D01*
X77173220Y-127343070D01*
X77050720Y-127127000D01*
X75692000Y-127127000D01*
X75692000Y-127147000D01*
X75438000Y-127147000D01*
X75438000Y-127127000D01*
X75418000Y-127127000D01*
X75418000Y-126873000D01*
X75438000Y-126873000D01*
X75438000Y-126853000D01*
X75692000Y-126853000D01*
X75692000Y-126873000D01*
X77050720Y-126873000D01*
X77173220Y-126656930D01*
X77158262Y-126582724D01*
X77051122Y-126329465D01*
X76896632Y-126101974D01*
X76700729Y-125908994D01*
X76470942Y-125757941D01*
X76404587Y-125731038D01*
X76598887Y-125627183D01*
X76811608Y-125452608D01*
X76817152Y-125445852D01*
X85380000Y-125445852D01*
X85380000Y-126014148D01*
X85490869Y-126571523D01*
X85708346Y-127096560D01*
X86024074Y-127569080D01*
X86425920Y-127970926D01*
X86898440Y-128286654D01*
X87423477Y-128504131D01*
X87980852Y-128615000D01*
X88549148Y-128615000D01*
X89106523Y-128504131D01*
X89631560Y-128286654D01*
X90104080Y-127970926D01*
X90501115Y-127573891D01*
X90780000Y-127573891D01*
X90780000Y-127886109D01*
X90840911Y-128192327D01*
X90960391Y-128480779D01*
X91133850Y-128740379D01*
X91354621Y-128961150D01*
X91614221Y-129134609D01*
X91902673Y-129254089D01*
X92208891Y-129315000D01*
X92521109Y-129315000D01*
X92827327Y-129254089D01*
X93115779Y-129134609D01*
X93375379Y-128961150D01*
X93596150Y-128740379D01*
X93769609Y-128480779D01*
X93889089Y-128192327D01*
X93950000Y-127886109D01*
X93950000Y-127573891D01*
X93889089Y-127267673D01*
X93778216Y-127000000D01*
X99307241Y-127000000D01*
X99334214Y-127273860D01*
X99414096Y-127537195D01*
X99543817Y-127779887D01*
X99718392Y-127992608D01*
X99931113Y-128167183D01*
X100125413Y-128271038D01*
X100059058Y-128297941D01*
X99829271Y-128448994D01*
X99633368Y-128641974D01*
X99478878Y-128869465D01*
X99371738Y-129122724D01*
X99356780Y-129196930D01*
X99479280Y-129413000D01*
X100838000Y-129413000D01*
X100838000Y-129393000D01*
X101092000Y-129393000D01*
X101092000Y-129413000D01*
X102450720Y-129413000D01*
X102573220Y-129196930D01*
X102558262Y-129122724D01*
X102451122Y-128869465D01*
X102296632Y-128641974D01*
X102100729Y-128448994D01*
X101870942Y-128297941D01*
X101804587Y-128271038D01*
X101998887Y-128167183D01*
X102211608Y-127992608D01*
X102386183Y-127779887D01*
X102515904Y-127537195D01*
X102595786Y-127273860D01*
X102622759Y-127000000D01*
X102595786Y-126726140D01*
X102515904Y-126462805D01*
X102386183Y-126220113D01*
X102211608Y-126007392D01*
X101998887Y-125832817D01*
X101804587Y-125728962D01*
X101870942Y-125702059D01*
X102100729Y-125551006D01*
X102296632Y-125358026D01*
X102451122Y-125130535D01*
X102558262Y-124877276D01*
X102573220Y-124803070D01*
X102450720Y-124587000D01*
X101092000Y-124587000D01*
X101092000Y-124607000D01*
X100838000Y-124607000D01*
X100838000Y-124587000D01*
X99479280Y-124587000D01*
X99356780Y-124803070D01*
X99371738Y-124877276D01*
X99478878Y-125130535D01*
X99633368Y-125358026D01*
X99829271Y-125551006D01*
X100059058Y-125702059D01*
X100125413Y-125728962D01*
X99931113Y-125832817D01*
X99718392Y-126007392D01*
X99543817Y-126220113D01*
X99414096Y-126462805D01*
X99334214Y-126726140D01*
X99307241Y-127000000D01*
X93778216Y-127000000D01*
X93769609Y-126979221D01*
X93596150Y-126719621D01*
X93375379Y-126498850D01*
X93115779Y-126325391D01*
X92827327Y-126205911D01*
X92521109Y-126145000D01*
X92208891Y-126145000D01*
X91902673Y-126205911D01*
X91614221Y-126325391D01*
X91354621Y-126498850D01*
X91133850Y-126719621D01*
X90960391Y-126979221D01*
X90840911Y-127267673D01*
X90780000Y-127573891D01*
X90501115Y-127573891D01*
X90505926Y-127569080D01*
X90821654Y-127096560D01*
X91039131Y-126571523D01*
X91150000Y-126014148D01*
X91150000Y-125445852D01*
X91039131Y-124888477D01*
X90821654Y-124363440D01*
X90505926Y-123890920D01*
X90104080Y-123489074D01*
X89631560Y-123173346D01*
X89106523Y-122955869D01*
X88549148Y-122845000D01*
X87980852Y-122845000D01*
X87423477Y-122955869D01*
X86898440Y-123173346D01*
X86425920Y-123489074D01*
X86024074Y-123890920D01*
X85708346Y-124363440D01*
X85490869Y-124888477D01*
X85380000Y-125445852D01*
X76817152Y-125445852D01*
X76986183Y-125239887D01*
X77115904Y-124997195D01*
X77195786Y-124733860D01*
X77222759Y-124460000D01*
X77195786Y-124186140D01*
X77115904Y-123922805D01*
X76986183Y-123680113D01*
X76811608Y-123467392D01*
X76598887Y-123292817D01*
X76404587Y-123188962D01*
X76470942Y-123162059D01*
X76700729Y-123011006D01*
X76896632Y-122818026D01*
X77051122Y-122590535D01*
X77158262Y-122337276D01*
X77173220Y-122263070D01*
X77050720Y-122047000D01*
X75692000Y-122047000D01*
X75692000Y-122067000D01*
X75438000Y-122067000D01*
X75438000Y-122047000D01*
X74079280Y-122047000D01*
X73956780Y-122263070D01*
X73971738Y-122337276D01*
X74078878Y-122590535D01*
X74233368Y-122818026D01*
X74429271Y-123011006D01*
X74659058Y-123162059D01*
X74725413Y-123188962D01*
X74531113Y-123292817D01*
X74318392Y-123467392D01*
X74143817Y-123680113D01*
X74014096Y-123922805D01*
X73934214Y-124186140D01*
X73907241Y-124460000D01*
X73934214Y-124733860D01*
X74014096Y-124997195D01*
X74143817Y-125239887D01*
X74318392Y-125452608D01*
X74531113Y-125627183D01*
X74725413Y-125731038D01*
X74659058Y-125757941D01*
X74429271Y-125908994D01*
X74233368Y-126101974D01*
X74078878Y-126329465D01*
X74004067Y-126506305D01*
X69417762Y-121920000D01*
X99307241Y-121920000D01*
X99334214Y-122193860D01*
X99414096Y-122457195D01*
X99543817Y-122699887D01*
X99718392Y-122912608D01*
X99931113Y-123087183D01*
X100125413Y-123191038D01*
X100059058Y-123217941D01*
X99829271Y-123368994D01*
X99633368Y-123561974D01*
X99478878Y-123789465D01*
X99371738Y-124042724D01*
X99356780Y-124116930D01*
X99479280Y-124333000D01*
X100838000Y-124333000D01*
X100838000Y-124313000D01*
X101092000Y-124313000D01*
X101092000Y-124333000D01*
X102450720Y-124333000D01*
X102573220Y-124116930D01*
X102558262Y-124042724D01*
X102451122Y-123789465D01*
X102296632Y-123561974D01*
X102100729Y-123368994D01*
X101870942Y-123217941D01*
X101804587Y-123191038D01*
X101998887Y-123087183D01*
X102211608Y-122912608D01*
X102386183Y-122699887D01*
X102515904Y-122457195D01*
X102595786Y-122193860D01*
X102622759Y-121920000D01*
X102595786Y-121646140D01*
X102515904Y-121382805D01*
X102386183Y-121140113D01*
X102211608Y-120927392D01*
X101998887Y-120752817D01*
X101804587Y-120648962D01*
X101870942Y-120622059D01*
X102100729Y-120471006D01*
X102296632Y-120278026D01*
X102451122Y-120050535D01*
X102558262Y-119797276D01*
X102573220Y-119723070D01*
X102450720Y-119507000D01*
X101092000Y-119507000D01*
X101092000Y-119527000D01*
X100838000Y-119527000D01*
X100838000Y-119507000D01*
X99479280Y-119507000D01*
X99356780Y-119723070D01*
X99371738Y-119797276D01*
X99478878Y-120050535D01*
X99633368Y-120278026D01*
X99829271Y-120471006D01*
X100059058Y-120622059D01*
X100125413Y-120648962D01*
X99931113Y-120752817D01*
X99718392Y-120927392D01*
X99543817Y-121140113D01*
X99414096Y-121382805D01*
X99334214Y-121646140D01*
X99307241Y-121920000D01*
X69417762Y-121920000D01*
X56312500Y-108814739D01*
X56312500Y-71752891D01*
X56674841Y-72115232D01*
X57286383Y-72523850D01*
X57965891Y-72805312D01*
X58687253Y-72948800D01*
X59422747Y-72948800D01*
X60144109Y-72805312D01*
X60823617Y-72523850D01*
X61435159Y-72115232D01*
X61955232Y-71595159D01*
X62363850Y-70983617D01*
X62645312Y-70304109D01*
X62788800Y-69582747D01*
X62788800Y-68847253D01*
X62645312Y-68125891D01*
X62363850Y-67446383D01*
X61955232Y-66834841D01*
X61435159Y-66314768D01*
X60823617Y-65906150D01*
X60144109Y-65624688D01*
X59422747Y-65481200D01*
X58687253Y-65481200D01*
X57965891Y-65624688D01*
X57286383Y-65906150D01*
X56674841Y-66314768D01*
X56154768Y-66834841D01*
X55746150Y-67446383D01*
X55464688Y-68125891D01*
X55321200Y-68847253D01*
X55321200Y-69088438D01*
X54461411Y-68228650D01*
X54483000Y-68120118D01*
X54483000Y-67769882D01*
X54414672Y-67426377D01*
X54280643Y-67102801D01*
X54086063Y-66811591D01*
X53838409Y-66563937D01*
X53547199Y-66369357D01*
X53223623Y-66235328D01*
X52880118Y-66167000D01*
X52529882Y-66167000D01*
X52186377Y-66235328D01*
X51862801Y-66369357D01*
X51574700Y-66561860D01*
X51574700Y-64248140D01*
X51862801Y-64440643D01*
X52186377Y-64574672D01*
X52529882Y-64643000D01*
X52880118Y-64643000D01*
X53223623Y-64574672D01*
X53547199Y-64440643D01*
X53838409Y-64246063D01*
X54086063Y-63998409D01*
X54147541Y-63906400D01*
X79202459Y-63906400D01*
X79263937Y-63998409D01*
X79511591Y-64246063D01*
X79802801Y-64440643D01*
X80126377Y-64574672D01*
X80469882Y-64643000D01*
X80820118Y-64643000D01*
X80928650Y-64621411D01*
X81256301Y-64949063D01*
X81256301Y-66273716D01*
X81163623Y-66235328D01*
X80820118Y-66167000D01*
X80469882Y-66167000D01*
X80126377Y-66235328D01*
X79802801Y-66369357D01*
X79511591Y-66563937D01*
X79263937Y-66811591D01*
X79069357Y-67102801D01*
X78935328Y-67426377D01*
X78867000Y-67769882D01*
X78867000Y-68120118D01*
X78888589Y-68228650D01*
X78286591Y-68830648D01*
X78246857Y-68863257D01*
X78116719Y-69021830D01*
X78020017Y-69202747D01*
X77960469Y-69399051D01*
X77945400Y-69552049D01*
X77945400Y-69552059D01*
X77940363Y-69603200D01*
X77945400Y-69654342D01*
X77945401Y-71170449D01*
X77940363Y-71221600D01*
X77945401Y-71272751D01*
X77945401Y-71272752D01*
X77960470Y-71425750D01*
X77968367Y-71451782D01*
X78020018Y-71622055D01*
X78116719Y-71802969D01*
X78214250Y-71921811D01*
X78214254Y-71921815D01*
X78246858Y-71961543D01*
X78286586Y-71994147D01*
X80144218Y-73851779D01*
X80126377Y-73855328D01*
X79802801Y-73989357D01*
X79511591Y-74183937D01*
X79263937Y-74431591D01*
X79069357Y-74722801D01*
X78935328Y-75046377D01*
X78867000Y-75389882D01*
X78867000Y-75740118D01*
X78888588Y-75848650D01*
X72422091Y-82315148D01*
X72382357Y-82347757D01*
X72252219Y-82506330D01*
X72155517Y-82687247D01*
X72095969Y-82883551D01*
X72080900Y-83036549D01*
X72080900Y-83036559D01*
X72075863Y-83087700D01*
X72080900Y-83138841D01*
X72080901Y-116886149D01*
X72075863Y-116937300D01*
X72095970Y-117141449D01*
X72155518Y-117337755D01*
X72252219Y-117518669D01*
X72349750Y-117637511D01*
X72349754Y-117637515D01*
X72382358Y-117677243D01*
X72422086Y-117709847D01*
X73923828Y-119211590D01*
X73907241Y-119380000D01*
X73934214Y-119653860D01*
X74014096Y-119917195D01*
X74143817Y-120159887D01*
X74318392Y-120372608D01*
X74531113Y-120547183D01*
X74725413Y-120651038D01*
X74659058Y-120677941D01*
X74429271Y-120828994D01*
X74233368Y-121021974D01*
X74078878Y-121249465D01*
X73971738Y-121502724D01*
X73956780Y-121576930D01*
X74079280Y-121793000D01*
X75438000Y-121793000D01*
X75438000Y-121773000D01*
X75692000Y-121773000D01*
X75692000Y-121793000D01*
X77050720Y-121793000D01*
X77173220Y-121576930D01*
X77158262Y-121502724D01*
X77051122Y-121249465D01*
X76896632Y-121021974D01*
X76700729Y-120828994D01*
X76470942Y-120677941D01*
X76404587Y-120651038D01*
X76598887Y-120547183D01*
X76811608Y-120372608D01*
X76986183Y-120159887D01*
X77115904Y-119917195D01*
X77195786Y-119653860D01*
X77222759Y-119380000D01*
X77195786Y-119106140D01*
X77115904Y-118842805D01*
X76986183Y-118600113D01*
X76811608Y-118387392D01*
X76598887Y-118212817D01*
X76404587Y-118108962D01*
X76470942Y-118082059D01*
X76700729Y-117931006D01*
X76896632Y-117738026D01*
X77051122Y-117510535D01*
X77158262Y-117257276D01*
X77173220Y-117183070D01*
X77050720Y-116967000D01*
X75692000Y-116967000D01*
X75692000Y-116987000D01*
X75438000Y-116987000D01*
X75438000Y-116967000D01*
X75418000Y-116967000D01*
X75418000Y-116840000D01*
X99307241Y-116840000D01*
X99334214Y-117113860D01*
X99414096Y-117377195D01*
X99543817Y-117619887D01*
X99718392Y-117832608D01*
X99931113Y-118007183D01*
X100125413Y-118111038D01*
X100059058Y-118137941D01*
X99829271Y-118288994D01*
X99633368Y-118481974D01*
X99478878Y-118709465D01*
X99371738Y-118962724D01*
X99356780Y-119036930D01*
X99479280Y-119253000D01*
X100838000Y-119253000D01*
X100838000Y-119233000D01*
X101092000Y-119233000D01*
X101092000Y-119253000D01*
X102450720Y-119253000D01*
X102573220Y-119036930D01*
X102558262Y-118962724D01*
X102451122Y-118709465D01*
X102296632Y-118481974D01*
X102100729Y-118288994D01*
X101870942Y-118137941D01*
X101804587Y-118111038D01*
X101998887Y-118007183D01*
X102211608Y-117832608D01*
X102386183Y-117619887D01*
X102515904Y-117377195D01*
X102595786Y-117113860D01*
X102622759Y-116840000D01*
X102595786Y-116566140D01*
X102515904Y-116302805D01*
X102386183Y-116060113D01*
X102211608Y-115847392D01*
X101998887Y-115672817D01*
X101804587Y-115568962D01*
X101870942Y-115542059D01*
X102100729Y-115391006D01*
X102296632Y-115198026D01*
X102451122Y-114970535D01*
X102558262Y-114717276D01*
X102573220Y-114643070D01*
X102450720Y-114427000D01*
X101092000Y-114427000D01*
X101092000Y-114447000D01*
X100838000Y-114447000D01*
X100838000Y-114427000D01*
X99479280Y-114427000D01*
X99356780Y-114643070D01*
X99371738Y-114717276D01*
X99478878Y-114970535D01*
X99633368Y-115198026D01*
X99829271Y-115391006D01*
X100059058Y-115542059D01*
X100125413Y-115568962D01*
X99931113Y-115672817D01*
X99718392Y-115847392D01*
X99543817Y-116060113D01*
X99414096Y-116302805D01*
X99334214Y-116566140D01*
X99307241Y-116840000D01*
X75418000Y-116840000D01*
X75418000Y-116713000D01*
X75438000Y-116713000D01*
X75438000Y-116693000D01*
X75692000Y-116693000D01*
X75692000Y-116713000D01*
X77050720Y-116713000D01*
X77173220Y-116496930D01*
X77158262Y-116422724D01*
X77051122Y-116169465D01*
X76896632Y-115941974D01*
X76700729Y-115748994D01*
X76470942Y-115597941D01*
X76404587Y-115571038D01*
X76598887Y-115467183D01*
X76811608Y-115292608D01*
X76986183Y-115079887D01*
X77115904Y-114837195D01*
X77195786Y-114573860D01*
X77222759Y-114300000D01*
X77195786Y-114026140D01*
X77115904Y-113762805D01*
X76986183Y-113520113D01*
X76811608Y-113307392D01*
X76598887Y-113132817D01*
X76404587Y-113028962D01*
X76470942Y-113002059D01*
X76700729Y-112851006D01*
X76896632Y-112658026D01*
X77051122Y-112430535D01*
X77158262Y-112177276D01*
X77173220Y-112103070D01*
X77050720Y-111887000D01*
X75692000Y-111887000D01*
X75692000Y-111907000D01*
X75438000Y-111907000D01*
X75438000Y-111887000D01*
X75418000Y-111887000D01*
X75418000Y-111760000D01*
X99307241Y-111760000D01*
X99334214Y-112033860D01*
X99414096Y-112297195D01*
X99543817Y-112539887D01*
X99718392Y-112752608D01*
X99931113Y-112927183D01*
X100125413Y-113031038D01*
X100059058Y-113057941D01*
X99829271Y-113208994D01*
X99633368Y-113401974D01*
X99478878Y-113629465D01*
X99371738Y-113882724D01*
X99356780Y-113956930D01*
X99479280Y-114173000D01*
X100838000Y-114173000D01*
X100838000Y-114153000D01*
X101092000Y-114153000D01*
X101092000Y-114173000D01*
X102450720Y-114173000D01*
X102573220Y-113956930D01*
X102558262Y-113882724D01*
X102451122Y-113629465D01*
X102296632Y-113401974D01*
X102100729Y-113208994D01*
X101870942Y-113057941D01*
X101804587Y-113031038D01*
X101998887Y-112927183D01*
X102211608Y-112752608D01*
X102386183Y-112539887D01*
X102515904Y-112297195D01*
X102595786Y-112033860D01*
X102622759Y-111760000D01*
X102595786Y-111486140D01*
X102515904Y-111222805D01*
X102386183Y-110980113D01*
X102211608Y-110767392D01*
X101998887Y-110592817D01*
X101804587Y-110488962D01*
X101870942Y-110462059D01*
X102100729Y-110311006D01*
X102296632Y-110118026D01*
X102451122Y-109890535D01*
X102558262Y-109637276D01*
X102573220Y-109563070D01*
X102450720Y-109347000D01*
X101092000Y-109347000D01*
X101092000Y-109367000D01*
X100838000Y-109367000D01*
X100838000Y-109347000D01*
X99479280Y-109347000D01*
X99356780Y-109563070D01*
X99371738Y-109637276D01*
X99478878Y-109890535D01*
X99633368Y-110118026D01*
X99829271Y-110311006D01*
X100059058Y-110462059D01*
X100125413Y-110488962D01*
X99931113Y-110592817D01*
X99718392Y-110767392D01*
X99543817Y-110980113D01*
X99414096Y-111222805D01*
X99334214Y-111486140D01*
X99307241Y-111760000D01*
X75418000Y-111760000D01*
X75418000Y-111633000D01*
X75438000Y-111633000D01*
X75438000Y-111613000D01*
X75692000Y-111613000D01*
X75692000Y-111633000D01*
X77050720Y-111633000D01*
X77173220Y-111416930D01*
X77158262Y-111342724D01*
X77051122Y-111089465D01*
X76896632Y-110861974D01*
X76700729Y-110668994D01*
X76470942Y-110517941D01*
X76404587Y-110491038D01*
X76598887Y-110387183D01*
X76811608Y-110212608D01*
X76986183Y-109999887D01*
X77115904Y-109757195D01*
X77195786Y-109493860D01*
X77222759Y-109220000D01*
X77195786Y-108946140D01*
X77115904Y-108682805D01*
X76986183Y-108440113D01*
X76811608Y-108227392D01*
X76598887Y-108052817D01*
X76404587Y-107948962D01*
X76470942Y-107922059D01*
X76700729Y-107771006D01*
X76896632Y-107578026D01*
X77051122Y-107350535D01*
X77158262Y-107097276D01*
X77173220Y-107023070D01*
X77050720Y-106807000D01*
X75692000Y-106807000D01*
X75692000Y-106827000D01*
X75438000Y-106827000D01*
X75438000Y-106807000D01*
X75418000Y-106807000D01*
X75418000Y-106680000D01*
X99307241Y-106680000D01*
X99334214Y-106953860D01*
X99414096Y-107217195D01*
X99543817Y-107459887D01*
X99718392Y-107672608D01*
X99931113Y-107847183D01*
X100125413Y-107951038D01*
X100059058Y-107977941D01*
X99829271Y-108128994D01*
X99633368Y-108321974D01*
X99478878Y-108549465D01*
X99371738Y-108802724D01*
X99356780Y-108876930D01*
X99479280Y-109093000D01*
X100838000Y-109093000D01*
X100838000Y-109073000D01*
X101092000Y-109073000D01*
X101092000Y-109093000D01*
X102450720Y-109093000D01*
X102573220Y-108876930D01*
X102558262Y-108802724D01*
X102451122Y-108549465D01*
X102296632Y-108321974D01*
X102100729Y-108128994D01*
X101870942Y-107977941D01*
X101804587Y-107951038D01*
X101998887Y-107847183D01*
X102211608Y-107672608D01*
X102386183Y-107459887D01*
X102515904Y-107217195D01*
X102595786Y-106953860D01*
X102622759Y-106680000D01*
X102595786Y-106406140D01*
X102515904Y-106142805D01*
X102386183Y-105900113D01*
X102211608Y-105687392D01*
X101998887Y-105512817D01*
X101804587Y-105408962D01*
X101870942Y-105382059D01*
X102100729Y-105231006D01*
X102296632Y-105038026D01*
X102451122Y-104810535D01*
X102558262Y-104557276D01*
X102573220Y-104483070D01*
X102450720Y-104267000D01*
X101092000Y-104267000D01*
X101092000Y-104287000D01*
X100838000Y-104287000D01*
X100838000Y-104267000D01*
X99479280Y-104267000D01*
X99356780Y-104483070D01*
X99371738Y-104557276D01*
X99478878Y-104810535D01*
X99633368Y-105038026D01*
X99829271Y-105231006D01*
X100059058Y-105382059D01*
X100125413Y-105408962D01*
X99931113Y-105512817D01*
X99718392Y-105687392D01*
X99543817Y-105900113D01*
X99414096Y-106142805D01*
X99334214Y-106406140D01*
X99307241Y-106680000D01*
X75418000Y-106680000D01*
X75418000Y-106553000D01*
X75438000Y-106553000D01*
X75438000Y-106533000D01*
X75692000Y-106533000D01*
X75692000Y-106553000D01*
X77050720Y-106553000D01*
X77173220Y-106336930D01*
X77158262Y-106262724D01*
X77051122Y-106009465D01*
X76896632Y-105781974D01*
X76700729Y-105588994D01*
X76470942Y-105437941D01*
X76404587Y-105411038D01*
X76598887Y-105307183D01*
X76752155Y-105181400D01*
X79958859Y-105181400D01*
X80010000Y-105186437D01*
X80061141Y-105181400D01*
X80061152Y-105181400D01*
X80214150Y-105166331D01*
X80410454Y-105106783D01*
X80591370Y-105010081D01*
X80749943Y-104879943D01*
X80782552Y-104840209D01*
X84022761Y-101600000D01*
X99307241Y-101600000D01*
X99334214Y-101873860D01*
X99414096Y-102137195D01*
X99543817Y-102379887D01*
X99718392Y-102592608D01*
X99931113Y-102767183D01*
X100125413Y-102871038D01*
X100059058Y-102897941D01*
X99829271Y-103048994D01*
X99633368Y-103241974D01*
X99478878Y-103469465D01*
X99371738Y-103722724D01*
X99356780Y-103796930D01*
X99479280Y-104013000D01*
X100838000Y-104013000D01*
X100838000Y-103993000D01*
X101092000Y-103993000D01*
X101092000Y-104013000D01*
X102450720Y-104013000D01*
X102573220Y-103796930D01*
X102558262Y-103722724D01*
X102451122Y-103469465D01*
X102296632Y-103241974D01*
X102100729Y-103048994D01*
X101870942Y-102897941D01*
X101804587Y-102871038D01*
X101998887Y-102767183D01*
X102211608Y-102592608D01*
X102386183Y-102379887D01*
X102515904Y-102137195D01*
X102595786Y-101873860D01*
X102622759Y-101600000D01*
X102595786Y-101326140D01*
X102515904Y-101062805D01*
X102386183Y-100820113D01*
X102211608Y-100607392D01*
X101998887Y-100432817D01*
X101804587Y-100328962D01*
X101870942Y-100302059D01*
X102100729Y-100151006D01*
X102296632Y-99958026D01*
X102451122Y-99730535D01*
X102558262Y-99477276D01*
X102573220Y-99403070D01*
X102450720Y-99187000D01*
X101092000Y-99187000D01*
X101092000Y-99207000D01*
X100838000Y-99207000D01*
X100838000Y-99187000D01*
X99479280Y-99187000D01*
X99356780Y-99403070D01*
X99371738Y-99477276D01*
X99478878Y-99730535D01*
X99633368Y-99958026D01*
X99829271Y-100151006D01*
X100059058Y-100302059D01*
X100125413Y-100328962D01*
X99931113Y-100432817D01*
X99718392Y-100607392D01*
X99543817Y-100820113D01*
X99414096Y-101062805D01*
X99334214Y-101326140D01*
X99307241Y-101600000D01*
X84022761Y-101600000D01*
X86905831Y-98716930D01*
X99356780Y-98716930D01*
X99479280Y-98933000D01*
X100838000Y-98933000D01*
X100838000Y-97663000D01*
X101092000Y-97663000D01*
X101092000Y-98933000D01*
X102450720Y-98933000D01*
X102573220Y-98716930D01*
X102558262Y-98642724D01*
X102451122Y-98389465D01*
X102296632Y-98161974D01*
X102100729Y-97968994D01*
X101870942Y-97817941D01*
X101616101Y-97714619D01*
X101346000Y-97663000D01*
X101092000Y-97663000D01*
X100838000Y-97663000D01*
X100584000Y-97663000D01*
X100313899Y-97714619D01*
X100059058Y-97817941D01*
X99829271Y-97968994D01*
X99633368Y-98161974D01*
X99478878Y-98389465D01*
X99371738Y-98642724D01*
X99356780Y-98716930D01*
X86905831Y-98716930D01*
X106911591Y-78711171D01*
X107009357Y-78947199D01*
X107203937Y-79238409D01*
X107451591Y-79486063D01*
X107742801Y-79680643D01*
X108066377Y-79814672D01*
X108409882Y-79883000D01*
X108760118Y-79883000D01*
X109103623Y-79814672D01*
X109427199Y-79680643D01*
X109718409Y-79486063D01*
X109966063Y-79238409D01*
X110160643Y-78947199D01*
X110294672Y-78623623D01*
X110363000Y-78280118D01*
X110363000Y-77929882D01*
X110294672Y-77586377D01*
X110160643Y-77262801D01*
X109966063Y-76971591D01*
X109829472Y-76835000D01*
X109966063Y-76698409D01*
X110160643Y-76407199D01*
X110294672Y-76083623D01*
X110363000Y-75740118D01*
X110363000Y-75389882D01*
X110294672Y-75046377D01*
X110160643Y-74722801D01*
X109966063Y-74431591D01*
X109718409Y-74183937D01*
X109427199Y-73989357D01*
X109103623Y-73855328D01*
X108760118Y-73787000D01*
X108409882Y-73787000D01*
X108066377Y-73855328D01*
X107742801Y-73989357D01*
X107451591Y-74183937D01*
X107203937Y-74431591D01*
X107009357Y-74722801D01*
X106875328Y-75046377D01*
X106807000Y-75389882D01*
X106807000Y-75740118D01*
X106828588Y-75848650D01*
X79578639Y-103098600D01*
X76752155Y-103098600D01*
X76598887Y-102972817D01*
X76404587Y-102868962D01*
X76470942Y-102842059D01*
X76700729Y-102691006D01*
X76896632Y-102498026D01*
X77051122Y-102270535D01*
X77158262Y-102017276D01*
X77173220Y-101943070D01*
X77050720Y-101727000D01*
X75692000Y-101727000D01*
X75692000Y-101747000D01*
X75438000Y-101747000D01*
X75438000Y-101727000D01*
X75418000Y-101727000D01*
X75418000Y-101473000D01*
X75438000Y-101473000D01*
X75438000Y-101453000D01*
X75692000Y-101453000D01*
X75692000Y-101473000D01*
X77050720Y-101473000D01*
X77173220Y-101256930D01*
X77158262Y-101182724D01*
X77051122Y-100929465D01*
X76896632Y-100701974D01*
X76700729Y-100508994D01*
X76470942Y-100357941D01*
X76404587Y-100331038D01*
X76598887Y-100227183D01*
X76811608Y-100052608D01*
X76986183Y-99839887D01*
X77115904Y-99597195D01*
X77195786Y-99333860D01*
X77222759Y-99060000D01*
X77195786Y-98786140D01*
X77115904Y-98522805D01*
X76986183Y-98280113D01*
X76811608Y-98067392D01*
X76770613Y-98033748D01*
X90382660Y-84421701D01*
X90297000Y-84852340D01*
X90297000Y-85327660D01*
X90389731Y-85793846D01*
X90571628Y-86232984D01*
X90835701Y-86628198D01*
X91171802Y-86964299D01*
X91567016Y-87228372D01*
X92006154Y-87410269D01*
X92472340Y-87503000D01*
X92947660Y-87503000D01*
X93413846Y-87410269D01*
X93852984Y-87228372D01*
X94248198Y-86964299D01*
X94584299Y-86628198D01*
X94848372Y-86232984D01*
X95030269Y-85793846D01*
X95123000Y-85327660D01*
X95123000Y-84852340D01*
X95030269Y-84386154D01*
X94848372Y-83947016D01*
X94584299Y-83551802D01*
X94248198Y-83215701D01*
X93852984Y-82951628D01*
X93413846Y-82769731D01*
X92947660Y-82677000D01*
X92472340Y-82677000D01*
X92041701Y-82762660D01*
X105817962Y-68986400D01*
X107142459Y-68986400D01*
X107203937Y-69078409D01*
X107340528Y-69215000D01*
X107203937Y-69351591D01*
X107009357Y-69642801D01*
X106875328Y-69966377D01*
X106807000Y-70309882D01*
X106807000Y-70660118D01*
X106875328Y-71003623D01*
X107009357Y-71327199D01*
X107203937Y-71618409D01*
X107451591Y-71866063D01*
X107742801Y-72060643D01*
X108066377Y-72194672D01*
X108409882Y-72263000D01*
X108760118Y-72263000D01*
X109103623Y-72194672D01*
X109427199Y-72060643D01*
X109718409Y-71866063D01*
X109966063Y-71618409D01*
X110160643Y-71327199D01*
X110294672Y-71003623D01*
X110363000Y-70660118D01*
X110363000Y-70309882D01*
X110294672Y-69966377D01*
X110160643Y-69642801D01*
X109966063Y-69351591D01*
X109829472Y-69215000D01*
X109966063Y-69078409D01*
X110120516Y-68847253D01*
X113741200Y-68847253D01*
X113741200Y-69582747D01*
X113884688Y-70304109D01*
X114166150Y-70983617D01*
X114574768Y-71595159D01*
X115094841Y-72115232D01*
X115706383Y-72523850D01*
X116385891Y-72805312D01*
X117107253Y-72948800D01*
X117842747Y-72948800D01*
X118564109Y-72805312D01*
X119243617Y-72523850D01*
X119855159Y-72115232D01*
X120375232Y-71595159D01*
X120783850Y-70983617D01*
X121065312Y-70304109D01*
X121208800Y-69582747D01*
X121208800Y-68847253D01*
X121065312Y-68125891D01*
X120783850Y-67446383D01*
X120375232Y-66834841D01*
X119855159Y-66314768D01*
X119243617Y-65906150D01*
X118564109Y-65624688D01*
X117842747Y-65481200D01*
X117107253Y-65481200D01*
X116385891Y-65624688D01*
X115706383Y-65906150D01*
X115094841Y-66314768D01*
X114574768Y-66834841D01*
X114166150Y-67446383D01*
X113884688Y-68125891D01*
X113741200Y-68847253D01*
X110120516Y-68847253D01*
X110160643Y-68787199D01*
X110294672Y-68463623D01*
X110363000Y-68120118D01*
X110363000Y-67769882D01*
X110294672Y-67426377D01*
X110160643Y-67102801D01*
X109966063Y-66811591D01*
X109718409Y-66563937D01*
X109427199Y-66369357D01*
X109103623Y-66235328D01*
X108760118Y-66167000D01*
X108409882Y-66167000D01*
X108066377Y-66235328D01*
X107742801Y-66369357D01*
X107451591Y-66563937D01*
X107203937Y-66811591D01*
X107142459Y-66903600D01*
X105437741Y-66903600D01*
X105386599Y-66898563D01*
X105335458Y-66903600D01*
X105335448Y-66903600D01*
X105182450Y-66918669D01*
X104986146Y-66978217D01*
X104986144Y-66978218D01*
X104805230Y-67074919D01*
X104686388Y-67172450D01*
X104686385Y-67172453D01*
X104646657Y-67205057D01*
X104614053Y-67244785D01*
X75080300Y-96778539D01*
X75080300Y-94836461D01*
X83032215Y-86884547D01*
X83071943Y-86851943D01*
X83104550Y-86812212D01*
X83202081Y-86693371D01*
X83298782Y-86512456D01*
X83298783Y-86512454D01*
X83358331Y-86316150D01*
X83373400Y-86163152D01*
X83373400Y-86163142D01*
X83378437Y-86112001D01*
X83373400Y-86060859D01*
X83373400Y-74617941D01*
X83378437Y-74566799D01*
X83373400Y-74515658D01*
X83373400Y-74515648D01*
X83358331Y-74362650D01*
X83298783Y-74166346D01*
X83202081Y-73985430D01*
X83071943Y-73826857D01*
X83032215Y-73794253D01*
X81353842Y-72115881D01*
X81487199Y-72060643D01*
X81778409Y-71866063D01*
X82026063Y-71618409D01*
X82220643Y-71327199D01*
X82354672Y-71003623D01*
X82423000Y-70660118D01*
X82423000Y-70309882D01*
X82401411Y-70201350D01*
X82997914Y-69604847D01*
X83037643Y-69572243D01*
X83070247Y-69532515D01*
X83070251Y-69532511D01*
X83167781Y-69413670D01*
X83264482Y-69232755D01*
X83264483Y-69232754D01*
X83324031Y-69036450D01*
X83339100Y-68883452D01*
X83339100Y-68883444D01*
X83344137Y-68832300D01*
X83339100Y-68781156D01*
X83339100Y-64949061D01*
X84381762Y-63906400D01*
X107142459Y-63906400D01*
X107203937Y-63998409D01*
X107451591Y-64246063D01*
X107742801Y-64440643D01*
X108066377Y-64574672D01*
X108409882Y-64643000D01*
X108760118Y-64643000D01*
X109103623Y-64574672D01*
X109427199Y-64440643D01*
X109718409Y-64246063D01*
X109966063Y-63998409D01*
X110160643Y-63707199D01*
X110294672Y-63383623D01*
X110363000Y-63040118D01*
X110363000Y-62689882D01*
X110294672Y-62346377D01*
X110160643Y-62022801D01*
X109966063Y-61731591D01*
X109829472Y-61595000D01*
X109966063Y-61458409D01*
X110160643Y-61167199D01*
X110294672Y-60843623D01*
X110363000Y-60500118D01*
X110363000Y-60149882D01*
X110294672Y-59806377D01*
X110160643Y-59482801D01*
X109966063Y-59191591D01*
X109718409Y-58943937D01*
X109427199Y-58749357D01*
X109103623Y-58615328D01*
X108760118Y-58547000D01*
X108409882Y-58547000D01*
X108066377Y-58615328D01*
X107742801Y-58749357D01*
X107451591Y-58943937D01*
X107203937Y-59191591D01*
X107009357Y-59482801D01*
X106875328Y-59806377D01*
X106807000Y-60149882D01*
X106807000Y-60500118D01*
X106875328Y-60843623D01*
X107009357Y-61167199D01*
X107203937Y-61458409D01*
X107340528Y-61595000D01*
X107203937Y-61731591D01*
X107142459Y-61823600D01*
X84001544Y-61823600D01*
X83950400Y-61818563D01*
X83899256Y-61823600D01*
X83899248Y-61823600D01*
X83746250Y-61838669D01*
X83549946Y-61898217D01*
X83369030Y-61994919D01*
X83250189Y-62092449D01*
X83250185Y-62092453D01*
X83210457Y-62125057D01*
X83177853Y-62164786D01*
X82423000Y-62919638D01*
X82423000Y-62689882D01*
X82354672Y-62346377D01*
X82220643Y-62022801D01*
X82026063Y-61731591D01*
X81889472Y-61595000D01*
X82026063Y-61458409D01*
X82220643Y-61167199D01*
X82354672Y-60843623D01*
X82423000Y-60500118D01*
X82423000Y-60149882D01*
X82354672Y-59806377D01*
X82220643Y-59482801D01*
X82026063Y-59191591D01*
X81778409Y-58943937D01*
X81487199Y-58749357D01*
X81163623Y-58615328D01*
X80820118Y-58547000D01*
X80469882Y-58547000D01*
X80126377Y-58615328D01*
X79802801Y-58749357D01*
X79511591Y-58943937D01*
X79263937Y-59191591D01*
X79069357Y-59482801D01*
X78935328Y-59806377D01*
X78867000Y-60149882D01*
X78867000Y-60500118D01*
X78935328Y-60843623D01*
X79069357Y-61167199D01*
X79263937Y-61458409D01*
X79400528Y-61595000D01*
X79263937Y-61731591D01*
X79202459Y-61823600D01*
X54147541Y-61823600D01*
X54086063Y-61731591D01*
X53949472Y-61595000D01*
X54086063Y-61458409D01*
X54280643Y-61167199D01*
X54414672Y-60843623D01*
X54483000Y-60500118D01*
X54483000Y-60149882D01*
X54414672Y-59806377D01*
X54280643Y-59482801D01*
X54086063Y-59191591D01*
X53838409Y-58943937D01*
X53547199Y-58749357D01*
X53223623Y-58615328D01*
X52880118Y-58547000D01*
X52529882Y-58547000D01*
X52186377Y-58615328D01*
X51862801Y-58749357D01*
X51574700Y-58941860D01*
X51574700Y-57180440D01*
X51645707Y-56278205D01*
X51645914Y-56277340D01*
X62357000Y-56277340D01*
X62357000Y-56752660D01*
X62449731Y-57218846D01*
X62631628Y-57657984D01*
X62895701Y-58053198D01*
X63231802Y-58389299D01*
X63627016Y-58653372D01*
X64066154Y-58835269D01*
X64532340Y-58928000D01*
X65007660Y-58928000D01*
X65473846Y-58835269D01*
X65912984Y-58653372D01*
X66308198Y-58389299D01*
X66644299Y-58053198D01*
X66908372Y-57657984D01*
X67090269Y-57218846D01*
X67183000Y-56752660D01*
X67183000Y-56277340D01*
X118237000Y-56277340D01*
X118237000Y-56752660D01*
X118329731Y-57218846D01*
X118511628Y-57657984D01*
X118775701Y-58053198D01*
X119111802Y-58389299D01*
X119507016Y-58653372D01*
X119946154Y-58835269D01*
X120412340Y-58928000D01*
X120887660Y-58928000D01*
X121353846Y-58835269D01*
X121792984Y-58653372D01*
X122188198Y-58389299D01*
X122524299Y-58053198D01*
X122788372Y-57657984D01*
X122970269Y-57218846D01*
X123063000Y-56752660D01*
X123063000Y-56277340D01*
X122970269Y-55811154D01*
X122788372Y-55372016D01*
X122524299Y-54976802D01*
X122188198Y-54640701D01*
X121792984Y-54376628D01*
X121353846Y-54194731D01*
X120887660Y-54102000D01*
X120412340Y-54102000D01*
X119946154Y-54194731D01*
X119507016Y-54376628D01*
X119111802Y-54640701D01*
X118775701Y-54976802D01*
X118511628Y-55372016D01*
X118329731Y-55811154D01*
X118237000Y-56277340D01*
X67183000Y-56277340D01*
X67090269Y-55811154D01*
X66908372Y-55372016D01*
X66644299Y-54976802D01*
X66308198Y-54640701D01*
X65912984Y-54376628D01*
X65473846Y-54194731D01*
X65007660Y-54102000D01*
X64532340Y-54102000D01*
X64066154Y-54194731D01*
X63627016Y-54376628D01*
X63231802Y-54640701D01*
X62895701Y-54976802D01*
X62631628Y-55372016D01*
X62449731Y-55811154D01*
X62357000Y-56277340D01*
X51645914Y-56277340D01*
X51849853Y-55427876D01*
X52184505Y-54619956D01*
X52641426Y-53874329D01*
X53209362Y-53209361D01*
X53874326Y-52641427D01*
X54619956Y-52184505D01*
X55427876Y-51849853D01*
X56278205Y-51645707D01*
X57180441Y-51574700D01*
X119349560Y-51574700D01*
X120251795Y-51645707D01*
G37*
X120251795Y-51645707D02*
X121102124Y-51849853D01*
X121910044Y-52184505D01*
X122655671Y-52641426D01*
X123320639Y-53209362D01*
X123888573Y-53874326D01*
X124345495Y-54619956D01*
X124680147Y-55427876D01*
X124884293Y-56278205D01*
X124955300Y-57180441D01*
X124955301Y-134589547D01*
X124884293Y-135491795D01*
X124680147Y-136342124D01*
X124345495Y-137150044D01*
X123888573Y-137895674D01*
X123320639Y-138560638D01*
X122655671Y-139128574D01*
X121910044Y-139585495D01*
X121102124Y-139920147D01*
X120251795Y-140124293D01*
X119349560Y-140195300D01*
X57180441Y-140195300D01*
X56278205Y-140124293D01*
X55427876Y-139920147D01*
X54619956Y-139585495D01*
X53874326Y-139128573D01*
X53209362Y-138560639D01*
X52641426Y-137895671D01*
X52184505Y-137150044D01*
X51849853Y-136342124D01*
X51645707Y-135491795D01*
X51598129Y-134887253D01*
X55321200Y-134887253D01*
X55321200Y-135622747D01*
X55464688Y-136344109D01*
X55746150Y-137023617D01*
X56154768Y-137635159D01*
X56674841Y-138155232D01*
X57286383Y-138563850D01*
X57965891Y-138845312D01*
X58687253Y-138988800D01*
X59422747Y-138988800D01*
X60144109Y-138845312D01*
X60823617Y-138563850D01*
X61435159Y-138155232D01*
X61955232Y-137635159D01*
X62043490Y-137503070D01*
X73956780Y-137503070D01*
X73971738Y-137577276D01*
X74078878Y-137830535D01*
X74233368Y-138058026D01*
X74429271Y-138251006D01*
X74659058Y-138402059D01*
X74913899Y-138505381D01*
X75184000Y-138557000D01*
X75438000Y-138557000D01*
X75438000Y-137287000D01*
X75692000Y-137287000D01*
X75692000Y-138557000D01*
X75946000Y-138557000D01*
X76216101Y-138505381D01*
X76470942Y-138402059D01*
X76700729Y-138251006D01*
X76896632Y-138058026D01*
X77051122Y-137830535D01*
X77158262Y-137577276D01*
X77173220Y-137503070D01*
X77050720Y-137287000D01*
X75692000Y-137287000D01*
X75438000Y-137287000D01*
X74079280Y-137287000D01*
X73956780Y-137503070D01*
X62043490Y-137503070D01*
X62272721Y-137160000D01*
X99307241Y-137160000D01*
X99334214Y-137433860D01*
X99414096Y-137697195D01*
X99543817Y-137939887D01*
X99718392Y-138152608D01*
X99931113Y-138327183D01*
X100173805Y-138456904D01*
X100437140Y-138536786D01*
X100642375Y-138557000D01*
X101287625Y-138557000D01*
X101492860Y-138536786D01*
X101756195Y-138456904D01*
X101998887Y-138327183D01*
X102211608Y-138152608D01*
X102386183Y-137939887D01*
X102515904Y-137697195D01*
X102595786Y-137433860D01*
X102622759Y-137160000D01*
X102595786Y-136886140D01*
X102515904Y-136622805D01*
X102386183Y-136380113D01*
X102211608Y-136167392D01*
X101998887Y-135992817D01*
X101804587Y-135888962D01*
X101870942Y-135862059D01*
X102100729Y-135711006D01*
X102296632Y-135518026D01*
X102451122Y-135290535D01*
X102558262Y-135037276D01*
X102573220Y-134963070D01*
X102530236Y-134887253D01*
X113741200Y-134887253D01*
X113741200Y-135622747D01*
X113884688Y-136344109D01*
X114166150Y-137023617D01*
X114574768Y-137635159D01*
X115094841Y-138155232D01*
X115706383Y-138563850D01*
X116385891Y-138845312D01*
X117107253Y-138988800D01*
X117842747Y-138988800D01*
X118564109Y-138845312D01*
X119243617Y-138563850D01*
X119855159Y-138155232D01*
X120375232Y-137635159D01*
X120783850Y-137023617D01*
X121065312Y-136344109D01*
X121208800Y-135622747D01*
X121208800Y-134887253D01*
X121065312Y-134165891D01*
X120783850Y-133486383D01*
X120375232Y-132874841D01*
X119855159Y-132354768D01*
X119243617Y-131946150D01*
X118564109Y-131664688D01*
X117842747Y-131521200D01*
X117107253Y-131521200D01*
X116385891Y-131664688D01*
X115706383Y-131946150D01*
X115094841Y-132354768D01*
X114574768Y-132874841D01*
X114166150Y-133486383D01*
X113884688Y-134165891D01*
X113741200Y-134887253D01*
X102530236Y-134887253D01*
X102450720Y-134747000D01*
X101092000Y-134747000D01*
X101092000Y-134767000D01*
X100838000Y-134767000D01*
X100838000Y-134747000D01*
X99479280Y-134747000D01*
X99356780Y-134963070D01*
X99371738Y-135037276D01*
X99478878Y-135290535D01*
X99633368Y-135518026D01*
X99829271Y-135711006D01*
X100059058Y-135862059D01*
X100125413Y-135888962D01*
X99931113Y-135992817D01*
X99718392Y-136167392D01*
X99543817Y-136380113D01*
X99414096Y-136622805D01*
X99334214Y-136886140D01*
X99307241Y-137160000D01*
X62272721Y-137160000D01*
X62363850Y-137023617D01*
X62645312Y-136344109D01*
X62788800Y-135622747D01*
X62788800Y-134887253D01*
X62735641Y-134620000D01*
X73907241Y-134620000D01*
X73934214Y-134893860D01*
X74014096Y-135157195D01*
X74143817Y-135399887D01*
X74318392Y-135612608D01*
X74531113Y-135787183D01*
X74725413Y-135891038D01*
X74659058Y-135917941D01*
X74429271Y-136068994D01*
X74233368Y-136261974D01*
X74078878Y-136489465D01*
X73971738Y-136742724D01*
X73956780Y-136816930D01*
X74079280Y-137033000D01*
X75438000Y-137033000D01*
X75438000Y-137013000D01*
X75692000Y-137013000D01*
X75692000Y-137033000D01*
X77050720Y-137033000D01*
X77173220Y-136816930D01*
X77158262Y-136742724D01*
X77051122Y-136489465D01*
X76896632Y-136261974D01*
X76700729Y-136068994D01*
X76470942Y-135917941D01*
X76404587Y-135891038D01*
X76598887Y-135787183D01*
X76811608Y-135612608D01*
X76986183Y-135399887D01*
X77115904Y-135157195D01*
X77195786Y-134893860D01*
X77222759Y-134620000D01*
X77195786Y-134346140D01*
X77115904Y-134082805D01*
X76986183Y-133840113D01*
X76811608Y-133627392D01*
X76598887Y-133452817D01*
X76404587Y-133348962D01*
X76470942Y-133322059D01*
X76700729Y-133171006D01*
X76896632Y-132978026D01*
X77051122Y-132750535D01*
X77158262Y-132497276D01*
X77173220Y-132423070D01*
X77050720Y-132207000D01*
X75692000Y-132207000D01*
X75692000Y-132227000D01*
X75438000Y-132227000D01*
X75438000Y-132207000D01*
X74079280Y-132207000D01*
X73956780Y-132423070D01*
X73971738Y-132497276D01*
X74078878Y-132750535D01*
X74233368Y-132978026D01*
X74429271Y-133171006D01*
X74659058Y-133322059D01*
X74725413Y-133348962D01*
X74531113Y-133452817D01*
X74318392Y-133627392D01*
X74143817Y-133840113D01*
X74014096Y-134082805D01*
X73934214Y-134346140D01*
X73907241Y-134620000D01*
X62735641Y-134620000D01*
X62645312Y-134165891D01*
X62363850Y-133486383D01*
X61955232Y-132874841D01*
X61435159Y-132354768D01*
X61023939Y-132080000D01*
X99307241Y-132080000D01*
X99334214Y-132353860D01*
X99414096Y-132617195D01*
X99543817Y-132859887D01*
X99718392Y-133072608D01*
X99931113Y-133247183D01*
X100125413Y-133351038D01*
X100059058Y-133377941D01*
X99829271Y-133528994D01*
X99633368Y-133721974D01*
X99478878Y-133949465D01*
X99371738Y-134202724D01*
X99356780Y-134276930D01*
X99479280Y-134493000D01*
X100838000Y-134493000D01*
X100838000Y-134473000D01*
X101092000Y-134473000D01*
X101092000Y-134493000D01*
X102450720Y-134493000D01*
X102573220Y-134276930D01*
X102558262Y-134202724D01*
X102451122Y-133949465D01*
X102296632Y-133721974D01*
X102100729Y-133528994D01*
X101870942Y-133377941D01*
X101804587Y-133351038D01*
X101998887Y-133247183D01*
X102211608Y-133072608D01*
X102386183Y-132859887D01*
X102515904Y-132617195D01*
X102595786Y-132353860D01*
X102622759Y-132080000D01*
X102595786Y-131806140D01*
X102515904Y-131542805D01*
X102386183Y-131300113D01*
X102211608Y-131087392D01*
X101998887Y-130912817D01*
X101804587Y-130808962D01*
X101870942Y-130782059D01*
X102100729Y-130631006D01*
X102296632Y-130438026D01*
X102451122Y-130210535D01*
X102558262Y-129957276D01*
X102573220Y-129883070D01*
X102450720Y-129667000D01*
X101092000Y-129667000D01*
X101092000Y-129687000D01*
X100838000Y-129687000D01*
X100838000Y-129667000D01*
X99479280Y-129667000D01*
X99356780Y-129883070D01*
X99371738Y-129957276D01*
X99478878Y-130210535D01*
X99633368Y-130438026D01*
X99829271Y-130631006D01*
X100059058Y-130782059D01*
X100125413Y-130808962D01*
X99931113Y-130912817D01*
X99718392Y-131087392D01*
X99543817Y-131300113D01*
X99414096Y-131542805D01*
X99334214Y-131806140D01*
X99307241Y-132080000D01*
X61023939Y-132080000D01*
X60823617Y-131946150D01*
X60144109Y-131664688D01*
X59422747Y-131521200D01*
X58687253Y-131521200D01*
X57965891Y-131664688D01*
X57286383Y-131946150D01*
X56674841Y-132354768D01*
X56154768Y-132874841D01*
X55746150Y-133486383D01*
X55464688Y-134165891D01*
X55321200Y-134887253D01*
X51598129Y-134887253D01*
X51574700Y-134589560D01*
X51574700Y-79488140D01*
X51862801Y-79680643D01*
X52186377Y-79814672D01*
X52529882Y-79883000D01*
X52880118Y-79883000D01*
X53223623Y-79814672D01*
X53547199Y-79680643D01*
X53838409Y-79486063D01*
X54086063Y-79238409D01*
X54229701Y-79023440D01*
X54229700Y-109194959D01*
X54224663Y-109246100D01*
X54229700Y-109297241D01*
X54229700Y-109297251D01*
X54244769Y-109450249D01*
X54304317Y-109646553D01*
X54401019Y-109827470D01*
X54531157Y-109986043D01*
X54570891Y-110018652D01*
X73923828Y-129371590D01*
X73907241Y-129540000D01*
X73934214Y-129813860D01*
X74014096Y-130077195D01*
X74143817Y-130319887D01*
X74318392Y-130532608D01*
X74531113Y-130707183D01*
X74725413Y-130811038D01*
X74659058Y-130837941D01*
X74429271Y-130988994D01*
X74233368Y-131181974D01*
X74078878Y-131409465D01*
X73971738Y-131662724D01*
X73956780Y-131736930D01*
X74079280Y-131953000D01*
X75438000Y-131953000D01*
X75438000Y-131933000D01*
X75692000Y-131933000D01*
X75692000Y-131953000D01*
X77050720Y-131953000D01*
X77173220Y-131736930D01*
X77158262Y-131662724D01*
X77051122Y-131409465D01*
X76896632Y-131181974D01*
X76700729Y-130988994D01*
X76470942Y-130837941D01*
X76404587Y-130811038D01*
X76598887Y-130707183D01*
X76811608Y-130532608D01*
X76986183Y-130319887D01*
X77115904Y-130077195D01*
X77195786Y-129813860D01*
X77222759Y-129540000D01*
X77195786Y-129266140D01*
X77115904Y-129002805D01*
X76986183Y-128760113D01*
X76811608Y-128547392D01*
X76598887Y-128372817D01*
X76404587Y-128268962D01*
X76470942Y-128242059D01*
X76700729Y-128091006D01*
X76896632Y-127898026D01*
X77051122Y-127670535D01*
X77092006Y-127573891D01*
X82580000Y-127573891D01*
X82580000Y-127886109D01*
X82640911Y-128192327D01*
X82760391Y-128480779D01*
X82933850Y-128740379D01*
X83154621Y-128961150D01*
X83414221Y-129134609D01*
X83702673Y-129254089D01*
X84008891Y-129315000D01*
X84321109Y-129315000D01*
X84627327Y-129254089D01*
X84915779Y-129134609D01*
X85175379Y-128961150D01*
X85396150Y-128740379D01*
X85569609Y-128480779D01*
X85689089Y-128192327D01*
X85750000Y-127886109D01*
X85750000Y-127573891D01*
X85689089Y-127267673D01*
X85569609Y-126979221D01*
X85396150Y-126719621D01*
X85175379Y-126498850D01*
X84915779Y-126325391D01*
X84627327Y-126205911D01*
X84321109Y-126145000D01*
X84008891Y-126145000D01*
X83702673Y-126205911D01*
X83414221Y-126325391D01*
X83154621Y-126498850D01*
X82933850Y-126719621D01*
X82760391Y-126979221D01*
X82640911Y-127267673D01*
X82580000Y-127573891D01*
X77092006Y-127573891D01*
X77158262Y-127417276D01*
X77173220Y-127343070D01*
X77050720Y-127127000D01*
X75692000Y-127127000D01*
X75692000Y-127147000D01*
X75438000Y-127147000D01*
X75438000Y-127127000D01*
X75418000Y-127127000D01*
X75418000Y-126873000D01*
X75438000Y-126873000D01*
X75438000Y-126853000D01*
X75692000Y-126853000D01*
X75692000Y-126873000D01*
X77050720Y-126873000D01*
X77173220Y-126656930D01*
X77158262Y-126582724D01*
X77051122Y-126329465D01*
X76896632Y-126101974D01*
X76700729Y-125908994D01*
X76470942Y-125757941D01*
X76404587Y-125731038D01*
X76598887Y-125627183D01*
X76811608Y-125452608D01*
X76817152Y-125445852D01*
X85380000Y-125445852D01*
X85380000Y-126014148D01*
X85490869Y-126571523D01*
X85708346Y-127096560D01*
X86024074Y-127569080D01*
X86425920Y-127970926D01*
X86898440Y-128286654D01*
X87423477Y-128504131D01*
X87980852Y-128615000D01*
X88549148Y-128615000D01*
X89106523Y-128504131D01*
X89631560Y-128286654D01*
X90104080Y-127970926D01*
X90501115Y-127573891D01*
X90780000Y-127573891D01*
X90780000Y-127886109D01*
X90840911Y-128192327D01*
X90960391Y-128480779D01*
X91133850Y-128740379D01*
X91354621Y-128961150D01*
X91614221Y-129134609D01*
X91902673Y-129254089D01*
X92208891Y-129315000D01*
X92521109Y-129315000D01*
X92827327Y-129254089D01*
X93115779Y-129134609D01*
X93375379Y-128961150D01*
X93596150Y-128740379D01*
X93769609Y-128480779D01*
X93889089Y-128192327D01*
X93950000Y-127886109D01*
X93950000Y-127573891D01*
X93889089Y-127267673D01*
X93778216Y-127000000D01*
X99307241Y-127000000D01*
X99334214Y-127273860D01*
X99414096Y-127537195D01*
X99543817Y-127779887D01*
X99718392Y-127992608D01*
X99931113Y-128167183D01*
X100125413Y-128271038D01*
X100059058Y-128297941D01*
X99829271Y-128448994D01*
X99633368Y-128641974D01*
X99478878Y-128869465D01*
X99371738Y-129122724D01*
X99356780Y-129196930D01*
X99479280Y-129413000D01*
X100838000Y-129413000D01*
X100838000Y-129393000D01*
X101092000Y-129393000D01*
X101092000Y-129413000D01*
X102450720Y-129413000D01*
X102573220Y-129196930D01*
X102558262Y-129122724D01*
X102451122Y-128869465D01*
X102296632Y-128641974D01*
X102100729Y-128448994D01*
X101870942Y-128297941D01*
X101804587Y-128271038D01*
X101998887Y-128167183D01*
X102211608Y-127992608D01*
X102386183Y-127779887D01*
X102515904Y-127537195D01*
X102595786Y-127273860D01*
X102622759Y-127000000D01*
X102595786Y-126726140D01*
X102515904Y-126462805D01*
X102386183Y-126220113D01*
X102211608Y-126007392D01*
X101998887Y-125832817D01*
X101804587Y-125728962D01*
X101870942Y-125702059D01*
X102100729Y-125551006D01*
X102296632Y-125358026D01*
X102451122Y-125130535D01*
X102558262Y-124877276D01*
X102573220Y-124803070D01*
X102450720Y-124587000D01*
X101092000Y-124587000D01*
X101092000Y-124607000D01*
X100838000Y-124607000D01*
X100838000Y-124587000D01*
X99479280Y-124587000D01*
X99356780Y-124803070D01*
X99371738Y-124877276D01*
X99478878Y-125130535D01*
X99633368Y-125358026D01*
X99829271Y-125551006D01*
X100059058Y-125702059D01*
X100125413Y-125728962D01*
X99931113Y-125832817D01*
X99718392Y-126007392D01*
X99543817Y-126220113D01*
X99414096Y-126462805D01*
X99334214Y-126726140D01*
X99307241Y-127000000D01*
X93778216Y-127000000D01*
X93769609Y-126979221D01*
X93596150Y-126719621D01*
X93375379Y-126498850D01*
X93115779Y-126325391D01*
X92827327Y-126205911D01*
X92521109Y-126145000D01*
X92208891Y-126145000D01*
X91902673Y-126205911D01*
X91614221Y-126325391D01*
X91354621Y-126498850D01*
X91133850Y-126719621D01*
X90960391Y-126979221D01*
X90840911Y-127267673D01*
X90780000Y-127573891D01*
X90501115Y-127573891D01*
X90505926Y-127569080D01*
X90821654Y-127096560D01*
X91039131Y-126571523D01*
X91150000Y-126014148D01*
X91150000Y-125445852D01*
X91039131Y-124888477D01*
X90821654Y-124363440D01*
X90505926Y-123890920D01*
X90104080Y-123489074D01*
X89631560Y-123173346D01*
X89106523Y-122955869D01*
X88549148Y-122845000D01*
X87980852Y-122845000D01*
X87423477Y-122955869D01*
X86898440Y-123173346D01*
X86425920Y-123489074D01*
X86024074Y-123890920D01*
X85708346Y-124363440D01*
X85490869Y-124888477D01*
X85380000Y-125445852D01*
X76817152Y-125445852D01*
X76986183Y-125239887D01*
X77115904Y-124997195D01*
X77195786Y-124733860D01*
X77222759Y-124460000D01*
X77195786Y-124186140D01*
X77115904Y-123922805D01*
X76986183Y-123680113D01*
X76811608Y-123467392D01*
X76598887Y-123292817D01*
X76404587Y-123188962D01*
X76470942Y-123162059D01*
X76700729Y-123011006D01*
X76896632Y-122818026D01*
X77051122Y-122590535D01*
X77158262Y-122337276D01*
X77173220Y-122263070D01*
X77050720Y-122047000D01*
X75692000Y-122047000D01*
X75692000Y-122067000D01*
X75438000Y-122067000D01*
X75438000Y-122047000D01*
X74079280Y-122047000D01*
X73956780Y-122263070D01*
X73971738Y-122337276D01*
X74078878Y-122590535D01*
X74233368Y-122818026D01*
X74429271Y-123011006D01*
X74659058Y-123162059D01*
X74725413Y-123188962D01*
X74531113Y-123292817D01*
X74318392Y-123467392D01*
X74143817Y-123680113D01*
X74014096Y-123922805D01*
X73934214Y-124186140D01*
X73907241Y-124460000D01*
X73934214Y-124733860D01*
X74014096Y-124997195D01*
X74143817Y-125239887D01*
X74318392Y-125452608D01*
X74531113Y-125627183D01*
X74725413Y-125731038D01*
X74659058Y-125757941D01*
X74429271Y-125908994D01*
X74233368Y-126101974D01*
X74078878Y-126329465D01*
X74004067Y-126506305D01*
X69417762Y-121920000D01*
X99307241Y-121920000D01*
X99334214Y-122193860D01*
X99414096Y-122457195D01*
X99543817Y-122699887D01*
X99718392Y-122912608D01*
X99931113Y-123087183D01*
X100125413Y-123191038D01*
X100059058Y-123217941D01*
X99829271Y-123368994D01*
X99633368Y-123561974D01*
X99478878Y-123789465D01*
X99371738Y-124042724D01*
X99356780Y-124116930D01*
X99479280Y-124333000D01*
X100838000Y-124333000D01*
X100838000Y-124313000D01*
X101092000Y-124313000D01*
X101092000Y-124333000D01*
X102450720Y-124333000D01*
X102573220Y-124116930D01*
X102558262Y-124042724D01*
X102451122Y-123789465D01*
X102296632Y-123561974D01*
X102100729Y-123368994D01*
X101870942Y-123217941D01*
X101804587Y-123191038D01*
X101998887Y-123087183D01*
X102211608Y-122912608D01*
X102386183Y-122699887D01*
X102515904Y-122457195D01*
X102595786Y-122193860D01*
X102622759Y-121920000D01*
X102595786Y-121646140D01*
X102515904Y-121382805D01*
X102386183Y-121140113D01*
X102211608Y-120927392D01*
X101998887Y-120752817D01*
X101804587Y-120648962D01*
X101870942Y-120622059D01*
X102100729Y-120471006D01*
X102296632Y-120278026D01*
X102451122Y-120050535D01*
X102558262Y-119797276D01*
X102573220Y-119723070D01*
X102450720Y-119507000D01*
X101092000Y-119507000D01*
X101092000Y-119527000D01*
X100838000Y-119527000D01*
X100838000Y-119507000D01*
X99479280Y-119507000D01*
X99356780Y-119723070D01*
X99371738Y-119797276D01*
X99478878Y-120050535D01*
X99633368Y-120278026D01*
X99829271Y-120471006D01*
X100059058Y-120622059D01*
X100125413Y-120648962D01*
X99931113Y-120752817D01*
X99718392Y-120927392D01*
X99543817Y-121140113D01*
X99414096Y-121382805D01*
X99334214Y-121646140D01*
X99307241Y-121920000D01*
X69417762Y-121920000D01*
X56312500Y-108814739D01*
X56312500Y-71752891D01*
X56674841Y-72115232D01*
X57286383Y-72523850D01*
X57965891Y-72805312D01*
X58687253Y-72948800D01*
X59422747Y-72948800D01*
X60144109Y-72805312D01*
X60823617Y-72523850D01*
X61435159Y-72115232D01*
X61955232Y-71595159D01*
X62363850Y-70983617D01*
X62645312Y-70304109D01*
X62788800Y-69582747D01*
X62788800Y-68847253D01*
X62645312Y-68125891D01*
X62363850Y-67446383D01*
X61955232Y-66834841D01*
X61435159Y-66314768D01*
X60823617Y-65906150D01*
X60144109Y-65624688D01*
X59422747Y-65481200D01*
X58687253Y-65481200D01*
X57965891Y-65624688D01*
X57286383Y-65906150D01*
X56674841Y-66314768D01*
X56154768Y-66834841D01*
X55746150Y-67446383D01*
X55464688Y-68125891D01*
X55321200Y-68847253D01*
X55321200Y-69088438D01*
X54461411Y-68228650D01*
X54483000Y-68120118D01*
X54483000Y-67769882D01*
X54414672Y-67426377D01*
X54280643Y-67102801D01*
X54086063Y-66811591D01*
X53838409Y-66563937D01*
X53547199Y-66369357D01*
X53223623Y-66235328D01*
X52880118Y-66167000D01*
X52529882Y-66167000D01*
X52186377Y-66235328D01*
X51862801Y-66369357D01*
X51574700Y-66561860D01*
X51574700Y-64248140D01*
X51862801Y-64440643D01*
X52186377Y-64574672D01*
X52529882Y-64643000D01*
X52880118Y-64643000D01*
X53223623Y-64574672D01*
X53547199Y-64440643D01*
X53838409Y-64246063D01*
X54086063Y-63998409D01*
X54147541Y-63906400D01*
X79202459Y-63906400D01*
X79263937Y-63998409D01*
X79511591Y-64246063D01*
X79802801Y-64440643D01*
X80126377Y-64574672D01*
X80469882Y-64643000D01*
X80820118Y-64643000D01*
X80928650Y-64621411D01*
X81256301Y-64949063D01*
X81256301Y-66273716D01*
X81163623Y-66235328D01*
X80820118Y-66167000D01*
X80469882Y-66167000D01*
X80126377Y-66235328D01*
X79802801Y-66369357D01*
X79511591Y-66563937D01*
X79263937Y-66811591D01*
X79069357Y-67102801D01*
X78935328Y-67426377D01*
X78867000Y-67769882D01*
X78867000Y-68120118D01*
X78888589Y-68228650D01*
X78286591Y-68830648D01*
X78246857Y-68863257D01*
X78116719Y-69021830D01*
X78020017Y-69202747D01*
X77960469Y-69399051D01*
X77945400Y-69552049D01*
X77945400Y-69552059D01*
X77940363Y-69603200D01*
X77945400Y-69654342D01*
X77945401Y-71170449D01*
X77940363Y-71221600D01*
X77945401Y-71272751D01*
X77945401Y-71272752D01*
X77960470Y-71425750D01*
X77968367Y-71451782D01*
X78020018Y-71622055D01*
X78116719Y-71802969D01*
X78214250Y-71921811D01*
X78214254Y-71921815D01*
X78246858Y-71961543D01*
X78286586Y-71994147D01*
X80144218Y-73851779D01*
X80126377Y-73855328D01*
X79802801Y-73989357D01*
X79511591Y-74183937D01*
X79263937Y-74431591D01*
X79069357Y-74722801D01*
X78935328Y-75046377D01*
X78867000Y-75389882D01*
X78867000Y-75740118D01*
X78888588Y-75848650D01*
X72422091Y-82315148D01*
X72382357Y-82347757D01*
X72252219Y-82506330D01*
X72155517Y-82687247D01*
X72095969Y-82883551D01*
X72080900Y-83036549D01*
X72080900Y-83036559D01*
X72075863Y-83087700D01*
X72080900Y-83138841D01*
X72080901Y-116886149D01*
X72075863Y-116937300D01*
X72095970Y-117141449D01*
X72155518Y-117337755D01*
X72252219Y-117518669D01*
X72349750Y-117637511D01*
X72349754Y-117637515D01*
X72382358Y-117677243D01*
X72422086Y-117709847D01*
X73923828Y-119211590D01*
X73907241Y-119380000D01*
X73934214Y-119653860D01*
X74014096Y-119917195D01*
X74143817Y-120159887D01*
X74318392Y-120372608D01*
X74531113Y-120547183D01*
X74725413Y-120651038D01*
X74659058Y-120677941D01*
X74429271Y-120828994D01*
X74233368Y-121021974D01*
X74078878Y-121249465D01*
X73971738Y-121502724D01*
X73956780Y-121576930D01*
X74079280Y-121793000D01*
X75438000Y-121793000D01*
X75438000Y-121773000D01*
X75692000Y-121773000D01*
X75692000Y-121793000D01*
X77050720Y-121793000D01*
X77173220Y-121576930D01*
X77158262Y-121502724D01*
X77051122Y-121249465D01*
X76896632Y-121021974D01*
X76700729Y-120828994D01*
X76470942Y-120677941D01*
X76404587Y-120651038D01*
X76598887Y-120547183D01*
X76811608Y-120372608D01*
X76986183Y-120159887D01*
X77115904Y-119917195D01*
X77195786Y-119653860D01*
X77222759Y-119380000D01*
X77195786Y-119106140D01*
X77115904Y-118842805D01*
X76986183Y-118600113D01*
X76811608Y-118387392D01*
X76598887Y-118212817D01*
X76404587Y-118108962D01*
X76470942Y-118082059D01*
X76700729Y-117931006D01*
X76896632Y-117738026D01*
X77051122Y-117510535D01*
X77158262Y-117257276D01*
X77173220Y-117183070D01*
X77050720Y-116967000D01*
X75692000Y-116967000D01*
X75692000Y-116987000D01*
X75438000Y-116987000D01*
X75438000Y-116967000D01*
X75418000Y-116967000D01*
X75418000Y-116840000D01*
X99307241Y-116840000D01*
X99334214Y-117113860D01*
X99414096Y-117377195D01*
X99543817Y-117619887D01*
X99718392Y-117832608D01*
X99931113Y-118007183D01*
X100125413Y-118111038D01*
X100059058Y-118137941D01*
X99829271Y-118288994D01*
X99633368Y-118481974D01*
X99478878Y-118709465D01*
X99371738Y-118962724D01*
X99356780Y-119036930D01*
X99479280Y-119253000D01*
X100838000Y-119253000D01*
X100838000Y-119233000D01*
X101092000Y-119233000D01*
X101092000Y-119253000D01*
X102450720Y-119253000D01*
X102573220Y-119036930D01*
X102558262Y-118962724D01*
X102451122Y-118709465D01*
X102296632Y-118481974D01*
X102100729Y-118288994D01*
X101870942Y-118137941D01*
X101804587Y-118111038D01*
X101998887Y-118007183D01*
X102211608Y-117832608D01*
X102386183Y-117619887D01*
X102515904Y-117377195D01*
X102595786Y-117113860D01*
X102622759Y-116840000D01*
X102595786Y-116566140D01*
X102515904Y-116302805D01*
X102386183Y-116060113D01*
X102211608Y-115847392D01*
X101998887Y-115672817D01*
X101804587Y-115568962D01*
X101870942Y-115542059D01*
X102100729Y-115391006D01*
X102296632Y-115198026D01*
X102451122Y-114970535D01*
X102558262Y-114717276D01*
X102573220Y-114643070D01*
X102450720Y-114427000D01*
X101092000Y-114427000D01*
X101092000Y-114447000D01*
X100838000Y-114447000D01*
X100838000Y-114427000D01*
X99479280Y-114427000D01*
X99356780Y-114643070D01*
X99371738Y-114717276D01*
X99478878Y-114970535D01*
X99633368Y-115198026D01*
X99829271Y-115391006D01*
X100059058Y-115542059D01*
X100125413Y-115568962D01*
X99931113Y-115672817D01*
X99718392Y-115847392D01*
X99543817Y-116060113D01*
X99414096Y-116302805D01*
X99334214Y-116566140D01*
X99307241Y-116840000D01*
X75418000Y-116840000D01*
X75418000Y-116713000D01*
X75438000Y-116713000D01*
X75438000Y-116693000D01*
X75692000Y-116693000D01*
X75692000Y-116713000D01*
X77050720Y-116713000D01*
X77173220Y-116496930D01*
X77158262Y-116422724D01*
X77051122Y-116169465D01*
X76896632Y-115941974D01*
X76700729Y-115748994D01*
X76470942Y-115597941D01*
X76404587Y-115571038D01*
X76598887Y-115467183D01*
X76811608Y-115292608D01*
X76986183Y-115079887D01*
X77115904Y-114837195D01*
X77195786Y-114573860D01*
X77222759Y-114300000D01*
X77195786Y-114026140D01*
X77115904Y-113762805D01*
X76986183Y-113520113D01*
X76811608Y-113307392D01*
X76598887Y-113132817D01*
X76404587Y-113028962D01*
X76470942Y-113002059D01*
X76700729Y-112851006D01*
X76896632Y-112658026D01*
X77051122Y-112430535D01*
X77158262Y-112177276D01*
X77173220Y-112103070D01*
X77050720Y-111887000D01*
X75692000Y-111887000D01*
X75692000Y-111907000D01*
X75438000Y-111907000D01*
X75438000Y-111887000D01*
X75418000Y-111887000D01*
X75418000Y-111760000D01*
X99307241Y-111760000D01*
X99334214Y-112033860D01*
X99414096Y-112297195D01*
X99543817Y-112539887D01*
X99718392Y-112752608D01*
X99931113Y-112927183D01*
X100125413Y-113031038D01*
X100059058Y-113057941D01*
X99829271Y-113208994D01*
X99633368Y-113401974D01*
X99478878Y-113629465D01*
X99371738Y-113882724D01*
X99356780Y-113956930D01*
X99479280Y-114173000D01*
X100838000Y-114173000D01*
X100838000Y-114153000D01*
X101092000Y-114153000D01*
X101092000Y-114173000D01*
X102450720Y-114173000D01*
X102573220Y-113956930D01*
X102558262Y-113882724D01*
X102451122Y-113629465D01*
X102296632Y-113401974D01*
X102100729Y-113208994D01*
X101870942Y-113057941D01*
X101804587Y-113031038D01*
X101998887Y-112927183D01*
X102211608Y-112752608D01*
X102386183Y-112539887D01*
X102515904Y-112297195D01*
X102595786Y-112033860D01*
X102622759Y-111760000D01*
X102595786Y-111486140D01*
X102515904Y-111222805D01*
X102386183Y-110980113D01*
X102211608Y-110767392D01*
X101998887Y-110592817D01*
X101804587Y-110488962D01*
X101870942Y-110462059D01*
X102100729Y-110311006D01*
X102296632Y-110118026D01*
X102451122Y-109890535D01*
X102558262Y-109637276D01*
X102573220Y-109563070D01*
X102450720Y-109347000D01*
X101092000Y-109347000D01*
X101092000Y-109367000D01*
X100838000Y-109367000D01*
X100838000Y-109347000D01*
X99479280Y-109347000D01*
X99356780Y-109563070D01*
X99371738Y-109637276D01*
X99478878Y-109890535D01*
X99633368Y-110118026D01*
X99829271Y-110311006D01*
X100059058Y-110462059D01*
X100125413Y-110488962D01*
X99931113Y-110592817D01*
X99718392Y-110767392D01*
X99543817Y-110980113D01*
X99414096Y-111222805D01*
X99334214Y-111486140D01*
X99307241Y-111760000D01*
X75418000Y-111760000D01*
X75418000Y-111633000D01*
X75438000Y-111633000D01*
X75438000Y-111613000D01*
X75692000Y-111613000D01*
X75692000Y-111633000D01*
X77050720Y-111633000D01*
X77173220Y-111416930D01*
X77158262Y-111342724D01*
X77051122Y-111089465D01*
X76896632Y-110861974D01*
X76700729Y-110668994D01*
X76470942Y-110517941D01*
X76404587Y-110491038D01*
X76598887Y-110387183D01*
X76811608Y-110212608D01*
X76986183Y-109999887D01*
X77115904Y-109757195D01*
X77195786Y-109493860D01*
X77222759Y-109220000D01*
X77195786Y-108946140D01*
X77115904Y-108682805D01*
X76986183Y-108440113D01*
X76811608Y-108227392D01*
X76598887Y-108052817D01*
X76404587Y-107948962D01*
X76470942Y-107922059D01*
X76700729Y-107771006D01*
X76896632Y-107578026D01*
X77051122Y-107350535D01*
X77158262Y-107097276D01*
X77173220Y-107023070D01*
X77050720Y-106807000D01*
X75692000Y-106807000D01*
X75692000Y-106827000D01*
X75438000Y-106827000D01*
X75438000Y-106807000D01*
X75418000Y-106807000D01*
X75418000Y-106680000D01*
X99307241Y-106680000D01*
X99334214Y-106953860D01*
X99414096Y-107217195D01*
X99543817Y-107459887D01*
X99718392Y-107672608D01*
X99931113Y-107847183D01*
X100125413Y-107951038D01*
X100059058Y-107977941D01*
X99829271Y-108128994D01*
X99633368Y-108321974D01*
X99478878Y-108549465D01*
X99371738Y-108802724D01*
X99356780Y-108876930D01*
X99479280Y-109093000D01*
X100838000Y-109093000D01*
X100838000Y-109073000D01*
X101092000Y-109073000D01*
X101092000Y-109093000D01*
X102450720Y-109093000D01*
X102573220Y-108876930D01*
X102558262Y-108802724D01*
X102451122Y-108549465D01*
X102296632Y-108321974D01*
X102100729Y-108128994D01*
X101870942Y-107977941D01*
X101804587Y-107951038D01*
X101998887Y-107847183D01*
X102211608Y-107672608D01*
X102386183Y-107459887D01*
X102515904Y-107217195D01*
X102595786Y-106953860D01*
X102622759Y-106680000D01*
X102595786Y-106406140D01*
X102515904Y-106142805D01*
X102386183Y-105900113D01*
X102211608Y-105687392D01*
X101998887Y-105512817D01*
X101804587Y-105408962D01*
X101870942Y-105382059D01*
X102100729Y-105231006D01*
X102296632Y-105038026D01*
X102451122Y-104810535D01*
X102558262Y-104557276D01*
X102573220Y-104483070D01*
X102450720Y-104267000D01*
X101092000Y-104267000D01*
X101092000Y-104287000D01*
X100838000Y-104287000D01*
X100838000Y-104267000D01*
X99479280Y-104267000D01*
X99356780Y-104483070D01*
X99371738Y-104557276D01*
X99478878Y-104810535D01*
X99633368Y-105038026D01*
X99829271Y-105231006D01*
X100059058Y-105382059D01*
X100125413Y-105408962D01*
X99931113Y-105512817D01*
X99718392Y-105687392D01*
X99543817Y-105900113D01*
X99414096Y-106142805D01*
X99334214Y-106406140D01*
X99307241Y-106680000D01*
X75418000Y-106680000D01*
X75418000Y-106553000D01*
X75438000Y-106553000D01*
X75438000Y-106533000D01*
X75692000Y-106533000D01*
X75692000Y-106553000D01*
X77050720Y-106553000D01*
X77173220Y-106336930D01*
X77158262Y-106262724D01*
X77051122Y-106009465D01*
X76896632Y-105781974D01*
X76700729Y-105588994D01*
X76470942Y-105437941D01*
X76404587Y-105411038D01*
X76598887Y-105307183D01*
X76752155Y-105181400D01*
X79958859Y-105181400D01*
X80010000Y-105186437D01*
X80061141Y-105181400D01*
X80061152Y-105181400D01*
X80214150Y-105166331D01*
X80410454Y-105106783D01*
X80591370Y-105010081D01*
X80749943Y-104879943D01*
X80782552Y-104840209D01*
X84022761Y-101600000D01*
X99307241Y-101600000D01*
X99334214Y-101873860D01*
X99414096Y-102137195D01*
X99543817Y-102379887D01*
X99718392Y-102592608D01*
X99931113Y-102767183D01*
X100125413Y-102871038D01*
X100059058Y-102897941D01*
X99829271Y-103048994D01*
X99633368Y-103241974D01*
X99478878Y-103469465D01*
X99371738Y-103722724D01*
X99356780Y-103796930D01*
X99479280Y-104013000D01*
X100838000Y-104013000D01*
X100838000Y-103993000D01*
X101092000Y-103993000D01*
X101092000Y-104013000D01*
X102450720Y-104013000D01*
X102573220Y-103796930D01*
X102558262Y-103722724D01*
X102451122Y-103469465D01*
X102296632Y-103241974D01*
X102100729Y-103048994D01*
X101870942Y-102897941D01*
X101804587Y-102871038D01*
X101998887Y-102767183D01*
X102211608Y-102592608D01*
X102386183Y-102379887D01*
X102515904Y-102137195D01*
X102595786Y-101873860D01*
X102622759Y-101600000D01*
X102595786Y-101326140D01*
X102515904Y-101062805D01*
X102386183Y-100820113D01*
X102211608Y-100607392D01*
X101998887Y-100432817D01*
X101804587Y-100328962D01*
X101870942Y-100302059D01*
X102100729Y-100151006D01*
X102296632Y-99958026D01*
X102451122Y-99730535D01*
X102558262Y-99477276D01*
X102573220Y-99403070D01*
X102450720Y-99187000D01*
X101092000Y-99187000D01*
X101092000Y-99207000D01*
X100838000Y-99207000D01*
X100838000Y-99187000D01*
X99479280Y-99187000D01*
X99356780Y-99403070D01*
X99371738Y-99477276D01*
X99478878Y-99730535D01*
X99633368Y-99958026D01*
X99829271Y-100151006D01*
X100059058Y-100302059D01*
X100125413Y-100328962D01*
X99931113Y-100432817D01*
X99718392Y-100607392D01*
X99543817Y-100820113D01*
X99414096Y-101062805D01*
X99334214Y-101326140D01*
X99307241Y-101600000D01*
X84022761Y-101600000D01*
X86905831Y-98716930D01*
X99356780Y-98716930D01*
X99479280Y-98933000D01*
X100838000Y-98933000D01*
X100838000Y-97663000D01*
X101092000Y-97663000D01*
X101092000Y-98933000D01*
X102450720Y-98933000D01*
X102573220Y-98716930D01*
X102558262Y-98642724D01*
X102451122Y-98389465D01*
X102296632Y-98161974D01*
X102100729Y-97968994D01*
X101870942Y-97817941D01*
X101616101Y-97714619D01*
X101346000Y-97663000D01*
X101092000Y-97663000D01*
X100838000Y-97663000D01*
X100584000Y-97663000D01*
X100313899Y-97714619D01*
X100059058Y-97817941D01*
X99829271Y-97968994D01*
X99633368Y-98161974D01*
X99478878Y-98389465D01*
X99371738Y-98642724D01*
X99356780Y-98716930D01*
X86905831Y-98716930D01*
X106911591Y-78711171D01*
X107009357Y-78947199D01*
X107203937Y-79238409D01*
X107451591Y-79486063D01*
X107742801Y-79680643D01*
X108066377Y-79814672D01*
X108409882Y-79883000D01*
X108760118Y-79883000D01*
X109103623Y-79814672D01*
X109427199Y-79680643D01*
X109718409Y-79486063D01*
X109966063Y-79238409D01*
X110160643Y-78947199D01*
X110294672Y-78623623D01*
X110363000Y-78280118D01*
X110363000Y-77929882D01*
X110294672Y-77586377D01*
X110160643Y-77262801D01*
X109966063Y-76971591D01*
X109829472Y-76835000D01*
X109966063Y-76698409D01*
X110160643Y-76407199D01*
X110294672Y-76083623D01*
X110363000Y-75740118D01*
X110363000Y-75389882D01*
X110294672Y-75046377D01*
X110160643Y-74722801D01*
X109966063Y-74431591D01*
X109718409Y-74183937D01*
X109427199Y-73989357D01*
X109103623Y-73855328D01*
X108760118Y-73787000D01*
X108409882Y-73787000D01*
X108066377Y-73855328D01*
X107742801Y-73989357D01*
X107451591Y-74183937D01*
X107203937Y-74431591D01*
X107009357Y-74722801D01*
X106875328Y-75046377D01*
X106807000Y-75389882D01*
X106807000Y-75740118D01*
X106828588Y-75848650D01*
X79578639Y-103098600D01*
X76752155Y-103098600D01*
X76598887Y-102972817D01*
X76404587Y-102868962D01*
X76470942Y-102842059D01*
X76700729Y-102691006D01*
X76896632Y-102498026D01*
X77051122Y-102270535D01*
X77158262Y-102017276D01*
X77173220Y-101943070D01*
X77050720Y-101727000D01*
X75692000Y-101727000D01*
X75692000Y-101747000D01*
X75438000Y-101747000D01*
X75438000Y-101727000D01*
X75418000Y-101727000D01*
X75418000Y-101473000D01*
X75438000Y-101473000D01*
X75438000Y-101453000D01*
X75692000Y-101453000D01*
X75692000Y-101473000D01*
X77050720Y-101473000D01*
X77173220Y-101256930D01*
X77158262Y-101182724D01*
X77051122Y-100929465D01*
X76896632Y-100701974D01*
X76700729Y-100508994D01*
X76470942Y-100357941D01*
X76404587Y-100331038D01*
X76598887Y-100227183D01*
X76811608Y-100052608D01*
X76986183Y-99839887D01*
X77115904Y-99597195D01*
X77195786Y-99333860D01*
X77222759Y-99060000D01*
X77195786Y-98786140D01*
X77115904Y-98522805D01*
X76986183Y-98280113D01*
X76811608Y-98067392D01*
X76770613Y-98033748D01*
X90382660Y-84421701D01*
X90297000Y-84852340D01*
X90297000Y-85327660D01*
X90389731Y-85793846D01*
X90571628Y-86232984D01*
X90835701Y-86628198D01*
X91171802Y-86964299D01*
X91567016Y-87228372D01*
X92006154Y-87410269D01*
X92472340Y-87503000D01*
X92947660Y-87503000D01*
X93413846Y-87410269D01*
X93852984Y-87228372D01*
X94248198Y-86964299D01*
X94584299Y-86628198D01*
X94848372Y-86232984D01*
X95030269Y-85793846D01*
X95123000Y-85327660D01*
X95123000Y-84852340D01*
X95030269Y-84386154D01*
X94848372Y-83947016D01*
X94584299Y-83551802D01*
X94248198Y-83215701D01*
X93852984Y-82951628D01*
X93413846Y-82769731D01*
X92947660Y-82677000D01*
X92472340Y-82677000D01*
X92041701Y-82762660D01*
X105817962Y-68986400D01*
X107142459Y-68986400D01*
X107203937Y-69078409D01*
X107340528Y-69215000D01*
X107203937Y-69351591D01*
X107009357Y-69642801D01*
X106875328Y-69966377D01*
X106807000Y-70309882D01*
X106807000Y-70660118D01*
X106875328Y-71003623D01*
X107009357Y-71327199D01*
X107203937Y-71618409D01*
X107451591Y-71866063D01*
X107742801Y-72060643D01*
X108066377Y-72194672D01*
X108409882Y-72263000D01*
X108760118Y-72263000D01*
X109103623Y-72194672D01*
X109427199Y-72060643D01*
X109718409Y-71866063D01*
X109966063Y-71618409D01*
X110160643Y-71327199D01*
X110294672Y-71003623D01*
X110363000Y-70660118D01*
X110363000Y-70309882D01*
X110294672Y-69966377D01*
X110160643Y-69642801D01*
X109966063Y-69351591D01*
X109829472Y-69215000D01*
X109966063Y-69078409D01*
X110120516Y-68847253D01*
X113741200Y-68847253D01*
X113741200Y-69582747D01*
X113884688Y-70304109D01*
X114166150Y-70983617D01*
X114574768Y-71595159D01*
X115094841Y-72115232D01*
X115706383Y-72523850D01*
X116385891Y-72805312D01*
X117107253Y-72948800D01*
X117842747Y-72948800D01*
X118564109Y-72805312D01*
X119243617Y-72523850D01*
X119855159Y-72115232D01*
X120375232Y-71595159D01*
X120783850Y-70983617D01*
X121065312Y-70304109D01*
X121208800Y-69582747D01*
X121208800Y-68847253D01*
X121065312Y-68125891D01*
X120783850Y-67446383D01*
X120375232Y-66834841D01*
X119855159Y-66314768D01*
X119243617Y-65906150D01*
X118564109Y-65624688D01*
X117842747Y-65481200D01*
X117107253Y-65481200D01*
X116385891Y-65624688D01*
X115706383Y-65906150D01*
X115094841Y-66314768D01*
X114574768Y-66834841D01*
X114166150Y-67446383D01*
X113884688Y-68125891D01*
X113741200Y-68847253D01*
X110120516Y-68847253D01*
X110160643Y-68787199D01*
X110294672Y-68463623D01*
X110363000Y-68120118D01*
X110363000Y-67769882D01*
X110294672Y-67426377D01*
X110160643Y-67102801D01*
X109966063Y-66811591D01*
X109718409Y-66563937D01*
X109427199Y-66369357D01*
X109103623Y-66235328D01*
X108760118Y-66167000D01*
X108409882Y-66167000D01*
X108066377Y-66235328D01*
X107742801Y-66369357D01*
X107451591Y-66563937D01*
X107203937Y-66811591D01*
X107142459Y-66903600D01*
X105437741Y-66903600D01*
X105386599Y-66898563D01*
X105335458Y-66903600D01*
X105335448Y-66903600D01*
X105182450Y-66918669D01*
X104986146Y-66978217D01*
X104986144Y-66978218D01*
X104805230Y-67074919D01*
X104686388Y-67172450D01*
X104686385Y-67172453D01*
X104646657Y-67205057D01*
X104614053Y-67244785D01*
X75080300Y-96778539D01*
X75080300Y-94836461D01*
X83032215Y-86884547D01*
X83071943Y-86851943D01*
X83104550Y-86812212D01*
X83202081Y-86693371D01*
X83298782Y-86512456D01*
X83298783Y-86512454D01*
X83358331Y-86316150D01*
X83373400Y-86163152D01*
X83373400Y-86163142D01*
X83378437Y-86112001D01*
X83373400Y-86060859D01*
X83373400Y-74617941D01*
X83378437Y-74566799D01*
X83373400Y-74515658D01*
X83373400Y-74515648D01*
X83358331Y-74362650D01*
X83298783Y-74166346D01*
X83202081Y-73985430D01*
X83071943Y-73826857D01*
X83032215Y-73794253D01*
X81353842Y-72115881D01*
X81487199Y-72060643D01*
X81778409Y-71866063D01*
X82026063Y-71618409D01*
X82220643Y-71327199D01*
X82354672Y-71003623D01*
X82423000Y-70660118D01*
X82423000Y-70309882D01*
X82401411Y-70201350D01*
X82997914Y-69604847D01*
X83037643Y-69572243D01*
X83070247Y-69532515D01*
X83070251Y-69532511D01*
X83167781Y-69413670D01*
X83264482Y-69232755D01*
X83264483Y-69232754D01*
X83324031Y-69036450D01*
X83339100Y-68883452D01*
X83339100Y-68883444D01*
X83344137Y-68832300D01*
X83339100Y-68781156D01*
X83339100Y-64949061D01*
X84381762Y-63906400D01*
X107142459Y-63906400D01*
X107203937Y-63998409D01*
X107451591Y-64246063D01*
X107742801Y-64440643D01*
X108066377Y-64574672D01*
X108409882Y-64643000D01*
X108760118Y-64643000D01*
X109103623Y-64574672D01*
X109427199Y-64440643D01*
X109718409Y-64246063D01*
X109966063Y-63998409D01*
X110160643Y-63707199D01*
X110294672Y-63383623D01*
X110363000Y-63040118D01*
X110363000Y-62689882D01*
X110294672Y-62346377D01*
X110160643Y-62022801D01*
X109966063Y-61731591D01*
X109829472Y-61595000D01*
X109966063Y-61458409D01*
X110160643Y-61167199D01*
X110294672Y-60843623D01*
X110363000Y-60500118D01*
X110363000Y-60149882D01*
X110294672Y-59806377D01*
X110160643Y-59482801D01*
X109966063Y-59191591D01*
X109718409Y-58943937D01*
X109427199Y-58749357D01*
X109103623Y-58615328D01*
X108760118Y-58547000D01*
X108409882Y-58547000D01*
X108066377Y-58615328D01*
X107742801Y-58749357D01*
X107451591Y-58943937D01*
X107203937Y-59191591D01*
X107009357Y-59482801D01*
X106875328Y-59806377D01*
X106807000Y-60149882D01*
X106807000Y-60500118D01*
X106875328Y-60843623D01*
X107009357Y-61167199D01*
X107203937Y-61458409D01*
X107340528Y-61595000D01*
X107203937Y-61731591D01*
X107142459Y-61823600D01*
X84001544Y-61823600D01*
X83950400Y-61818563D01*
X83899256Y-61823600D01*
X83899248Y-61823600D01*
X83746250Y-61838669D01*
X83549946Y-61898217D01*
X83369030Y-61994919D01*
X83250189Y-62092449D01*
X83250185Y-62092453D01*
X83210457Y-62125057D01*
X83177853Y-62164786D01*
X82423000Y-62919638D01*
X82423000Y-62689882D01*
X82354672Y-62346377D01*
X82220643Y-62022801D01*
X82026063Y-61731591D01*
X81889472Y-61595000D01*
X82026063Y-61458409D01*
X82220643Y-61167199D01*
X82354672Y-60843623D01*
X82423000Y-60500118D01*
X82423000Y-60149882D01*
X82354672Y-59806377D01*
X82220643Y-59482801D01*
X82026063Y-59191591D01*
X81778409Y-58943937D01*
X81487199Y-58749357D01*
X81163623Y-58615328D01*
X80820118Y-58547000D01*
X80469882Y-58547000D01*
X80126377Y-58615328D01*
X79802801Y-58749357D01*
X79511591Y-58943937D01*
X79263937Y-59191591D01*
X79069357Y-59482801D01*
X78935328Y-59806377D01*
X78867000Y-60149882D01*
X78867000Y-60500118D01*
X78935328Y-60843623D01*
X79069357Y-61167199D01*
X79263937Y-61458409D01*
X79400528Y-61595000D01*
X79263937Y-61731591D01*
X79202459Y-61823600D01*
X54147541Y-61823600D01*
X54086063Y-61731591D01*
X53949472Y-61595000D01*
X54086063Y-61458409D01*
X54280643Y-61167199D01*
X54414672Y-60843623D01*
X54483000Y-60500118D01*
X54483000Y-60149882D01*
X54414672Y-59806377D01*
X54280643Y-59482801D01*
X54086063Y-59191591D01*
X53838409Y-58943937D01*
X53547199Y-58749357D01*
X53223623Y-58615328D01*
X52880118Y-58547000D01*
X52529882Y-58547000D01*
X52186377Y-58615328D01*
X51862801Y-58749357D01*
X51574700Y-58941860D01*
X51574700Y-57180440D01*
X51645707Y-56278205D01*
X51645914Y-56277340D01*
X62357000Y-56277340D01*
X62357000Y-56752660D01*
X62449731Y-57218846D01*
X62631628Y-57657984D01*
X62895701Y-58053198D01*
X63231802Y-58389299D01*
X63627016Y-58653372D01*
X64066154Y-58835269D01*
X64532340Y-58928000D01*
X65007660Y-58928000D01*
X65473846Y-58835269D01*
X65912984Y-58653372D01*
X66308198Y-58389299D01*
X66644299Y-58053198D01*
X66908372Y-57657984D01*
X67090269Y-57218846D01*
X67183000Y-56752660D01*
X67183000Y-56277340D01*
X118237000Y-56277340D01*
X118237000Y-56752660D01*
X118329731Y-57218846D01*
X118511628Y-57657984D01*
X118775701Y-58053198D01*
X119111802Y-58389299D01*
X119507016Y-58653372D01*
X119946154Y-58835269D01*
X120412340Y-58928000D01*
X120887660Y-58928000D01*
X121353846Y-58835269D01*
X121792984Y-58653372D01*
X122188198Y-58389299D01*
X122524299Y-58053198D01*
X122788372Y-57657984D01*
X122970269Y-57218846D01*
X123063000Y-56752660D01*
X123063000Y-56277340D01*
X122970269Y-55811154D01*
X122788372Y-55372016D01*
X122524299Y-54976802D01*
X122188198Y-54640701D01*
X121792984Y-54376628D01*
X121353846Y-54194731D01*
X120887660Y-54102000D01*
X120412340Y-54102000D01*
X119946154Y-54194731D01*
X119507016Y-54376628D01*
X119111802Y-54640701D01*
X118775701Y-54976802D01*
X118511628Y-55372016D01*
X118329731Y-55811154D01*
X118237000Y-56277340D01*
X67183000Y-56277340D01*
X67090269Y-55811154D01*
X66908372Y-55372016D01*
X66644299Y-54976802D01*
X66308198Y-54640701D01*
X65912984Y-54376628D01*
X65473846Y-54194731D01*
X65007660Y-54102000D01*
X64532340Y-54102000D01*
X64066154Y-54194731D01*
X63627016Y-54376628D01*
X63231802Y-54640701D01*
X62895701Y-54976802D01*
X62631628Y-55372016D01*
X62449731Y-55811154D01*
X62357000Y-56277340D01*
X51645914Y-56277340D01*
X51849853Y-55427876D01*
X52184505Y-54619956D01*
X52641426Y-53874329D01*
X53209362Y-53209361D01*
X53874326Y-52641427D01*
X54619956Y-52184505D01*
X55427876Y-51849853D01*
X56278205Y-51645707D01*
X57180441Y-51574700D01*
X119349560Y-51574700D01*
X120251795Y-51645707D01*
%TD*%
M02*
