%TF.GenerationSoftware,KiCad,Pcbnew,5.1.7-a382d34a8~87~ubuntu20.04.1*%
%TF.CreationDate,2020-10-21T15:20:26-04:00*%
%TF.ProjectId,y_arena_odor_controller,795f6172-656e-4615-9f6f-646f725f636f,2.0*%
%TF.SameCoordinates,Original*%
%TF.FileFunction,Soldermask,Top*%
%TF.FilePolarity,Negative*%
%FSLAX46Y46*%
G04 Gerber Fmt 4.6, Leading zero omitted, Abs format (unit mm)*
G04 Created by KiCad (PCBNEW 5.1.7-a382d34a8~87~ubuntu20.04.1) date 2020-10-21 15:20:26*
%MOMM*%
%LPD*%
G01*
G04 APERTURE LIST*
%ADD10R,3.810000X2.030000*%
%ADD11R,1.020000X2.290000*%
%ADD12R,2.999999X2.500000*%
%ADD13O,2.540000X2.184400*%
%ADD14R,2.540000X2.184400*%
%ADD15C,2.286000*%
%ADD16C,3.000000*%
%ADD17R,3.900000X6.200000*%
%ADD18R,3.300000X4.400000*%
%ADD19R,1.193800X1.193800*%
%ADD20C,1.000000*%
%ADD21C,3.556000*%
%ADD22R,1.600200X0.787400*%
%ADD23R,0.700000X0.600000*%
G04 APERTURE END LIST*
D10*
%TO.C,SW1*%
X84580000Y-117930000D03*
X91950000Y-117930000D03*
D11*
X88265000Y-117930000D03*
D12*
X93265000Y-127000000D03*
X83265000Y-127000000D03*
%TD*%
D13*
%TO.C,TEENSY1*%
X100965000Y-127000000D03*
X100965000Y-124460000D03*
X100965000Y-121920000D03*
X100965000Y-119380000D03*
X100965000Y-116840000D03*
X100965000Y-114300000D03*
X100965000Y-111760000D03*
X100965000Y-109220000D03*
X100965000Y-106680000D03*
X100965000Y-104140000D03*
X100965000Y-101600000D03*
X100965000Y-99060000D03*
X100965000Y-96520000D03*
X100965000Y-93980000D03*
X116205000Y-93980000D03*
X116205000Y-96520000D03*
X116205000Y-99060000D03*
X116205000Y-101600000D03*
X116205000Y-104140000D03*
X116205000Y-106680000D03*
X116205000Y-109220000D03*
X116205000Y-111760000D03*
X116205000Y-114300000D03*
X116205000Y-116840000D03*
X116205000Y-119380000D03*
X116205000Y-121920000D03*
X116205000Y-124460000D03*
D14*
X116205000Y-127000000D03*
%TD*%
D15*
%TO.C,S1*%
X52705000Y-75565000D03*
X52705000Y-78105000D03*
%TD*%
%TO.C,S2*%
X52705000Y-67945000D03*
X52705000Y-70485000D03*
%TD*%
%TO.C,S3*%
X52705000Y-60325000D03*
X52705000Y-62865000D03*
%TD*%
%TO.C,S4*%
X80645000Y-75565000D03*
X80645000Y-78105000D03*
%TD*%
%TO.C,S5*%
X80645000Y-67945000D03*
X80645000Y-70485000D03*
%TD*%
%TO.C,S6*%
X80645000Y-60325000D03*
X80645000Y-62865000D03*
%TD*%
%TO.C,S7*%
X108585000Y-75565000D03*
X108585000Y-78105000D03*
%TD*%
%TO.C,S8*%
X108585000Y-67945000D03*
X108585000Y-70485000D03*
%TD*%
%TO.C,S9*%
X108585000Y-60325000D03*
X108585000Y-62865000D03*
%TD*%
D16*
%TO.C,P1*%
X67945000Y-124635000D03*
D17*
X74395000Y-120835000D03*
X61495000Y-120835000D03*
D18*
X68595000Y-111885000D03*
%TD*%
D19*
%TO.C,L2*%
X83185000Y-110705900D03*
X83185000Y-112814100D03*
%TD*%
%TO.C,L3*%
X83185000Y-105625900D03*
X83185000Y-107734100D03*
%TD*%
%TO.C,L4*%
X83185000Y-100545900D03*
X83185000Y-102654100D03*
%TD*%
%TO.C,L5*%
X88265000Y-110705900D03*
X88265000Y-112814100D03*
%TD*%
%TO.C,L6*%
X88265000Y-105625900D03*
X88265000Y-107734100D03*
%TD*%
%TO.C,L7*%
X88265000Y-100545900D03*
X88265000Y-102654100D03*
%TD*%
%TO.C,L8*%
X93345000Y-110705900D03*
X93345000Y-112814100D03*
%TD*%
%TO.C,L9*%
X93345000Y-105625900D03*
X93345000Y-107734100D03*
%TD*%
%TO.C,L10*%
X93345000Y-100545900D03*
X93345000Y-102654100D03*
%TD*%
%TO.C,L1*%
X79375000Y-122770900D03*
X79375000Y-124879100D03*
%TD*%
D20*
%TO.C,FID1*%
X53975000Y-53975000D03*
%TD*%
%TO.C,FID2*%
X122555000Y-53975000D03*
%TD*%
%TO.C,FID3*%
X122555000Y-125730000D03*
%TD*%
%TO.C,FID4*%
X53975000Y-125730000D03*
%TD*%
D21*
%TO.C,MH1*%
X92710000Y-85090000D03*
%TD*%
%TO.C,MH2*%
X64770000Y-56515000D03*
%TD*%
%TO.C,MH3*%
X120650000Y-56515000D03*
%TD*%
D22*
%TO.C,C1*%
X63500000Y-105816400D03*
X63500000Y-103733600D03*
%TD*%
D23*
%TO.C,D1*%
X67945000Y-105275000D03*
X67945000Y-104275000D03*
%TD*%
M02*
