<?xml version="1.0" standalone="no"?>
 <!DOCTYPE svg PUBLIC "-//W3C//DTD SVG 1.1//EN" 
 "http://www.w3.org/Graphics/SVG/1.1/DTD/svg11.dtd"> 
<svg
  xmlns:svg="http://www.w3.org/2000/svg"
  xmlns="http://www.w3.org/2000/svg"
  xmlns:xlink="http://www.w3.org/1999/xlink"
  version="1.1"
  width="9.009380cm" height="9.906000cm" viewBox="0 0 35470 39000">
<title>SVG Picture created as y_arena_valve_controller-F_SilkS.svg date 2020/07/21 15:37:07 </title>
  <desc>Picture generated by PCBNEW </desc>
<g style="fill:#000000; fill-opacity:1;stroke:#000000; stroke-opacity:1;
stroke-linecap:round; stroke-linejoin:round;"
 transform="translate(0 0) scale(1 1)">
</g>
<g style="fill:#000000; fill-opacity:0.0; 
stroke:#000000; stroke-width:-0.000393701; stroke-opacity:1; 
stroke-linecap:round; stroke-linejoin:round;">
</g>
<g style="fill:#008484; fill-opacity:0.0; 
stroke:#008484; stroke-width:-0.000393701; stroke-opacity:1; 
stroke-linecap:round; stroke-linejoin:round;">
</g>
<g style="fill:#008484; fill-opacity:0.0; 
stroke:#008484; stroke-width:150; stroke-opacity:1; 
stroke-linecap:round; stroke-linejoin:round;">
<g transform="rotate(-90 8260.71 28500)">
<text x="8260.71" y="28800"
textLength="11130" font-size="800" lengthAdjust="spacingAndGlyphs"
text-anchor="middle" opacity="0">y_arena_valve_controller</text>
</g>
<path d="M8132 33914
L8532 33771
" />
<path d="M8132 33628
L8532 33771
L8674 33828
L8703 33857
L8732 33914
" />
<path d="M8589 33542
L8589 33085
" />
<path d="M8532 32685
L8217 32685
L8160 32714
L8132 32771
L8132 32885
L8160 32942
" />
<path d="M8503 32685
L8532 32742
L8532 32885
L8503 32942
L8446 32971
L8389 32971
L8332 32942
L8303 32885
L8303 32742
L8274 32685
" />
<path d="M8532 32400
L8132 32400
" />
<path d="M8246 32400
L8189 32371
L8160 32342
L8132 32285
L8132 32228
" />
<path d="M8503 31800
L8532 31857
L8532 31971
L8503 32028
L8446 32057
L8217 32057
L8160 32028
L8132 31971
L8132 31857
L8160 31800
L8217 31771
L8274 31771
L8332 32057
" />
<path d="M8132 31514
L8532 31514
" />
<path d="M8189 31514
L8160 31485
L8132 31428
L8132 31342
L8160 31285
L8217 31257
L8532 31257
" />
<path d="M8532 30714
L8217 30714
L8160 30742
L8132 30800
L8132 30914
L8160 30971
" />
<path d="M8503 30714
L8532 30771
L8532 30914
L8503 30971
L8446 31000
L8389 31000
L8332 30971
L8303 30914
L8303 30771
L8274 30714
" />
<path d="M8589 30571
L8589 30114
" />
<path d="M8132 30028
L8532 29885
L8132 29742
" />
<path d="M8532 29257
L8217 29257
L8160 29285
L8132 29342
L8132 29457
L8160 29514
" />
<path d="M8503 29257
L8532 29314
L8532 29457
L8503 29514
L8446 29542
L8389 29542
L8332 29514
L8303 29457
L8303 29314
L8274 29257
" />
<path d="M8532 28885
L8503 28942
L8446 28971
L7932 28971
" />
<path d="M8132 28714
L8532 28571
L8132 28428
" />
<path d="M8503 27971
L8532 28028
L8532 28142
L8503 28200
L8446 28228
L8217 28228
L8160 28200
L8132 28142
L8132 28028
L8160 27971
L8217 27942
L8274 27942
L8332 28228
" />
<path d="M8589 27828
L8589 27371
" />
<path d="M8503 26971
L8532 27028
L8532 27142
L8503 27200
L8474 27228
L8417 27257
L8246 27257
L8189 27228
L8160 27200
L8132 27142
L8132 27028
L8160 26971
" />
<path d="M8532 26628
L8503 26685
L8474 26714
L8417 26742
L8246 26742
L8189 26714
L8160 26685
L8132 26628
L8132 26542
L8160 26485
L8189 26457
L8246 26428
L8417 26428
L8474 26457
L8503 26485
L8532 26542
L8532 26628
" />
<path d="M8132 26171
L8532 26171
" />
<path d="M8189 26171
L8160 26142
L8132 26085
L8132 26000
L8160 25942
L8217 25914
L8532 25914
" />
<path d="M8132 25714
L8132 25485
" />
<path d="M7932 25628
L8446 25628
L8503 25600
L8532 25542
L8532 25485
" />
<path d="M8532 25285
L8132 25285
" />
<path d="M8246 25285
L8189 25257
L8160 25228
L8132 25171
L8132 25114
" />
<path d="M8532 24828
L8503 24885
L8474 24914
L8417 24942
L8246 24942
L8189 24914
L8160 24885
L8132 24828
L8132 24742
L8160 24685
L8189 24657
L8246 24628
L8417 24628
L8474 24657
L8503 24685
L8532 24742
L8532 24828
" />
<path d="M8532 24285
L8503 24342
L8446 24371
L7932 24371
" />
<path d="M8532 23971
L8503 24028
L8446 24057
L7932 24057
" />
<path d="M8503 23514
L8532 23571
L8532 23685
L8503 23742
L8446 23771
L8217 23771
L8160 23742
L8132 23685
L8132 23571
L8160 23514
L8217 23485
L8274 23485
L8332 23771
" />
<path d="M8532 23228
L8132 23228
" />
<path d="M8246 23228
L8189 23200
L8160 23171
L8132 23114
L8132 23057
" />
<g transform="rotate(-90 9310.71 28500)">
<text x="9310.71" y="28800"
textLength="11909.3" font-size="800" lengthAdjust="spacingAndGlyphs"
text-anchor="middle" opacity="0">Janelia Research Campus</text>
</g>
<path d="M8982 34042
L9410 34042
L9496 34071
L9553 34128
L9582 34214
L9582 34271
" />
<path d="M9582 33500
L9267 33500
L9210 33528
L9182 33585
L9182 33700
L9210 33757
" />
<path d="M9553 33500
L9582 33557
L9582 33700
L9553 33757
L9496 33785
L9439 33785
L9382 33757
L9353 33700
L9353 33557
L9324 33500
" />
<path d="M9182 33214
L9582 33214
" />
<path d="M9239 33214
L9210 33185
L9182 33128
L9182 33042
L9210 32985
L9267 32957
L9582 32957
" />
<path d="M9553 32442
L9582 32500
L9582 32614
L9553 32671
L9496 32700
L9267 32700
L9210 32671
L9182 32614
L9182 32500
L9210 32442
L9267 32414
L9324 32414
L9382 32700
" />
<path d="M9582 32071
L9553 32128
L9496 32157
L8982 32157
" />
<path d="M9582 31842
L9182 31842
" />
<path d="M8982 31842
L9010 31871
L9039 31842
L9010 31814
L8982 31842
L9039 31842
" />
<path d="M9582 31300
L9267 31300
L9210 31328
L9182 31385
L9182 31500
L9210 31557
" />
<path d="M9553 31300
L9582 31357
L9582 31500
L9553 31557
L9496 31585
L9439 31585
L9382 31557
L9353 31500
L9353 31357
L9324 31300
" />
<path d="M9582 30214
L9296 30414
" />
<path d="M9582 30557
L8982 30557
L8982 30328
L9010 30271
L9039 30242
L9096 30214
L9182 30214
L9239 30242
L9267 30271
L9296 30328
L9296 30557
" />
<path d="M9553 29728
L9582 29785
L9582 29900
L9553 29957
L9496 29985
L9267 29985
L9210 29957
L9182 29900
L9182 29785
L9210 29728
L9267 29700
L9324 29700
L9382 29985
" />
<path d="M9553 29471
L9582 29414
L9582 29300
L9553 29242
L9496 29214
L9467 29214
L9410 29242
L9382 29300
L9382 29385
L9353 29442
L9296 29471
L9267 29471
L9210 29442
L9182 29385
L9182 29300
L9210 29242
" />
<path d="M9553 28728
L9582 28785
L9582 28900
L9553 28957
L9496 28985
L9267 28985
L9210 28957
L9182 28900
L9182 28785
L9210 28728
L9267 28700
L9324 28700
L9382 28985
" />
<path d="M9582 28185
L9267 28185
L9210 28214
L9182 28271
L9182 28385
L9210 28442
" />
<path d="M9553 28185
L9582 28242
L9582 28385
L9553 28442
L9496 28471
L9439 28471
L9382 28442
L9353 28385
L9353 28242
L9324 28185
" />
<path d="M9582 27900
L9182 27900
" />
<path d="M9296 27900
L9239 27871
L9210 27842
L9182 27785
L9182 27728
" />
<path d="M9553 27271
L9582 27328
L9582 27442
L9553 27500
L9524 27528
L9467 27557
L9296 27557
L9239 27528
L9210 27500
L9182 27442
L9182 27328
L9210 27271
" />
<path d="M9582 27014
L8982 27014
" />
<path d="M9582 26757
L9267 26757
L9210 26785
L9182 26842
L9182 26928
L9210 26985
L9239 27014
" />
<path d="M9524 25671
L9553 25700
L9582 25785
L9582 25842
L9553 25928
L9496 25985
L9439 26014
L9324 26042
L9239 26042
L9124 26014
L9067 25985
L9010 25928
L8982 25842
L8982 25785
L9010 25700
L9039 25671
" />
<path d="M9582 25157
L9267 25157
L9210 25185
L9182 25242
L9182 25357
L9210 25414
" />
<path d="M9553 25157
L9582 25214
L9582 25357
L9553 25414
L9496 25442
L9439 25442
L9382 25414
L9353 25357
L9353 25214
L9324 25157
" />
<path d="M9582 24871
L9182 24871
" />
<path d="M9239 24871
L9210 24842
L9182 24785
L9182 24700
L9210 24642
L9267 24614
L9582 24614
" />
<path d="M9267 24614
L9210 24585
L9182 24528
L9182 24442
L9210 24385
L9267 24357
L9582 24357
" />
<path d="M9182 24071
L9782 24071
" />
<path d="M9210 24071
L9182 24014
L9182 23900
L9210 23842
L9239 23814
L9296 23785
L9467 23785
L9524 23814
L9553 23842
L9582 23900
L9582 24014
L9553 24071
" />
<path d="M9182 23271
L9582 23271
" />
<path d="M9182 23528
L9496 23528
L9553 23500
L9582 23442
L9582 23357
L9553 23300
L9524 23271
" />
<path d="M9553 23014
L9582 22957
L9582 22842
L9553 22785
L9496 22757
L9467 22757
L9410 22785
L9382 22842
L9382 22928
L9353 22985
L9296 23014
L9267 23014
L9210 22985
L9182 22928
L9182 22842
L9210 22785
" />
<g transform="rotate(-90 10360.7 28500)">
<text x="10360.7" y="28800"
textLength="9709.29" font-size="800" lengthAdjust="spacingAndGlyphs"
text-anchor="middle" opacity="0">07/20/2020 ver 1.1</text>
</g>
<path d="M10032 33000
L10032 32942
L10060 32885
L10089 32857
L10146 32828
L10260 32800
L10403 32800
L10517 32828
L10574 32857
L10603 32885
L10632 32942
L10632 33000
L10603 33057
L10574 33085
L10517 33114
L10403 33142
L10260 33142
L10146 33114
L10089 33085
L10060 33057
L10032 33000
" />
<path d="M10032 32600
L10032 32200
L10632 32457
" />
<path d="M10003 31542
L10774 32057
" />
<path d="M10089 31371
L10060 31342
L10032 31285
L10032 31142
L10060 31085
L10089 31057
L10146 31028
L10203 31028
L10289 31057
L10632 31400
L10632 31028
" />
<path d="M10032 30657
L10032 30600
L10060 30542
L10089 30514
L10146 30485
L10260 30457
L10403 30457
L10517 30485
L10574 30514
L10603 30542
L10632 30600
L10632 30657
L10603 30714
L10574 30742
L10517 30771
L10403 30800
L10260 30800
L10146 30771
L10089 30742
L10060 30714
L10032 30657
" />
<path d="M10003 29771
L10774 30285
" />
<path d="M10089 29600
L10060 29571
L10032 29514
L10032 29371
L10060 29314
L10089 29285
L10146 29257
L10203 29257
L10289 29285
L10632 29628
L10632 29257
" />
<path d="M10032 28885
L10032 28828
L10060 28771
L10089 28742
L10146 28714
L10260 28685
L10403 28685
L10517 28714
L10574 28742
L10603 28771
L10632 28828
L10632 28885
L10603 28942
L10574 28971
L10517 29000
L10403 29028
L10260 29028
L10146 29000
L10089 28971
L10060 28942
L10032 28885
" />
<path d="M10089 28457
L10060 28428
L10032 28371
L10032 28228
L10060 28171
L10089 28142
L10146 28114
L10203 28114
L10289 28142
L10632 28485
L10632 28114
" />
<path d="M10032 27742
L10032 27685
L10060 27628
L10089 27600
L10146 27571
L10260 27542
L10403 27542
L10517 27571
L10574 27600
L10603 27628
L10632 27685
L10632 27742
L10603 27800
L10574 27828
L10517 27857
L10403 27885
L10260 27885
L10146 27857
L10089 27828
L10060 27800
L10032 27742
" />
<path d="M10232 26885
L10632 26742
L10232 26600
" />
<path d="M10603 26142
L10632 26200
L10632 26314
L10603 26371
L10546 26400
L10317 26400
L10260 26371
L10232 26314
L10232 26200
L10260 26142
L10317 26114
L10374 26114
L10432 26400
" />
<path d="M10632 25857
L10232 25857
" />
<path d="M10346 25857
L10289 25828
L10260 25800
L10232 25742
L10232 25685
" />
<path d="M10632 24714
L10632 25057
" />
<path d="M10632 24885
L10032 24885
L10117 24942
L10174 25000
L10203 25057
" />
<path d="M10574 24457
L10603 24428
L10632 24457
L10603 24485
L10574 24457
L10632 24457
" />
<path d="M10632 23857
L10632 24200
" />
<path d="M10632 24028
L10032 24028
L10117 24085
L10174 24142
L10203 24200
" />
<text x="25810.7" y="35000"
textLength="3537.86" font-size="800" lengthAdjust="spacingAndGlyphs"
text-anchor="middle" opacity="0">2.1x5.5</text>
<path d="M24253 34428
L24282 34400
L24339 34371
L24482 34371
L24539 34400
L24567 34428
L24596 34485
L24596 34542
L24567 34628
L24224 34971
L24596 34971
" />
<path d="M24853 34914
L24882 34942
L24853 34971
L24824 34942
L24853 34914
L24853 34971
" />
<path d="M25453 34971
L25110 34971
" />
<path d="M25282 34971
L25282 34371
L25224 34457
L25167 34514
L25110 34542
" />
<path d="M25653 34971
L25967 34571
" />
<path d="M25653 34571
L25967 34971
" />
<path d="M26482 34371
L26196 34371
L26167 34657
L26196 34628
L26253 34600
L26396 34600
L26453 34628
L26482 34657
L26510 34714
L26510 34857
L26482 34914
L26453 34942
L26396 34971
L26253 34971
L26196 34942
L26167 34914
" />
<path d="M26767 34914
L26796 34942
L26767 34971
L26739 34942
L26767 34914
L26767 34971
" />
<path d="M27339 34371
L27053 34371
L27024 34657
L27053 34628
L27110 34600
L27253 34600
L27310 34628
L27339 34657
L27367 34714
L27367 34857
L27339 34914
L27310 34942
L27253 34971
L27110 34971
L27053 34942
L27024 34914
" />
<text x="25810.7" y="36050"
textLength="4280.71" font-size="800" lengthAdjust="spacingAndGlyphs"
text-anchor="middle" opacity="0">Center +</text>
<path d="M24253 35964
L24224 35992
L24139 36021
L24082 36021
L23996 35992
L23939 35935
L23910 35878
L23882 35764
L23882 35678
L23910 35564
L23939 35507
L23996 35450
L24082 35421
L24139 35421
L24224 35450
L24253 35478
" />
<path d="M24739 35992
L24682 36021
L24567 36021
L24510 35992
L24482 35935
L24482 35707
L24510 35650
L24567 35621
L24682 35621
L24739 35650
L24767 35707
L24767 35764
L24482 35821
" />
<path d="M25024 35621
L25024 36021
" />
<path d="M25024 35678
L25053 35650
L25110 35621
L25196 35621
L25253 35650
L25282 35707
L25282 36021
" />
<path d="M25482 35621
L25710 35621
" />
<path d="M25567 35421
L25567 35935
L25596 35992
L25653 36021
L25710 36021
" />
<path d="M26139 35992
L26082 36021
L25967 36021
L25910 35992
L25882 35935
L25882 35707
L25910 35650
L25967 35621
L26082 35621
L26139 35650
L26167 35707
L26167 35764
L25882 35821
" />
<path d="M26424 36021
L26424 35621
" />
<path d="M26424 35735
L26453 35678
L26482 35650
L26539 35621
L26596 35621
" />
<path d="M27253 35792
L27710 35792
" />
<path d="M27482 36021
L27482 35564
" />
<text x="25810.7" y="37100"
textLength="3795" font-size="800" lengthAdjust="spacingAndGlyphs"
text-anchor="middle" opacity="0">+12VDC</text>
<path d="M24153 36842
L24610 36842
" />
<path d="M24382 37071
L24382 36614
" />
<path d="M25210 37071
L24867 37071
" />
<path d="M25039 37071
L25039 36471
L24982 36557
L24924 36614
L24867 36642
" />
<path d="M25439 36528
L25467 36500
L25524 36471
L25667 36471
L25724 36500
L25753 36528
L25782 36585
L25782 36642
L25753 36728
L25410 37071
L25782 37071
" />
<path d="M25953 36471
L26153 37071
L26353 36471
" />
<path d="M26553 37071
L26553 36471
L26696 36471
L26782 36500
L26839 36557
L26867 36614
L26896 36728
L26896 36814
L26867 36928
L26839 36985
L26782 37042
L26696 37071
L26553 37071
" />
<path d="M27496 37014
L27467 37042
L27382 37071
L27324 37071
L27239 37042
L27182 36985
L27153 36928
L27124 36814
L27124 36728
L27153 36614
L27182 36557
L27239 36500
L27324 36471
L27382 36471
L27467 36500
L27496 36528
" />
</g>
<g style="fill:#008484; fill-opacity:0.0; 
stroke:#008484; stroke-width:110; stroke-opacity:1; 
stroke-linecap:round; stroke-linejoin:round;">
<path d="M23560 37000
L23560 20000
" />
<path d="M23560 20000
L21560 20000
" />
<path d="M21560 20000
L21560 37000
" />
<path d="M21560 37000
L23560 37000
" />
<path d="M20810 30000
L21560 30000
" />
<path d="M20810 30000
L20810 27000
" />
<path d="M21560 27000
L20810 27000
" />
<path d="M21060 21500
L21060 20500
" />
<path d="M21060 20500
L21560 21000
" />
<path d="M21560 21000
L21060 21500
" />
<path d="M14060 36500
L13560 36000
" />
<path d="M14060 35500
L14060 36500
" />
<path d="M13560 20000
L11560 20000
" />
<path d="M11560 20000
L11560 37000
" />
<path d="M13560 37000
L13560 20000
" />
<path d="M13560 36000
L14060 35500
" />
<path d="M11560 37000
L13560 37000
" />
<path d="M13560 30000
L14310 30000
" />
<path d="M14310 27000
L13560 27000
" />
<path d="M14310 27000
L14310 30000
" />
<path d="M5850 10780
L4360 10780
" />
<path d="M5850 13720
L5850 10780
" />
<path d="M4360 13720
L5850 13720
" />
<circle cx="4360.71" cy="12250" r="1470" /> 
</g>
<g style="fill:#008484; fill-opacity:0.0; 
stroke:#008484; stroke-width:59.0551; stroke-opacity:1; 
stroke-linecap:round; stroke-linejoin:round;">
<circle cx="3560.71" cy="11750" r="500" /> 
<circle cx="3560.71" cy="12750" r="500" /> 
</g>
<g style="fill:#008484; fill-opacity:0.0; 
stroke:#008484; stroke-width:110; stroke-opacity:1; 
stroke-linecap:round; stroke-linejoin:round;">
<path d="M9650 13720
L9650 10780
" />
<path d="M9650 13720
L5850 13720
" />
<path d="M9650 10780
L5850 10780
" />
<path d="M8650 13720
L8650 10780
" />
<path d="M6650 13720
L6650 10780
" />
<path d="M5850 7780
L4360 7780
" />
<path d="M5850 10720
L5850 7780
" />
<path d="M4360 10720
L5850 10720
" />
<circle cx="4360.71" cy="9250" r="1470" /> 
</g>
<g style="fill:#008484; fill-opacity:0.0; 
stroke:#008484; stroke-width:59.0551; stroke-opacity:1; 
stroke-linecap:round; stroke-linejoin:round;">
<circle cx="3560.71" cy="8750" r="500" /> 
<circle cx="3560.71" cy="9750" r="500" /> 
</g>
<g style="fill:#008484; fill-opacity:0.0; 
stroke:#008484; stroke-width:110; stroke-opacity:1; 
stroke-linecap:round; stroke-linejoin:round;">
<path d="M9650 10720
L9650 7780
" />
<path d="M9650 10720
L5850 10720
" />
<path d="M9650 7780
L5850 7780
" />
<path d="M8650 10720
L8650 7780
" />
<path d="M6650 10720
L6650 7780
" />
<path d="M5850 4780
L4360 4780
" />
<path d="M5850 7720
L5850 4780
" />
<path d="M4360 7720
L5850 7720
" />
<circle cx="4360.71" cy="6250" r="1470" /> 
</g>
<g style="fill:#008484; fill-opacity:0.0; 
stroke:#008484; stroke-width:59.0551; stroke-opacity:1; 
stroke-linecap:round; stroke-linejoin:round;">
<circle cx="3560.71" cy="5750" r="500" /> 
<circle cx="3560.71" cy="6750" r="500" /> 
</g>
<g style="fill:#008484; fill-opacity:0.0; 
stroke:#008484; stroke-width:110; stroke-opacity:1; 
stroke-linecap:round; stroke-linejoin:round;">
<path d="M9650 7720
L9650 4780
" />
<path d="M9650 7720
L5850 7720
" />
<path d="M9650 4780
L5850 4780
" />
<path d="M8650 7720
L8650 4780
" />
<path d="M6650 7720
L6650 4780
" />
<path d="M16850 10780
L15360 10780
" />
<path d="M16850 13720
L16850 10780
" />
<path d="M15360 13720
L16850 13720
" />
<circle cx="15360.7" cy="12250" r="1470" /> 
</g>
<g style="fill:#008484; fill-opacity:0.0; 
stroke:#008484; stroke-width:59.0551; stroke-opacity:1; 
stroke-linecap:round; stroke-linejoin:round;">
<circle cx="14560.7" cy="11750" r="500" /> 
<circle cx="14560.7" cy="12750" r="500" /> 
</g>
<g style="fill:#008484; fill-opacity:0.0; 
stroke:#008484; stroke-width:110; stroke-opacity:1; 
stroke-linecap:round; stroke-linejoin:round;">
<path d="M20650 13720
L20650 10780
" />
<path d="M20650 13720
L16850 13720
" />
<path d="M20650 10780
L16850 10780
" />
<path d="M19650 13720
L19650 10780
" />
<path d="M17650 13720
L17650 10780
" />
<path d="M16850 7780
L15360 7780
" />
<path d="M16850 10720
L16850 7780
" />
<path d="M15360 10720
L16850 10720
" />
<circle cx="15360.7" cy="9250" r="1470" /> 
</g>
<g style="fill:#008484; fill-opacity:0.0; 
stroke:#008484; stroke-width:59.0551; stroke-opacity:1; 
stroke-linecap:round; stroke-linejoin:round;">
<circle cx="14560.7" cy="8750" r="500" /> 
<circle cx="14560.7" cy="9750" r="500" /> 
</g>
<g style="fill:#008484; fill-opacity:0.0; 
stroke:#008484; stroke-width:110; stroke-opacity:1; 
stroke-linecap:round; stroke-linejoin:round;">
<path d="M20650 10720
L20650 7780
" />
<path d="M20650 10720
L16850 10720
" />
<path d="M20650 7780
L16850 7780
" />
<path d="M19650 10720
L19650 7780
" />
<path d="M17650 10720
L17650 7780
" />
<path d="M16850 4780
L15360 4780
" />
<path d="M16850 7720
L16850 4780
" />
<path d="M15360 7720
L16850 7720
" />
<circle cx="15360.7" cy="6250" r="1470" /> 
</g>
<g style="fill:#008484; fill-opacity:0.0; 
stroke:#008484; stroke-width:59.0551; stroke-opacity:1; 
stroke-linecap:round; stroke-linejoin:round;">
<circle cx="14560.7" cy="5750" r="500" /> 
<circle cx="14560.7" cy="6750" r="500" /> 
</g>
<g style="fill:#008484; fill-opacity:0.0; 
stroke:#008484; stroke-width:110; stroke-opacity:1; 
stroke-linecap:round; stroke-linejoin:round;">
<path d="M20650 7720
L20650 4780
" />
<path d="M20650 7720
L16850 7720
" />
<path d="M20650 4780
L16850 4780
" />
<path d="M19650 7720
L19650 4780
" />
<path d="M17650 7720
L17650 4780
" />
<path d="M27850 10780
L26360 10780
" />
<path d="M27850 13720
L27850 10780
" />
<path d="M26360 13720
L27850 13720
" />
<circle cx="26360.7" cy="12250" r="1470" /> 
</g>
<g style="fill:#008484; fill-opacity:0.0; 
stroke:#008484; stroke-width:59.0551; stroke-opacity:1; 
stroke-linecap:round; stroke-linejoin:round;">
<circle cx="25560.7" cy="11750" r="500" /> 
<circle cx="25560.7" cy="12750" r="500" /> 
</g>
<g style="fill:#008484; fill-opacity:0.0; 
stroke:#008484; stroke-width:110; stroke-opacity:1; 
stroke-linecap:round; stroke-linejoin:round;">
<path d="M31650 13720
L31650 10780
" />
<path d="M31650 13720
L27850 13720
" />
<path d="M31650 10780
L27850 10780
" />
<path d="M30650 13720
L30650 10780
" />
<path d="M28650 13720
L28650 10780
" />
<path d="M27850 7780
L26360 7780
" />
<path d="M27850 10720
L27850 7780
" />
<path d="M26360 10720
L27850 10720
" />
<circle cx="26360.7" cy="9250" r="1470" /> 
</g>
<g style="fill:#008484; fill-opacity:0.0; 
stroke:#008484; stroke-width:59.0551; stroke-opacity:1; 
stroke-linecap:round; stroke-linejoin:round;">
<circle cx="25560.7" cy="8750" r="500" /> 
<circle cx="25560.7" cy="9750" r="500" /> 
</g>
<g style="fill:#008484; fill-opacity:0.0; 
stroke:#008484; stroke-width:110; stroke-opacity:1; 
stroke-linecap:round; stroke-linejoin:round;">
<path d="M31650 10720
L31650 7780
" />
<path d="M31650 10720
L27850 10720
" />
<path d="M31650 7780
L27850 7780
" />
<path d="M30650 10720
L30650 7780
" />
<path d="M28650 10720
L28650 7780
" />
<path d="M27850 4780
L26360 4780
" />
<path d="M27850 7720
L27850 4780
" />
<path d="M26360 7720
L27850 7720
" />
<circle cx="26360.7" cy="6250" r="1470" /> 
</g>
<g style="fill:#008484; fill-opacity:0.0; 
stroke:#008484; stroke-width:59.0551; stroke-opacity:1; 
stroke-linecap:round; stroke-linejoin:round;">
<circle cx="25560.7" cy="5750" r="500" /> 
<circle cx="25560.7" cy="6750" r="500" /> 
</g>
<g style="fill:#008484; fill-opacity:0.0; 
stroke:#008484; stroke-width:110; stroke-opacity:1; 
stroke-linecap:round; stroke-linejoin:round;">
<path d="M31650 7720
L31650 4780
" />
<path d="M31650 7720
L27850 7720
" />
<path d="M31650 4780
L27850 4780
" />
<path d="M30650 7720
L30650 4780
" />
<path d="M28650 7720
L28650 4780
" />
</g>
<g style="fill:#008484; fill-opacity:0.0; 
stroke:#008484; stroke-width:70; stroke-opacity:1; 
stroke-linecap:round; stroke-linejoin:round;">
<path d="M15210 25600
L15210 25250
" />
<path d="M15910 25600
L15210 25600
" />
<path d="M15910 25250
L15910 25600
" />
<path d="M15210 24400
L15210 24750
" />
<path d="M15910 24400
L15210 24400
" />
<path d="M15910 24750
L15910 24400
" />
</g>
<g style="fill:#008484; fill-opacity:0.0; 
stroke:#008484; stroke-width:90; stroke-opacity:1; 
stroke-linecap:round; stroke-linejoin:round;">
<path d="M18466 26476
L16655 26476
" />
<path d="M16655 26476
L16655 23523
" />
<path d="M16655 23523
L18466 23523
" />
<path d="M18466 23523
L18466 26476
" />
</g>
<g style="fill:#008484; fill-opacity:0.0; 
stroke:#008484; stroke-width:157.48; stroke-opacity:1; 
stroke-linecap:round; stroke-linejoin:round;">
<path d="M15001 35358
L20119 35358
" />
<path d="M15001 29177
L20119 29177
" />
<path d="M15001 29177
L15001 35358
" />
<path d="M20119 29177
L20119 35358
" />
</g>
<g style="fill:#008484; fill-opacity:0.0; 
stroke:#008484; stroke-width:100; stroke-opacity:1; 
stroke-linecap:round; stroke-linejoin:round;">
<g transform="rotate(90 14060.7 35000)">
<text x="14060.7" y="35200"
textLength="575.952" font-size="533.333" lengthAdjust="spacingAndGlyphs"
text-anchor="middle" opacity="0">0</text>
</g>
<path d="M14279 34980
L14279 35019
L14260 35057
L14241 35076
L14203 35095
L14127 35114
L14032 35114
L13955 35095
L13917 35076
L13898 35057
L13879 35019
L13879 34980
L13898 34942
L13917 34923
L13955 34904
L14032 34885
L14127 34885
L14203 34904
L14241 34923
L14260 34942
L14279 34980
" />
<g transform="rotate(90 14060.7 33000)">
<text x="14060.7" y="33200"
textLength="510.952" font-size="533.333" lengthAdjust="spacingAndGlyphs"
text-anchor="middle" opacity="0">1</text>
</g>
<path d="M13879 33114
L13879 32885
" />
<path d="M13879 33000
L14279 33000
L14222 32961
L14184 32923
L14165 32885
" />
<g transform="rotate(90 14060.7 21000)">
<text x="14060.7" y="21200"
textLength="510.952" font-size="533.333" lengthAdjust="spacingAndGlyphs"
text-anchor="middle" opacity="0">7</text>
</g>
<path d="M14279 20866
L14279 21133
L13879 20961
" />
<g transform="rotate(90 14060.7 23000)">
<text x="14060.7" y="23200"
textLength="510.952" font-size="533.333" lengthAdjust="spacingAndGlyphs"
text-anchor="middle" opacity="0">6</text>
</g>
<path d="M14279 23076
L14279 23000
L14260 22961
L14241 22942
L14184 22904
L14108 22885
L13955 22885
L13917 22904
L13898 22923
L13879 22961
L13879 23038
L13898 23076
L13917 23095
L13955 23114
L14051 23114
L14089 23095
L14108 23076
L14127 23038
L14127 22961
L14108 22923
L14089 22904
L14051 22885
" />
<g transform="rotate(90 14060.7 25000)">
<text x="14060.7" y="25200"
textLength="510.952" font-size="533.333" lengthAdjust="spacingAndGlyphs"
text-anchor="middle" opacity="0">5</text>
</g>
<path d="M14279 25095
L14279 24904
L14089 24885
L14108 24904
L14127 24942
L14127 25038
L14108 25076
L14089 25095
L14051 25114
L13955 25114
L13917 25095
L13898 25076
L13879 25038
L13879 24942
L13898 24904
L13917 24885
" />
<g transform="rotate(90 14060.7 31000)">
<text x="14060.7" y="31200"
textLength="510.952" font-size="533.333" lengthAdjust="spacingAndGlyphs"
text-anchor="middle" opacity="0">2</text>
</g>
<path d="M14241 30885
L14260 30904
L14279 30942
L14279 31038
L14260 31076
L14241 31095
L14203 31114
L14165 31114
L14108 31095
L13879 30866
L13879 31114
" />
<g transform="rotate(-90 21060.7 22000)">
<text x="21060.7" y="22200"
textLength="510.952" font-size="533.333" lengthAdjust="spacingAndGlyphs"
text-anchor="middle" opacity="0">8</text>
</g>
<path d="M21013 22038
L20994 22076
L20974 22095
L20936 22114
L20917 22114
L20879 22095
L20860 22076
L20841 22038
L20841 21961
L20860 21923
L20879 21904
L20917 21885
L20936 21885
L20974 21904
L20994 21923
L21013 21961
L21013 22038
L21032 22076
L21051 22095
L21089 22114
L21165 22114
L21203 22095
L21222 22076
L21241 22038
L21241 21961
L21222 21923
L21203 21904
L21165 21885
L21089 21885
L21051 21904
L21032 21923
L21013 21961
" />
<g transform="rotate(-90 21060.7 36000)">
<text x="21060.7" y="36200"
textLength="891.905" font-size="533.333" lengthAdjust="spacingAndGlyphs"
text-anchor="middle" opacity="0">15</text>
</g>
<path d="M21241 36076
L21241 36304
" />
<path d="M21241 36190
L20841 36190
L20898 36228
L20936 36266
L20955 36304
" />
<path d="M20841 35714
L20841 35904
L21032 35923
L21013 35904
L20994 35866
L20994 35771
L21013 35733
L21032 35714
L21070 35695
L21165 35695
L21203 35714
L21222 35733
L21241 35771
L21241 35866
L21222 35904
L21203 35923
" />
<g transform="rotate(-90 21060.7 34000)">
<text x="21060.7" y="34200"
textLength="891.905" font-size="533.333" lengthAdjust="spacingAndGlyphs"
text-anchor="middle" opacity="0">14</text>
</g>
<path d="M21241 34076
L21241 34304
" />
<path d="M21241 34190
L20841 34190
L20898 34228
L20936 34266
L20955 34304
" />
<path d="M20974 33733
L21241 33733
" />
<path d="M20822 33828
L21108 33923
L21108 33676
" />
<g transform="rotate(-90 21060.7 32000)">
<text x="21060.7" y="32200"
textLength="891.905" font-size="533.333" lengthAdjust="spacingAndGlyphs"
text-anchor="middle" opacity="0">13</text>
</g>
<path d="M21241 32076
L21241 32304
" />
<path d="M21241 32190
L20841 32190
L20898 32228
L20936 32266
L20955 32304
" />
<path d="M20841 31942
L20841 31695
L20994 31828
L20994 31771
L21013 31733
L21032 31714
L21070 31695
L21165 31695
L21203 31714
L21222 31733
L21241 31771
L21241 31885
L21222 31923
L21203 31942
" />
<g transform="rotate(-90 21060.7 26000)">
<text x="21060.7" y="26200"
textLength="891.905" font-size="533.333" lengthAdjust="spacingAndGlyphs"
text-anchor="middle" opacity="0">10</text>
</g>
<path d="M21241 26076
L21241 26304
" />
<path d="M21241 26190
L20841 26190
L20898 26228
L20936 26266
L20955 26304
" />
<path d="M20841 25828
L20841 25790
L20860 25752
L20879 25733
L20917 25714
L20994 25695
L21089 25695
L21165 25714
L21203 25733
L21222 25752
L21241 25790
L21241 25828
L21222 25866
L21203 25885
L21165 25904
L21089 25923
L20994 25923
L20917 25904
L20879 25885
L20860 25866
L20841 25828
" />
<g transform="rotate(-90 21060.7 24000)">
<text x="21060.7" y="24200"
textLength="510.952" font-size="533.333" lengthAdjust="spacingAndGlyphs"
text-anchor="middle" opacity="0">9</text>
</g>
<path d="M21241 24076
L21241 24000
L21222 23961
L21203 23942
L21146 23904
L21070 23885
L20917 23885
L20879 23904
L20860 23923
L20841 23961
L20841 24038
L20860 24076
L20879 24095
L20917 24114
L21013 24114
L21051 24095
L21070 24076
L21089 24038
L21089 23961
L21070 23923
L21051 23904
L21013 23885
" />
</g>
<g style="fill:#008484; fill-opacity:0.0; 
stroke:#008484; stroke-width:62.5; stroke-opacity:1; 
stroke-linecap:round; stroke-linejoin:round;">
<text x="15560.7" y="25925"
textLength="618.095" font-size="333.333" lengthAdjust="spacingAndGlyphs"
text-anchor="middle" opacity="0">C1</text>
<path d="M15519 25889
L15507 25901
L15471 25913
L15447 25913
L15411 25901
L15388 25877
L15376 25853
L15364 25805
L15364 25770
L15376 25722
L15388 25698
L15411 25675
L15447 25663
L15471 25663
L15507 25675
L15519 25686
" />
<path d="M15757 25913
L15614 25913
" />
<path d="M15685 25913
L15685 25663
L15661 25698
L15638 25722
L15614 25734
" />
<text x="15560.7" y="24325"
textLength="997.917" font-size="333.333" lengthAdjust="spacingAndGlyphs"
text-anchor="middle" opacity="0">10uF</text>
<path d="M15292 24313
L15149 24313
" />
<path d="M15221 24313
L15221 24063
L15197 24098
L15173 24122
L15149 24134
" />
<path d="M15447 24063
L15471 24063
L15495 24075
L15507 24086
L15519 24110
L15530 24158
L15530 24217
L15519 24265
L15507 24289
L15495 24301
L15471 24313
L15447 24313
L15423 24301
L15411 24289
L15399 24265
L15388 24217
L15388 24158
L15399 24110
L15411 24086
L15423 24075
L15447 24063
" />
<path d="M15745 24146
L15745 24313
" />
<path d="M15638 24146
L15638 24277
L15649 24301
L15673 24313
L15709 24313
L15733 24301
L15745 24289
" />
<path d="M15947 24182
L15864 24182
" />
<path d="M15864 24313
L15864 24063
L15983 24063
" />
</g>
<g style="fill:#008484; fill-opacity:0.0; 
stroke:#008484; stroke-width:100; stroke-opacity:1; 
stroke-linecap:round; stroke-linejoin:round;">
<text x="17560.7" y="23389"
textLength="862.202" font-size="533.333" lengthAdjust="spacingAndGlyphs"
text-anchor="middle" opacity="0">D1</text>
<path d="M17265 23369
L17265 22969
L17360 22969
L17417 22988
L17455 23027
L17474 23065
L17494 23141
L17494 23198
L17474 23274
L17455 23312
L17417 23350
L17360 23369
L17265 23369
" />
<path d="M17874 23369
L17646 23369
" />
<path d="M17760 23369
L17760 22969
L17722 23027
L17684 23065
L17646 23084
" />
<text x="19310.7" y="28950"
textLength="910.952" font-size="533.333" lengthAdjust="spacingAndGlyphs"
text-anchor="start" opacity="0">P1</text>
<path d="M19470 28930
L19470 28530
L19623 28530
L19661 28550
L19680 28569
L19699 28607
L19699 28664
L19680 28702
L19661 28721
L19623 28740
L19470 28740
" />
<path d="M20080 28930
L19851 28930
" />
<path d="M19966 28930
L19966 28530
L19928 28588
L19889 28626
L19851 28645
" />
<g >
</g>
</g>
<g style="fill:#000000; fill-opacity:0.0; 
stroke:#000000; stroke-width:100; stroke-opacity:1; 
stroke-linecap:round; stroke-linejoin:round;">
</g>
<g style="fill:#C2C200; fill-opacity:0.0; 
stroke:#C2C200; stroke-width:100; stroke-opacity:1; 
stroke-linecap:round; stroke-linejoin:round;">
</g>
<g style="fill:#C2C200; fill-opacity:0.0; 
stroke:#C2C200; stroke-width:110; stroke-opacity:1; 
stroke-linecap:round; stroke-linejoin:round;">
<path d="M29810.7 37500 A2500 2500 0.0 0 0 32310.7 35000" />
<path d="M2810.71 35000 A2500 2500 0.0 0 0 5310.71 37500" />
<path d="M32310.7 4500 A2500 2500 0.0 0 0 29810.7 2000" />
<path d="M5310.71 2000 A2500 2500 0.0 0 0 2810.71 4500" />
<path d="M5310 2000
L29810 2000
" />
<path d="M2810 35000
L2810 4500
" />
<path d="M29810 37500
L5310 37500
" />
<path d="M32310 4500
L32310 35000
" />
<g >
</g>
<g >
</g>
<g >
</g>
<g >
</g>
<g >
</g>
<g >
</g>
<g >
</g>
<g >
</g>
<g >
</g>
<g >
</g>
<g >
</g>
<g >
</g>
<g >
</g>
<g >
</g>
<g >
</g>
<g >
</g>
<g >
</g>
<g >
</g>
<g >
</g>
<g >
</g>
<g >
</g>
</g> 
</svg>
