<?xml version="1.0" standalone="no"?>
 <!DOCTYPE svg PUBLIC "-//W3C//DTD SVG 1.1//EN" 
 "http://www.w3.org/Graphics/SVG/1.1/DTD/svg11.dtd"> 
<svg
  xmlns:svg="http://www.w3.org/2000/svg"
  xmlns="http://www.w3.org/2000/svg"
  xmlns:xlink="http://www.w3.org/1999/xlink"
  version="1.1"
  width="9.009380cm" height="9.906000cm" viewBox="0 0 35470 39000">
<title>SVG Picture created as y_arena_valve_controller-B_SilkS.svg date 2020/07/21 15:37:07 </title>
  <desc>Picture generated by PCBNEW </desc>
<g style="fill:#000000; fill-opacity:1;stroke:#000000; stroke-opacity:1;
stroke-linecap:round; stroke-linejoin:round;"
 transform="translate(0 0) scale(1 1)">
</g>
<g style="fill:#000000; fill-opacity:0.0; 
stroke:#000000; stroke-width:-0.000393701; stroke-opacity:1; 
stroke-linecap:round; stroke-linejoin:round;">
</g>
<g style="fill:#840084; fill-opacity:0.0; 
stroke:#840084; stroke-width:-0.000393701; stroke-opacity:1; 
stroke-linecap:round; stroke-linejoin:round;">
</g>
<g style="fill:#840084; fill-opacity:0.0; 
stroke:#840084; stroke-width:150; stroke-opacity:1; 
stroke-linecap:round; stroke-linejoin:round;">
<path d="M4235 37150
L4235 7350
" />
<path d="M30885 37150
L4235 37150
" />
<path d="M30885 7350
L30885 37150
" />
<path d="M30885 7350
L4235 7350
" />
<path d="M19060 36750
L19060 35750
" />
<path d="M19060 35750
L16060 35750
" />
<path d="M16060 35750
L16060 36750
" />
<path d="M19060 36750
L16060 36750
" />
</g>
<g style="fill:#840084; fill-opacity:0.0; 
stroke:#840084; stroke-width:110; stroke-opacity:1; 
stroke-linecap:round; stroke-linejoin:round;">
<circle cx="29060.7" cy="35250" r="1300" /> 
<circle cx="6060.71" cy="35250" r="1300" /> 
<circle cx="6060.71" cy="9250" r="1300" /> 
<circle cx="29060.7" cy="9250" r="1300" /> 
<circle cx="4360.71" cy="12250" r="1470" /> 
<circle cx="4360.71" cy="9250" r="1470" /> 
<circle cx="4360.71" cy="6250" r="1470" /> 
<circle cx="15360.7" cy="12250" r="1470" /> 
<circle cx="15360.7" cy="9250" r="1470" /> 
<circle cx="15360.7" cy="6250" r="1470" /> 
<circle cx="26360.7" cy="12250" r="1470" /> 
<circle cx="26360.7" cy="9250" r="1470" /> 
<circle cx="26360.7" cy="6250" r="1470" /> 
</g>
<g style="fill:#840084; fill-opacity:0.0; 
stroke:#840084; stroke-width:90; stroke-opacity:1; 
stroke-linecap:round; stroke-linejoin:round;">
<circle cx="19310.7" cy="15500" r="1000" /> 
<circle cx="8310.71" cy="4250" r="1000" /> 
<circle cx="30310.7" cy="4250" r="1000" /> 
</g>
<g style="fill:#840084; fill-opacity:0.0; 
stroke:#840084; stroke-width:150; stroke-opacity:1; 
stroke-linecap:round; stroke-linejoin:round;">
<text x="29060.7" y="7050"
textLength="4285.71" font-size="800" lengthAdjust="spacingAndGlyphs"
text-anchor="middle" opacity="0">PHIDGET1</text>
<path d="M31060 7021
L31060 6421
L30832 6421
L30774 6450
L30746 6478
L30717 6535
L30717 6621
L30746 6678
L30774 6707
L30832 6735
L31060 6735
" />
<path d="M30460 7021
L30460 6421
" />
<path d="M30460 6707
L30117 6707
" />
<path d="M30117 7021
L30117 6421
" />
<path d="M29832 7021
L29832 6421
" />
<path d="M29546 7021
L29546 6421
L29403 6421
L29317 6450
L29260 6507
L29232 6564
L29203 6678
L29203 6764
L29232 6878
L29260 6935
L29317 6992
L29403 7021
L29546 7021
" />
<path d="M28632 6450
L28689 6421
L28774 6421
L28860 6450
L28917 6507
L28946 6564
L28974 6678
L28974 6764
L28946 6878
L28917 6935
L28860 6992
L28774 7021
L28717 7021
L28632 6992
L28603 6964
L28603 6764
L28717 6764
" />
<path d="M28346 6707
L28146 6707
" />
<path d="M28060 7021
L28346 7021
L28346 6421
L28060 6421
" />
<path d="M27889 6421
L27546 6421
" />
<path d="M27717 7021
L27717 6421
" />
<path d="M27032 7021
L27374 7021
" />
<path d="M27203 7021
L27203 6421
L27260 6507
L27317 6564
L27374 6592
" />
</g>
<g style="fill:#840084; fill-opacity:0.0; 
stroke:#840084; stroke-width:250; stroke-opacity:1; 
stroke-linecap:round; stroke-linejoin:round;">
<g transform="rotate(-90 16560.7 22250)">
<text x="16560.7" y="22750"
textLength="14852.6" font-size="1333.33" lengthAdjust="spacingAndGlyphs"
text-anchor="middle" opacity="0">State Relay Phidget</text>
</g>
<path d="M16965 14916
L17013 15059
L17013 15297
L16965 15392
L16917 15440
L16822 15488
L16727 15488
L16632 15440
L16584 15392
L16536 15297
L16489 15107
L16441 15011
L16394 14964
L16298 14916
L16203 14916
L16108 14964
L16060 15011
L16013 15107
L16013 15345
L16060 15488
" />
<path d="M16346 15773
L16346 16154
" />
<path d="M16013 15916
L16870 15916
L16965 15964
L17013 16059
L17013 16154
" />
<path d="M17013 16916
L16489 16916
L16394 16869
L16346 16773
L16346 16583
L16394 16488
" />
<path d="M16965 16916
L17013 16821
L17013 16583
L16965 16488
L16870 16440
L16774 16440
L16679 16488
L16632 16583
L16632 16821
L16584 16916
" />
<path d="M16346 17250
L16346 17630
" />
<path d="M16013 17392
L16870 17392
L16965 17440
L17013 17535
L17013 17630
" />
<path d="M16965 18345
L17013 18250
L17013 18059
L16965 17964
L16870 17916
L16489 17916
L16394 17964
L16346 18059
L16346 18250
L16394 18345
L16489 18392
L16584 18392
L16679 17916
" />
<path d="M17013 20154
L16536 19821
" />
<path d="M17013 19583
L16013 19583
L16013 19964
L16060 20059
L16108 20107
L16203 20154
L16346 20154
L16441 20107
L16489 20059
L16536 19964
L16536 19583
" />
<path d="M16965 20964
L17013 20869
L17013 20678
L16965 20583
L16870 20535
L16489 20535
L16394 20583
L16346 20678
L16346 20869
L16394 20964
L16489 21011
L16584 21011
L16679 20535
" />
<path d="M17013 21583
L16965 21488
L16870 21440
L16013 21440
" />
<path d="M17013 22392
L16489 22392
L16394 22345
L16346 22250
L16346 22059
L16394 21964
" />
<path d="M16965 22392
L17013 22297
L17013 22059
L16965 21964
L16870 21916
L16774 21916
L16679 21964
L16632 22059
L16632 22297
L16584 22392
" />
<path d="M16346 22773
L17013 23011
" />
<path d="M16346 23250
L17013 23011
L17251 22916
L17298 22869
L17346 22773
" />
<path d="M17013 24392
L16013 24392
L16013 24773
L16060 24869
L16108 24916
L16203 24964
L16346 24964
L16441 24916
L16489 24869
L16536 24773
L16536 24392
" />
<path d="M17013 25392
L16013 25392
" />
<path d="M17013 25821
L16489 25821
L16394 25773
L16346 25678
L16346 25535
L16394 25440
L16441 25392
" />
<path d="M17013 26297
L16346 26297
" />
<path d="M16013 26297
L16060 26250
L16108 26297
L16060 26345
L16013 26297
L16108 26297
" />
<path d="M17013 27202
L16013 27202
" />
<path d="M16965 27202
L17013 27107
L17013 26916
L16965 26821
L16917 26773
L16822 26726
L16536 26726
L16441 26773
L16394 26821
L16346 26916
L16346 27107
L16394 27202
" />
<path d="M16346 28107
L17155 28107
L17251 28059
L17298 28011
L17346 27916
L17346 27773
L17298 27678
" />
<path d="M16965 28107
L17013 28011
L17013 27821
L16965 27726
L16917 27678
L16822 27630
L16536 27630
L16441 27678
L16394 27726
L16346 27821
L16346 28011
L16394 28107
" />
<path d="M16965 28964
L17013 28869
L17013 28678
L16965 28583
L16870 28535
L16489 28535
L16394 28583
L16346 28678
L16346 28869
L16394 28964
L16489 29011
L16584 29011
L16679 28535
" />
<path d="M16346 29297
L16346 29678
" />
<path d="M16013 29440
L16870 29440
L16965 29488
L17013 29583
L17013 29678
" />
<g transform="rotate(-90 18560.7 22250)">
<text x="18560.7" y="22750"
textLength="13627.4" font-size="1333.33" lengthAdjust="spacingAndGlyphs"
text-anchor="middle" opacity="0">16x Isolated Solid</text>
</g>
<path d="M19013 16035
L19013 15464
" />
<path d="M19013 15750
L18013 15750
L18155 15654
L18251 15559
L18298 15464
" />
<path d="M18013 16892
L18013 16702
L18060 16607
L18108 16559
L18251 16464
L18441 16416
L18822 16416
L18917 16464
L18965 16511
L19013 16607
L19013 16797
L18965 16892
L18917 16940
L18822 16988
L18584 16988
L18489 16940
L18441 16892
L18394 16797
L18394 16607
L18441 16511
L18489 16464
L18584 16416
" />
<path d="M19013 17321
L18346 17845
" />
<path d="M18346 17321
L19013 17845
" />
<path d="M19013 18988
L18013 18988
" />
<path d="M18965 19416
L19013 19511
L19013 19702
L18965 19797
L18870 19845
L18822 19845
L18727 19797
L18679 19702
L18679 19559
L18632 19464
L18536 19416
L18489 19416
L18394 19464
L18346 19559
L18346 19702
L18394 19797
" />
<path d="M19013 20416
L18965 20321
L18917 20273
L18822 20226
L18536 20226
L18441 20273
L18394 20321
L18346 20416
L18346 20559
L18394 20654
L18441 20702
L18536 20750
L18822 20750
L18917 20702
L18965 20654
L19013 20559
L19013 20416
" />
<path d="M19013 21321
L18965 21226
L18870 21178
L18013 21178
" />
<path d="M19013 22130
L18489 22130
L18394 22083
L18346 21988
L18346 21797
L18394 21702
" />
<path d="M18965 22130
L19013 22035
L19013 21797
L18965 21702
L18870 21654
L18774 21654
L18679 21702
L18632 21797
L18632 22035
L18584 22130
" />
<path d="M18346 22464
L18346 22845
" />
<path d="M18013 22607
L18870 22607
L18965 22654
L19013 22750
L19013 22845
" />
<path d="M18965 23559
L19013 23464
L19013 23273
L18965 23178
L18870 23130
L18489 23130
L18394 23178
L18346 23273
L18346 23464
L18394 23559
L18489 23607
L18584 23607
L18679 23130
" />
<path d="M19013 24464
L18013 24464
" />
<path d="M18965 24464
L19013 24369
L19013 24178
L18965 24083
L18917 24035
L18822 23988
L18536 23988
L18441 24035
L18394 24083
L18346 24178
L18346 24369
L18394 24464
" />
<path d="M18965 25654
L19013 25797
L19013 26035
L18965 26130
L18917 26178
L18822 26226
L18727 26226
L18632 26178
L18584 26130
L18536 26035
L18489 25845
L18441 25750
L18394 25702
L18298 25654
L18203 25654
L18108 25702
L18060 25750
L18013 25845
L18013 26083
L18060 26226
" />
<path d="M19013 26797
L18965 26702
L18917 26654
L18822 26607
L18536 26607
L18441 26654
L18394 26702
L18346 26797
L18346 26940
L18394 27035
L18441 27083
L18536 27130
L18822 27130
L18917 27083
L18965 27035
L19013 26940
L19013 26797
" />
<path d="M19013 27702
L18965 27607
L18870 27559
L18013 27559
" />
<path d="M19013 28083
L18346 28083
" />
<path d="M18013 28083
L18060 28035
L18108 28083
L18060 28130
L18013 28083
L18108 28083
" />
<path d="M19013 28988
L18013 28988
" />
<path d="M18965 28988
L19013 28892
L19013 28702
L18965 28607
L18917 28559
L18822 28511
L18536 28511
L18441 28559
L18394 28607
L18346 28702
L18346 28892
L18394 28988
" />
</g>
<g style="fill:#840084; fill-opacity:0.0; 
stroke:#840084; stroke-width:100; stroke-opacity:1; 
stroke-linecap:round; stroke-linejoin:round;">
<text x="3560.71" y="14200"
textLength="436.905" font-size="533.333" lengthAdjust="spacingAndGlyphs"
text-anchor="middle" opacity="0">S1</text>
<path d="M3865 14161
L3808 14180
L3713 14180
L3674 14161
L3655 14142
L3636 14104
L3636 14066
L3655 14028
L3674 14009
L3713 13990
L3789 13971
L3827 13952
L3846 13933
L3865 13895
L3865 13857
L3846 13819
L3827 13800
L3789 13780
L3694 13780
L3636 13800
" />
<path d="M3255 14180
L3484 14180
" />
<path d="M3370 14180
L3370 13780
L3408 13838
L3446 13876
L3484 13895
" />
<g transform="rotate(-90 6310.71 9250)">
<text x="6310.71" y="9450"
textLength="631.905" font-size="533.333" lengthAdjust="spacingAndGlyphs"
text-anchor="middle" opacity="0">S2</text>
</g>
<path d="M6472 8945
L6491 9002
L6491 9097
L6472 9135
L6453 9154
L6415 9173
L6377 9173
L6339 9154
L6320 9135
L6301 9097
L6282 9021
L6263 8983
L6244 8964
L6205 8945
L6167 8945
L6129 8964
L6110 8983
L6091 9021
L6091 9116
L6110 9173
" />
<path d="M6129 9326
L6110 9345
L6091 9383
L6091 9478
L6110 9516
L6129 9535
L6167 9554
L6205 9554
L6263 9535
L6491 9307
L6491 9554
" />
<g transform="rotate(-90 6310.71 6250)">
<text x="6310.71" y="6450"
textLength="631.905" font-size="533.333" lengthAdjust="spacingAndGlyphs"
text-anchor="middle" opacity="0">S3</text>
</g>
<path d="M6472 5945
L6491 6002
L6491 6097
L6472 6135
L6453 6154
L6415 6173
L6377 6173
L6339 6154
L6320 6135
L6301 6097
L6282 6021
L6263 5983
L6244 5964
L6205 5945
L6167 5945
L6129 5964
L6110 5983
L6091 6021
L6091 6116
L6110 6173
" />
<path d="M6091 6307
L6091 6554
L6244 6421
L6244 6478
L6263 6516
L6282 6535
L6320 6554
L6415 6554
L6453 6535
L6472 6516
L6491 6478
L6491 6364
L6472 6326
L6453 6307
" />
<g transform="rotate(-90 17310.7 12250)">
<text x="17310.7" y="12450"
textLength="631.905" font-size="533.333" lengthAdjust="spacingAndGlyphs"
text-anchor="middle" opacity="0">S4</text>
</g>
<path d="M17472 11945
L17491 12002
L17491 12097
L17472 12135
L17453 12154
L17415 12173
L17377 12173
L17339 12154
L17320 12135
L17301 12097
L17282 12021
L17263 11983
L17244 11964
L17205 11945
L17167 11945
L17129 11964
L17110 11983
L17091 12021
L17091 12116
L17110 12173
" />
<path d="M17224 12516
L17491 12516
" />
<path d="M17072 12421
L17358 12326
L17358 12573
" />
<g transform="rotate(-90 17310.7 9250)">
<text x="17310.7" y="9450"
textLength="631.905" font-size="533.333" lengthAdjust="spacingAndGlyphs"
text-anchor="middle" opacity="0">S5</text>
</g>
<path d="M17472 8945
L17491 9002
L17491 9097
L17472 9135
L17453 9154
L17415 9173
L17377 9173
L17339 9154
L17320 9135
L17301 9097
L17282 9021
L17263 8983
L17244 8964
L17205 8945
L17167 8945
L17129 8964
L17110 8983
L17091 9021
L17091 9116
L17110 9173
" />
<path d="M17091 9535
L17091 9345
L17282 9326
L17263 9345
L17244 9383
L17244 9478
L17263 9516
L17282 9535
L17320 9554
L17415 9554
L17453 9535
L17472 9516
L17491 9478
L17491 9383
L17472 9345
L17453 9326
" />
<g transform="rotate(-90 17310.7 6250)">
<text x="17310.7" y="6450"
textLength="631.905" font-size="533.333" lengthAdjust="spacingAndGlyphs"
text-anchor="middle" opacity="0">S6</text>
</g>
<path d="M17472 5945
L17491 6002
L17491 6097
L17472 6135
L17453 6154
L17415 6173
L17377 6173
L17339 6154
L17320 6135
L17301 6097
L17282 6021
L17263 5983
L17244 5964
L17205 5945
L17167 5945
L17129 5964
L17110 5983
L17091 6021
L17091 6116
L17110 6173
" />
<path d="M17091 6516
L17091 6440
L17110 6402
L17129 6383
L17186 6345
L17263 6326
L17415 6326
L17453 6345
L17472 6364
L17491 6402
L17491 6478
L17472 6516
L17453 6535
L17415 6554
L17320 6554
L17282 6535
L17263 6516
L17244 6478
L17244 6402
L17263 6364
L17282 6345
L17320 6326
" />
<text x="25560.7" y="14200"
textLength="631.905" font-size="533.333" lengthAdjust="spacingAndGlyphs"
text-anchor="middle" opacity="0">S7</text>
<path d="M25865 14161
L25808 14180
L25713 14180
L25674 14161
L25655 14142
L25636 14104
L25636 14066
L25655 14028
L25674 14009
L25713 13990
L25789 13971
L25827 13952
L25846 13933
L25865 13895
L25865 13857
L25846 13819
L25827 13800
L25789 13780
L25694 13780
L25636 13800
" />
<path d="M25503 13780
L25236 13780
L25408 14180
" />
<g transform="rotate(-90 28310.7 9250)">
<text x="28310.7" y="9450"
textLength="631.905" font-size="533.333" lengthAdjust="spacingAndGlyphs"
text-anchor="middle" opacity="0">S8</text>
</g>
<path d="M28472 8945
L28491 9002
L28491 9097
L28472 9135
L28453 9154
L28415 9173
L28377 9173
L28339 9154
L28320 9135
L28301 9097
L28282 9021
L28263 8983
L28244 8964
L28205 8945
L28167 8945
L28129 8964
L28110 8983
L28091 9021
L28091 9116
L28110 9173
" />
<path d="M28263 9402
L28244 9364
L28224 9345
L28186 9326
L28167 9326
L28129 9345
L28110 9364
L28091 9402
L28091 9478
L28110 9516
L28129 9535
L28167 9554
L28186 9554
L28224 9535
L28244 9516
L28263 9478
L28263 9402
L28282 9364
L28301 9345
L28339 9326
L28415 9326
L28453 9345
L28472 9364
L28491 9402
L28491 9478
L28472 9516
L28453 9535
L28415 9554
L28339 9554
L28301 9535
L28282 9516
L28263 9478
" />
<g transform="rotate(-90 28310.7 6250)">
<text x="28310.7" y="6450"
textLength="631.905" font-size="533.333" lengthAdjust="spacingAndGlyphs"
text-anchor="middle" opacity="0">S9</text>
</g>
<path d="M28472 5945
L28491 6002
L28491 6097
L28472 6135
L28453 6154
L28415 6173
L28377 6173
L28339 6154
L28320 6135
L28301 6097
L28282 6021
L28263 5983
L28244 5964
L28205 5945
L28167 5945
L28129 5964
L28110 5983
L28091 6021
L28091 6116
L28110 6173
" />
<path d="M28491 6364
L28491 6440
L28472 6478
L28453 6497
L28396 6535
L28320 6554
L28167 6554
L28129 6535
L28110 6516
L28091 6478
L28091 6402
L28110 6364
L28129 6345
L28167 6326
L28263 6326
L28301 6345
L28320 6364
L28339 6402
L28339 6478
L28320 6516
L28301 6535
L28263 6554
" />
<g >
</g>
</g>
<g style="fill:#000000; fill-opacity:0.0; 
stroke:#000000; stroke-width:100; stroke-opacity:1; 
stroke-linecap:round; stroke-linejoin:round;">
</g>
<g style="fill:#C2C200; fill-opacity:0.0; 
stroke:#C2C200; stroke-width:100; stroke-opacity:1; 
stroke-linecap:round; stroke-linejoin:round;">
</g>
<g style="fill:#C2C200; fill-opacity:0.0; 
stroke:#C2C200; stroke-width:110; stroke-opacity:1; 
stroke-linecap:round; stroke-linejoin:round;">
<path d="M29810.7 37500 A2500 2500 0.0 0 0 32310.7 35000" />
<path d="M2810.71 35000 A2500 2500 0.0 0 0 5310.71 37500" />
<path d="M32310.7 4500 A2500 2500 0.0 0 0 29810.7 2000" />
<path d="M5310.71 2000 A2500 2500 0.0 0 0 2810.71 4500" />
<path d="M5310 2000
L29810 2000
" />
<path d="M2810 35000
L2810 4500
" />
<path d="M29810 37500
L5310 37500
" />
<path d="M32310 4500
L32310 35000
" />
<g >
</g>
<g >
</g>
<g >
</g>
<g >
</g>
<g >
</g>
<g >
</g>
<g >
</g>
<g >
</g>
<g >
</g>
<g >
</g>
<g >
</g>
<g >
</g>
<g >
</g>
<g >
</g>
<g >
</g>
<g >
</g>
<g >
</g>
<g >
</g>
<g >
</g>
<g >
</g>
<g >
</g>
</g> 
</svg>
