%TF.GenerationSoftware,KiCad,Pcbnew,5.1.8-db9833491~87~ubuntu20.04.1*%
%TF.CreationDate,2020-11-19T10:17:09-05:00*%
%TF.ProjectId,y_arena_odor_controller,795f6172-656e-4615-9f6f-646f725f636f,1.3*%
%TF.SameCoordinates,Original*%
%TF.FileFunction,Legend,Top*%
%TF.FilePolarity,Positive*%
%FSLAX46Y46*%
G04 Gerber Fmt 4.6, Leading zero omitted, Abs format (unit mm)*
G04 Created by KiCad (PCBNEW 5.1.8-db9833491~87~ubuntu20.04.1) date 2020-11-19 10:17:09*
%MOMM*%
%LPD*%
G01*
G04 APERTURE LIST*
%ADD10C,0.254000*%
%ADD11C,0.279400*%
%ADD12C,0.349250*%
%ADD13C,0.150000*%
%ADD14C,0.177800*%
%ADD15C,0.381000*%
%ADD16C,0.127000*%
%ADD17C,0.228600*%
%ADD18C,0.190500*%
%ADD19C,0.139700*%
%ADD20C,0.120650*%
%ADD21C,0.317500*%
%ADD22C,0.158750*%
%ADD23C,2.286000*%
%ADD24O,2.540000X2.184400*%
%ADD25R,2.540000X2.184400*%
%ADD26R,3.810000X2.030000*%
%ADD27R,1.020000X2.290000*%
%ADD28R,2.999999X2.500000*%
%ADD29C,3.000000*%
%ADD30R,3.900000X6.200000*%
%ADD31R,3.300000X4.400000*%
%ADD32R,1.193800X1.193800*%
%ADD33C,1.000000*%
%ADD34C,3.556000*%
%ADD35R,1.600200X0.787400*%
%ADD36R,1.600000X1.440000*%
%ADD37R,3.800000X4.960000*%
G04 APERTURE END LIST*
D10*
X79665285Y-109679619D02*
X79084714Y-109679619D01*
X79375000Y-109679619D02*
X79375000Y-108663619D01*
X79278238Y-108808761D01*
X79181476Y-108905523D01*
X79084714Y-108953904D01*
X79084714Y-103680380D02*
X79133095Y-103632000D01*
X79229857Y-103583619D01*
X79471761Y-103583619D01*
X79568523Y-103632000D01*
X79616904Y-103680380D01*
X79665285Y-103777142D01*
X79665285Y-103873904D01*
X79616904Y-104019047D01*
X79036333Y-104599619D01*
X79665285Y-104599619D01*
X79326619Y-113743619D02*
X79423380Y-113743619D01*
X79520142Y-113792000D01*
X79568523Y-113840380D01*
X79616904Y-113937142D01*
X79665285Y-114130666D01*
X79665285Y-114372571D01*
X79616904Y-114566095D01*
X79568523Y-114662857D01*
X79520142Y-114711238D01*
X79423380Y-114759619D01*
X79326619Y-114759619D01*
X79229857Y-114711238D01*
X79181476Y-114662857D01*
X79133095Y-114566095D01*
X79084714Y-114372571D01*
X79084714Y-114130666D01*
X79133095Y-113937142D01*
X79181476Y-113840380D01*
X79229857Y-113792000D01*
X79326619Y-113743619D01*
X93054714Y-99870380D02*
X93103095Y-99822000D01*
X93199857Y-99773619D01*
X93441761Y-99773619D01*
X93538523Y-99822000D01*
X93586904Y-99870380D01*
X93635285Y-99967142D01*
X93635285Y-100063904D01*
X93586904Y-100209047D01*
X93006333Y-100789619D01*
X93635285Y-100789619D01*
X88555285Y-100789619D02*
X87974714Y-100789619D01*
X88265000Y-100789619D02*
X88265000Y-99773619D01*
X88168238Y-99918761D01*
X88071476Y-100015523D01*
X87974714Y-100063904D01*
X83136619Y-99773619D02*
X83233380Y-99773619D01*
X83330142Y-99822000D01*
X83378523Y-99870380D01*
X83426904Y-99967142D01*
X83475285Y-100160666D01*
X83475285Y-100402571D01*
X83426904Y-100596095D01*
X83378523Y-100692857D01*
X83330142Y-100741238D01*
X83233380Y-100789619D01*
X83136619Y-100789619D01*
X83039857Y-100741238D01*
X82991476Y-100692857D01*
X82943095Y-100596095D01*
X82894714Y-100402571D01*
X82894714Y-100160666D01*
X82943095Y-99967142D01*
X82991476Y-99870380D01*
X83039857Y-99822000D01*
X83136619Y-99773619D01*
X77004333Y-110550476D02*
X77004333Y-110066666D01*
X77294619Y-110647238D02*
X76278619Y-110308571D01*
X77294619Y-109969904D01*
X77294619Y-109050666D02*
X76810809Y-109389333D01*
X77294619Y-109631238D02*
X76278619Y-109631238D01*
X76278619Y-109244190D01*
X76327000Y-109147428D01*
X76375380Y-109099047D01*
X76472142Y-109050666D01*
X76617285Y-109050666D01*
X76714047Y-109099047D01*
X76762428Y-109147428D01*
X76810809Y-109244190D01*
X76810809Y-109631238D01*
X77294619Y-108615238D02*
X76278619Y-108615238D01*
X77004333Y-108276571D01*
X76278619Y-107937904D01*
X77294619Y-107937904D01*
X86620047Y-97233619D02*
X86813571Y-97233619D01*
X86910333Y-97282000D01*
X87007095Y-97378761D01*
X87055476Y-97572285D01*
X87055476Y-97910952D01*
X87007095Y-98104476D01*
X86910333Y-98201238D01*
X86813571Y-98249619D01*
X86620047Y-98249619D01*
X86523285Y-98201238D01*
X86426523Y-98104476D01*
X86378142Y-97910952D01*
X86378142Y-97572285D01*
X86426523Y-97378761D01*
X86523285Y-97282000D01*
X86620047Y-97233619D01*
X87490904Y-98249619D02*
X87490904Y-97233619D01*
X87732809Y-97233619D01*
X87877952Y-97282000D01*
X87974714Y-97378761D01*
X88023095Y-97475523D01*
X88071476Y-97669047D01*
X88071476Y-97814190D01*
X88023095Y-98007714D01*
X87974714Y-98104476D01*
X87877952Y-98201238D01*
X87732809Y-98249619D01*
X87490904Y-98249619D01*
X88700428Y-97233619D02*
X88893952Y-97233619D01*
X88990714Y-97282000D01*
X89087476Y-97378761D01*
X89135857Y-97572285D01*
X89135857Y-97910952D01*
X89087476Y-98104476D01*
X88990714Y-98201238D01*
X88893952Y-98249619D01*
X88700428Y-98249619D01*
X88603666Y-98201238D01*
X88506904Y-98104476D01*
X88458523Y-97910952D01*
X88458523Y-97572285D01*
X88506904Y-97378761D01*
X88603666Y-97282000D01*
X88700428Y-97233619D01*
X90151857Y-98249619D02*
X89813190Y-97765809D01*
X89571285Y-98249619D02*
X89571285Y-97233619D01*
X89958333Y-97233619D01*
X90055095Y-97282000D01*
X90103476Y-97330380D01*
X90151857Y-97427142D01*
X90151857Y-97572285D01*
X90103476Y-97669047D01*
X90055095Y-97717428D01*
X89958333Y-97765809D01*
X89571285Y-97765809D01*
D11*
X78105000Y-111760000D02*
X95885000Y-111760000D01*
X78105000Y-106680000D02*
X95885000Y-106680000D01*
X90805000Y-101600000D02*
X90805000Y-99060000D01*
X85725000Y-101600000D02*
X85725000Y-99060000D01*
X95885000Y-96520000D02*
X95885000Y-99060000D01*
X80645000Y-96520000D02*
X95885000Y-96520000D01*
X80645000Y-99060000D02*
X80645000Y-96520000D01*
X95885000Y-99060000D02*
X95885000Y-101600000D01*
X80645000Y-99060000D02*
X95885000Y-99060000D01*
X80645000Y-101600000D02*
X80645000Y-99060000D01*
X78105000Y-116840000D02*
X75565000Y-116840000D01*
X75565000Y-101600000D02*
X75565000Y-116840000D01*
X75565000Y-101600000D02*
X78105000Y-101600000D01*
X80645000Y-116840000D02*
X78105000Y-116840000D01*
X78105000Y-101600000D02*
X78105000Y-116840000D01*
X78105000Y-101600000D02*
X80645000Y-101600000D01*
X95885000Y-116840000D02*
X90805000Y-116840000D01*
X95885000Y-101600000D02*
X95885000Y-116840000D01*
X90805000Y-101600000D02*
X95885000Y-101600000D01*
X90805000Y-116840000D02*
X85725000Y-116840000D01*
X90805000Y-101600000D02*
X90805000Y-116840000D01*
X85725000Y-101600000D02*
X90805000Y-101600000D01*
X85725000Y-116840000D02*
X80645000Y-116840000D01*
X85725000Y-101600000D02*
X85725000Y-116840000D01*
X80645000Y-101600000D02*
X85725000Y-101600000D01*
X80645000Y-116840000D02*
X80645000Y-101600000D01*
X95885000Y-104140000D02*
G75*
G03*
X95885000Y-104140000I-2540000J0D01*
G01*
X95885000Y-109220000D02*
G75*
G03*
X95885000Y-109220000I-2540000J0D01*
G01*
X90805000Y-104140000D02*
G75*
G03*
X90805000Y-104140000I-2540000J0D01*
G01*
X90805000Y-109220000D02*
G75*
G03*
X90805000Y-109220000I-2540000J0D01*
G01*
X95885000Y-114300000D02*
G75*
G03*
X95885000Y-114300000I-2540000J0D01*
G01*
X90805000Y-114300000D02*
G75*
G03*
X90805000Y-114300000I-2540000J0D01*
G01*
X85725000Y-104140000D02*
G75*
G03*
X85725000Y-104140000I-2540000J0D01*
G01*
X85725000Y-109220000D02*
G75*
G03*
X85725000Y-109220000I-2540000J0D01*
G01*
X85725000Y-114300000D02*
G75*
G03*
X85725000Y-114300000I-2540000J0D01*
G01*
D12*
X53766357Y-94410892D02*
X54098976Y-95342226D01*
X54431595Y-94410892D02*
X54098976Y-95342226D01*
X53965928Y-95674845D01*
X53899404Y-95741369D01*
X53766357Y-95807892D01*
X54631166Y-95475273D02*
X55695547Y-95475273D01*
X56626880Y-95342226D02*
X56626880Y-94610464D01*
X56560357Y-94477416D01*
X56427309Y-94410892D01*
X56161214Y-94410892D01*
X56028166Y-94477416D01*
X56626880Y-95275702D02*
X56493833Y-95342226D01*
X56161214Y-95342226D01*
X56028166Y-95275702D01*
X55961642Y-95142654D01*
X55961642Y-95009607D01*
X56028166Y-94876559D01*
X56161214Y-94810035D01*
X56493833Y-94810035D01*
X56626880Y-94743511D01*
X57292119Y-95342226D02*
X57292119Y-94410892D01*
X57292119Y-94676988D02*
X57358642Y-94543940D01*
X57425166Y-94477416D01*
X57558214Y-94410892D01*
X57691261Y-94410892D01*
X58689119Y-95275702D02*
X58556071Y-95342226D01*
X58289976Y-95342226D01*
X58156928Y-95275702D01*
X58090404Y-95142654D01*
X58090404Y-94610464D01*
X58156928Y-94477416D01*
X58289976Y-94410892D01*
X58556071Y-94410892D01*
X58689119Y-94477416D01*
X58755642Y-94610464D01*
X58755642Y-94743511D01*
X58090404Y-94876559D01*
X59354357Y-94410892D02*
X59354357Y-95342226D01*
X59354357Y-94543940D02*
X59420880Y-94477416D01*
X59553928Y-94410892D01*
X59753500Y-94410892D01*
X59886547Y-94477416D01*
X59953071Y-94610464D01*
X59953071Y-95342226D01*
X61217023Y-95342226D02*
X61217023Y-94610464D01*
X61150500Y-94477416D01*
X61017452Y-94410892D01*
X60751357Y-94410892D01*
X60618309Y-94477416D01*
X61217023Y-95275702D02*
X61083976Y-95342226D01*
X60751357Y-95342226D01*
X60618309Y-95275702D01*
X60551785Y-95142654D01*
X60551785Y-95009607D01*
X60618309Y-94876559D01*
X60751357Y-94810035D01*
X61083976Y-94810035D01*
X61217023Y-94743511D01*
X61549642Y-95475273D02*
X62614023Y-95475273D01*
X63146214Y-95342226D02*
X63013166Y-95275702D01*
X62946642Y-95209178D01*
X62880119Y-95076130D01*
X62880119Y-94676988D01*
X62946642Y-94543940D01*
X63013166Y-94477416D01*
X63146214Y-94410892D01*
X63345785Y-94410892D01*
X63478833Y-94477416D01*
X63545357Y-94543940D01*
X63611880Y-94676988D01*
X63611880Y-95076130D01*
X63545357Y-95209178D01*
X63478833Y-95275702D01*
X63345785Y-95342226D01*
X63146214Y-95342226D01*
X64809309Y-95342226D02*
X64809309Y-93945226D01*
X64809309Y-95275702D02*
X64676261Y-95342226D01*
X64410166Y-95342226D01*
X64277119Y-95275702D01*
X64210595Y-95209178D01*
X64144071Y-95076130D01*
X64144071Y-94676988D01*
X64210595Y-94543940D01*
X64277119Y-94477416D01*
X64410166Y-94410892D01*
X64676261Y-94410892D01*
X64809309Y-94477416D01*
X65674119Y-95342226D02*
X65541071Y-95275702D01*
X65474547Y-95209178D01*
X65408023Y-95076130D01*
X65408023Y-94676988D01*
X65474547Y-94543940D01*
X65541071Y-94477416D01*
X65674119Y-94410892D01*
X65873690Y-94410892D01*
X66006738Y-94477416D01*
X66073261Y-94543940D01*
X66139785Y-94676988D01*
X66139785Y-95076130D01*
X66073261Y-95209178D01*
X66006738Y-95275702D01*
X65873690Y-95342226D01*
X65674119Y-95342226D01*
X66738500Y-95342226D02*
X66738500Y-94410892D01*
X66738500Y-94676988D02*
X66805023Y-94543940D01*
X66871547Y-94477416D01*
X67004595Y-94410892D01*
X67137642Y-94410892D01*
X67270690Y-95475273D02*
X68335071Y-95475273D01*
X69266404Y-95275702D02*
X69133357Y-95342226D01*
X68867261Y-95342226D01*
X68734214Y-95275702D01*
X68667690Y-95209178D01*
X68601166Y-95076130D01*
X68601166Y-94676988D01*
X68667690Y-94543940D01*
X68734214Y-94477416D01*
X68867261Y-94410892D01*
X69133357Y-94410892D01*
X69266404Y-94477416D01*
X70064690Y-95342226D02*
X69931642Y-95275702D01*
X69865119Y-95209178D01*
X69798595Y-95076130D01*
X69798595Y-94676988D01*
X69865119Y-94543940D01*
X69931642Y-94477416D01*
X70064690Y-94410892D01*
X70264261Y-94410892D01*
X70397309Y-94477416D01*
X70463833Y-94543940D01*
X70530357Y-94676988D01*
X70530357Y-95076130D01*
X70463833Y-95209178D01*
X70397309Y-95275702D01*
X70264261Y-95342226D01*
X70064690Y-95342226D01*
X71129071Y-94410892D02*
X71129071Y-95342226D01*
X71129071Y-94543940D02*
X71195595Y-94477416D01*
X71328642Y-94410892D01*
X71528214Y-94410892D01*
X71661261Y-94477416D01*
X71727785Y-94610464D01*
X71727785Y-95342226D01*
X72193452Y-94410892D02*
X72725642Y-94410892D01*
X72393023Y-93945226D02*
X72393023Y-95142654D01*
X72459547Y-95275702D01*
X72592595Y-95342226D01*
X72725642Y-95342226D01*
X73191309Y-95342226D02*
X73191309Y-94410892D01*
X73191309Y-94676988D02*
X73257833Y-94543940D01*
X73324357Y-94477416D01*
X73457404Y-94410892D01*
X73590452Y-94410892D01*
X74255690Y-95342226D02*
X74122642Y-95275702D01*
X74056119Y-95209178D01*
X73989595Y-95076130D01*
X73989595Y-94676988D01*
X74056119Y-94543940D01*
X74122642Y-94477416D01*
X74255690Y-94410892D01*
X74455261Y-94410892D01*
X74588309Y-94477416D01*
X74654833Y-94543940D01*
X74721357Y-94676988D01*
X74721357Y-95076130D01*
X74654833Y-95209178D01*
X74588309Y-95275702D01*
X74455261Y-95342226D01*
X74255690Y-95342226D01*
X75519642Y-95342226D02*
X75386595Y-95275702D01*
X75320071Y-95142654D01*
X75320071Y-93945226D01*
X76251404Y-95342226D02*
X76118357Y-95275702D01*
X76051833Y-95142654D01*
X76051833Y-93945226D01*
X77315785Y-95275702D02*
X77182738Y-95342226D01*
X76916642Y-95342226D01*
X76783595Y-95275702D01*
X76717071Y-95142654D01*
X76717071Y-94610464D01*
X76783595Y-94477416D01*
X76916642Y-94410892D01*
X77182738Y-94410892D01*
X77315785Y-94477416D01*
X77382309Y-94610464D01*
X77382309Y-94743511D01*
X76717071Y-94876559D01*
X77981023Y-95342226D02*
X77981023Y-94410892D01*
X77981023Y-94676988D02*
X78047547Y-94543940D01*
X78114071Y-94477416D01*
X78247119Y-94410892D01*
X78380166Y-94410892D01*
X53134380Y-96389976D02*
X53134380Y-97387833D01*
X53067857Y-97587404D01*
X52934809Y-97720452D01*
X52735238Y-97786976D01*
X52602190Y-97786976D01*
X54398333Y-97786976D02*
X54398333Y-97055214D01*
X54331809Y-96922166D01*
X54198761Y-96855642D01*
X53932666Y-96855642D01*
X53799619Y-96922166D01*
X54398333Y-97720452D02*
X54265285Y-97786976D01*
X53932666Y-97786976D01*
X53799619Y-97720452D01*
X53733095Y-97587404D01*
X53733095Y-97454357D01*
X53799619Y-97321309D01*
X53932666Y-97254785D01*
X54265285Y-97254785D01*
X54398333Y-97188261D01*
X55063571Y-96855642D02*
X55063571Y-97786976D01*
X55063571Y-96988690D02*
X55130095Y-96922166D01*
X55263142Y-96855642D01*
X55462714Y-96855642D01*
X55595761Y-96922166D01*
X55662285Y-97055214D01*
X55662285Y-97786976D01*
X56859714Y-97720452D02*
X56726666Y-97786976D01*
X56460571Y-97786976D01*
X56327523Y-97720452D01*
X56261000Y-97587404D01*
X56261000Y-97055214D01*
X56327523Y-96922166D01*
X56460571Y-96855642D01*
X56726666Y-96855642D01*
X56859714Y-96922166D01*
X56926238Y-97055214D01*
X56926238Y-97188261D01*
X56261000Y-97321309D01*
X57724523Y-97786976D02*
X57591476Y-97720452D01*
X57524952Y-97587404D01*
X57524952Y-96389976D01*
X58256714Y-97786976D02*
X58256714Y-96855642D01*
X58256714Y-96389976D02*
X58190190Y-96456500D01*
X58256714Y-96523023D01*
X58323238Y-96456500D01*
X58256714Y-96389976D01*
X58256714Y-96523023D01*
X59520666Y-97786976D02*
X59520666Y-97055214D01*
X59454142Y-96922166D01*
X59321095Y-96855642D01*
X59055000Y-96855642D01*
X58921952Y-96922166D01*
X59520666Y-97720452D02*
X59387619Y-97786976D01*
X59055000Y-97786976D01*
X58921952Y-97720452D01*
X58855428Y-97587404D01*
X58855428Y-97454357D01*
X58921952Y-97321309D01*
X59055000Y-97254785D01*
X59387619Y-97254785D01*
X59520666Y-97188261D01*
X62048571Y-97786976D02*
X61582904Y-97121738D01*
X61250285Y-97786976D02*
X61250285Y-96389976D01*
X61782476Y-96389976D01*
X61915523Y-96456500D01*
X61982047Y-96523023D01*
X62048571Y-96656071D01*
X62048571Y-96855642D01*
X61982047Y-96988690D01*
X61915523Y-97055214D01*
X61782476Y-97121738D01*
X61250285Y-97121738D01*
X63179476Y-97720452D02*
X63046428Y-97786976D01*
X62780333Y-97786976D01*
X62647285Y-97720452D01*
X62580761Y-97587404D01*
X62580761Y-97055214D01*
X62647285Y-96922166D01*
X62780333Y-96855642D01*
X63046428Y-96855642D01*
X63179476Y-96922166D01*
X63246000Y-97055214D01*
X63246000Y-97188261D01*
X62580761Y-97321309D01*
X63778190Y-97720452D02*
X63911238Y-97786976D01*
X64177333Y-97786976D01*
X64310380Y-97720452D01*
X64376904Y-97587404D01*
X64376904Y-97520880D01*
X64310380Y-97387833D01*
X64177333Y-97321309D01*
X63977761Y-97321309D01*
X63844714Y-97254785D01*
X63778190Y-97121738D01*
X63778190Y-97055214D01*
X63844714Y-96922166D01*
X63977761Y-96855642D01*
X64177333Y-96855642D01*
X64310380Y-96922166D01*
X65507809Y-97720452D02*
X65374761Y-97786976D01*
X65108666Y-97786976D01*
X64975619Y-97720452D01*
X64909095Y-97587404D01*
X64909095Y-97055214D01*
X64975619Y-96922166D01*
X65108666Y-96855642D01*
X65374761Y-96855642D01*
X65507809Y-96922166D01*
X65574333Y-97055214D01*
X65574333Y-97188261D01*
X64909095Y-97321309D01*
X66771761Y-97786976D02*
X66771761Y-97055214D01*
X66705238Y-96922166D01*
X66572190Y-96855642D01*
X66306095Y-96855642D01*
X66173047Y-96922166D01*
X66771761Y-97720452D02*
X66638714Y-97786976D01*
X66306095Y-97786976D01*
X66173047Y-97720452D01*
X66106523Y-97587404D01*
X66106523Y-97454357D01*
X66173047Y-97321309D01*
X66306095Y-97254785D01*
X66638714Y-97254785D01*
X66771761Y-97188261D01*
X67437000Y-97786976D02*
X67437000Y-96855642D01*
X67437000Y-97121738D02*
X67503523Y-96988690D01*
X67570047Y-96922166D01*
X67703095Y-96855642D01*
X67836142Y-96855642D01*
X68900523Y-97720452D02*
X68767476Y-97786976D01*
X68501380Y-97786976D01*
X68368333Y-97720452D01*
X68301809Y-97653928D01*
X68235285Y-97520880D01*
X68235285Y-97121738D01*
X68301809Y-96988690D01*
X68368333Y-96922166D01*
X68501380Y-96855642D01*
X68767476Y-96855642D01*
X68900523Y-96922166D01*
X69499238Y-97786976D02*
X69499238Y-96389976D01*
X70097952Y-97786976D02*
X70097952Y-97055214D01*
X70031428Y-96922166D01*
X69898380Y-96855642D01*
X69698809Y-96855642D01*
X69565761Y-96922166D01*
X69499238Y-96988690D01*
X72625857Y-97653928D02*
X72559333Y-97720452D01*
X72359761Y-97786976D01*
X72226714Y-97786976D01*
X72027142Y-97720452D01*
X71894095Y-97587404D01*
X71827571Y-97454357D01*
X71761047Y-97188261D01*
X71761047Y-96988690D01*
X71827571Y-96722595D01*
X71894095Y-96589547D01*
X72027142Y-96456500D01*
X72226714Y-96389976D01*
X72359761Y-96389976D01*
X72559333Y-96456500D01*
X72625857Y-96523023D01*
X73823285Y-97786976D02*
X73823285Y-97055214D01*
X73756761Y-96922166D01*
X73623714Y-96855642D01*
X73357619Y-96855642D01*
X73224571Y-96922166D01*
X73823285Y-97720452D02*
X73690238Y-97786976D01*
X73357619Y-97786976D01*
X73224571Y-97720452D01*
X73158047Y-97587404D01*
X73158047Y-97454357D01*
X73224571Y-97321309D01*
X73357619Y-97254785D01*
X73690238Y-97254785D01*
X73823285Y-97188261D01*
X74488523Y-97786976D02*
X74488523Y-96855642D01*
X74488523Y-96988690D02*
X74555047Y-96922166D01*
X74688095Y-96855642D01*
X74887666Y-96855642D01*
X75020714Y-96922166D01*
X75087238Y-97055214D01*
X75087238Y-97786976D01*
X75087238Y-97055214D02*
X75153761Y-96922166D01*
X75286809Y-96855642D01*
X75486380Y-96855642D01*
X75619428Y-96922166D01*
X75685952Y-97055214D01*
X75685952Y-97786976D01*
X76351190Y-96855642D02*
X76351190Y-98252642D01*
X76351190Y-96922166D02*
X76484238Y-96855642D01*
X76750333Y-96855642D01*
X76883380Y-96922166D01*
X76949904Y-96988690D01*
X77016428Y-97121738D01*
X77016428Y-97520880D01*
X76949904Y-97653928D01*
X76883380Y-97720452D01*
X76750333Y-97786976D01*
X76484238Y-97786976D01*
X76351190Y-97720452D01*
X78213857Y-96855642D02*
X78213857Y-97786976D01*
X77615142Y-96855642D02*
X77615142Y-97587404D01*
X77681666Y-97720452D01*
X77814714Y-97786976D01*
X78014285Y-97786976D01*
X78147333Y-97720452D01*
X78213857Y-97653928D01*
X78812571Y-97720452D02*
X78945619Y-97786976D01*
X79211714Y-97786976D01*
X79344761Y-97720452D01*
X79411285Y-97587404D01*
X79411285Y-97520880D01*
X79344761Y-97387833D01*
X79211714Y-97321309D01*
X79012142Y-97321309D01*
X78879095Y-97254785D01*
X78812571Y-97121738D01*
X78812571Y-97055214D01*
X78879095Y-96922166D01*
X79012142Y-96855642D01*
X79211714Y-96855642D01*
X79344761Y-96922166D01*
X58090404Y-100231726D02*
X57292119Y-100231726D01*
X57691261Y-100231726D02*
X57691261Y-98834726D01*
X57558214Y-99034297D01*
X57425166Y-99167345D01*
X57292119Y-99233869D01*
X58955214Y-98834726D02*
X59088261Y-98834726D01*
X59221309Y-98901250D01*
X59287833Y-98967773D01*
X59354357Y-99100821D01*
X59420880Y-99366916D01*
X59420880Y-99699535D01*
X59354357Y-99965630D01*
X59287833Y-100098678D01*
X59221309Y-100165202D01*
X59088261Y-100231726D01*
X58955214Y-100231726D01*
X58822166Y-100165202D01*
X58755642Y-100098678D01*
X58689119Y-99965630D01*
X58622595Y-99699535D01*
X58622595Y-99366916D01*
X58689119Y-99100821D01*
X58755642Y-98967773D01*
X58822166Y-98901250D01*
X58955214Y-98834726D01*
X61017452Y-98768202D02*
X59820023Y-100564345D01*
X61416595Y-98967773D02*
X61483119Y-98901250D01*
X61616166Y-98834726D01*
X61948785Y-98834726D01*
X62081833Y-98901250D01*
X62148357Y-98967773D01*
X62214880Y-99100821D01*
X62214880Y-99233869D01*
X62148357Y-99433440D01*
X61350071Y-100231726D01*
X62214880Y-100231726D01*
X63079690Y-98834726D02*
X63212738Y-98834726D01*
X63345785Y-98901250D01*
X63412309Y-98967773D01*
X63478833Y-99100821D01*
X63545357Y-99366916D01*
X63545357Y-99699535D01*
X63478833Y-99965630D01*
X63412309Y-100098678D01*
X63345785Y-100165202D01*
X63212738Y-100231726D01*
X63079690Y-100231726D01*
X62946642Y-100165202D01*
X62880119Y-100098678D01*
X62813595Y-99965630D01*
X62747071Y-99699535D01*
X62747071Y-99366916D01*
X62813595Y-99100821D01*
X62880119Y-98967773D01*
X62946642Y-98901250D01*
X63079690Y-98834726D01*
X64077547Y-98967773D02*
X64144071Y-98901250D01*
X64277119Y-98834726D01*
X64609738Y-98834726D01*
X64742785Y-98901250D01*
X64809309Y-98967773D01*
X64875833Y-99100821D01*
X64875833Y-99233869D01*
X64809309Y-99433440D01*
X64011023Y-100231726D01*
X64875833Y-100231726D01*
X65740642Y-98834726D02*
X65873690Y-98834726D01*
X66006738Y-98901250D01*
X66073261Y-98967773D01*
X66139785Y-99100821D01*
X66206309Y-99366916D01*
X66206309Y-99699535D01*
X66139785Y-99965630D01*
X66073261Y-100098678D01*
X66006738Y-100165202D01*
X65873690Y-100231726D01*
X65740642Y-100231726D01*
X65607595Y-100165202D01*
X65541071Y-100098678D01*
X65474547Y-99965630D01*
X65408023Y-99699535D01*
X65408023Y-99366916D01*
X65474547Y-99100821D01*
X65541071Y-98967773D01*
X65607595Y-98901250D01*
X65740642Y-98834726D01*
X67736357Y-99300392D02*
X68068976Y-100231726D01*
X68401595Y-99300392D01*
X69465976Y-100165202D02*
X69332928Y-100231726D01*
X69066833Y-100231726D01*
X68933785Y-100165202D01*
X68867261Y-100032154D01*
X68867261Y-99499964D01*
X68933785Y-99366916D01*
X69066833Y-99300392D01*
X69332928Y-99300392D01*
X69465976Y-99366916D01*
X69532500Y-99499964D01*
X69532500Y-99633011D01*
X68867261Y-99766059D01*
X70131214Y-100231726D02*
X70131214Y-99300392D01*
X70131214Y-99566488D02*
X70197738Y-99433440D01*
X70264261Y-99366916D01*
X70397309Y-99300392D01*
X70530357Y-99300392D01*
X72792166Y-100231726D02*
X71993880Y-100231726D01*
X72393023Y-100231726D02*
X72393023Y-98834726D01*
X72259976Y-99034297D01*
X72126928Y-99167345D01*
X71993880Y-99233869D01*
X73390880Y-100098678D02*
X73457404Y-100165202D01*
X73390880Y-100231726D01*
X73324357Y-100165202D01*
X73390880Y-100098678D01*
X73390880Y-100231726D01*
X73923071Y-98834726D02*
X74787880Y-98834726D01*
X74322214Y-99366916D01*
X74521785Y-99366916D01*
X74654833Y-99433440D01*
X74721357Y-99499964D01*
X74787880Y-99633011D01*
X74787880Y-99965630D01*
X74721357Y-100098678D01*
X74654833Y-100165202D01*
X74521785Y-100231726D01*
X74122642Y-100231726D01*
X73989595Y-100165202D01*
X73923071Y-100098678D01*
D10*
X52608238Y-122222380D02*
X52656619Y-122174000D01*
X52753380Y-122125619D01*
X52995285Y-122125619D01*
X53092047Y-122174000D01*
X53140428Y-122222380D01*
X53188809Y-122319142D01*
X53188809Y-122415904D01*
X53140428Y-122561047D01*
X52559857Y-123141619D01*
X53188809Y-123141619D01*
X53624238Y-123044857D02*
X53672619Y-123093238D01*
X53624238Y-123141619D01*
X53575857Y-123093238D01*
X53624238Y-123044857D01*
X53624238Y-123141619D01*
X54640238Y-123141619D02*
X54059666Y-123141619D01*
X54349952Y-123141619D02*
X54349952Y-122125619D01*
X54253190Y-122270761D01*
X54156428Y-122367523D01*
X54059666Y-122415904D01*
X54978904Y-123141619D02*
X55511095Y-122464285D01*
X54978904Y-122464285D02*
X55511095Y-123141619D01*
X56381952Y-122125619D02*
X55898142Y-122125619D01*
X55849761Y-122609428D01*
X55898142Y-122561047D01*
X55994904Y-122512666D01*
X56236809Y-122512666D01*
X56333571Y-122561047D01*
X56381952Y-122609428D01*
X56430333Y-122706190D01*
X56430333Y-122948095D01*
X56381952Y-123044857D01*
X56333571Y-123093238D01*
X56236809Y-123141619D01*
X55994904Y-123141619D01*
X55898142Y-123093238D01*
X55849761Y-123044857D01*
X56865761Y-123044857D02*
X56914142Y-123093238D01*
X56865761Y-123141619D01*
X56817380Y-123093238D01*
X56865761Y-123044857D01*
X56865761Y-123141619D01*
X57833380Y-122125619D02*
X57349571Y-122125619D01*
X57301190Y-122609428D01*
X57349571Y-122561047D01*
X57446333Y-122512666D01*
X57688238Y-122512666D01*
X57785000Y-122561047D01*
X57833380Y-122609428D01*
X57881761Y-122706190D01*
X57881761Y-122948095D01*
X57833380Y-123044857D01*
X57785000Y-123093238D01*
X57688238Y-123141619D01*
X57446333Y-123141619D01*
X57349571Y-123093238D01*
X57301190Y-123044857D01*
X52608238Y-124822857D02*
X52559857Y-124871238D01*
X52414714Y-124919619D01*
X52317952Y-124919619D01*
X52172809Y-124871238D01*
X52076047Y-124774476D01*
X52027666Y-124677714D01*
X51979285Y-124484190D01*
X51979285Y-124339047D01*
X52027666Y-124145523D01*
X52076047Y-124048761D01*
X52172809Y-123952000D01*
X52317952Y-123903619D01*
X52414714Y-123903619D01*
X52559857Y-123952000D01*
X52608238Y-124000380D01*
X53430714Y-124871238D02*
X53333952Y-124919619D01*
X53140428Y-124919619D01*
X53043666Y-124871238D01*
X52995285Y-124774476D01*
X52995285Y-124387428D01*
X53043666Y-124290666D01*
X53140428Y-124242285D01*
X53333952Y-124242285D01*
X53430714Y-124290666D01*
X53479095Y-124387428D01*
X53479095Y-124484190D01*
X52995285Y-124580952D01*
X53914523Y-124242285D02*
X53914523Y-124919619D01*
X53914523Y-124339047D02*
X53962904Y-124290666D01*
X54059666Y-124242285D01*
X54204809Y-124242285D01*
X54301571Y-124290666D01*
X54349952Y-124387428D01*
X54349952Y-124919619D01*
X54688619Y-124242285D02*
X55075666Y-124242285D01*
X54833761Y-123903619D02*
X54833761Y-124774476D01*
X54882142Y-124871238D01*
X54978904Y-124919619D01*
X55075666Y-124919619D01*
X55801380Y-124871238D02*
X55704619Y-124919619D01*
X55511095Y-124919619D01*
X55414333Y-124871238D01*
X55365952Y-124774476D01*
X55365952Y-124387428D01*
X55414333Y-124290666D01*
X55511095Y-124242285D01*
X55704619Y-124242285D01*
X55801380Y-124290666D01*
X55849761Y-124387428D01*
X55849761Y-124484190D01*
X55365952Y-124580952D01*
X56285190Y-124919619D02*
X56285190Y-124242285D01*
X56285190Y-124435809D02*
X56333571Y-124339047D01*
X56381952Y-124290666D01*
X56478714Y-124242285D01*
X56575476Y-124242285D01*
X57688238Y-124532571D02*
X58462333Y-124532571D01*
X58075285Y-124919619D02*
X58075285Y-124145523D01*
X52438904Y-126310571D02*
X53213000Y-126310571D01*
X52825952Y-126697619D02*
X52825952Y-125923523D01*
X54229000Y-126697619D02*
X53648428Y-126697619D01*
X53938714Y-126697619D02*
X53938714Y-125681619D01*
X53841952Y-125826761D01*
X53745190Y-125923523D01*
X53648428Y-125971904D01*
X54616047Y-125778380D02*
X54664428Y-125730000D01*
X54761190Y-125681619D01*
X55003095Y-125681619D01*
X55099857Y-125730000D01*
X55148238Y-125778380D01*
X55196619Y-125875142D01*
X55196619Y-125971904D01*
X55148238Y-126117047D01*
X54567666Y-126697619D01*
X55196619Y-126697619D01*
X55486904Y-125681619D02*
X55825571Y-126697619D01*
X56164238Y-125681619D01*
X56502904Y-126697619D02*
X56502904Y-125681619D01*
X56744809Y-125681619D01*
X56889952Y-125730000D01*
X56986714Y-125826761D01*
X57035095Y-125923523D01*
X57083476Y-126117047D01*
X57083476Y-126262190D01*
X57035095Y-126455714D01*
X56986714Y-126552476D01*
X56889952Y-126649238D01*
X56744809Y-126697619D01*
X56502904Y-126697619D01*
X58099476Y-126600857D02*
X58051095Y-126649238D01*
X57905952Y-126697619D01*
X57809190Y-126697619D01*
X57664047Y-126649238D01*
X57567285Y-126552476D01*
X57518904Y-126455714D01*
X57470523Y-126262190D01*
X57470523Y-126117047D01*
X57518904Y-125923523D01*
X57567285Y-125826761D01*
X57664047Y-125730000D01*
X57809190Y-125681619D01*
X57905952Y-125681619D01*
X58051095Y-125730000D01*
X58099476Y-125778380D01*
D11*
%TO.C,S1*%
X54610000Y-74295000D02*
X53594000Y-74676000D01*
X53975000Y-73660000D02*
X54610000Y-74295000D01*
X53594000Y-74676000D02*
X53975000Y-73660000D01*
X54610000Y-79375000D02*
X53594000Y-78994000D01*
X53975000Y-80010000D02*
X54610000Y-79375000D01*
X53594000Y-78994000D02*
X53975000Y-80010000D01*
X58521600Y-73101200D02*
X54737000Y-73101200D01*
X58521600Y-80568800D02*
X58521600Y-73101200D01*
X54737000Y-80568800D02*
X58521600Y-80568800D01*
X58470800Y-76835000D02*
G75*
G03*
X58470800Y-76835000I-3733800J0D01*
G01*
D13*
X53975000Y-75565000D02*
G75*
G03*
X53975000Y-75565000I-1270000J0D01*
G01*
X53975000Y-78105000D02*
G75*
G03*
X53975000Y-78105000I-1270000J0D01*
G01*
D11*
X68173600Y-80568800D02*
X68173600Y-73101200D01*
X68173600Y-80568800D02*
X58521600Y-80568800D01*
X68173600Y-73101200D02*
X58521600Y-73101200D01*
X65633600Y-80568800D02*
X65633600Y-73101200D01*
X60553600Y-80568800D02*
X60553600Y-73101200D01*
%TO.C,S2*%
X54610000Y-66675000D02*
X53594000Y-67056000D01*
X53975000Y-66040000D02*
X54610000Y-66675000D01*
X53594000Y-67056000D02*
X53975000Y-66040000D01*
X54610000Y-71755000D02*
X53594000Y-71374000D01*
X53975000Y-72390000D02*
X54610000Y-71755000D01*
X53594000Y-71374000D02*
X53975000Y-72390000D01*
X58521600Y-65481200D02*
X54737000Y-65481200D01*
X58521600Y-72948800D02*
X58521600Y-65481200D01*
X54737000Y-72948800D02*
X58521600Y-72948800D01*
X58470800Y-69215000D02*
G75*
G03*
X58470800Y-69215000I-3733800J0D01*
G01*
D13*
X53975000Y-67945000D02*
G75*
G03*
X53975000Y-67945000I-1270000J0D01*
G01*
X53975000Y-70485000D02*
G75*
G03*
X53975000Y-70485000I-1270000J0D01*
G01*
D11*
X68173600Y-72948800D02*
X68173600Y-65481200D01*
X68173600Y-72948800D02*
X58521600Y-72948800D01*
X68173600Y-65481200D02*
X58521600Y-65481200D01*
X65633600Y-72948800D02*
X65633600Y-65481200D01*
X60553600Y-72948800D02*
X60553600Y-65481200D01*
%TO.C,S3*%
X54610000Y-59055000D02*
X53594000Y-59436000D01*
X53975000Y-58420000D02*
X54610000Y-59055000D01*
X53594000Y-59436000D02*
X53975000Y-58420000D01*
X54610000Y-64135000D02*
X53594000Y-63754000D01*
X53975000Y-64770000D02*
X54610000Y-64135000D01*
X53594000Y-63754000D02*
X53975000Y-64770000D01*
X58521600Y-57861200D02*
X54737000Y-57861200D01*
X58521600Y-65328800D02*
X58521600Y-57861200D01*
X54737000Y-65328800D02*
X58521600Y-65328800D01*
X58470800Y-61595000D02*
G75*
G03*
X58470800Y-61595000I-3733800J0D01*
G01*
D13*
X53975000Y-60325000D02*
G75*
G03*
X53975000Y-60325000I-1270000J0D01*
G01*
X53975000Y-62865000D02*
G75*
G03*
X53975000Y-62865000I-1270000J0D01*
G01*
D11*
X68173600Y-65328800D02*
X68173600Y-57861200D01*
X68173600Y-65328800D02*
X58521600Y-65328800D01*
X68173600Y-57861200D02*
X58521600Y-57861200D01*
X65633600Y-65328800D02*
X65633600Y-57861200D01*
X60553600Y-65328800D02*
X60553600Y-57861200D01*
%TO.C,S4*%
X82550000Y-74295000D02*
X81534000Y-74676000D01*
X81915000Y-73660000D02*
X82550000Y-74295000D01*
X81534000Y-74676000D02*
X81915000Y-73660000D01*
X82550000Y-79375000D02*
X81534000Y-78994000D01*
X81915000Y-80010000D02*
X82550000Y-79375000D01*
X81534000Y-78994000D02*
X81915000Y-80010000D01*
X86461600Y-73101200D02*
X82677000Y-73101200D01*
X86461600Y-80568800D02*
X86461600Y-73101200D01*
X82677000Y-80568800D02*
X86461600Y-80568800D01*
X86410800Y-76835000D02*
G75*
G03*
X86410800Y-76835000I-3733800J0D01*
G01*
D13*
X81915000Y-75565000D02*
G75*
G03*
X81915000Y-75565000I-1270000J0D01*
G01*
X81915000Y-78105000D02*
G75*
G03*
X81915000Y-78105000I-1270000J0D01*
G01*
D11*
X96113600Y-80568800D02*
X96113600Y-73101200D01*
X96113600Y-80568800D02*
X86461600Y-80568800D01*
X96113600Y-73101200D02*
X86461600Y-73101200D01*
X93573600Y-80568800D02*
X93573600Y-73101200D01*
X88493600Y-80568800D02*
X88493600Y-73101200D01*
%TO.C,S5*%
X82550000Y-66675000D02*
X81534000Y-67056000D01*
X81915000Y-66040000D02*
X82550000Y-66675000D01*
X81534000Y-67056000D02*
X81915000Y-66040000D01*
X82550000Y-71755000D02*
X81534000Y-71374000D01*
X81915000Y-72390000D02*
X82550000Y-71755000D01*
X81534000Y-71374000D02*
X81915000Y-72390000D01*
X86461600Y-65481200D02*
X82677000Y-65481200D01*
X86461600Y-72948800D02*
X86461600Y-65481200D01*
X82677000Y-72948800D02*
X86461600Y-72948800D01*
X86410800Y-69215000D02*
G75*
G03*
X86410800Y-69215000I-3733800J0D01*
G01*
D13*
X81915000Y-67945000D02*
G75*
G03*
X81915000Y-67945000I-1270000J0D01*
G01*
X81915000Y-70485000D02*
G75*
G03*
X81915000Y-70485000I-1270000J0D01*
G01*
D11*
X96113600Y-72948800D02*
X96113600Y-65481200D01*
X96113600Y-72948800D02*
X86461600Y-72948800D01*
X96113600Y-65481200D02*
X86461600Y-65481200D01*
X93573600Y-72948800D02*
X93573600Y-65481200D01*
X88493600Y-72948800D02*
X88493600Y-65481200D01*
%TO.C,S6*%
X82550000Y-59055000D02*
X81534000Y-59436000D01*
X81915000Y-58420000D02*
X82550000Y-59055000D01*
X81534000Y-59436000D02*
X81915000Y-58420000D01*
X82550000Y-64135000D02*
X81534000Y-63754000D01*
X81915000Y-64770000D02*
X82550000Y-64135000D01*
X81534000Y-63754000D02*
X81915000Y-64770000D01*
X86461600Y-57861200D02*
X82677000Y-57861200D01*
X86461600Y-65328800D02*
X86461600Y-57861200D01*
X82677000Y-65328800D02*
X86461600Y-65328800D01*
X86410800Y-61595000D02*
G75*
G03*
X86410800Y-61595000I-3733800J0D01*
G01*
D13*
X81915000Y-60325000D02*
G75*
G03*
X81915000Y-60325000I-1270000J0D01*
G01*
X81915000Y-62865000D02*
G75*
G03*
X81915000Y-62865000I-1270000J0D01*
G01*
D11*
X96113600Y-65328800D02*
X96113600Y-57861200D01*
X96113600Y-65328800D02*
X86461600Y-65328800D01*
X96113600Y-57861200D02*
X86461600Y-57861200D01*
X93573600Y-65328800D02*
X93573600Y-57861200D01*
X88493600Y-65328800D02*
X88493600Y-57861200D01*
%TO.C,S7*%
X110490000Y-74295000D02*
X109474000Y-74676000D01*
X109855000Y-73660000D02*
X110490000Y-74295000D01*
X109474000Y-74676000D02*
X109855000Y-73660000D01*
X110490000Y-79375000D02*
X109474000Y-78994000D01*
X109855000Y-80010000D02*
X110490000Y-79375000D01*
X109474000Y-78994000D02*
X109855000Y-80010000D01*
X114401600Y-73101200D02*
X110617000Y-73101200D01*
X114401600Y-80568800D02*
X114401600Y-73101200D01*
X110617000Y-80568800D02*
X114401600Y-80568800D01*
X114350800Y-76835000D02*
G75*
G03*
X114350800Y-76835000I-3733800J0D01*
G01*
D13*
X109855000Y-75565000D02*
G75*
G03*
X109855000Y-75565000I-1270000J0D01*
G01*
X109855000Y-78105000D02*
G75*
G03*
X109855000Y-78105000I-1270000J0D01*
G01*
D11*
X124053600Y-80568800D02*
X124053600Y-73101200D01*
X124053600Y-80568800D02*
X114401600Y-80568800D01*
X124053600Y-73101200D02*
X114401600Y-73101200D01*
X121513600Y-80568800D02*
X121513600Y-73101200D01*
X116433600Y-80568800D02*
X116433600Y-73101200D01*
%TO.C,S8*%
X110490000Y-66675000D02*
X109474000Y-67056000D01*
X109855000Y-66040000D02*
X110490000Y-66675000D01*
X109474000Y-67056000D02*
X109855000Y-66040000D01*
X110490000Y-71755000D02*
X109474000Y-71374000D01*
X109855000Y-72390000D02*
X110490000Y-71755000D01*
X109474000Y-71374000D02*
X109855000Y-72390000D01*
X114401600Y-65481200D02*
X110617000Y-65481200D01*
X114401600Y-72948800D02*
X114401600Y-65481200D01*
X110617000Y-72948800D02*
X114401600Y-72948800D01*
X114350800Y-69215000D02*
G75*
G03*
X114350800Y-69215000I-3733800J0D01*
G01*
D13*
X109855000Y-67945000D02*
G75*
G03*
X109855000Y-67945000I-1270000J0D01*
G01*
X109855000Y-70485000D02*
G75*
G03*
X109855000Y-70485000I-1270000J0D01*
G01*
D11*
X124053600Y-72948800D02*
X124053600Y-65481200D01*
X124053600Y-72948800D02*
X114401600Y-72948800D01*
X124053600Y-65481200D02*
X114401600Y-65481200D01*
X121513600Y-72948800D02*
X121513600Y-65481200D01*
X116433600Y-72948800D02*
X116433600Y-65481200D01*
%TO.C,S9*%
X110490000Y-59055000D02*
X109474000Y-59436000D01*
X109855000Y-58420000D02*
X110490000Y-59055000D01*
X109474000Y-59436000D02*
X109855000Y-58420000D01*
X110490000Y-64135000D02*
X109474000Y-63754000D01*
X109855000Y-64770000D02*
X110490000Y-64135000D01*
X109474000Y-63754000D02*
X109855000Y-64770000D01*
X114401600Y-57861200D02*
X110617000Y-57861200D01*
X114401600Y-65328800D02*
X114401600Y-57861200D01*
X110617000Y-65328800D02*
X114401600Y-65328800D01*
X114350800Y-61595000D02*
G75*
G03*
X114350800Y-61595000I-3733800J0D01*
G01*
D13*
X109855000Y-60325000D02*
G75*
G03*
X109855000Y-60325000I-1270000J0D01*
G01*
X109855000Y-62865000D02*
G75*
G03*
X109855000Y-62865000I-1270000J0D01*
G01*
D11*
X124053600Y-65328800D02*
X124053600Y-57861200D01*
X124053600Y-65328800D02*
X114401600Y-65328800D01*
X124053600Y-57861200D02*
X114401600Y-57861200D01*
X121513600Y-65328800D02*
X121513600Y-57861200D01*
X116433600Y-65328800D02*
X116433600Y-57861200D01*
D14*
%TO.C,TEENSY1*%
X103505000Y-119380000D02*
X113665000Y-119380000D01*
X103505000Y-109220000D02*
X103505000Y-119380000D01*
X113665000Y-109220000D02*
X103505000Y-109220000D01*
X113665000Y-119380000D02*
X113665000Y-109220000D01*
X114935000Y-128270000D02*
X114935000Y-130810000D01*
X117475000Y-128270000D02*
X114935000Y-128270000D01*
X102235000Y-96520000D02*
G75*
G03*
X102235000Y-96520000I-1270000J0D01*
G01*
X102235000Y-99060000D02*
G75*
G03*
X102235000Y-99060000I-1270000J0D01*
G01*
X102235000Y-101600000D02*
G75*
G03*
X102235000Y-101600000I-1270000J0D01*
G01*
X102235000Y-104140000D02*
G75*
G03*
X102235000Y-104140000I-1270000J0D01*
G01*
X102235000Y-106680000D02*
G75*
G03*
X102235000Y-106680000I-1270000J0D01*
G01*
X102235000Y-109220000D02*
G75*
G03*
X102235000Y-109220000I-1270000J0D01*
G01*
X102235000Y-111760000D02*
G75*
G03*
X102235000Y-111760000I-1270000J0D01*
G01*
X102235000Y-114300000D02*
G75*
G03*
X102235000Y-114300000I-1270000J0D01*
G01*
X102235000Y-116840000D02*
G75*
G03*
X102235000Y-116840000I-1270000J0D01*
G01*
X102235000Y-119380000D02*
G75*
G03*
X102235000Y-119380000I-1270000J0D01*
G01*
X102235000Y-121920000D02*
G75*
G03*
X102235000Y-121920000I-1270000J0D01*
G01*
X102235000Y-124460000D02*
G75*
G03*
X102235000Y-124460000I-1270000J0D01*
G01*
X102235000Y-127000000D02*
G75*
G03*
X102235000Y-127000000I-1270000J0D01*
G01*
X102235000Y-129540000D02*
G75*
G03*
X102235000Y-129540000I-1270000J0D01*
G01*
X117475000Y-96520000D02*
G75*
G03*
X117475000Y-96520000I-1270000J0D01*
G01*
X117475000Y-99060000D02*
G75*
G03*
X117475000Y-99060000I-1270000J0D01*
G01*
X117475000Y-101600000D02*
G75*
G03*
X117475000Y-101600000I-1270000J0D01*
G01*
X117475000Y-104140000D02*
G75*
G03*
X117475000Y-104140000I-1270000J0D01*
G01*
X117475000Y-106680000D02*
G75*
G03*
X117475000Y-106680000I-1270000J0D01*
G01*
X117475000Y-109220000D02*
G75*
G03*
X117475000Y-109220000I-1270000J0D01*
G01*
X117475000Y-111760000D02*
G75*
G03*
X117475000Y-111760000I-1270000J0D01*
G01*
X117475000Y-114300000D02*
G75*
G03*
X117475000Y-114300000I-1270000J0D01*
G01*
X117475000Y-116840000D02*
G75*
G03*
X117475000Y-116840000I-1270000J0D01*
G01*
X117475000Y-119380000D02*
G75*
G03*
X117475000Y-119380000I-1270000J0D01*
G01*
X117475000Y-121920000D02*
G75*
G03*
X117475000Y-121920000I-1270000J0D01*
G01*
X117475000Y-124460000D02*
G75*
G03*
X117475000Y-124460000I-1270000J0D01*
G01*
X117475000Y-127000000D02*
G75*
G03*
X117475000Y-127000000I-1270000J0D01*
G01*
D15*
X109855000Y-100330000D02*
G75*
G03*
X109855000Y-100330000I-1270000J0D01*
G01*
X107315000Y-97790000D02*
X107315000Y-102870000D01*
X107315000Y-102870000D02*
X109855000Y-102870000D01*
X109855000Y-102870000D02*
X109855000Y-97790000D01*
X109855000Y-97790000D02*
X107315000Y-97790000D01*
X112395000Y-130810000D02*
X112395000Y-132080000D01*
X112395000Y-132080000D02*
X104775000Y-132080000D01*
X104775000Y-132080000D02*
X104775000Y-130810000D01*
X117475000Y-130810000D02*
X117475000Y-95250000D01*
X117475000Y-95250000D02*
X99695000Y-95250000D01*
X99695000Y-95250000D02*
X99695000Y-130810000D01*
X99695000Y-130810000D02*
X117475000Y-130810000D01*
%TO.C,SW1*%
X93345000Y-119940000D02*
X83185000Y-119940000D01*
X93345000Y-119940000D02*
X93345000Y-131040000D01*
X93345000Y-131040000D02*
X83185000Y-131040000D01*
X83185000Y-119940000D02*
X83185000Y-131040000D01*
D11*
X85471000Y-131064000D02*
X85471000Y-134112000D01*
X85471000Y-134112000D02*
X88011000Y-134112000D01*
X88011000Y-134112000D02*
X88011000Y-131064000D01*
X88900000Y-123190000D02*
G75*
G03*
X88900000Y-123190000I-635000J0D01*
G01*
X85725000Y-126365000D02*
G75*
G03*
X85725000Y-126365000I-635000J0D01*
G01*
X92075000Y-126365000D02*
G75*
G03*
X92075000Y-126365000I-635000J0D01*
G01*
X85725000Y-125730000D02*
X87630000Y-123825000D01*
D15*
%TO.C,P1*%
X65195000Y-130175000D02*
X65195000Y-121025000D01*
X65195000Y-121025000D02*
X70695000Y-121025000D01*
X70695000Y-130175000D02*
X70695000Y-121025000D01*
X63445000Y-130175000D02*
X72445000Y-130175000D01*
X72445000Y-115675000D02*
X72445000Y-130175000D01*
X63445000Y-115675000D02*
X72445000Y-115675000D01*
X63445000Y-130175000D02*
X63445000Y-115675000D01*
D16*
%TO.C,L2*%
X83058000Y-113919000D02*
X83058000Y-114173000D01*
X83312000Y-113919000D02*
X83058000Y-113919000D01*
X83312000Y-114173000D02*
X83312000Y-113919000D01*
X83058000Y-114173000D02*
X83312000Y-114173000D01*
X82550000Y-114681000D02*
X83820000Y-114681000D01*
X83185000Y-114300000D02*
X83820000Y-114681000D01*
X82550000Y-114681000D02*
X83185000Y-114300000D01*
%TO.C,L3*%
X83058000Y-108839000D02*
X83058000Y-109093000D01*
X83312000Y-108839000D02*
X83058000Y-108839000D01*
X83312000Y-109093000D02*
X83312000Y-108839000D01*
X83058000Y-109093000D02*
X83312000Y-109093000D01*
X82550000Y-109601000D02*
X83820000Y-109601000D01*
X83185000Y-109220000D02*
X83820000Y-109601000D01*
X82550000Y-109601000D02*
X83185000Y-109220000D01*
%TO.C,L4*%
X83058000Y-103759000D02*
X83058000Y-104013000D01*
X83312000Y-103759000D02*
X83058000Y-103759000D01*
X83312000Y-104013000D02*
X83312000Y-103759000D01*
X83058000Y-104013000D02*
X83312000Y-104013000D01*
X82550000Y-104521000D02*
X83820000Y-104521000D01*
X83185000Y-104140000D02*
X83820000Y-104521000D01*
X82550000Y-104521000D02*
X83185000Y-104140000D01*
%TO.C,L5*%
X88138000Y-113919000D02*
X88138000Y-114173000D01*
X88392000Y-113919000D02*
X88138000Y-113919000D01*
X88392000Y-114173000D02*
X88392000Y-113919000D01*
X88138000Y-114173000D02*
X88392000Y-114173000D01*
X87630000Y-114681000D02*
X88900000Y-114681000D01*
X88265000Y-114300000D02*
X88900000Y-114681000D01*
X87630000Y-114681000D02*
X88265000Y-114300000D01*
%TO.C,L6*%
X88138000Y-108839000D02*
X88138000Y-109093000D01*
X88392000Y-108839000D02*
X88138000Y-108839000D01*
X88392000Y-109093000D02*
X88392000Y-108839000D01*
X88138000Y-109093000D02*
X88392000Y-109093000D01*
X87630000Y-109601000D02*
X88900000Y-109601000D01*
X88265000Y-109220000D02*
X88900000Y-109601000D01*
X87630000Y-109601000D02*
X88265000Y-109220000D01*
%TO.C,L7*%
X88138000Y-103759000D02*
X88138000Y-104013000D01*
X88392000Y-103759000D02*
X88138000Y-103759000D01*
X88392000Y-104013000D02*
X88392000Y-103759000D01*
X88138000Y-104013000D02*
X88392000Y-104013000D01*
X87630000Y-104521000D02*
X88900000Y-104521000D01*
X88265000Y-104140000D02*
X88900000Y-104521000D01*
X87630000Y-104521000D02*
X88265000Y-104140000D01*
%TO.C,L8*%
X93218000Y-113919000D02*
X93218000Y-114173000D01*
X93472000Y-113919000D02*
X93218000Y-113919000D01*
X93472000Y-114173000D02*
X93472000Y-113919000D01*
X93218000Y-114173000D02*
X93472000Y-114173000D01*
X92710000Y-114681000D02*
X93980000Y-114681000D01*
X93345000Y-114300000D02*
X93980000Y-114681000D01*
X92710000Y-114681000D02*
X93345000Y-114300000D01*
%TO.C,L9*%
X93218000Y-108839000D02*
X93218000Y-109093000D01*
X93472000Y-108839000D02*
X93218000Y-108839000D01*
X93472000Y-109093000D02*
X93472000Y-108839000D01*
X93218000Y-109093000D02*
X93472000Y-109093000D01*
X92710000Y-109601000D02*
X93980000Y-109601000D01*
X93345000Y-109220000D02*
X93980000Y-109601000D01*
X92710000Y-109601000D02*
X93345000Y-109220000D01*
%TO.C,L10*%
X93218000Y-103759000D02*
X93218000Y-104013000D01*
X93472000Y-103759000D02*
X93218000Y-103759000D01*
X93472000Y-104013000D02*
X93472000Y-103759000D01*
X93218000Y-104013000D02*
X93472000Y-104013000D01*
X92710000Y-104521000D02*
X93980000Y-104521000D01*
X93345000Y-104140000D02*
X93980000Y-104521000D01*
X92710000Y-104521000D02*
X93345000Y-104140000D01*
%TO.C,L1*%
X78740000Y-126746000D02*
X79375000Y-126365000D01*
X79375000Y-126365000D02*
X80010000Y-126746000D01*
X78740000Y-126746000D02*
X80010000Y-126746000D01*
X79248000Y-126238000D02*
X79502000Y-126238000D01*
X79502000Y-126238000D02*
X79502000Y-125984000D01*
X79502000Y-125984000D02*
X79248000Y-125984000D01*
X79248000Y-125984000D02*
X79248000Y-126238000D01*
D14*
%TO.C,C1*%
X62611000Y-108839000D02*
X62611000Y-107950000D01*
X64389000Y-108839000D02*
X62611000Y-108839000D01*
X64389000Y-107950000D02*
X64389000Y-108839000D01*
X62611000Y-105791000D02*
X62611000Y-106680000D01*
X64389000Y-105791000D02*
X62611000Y-105791000D01*
X64389000Y-106680000D02*
X64389000Y-105791000D01*
D17*
%TO.C,D1*%
X70245000Y-103565000D02*
X70245000Y-111065000D01*
X65645000Y-103565000D02*
X70245000Y-103565000D01*
X65645000Y-111065000D02*
X65645000Y-103565000D01*
X70245000Y-111065000D02*
X65645000Y-111065000D01*
%TO.C,S1*%
D10*
X60101238Y-77609095D02*
X60149619Y-77463952D01*
X60149619Y-77222047D01*
X60101238Y-77125285D01*
X60052857Y-77076904D01*
X59956095Y-77028523D01*
X59859333Y-77028523D01*
X59762571Y-77076904D01*
X59714190Y-77125285D01*
X59665809Y-77222047D01*
X59617428Y-77415571D01*
X59569047Y-77512333D01*
X59520666Y-77560714D01*
X59423904Y-77609095D01*
X59327142Y-77609095D01*
X59230380Y-77560714D01*
X59182000Y-77512333D01*
X59133619Y-77415571D01*
X59133619Y-77173666D01*
X59182000Y-77028523D01*
X60149619Y-76060904D02*
X60149619Y-76641476D01*
X60149619Y-76351190D02*
X59133619Y-76351190D01*
X59278761Y-76447952D01*
X59375523Y-76544714D01*
X59423904Y-76641476D01*
D18*
X64080571Y-79810428D02*
X64080571Y-80064428D01*
X64479714Y-80064428D02*
X63717714Y-80064428D01*
X63717714Y-79701571D01*
X64479714Y-79084714D02*
X64080571Y-79084714D01*
X64008000Y-79121000D01*
X63971714Y-79193571D01*
X63971714Y-79338714D01*
X64008000Y-79411285D01*
X64443428Y-79084714D02*
X64479714Y-79157285D01*
X64479714Y-79338714D01*
X64443428Y-79411285D01*
X64370857Y-79447571D01*
X64298285Y-79447571D01*
X64225714Y-79411285D01*
X64189428Y-79338714D01*
X64189428Y-79157285D01*
X64153142Y-79084714D01*
X64443428Y-78395285D02*
X64479714Y-78467857D01*
X64479714Y-78613000D01*
X64443428Y-78685571D01*
X64407142Y-78721857D01*
X64334571Y-78758142D01*
X64116857Y-78758142D01*
X64044285Y-78721857D01*
X64008000Y-78685571D01*
X63971714Y-78613000D01*
X63971714Y-78467857D01*
X64008000Y-78395285D01*
X64443428Y-77778428D02*
X64479714Y-77851000D01*
X64479714Y-77996142D01*
X64443428Y-78068714D01*
X64370857Y-78105000D01*
X64080571Y-78105000D01*
X64008000Y-78068714D01*
X63971714Y-77996142D01*
X63971714Y-77851000D01*
X64008000Y-77778428D01*
X64080571Y-77742142D01*
X64153142Y-77742142D01*
X64225714Y-78105000D01*
X64443428Y-77451857D02*
X64479714Y-77379285D01*
X64479714Y-77234142D01*
X64443428Y-77161571D01*
X64370857Y-77125285D01*
X64334571Y-77125285D01*
X64262000Y-77161571D01*
X64225714Y-77234142D01*
X64225714Y-77343000D01*
X64189428Y-77415571D01*
X64116857Y-77451857D01*
X64080571Y-77451857D01*
X64008000Y-77415571D01*
X63971714Y-77343000D01*
X63971714Y-77234142D01*
X64008000Y-77161571D01*
X63717714Y-76327000D02*
X64479714Y-76073000D01*
X63717714Y-75819000D01*
X64479714Y-75238428D02*
X64080571Y-75238428D01*
X64008000Y-75274714D01*
X63971714Y-75347285D01*
X63971714Y-75492428D01*
X64008000Y-75565000D01*
X64443428Y-75238428D02*
X64479714Y-75311000D01*
X64479714Y-75492428D01*
X64443428Y-75565000D01*
X64370857Y-75601285D01*
X64298285Y-75601285D01*
X64225714Y-75565000D01*
X64189428Y-75492428D01*
X64189428Y-75311000D01*
X64153142Y-75238428D01*
X64479714Y-74766714D02*
X64443428Y-74839285D01*
X64370857Y-74875571D01*
X63717714Y-74875571D01*
X63971714Y-74549000D02*
X64479714Y-74367571D01*
X63971714Y-74186142D01*
X64443428Y-73605571D02*
X64479714Y-73678142D01*
X64479714Y-73823285D01*
X64443428Y-73895857D01*
X64370857Y-73932142D01*
X64080571Y-73932142D01*
X64008000Y-73895857D01*
X63971714Y-73823285D01*
X63971714Y-73678142D01*
X64008000Y-73605571D01*
X64080571Y-73569285D01*
X64153142Y-73569285D01*
X64225714Y-73932142D01*
X62447714Y-79393142D02*
X62447714Y-78957714D01*
X63209714Y-79175428D02*
X62447714Y-79175428D01*
X63209714Y-78703714D02*
X62447714Y-78703714D01*
X63209714Y-78377142D02*
X62810571Y-78377142D01*
X62738000Y-78413428D01*
X62701714Y-78486000D01*
X62701714Y-78594857D01*
X62738000Y-78667428D01*
X62774285Y-78703714D01*
X63209714Y-78014285D02*
X62701714Y-78014285D01*
X62447714Y-78014285D02*
X62484000Y-78050571D01*
X62520285Y-78014285D01*
X62484000Y-77978000D01*
X62447714Y-78014285D01*
X62520285Y-78014285D01*
X63173428Y-77687714D02*
X63209714Y-77615142D01*
X63209714Y-77470000D01*
X63173428Y-77397428D01*
X63100857Y-77361142D01*
X63064571Y-77361142D01*
X62992000Y-77397428D01*
X62955714Y-77470000D01*
X62955714Y-77578857D01*
X62919428Y-77651428D01*
X62846857Y-77687714D01*
X62810571Y-77687714D01*
X62738000Y-77651428D01*
X62701714Y-77578857D01*
X62701714Y-77470000D01*
X62738000Y-77397428D01*
X63173428Y-76490285D02*
X63209714Y-76381428D01*
X63209714Y-76200000D01*
X63173428Y-76127428D01*
X63137142Y-76091142D01*
X63064571Y-76054857D01*
X62992000Y-76054857D01*
X62919428Y-76091142D01*
X62883142Y-76127428D01*
X62846857Y-76200000D01*
X62810571Y-76345142D01*
X62774285Y-76417714D01*
X62738000Y-76454000D01*
X62665428Y-76490285D01*
X62592857Y-76490285D01*
X62520285Y-76454000D01*
X62484000Y-76417714D01*
X62447714Y-76345142D01*
X62447714Y-76163714D01*
X62484000Y-76054857D01*
X63209714Y-75728285D02*
X62701714Y-75728285D01*
X62447714Y-75728285D02*
X62484000Y-75764571D01*
X62520285Y-75728285D01*
X62484000Y-75692000D01*
X62447714Y-75728285D01*
X62520285Y-75728285D01*
X63209714Y-75038857D02*
X62447714Y-75038857D01*
X63173428Y-75038857D02*
X63209714Y-75111428D01*
X63209714Y-75256571D01*
X63173428Y-75329142D01*
X63137142Y-75365428D01*
X63064571Y-75401714D01*
X62846857Y-75401714D01*
X62774285Y-75365428D01*
X62738000Y-75329142D01*
X62701714Y-75256571D01*
X62701714Y-75111428D01*
X62738000Y-75038857D01*
X63173428Y-74385714D02*
X63209714Y-74458285D01*
X63209714Y-74603428D01*
X63173428Y-74676000D01*
X63100857Y-74712285D01*
X62810571Y-74712285D01*
X62738000Y-74676000D01*
X62701714Y-74603428D01*
X62701714Y-74458285D01*
X62738000Y-74385714D01*
X62810571Y-74349428D01*
X62883142Y-74349428D01*
X62955714Y-74712285D01*
D19*
X56208990Y-78710971D02*
X56208990Y-78391657D01*
X56767790Y-78551314D02*
X56208990Y-78551314D01*
X56767790Y-78205390D02*
X56208990Y-78205390D01*
X56767790Y-77965904D02*
X56475085Y-77965904D01*
X56421866Y-77992514D01*
X56395257Y-78045733D01*
X56395257Y-78125561D01*
X56421866Y-78178780D01*
X56448476Y-78205390D01*
X56767790Y-77699809D02*
X56395257Y-77699809D01*
X56208990Y-77699809D02*
X56235600Y-77726419D01*
X56262209Y-77699809D01*
X56235600Y-77673200D01*
X56208990Y-77699809D01*
X56262209Y-77699809D01*
X56741180Y-77460323D02*
X56767790Y-77407104D01*
X56767790Y-77300666D01*
X56741180Y-77247447D01*
X56687961Y-77220838D01*
X56661352Y-77220838D01*
X56608133Y-77247447D01*
X56581523Y-77300666D01*
X56581523Y-77380495D01*
X56554914Y-77433714D01*
X56501695Y-77460323D01*
X56475085Y-77460323D01*
X56421866Y-77433714D01*
X56395257Y-77380495D01*
X56395257Y-77300666D01*
X56421866Y-77247447D01*
X56741180Y-76582209D02*
X56767790Y-76502380D01*
X56767790Y-76369333D01*
X56741180Y-76316114D01*
X56714571Y-76289504D01*
X56661352Y-76262895D01*
X56608133Y-76262895D01*
X56554914Y-76289504D01*
X56528304Y-76316114D01*
X56501695Y-76369333D01*
X56475085Y-76475771D01*
X56448476Y-76528990D01*
X56421866Y-76555600D01*
X56368647Y-76582209D01*
X56315428Y-76582209D01*
X56262209Y-76555600D01*
X56235600Y-76528990D01*
X56208990Y-76475771D01*
X56208990Y-76342723D01*
X56235600Y-76262895D01*
X56767790Y-76023409D02*
X56395257Y-76023409D01*
X56208990Y-76023409D02*
X56235600Y-76050019D01*
X56262209Y-76023409D01*
X56235600Y-75996800D01*
X56208990Y-76023409D01*
X56262209Y-76023409D01*
X56767790Y-75517828D02*
X56208990Y-75517828D01*
X56741180Y-75517828D02*
X56767790Y-75571047D01*
X56767790Y-75677485D01*
X56741180Y-75730704D01*
X56714571Y-75757314D01*
X56661352Y-75783923D01*
X56501695Y-75783923D01*
X56448476Y-75757314D01*
X56421866Y-75730704D01*
X56395257Y-75677485D01*
X56395257Y-75571047D01*
X56421866Y-75517828D01*
X56741180Y-75038857D02*
X56767790Y-75092076D01*
X56767790Y-75198514D01*
X56741180Y-75251733D01*
X56687961Y-75278342D01*
X56475085Y-75278342D01*
X56421866Y-75251733D01*
X56395257Y-75198514D01*
X56395257Y-75092076D01*
X56421866Y-75038857D01*
X56475085Y-75012247D01*
X56528304Y-75012247D01*
X56581523Y-75278342D01*
X55497790Y-80134580D02*
X54938990Y-80134580D01*
X55125257Y-79868485D02*
X55497790Y-79868485D01*
X55178476Y-79868485D02*
X55151866Y-79841876D01*
X55125257Y-79788657D01*
X55125257Y-79708828D01*
X55151866Y-79655609D01*
X55205085Y-79629000D01*
X55497790Y-79629000D01*
X55471180Y-79389514D02*
X55497790Y-79336295D01*
X55497790Y-79229857D01*
X55471180Y-79176638D01*
X55417961Y-79150028D01*
X55391352Y-79150028D01*
X55338133Y-79176638D01*
X55311523Y-79229857D01*
X55311523Y-79309685D01*
X55284914Y-79362904D01*
X55231695Y-79389514D01*
X55205085Y-79389514D01*
X55151866Y-79362904D01*
X55125257Y-79309685D01*
X55125257Y-79229857D01*
X55151866Y-79176638D01*
X55471180Y-78697666D02*
X55497790Y-78750885D01*
X55497790Y-78857323D01*
X55471180Y-78910542D01*
X55417961Y-78937152D01*
X55205085Y-78937152D01*
X55151866Y-78910542D01*
X55125257Y-78857323D01*
X55125257Y-78750885D01*
X55151866Y-78697666D01*
X55205085Y-78671057D01*
X55258304Y-78671057D01*
X55311523Y-78937152D01*
X55497790Y-78431571D02*
X55125257Y-78431571D01*
X55231695Y-78431571D02*
X55178476Y-78404961D01*
X55151866Y-78378352D01*
X55125257Y-78325133D01*
X55125257Y-78271914D01*
X55125257Y-78165476D02*
X55125257Y-77952600D01*
X54938990Y-78085647D02*
X55417961Y-78085647D01*
X55471180Y-78059038D01*
X55497790Y-78005819D01*
X55497790Y-77952600D01*
X55497790Y-77340580D02*
X54938990Y-77340580D01*
X54938990Y-77127704D01*
X54965600Y-77074485D01*
X54992209Y-77047876D01*
X55045428Y-77021266D01*
X55125257Y-77021266D01*
X55178476Y-77047876D01*
X55205085Y-77074485D01*
X55231695Y-77127704D01*
X55231695Y-77340580D01*
X55497790Y-76781780D02*
X55125257Y-76781780D01*
X54938990Y-76781780D02*
X54965600Y-76808390D01*
X54992209Y-76781780D01*
X54965600Y-76755171D01*
X54938990Y-76781780D01*
X54992209Y-76781780D01*
X55125257Y-76515685D02*
X55497790Y-76515685D01*
X55178476Y-76515685D02*
X55151866Y-76489076D01*
X55125257Y-76435857D01*
X55125257Y-76356028D01*
X55151866Y-76302809D01*
X55205085Y-76276200D01*
X55497790Y-76276200D01*
X55497790Y-75265038D02*
X55231695Y-75451304D01*
X55497790Y-75584352D02*
X54938990Y-75584352D01*
X54938990Y-75371476D01*
X54965600Y-75318257D01*
X54992209Y-75291647D01*
X55045428Y-75265038D01*
X55125257Y-75265038D01*
X55178476Y-75291647D01*
X55205085Y-75318257D01*
X55231695Y-75371476D01*
X55231695Y-75584352D01*
X55471180Y-74786066D02*
X55497790Y-74839285D01*
X55497790Y-74945723D01*
X55471180Y-74998942D01*
X55444571Y-75025552D01*
X55391352Y-75052161D01*
X55231695Y-75052161D01*
X55178476Y-75025552D01*
X55151866Y-74998942D01*
X55125257Y-74945723D01*
X55125257Y-74839285D01*
X55151866Y-74786066D01*
X55125257Y-74546580D02*
X55684057Y-74546580D01*
X55151866Y-74546580D02*
X55125257Y-74493361D01*
X55125257Y-74386923D01*
X55151866Y-74333704D01*
X55178476Y-74307095D01*
X55231695Y-74280485D01*
X55391352Y-74280485D01*
X55444571Y-74307095D01*
X55471180Y-74333704D01*
X55497790Y-74386923D01*
X55497790Y-74493361D01*
X55471180Y-74546580D01*
X55125257Y-74120828D02*
X55125257Y-73907952D01*
X54938990Y-74041000D02*
X55417961Y-74041000D01*
X55471180Y-74014390D01*
X55497790Y-73961171D01*
X55497790Y-73907952D01*
X55471180Y-73748295D02*
X55497790Y-73695076D01*
X55497790Y-73588638D01*
X55471180Y-73535419D01*
X55417961Y-73508809D01*
X55391352Y-73508809D01*
X55338133Y-73535419D01*
X55311523Y-73588638D01*
X55311523Y-73668466D01*
X55284914Y-73721685D01*
X55231695Y-73748295D01*
X55205085Y-73748295D01*
X55151866Y-73721685D01*
X55125257Y-73668466D01*
X55125257Y-73588638D01*
X55151866Y-73535419D01*
%TO.C,S2*%
D10*
X60101238Y-69989095D02*
X60149619Y-69843952D01*
X60149619Y-69602047D01*
X60101238Y-69505285D01*
X60052857Y-69456904D01*
X59956095Y-69408523D01*
X59859333Y-69408523D01*
X59762571Y-69456904D01*
X59714190Y-69505285D01*
X59665809Y-69602047D01*
X59617428Y-69795571D01*
X59569047Y-69892333D01*
X59520666Y-69940714D01*
X59423904Y-69989095D01*
X59327142Y-69989095D01*
X59230380Y-69940714D01*
X59182000Y-69892333D01*
X59133619Y-69795571D01*
X59133619Y-69553666D01*
X59182000Y-69408523D01*
X59230380Y-69021476D02*
X59182000Y-68973095D01*
X59133619Y-68876333D01*
X59133619Y-68634428D01*
X59182000Y-68537666D01*
X59230380Y-68489285D01*
X59327142Y-68440904D01*
X59423904Y-68440904D01*
X59569047Y-68489285D01*
X60149619Y-69069857D01*
X60149619Y-68440904D01*
D18*
X64080571Y-72190428D02*
X64080571Y-72444428D01*
X64479714Y-72444428D02*
X63717714Y-72444428D01*
X63717714Y-72081571D01*
X64479714Y-71464714D02*
X64080571Y-71464714D01*
X64008000Y-71501000D01*
X63971714Y-71573571D01*
X63971714Y-71718714D01*
X64008000Y-71791285D01*
X64443428Y-71464714D02*
X64479714Y-71537285D01*
X64479714Y-71718714D01*
X64443428Y-71791285D01*
X64370857Y-71827571D01*
X64298285Y-71827571D01*
X64225714Y-71791285D01*
X64189428Y-71718714D01*
X64189428Y-71537285D01*
X64153142Y-71464714D01*
X64443428Y-70775285D02*
X64479714Y-70847857D01*
X64479714Y-70993000D01*
X64443428Y-71065571D01*
X64407142Y-71101857D01*
X64334571Y-71138142D01*
X64116857Y-71138142D01*
X64044285Y-71101857D01*
X64008000Y-71065571D01*
X63971714Y-70993000D01*
X63971714Y-70847857D01*
X64008000Y-70775285D01*
X64443428Y-70158428D02*
X64479714Y-70231000D01*
X64479714Y-70376142D01*
X64443428Y-70448714D01*
X64370857Y-70485000D01*
X64080571Y-70485000D01*
X64008000Y-70448714D01*
X63971714Y-70376142D01*
X63971714Y-70231000D01*
X64008000Y-70158428D01*
X64080571Y-70122142D01*
X64153142Y-70122142D01*
X64225714Y-70485000D01*
X64443428Y-69831857D02*
X64479714Y-69759285D01*
X64479714Y-69614142D01*
X64443428Y-69541571D01*
X64370857Y-69505285D01*
X64334571Y-69505285D01*
X64262000Y-69541571D01*
X64225714Y-69614142D01*
X64225714Y-69723000D01*
X64189428Y-69795571D01*
X64116857Y-69831857D01*
X64080571Y-69831857D01*
X64008000Y-69795571D01*
X63971714Y-69723000D01*
X63971714Y-69614142D01*
X64008000Y-69541571D01*
X63717714Y-68707000D02*
X64479714Y-68453000D01*
X63717714Y-68199000D01*
X64479714Y-67618428D02*
X64080571Y-67618428D01*
X64008000Y-67654714D01*
X63971714Y-67727285D01*
X63971714Y-67872428D01*
X64008000Y-67945000D01*
X64443428Y-67618428D02*
X64479714Y-67691000D01*
X64479714Y-67872428D01*
X64443428Y-67945000D01*
X64370857Y-67981285D01*
X64298285Y-67981285D01*
X64225714Y-67945000D01*
X64189428Y-67872428D01*
X64189428Y-67691000D01*
X64153142Y-67618428D01*
X64479714Y-67146714D02*
X64443428Y-67219285D01*
X64370857Y-67255571D01*
X63717714Y-67255571D01*
X63971714Y-66929000D02*
X64479714Y-66747571D01*
X63971714Y-66566142D01*
X64443428Y-65985571D02*
X64479714Y-66058142D01*
X64479714Y-66203285D01*
X64443428Y-66275857D01*
X64370857Y-66312142D01*
X64080571Y-66312142D01*
X64008000Y-66275857D01*
X63971714Y-66203285D01*
X63971714Y-66058142D01*
X64008000Y-65985571D01*
X64080571Y-65949285D01*
X64153142Y-65949285D01*
X64225714Y-66312142D01*
X62447714Y-71773142D02*
X62447714Y-71337714D01*
X63209714Y-71555428D02*
X62447714Y-71555428D01*
X63209714Y-71083714D02*
X62447714Y-71083714D01*
X63209714Y-70757142D02*
X62810571Y-70757142D01*
X62738000Y-70793428D01*
X62701714Y-70866000D01*
X62701714Y-70974857D01*
X62738000Y-71047428D01*
X62774285Y-71083714D01*
X63209714Y-70394285D02*
X62701714Y-70394285D01*
X62447714Y-70394285D02*
X62484000Y-70430571D01*
X62520285Y-70394285D01*
X62484000Y-70358000D01*
X62447714Y-70394285D01*
X62520285Y-70394285D01*
X63173428Y-70067714D02*
X63209714Y-69995142D01*
X63209714Y-69850000D01*
X63173428Y-69777428D01*
X63100857Y-69741142D01*
X63064571Y-69741142D01*
X62992000Y-69777428D01*
X62955714Y-69850000D01*
X62955714Y-69958857D01*
X62919428Y-70031428D01*
X62846857Y-70067714D01*
X62810571Y-70067714D01*
X62738000Y-70031428D01*
X62701714Y-69958857D01*
X62701714Y-69850000D01*
X62738000Y-69777428D01*
X63173428Y-68870285D02*
X63209714Y-68761428D01*
X63209714Y-68580000D01*
X63173428Y-68507428D01*
X63137142Y-68471142D01*
X63064571Y-68434857D01*
X62992000Y-68434857D01*
X62919428Y-68471142D01*
X62883142Y-68507428D01*
X62846857Y-68580000D01*
X62810571Y-68725142D01*
X62774285Y-68797714D01*
X62738000Y-68834000D01*
X62665428Y-68870285D01*
X62592857Y-68870285D01*
X62520285Y-68834000D01*
X62484000Y-68797714D01*
X62447714Y-68725142D01*
X62447714Y-68543714D01*
X62484000Y-68434857D01*
X63209714Y-68108285D02*
X62701714Y-68108285D01*
X62447714Y-68108285D02*
X62484000Y-68144571D01*
X62520285Y-68108285D01*
X62484000Y-68072000D01*
X62447714Y-68108285D01*
X62520285Y-68108285D01*
X63209714Y-67418857D02*
X62447714Y-67418857D01*
X63173428Y-67418857D02*
X63209714Y-67491428D01*
X63209714Y-67636571D01*
X63173428Y-67709142D01*
X63137142Y-67745428D01*
X63064571Y-67781714D01*
X62846857Y-67781714D01*
X62774285Y-67745428D01*
X62738000Y-67709142D01*
X62701714Y-67636571D01*
X62701714Y-67491428D01*
X62738000Y-67418857D01*
X63173428Y-66765714D02*
X63209714Y-66838285D01*
X63209714Y-66983428D01*
X63173428Y-67056000D01*
X63100857Y-67092285D01*
X62810571Y-67092285D01*
X62738000Y-67056000D01*
X62701714Y-66983428D01*
X62701714Y-66838285D01*
X62738000Y-66765714D01*
X62810571Y-66729428D01*
X62883142Y-66729428D01*
X62955714Y-67092285D01*
D19*
X56208990Y-71090971D02*
X56208990Y-70771657D01*
X56767790Y-70931314D02*
X56208990Y-70931314D01*
X56767790Y-70585390D02*
X56208990Y-70585390D01*
X56767790Y-70345904D02*
X56475085Y-70345904D01*
X56421866Y-70372514D01*
X56395257Y-70425733D01*
X56395257Y-70505561D01*
X56421866Y-70558780D01*
X56448476Y-70585390D01*
X56767790Y-70079809D02*
X56395257Y-70079809D01*
X56208990Y-70079809D02*
X56235600Y-70106419D01*
X56262209Y-70079809D01*
X56235600Y-70053200D01*
X56208990Y-70079809D01*
X56262209Y-70079809D01*
X56741180Y-69840323D02*
X56767790Y-69787104D01*
X56767790Y-69680666D01*
X56741180Y-69627447D01*
X56687961Y-69600838D01*
X56661352Y-69600838D01*
X56608133Y-69627447D01*
X56581523Y-69680666D01*
X56581523Y-69760495D01*
X56554914Y-69813714D01*
X56501695Y-69840323D01*
X56475085Y-69840323D01*
X56421866Y-69813714D01*
X56395257Y-69760495D01*
X56395257Y-69680666D01*
X56421866Y-69627447D01*
X56741180Y-68962209D02*
X56767790Y-68882380D01*
X56767790Y-68749333D01*
X56741180Y-68696114D01*
X56714571Y-68669504D01*
X56661352Y-68642895D01*
X56608133Y-68642895D01*
X56554914Y-68669504D01*
X56528304Y-68696114D01*
X56501695Y-68749333D01*
X56475085Y-68855771D01*
X56448476Y-68908990D01*
X56421866Y-68935600D01*
X56368647Y-68962209D01*
X56315428Y-68962209D01*
X56262209Y-68935600D01*
X56235600Y-68908990D01*
X56208990Y-68855771D01*
X56208990Y-68722723D01*
X56235600Y-68642895D01*
X56767790Y-68403409D02*
X56395257Y-68403409D01*
X56208990Y-68403409D02*
X56235600Y-68430019D01*
X56262209Y-68403409D01*
X56235600Y-68376800D01*
X56208990Y-68403409D01*
X56262209Y-68403409D01*
X56767790Y-67897828D02*
X56208990Y-67897828D01*
X56741180Y-67897828D02*
X56767790Y-67951047D01*
X56767790Y-68057485D01*
X56741180Y-68110704D01*
X56714571Y-68137314D01*
X56661352Y-68163923D01*
X56501695Y-68163923D01*
X56448476Y-68137314D01*
X56421866Y-68110704D01*
X56395257Y-68057485D01*
X56395257Y-67951047D01*
X56421866Y-67897828D01*
X56741180Y-67418857D02*
X56767790Y-67472076D01*
X56767790Y-67578514D01*
X56741180Y-67631733D01*
X56687961Y-67658342D01*
X56475085Y-67658342D01*
X56421866Y-67631733D01*
X56395257Y-67578514D01*
X56395257Y-67472076D01*
X56421866Y-67418857D01*
X56475085Y-67392247D01*
X56528304Y-67392247D01*
X56581523Y-67658342D01*
X55497790Y-72514580D02*
X54938990Y-72514580D01*
X55125257Y-72248485D02*
X55497790Y-72248485D01*
X55178476Y-72248485D02*
X55151866Y-72221876D01*
X55125257Y-72168657D01*
X55125257Y-72088828D01*
X55151866Y-72035609D01*
X55205085Y-72009000D01*
X55497790Y-72009000D01*
X55471180Y-71769514D02*
X55497790Y-71716295D01*
X55497790Y-71609857D01*
X55471180Y-71556638D01*
X55417961Y-71530028D01*
X55391352Y-71530028D01*
X55338133Y-71556638D01*
X55311523Y-71609857D01*
X55311523Y-71689685D01*
X55284914Y-71742904D01*
X55231695Y-71769514D01*
X55205085Y-71769514D01*
X55151866Y-71742904D01*
X55125257Y-71689685D01*
X55125257Y-71609857D01*
X55151866Y-71556638D01*
X55471180Y-71077666D02*
X55497790Y-71130885D01*
X55497790Y-71237323D01*
X55471180Y-71290542D01*
X55417961Y-71317152D01*
X55205085Y-71317152D01*
X55151866Y-71290542D01*
X55125257Y-71237323D01*
X55125257Y-71130885D01*
X55151866Y-71077666D01*
X55205085Y-71051057D01*
X55258304Y-71051057D01*
X55311523Y-71317152D01*
X55497790Y-70811571D02*
X55125257Y-70811571D01*
X55231695Y-70811571D02*
X55178476Y-70784961D01*
X55151866Y-70758352D01*
X55125257Y-70705133D01*
X55125257Y-70651914D01*
X55125257Y-70545476D02*
X55125257Y-70332600D01*
X54938990Y-70465647D02*
X55417961Y-70465647D01*
X55471180Y-70439038D01*
X55497790Y-70385819D01*
X55497790Y-70332600D01*
X55497790Y-69720580D02*
X54938990Y-69720580D01*
X54938990Y-69507704D01*
X54965600Y-69454485D01*
X54992209Y-69427876D01*
X55045428Y-69401266D01*
X55125257Y-69401266D01*
X55178476Y-69427876D01*
X55205085Y-69454485D01*
X55231695Y-69507704D01*
X55231695Y-69720580D01*
X55497790Y-69161780D02*
X55125257Y-69161780D01*
X54938990Y-69161780D02*
X54965600Y-69188390D01*
X54992209Y-69161780D01*
X54965600Y-69135171D01*
X54938990Y-69161780D01*
X54992209Y-69161780D01*
X55125257Y-68895685D02*
X55497790Y-68895685D01*
X55178476Y-68895685D02*
X55151866Y-68869076D01*
X55125257Y-68815857D01*
X55125257Y-68736028D01*
X55151866Y-68682809D01*
X55205085Y-68656200D01*
X55497790Y-68656200D01*
X55497790Y-67645038D02*
X55231695Y-67831304D01*
X55497790Y-67964352D02*
X54938990Y-67964352D01*
X54938990Y-67751476D01*
X54965600Y-67698257D01*
X54992209Y-67671647D01*
X55045428Y-67645038D01*
X55125257Y-67645038D01*
X55178476Y-67671647D01*
X55205085Y-67698257D01*
X55231695Y-67751476D01*
X55231695Y-67964352D01*
X55471180Y-67166066D02*
X55497790Y-67219285D01*
X55497790Y-67325723D01*
X55471180Y-67378942D01*
X55444571Y-67405552D01*
X55391352Y-67432161D01*
X55231695Y-67432161D01*
X55178476Y-67405552D01*
X55151866Y-67378942D01*
X55125257Y-67325723D01*
X55125257Y-67219285D01*
X55151866Y-67166066D01*
X55125257Y-66926580D02*
X55684057Y-66926580D01*
X55151866Y-66926580D02*
X55125257Y-66873361D01*
X55125257Y-66766923D01*
X55151866Y-66713704D01*
X55178476Y-66687095D01*
X55231695Y-66660485D01*
X55391352Y-66660485D01*
X55444571Y-66687095D01*
X55471180Y-66713704D01*
X55497790Y-66766923D01*
X55497790Y-66873361D01*
X55471180Y-66926580D01*
X55125257Y-66500828D02*
X55125257Y-66287952D01*
X54938990Y-66421000D02*
X55417961Y-66421000D01*
X55471180Y-66394390D01*
X55497790Y-66341171D01*
X55497790Y-66287952D01*
X55471180Y-66128295D02*
X55497790Y-66075076D01*
X55497790Y-65968638D01*
X55471180Y-65915419D01*
X55417961Y-65888809D01*
X55391352Y-65888809D01*
X55338133Y-65915419D01*
X55311523Y-65968638D01*
X55311523Y-66048466D01*
X55284914Y-66101685D01*
X55231695Y-66128295D01*
X55205085Y-66128295D01*
X55151866Y-66101685D01*
X55125257Y-66048466D01*
X55125257Y-65968638D01*
X55151866Y-65915419D01*
%TO.C,S3*%
D10*
X60101238Y-62369095D02*
X60149619Y-62223952D01*
X60149619Y-61982047D01*
X60101238Y-61885285D01*
X60052857Y-61836904D01*
X59956095Y-61788523D01*
X59859333Y-61788523D01*
X59762571Y-61836904D01*
X59714190Y-61885285D01*
X59665809Y-61982047D01*
X59617428Y-62175571D01*
X59569047Y-62272333D01*
X59520666Y-62320714D01*
X59423904Y-62369095D01*
X59327142Y-62369095D01*
X59230380Y-62320714D01*
X59182000Y-62272333D01*
X59133619Y-62175571D01*
X59133619Y-61933666D01*
X59182000Y-61788523D01*
X59133619Y-61449857D02*
X59133619Y-60820904D01*
X59520666Y-61159571D01*
X59520666Y-61014428D01*
X59569047Y-60917666D01*
X59617428Y-60869285D01*
X59714190Y-60820904D01*
X59956095Y-60820904D01*
X60052857Y-60869285D01*
X60101238Y-60917666D01*
X60149619Y-61014428D01*
X60149619Y-61304714D01*
X60101238Y-61401476D01*
X60052857Y-61449857D01*
D18*
X64080571Y-64570428D02*
X64080571Y-64824428D01*
X64479714Y-64824428D02*
X63717714Y-64824428D01*
X63717714Y-64461571D01*
X64479714Y-63844714D02*
X64080571Y-63844714D01*
X64008000Y-63881000D01*
X63971714Y-63953571D01*
X63971714Y-64098714D01*
X64008000Y-64171285D01*
X64443428Y-63844714D02*
X64479714Y-63917285D01*
X64479714Y-64098714D01*
X64443428Y-64171285D01*
X64370857Y-64207571D01*
X64298285Y-64207571D01*
X64225714Y-64171285D01*
X64189428Y-64098714D01*
X64189428Y-63917285D01*
X64153142Y-63844714D01*
X64443428Y-63155285D02*
X64479714Y-63227857D01*
X64479714Y-63373000D01*
X64443428Y-63445571D01*
X64407142Y-63481857D01*
X64334571Y-63518142D01*
X64116857Y-63518142D01*
X64044285Y-63481857D01*
X64008000Y-63445571D01*
X63971714Y-63373000D01*
X63971714Y-63227857D01*
X64008000Y-63155285D01*
X64443428Y-62538428D02*
X64479714Y-62611000D01*
X64479714Y-62756142D01*
X64443428Y-62828714D01*
X64370857Y-62865000D01*
X64080571Y-62865000D01*
X64008000Y-62828714D01*
X63971714Y-62756142D01*
X63971714Y-62611000D01*
X64008000Y-62538428D01*
X64080571Y-62502142D01*
X64153142Y-62502142D01*
X64225714Y-62865000D01*
X64443428Y-62211857D02*
X64479714Y-62139285D01*
X64479714Y-61994142D01*
X64443428Y-61921571D01*
X64370857Y-61885285D01*
X64334571Y-61885285D01*
X64262000Y-61921571D01*
X64225714Y-61994142D01*
X64225714Y-62103000D01*
X64189428Y-62175571D01*
X64116857Y-62211857D01*
X64080571Y-62211857D01*
X64008000Y-62175571D01*
X63971714Y-62103000D01*
X63971714Y-61994142D01*
X64008000Y-61921571D01*
X63717714Y-61087000D02*
X64479714Y-60833000D01*
X63717714Y-60579000D01*
X64479714Y-59998428D02*
X64080571Y-59998428D01*
X64008000Y-60034714D01*
X63971714Y-60107285D01*
X63971714Y-60252428D01*
X64008000Y-60325000D01*
X64443428Y-59998428D02*
X64479714Y-60071000D01*
X64479714Y-60252428D01*
X64443428Y-60325000D01*
X64370857Y-60361285D01*
X64298285Y-60361285D01*
X64225714Y-60325000D01*
X64189428Y-60252428D01*
X64189428Y-60071000D01*
X64153142Y-59998428D01*
X64479714Y-59526714D02*
X64443428Y-59599285D01*
X64370857Y-59635571D01*
X63717714Y-59635571D01*
X63971714Y-59309000D02*
X64479714Y-59127571D01*
X63971714Y-58946142D01*
X64443428Y-58365571D02*
X64479714Y-58438142D01*
X64479714Y-58583285D01*
X64443428Y-58655857D01*
X64370857Y-58692142D01*
X64080571Y-58692142D01*
X64008000Y-58655857D01*
X63971714Y-58583285D01*
X63971714Y-58438142D01*
X64008000Y-58365571D01*
X64080571Y-58329285D01*
X64153142Y-58329285D01*
X64225714Y-58692142D01*
X62447714Y-64153142D02*
X62447714Y-63717714D01*
X63209714Y-63935428D02*
X62447714Y-63935428D01*
X63209714Y-63463714D02*
X62447714Y-63463714D01*
X63209714Y-63137142D02*
X62810571Y-63137142D01*
X62738000Y-63173428D01*
X62701714Y-63246000D01*
X62701714Y-63354857D01*
X62738000Y-63427428D01*
X62774285Y-63463714D01*
X63209714Y-62774285D02*
X62701714Y-62774285D01*
X62447714Y-62774285D02*
X62484000Y-62810571D01*
X62520285Y-62774285D01*
X62484000Y-62738000D01*
X62447714Y-62774285D01*
X62520285Y-62774285D01*
X63173428Y-62447714D02*
X63209714Y-62375142D01*
X63209714Y-62230000D01*
X63173428Y-62157428D01*
X63100857Y-62121142D01*
X63064571Y-62121142D01*
X62992000Y-62157428D01*
X62955714Y-62230000D01*
X62955714Y-62338857D01*
X62919428Y-62411428D01*
X62846857Y-62447714D01*
X62810571Y-62447714D01*
X62738000Y-62411428D01*
X62701714Y-62338857D01*
X62701714Y-62230000D01*
X62738000Y-62157428D01*
X63173428Y-61250285D02*
X63209714Y-61141428D01*
X63209714Y-60960000D01*
X63173428Y-60887428D01*
X63137142Y-60851142D01*
X63064571Y-60814857D01*
X62992000Y-60814857D01*
X62919428Y-60851142D01*
X62883142Y-60887428D01*
X62846857Y-60960000D01*
X62810571Y-61105142D01*
X62774285Y-61177714D01*
X62738000Y-61214000D01*
X62665428Y-61250285D01*
X62592857Y-61250285D01*
X62520285Y-61214000D01*
X62484000Y-61177714D01*
X62447714Y-61105142D01*
X62447714Y-60923714D01*
X62484000Y-60814857D01*
X63209714Y-60488285D02*
X62701714Y-60488285D01*
X62447714Y-60488285D02*
X62484000Y-60524571D01*
X62520285Y-60488285D01*
X62484000Y-60452000D01*
X62447714Y-60488285D01*
X62520285Y-60488285D01*
X63209714Y-59798857D02*
X62447714Y-59798857D01*
X63173428Y-59798857D02*
X63209714Y-59871428D01*
X63209714Y-60016571D01*
X63173428Y-60089142D01*
X63137142Y-60125428D01*
X63064571Y-60161714D01*
X62846857Y-60161714D01*
X62774285Y-60125428D01*
X62738000Y-60089142D01*
X62701714Y-60016571D01*
X62701714Y-59871428D01*
X62738000Y-59798857D01*
X63173428Y-59145714D02*
X63209714Y-59218285D01*
X63209714Y-59363428D01*
X63173428Y-59436000D01*
X63100857Y-59472285D01*
X62810571Y-59472285D01*
X62738000Y-59436000D01*
X62701714Y-59363428D01*
X62701714Y-59218285D01*
X62738000Y-59145714D01*
X62810571Y-59109428D01*
X62883142Y-59109428D01*
X62955714Y-59472285D01*
D19*
X56208990Y-63470971D02*
X56208990Y-63151657D01*
X56767790Y-63311314D02*
X56208990Y-63311314D01*
X56767790Y-62965390D02*
X56208990Y-62965390D01*
X56767790Y-62725904D02*
X56475085Y-62725904D01*
X56421866Y-62752514D01*
X56395257Y-62805733D01*
X56395257Y-62885561D01*
X56421866Y-62938780D01*
X56448476Y-62965390D01*
X56767790Y-62459809D02*
X56395257Y-62459809D01*
X56208990Y-62459809D02*
X56235600Y-62486419D01*
X56262209Y-62459809D01*
X56235600Y-62433200D01*
X56208990Y-62459809D01*
X56262209Y-62459809D01*
X56741180Y-62220323D02*
X56767790Y-62167104D01*
X56767790Y-62060666D01*
X56741180Y-62007447D01*
X56687961Y-61980838D01*
X56661352Y-61980838D01*
X56608133Y-62007447D01*
X56581523Y-62060666D01*
X56581523Y-62140495D01*
X56554914Y-62193714D01*
X56501695Y-62220323D01*
X56475085Y-62220323D01*
X56421866Y-62193714D01*
X56395257Y-62140495D01*
X56395257Y-62060666D01*
X56421866Y-62007447D01*
X56741180Y-61342209D02*
X56767790Y-61262380D01*
X56767790Y-61129333D01*
X56741180Y-61076114D01*
X56714571Y-61049504D01*
X56661352Y-61022895D01*
X56608133Y-61022895D01*
X56554914Y-61049504D01*
X56528304Y-61076114D01*
X56501695Y-61129333D01*
X56475085Y-61235771D01*
X56448476Y-61288990D01*
X56421866Y-61315600D01*
X56368647Y-61342209D01*
X56315428Y-61342209D01*
X56262209Y-61315600D01*
X56235600Y-61288990D01*
X56208990Y-61235771D01*
X56208990Y-61102723D01*
X56235600Y-61022895D01*
X56767790Y-60783409D02*
X56395257Y-60783409D01*
X56208990Y-60783409D02*
X56235600Y-60810019D01*
X56262209Y-60783409D01*
X56235600Y-60756800D01*
X56208990Y-60783409D01*
X56262209Y-60783409D01*
X56767790Y-60277828D02*
X56208990Y-60277828D01*
X56741180Y-60277828D02*
X56767790Y-60331047D01*
X56767790Y-60437485D01*
X56741180Y-60490704D01*
X56714571Y-60517314D01*
X56661352Y-60543923D01*
X56501695Y-60543923D01*
X56448476Y-60517314D01*
X56421866Y-60490704D01*
X56395257Y-60437485D01*
X56395257Y-60331047D01*
X56421866Y-60277828D01*
X56741180Y-59798857D02*
X56767790Y-59852076D01*
X56767790Y-59958514D01*
X56741180Y-60011733D01*
X56687961Y-60038342D01*
X56475085Y-60038342D01*
X56421866Y-60011733D01*
X56395257Y-59958514D01*
X56395257Y-59852076D01*
X56421866Y-59798857D01*
X56475085Y-59772247D01*
X56528304Y-59772247D01*
X56581523Y-60038342D01*
X55497790Y-64894580D02*
X54938990Y-64894580D01*
X55125257Y-64628485D02*
X55497790Y-64628485D01*
X55178476Y-64628485D02*
X55151866Y-64601876D01*
X55125257Y-64548657D01*
X55125257Y-64468828D01*
X55151866Y-64415609D01*
X55205085Y-64389000D01*
X55497790Y-64389000D01*
X55471180Y-64149514D02*
X55497790Y-64096295D01*
X55497790Y-63989857D01*
X55471180Y-63936638D01*
X55417961Y-63910028D01*
X55391352Y-63910028D01*
X55338133Y-63936638D01*
X55311523Y-63989857D01*
X55311523Y-64069685D01*
X55284914Y-64122904D01*
X55231695Y-64149514D01*
X55205085Y-64149514D01*
X55151866Y-64122904D01*
X55125257Y-64069685D01*
X55125257Y-63989857D01*
X55151866Y-63936638D01*
X55471180Y-63457666D02*
X55497790Y-63510885D01*
X55497790Y-63617323D01*
X55471180Y-63670542D01*
X55417961Y-63697152D01*
X55205085Y-63697152D01*
X55151866Y-63670542D01*
X55125257Y-63617323D01*
X55125257Y-63510885D01*
X55151866Y-63457666D01*
X55205085Y-63431057D01*
X55258304Y-63431057D01*
X55311523Y-63697152D01*
X55497790Y-63191571D02*
X55125257Y-63191571D01*
X55231695Y-63191571D02*
X55178476Y-63164961D01*
X55151866Y-63138352D01*
X55125257Y-63085133D01*
X55125257Y-63031914D01*
X55125257Y-62925476D02*
X55125257Y-62712600D01*
X54938990Y-62845647D02*
X55417961Y-62845647D01*
X55471180Y-62819038D01*
X55497790Y-62765819D01*
X55497790Y-62712600D01*
X55497790Y-62100580D02*
X54938990Y-62100580D01*
X54938990Y-61887704D01*
X54965600Y-61834485D01*
X54992209Y-61807876D01*
X55045428Y-61781266D01*
X55125257Y-61781266D01*
X55178476Y-61807876D01*
X55205085Y-61834485D01*
X55231695Y-61887704D01*
X55231695Y-62100580D01*
X55497790Y-61541780D02*
X55125257Y-61541780D01*
X54938990Y-61541780D02*
X54965600Y-61568390D01*
X54992209Y-61541780D01*
X54965600Y-61515171D01*
X54938990Y-61541780D01*
X54992209Y-61541780D01*
X55125257Y-61275685D02*
X55497790Y-61275685D01*
X55178476Y-61275685D02*
X55151866Y-61249076D01*
X55125257Y-61195857D01*
X55125257Y-61116028D01*
X55151866Y-61062809D01*
X55205085Y-61036200D01*
X55497790Y-61036200D01*
X55497790Y-60025038D02*
X55231695Y-60211304D01*
X55497790Y-60344352D02*
X54938990Y-60344352D01*
X54938990Y-60131476D01*
X54965600Y-60078257D01*
X54992209Y-60051647D01*
X55045428Y-60025038D01*
X55125257Y-60025038D01*
X55178476Y-60051647D01*
X55205085Y-60078257D01*
X55231695Y-60131476D01*
X55231695Y-60344352D01*
X55471180Y-59546066D02*
X55497790Y-59599285D01*
X55497790Y-59705723D01*
X55471180Y-59758942D01*
X55444571Y-59785552D01*
X55391352Y-59812161D01*
X55231695Y-59812161D01*
X55178476Y-59785552D01*
X55151866Y-59758942D01*
X55125257Y-59705723D01*
X55125257Y-59599285D01*
X55151866Y-59546066D01*
X55125257Y-59306580D02*
X55684057Y-59306580D01*
X55151866Y-59306580D02*
X55125257Y-59253361D01*
X55125257Y-59146923D01*
X55151866Y-59093704D01*
X55178476Y-59067095D01*
X55231695Y-59040485D01*
X55391352Y-59040485D01*
X55444571Y-59067095D01*
X55471180Y-59093704D01*
X55497790Y-59146923D01*
X55497790Y-59253361D01*
X55471180Y-59306580D01*
X55125257Y-58880828D02*
X55125257Y-58667952D01*
X54938990Y-58801000D02*
X55417961Y-58801000D01*
X55471180Y-58774390D01*
X55497790Y-58721171D01*
X55497790Y-58667952D01*
X55471180Y-58508295D02*
X55497790Y-58455076D01*
X55497790Y-58348638D01*
X55471180Y-58295419D01*
X55417961Y-58268809D01*
X55391352Y-58268809D01*
X55338133Y-58295419D01*
X55311523Y-58348638D01*
X55311523Y-58428466D01*
X55284914Y-58481685D01*
X55231695Y-58508295D01*
X55205085Y-58508295D01*
X55151866Y-58481685D01*
X55125257Y-58428466D01*
X55125257Y-58348638D01*
X55151866Y-58295419D01*
%TO.C,S4*%
D10*
X88041238Y-77609095D02*
X88089619Y-77463952D01*
X88089619Y-77222047D01*
X88041238Y-77125285D01*
X87992857Y-77076904D01*
X87896095Y-77028523D01*
X87799333Y-77028523D01*
X87702571Y-77076904D01*
X87654190Y-77125285D01*
X87605809Y-77222047D01*
X87557428Y-77415571D01*
X87509047Y-77512333D01*
X87460666Y-77560714D01*
X87363904Y-77609095D01*
X87267142Y-77609095D01*
X87170380Y-77560714D01*
X87122000Y-77512333D01*
X87073619Y-77415571D01*
X87073619Y-77173666D01*
X87122000Y-77028523D01*
X87412285Y-76157666D02*
X88089619Y-76157666D01*
X87025238Y-76399571D02*
X87750952Y-76641476D01*
X87750952Y-76012523D01*
D18*
X92020571Y-79810428D02*
X92020571Y-80064428D01*
X92419714Y-80064428D02*
X91657714Y-80064428D01*
X91657714Y-79701571D01*
X92419714Y-79084714D02*
X92020571Y-79084714D01*
X91948000Y-79121000D01*
X91911714Y-79193571D01*
X91911714Y-79338714D01*
X91948000Y-79411285D01*
X92383428Y-79084714D02*
X92419714Y-79157285D01*
X92419714Y-79338714D01*
X92383428Y-79411285D01*
X92310857Y-79447571D01*
X92238285Y-79447571D01*
X92165714Y-79411285D01*
X92129428Y-79338714D01*
X92129428Y-79157285D01*
X92093142Y-79084714D01*
X92383428Y-78395285D02*
X92419714Y-78467857D01*
X92419714Y-78613000D01*
X92383428Y-78685571D01*
X92347142Y-78721857D01*
X92274571Y-78758142D01*
X92056857Y-78758142D01*
X91984285Y-78721857D01*
X91948000Y-78685571D01*
X91911714Y-78613000D01*
X91911714Y-78467857D01*
X91948000Y-78395285D01*
X92383428Y-77778428D02*
X92419714Y-77851000D01*
X92419714Y-77996142D01*
X92383428Y-78068714D01*
X92310857Y-78105000D01*
X92020571Y-78105000D01*
X91948000Y-78068714D01*
X91911714Y-77996142D01*
X91911714Y-77851000D01*
X91948000Y-77778428D01*
X92020571Y-77742142D01*
X92093142Y-77742142D01*
X92165714Y-78105000D01*
X92383428Y-77451857D02*
X92419714Y-77379285D01*
X92419714Y-77234142D01*
X92383428Y-77161571D01*
X92310857Y-77125285D01*
X92274571Y-77125285D01*
X92202000Y-77161571D01*
X92165714Y-77234142D01*
X92165714Y-77343000D01*
X92129428Y-77415571D01*
X92056857Y-77451857D01*
X92020571Y-77451857D01*
X91948000Y-77415571D01*
X91911714Y-77343000D01*
X91911714Y-77234142D01*
X91948000Y-77161571D01*
X91657714Y-76327000D02*
X92419714Y-76073000D01*
X91657714Y-75819000D01*
X92419714Y-75238428D02*
X92020571Y-75238428D01*
X91948000Y-75274714D01*
X91911714Y-75347285D01*
X91911714Y-75492428D01*
X91948000Y-75565000D01*
X92383428Y-75238428D02*
X92419714Y-75311000D01*
X92419714Y-75492428D01*
X92383428Y-75565000D01*
X92310857Y-75601285D01*
X92238285Y-75601285D01*
X92165714Y-75565000D01*
X92129428Y-75492428D01*
X92129428Y-75311000D01*
X92093142Y-75238428D01*
X92419714Y-74766714D02*
X92383428Y-74839285D01*
X92310857Y-74875571D01*
X91657714Y-74875571D01*
X91911714Y-74549000D02*
X92419714Y-74367571D01*
X91911714Y-74186142D01*
X92383428Y-73605571D02*
X92419714Y-73678142D01*
X92419714Y-73823285D01*
X92383428Y-73895857D01*
X92310857Y-73932142D01*
X92020571Y-73932142D01*
X91948000Y-73895857D01*
X91911714Y-73823285D01*
X91911714Y-73678142D01*
X91948000Y-73605571D01*
X92020571Y-73569285D01*
X92093142Y-73569285D01*
X92165714Y-73932142D01*
X90387714Y-79393142D02*
X90387714Y-78957714D01*
X91149714Y-79175428D02*
X90387714Y-79175428D01*
X91149714Y-78703714D02*
X90387714Y-78703714D01*
X91149714Y-78377142D02*
X90750571Y-78377142D01*
X90678000Y-78413428D01*
X90641714Y-78486000D01*
X90641714Y-78594857D01*
X90678000Y-78667428D01*
X90714285Y-78703714D01*
X91149714Y-78014285D02*
X90641714Y-78014285D01*
X90387714Y-78014285D02*
X90424000Y-78050571D01*
X90460285Y-78014285D01*
X90424000Y-77978000D01*
X90387714Y-78014285D01*
X90460285Y-78014285D01*
X91113428Y-77687714D02*
X91149714Y-77615142D01*
X91149714Y-77470000D01*
X91113428Y-77397428D01*
X91040857Y-77361142D01*
X91004571Y-77361142D01*
X90932000Y-77397428D01*
X90895714Y-77470000D01*
X90895714Y-77578857D01*
X90859428Y-77651428D01*
X90786857Y-77687714D01*
X90750571Y-77687714D01*
X90678000Y-77651428D01*
X90641714Y-77578857D01*
X90641714Y-77470000D01*
X90678000Y-77397428D01*
X91113428Y-76490285D02*
X91149714Y-76381428D01*
X91149714Y-76200000D01*
X91113428Y-76127428D01*
X91077142Y-76091142D01*
X91004571Y-76054857D01*
X90932000Y-76054857D01*
X90859428Y-76091142D01*
X90823142Y-76127428D01*
X90786857Y-76200000D01*
X90750571Y-76345142D01*
X90714285Y-76417714D01*
X90678000Y-76454000D01*
X90605428Y-76490285D01*
X90532857Y-76490285D01*
X90460285Y-76454000D01*
X90424000Y-76417714D01*
X90387714Y-76345142D01*
X90387714Y-76163714D01*
X90424000Y-76054857D01*
X91149714Y-75728285D02*
X90641714Y-75728285D01*
X90387714Y-75728285D02*
X90424000Y-75764571D01*
X90460285Y-75728285D01*
X90424000Y-75692000D01*
X90387714Y-75728285D01*
X90460285Y-75728285D01*
X91149714Y-75038857D02*
X90387714Y-75038857D01*
X91113428Y-75038857D02*
X91149714Y-75111428D01*
X91149714Y-75256571D01*
X91113428Y-75329142D01*
X91077142Y-75365428D01*
X91004571Y-75401714D01*
X90786857Y-75401714D01*
X90714285Y-75365428D01*
X90678000Y-75329142D01*
X90641714Y-75256571D01*
X90641714Y-75111428D01*
X90678000Y-75038857D01*
X91113428Y-74385714D02*
X91149714Y-74458285D01*
X91149714Y-74603428D01*
X91113428Y-74676000D01*
X91040857Y-74712285D01*
X90750571Y-74712285D01*
X90678000Y-74676000D01*
X90641714Y-74603428D01*
X90641714Y-74458285D01*
X90678000Y-74385714D01*
X90750571Y-74349428D01*
X90823142Y-74349428D01*
X90895714Y-74712285D01*
D19*
X84148990Y-78710971D02*
X84148990Y-78391657D01*
X84707790Y-78551314D02*
X84148990Y-78551314D01*
X84707790Y-78205390D02*
X84148990Y-78205390D01*
X84707790Y-77965904D02*
X84415085Y-77965904D01*
X84361866Y-77992514D01*
X84335257Y-78045733D01*
X84335257Y-78125561D01*
X84361866Y-78178780D01*
X84388476Y-78205390D01*
X84707790Y-77699809D02*
X84335257Y-77699809D01*
X84148990Y-77699809D02*
X84175600Y-77726419D01*
X84202209Y-77699809D01*
X84175600Y-77673200D01*
X84148990Y-77699809D01*
X84202209Y-77699809D01*
X84681180Y-77460323D02*
X84707790Y-77407104D01*
X84707790Y-77300666D01*
X84681180Y-77247447D01*
X84627961Y-77220838D01*
X84601352Y-77220838D01*
X84548133Y-77247447D01*
X84521523Y-77300666D01*
X84521523Y-77380495D01*
X84494914Y-77433714D01*
X84441695Y-77460323D01*
X84415085Y-77460323D01*
X84361866Y-77433714D01*
X84335257Y-77380495D01*
X84335257Y-77300666D01*
X84361866Y-77247447D01*
X84681180Y-76582209D02*
X84707790Y-76502380D01*
X84707790Y-76369333D01*
X84681180Y-76316114D01*
X84654571Y-76289504D01*
X84601352Y-76262895D01*
X84548133Y-76262895D01*
X84494914Y-76289504D01*
X84468304Y-76316114D01*
X84441695Y-76369333D01*
X84415085Y-76475771D01*
X84388476Y-76528990D01*
X84361866Y-76555600D01*
X84308647Y-76582209D01*
X84255428Y-76582209D01*
X84202209Y-76555600D01*
X84175600Y-76528990D01*
X84148990Y-76475771D01*
X84148990Y-76342723D01*
X84175600Y-76262895D01*
X84707790Y-76023409D02*
X84335257Y-76023409D01*
X84148990Y-76023409D02*
X84175600Y-76050019D01*
X84202209Y-76023409D01*
X84175600Y-75996800D01*
X84148990Y-76023409D01*
X84202209Y-76023409D01*
X84707790Y-75517828D02*
X84148990Y-75517828D01*
X84681180Y-75517828D02*
X84707790Y-75571047D01*
X84707790Y-75677485D01*
X84681180Y-75730704D01*
X84654571Y-75757314D01*
X84601352Y-75783923D01*
X84441695Y-75783923D01*
X84388476Y-75757314D01*
X84361866Y-75730704D01*
X84335257Y-75677485D01*
X84335257Y-75571047D01*
X84361866Y-75517828D01*
X84681180Y-75038857D02*
X84707790Y-75092076D01*
X84707790Y-75198514D01*
X84681180Y-75251733D01*
X84627961Y-75278342D01*
X84415085Y-75278342D01*
X84361866Y-75251733D01*
X84335257Y-75198514D01*
X84335257Y-75092076D01*
X84361866Y-75038857D01*
X84415085Y-75012247D01*
X84468304Y-75012247D01*
X84521523Y-75278342D01*
X83437790Y-80134580D02*
X82878990Y-80134580D01*
X83065257Y-79868485D02*
X83437790Y-79868485D01*
X83118476Y-79868485D02*
X83091866Y-79841876D01*
X83065257Y-79788657D01*
X83065257Y-79708828D01*
X83091866Y-79655609D01*
X83145085Y-79629000D01*
X83437790Y-79629000D01*
X83411180Y-79389514D02*
X83437790Y-79336295D01*
X83437790Y-79229857D01*
X83411180Y-79176638D01*
X83357961Y-79150028D01*
X83331352Y-79150028D01*
X83278133Y-79176638D01*
X83251523Y-79229857D01*
X83251523Y-79309685D01*
X83224914Y-79362904D01*
X83171695Y-79389514D01*
X83145085Y-79389514D01*
X83091866Y-79362904D01*
X83065257Y-79309685D01*
X83065257Y-79229857D01*
X83091866Y-79176638D01*
X83411180Y-78697666D02*
X83437790Y-78750885D01*
X83437790Y-78857323D01*
X83411180Y-78910542D01*
X83357961Y-78937152D01*
X83145085Y-78937152D01*
X83091866Y-78910542D01*
X83065257Y-78857323D01*
X83065257Y-78750885D01*
X83091866Y-78697666D01*
X83145085Y-78671057D01*
X83198304Y-78671057D01*
X83251523Y-78937152D01*
X83437790Y-78431571D02*
X83065257Y-78431571D01*
X83171695Y-78431571D02*
X83118476Y-78404961D01*
X83091866Y-78378352D01*
X83065257Y-78325133D01*
X83065257Y-78271914D01*
X83065257Y-78165476D02*
X83065257Y-77952600D01*
X82878990Y-78085647D02*
X83357961Y-78085647D01*
X83411180Y-78059038D01*
X83437790Y-78005819D01*
X83437790Y-77952600D01*
X83437790Y-77340580D02*
X82878990Y-77340580D01*
X82878990Y-77127704D01*
X82905600Y-77074485D01*
X82932209Y-77047876D01*
X82985428Y-77021266D01*
X83065257Y-77021266D01*
X83118476Y-77047876D01*
X83145085Y-77074485D01*
X83171695Y-77127704D01*
X83171695Y-77340580D01*
X83437790Y-76781780D02*
X83065257Y-76781780D01*
X82878990Y-76781780D02*
X82905600Y-76808390D01*
X82932209Y-76781780D01*
X82905600Y-76755171D01*
X82878990Y-76781780D01*
X82932209Y-76781780D01*
X83065257Y-76515685D02*
X83437790Y-76515685D01*
X83118476Y-76515685D02*
X83091866Y-76489076D01*
X83065257Y-76435857D01*
X83065257Y-76356028D01*
X83091866Y-76302809D01*
X83145085Y-76276200D01*
X83437790Y-76276200D01*
X83437790Y-75265038D02*
X83171695Y-75451304D01*
X83437790Y-75584352D02*
X82878990Y-75584352D01*
X82878990Y-75371476D01*
X82905600Y-75318257D01*
X82932209Y-75291647D01*
X82985428Y-75265038D01*
X83065257Y-75265038D01*
X83118476Y-75291647D01*
X83145085Y-75318257D01*
X83171695Y-75371476D01*
X83171695Y-75584352D01*
X83411180Y-74786066D02*
X83437790Y-74839285D01*
X83437790Y-74945723D01*
X83411180Y-74998942D01*
X83384571Y-75025552D01*
X83331352Y-75052161D01*
X83171695Y-75052161D01*
X83118476Y-75025552D01*
X83091866Y-74998942D01*
X83065257Y-74945723D01*
X83065257Y-74839285D01*
X83091866Y-74786066D01*
X83065257Y-74546580D02*
X83624057Y-74546580D01*
X83091866Y-74546580D02*
X83065257Y-74493361D01*
X83065257Y-74386923D01*
X83091866Y-74333704D01*
X83118476Y-74307095D01*
X83171695Y-74280485D01*
X83331352Y-74280485D01*
X83384571Y-74307095D01*
X83411180Y-74333704D01*
X83437790Y-74386923D01*
X83437790Y-74493361D01*
X83411180Y-74546580D01*
X83065257Y-74120828D02*
X83065257Y-73907952D01*
X82878990Y-74041000D02*
X83357961Y-74041000D01*
X83411180Y-74014390D01*
X83437790Y-73961171D01*
X83437790Y-73907952D01*
X83411180Y-73748295D02*
X83437790Y-73695076D01*
X83437790Y-73588638D01*
X83411180Y-73535419D01*
X83357961Y-73508809D01*
X83331352Y-73508809D01*
X83278133Y-73535419D01*
X83251523Y-73588638D01*
X83251523Y-73668466D01*
X83224914Y-73721685D01*
X83171695Y-73748295D01*
X83145085Y-73748295D01*
X83091866Y-73721685D01*
X83065257Y-73668466D01*
X83065257Y-73588638D01*
X83091866Y-73535419D01*
%TO.C,S5*%
D10*
X88041238Y-69989095D02*
X88089619Y-69843952D01*
X88089619Y-69602047D01*
X88041238Y-69505285D01*
X87992857Y-69456904D01*
X87896095Y-69408523D01*
X87799333Y-69408523D01*
X87702571Y-69456904D01*
X87654190Y-69505285D01*
X87605809Y-69602047D01*
X87557428Y-69795571D01*
X87509047Y-69892333D01*
X87460666Y-69940714D01*
X87363904Y-69989095D01*
X87267142Y-69989095D01*
X87170380Y-69940714D01*
X87122000Y-69892333D01*
X87073619Y-69795571D01*
X87073619Y-69553666D01*
X87122000Y-69408523D01*
X87073619Y-68489285D02*
X87073619Y-68973095D01*
X87557428Y-69021476D01*
X87509047Y-68973095D01*
X87460666Y-68876333D01*
X87460666Y-68634428D01*
X87509047Y-68537666D01*
X87557428Y-68489285D01*
X87654190Y-68440904D01*
X87896095Y-68440904D01*
X87992857Y-68489285D01*
X88041238Y-68537666D01*
X88089619Y-68634428D01*
X88089619Y-68876333D01*
X88041238Y-68973095D01*
X87992857Y-69021476D01*
D18*
X92020571Y-72190428D02*
X92020571Y-72444428D01*
X92419714Y-72444428D02*
X91657714Y-72444428D01*
X91657714Y-72081571D01*
X92419714Y-71464714D02*
X92020571Y-71464714D01*
X91948000Y-71501000D01*
X91911714Y-71573571D01*
X91911714Y-71718714D01*
X91948000Y-71791285D01*
X92383428Y-71464714D02*
X92419714Y-71537285D01*
X92419714Y-71718714D01*
X92383428Y-71791285D01*
X92310857Y-71827571D01*
X92238285Y-71827571D01*
X92165714Y-71791285D01*
X92129428Y-71718714D01*
X92129428Y-71537285D01*
X92093142Y-71464714D01*
X92383428Y-70775285D02*
X92419714Y-70847857D01*
X92419714Y-70993000D01*
X92383428Y-71065571D01*
X92347142Y-71101857D01*
X92274571Y-71138142D01*
X92056857Y-71138142D01*
X91984285Y-71101857D01*
X91948000Y-71065571D01*
X91911714Y-70993000D01*
X91911714Y-70847857D01*
X91948000Y-70775285D01*
X92383428Y-70158428D02*
X92419714Y-70231000D01*
X92419714Y-70376142D01*
X92383428Y-70448714D01*
X92310857Y-70485000D01*
X92020571Y-70485000D01*
X91948000Y-70448714D01*
X91911714Y-70376142D01*
X91911714Y-70231000D01*
X91948000Y-70158428D01*
X92020571Y-70122142D01*
X92093142Y-70122142D01*
X92165714Y-70485000D01*
X92383428Y-69831857D02*
X92419714Y-69759285D01*
X92419714Y-69614142D01*
X92383428Y-69541571D01*
X92310857Y-69505285D01*
X92274571Y-69505285D01*
X92202000Y-69541571D01*
X92165714Y-69614142D01*
X92165714Y-69723000D01*
X92129428Y-69795571D01*
X92056857Y-69831857D01*
X92020571Y-69831857D01*
X91948000Y-69795571D01*
X91911714Y-69723000D01*
X91911714Y-69614142D01*
X91948000Y-69541571D01*
X91657714Y-68707000D02*
X92419714Y-68453000D01*
X91657714Y-68199000D01*
X92419714Y-67618428D02*
X92020571Y-67618428D01*
X91948000Y-67654714D01*
X91911714Y-67727285D01*
X91911714Y-67872428D01*
X91948000Y-67945000D01*
X92383428Y-67618428D02*
X92419714Y-67691000D01*
X92419714Y-67872428D01*
X92383428Y-67945000D01*
X92310857Y-67981285D01*
X92238285Y-67981285D01*
X92165714Y-67945000D01*
X92129428Y-67872428D01*
X92129428Y-67691000D01*
X92093142Y-67618428D01*
X92419714Y-67146714D02*
X92383428Y-67219285D01*
X92310857Y-67255571D01*
X91657714Y-67255571D01*
X91911714Y-66929000D02*
X92419714Y-66747571D01*
X91911714Y-66566142D01*
X92383428Y-65985571D02*
X92419714Y-66058142D01*
X92419714Y-66203285D01*
X92383428Y-66275857D01*
X92310857Y-66312142D01*
X92020571Y-66312142D01*
X91948000Y-66275857D01*
X91911714Y-66203285D01*
X91911714Y-66058142D01*
X91948000Y-65985571D01*
X92020571Y-65949285D01*
X92093142Y-65949285D01*
X92165714Y-66312142D01*
X90387714Y-71773142D02*
X90387714Y-71337714D01*
X91149714Y-71555428D02*
X90387714Y-71555428D01*
X91149714Y-71083714D02*
X90387714Y-71083714D01*
X91149714Y-70757142D02*
X90750571Y-70757142D01*
X90678000Y-70793428D01*
X90641714Y-70866000D01*
X90641714Y-70974857D01*
X90678000Y-71047428D01*
X90714285Y-71083714D01*
X91149714Y-70394285D02*
X90641714Y-70394285D01*
X90387714Y-70394285D02*
X90424000Y-70430571D01*
X90460285Y-70394285D01*
X90424000Y-70358000D01*
X90387714Y-70394285D01*
X90460285Y-70394285D01*
X91113428Y-70067714D02*
X91149714Y-69995142D01*
X91149714Y-69850000D01*
X91113428Y-69777428D01*
X91040857Y-69741142D01*
X91004571Y-69741142D01*
X90932000Y-69777428D01*
X90895714Y-69850000D01*
X90895714Y-69958857D01*
X90859428Y-70031428D01*
X90786857Y-70067714D01*
X90750571Y-70067714D01*
X90678000Y-70031428D01*
X90641714Y-69958857D01*
X90641714Y-69850000D01*
X90678000Y-69777428D01*
X91113428Y-68870285D02*
X91149714Y-68761428D01*
X91149714Y-68580000D01*
X91113428Y-68507428D01*
X91077142Y-68471142D01*
X91004571Y-68434857D01*
X90932000Y-68434857D01*
X90859428Y-68471142D01*
X90823142Y-68507428D01*
X90786857Y-68580000D01*
X90750571Y-68725142D01*
X90714285Y-68797714D01*
X90678000Y-68834000D01*
X90605428Y-68870285D01*
X90532857Y-68870285D01*
X90460285Y-68834000D01*
X90424000Y-68797714D01*
X90387714Y-68725142D01*
X90387714Y-68543714D01*
X90424000Y-68434857D01*
X91149714Y-68108285D02*
X90641714Y-68108285D01*
X90387714Y-68108285D02*
X90424000Y-68144571D01*
X90460285Y-68108285D01*
X90424000Y-68072000D01*
X90387714Y-68108285D01*
X90460285Y-68108285D01*
X91149714Y-67418857D02*
X90387714Y-67418857D01*
X91113428Y-67418857D02*
X91149714Y-67491428D01*
X91149714Y-67636571D01*
X91113428Y-67709142D01*
X91077142Y-67745428D01*
X91004571Y-67781714D01*
X90786857Y-67781714D01*
X90714285Y-67745428D01*
X90678000Y-67709142D01*
X90641714Y-67636571D01*
X90641714Y-67491428D01*
X90678000Y-67418857D01*
X91113428Y-66765714D02*
X91149714Y-66838285D01*
X91149714Y-66983428D01*
X91113428Y-67056000D01*
X91040857Y-67092285D01*
X90750571Y-67092285D01*
X90678000Y-67056000D01*
X90641714Y-66983428D01*
X90641714Y-66838285D01*
X90678000Y-66765714D01*
X90750571Y-66729428D01*
X90823142Y-66729428D01*
X90895714Y-67092285D01*
D19*
X84148990Y-71090971D02*
X84148990Y-70771657D01*
X84707790Y-70931314D02*
X84148990Y-70931314D01*
X84707790Y-70585390D02*
X84148990Y-70585390D01*
X84707790Y-70345904D02*
X84415085Y-70345904D01*
X84361866Y-70372514D01*
X84335257Y-70425733D01*
X84335257Y-70505561D01*
X84361866Y-70558780D01*
X84388476Y-70585390D01*
X84707790Y-70079809D02*
X84335257Y-70079809D01*
X84148990Y-70079809D02*
X84175600Y-70106419D01*
X84202209Y-70079809D01*
X84175600Y-70053200D01*
X84148990Y-70079809D01*
X84202209Y-70079809D01*
X84681180Y-69840323D02*
X84707790Y-69787104D01*
X84707790Y-69680666D01*
X84681180Y-69627447D01*
X84627961Y-69600838D01*
X84601352Y-69600838D01*
X84548133Y-69627447D01*
X84521523Y-69680666D01*
X84521523Y-69760495D01*
X84494914Y-69813714D01*
X84441695Y-69840323D01*
X84415085Y-69840323D01*
X84361866Y-69813714D01*
X84335257Y-69760495D01*
X84335257Y-69680666D01*
X84361866Y-69627447D01*
X84681180Y-68962209D02*
X84707790Y-68882380D01*
X84707790Y-68749333D01*
X84681180Y-68696114D01*
X84654571Y-68669504D01*
X84601352Y-68642895D01*
X84548133Y-68642895D01*
X84494914Y-68669504D01*
X84468304Y-68696114D01*
X84441695Y-68749333D01*
X84415085Y-68855771D01*
X84388476Y-68908990D01*
X84361866Y-68935600D01*
X84308647Y-68962209D01*
X84255428Y-68962209D01*
X84202209Y-68935600D01*
X84175600Y-68908990D01*
X84148990Y-68855771D01*
X84148990Y-68722723D01*
X84175600Y-68642895D01*
X84707790Y-68403409D02*
X84335257Y-68403409D01*
X84148990Y-68403409D02*
X84175600Y-68430019D01*
X84202209Y-68403409D01*
X84175600Y-68376800D01*
X84148990Y-68403409D01*
X84202209Y-68403409D01*
X84707790Y-67897828D02*
X84148990Y-67897828D01*
X84681180Y-67897828D02*
X84707790Y-67951047D01*
X84707790Y-68057485D01*
X84681180Y-68110704D01*
X84654571Y-68137314D01*
X84601352Y-68163923D01*
X84441695Y-68163923D01*
X84388476Y-68137314D01*
X84361866Y-68110704D01*
X84335257Y-68057485D01*
X84335257Y-67951047D01*
X84361866Y-67897828D01*
X84681180Y-67418857D02*
X84707790Y-67472076D01*
X84707790Y-67578514D01*
X84681180Y-67631733D01*
X84627961Y-67658342D01*
X84415085Y-67658342D01*
X84361866Y-67631733D01*
X84335257Y-67578514D01*
X84335257Y-67472076D01*
X84361866Y-67418857D01*
X84415085Y-67392247D01*
X84468304Y-67392247D01*
X84521523Y-67658342D01*
X83437790Y-72514580D02*
X82878990Y-72514580D01*
X83065257Y-72248485D02*
X83437790Y-72248485D01*
X83118476Y-72248485D02*
X83091866Y-72221876D01*
X83065257Y-72168657D01*
X83065257Y-72088828D01*
X83091866Y-72035609D01*
X83145085Y-72009000D01*
X83437790Y-72009000D01*
X83411180Y-71769514D02*
X83437790Y-71716295D01*
X83437790Y-71609857D01*
X83411180Y-71556638D01*
X83357961Y-71530028D01*
X83331352Y-71530028D01*
X83278133Y-71556638D01*
X83251523Y-71609857D01*
X83251523Y-71689685D01*
X83224914Y-71742904D01*
X83171695Y-71769514D01*
X83145085Y-71769514D01*
X83091866Y-71742904D01*
X83065257Y-71689685D01*
X83065257Y-71609857D01*
X83091866Y-71556638D01*
X83411180Y-71077666D02*
X83437790Y-71130885D01*
X83437790Y-71237323D01*
X83411180Y-71290542D01*
X83357961Y-71317152D01*
X83145085Y-71317152D01*
X83091866Y-71290542D01*
X83065257Y-71237323D01*
X83065257Y-71130885D01*
X83091866Y-71077666D01*
X83145085Y-71051057D01*
X83198304Y-71051057D01*
X83251523Y-71317152D01*
X83437790Y-70811571D02*
X83065257Y-70811571D01*
X83171695Y-70811571D02*
X83118476Y-70784961D01*
X83091866Y-70758352D01*
X83065257Y-70705133D01*
X83065257Y-70651914D01*
X83065257Y-70545476D02*
X83065257Y-70332600D01*
X82878990Y-70465647D02*
X83357961Y-70465647D01*
X83411180Y-70439038D01*
X83437790Y-70385819D01*
X83437790Y-70332600D01*
X83437790Y-69720580D02*
X82878990Y-69720580D01*
X82878990Y-69507704D01*
X82905600Y-69454485D01*
X82932209Y-69427876D01*
X82985428Y-69401266D01*
X83065257Y-69401266D01*
X83118476Y-69427876D01*
X83145085Y-69454485D01*
X83171695Y-69507704D01*
X83171695Y-69720580D01*
X83437790Y-69161780D02*
X83065257Y-69161780D01*
X82878990Y-69161780D02*
X82905600Y-69188390D01*
X82932209Y-69161780D01*
X82905600Y-69135171D01*
X82878990Y-69161780D01*
X82932209Y-69161780D01*
X83065257Y-68895685D02*
X83437790Y-68895685D01*
X83118476Y-68895685D02*
X83091866Y-68869076D01*
X83065257Y-68815857D01*
X83065257Y-68736028D01*
X83091866Y-68682809D01*
X83145085Y-68656200D01*
X83437790Y-68656200D01*
X83437790Y-67645038D02*
X83171695Y-67831304D01*
X83437790Y-67964352D02*
X82878990Y-67964352D01*
X82878990Y-67751476D01*
X82905600Y-67698257D01*
X82932209Y-67671647D01*
X82985428Y-67645038D01*
X83065257Y-67645038D01*
X83118476Y-67671647D01*
X83145085Y-67698257D01*
X83171695Y-67751476D01*
X83171695Y-67964352D01*
X83411180Y-67166066D02*
X83437790Y-67219285D01*
X83437790Y-67325723D01*
X83411180Y-67378942D01*
X83384571Y-67405552D01*
X83331352Y-67432161D01*
X83171695Y-67432161D01*
X83118476Y-67405552D01*
X83091866Y-67378942D01*
X83065257Y-67325723D01*
X83065257Y-67219285D01*
X83091866Y-67166066D01*
X83065257Y-66926580D02*
X83624057Y-66926580D01*
X83091866Y-66926580D02*
X83065257Y-66873361D01*
X83065257Y-66766923D01*
X83091866Y-66713704D01*
X83118476Y-66687095D01*
X83171695Y-66660485D01*
X83331352Y-66660485D01*
X83384571Y-66687095D01*
X83411180Y-66713704D01*
X83437790Y-66766923D01*
X83437790Y-66873361D01*
X83411180Y-66926580D01*
X83065257Y-66500828D02*
X83065257Y-66287952D01*
X82878990Y-66421000D02*
X83357961Y-66421000D01*
X83411180Y-66394390D01*
X83437790Y-66341171D01*
X83437790Y-66287952D01*
X83411180Y-66128295D02*
X83437790Y-66075076D01*
X83437790Y-65968638D01*
X83411180Y-65915419D01*
X83357961Y-65888809D01*
X83331352Y-65888809D01*
X83278133Y-65915419D01*
X83251523Y-65968638D01*
X83251523Y-66048466D01*
X83224914Y-66101685D01*
X83171695Y-66128295D01*
X83145085Y-66128295D01*
X83091866Y-66101685D01*
X83065257Y-66048466D01*
X83065257Y-65968638D01*
X83091866Y-65915419D01*
%TO.C,S6*%
D10*
X88041238Y-62369095D02*
X88089619Y-62223952D01*
X88089619Y-61982047D01*
X88041238Y-61885285D01*
X87992857Y-61836904D01*
X87896095Y-61788523D01*
X87799333Y-61788523D01*
X87702571Y-61836904D01*
X87654190Y-61885285D01*
X87605809Y-61982047D01*
X87557428Y-62175571D01*
X87509047Y-62272333D01*
X87460666Y-62320714D01*
X87363904Y-62369095D01*
X87267142Y-62369095D01*
X87170380Y-62320714D01*
X87122000Y-62272333D01*
X87073619Y-62175571D01*
X87073619Y-61933666D01*
X87122000Y-61788523D01*
X87073619Y-60917666D02*
X87073619Y-61111190D01*
X87122000Y-61207952D01*
X87170380Y-61256333D01*
X87315523Y-61353095D01*
X87509047Y-61401476D01*
X87896095Y-61401476D01*
X87992857Y-61353095D01*
X88041238Y-61304714D01*
X88089619Y-61207952D01*
X88089619Y-61014428D01*
X88041238Y-60917666D01*
X87992857Y-60869285D01*
X87896095Y-60820904D01*
X87654190Y-60820904D01*
X87557428Y-60869285D01*
X87509047Y-60917666D01*
X87460666Y-61014428D01*
X87460666Y-61207952D01*
X87509047Y-61304714D01*
X87557428Y-61353095D01*
X87654190Y-61401476D01*
D18*
X92020571Y-64570428D02*
X92020571Y-64824428D01*
X92419714Y-64824428D02*
X91657714Y-64824428D01*
X91657714Y-64461571D01*
X92419714Y-63844714D02*
X92020571Y-63844714D01*
X91948000Y-63881000D01*
X91911714Y-63953571D01*
X91911714Y-64098714D01*
X91948000Y-64171285D01*
X92383428Y-63844714D02*
X92419714Y-63917285D01*
X92419714Y-64098714D01*
X92383428Y-64171285D01*
X92310857Y-64207571D01*
X92238285Y-64207571D01*
X92165714Y-64171285D01*
X92129428Y-64098714D01*
X92129428Y-63917285D01*
X92093142Y-63844714D01*
X92383428Y-63155285D02*
X92419714Y-63227857D01*
X92419714Y-63373000D01*
X92383428Y-63445571D01*
X92347142Y-63481857D01*
X92274571Y-63518142D01*
X92056857Y-63518142D01*
X91984285Y-63481857D01*
X91948000Y-63445571D01*
X91911714Y-63373000D01*
X91911714Y-63227857D01*
X91948000Y-63155285D01*
X92383428Y-62538428D02*
X92419714Y-62611000D01*
X92419714Y-62756142D01*
X92383428Y-62828714D01*
X92310857Y-62865000D01*
X92020571Y-62865000D01*
X91948000Y-62828714D01*
X91911714Y-62756142D01*
X91911714Y-62611000D01*
X91948000Y-62538428D01*
X92020571Y-62502142D01*
X92093142Y-62502142D01*
X92165714Y-62865000D01*
X92383428Y-62211857D02*
X92419714Y-62139285D01*
X92419714Y-61994142D01*
X92383428Y-61921571D01*
X92310857Y-61885285D01*
X92274571Y-61885285D01*
X92202000Y-61921571D01*
X92165714Y-61994142D01*
X92165714Y-62103000D01*
X92129428Y-62175571D01*
X92056857Y-62211857D01*
X92020571Y-62211857D01*
X91948000Y-62175571D01*
X91911714Y-62103000D01*
X91911714Y-61994142D01*
X91948000Y-61921571D01*
X91657714Y-61087000D02*
X92419714Y-60833000D01*
X91657714Y-60579000D01*
X92419714Y-59998428D02*
X92020571Y-59998428D01*
X91948000Y-60034714D01*
X91911714Y-60107285D01*
X91911714Y-60252428D01*
X91948000Y-60325000D01*
X92383428Y-59998428D02*
X92419714Y-60071000D01*
X92419714Y-60252428D01*
X92383428Y-60325000D01*
X92310857Y-60361285D01*
X92238285Y-60361285D01*
X92165714Y-60325000D01*
X92129428Y-60252428D01*
X92129428Y-60071000D01*
X92093142Y-59998428D01*
X92419714Y-59526714D02*
X92383428Y-59599285D01*
X92310857Y-59635571D01*
X91657714Y-59635571D01*
X91911714Y-59309000D02*
X92419714Y-59127571D01*
X91911714Y-58946142D01*
X92383428Y-58365571D02*
X92419714Y-58438142D01*
X92419714Y-58583285D01*
X92383428Y-58655857D01*
X92310857Y-58692142D01*
X92020571Y-58692142D01*
X91948000Y-58655857D01*
X91911714Y-58583285D01*
X91911714Y-58438142D01*
X91948000Y-58365571D01*
X92020571Y-58329285D01*
X92093142Y-58329285D01*
X92165714Y-58692142D01*
X90387714Y-64153142D02*
X90387714Y-63717714D01*
X91149714Y-63935428D02*
X90387714Y-63935428D01*
X91149714Y-63463714D02*
X90387714Y-63463714D01*
X91149714Y-63137142D02*
X90750571Y-63137142D01*
X90678000Y-63173428D01*
X90641714Y-63246000D01*
X90641714Y-63354857D01*
X90678000Y-63427428D01*
X90714285Y-63463714D01*
X91149714Y-62774285D02*
X90641714Y-62774285D01*
X90387714Y-62774285D02*
X90424000Y-62810571D01*
X90460285Y-62774285D01*
X90424000Y-62738000D01*
X90387714Y-62774285D01*
X90460285Y-62774285D01*
X91113428Y-62447714D02*
X91149714Y-62375142D01*
X91149714Y-62230000D01*
X91113428Y-62157428D01*
X91040857Y-62121142D01*
X91004571Y-62121142D01*
X90932000Y-62157428D01*
X90895714Y-62230000D01*
X90895714Y-62338857D01*
X90859428Y-62411428D01*
X90786857Y-62447714D01*
X90750571Y-62447714D01*
X90678000Y-62411428D01*
X90641714Y-62338857D01*
X90641714Y-62230000D01*
X90678000Y-62157428D01*
X91113428Y-61250285D02*
X91149714Y-61141428D01*
X91149714Y-60960000D01*
X91113428Y-60887428D01*
X91077142Y-60851142D01*
X91004571Y-60814857D01*
X90932000Y-60814857D01*
X90859428Y-60851142D01*
X90823142Y-60887428D01*
X90786857Y-60960000D01*
X90750571Y-61105142D01*
X90714285Y-61177714D01*
X90678000Y-61214000D01*
X90605428Y-61250285D01*
X90532857Y-61250285D01*
X90460285Y-61214000D01*
X90424000Y-61177714D01*
X90387714Y-61105142D01*
X90387714Y-60923714D01*
X90424000Y-60814857D01*
X91149714Y-60488285D02*
X90641714Y-60488285D01*
X90387714Y-60488285D02*
X90424000Y-60524571D01*
X90460285Y-60488285D01*
X90424000Y-60452000D01*
X90387714Y-60488285D01*
X90460285Y-60488285D01*
X91149714Y-59798857D02*
X90387714Y-59798857D01*
X91113428Y-59798857D02*
X91149714Y-59871428D01*
X91149714Y-60016571D01*
X91113428Y-60089142D01*
X91077142Y-60125428D01*
X91004571Y-60161714D01*
X90786857Y-60161714D01*
X90714285Y-60125428D01*
X90678000Y-60089142D01*
X90641714Y-60016571D01*
X90641714Y-59871428D01*
X90678000Y-59798857D01*
X91113428Y-59145714D02*
X91149714Y-59218285D01*
X91149714Y-59363428D01*
X91113428Y-59436000D01*
X91040857Y-59472285D01*
X90750571Y-59472285D01*
X90678000Y-59436000D01*
X90641714Y-59363428D01*
X90641714Y-59218285D01*
X90678000Y-59145714D01*
X90750571Y-59109428D01*
X90823142Y-59109428D01*
X90895714Y-59472285D01*
D19*
X84148990Y-63470971D02*
X84148990Y-63151657D01*
X84707790Y-63311314D02*
X84148990Y-63311314D01*
X84707790Y-62965390D02*
X84148990Y-62965390D01*
X84707790Y-62725904D02*
X84415085Y-62725904D01*
X84361866Y-62752514D01*
X84335257Y-62805733D01*
X84335257Y-62885561D01*
X84361866Y-62938780D01*
X84388476Y-62965390D01*
X84707790Y-62459809D02*
X84335257Y-62459809D01*
X84148990Y-62459809D02*
X84175600Y-62486419D01*
X84202209Y-62459809D01*
X84175600Y-62433200D01*
X84148990Y-62459809D01*
X84202209Y-62459809D01*
X84681180Y-62220323D02*
X84707790Y-62167104D01*
X84707790Y-62060666D01*
X84681180Y-62007447D01*
X84627961Y-61980838D01*
X84601352Y-61980838D01*
X84548133Y-62007447D01*
X84521523Y-62060666D01*
X84521523Y-62140495D01*
X84494914Y-62193714D01*
X84441695Y-62220323D01*
X84415085Y-62220323D01*
X84361866Y-62193714D01*
X84335257Y-62140495D01*
X84335257Y-62060666D01*
X84361866Y-62007447D01*
X84681180Y-61342209D02*
X84707790Y-61262380D01*
X84707790Y-61129333D01*
X84681180Y-61076114D01*
X84654571Y-61049504D01*
X84601352Y-61022895D01*
X84548133Y-61022895D01*
X84494914Y-61049504D01*
X84468304Y-61076114D01*
X84441695Y-61129333D01*
X84415085Y-61235771D01*
X84388476Y-61288990D01*
X84361866Y-61315600D01*
X84308647Y-61342209D01*
X84255428Y-61342209D01*
X84202209Y-61315600D01*
X84175600Y-61288990D01*
X84148990Y-61235771D01*
X84148990Y-61102723D01*
X84175600Y-61022895D01*
X84707790Y-60783409D02*
X84335257Y-60783409D01*
X84148990Y-60783409D02*
X84175600Y-60810019D01*
X84202209Y-60783409D01*
X84175600Y-60756800D01*
X84148990Y-60783409D01*
X84202209Y-60783409D01*
X84707790Y-60277828D02*
X84148990Y-60277828D01*
X84681180Y-60277828D02*
X84707790Y-60331047D01*
X84707790Y-60437485D01*
X84681180Y-60490704D01*
X84654571Y-60517314D01*
X84601352Y-60543923D01*
X84441695Y-60543923D01*
X84388476Y-60517314D01*
X84361866Y-60490704D01*
X84335257Y-60437485D01*
X84335257Y-60331047D01*
X84361866Y-60277828D01*
X84681180Y-59798857D02*
X84707790Y-59852076D01*
X84707790Y-59958514D01*
X84681180Y-60011733D01*
X84627961Y-60038342D01*
X84415085Y-60038342D01*
X84361866Y-60011733D01*
X84335257Y-59958514D01*
X84335257Y-59852076D01*
X84361866Y-59798857D01*
X84415085Y-59772247D01*
X84468304Y-59772247D01*
X84521523Y-60038342D01*
X83437790Y-64894580D02*
X82878990Y-64894580D01*
X83065257Y-64628485D02*
X83437790Y-64628485D01*
X83118476Y-64628485D02*
X83091866Y-64601876D01*
X83065257Y-64548657D01*
X83065257Y-64468828D01*
X83091866Y-64415609D01*
X83145085Y-64389000D01*
X83437790Y-64389000D01*
X83411180Y-64149514D02*
X83437790Y-64096295D01*
X83437790Y-63989857D01*
X83411180Y-63936638D01*
X83357961Y-63910028D01*
X83331352Y-63910028D01*
X83278133Y-63936638D01*
X83251523Y-63989857D01*
X83251523Y-64069685D01*
X83224914Y-64122904D01*
X83171695Y-64149514D01*
X83145085Y-64149514D01*
X83091866Y-64122904D01*
X83065257Y-64069685D01*
X83065257Y-63989857D01*
X83091866Y-63936638D01*
X83411180Y-63457666D02*
X83437790Y-63510885D01*
X83437790Y-63617323D01*
X83411180Y-63670542D01*
X83357961Y-63697152D01*
X83145085Y-63697152D01*
X83091866Y-63670542D01*
X83065257Y-63617323D01*
X83065257Y-63510885D01*
X83091866Y-63457666D01*
X83145085Y-63431057D01*
X83198304Y-63431057D01*
X83251523Y-63697152D01*
X83437790Y-63191571D02*
X83065257Y-63191571D01*
X83171695Y-63191571D02*
X83118476Y-63164961D01*
X83091866Y-63138352D01*
X83065257Y-63085133D01*
X83065257Y-63031914D01*
X83065257Y-62925476D02*
X83065257Y-62712600D01*
X82878990Y-62845647D02*
X83357961Y-62845647D01*
X83411180Y-62819038D01*
X83437790Y-62765819D01*
X83437790Y-62712600D01*
X83437790Y-62100580D02*
X82878990Y-62100580D01*
X82878990Y-61887704D01*
X82905600Y-61834485D01*
X82932209Y-61807876D01*
X82985428Y-61781266D01*
X83065257Y-61781266D01*
X83118476Y-61807876D01*
X83145085Y-61834485D01*
X83171695Y-61887704D01*
X83171695Y-62100580D01*
X83437790Y-61541780D02*
X83065257Y-61541780D01*
X82878990Y-61541780D02*
X82905600Y-61568390D01*
X82932209Y-61541780D01*
X82905600Y-61515171D01*
X82878990Y-61541780D01*
X82932209Y-61541780D01*
X83065257Y-61275685D02*
X83437790Y-61275685D01*
X83118476Y-61275685D02*
X83091866Y-61249076D01*
X83065257Y-61195857D01*
X83065257Y-61116028D01*
X83091866Y-61062809D01*
X83145085Y-61036200D01*
X83437790Y-61036200D01*
X83437790Y-60025038D02*
X83171695Y-60211304D01*
X83437790Y-60344352D02*
X82878990Y-60344352D01*
X82878990Y-60131476D01*
X82905600Y-60078257D01*
X82932209Y-60051647D01*
X82985428Y-60025038D01*
X83065257Y-60025038D01*
X83118476Y-60051647D01*
X83145085Y-60078257D01*
X83171695Y-60131476D01*
X83171695Y-60344352D01*
X83411180Y-59546066D02*
X83437790Y-59599285D01*
X83437790Y-59705723D01*
X83411180Y-59758942D01*
X83384571Y-59785552D01*
X83331352Y-59812161D01*
X83171695Y-59812161D01*
X83118476Y-59785552D01*
X83091866Y-59758942D01*
X83065257Y-59705723D01*
X83065257Y-59599285D01*
X83091866Y-59546066D01*
X83065257Y-59306580D02*
X83624057Y-59306580D01*
X83091866Y-59306580D02*
X83065257Y-59253361D01*
X83065257Y-59146923D01*
X83091866Y-59093704D01*
X83118476Y-59067095D01*
X83171695Y-59040485D01*
X83331352Y-59040485D01*
X83384571Y-59067095D01*
X83411180Y-59093704D01*
X83437790Y-59146923D01*
X83437790Y-59253361D01*
X83411180Y-59306580D01*
X83065257Y-58880828D02*
X83065257Y-58667952D01*
X82878990Y-58801000D02*
X83357961Y-58801000D01*
X83411180Y-58774390D01*
X83437790Y-58721171D01*
X83437790Y-58667952D01*
X83411180Y-58508295D02*
X83437790Y-58455076D01*
X83437790Y-58348638D01*
X83411180Y-58295419D01*
X83357961Y-58268809D01*
X83331352Y-58268809D01*
X83278133Y-58295419D01*
X83251523Y-58348638D01*
X83251523Y-58428466D01*
X83224914Y-58481685D01*
X83171695Y-58508295D01*
X83145085Y-58508295D01*
X83091866Y-58481685D01*
X83065257Y-58428466D01*
X83065257Y-58348638D01*
X83091866Y-58295419D01*
%TO.C,S7*%
D10*
X115981238Y-77609095D02*
X116029619Y-77463952D01*
X116029619Y-77222047D01*
X115981238Y-77125285D01*
X115932857Y-77076904D01*
X115836095Y-77028523D01*
X115739333Y-77028523D01*
X115642571Y-77076904D01*
X115594190Y-77125285D01*
X115545809Y-77222047D01*
X115497428Y-77415571D01*
X115449047Y-77512333D01*
X115400666Y-77560714D01*
X115303904Y-77609095D01*
X115207142Y-77609095D01*
X115110380Y-77560714D01*
X115062000Y-77512333D01*
X115013619Y-77415571D01*
X115013619Y-77173666D01*
X115062000Y-77028523D01*
X115013619Y-76689857D02*
X115013619Y-76012523D01*
X116029619Y-76447952D01*
D18*
X119960571Y-79810428D02*
X119960571Y-80064428D01*
X120359714Y-80064428D02*
X119597714Y-80064428D01*
X119597714Y-79701571D01*
X120359714Y-79084714D02*
X119960571Y-79084714D01*
X119888000Y-79121000D01*
X119851714Y-79193571D01*
X119851714Y-79338714D01*
X119888000Y-79411285D01*
X120323428Y-79084714D02*
X120359714Y-79157285D01*
X120359714Y-79338714D01*
X120323428Y-79411285D01*
X120250857Y-79447571D01*
X120178285Y-79447571D01*
X120105714Y-79411285D01*
X120069428Y-79338714D01*
X120069428Y-79157285D01*
X120033142Y-79084714D01*
X120323428Y-78395285D02*
X120359714Y-78467857D01*
X120359714Y-78613000D01*
X120323428Y-78685571D01*
X120287142Y-78721857D01*
X120214571Y-78758142D01*
X119996857Y-78758142D01*
X119924285Y-78721857D01*
X119888000Y-78685571D01*
X119851714Y-78613000D01*
X119851714Y-78467857D01*
X119888000Y-78395285D01*
X120323428Y-77778428D02*
X120359714Y-77851000D01*
X120359714Y-77996142D01*
X120323428Y-78068714D01*
X120250857Y-78105000D01*
X119960571Y-78105000D01*
X119888000Y-78068714D01*
X119851714Y-77996142D01*
X119851714Y-77851000D01*
X119888000Y-77778428D01*
X119960571Y-77742142D01*
X120033142Y-77742142D01*
X120105714Y-78105000D01*
X120323428Y-77451857D02*
X120359714Y-77379285D01*
X120359714Y-77234142D01*
X120323428Y-77161571D01*
X120250857Y-77125285D01*
X120214571Y-77125285D01*
X120142000Y-77161571D01*
X120105714Y-77234142D01*
X120105714Y-77343000D01*
X120069428Y-77415571D01*
X119996857Y-77451857D01*
X119960571Y-77451857D01*
X119888000Y-77415571D01*
X119851714Y-77343000D01*
X119851714Y-77234142D01*
X119888000Y-77161571D01*
X119597714Y-76327000D02*
X120359714Y-76073000D01*
X119597714Y-75819000D01*
X120359714Y-75238428D02*
X119960571Y-75238428D01*
X119888000Y-75274714D01*
X119851714Y-75347285D01*
X119851714Y-75492428D01*
X119888000Y-75565000D01*
X120323428Y-75238428D02*
X120359714Y-75311000D01*
X120359714Y-75492428D01*
X120323428Y-75565000D01*
X120250857Y-75601285D01*
X120178285Y-75601285D01*
X120105714Y-75565000D01*
X120069428Y-75492428D01*
X120069428Y-75311000D01*
X120033142Y-75238428D01*
X120359714Y-74766714D02*
X120323428Y-74839285D01*
X120250857Y-74875571D01*
X119597714Y-74875571D01*
X119851714Y-74549000D02*
X120359714Y-74367571D01*
X119851714Y-74186142D01*
X120323428Y-73605571D02*
X120359714Y-73678142D01*
X120359714Y-73823285D01*
X120323428Y-73895857D01*
X120250857Y-73932142D01*
X119960571Y-73932142D01*
X119888000Y-73895857D01*
X119851714Y-73823285D01*
X119851714Y-73678142D01*
X119888000Y-73605571D01*
X119960571Y-73569285D01*
X120033142Y-73569285D01*
X120105714Y-73932142D01*
X118327714Y-79393142D02*
X118327714Y-78957714D01*
X119089714Y-79175428D02*
X118327714Y-79175428D01*
X119089714Y-78703714D02*
X118327714Y-78703714D01*
X119089714Y-78377142D02*
X118690571Y-78377142D01*
X118618000Y-78413428D01*
X118581714Y-78486000D01*
X118581714Y-78594857D01*
X118618000Y-78667428D01*
X118654285Y-78703714D01*
X119089714Y-78014285D02*
X118581714Y-78014285D01*
X118327714Y-78014285D02*
X118364000Y-78050571D01*
X118400285Y-78014285D01*
X118364000Y-77978000D01*
X118327714Y-78014285D01*
X118400285Y-78014285D01*
X119053428Y-77687714D02*
X119089714Y-77615142D01*
X119089714Y-77470000D01*
X119053428Y-77397428D01*
X118980857Y-77361142D01*
X118944571Y-77361142D01*
X118872000Y-77397428D01*
X118835714Y-77470000D01*
X118835714Y-77578857D01*
X118799428Y-77651428D01*
X118726857Y-77687714D01*
X118690571Y-77687714D01*
X118618000Y-77651428D01*
X118581714Y-77578857D01*
X118581714Y-77470000D01*
X118618000Y-77397428D01*
X119053428Y-76490285D02*
X119089714Y-76381428D01*
X119089714Y-76200000D01*
X119053428Y-76127428D01*
X119017142Y-76091142D01*
X118944571Y-76054857D01*
X118872000Y-76054857D01*
X118799428Y-76091142D01*
X118763142Y-76127428D01*
X118726857Y-76200000D01*
X118690571Y-76345142D01*
X118654285Y-76417714D01*
X118618000Y-76454000D01*
X118545428Y-76490285D01*
X118472857Y-76490285D01*
X118400285Y-76454000D01*
X118364000Y-76417714D01*
X118327714Y-76345142D01*
X118327714Y-76163714D01*
X118364000Y-76054857D01*
X119089714Y-75728285D02*
X118581714Y-75728285D01*
X118327714Y-75728285D02*
X118364000Y-75764571D01*
X118400285Y-75728285D01*
X118364000Y-75692000D01*
X118327714Y-75728285D01*
X118400285Y-75728285D01*
X119089714Y-75038857D02*
X118327714Y-75038857D01*
X119053428Y-75038857D02*
X119089714Y-75111428D01*
X119089714Y-75256571D01*
X119053428Y-75329142D01*
X119017142Y-75365428D01*
X118944571Y-75401714D01*
X118726857Y-75401714D01*
X118654285Y-75365428D01*
X118618000Y-75329142D01*
X118581714Y-75256571D01*
X118581714Y-75111428D01*
X118618000Y-75038857D01*
X119053428Y-74385714D02*
X119089714Y-74458285D01*
X119089714Y-74603428D01*
X119053428Y-74676000D01*
X118980857Y-74712285D01*
X118690571Y-74712285D01*
X118618000Y-74676000D01*
X118581714Y-74603428D01*
X118581714Y-74458285D01*
X118618000Y-74385714D01*
X118690571Y-74349428D01*
X118763142Y-74349428D01*
X118835714Y-74712285D01*
D19*
X112088990Y-78710971D02*
X112088990Y-78391657D01*
X112647790Y-78551314D02*
X112088990Y-78551314D01*
X112647790Y-78205390D02*
X112088990Y-78205390D01*
X112647790Y-77965904D02*
X112355085Y-77965904D01*
X112301866Y-77992514D01*
X112275257Y-78045733D01*
X112275257Y-78125561D01*
X112301866Y-78178780D01*
X112328476Y-78205390D01*
X112647790Y-77699809D02*
X112275257Y-77699809D01*
X112088990Y-77699809D02*
X112115600Y-77726419D01*
X112142209Y-77699809D01*
X112115600Y-77673200D01*
X112088990Y-77699809D01*
X112142209Y-77699809D01*
X112621180Y-77460323D02*
X112647790Y-77407104D01*
X112647790Y-77300666D01*
X112621180Y-77247447D01*
X112567961Y-77220838D01*
X112541352Y-77220838D01*
X112488133Y-77247447D01*
X112461523Y-77300666D01*
X112461523Y-77380495D01*
X112434914Y-77433714D01*
X112381695Y-77460323D01*
X112355085Y-77460323D01*
X112301866Y-77433714D01*
X112275257Y-77380495D01*
X112275257Y-77300666D01*
X112301866Y-77247447D01*
X112621180Y-76582209D02*
X112647790Y-76502380D01*
X112647790Y-76369333D01*
X112621180Y-76316114D01*
X112594571Y-76289504D01*
X112541352Y-76262895D01*
X112488133Y-76262895D01*
X112434914Y-76289504D01*
X112408304Y-76316114D01*
X112381695Y-76369333D01*
X112355085Y-76475771D01*
X112328476Y-76528990D01*
X112301866Y-76555600D01*
X112248647Y-76582209D01*
X112195428Y-76582209D01*
X112142209Y-76555600D01*
X112115600Y-76528990D01*
X112088990Y-76475771D01*
X112088990Y-76342723D01*
X112115600Y-76262895D01*
X112647790Y-76023409D02*
X112275257Y-76023409D01*
X112088990Y-76023409D02*
X112115600Y-76050019D01*
X112142209Y-76023409D01*
X112115600Y-75996800D01*
X112088990Y-76023409D01*
X112142209Y-76023409D01*
X112647790Y-75517828D02*
X112088990Y-75517828D01*
X112621180Y-75517828D02*
X112647790Y-75571047D01*
X112647790Y-75677485D01*
X112621180Y-75730704D01*
X112594571Y-75757314D01*
X112541352Y-75783923D01*
X112381695Y-75783923D01*
X112328476Y-75757314D01*
X112301866Y-75730704D01*
X112275257Y-75677485D01*
X112275257Y-75571047D01*
X112301866Y-75517828D01*
X112621180Y-75038857D02*
X112647790Y-75092076D01*
X112647790Y-75198514D01*
X112621180Y-75251733D01*
X112567961Y-75278342D01*
X112355085Y-75278342D01*
X112301866Y-75251733D01*
X112275257Y-75198514D01*
X112275257Y-75092076D01*
X112301866Y-75038857D01*
X112355085Y-75012247D01*
X112408304Y-75012247D01*
X112461523Y-75278342D01*
X111377790Y-80134580D02*
X110818990Y-80134580D01*
X111005257Y-79868485D02*
X111377790Y-79868485D01*
X111058476Y-79868485D02*
X111031866Y-79841876D01*
X111005257Y-79788657D01*
X111005257Y-79708828D01*
X111031866Y-79655609D01*
X111085085Y-79629000D01*
X111377790Y-79629000D01*
X111351180Y-79389514D02*
X111377790Y-79336295D01*
X111377790Y-79229857D01*
X111351180Y-79176638D01*
X111297961Y-79150028D01*
X111271352Y-79150028D01*
X111218133Y-79176638D01*
X111191523Y-79229857D01*
X111191523Y-79309685D01*
X111164914Y-79362904D01*
X111111695Y-79389514D01*
X111085085Y-79389514D01*
X111031866Y-79362904D01*
X111005257Y-79309685D01*
X111005257Y-79229857D01*
X111031866Y-79176638D01*
X111351180Y-78697666D02*
X111377790Y-78750885D01*
X111377790Y-78857323D01*
X111351180Y-78910542D01*
X111297961Y-78937152D01*
X111085085Y-78937152D01*
X111031866Y-78910542D01*
X111005257Y-78857323D01*
X111005257Y-78750885D01*
X111031866Y-78697666D01*
X111085085Y-78671057D01*
X111138304Y-78671057D01*
X111191523Y-78937152D01*
X111377790Y-78431571D02*
X111005257Y-78431571D01*
X111111695Y-78431571D02*
X111058476Y-78404961D01*
X111031866Y-78378352D01*
X111005257Y-78325133D01*
X111005257Y-78271914D01*
X111005257Y-78165476D02*
X111005257Y-77952600D01*
X110818990Y-78085647D02*
X111297961Y-78085647D01*
X111351180Y-78059038D01*
X111377790Y-78005819D01*
X111377790Y-77952600D01*
X111377790Y-77340580D02*
X110818990Y-77340580D01*
X110818990Y-77127704D01*
X110845600Y-77074485D01*
X110872209Y-77047876D01*
X110925428Y-77021266D01*
X111005257Y-77021266D01*
X111058476Y-77047876D01*
X111085085Y-77074485D01*
X111111695Y-77127704D01*
X111111695Y-77340580D01*
X111377790Y-76781780D02*
X111005257Y-76781780D01*
X110818990Y-76781780D02*
X110845600Y-76808390D01*
X110872209Y-76781780D01*
X110845600Y-76755171D01*
X110818990Y-76781780D01*
X110872209Y-76781780D01*
X111005257Y-76515685D02*
X111377790Y-76515685D01*
X111058476Y-76515685D02*
X111031866Y-76489076D01*
X111005257Y-76435857D01*
X111005257Y-76356028D01*
X111031866Y-76302809D01*
X111085085Y-76276200D01*
X111377790Y-76276200D01*
X111377790Y-75265038D02*
X111111695Y-75451304D01*
X111377790Y-75584352D02*
X110818990Y-75584352D01*
X110818990Y-75371476D01*
X110845600Y-75318257D01*
X110872209Y-75291647D01*
X110925428Y-75265038D01*
X111005257Y-75265038D01*
X111058476Y-75291647D01*
X111085085Y-75318257D01*
X111111695Y-75371476D01*
X111111695Y-75584352D01*
X111351180Y-74786066D02*
X111377790Y-74839285D01*
X111377790Y-74945723D01*
X111351180Y-74998942D01*
X111324571Y-75025552D01*
X111271352Y-75052161D01*
X111111695Y-75052161D01*
X111058476Y-75025552D01*
X111031866Y-74998942D01*
X111005257Y-74945723D01*
X111005257Y-74839285D01*
X111031866Y-74786066D01*
X111005257Y-74546580D02*
X111564057Y-74546580D01*
X111031866Y-74546580D02*
X111005257Y-74493361D01*
X111005257Y-74386923D01*
X111031866Y-74333704D01*
X111058476Y-74307095D01*
X111111695Y-74280485D01*
X111271352Y-74280485D01*
X111324571Y-74307095D01*
X111351180Y-74333704D01*
X111377790Y-74386923D01*
X111377790Y-74493361D01*
X111351180Y-74546580D01*
X111005257Y-74120828D02*
X111005257Y-73907952D01*
X110818990Y-74041000D02*
X111297961Y-74041000D01*
X111351180Y-74014390D01*
X111377790Y-73961171D01*
X111377790Y-73907952D01*
X111351180Y-73748295D02*
X111377790Y-73695076D01*
X111377790Y-73588638D01*
X111351180Y-73535419D01*
X111297961Y-73508809D01*
X111271352Y-73508809D01*
X111218133Y-73535419D01*
X111191523Y-73588638D01*
X111191523Y-73668466D01*
X111164914Y-73721685D01*
X111111695Y-73748295D01*
X111085085Y-73748295D01*
X111031866Y-73721685D01*
X111005257Y-73668466D01*
X111005257Y-73588638D01*
X111031866Y-73535419D01*
%TO.C,S8*%
D10*
X115981238Y-69989095D02*
X116029619Y-69843952D01*
X116029619Y-69602047D01*
X115981238Y-69505285D01*
X115932857Y-69456904D01*
X115836095Y-69408523D01*
X115739333Y-69408523D01*
X115642571Y-69456904D01*
X115594190Y-69505285D01*
X115545809Y-69602047D01*
X115497428Y-69795571D01*
X115449047Y-69892333D01*
X115400666Y-69940714D01*
X115303904Y-69989095D01*
X115207142Y-69989095D01*
X115110380Y-69940714D01*
X115062000Y-69892333D01*
X115013619Y-69795571D01*
X115013619Y-69553666D01*
X115062000Y-69408523D01*
X115449047Y-68827952D02*
X115400666Y-68924714D01*
X115352285Y-68973095D01*
X115255523Y-69021476D01*
X115207142Y-69021476D01*
X115110380Y-68973095D01*
X115062000Y-68924714D01*
X115013619Y-68827952D01*
X115013619Y-68634428D01*
X115062000Y-68537666D01*
X115110380Y-68489285D01*
X115207142Y-68440904D01*
X115255523Y-68440904D01*
X115352285Y-68489285D01*
X115400666Y-68537666D01*
X115449047Y-68634428D01*
X115449047Y-68827952D01*
X115497428Y-68924714D01*
X115545809Y-68973095D01*
X115642571Y-69021476D01*
X115836095Y-69021476D01*
X115932857Y-68973095D01*
X115981238Y-68924714D01*
X116029619Y-68827952D01*
X116029619Y-68634428D01*
X115981238Y-68537666D01*
X115932857Y-68489285D01*
X115836095Y-68440904D01*
X115642571Y-68440904D01*
X115545809Y-68489285D01*
X115497428Y-68537666D01*
X115449047Y-68634428D01*
D18*
X119960571Y-72190428D02*
X119960571Y-72444428D01*
X120359714Y-72444428D02*
X119597714Y-72444428D01*
X119597714Y-72081571D01*
X120359714Y-71464714D02*
X119960571Y-71464714D01*
X119888000Y-71501000D01*
X119851714Y-71573571D01*
X119851714Y-71718714D01*
X119888000Y-71791285D01*
X120323428Y-71464714D02*
X120359714Y-71537285D01*
X120359714Y-71718714D01*
X120323428Y-71791285D01*
X120250857Y-71827571D01*
X120178285Y-71827571D01*
X120105714Y-71791285D01*
X120069428Y-71718714D01*
X120069428Y-71537285D01*
X120033142Y-71464714D01*
X120323428Y-70775285D02*
X120359714Y-70847857D01*
X120359714Y-70993000D01*
X120323428Y-71065571D01*
X120287142Y-71101857D01*
X120214571Y-71138142D01*
X119996857Y-71138142D01*
X119924285Y-71101857D01*
X119888000Y-71065571D01*
X119851714Y-70993000D01*
X119851714Y-70847857D01*
X119888000Y-70775285D01*
X120323428Y-70158428D02*
X120359714Y-70231000D01*
X120359714Y-70376142D01*
X120323428Y-70448714D01*
X120250857Y-70485000D01*
X119960571Y-70485000D01*
X119888000Y-70448714D01*
X119851714Y-70376142D01*
X119851714Y-70231000D01*
X119888000Y-70158428D01*
X119960571Y-70122142D01*
X120033142Y-70122142D01*
X120105714Y-70485000D01*
X120323428Y-69831857D02*
X120359714Y-69759285D01*
X120359714Y-69614142D01*
X120323428Y-69541571D01*
X120250857Y-69505285D01*
X120214571Y-69505285D01*
X120142000Y-69541571D01*
X120105714Y-69614142D01*
X120105714Y-69723000D01*
X120069428Y-69795571D01*
X119996857Y-69831857D01*
X119960571Y-69831857D01*
X119888000Y-69795571D01*
X119851714Y-69723000D01*
X119851714Y-69614142D01*
X119888000Y-69541571D01*
X119597714Y-68707000D02*
X120359714Y-68453000D01*
X119597714Y-68199000D01*
X120359714Y-67618428D02*
X119960571Y-67618428D01*
X119888000Y-67654714D01*
X119851714Y-67727285D01*
X119851714Y-67872428D01*
X119888000Y-67945000D01*
X120323428Y-67618428D02*
X120359714Y-67691000D01*
X120359714Y-67872428D01*
X120323428Y-67945000D01*
X120250857Y-67981285D01*
X120178285Y-67981285D01*
X120105714Y-67945000D01*
X120069428Y-67872428D01*
X120069428Y-67691000D01*
X120033142Y-67618428D01*
X120359714Y-67146714D02*
X120323428Y-67219285D01*
X120250857Y-67255571D01*
X119597714Y-67255571D01*
X119851714Y-66929000D02*
X120359714Y-66747571D01*
X119851714Y-66566142D01*
X120323428Y-65985571D02*
X120359714Y-66058142D01*
X120359714Y-66203285D01*
X120323428Y-66275857D01*
X120250857Y-66312142D01*
X119960571Y-66312142D01*
X119888000Y-66275857D01*
X119851714Y-66203285D01*
X119851714Y-66058142D01*
X119888000Y-65985571D01*
X119960571Y-65949285D01*
X120033142Y-65949285D01*
X120105714Y-66312142D01*
X118327714Y-71773142D02*
X118327714Y-71337714D01*
X119089714Y-71555428D02*
X118327714Y-71555428D01*
X119089714Y-71083714D02*
X118327714Y-71083714D01*
X119089714Y-70757142D02*
X118690571Y-70757142D01*
X118618000Y-70793428D01*
X118581714Y-70866000D01*
X118581714Y-70974857D01*
X118618000Y-71047428D01*
X118654285Y-71083714D01*
X119089714Y-70394285D02*
X118581714Y-70394285D01*
X118327714Y-70394285D02*
X118364000Y-70430571D01*
X118400285Y-70394285D01*
X118364000Y-70358000D01*
X118327714Y-70394285D01*
X118400285Y-70394285D01*
X119053428Y-70067714D02*
X119089714Y-69995142D01*
X119089714Y-69850000D01*
X119053428Y-69777428D01*
X118980857Y-69741142D01*
X118944571Y-69741142D01*
X118872000Y-69777428D01*
X118835714Y-69850000D01*
X118835714Y-69958857D01*
X118799428Y-70031428D01*
X118726857Y-70067714D01*
X118690571Y-70067714D01*
X118618000Y-70031428D01*
X118581714Y-69958857D01*
X118581714Y-69850000D01*
X118618000Y-69777428D01*
X119053428Y-68870285D02*
X119089714Y-68761428D01*
X119089714Y-68580000D01*
X119053428Y-68507428D01*
X119017142Y-68471142D01*
X118944571Y-68434857D01*
X118872000Y-68434857D01*
X118799428Y-68471142D01*
X118763142Y-68507428D01*
X118726857Y-68580000D01*
X118690571Y-68725142D01*
X118654285Y-68797714D01*
X118618000Y-68834000D01*
X118545428Y-68870285D01*
X118472857Y-68870285D01*
X118400285Y-68834000D01*
X118364000Y-68797714D01*
X118327714Y-68725142D01*
X118327714Y-68543714D01*
X118364000Y-68434857D01*
X119089714Y-68108285D02*
X118581714Y-68108285D01*
X118327714Y-68108285D02*
X118364000Y-68144571D01*
X118400285Y-68108285D01*
X118364000Y-68072000D01*
X118327714Y-68108285D01*
X118400285Y-68108285D01*
X119089714Y-67418857D02*
X118327714Y-67418857D01*
X119053428Y-67418857D02*
X119089714Y-67491428D01*
X119089714Y-67636571D01*
X119053428Y-67709142D01*
X119017142Y-67745428D01*
X118944571Y-67781714D01*
X118726857Y-67781714D01*
X118654285Y-67745428D01*
X118618000Y-67709142D01*
X118581714Y-67636571D01*
X118581714Y-67491428D01*
X118618000Y-67418857D01*
X119053428Y-66765714D02*
X119089714Y-66838285D01*
X119089714Y-66983428D01*
X119053428Y-67056000D01*
X118980857Y-67092285D01*
X118690571Y-67092285D01*
X118618000Y-67056000D01*
X118581714Y-66983428D01*
X118581714Y-66838285D01*
X118618000Y-66765714D01*
X118690571Y-66729428D01*
X118763142Y-66729428D01*
X118835714Y-67092285D01*
D19*
X112088990Y-71090971D02*
X112088990Y-70771657D01*
X112647790Y-70931314D02*
X112088990Y-70931314D01*
X112647790Y-70585390D02*
X112088990Y-70585390D01*
X112647790Y-70345904D02*
X112355085Y-70345904D01*
X112301866Y-70372514D01*
X112275257Y-70425733D01*
X112275257Y-70505561D01*
X112301866Y-70558780D01*
X112328476Y-70585390D01*
X112647790Y-70079809D02*
X112275257Y-70079809D01*
X112088990Y-70079809D02*
X112115600Y-70106419D01*
X112142209Y-70079809D01*
X112115600Y-70053200D01*
X112088990Y-70079809D01*
X112142209Y-70079809D01*
X112621180Y-69840323D02*
X112647790Y-69787104D01*
X112647790Y-69680666D01*
X112621180Y-69627447D01*
X112567961Y-69600838D01*
X112541352Y-69600838D01*
X112488133Y-69627447D01*
X112461523Y-69680666D01*
X112461523Y-69760495D01*
X112434914Y-69813714D01*
X112381695Y-69840323D01*
X112355085Y-69840323D01*
X112301866Y-69813714D01*
X112275257Y-69760495D01*
X112275257Y-69680666D01*
X112301866Y-69627447D01*
X112621180Y-68962209D02*
X112647790Y-68882380D01*
X112647790Y-68749333D01*
X112621180Y-68696114D01*
X112594571Y-68669504D01*
X112541352Y-68642895D01*
X112488133Y-68642895D01*
X112434914Y-68669504D01*
X112408304Y-68696114D01*
X112381695Y-68749333D01*
X112355085Y-68855771D01*
X112328476Y-68908990D01*
X112301866Y-68935600D01*
X112248647Y-68962209D01*
X112195428Y-68962209D01*
X112142209Y-68935600D01*
X112115600Y-68908990D01*
X112088990Y-68855771D01*
X112088990Y-68722723D01*
X112115600Y-68642895D01*
X112647790Y-68403409D02*
X112275257Y-68403409D01*
X112088990Y-68403409D02*
X112115600Y-68430019D01*
X112142209Y-68403409D01*
X112115600Y-68376800D01*
X112088990Y-68403409D01*
X112142209Y-68403409D01*
X112647790Y-67897828D02*
X112088990Y-67897828D01*
X112621180Y-67897828D02*
X112647790Y-67951047D01*
X112647790Y-68057485D01*
X112621180Y-68110704D01*
X112594571Y-68137314D01*
X112541352Y-68163923D01*
X112381695Y-68163923D01*
X112328476Y-68137314D01*
X112301866Y-68110704D01*
X112275257Y-68057485D01*
X112275257Y-67951047D01*
X112301866Y-67897828D01*
X112621180Y-67418857D02*
X112647790Y-67472076D01*
X112647790Y-67578514D01*
X112621180Y-67631733D01*
X112567961Y-67658342D01*
X112355085Y-67658342D01*
X112301866Y-67631733D01*
X112275257Y-67578514D01*
X112275257Y-67472076D01*
X112301866Y-67418857D01*
X112355085Y-67392247D01*
X112408304Y-67392247D01*
X112461523Y-67658342D01*
X111377790Y-72514580D02*
X110818990Y-72514580D01*
X111005257Y-72248485D02*
X111377790Y-72248485D01*
X111058476Y-72248485D02*
X111031866Y-72221876D01*
X111005257Y-72168657D01*
X111005257Y-72088828D01*
X111031866Y-72035609D01*
X111085085Y-72009000D01*
X111377790Y-72009000D01*
X111351180Y-71769514D02*
X111377790Y-71716295D01*
X111377790Y-71609857D01*
X111351180Y-71556638D01*
X111297961Y-71530028D01*
X111271352Y-71530028D01*
X111218133Y-71556638D01*
X111191523Y-71609857D01*
X111191523Y-71689685D01*
X111164914Y-71742904D01*
X111111695Y-71769514D01*
X111085085Y-71769514D01*
X111031866Y-71742904D01*
X111005257Y-71689685D01*
X111005257Y-71609857D01*
X111031866Y-71556638D01*
X111351180Y-71077666D02*
X111377790Y-71130885D01*
X111377790Y-71237323D01*
X111351180Y-71290542D01*
X111297961Y-71317152D01*
X111085085Y-71317152D01*
X111031866Y-71290542D01*
X111005257Y-71237323D01*
X111005257Y-71130885D01*
X111031866Y-71077666D01*
X111085085Y-71051057D01*
X111138304Y-71051057D01*
X111191523Y-71317152D01*
X111377790Y-70811571D02*
X111005257Y-70811571D01*
X111111695Y-70811571D02*
X111058476Y-70784961D01*
X111031866Y-70758352D01*
X111005257Y-70705133D01*
X111005257Y-70651914D01*
X111005257Y-70545476D02*
X111005257Y-70332600D01*
X110818990Y-70465647D02*
X111297961Y-70465647D01*
X111351180Y-70439038D01*
X111377790Y-70385819D01*
X111377790Y-70332600D01*
X111377790Y-69720580D02*
X110818990Y-69720580D01*
X110818990Y-69507704D01*
X110845600Y-69454485D01*
X110872209Y-69427876D01*
X110925428Y-69401266D01*
X111005257Y-69401266D01*
X111058476Y-69427876D01*
X111085085Y-69454485D01*
X111111695Y-69507704D01*
X111111695Y-69720580D01*
X111377790Y-69161780D02*
X111005257Y-69161780D01*
X110818990Y-69161780D02*
X110845600Y-69188390D01*
X110872209Y-69161780D01*
X110845600Y-69135171D01*
X110818990Y-69161780D01*
X110872209Y-69161780D01*
X111005257Y-68895685D02*
X111377790Y-68895685D01*
X111058476Y-68895685D02*
X111031866Y-68869076D01*
X111005257Y-68815857D01*
X111005257Y-68736028D01*
X111031866Y-68682809D01*
X111085085Y-68656200D01*
X111377790Y-68656200D01*
X111377790Y-67645038D02*
X111111695Y-67831304D01*
X111377790Y-67964352D02*
X110818990Y-67964352D01*
X110818990Y-67751476D01*
X110845600Y-67698257D01*
X110872209Y-67671647D01*
X110925428Y-67645038D01*
X111005257Y-67645038D01*
X111058476Y-67671647D01*
X111085085Y-67698257D01*
X111111695Y-67751476D01*
X111111695Y-67964352D01*
X111351180Y-67166066D02*
X111377790Y-67219285D01*
X111377790Y-67325723D01*
X111351180Y-67378942D01*
X111324571Y-67405552D01*
X111271352Y-67432161D01*
X111111695Y-67432161D01*
X111058476Y-67405552D01*
X111031866Y-67378942D01*
X111005257Y-67325723D01*
X111005257Y-67219285D01*
X111031866Y-67166066D01*
X111005257Y-66926580D02*
X111564057Y-66926580D01*
X111031866Y-66926580D02*
X111005257Y-66873361D01*
X111005257Y-66766923D01*
X111031866Y-66713704D01*
X111058476Y-66687095D01*
X111111695Y-66660485D01*
X111271352Y-66660485D01*
X111324571Y-66687095D01*
X111351180Y-66713704D01*
X111377790Y-66766923D01*
X111377790Y-66873361D01*
X111351180Y-66926580D01*
X111005257Y-66500828D02*
X111005257Y-66287952D01*
X110818990Y-66421000D02*
X111297961Y-66421000D01*
X111351180Y-66394390D01*
X111377790Y-66341171D01*
X111377790Y-66287952D01*
X111351180Y-66128295D02*
X111377790Y-66075076D01*
X111377790Y-65968638D01*
X111351180Y-65915419D01*
X111297961Y-65888809D01*
X111271352Y-65888809D01*
X111218133Y-65915419D01*
X111191523Y-65968638D01*
X111191523Y-66048466D01*
X111164914Y-66101685D01*
X111111695Y-66128295D01*
X111085085Y-66128295D01*
X111031866Y-66101685D01*
X111005257Y-66048466D01*
X111005257Y-65968638D01*
X111031866Y-65915419D01*
%TO.C,S9*%
D10*
X115981238Y-62369095D02*
X116029619Y-62223952D01*
X116029619Y-61982047D01*
X115981238Y-61885285D01*
X115932857Y-61836904D01*
X115836095Y-61788523D01*
X115739333Y-61788523D01*
X115642571Y-61836904D01*
X115594190Y-61885285D01*
X115545809Y-61982047D01*
X115497428Y-62175571D01*
X115449047Y-62272333D01*
X115400666Y-62320714D01*
X115303904Y-62369095D01*
X115207142Y-62369095D01*
X115110380Y-62320714D01*
X115062000Y-62272333D01*
X115013619Y-62175571D01*
X115013619Y-61933666D01*
X115062000Y-61788523D01*
X116029619Y-61304714D02*
X116029619Y-61111190D01*
X115981238Y-61014428D01*
X115932857Y-60966047D01*
X115787714Y-60869285D01*
X115594190Y-60820904D01*
X115207142Y-60820904D01*
X115110380Y-60869285D01*
X115062000Y-60917666D01*
X115013619Y-61014428D01*
X115013619Y-61207952D01*
X115062000Y-61304714D01*
X115110380Y-61353095D01*
X115207142Y-61401476D01*
X115449047Y-61401476D01*
X115545809Y-61353095D01*
X115594190Y-61304714D01*
X115642571Y-61207952D01*
X115642571Y-61014428D01*
X115594190Y-60917666D01*
X115545809Y-60869285D01*
X115449047Y-60820904D01*
D18*
X119960571Y-64570428D02*
X119960571Y-64824428D01*
X120359714Y-64824428D02*
X119597714Y-64824428D01*
X119597714Y-64461571D01*
X120359714Y-63844714D02*
X119960571Y-63844714D01*
X119888000Y-63881000D01*
X119851714Y-63953571D01*
X119851714Y-64098714D01*
X119888000Y-64171285D01*
X120323428Y-63844714D02*
X120359714Y-63917285D01*
X120359714Y-64098714D01*
X120323428Y-64171285D01*
X120250857Y-64207571D01*
X120178285Y-64207571D01*
X120105714Y-64171285D01*
X120069428Y-64098714D01*
X120069428Y-63917285D01*
X120033142Y-63844714D01*
X120323428Y-63155285D02*
X120359714Y-63227857D01*
X120359714Y-63373000D01*
X120323428Y-63445571D01*
X120287142Y-63481857D01*
X120214571Y-63518142D01*
X119996857Y-63518142D01*
X119924285Y-63481857D01*
X119888000Y-63445571D01*
X119851714Y-63373000D01*
X119851714Y-63227857D01*
X119888000Y-63155285D01*
X120323428Y-62538428D02*
X120359714Y-62611000D01*
X120359714Y-62756142D01*
X120323428Y-62828714D01*
X120250857Y-62865000D01*
X119960571Y-62865000D01*
X119888000Y-62828714D01*
X119851714Y-62756142D01*
X119851714Y-62611000D01*
X119888000Y-62538428D01*
X119960571Y-62502142D01*
X120033142Y-62502142D01*
X120105714Y-62865000D01*
X120323428Y-62211857D02*
X120359714Y-62139285D01*
X120359714Y-61994142D01*
X120323428Y-61921571D01*
X120250857Y-61885285D01*
X120214571Y-61885285D01*
X120142000Y-61921571D01*
X120105714Y-61994142D01*
X120105714Y-62103000D01*
X120069428Y-62175571D01*
X119996857Y-62211857D01*
X119960571Y-62211857D01*
X119888000Y-62175571D01*
X119851714Y-62103000D01*
X119851714Y-61994142D01*
X119888000Y-61921571D01*
X119597714Y-61087000D02*
X120359714Y-60833000D01*
X119597714Y-60579000D01*
X120359714Y-59998428D02*
X119960571Y-59998428D01*
X119888000Y-60034714D01*
X119851714Y-60107285D01*
X119851714Y-60252428D01*
X119888000Y-60325000D01*
X120323428Y-59998428D02*
X120359714Y-60071000D01*
X120359714Y-60252428D01*
X120323428Y-60325000D01*
X120250857Y-60361285D01*
X120178285Y-60361285D01*
X120105714Y-60325000D01*
X120069428Y-60252428D01*
X120069428Y-60071000D01*
X120033142Y-59998428D01*
X120359714Y-59526714D02*
X120323428Y-59599285D01*
X120250857Y-59635571D01*
X119597714Y-59635571D01*
X119851714Y-59309000D02*
X120359714Y-59127571D01*
X119851714Y-58946142D01*
X120323428Y-58365571D02*
X120359714Y-58438142D01*
X120359714Y-58583285D01*
X120323428Y-58655857D01*
X120250857Y-58692142D01*
X119960571Y-58692142D01*
X119888000Y-58655857D01*
X119851714Y-58583285D01*
X119851714Y-58438142D01*
X119888000Y-58365571D01*
X119960571Y-58329285D01*
X120033142Y-58329285D01*
X120105714Y-58692142D01*
X118327714Y-64153142D02*
X118327714Y-63717714D01*
X119089714Y-63935428D02*
X118327714Y-63935428D01*
X119089714Y-63463714D02*
X118327714Y-63463714D01*
X119089714Y-63137142D02*
X118690571Y-63137142D01*
X118618000Y-63173428D01*
X118581714Y-63246000D01*
X118581714Y-63354857D01*
X118618000Y-63427428D01*
X118654285Y-63463714D01*
X119089714Y-62774285D02*
X118581714Y-62774285D01*
X118327714Y-62774285D02*
X118364000Y-62810571D01*
X118400285Y-62774285D01*
X118364000Y-62738000D01*
X118327714Y-62774285D01*
X118400285Y-62774285D01*
X119053428Y-62447714D02*
X119089714Y-62375142D01*
X119089714Y-62230000D01*
X119053428Y-62157428D01*
X118980857Y-62121142D01*
X118944571Y-62121142D01*
X118872000Y-62157428D01*
X118835714Y-62230000D01*
X118835714Y-62338857D01*
X118799428Y-62411428D01*
X118726857Y-62447714D01*
X118690571Y-62447714D01*
X118618000Y-62411428D01*
X118581714Y-62338857D01*
X118581714Y-62230000D01*
X118618000Y-62157428D01*
X119053428Y-61250285D02*
X119089714Y-61141428D01*
X119089714Y-60960000D01*
X119053428Y-60887428D01*
X119017142Y-60851142D01*
X118944571Y-60814857D01*
X118872000Y-60814857D01*
X118799428Y-60851142D01*
X118763142Y-60887428D01*
X118726857Y-60960000D01*
X118690571Y-61105142D01*
X118654285Y-61177714D01*
X118618000Y-61214000D01*
X118545428Y-61250285D01*
X118472857Y-61250285D01*
X118400285Y-61214000D01*
X118364000Y-61177714D01*
X118327714Y-61105142D01*
X118327714Y-60923714D01*
X118364000Y-60814857D01*
X119089714Y-60488285D02*
X118581714Y-60488285D01*
X118327714Y-60488285D02*
X118364000Y-60524571D01*
X118400285Y-60488285D01*
X118364000Y-60452000D01*
X118327714Y-60488285D01*
X118400285Y-60488285D01*
X119089714Y-59798857D02*
X118327714Y-59798857D01*
X119053428Y-59798857D02*
X119089714Y-59871428D01*
X119089714Y-60016571D01*
X119053428Y-60089142D01*
X119017142Y-60125428D01*
X118944571Y-60161714D01*
X118726857Y-60161714D01*
X118654285Y-60125428D01*
X118618000Y-60089142D01*
X118581714Y-60016571D01*
X118581714Y-59871428D01*
X118618000Y-59798857D01*
X119053428Y-59145714D02*
X119089714Y-59218285D01*
X119089714Y-59363428D01*
X119053428Y-59436000D01*
X118980857Y-59472285D01*
X118690571Y-59472285D01*
X118618000Y-59436000D01*
X118581714Y-59363428D01*
X118581714Y-59218285D01*
X118618000Y-59145714D01*
X118690571Y-59109428D01*
X118763142Y-59109428D01*
X118835714Y-59472285D01*
D19*
X112088990Y-63470971D02*
X112088990Y-63151657D01*
X112647790Y-63311314D02*
X112088990Y-63311314D01*
X112647790Y-62965390D02*
X112088990Y-62965390D01*
X112647790Y-62725904D02*
X112355085Y-62725904D01*
X112301866Y-62752514D01*
X112275257Y-62805733D01*
X112275257Y-62885561D01*
X112301866Y-62938780D01*
X112328476Y-62965390D01*
X112647790Y-62459809D02*
X112275257Y-62459809D01*
X112088990Y-62459809D02*
X112115600Y-62486419D01*
X112142209Y-62459809D01*
X112115600Y-62433200D01*
X112088990Y-62459809D01*
X112142209Y-62459809D01*
X112621180Y-62220323D02*
X112647790Y-62167104D01*
X112647790Y-62060666D01*
X112621180Y-62007447D01*
X112567961Y-61980838D01*
X112541352Y-61980838D01*
X112488133Y-62007447D01*
X112461523Y-62060666D01*
X112461523Y-62140495D01*
X112434914Y-62193714D01*
X112381695Y-62220323D01*
X112355085Y-62220323D01*
X112301866Y-62193714D01*
X112275257Y-62140495D01*
X112275257Y-62060666D01*
X112301866Y-62007447D01*
X112621180Y-61342209D02*
X112647790Y-61262380D01*
X112647790Y-61129333D01*
X112621180Y-61076114D01*
X112594571Y-61049504D01*
X112541352Y-61022895D01*
X112488133Y-61022895D01*
X112434914Y-61049504D01*
X112408304Y-61076114D01*
X112381695Y-61129333D01*
X112355085Y-61235771D01*
X112328476Y-61288990D01*
X112301866Y-61315600D01*
X112248647Y-61342209D01*
X112195428Y-61342209D01*
X112142209Y-61315600D01*
X112115600Y-61288990D01*
X112088990Y-61235771D01*
X112088990Y-61102723D01*
X112115600Y-61022895D01*
X112647790Y-60783409D02*
X112275257Y-60783409D01*
X112088990Y-60783409D02*
X112115600Y-60810019D01*
X112142209Y-60783409D01*
X112115600Y-60756800D01*
X112088990Y-60783409D01*
X112142209Y-60783409D01*
X112647790Y-60277828D02*
X112088990Y-60277828D01*
X112621180Y-60277828D02*
X112647790Y-60331047D01*
X112647790Y-60437485D01*
X112621180Y-60490704D01*
X112594571Y-60517314D01*
X112541352Y-60543923D01*
X112381695Y-60543923D01*
X112328476Y-60517314D01*
X112301866Y-60490704D01*
X112275257Y-60437485D01*
X112275257Y-60331047D01*
X112301866Y-60277828D01*
X112621180Y-59798857D02*
X112647790Y-59852076D01*
X112647790Y-59958514D01*
X112621180Y-60011733D01*
X112567961Y-60038342D01*
X112355085Y-60038342D01*
X112301866Y-60011733D01*
X112275257Y-59958514D01*
X112275257Y-59852076D01*
X112301866Y-59798857D01*
X112355085Y-59772247D01*
X112408304Y-59772247D01*
X112461523Y-60038342D01*
X111377790Y-64894580D02*
X110818990Y-64894580D01*
X111005257Y-64628485D02*
X111377790Y-64628485D01*
X111058476Y-64628485D02*
X111031866Y-64601876D01*
X111005257Y-64548657D01*
X111005257Y-64468828D01*
X111031866Y-64415609D01*
X111085085Y-64389000D01*
X111377790Y-64389000D01*
X111351180Y-64149514D02*
X111377790Y-64096295D01*
X111377790Y-63989857D01*
X111351180Y-63936638D01*
X111297961Y-63910028D01*
X111271352Y-63910028D01*
X111218133Y-63936638D01*
X111191523Y-63989857D01*
X111191523Y-64069685D01*
X111164914Y-64122904D01*
X111111695Y-64149514D01*
X111085085Y-64149514D01*
X111031866Y-64122904D01*
X111005257Y-64069685D01*
X111005257Y-63989857D01*
X111031866Y-63936638D01*
X111351180Y-63457666D02*
X111377790Y-63510885D01*
X111377790Y-63617323D01*
X111351180Y-63670542D01*
X111297961Y-63697152D01*
X111085085Y-63697152D01*
X111031866Y-63670542D01*
X111005257Y-63617323D01*
X111005257Y-63510885D01*
X111031866Y-63457666D01*
X111085085Y-63431057D01*
X111138304Y-63431057D01*
X111191523Y-63697152D01*
X111377790Y-63191571D02*
X111005257Y-63191571D01*
X111111695Y-63191571D02*
X111058476Y-63164961D01*
X111031866Y-63138352D01*
X111005257Y-63085133D01*
X111005257Y-63031914D01*
X111005257Y-62925476D02*
X111005257Y-62712600D01*
X110818990Y-62845647D02*
X111297961Y-62845647D01*
X111351180Y-62819038D01*
X111377790Y-62765819D01*
X111377790Y-62712600D01*
X111377790Y-62100580D02*
X110818990Y-62100580D01*
X110818990Y-61887704D01*
X110845600Y-61834485D01*
X110872209Y-61807876D01*
X110925428Y-61781266D01*
X111005257Y-61781266D01*
X111058476Y-61807876D01*
X111085085Y-61834485D01*
X111111695Y-61887704D01*
X111111695Y-62100580D01*
X111377790Y-61541780D02*
X111005257Y-61541780D01*
X110818990Y-61541780D02*
X110845600Y-61568390D01*
X110872209Y-61541780D01*
X110845600Y-61515171D01*
X110818990Y-61541780D01*
X110872209Y-61541780D01*
X111005257Y-61275685D02*
X111377790Y-61275685D01*
X111058476Y-61275685D02*
X111031866Y-61249076D01*
X111005257Y-61195857D01*
X111005257Y-61116028D01*
X111031866Y-61062809D01*
X111085085Y-61036200D01*
X111377790Y-61036200D01*
X111377790Y-60025038D02*
X111111695Y-60211304D01*
X111377790Y-60344352D02*
X110818990Y-60344352D01*
X110818990Y-60131476D01*
X110845600Y-60078257D01*
X110872209Y-60051647D01*
X110925428Y-60025038D01*
X111005257Y-60025038D01*
X111058476Y-60051647D01*
X111085085Y-60078257D01*
X111111695Y-60131476D01*
X111111695Y-60344352D01*
X111351180Y-59546066D02*
X111377790Y-59599285D01*
X111377790Y-59705723D01*
X111351180Y-59758942D01*
X111324571Y-59785552D01*
X111271352Y-59812161D01*
X111111695Y-59812161D01*
X111058476Y-59785552D01*
X111031866Y-59758942D01*
X111005257Y-59705723D01*
X111005257Y-59599285D01*
X111031866Y-59546066D01*
X111005257Y-59306580D02*
X111564057Y-59306580D01*
X111031866Y-59306580D02*
X111005257Y-59253361D01*
X111005257Y-59146923D01*
X111031866Y-59093704D01*
X111058476Y-59067095D01*
X111111695Y-59040485D01*
X111271352Y-59040485D01*
X111324571Y-59067095D01*
X111351180Y-59093704D01*
X111377790Y-59146923D01*
X111377790Y-59253361D01*
X111351180Y-59306580D01*
X111005257Y-58880828D02*
X111005257Y-58667952D01*
X110818990Y-58801000D02*
X111297961Y-58801000D01*
X111351180Y-58774390D01*
X111377790Y-58721171D01*
X111377790Y-58667952D01*
X111351180Y-58508295D02*
X111377790Y-58455076D01*
X111377790Y-58348638D01*
X111351180Y-58295419D01*
X111297961Y-58268809D01*
X111271352Y-58268809D01*
X111218133Y-58295419D01*
X111191523Y-58348638D01*
X111191523Y-58428466D01*
X111164914Y-58481685D01*
X111111695Y-58508295D01*
X111085085Y-58508295D01*
X111031866Y-58481685D01*
X111005257Y-58428466D01*
X111005257Y-58348638D01*
X111031866Y-58295419D01*
%TO.C,TEENSY1*%
D10*
X105440238Y-93423619D02*
X106020809Y-93423619D01*
X105730523Y-94439619D02*
X105730523Y-93423619D01*
X106359476Y-93907428D02*
X106698142Y-93907428D01*
X106843285Y-94439619D02*
X106359476Y-94439619D01*
X106359476Y-93423619D01*
X106843285Y-93423619D01*
X107278714Y-93907428D02*
X107617380Y-93907428D01*
X107762523Y-94439619D02*
X107278714Y-94439619D01*
X107278714Y-93423619D01*
X107762523Y-93423619D01*
X108197952Y-94439619D02*
X108197952Y-93423619D01*
X108778523Y-94439619D01*
X108778523Y-93423619D01*
X109213952Y-94391238D02*
X109359095Y-94439619D01*
X109601000Y-94439619D01*
X109697761Y-94391238D01*
X109746142Y-94342857D01*
X109794523Y-94246095D01*
X109794523Y-94149333D01*
X109746142Y-94052571D01*
X109697761Y-94004190D01*
X109601000Y-93955809D01*
X109407476Y-93907428D01*
X109310714Y-93859047D01*
X109262333Y-93810666D01*
X109213952Y-93713904D01*
X109213952Y-93617142D01*
X109262333Y-93520380D01*
X109310714Y-93472000D01*
X109407476Y-93423619D01*
X109649380Y-93423619D01*
X109794523Y-93472000D01*
X110423476Y-93955809D02*
X110423476Y-94439619D01*
X110084809Y-93423619D02*
X110423476Y-93955809D01*
X110762142Y-93423619D01*
X111633000Y-94439619D02*
X111052428Y-94439619D01*
X111342714Y-94439619D02*
X111342714Y-93423619D01*
X111245952Y-93568761D01*
X111149190Y-93665523D01*
X111052428Y-93713904D01*
X104327476Y-128973619D02*
X104908047Y-128973619D01*
X104617761Y-129989619D02*
X104617761Y-128973619D01*
X105246714Y-129457428D02*
X105585380Y-129457428D01*
X105730523Y-129989619D02*
X105246714Y-129989619D01*
X105246714Y-128973619D01*
X105730523Y-128973619D01*
X106165952Y-129457428D02*
X106504619Y-129457428D01*
X106649761Y-129989619D02*
X106165952Y-129989619D01*
X106165952Y-128973619D01*
X106649761Y-128973619D01*
X107085190Y-129989619D02*
X107085190Y-128973619D01*
X107665761Y-129989619D01*
X107665761Y-128973619D01*
X108101190Y-129941238D02*
X108246333Y-129989619D01*
X108488238Y-129989619D01*
X108585000Y-129941238D01*
X108633380Y-129892857D01*
X108681761Y-129796095D01*
X108681761Y-129699333D01*
X108633380Y-129602571D01*
X108585000Y-129554190D01*
X108488238Y-129505809D01*
X108294714Y-129457428D01*
X108197952Y-129409047D01*
X108149571Y-129360666D01*
X108101190Y-129263904D01*
X108101190Y-129167142D01*
X108149571Y-129070380D01*
X108197952Y-129022000D01*
X108294714Y-128973619D01*
X108536619Y-128973619D01*
X108681761Y-129022000D01*
X109310714Y-129505809D02*
X109310714Y-129989619D01*
X108972047Y-128973619D02*
X109310714Y-129505809D01*
X109649380Y-128973619D01*
X109746142Y-130086380D02*
X110520238Y-130086380D01*
X111197571Y-129312285D02*
X111197571Y-129989619D01*
X110955666Y-128925238D02*
X110713761Y-129650952D01*
X111342714Y-129650952D01*
X111729761Y-129892857D02*
X111778142Y-129941238D01*
X111729761Y-129989619D01*
X111681380Y-129941238D01*
X111729761Y-129892857D01*
X111729761Y-129989619D01*
X112407095Y-128973619D02*
X112503857Y-128973619D01*
X112600619Y-129022000D01*
X112649000Y-129070380D01*
X112697380Y-129167142D01*
X112745761Y-129360666D01*
X112745761Y-129602571D01*
X112697380Y-129796095D01*
X112649000Y-129892857D01*
X112600619Y-129941238D01*
X112503857Y-129989619D01*
X112407095Y-129989619D01*
X112310333Y-129941238D01*
X112261952Y-129892857D01*
X112213571Y-129796095D01*
X112165190Y-129602571D01*
X112165190Y-129360666D01*
X112213571Y-129167142D01*
X112261952Y-129070380D01*
X112310333Y-129022000D01*
X112407095Y-128973619D01*
D20*
X102690385Y-106462285D02*
X102322690Y-106752571D01*
X102690385Y-107042857D01*
X102920195Y-106752571D02*
X103287890Y-106752571D01*
X103885395Y-107139619D02*
X103885395Y-106123619D01*
X104115204Y-106462285D02*
X104115204Y-107139619D01*
X104115204Y-106559047D02*
X104138185Y-106510666D01*
X104184147Y-106462285D01*
X104253090Y-106462285D01*
X104299052Y-106510666D01*
X104322033Y-106607428D01*
X104322033Y-107139619D01*
X104528861Y-107091238D02*
X104574823Y-107139619D01*
X104666747Y-107139619D01*
X104712709Y-107091238D01*
X104735690Y-106994476D01*
X104735690Y-106946095D01*
X104712709Y-106849333D01*
X104666747Y-106800952D01*
X104597804Y-106800952D01*
X104551842Y-106752571D01*
X104528861Y-106655809D01*
X104528861Y-106607428D01*
X104551842Y-106510666D01*
X104597804Y-106462285D01*
X104666747Y-106462285D01*
X104712709Y-106510666D01*
X105126366Y-107091238D02*
X105080404Y-107139619D01*
X104988480Y-107139619D01*
X104942519Y-107091238D01*
X104919538Y-106994476D01*
X104919538Y-106607428D01*
X104942519Y-106510666D01*
X104988480Y-106462285D01*
X105080404Y-106462285D01*
X105126366Y-106510666D01*
X105149347Y-106607428D01*
X105149347Y-106704190D01*
X104919538Y-106800952D01*
X105356176Y-107139619D02*
X105356176Y-106462285D01*
X105356176Y-106655809D02*
X105379157Y-106559047D01*
X105402138Y-106510666D01*
X105448100Y-106462285D01*
X105494061Y-106462285D01*
X105585985Y-106462285D02*
X105769833Y-106462285D01*
X105654928Y-106123619D02*
X105654928Y-106994476D01*
X105677909Y-107091238D01*
X105723871Y-107139619D01*
X105769833Y-107139619D01*
X106298395Y-107139619D02*
X106298395Y-106123619D01*
X106482242Y-106123619D01*
X106528204Y-106172000D01*
X106551185Y-106220380D01*
X106574166Y-106317142D01*
X106574166Y-106462285D01*
X106551185Y-106559047D01*
X106528204Y-106607428D01*
X106482242Y-106655809D01*
X106298395Y-106655809D01*
X106780995Y-107139619D02*
X106780995Y-106462285D01*
X106780995Y-106123619D02*
X106758014Y-106172000D01*
X106780995Y-106220380D01*
X106803976Y-106172000D01*
X106780995Y-106123619D01*
X106780995Y-106220380D01*
X107010804Y-106462285D02*
X107010804Y-107139619D01*
X107010804Y-106559047D02*
X107033785Y-106510666D01*
X107079747Y-106462285D01*
X107148690Y-106462285D01*
X107194652Y-106510666D01*
X107217633Y-106607428D01*
X107217633Y-107139619D01*
X108090909Y-107139619D02*
X107930042Y-106655809D01*
X107815138Y-107139619D02*
X107815138Y-106123619D01*
X107998985Y-106123619D01*
X108044947Y-106172000D01*
X108067928Y-106220380D01*
X108090909Y-106317142D01*
X108090909Y-106462285D01*
X108067928Y-106559047D01*
X108044947Y-106607428D01*
X107998985Y-106655809D01*
X107815138Y-106655809D01*
X108504566Y-107091238D02*
X108458604Y-107139619D01*
X108366680Y-107139619D01*
X108320719Y-107091238D01*
X108297738Y-107042857D01*
X108274757Y-106946095D01*
X108274757Y-106655809D01*
X108297738Y-106559047D01*
X108320719Y-106510666D01*
X108366680Y-106462285D01*
X108458604Y-106462285D01*
X108504566Y-106510666D01*
X108711395Y-106462285D02*
X108711395Y-107478285D01*
X108711395Y-106510666D02*
X108757357Y-106462285D01*
X108849280Y-106462285D01*
X108895242Y-106510666D01*
X108918223Y-106559047D01*
X108941204Y-106655809D01*
X108941204Y-106946095D01*
X108918223Y-107042857D01*
X108895242Y-107091238D01*
X108849280Y-107139619D01*
X108757357Y-107139619D01*
X108711395Y-107091238D01*
X109079090Y-106462285D02*
X109262938Y-106462285D01*
X109148033Y-106123619D02*
X109148033Y-106994476D01*
X109171014Y-107091238D01*
X109216976Y-107139619D01*
X109262938Y-107139619D01*
X109400823Y-107091238D02*
X109446785Y-107139619D01*
X109538709Y-107139619D01*
X109584671Y-107091238D01*
X109607652Y-106994476D01*
X109607652Y-106946095D01*
X109584671Y-106849333D01*
X109538709Y-106800952D01*
X109469766Y-106800952D01*
X109423804Y-106752571D01*
X109400823Y-106655809D01*
X109400823Y-106607428D01*
X109423804Y-106510666D01*
X109469766Y-106462285D01*
X109538709Y-106462285D01*
X109584671Y-106510666D01*
X110113233Y-106123619D02*
X110389004Y-106123619D01*
X110251119Y-107139619D02*
X110251119Y-106123619D01*
X110549871Y-107139619D02*
X110549871Y-106123619D01*
X110756700Y-107139619D02*
X110756700Y-106607428D01*
X110733719Y-106510666D01*
X110687757Y-106462285D01*
X110618814Y-106462285D01*
X110572852Y-106510666D01*
X110549871Y-106559047D01*
X110986509Y-107139619D02*
X110986509Y-106462285D01*
X110986509Y-106123619D02*
X110963528Y-106172000D01*
X110986509Y-106220380D01*
X111009490Y-106172000D01*
X110986509Y-106123619D01*
X110986509Y-106220380D01*
X111193338Y-107091238D02*
X111239300Y-107139619D01*
X111331223Y-107139619D01*
X111377185Y-107091238D01*
X111400166Y-106994476D01*
X111400166Y-106946095D01*
X111377185Y-106849333D01*
X111331223Y-106800952D01*
X111262280Y-106800952D01*
X111216319Y-106752571D01*
X111193338Y-106655809D01*
X111193338Y-106607428D01*
X111216319Y-106510666D01*
X111262280Y-106462285D01*
X111331223Y-106462285D01*
X111377185Y-106510666D01*
X111951709Y-107091238D02*
X112020652Y-107139619D01*
X112135557Y-107139619D01*
X112181519Y-107091238D01*
X112204500Y-107042857D01*
X112227480Y-106946095D01*
X112227480Y-106849333D01*
X112204500Y-106752571D01*
X112181519Y-106704190D01*
X112135557Y-106655809D01*
X112043633Y-106607428D01*
X111997671Y-106559047D01*
X111974690Y-106510666D01*
X111951709Y-106413904D01*
X111951709Y-106317142D01*
X111974690Y-106220380D01*
X111997671Y-106172000D01*
X112043633Y-106123619D01*
X112158538Y-106123619D01*
X112227480Y-106172000D01*
X112434309Y-107139619D02*
X112434309Y-106462285D01*
X112434309Y-106123619D02*
X112411328Y-106172000D01*
X112434309Y-106220380D01*
X112457290Y-106172000D01*
X112434309Y-106123619D01*
X112434309Y-106220380D01*
X112870947Y-107139619D02*
X112870947Y-106123619D01*
X112870947Y-107091238D02*
X112824985Y-107139619D01*
X112733061Y-107139619D01*
X112687100Y-107091238D01*
X112664119Y-107042857D01*
X112641138Y-106946095D01*
X112641138Y-106655809D01*
X112664119Y-106559047D01*
X112687100Y-106510666D01*
X112733061Y-106462285D01*
X112824985Y-106462285D01*
X112870947Y-106510666D01*
X113284604Y-107091238D02*
X113238642Y-107139619D01*
X113146719Y-107139619D01*
X113100757Y-107091238D01*
X113077776Y-106994476D01*
X113077776Y-106607428D01*
X113100757Y-106510666D01*
X113146719Y-106462285D01*
X113238642Y-106462285D01*
X113284604Y-106510666D01*
X113307585Y-106607428D01*
X113307585Y-106704190D01*
X113077776Y-106800952D01*
X113882109Y-106752571D02*
X114249804Y-106752571D01*
X114479614Y-106462285D02*
X114847309Y-106752571D01*
X114479614Y-107042857D01*
D14*
X104690333Y-116029619D02*
X104690333Y-115352285D01*
X104690333Y-115013619D02*
X104641952Y-115062000D01*
X104690333Y-115110380D01*
X104738714Y-115062000D01*
X104690333Y-115013619D01*
X104690333Y-115110380D01*
X105174142Y-116029619D02*
X105174142Y-115013619D01*
X105512809Y-115739333D01*
X105851476Y-115013619D01*
X105851476Y-116029619D01*
X106238523Y-115013619D02*
X106915857Y-116029619D01*
X106915857Y-115013619D02*
X106238523Y-116029619D01*
X107883476Y-116029619D02*
X107544809Y-115545809D01*
X107302904Y-116029619D02*
X107302904Y-115013619D01*
X107689952Y-115013619D01*
X107786714Y-115062000D01*
X107835095Y-115110380D01*
X107883476Y-115207142D01*
X107883476Y-115352285D01*
X107835095Y-115449047D01*
X107786714Y-115497428D01*
X107689952Y-115545809D01*
X107302904Y-115545809D01*
X108173761Y-115013619D02*
X108754333Y-115013619D01*
X108464047Y-116029619D02*
X108464047Y-115013619D01*
X109625190Y-116029619D02*
X109044619Y-116029619D01*
X109334904Y-116029619D02*
X109334904Y-115013619D01*
X109238142Y-115158761D01*
X109141380Y-115255523D01*
X109044619Y-115303904D01*
X110254142Y-115013619D02*
X110350904Y-115013619D01*
X110447666Y-115062000D01*
X110496047Y-115110380D01*
X110544428Y-115207142D01*
X110592809Y-115400666D01*
X110592809Y-115642571D01*
X110544428Y-115836095D01*
X110496047Y-115932857D01*
X110447666Y-115981238D01*
X110350904Y-116029619D01*
X110254142Y-116029619D01*
X110157380Y-115981238D01*
X110109000Y-115932857D01*
X110060619Y-115836095D01*
X110012238Y-115642571D01*
X110012238Y-115400666D01*
X110060619Y-115207142D01*
X110109000Y-115110380D01*
X110157380Y-115062000D01*
X110254142Y-115013619D01*
X111463666Y-115013619D02*
X111270142Y-115013619D01*
X111173380Y-115062000D01*
X111125000Y-115110380D01*
X111028238Y-115255523D01*
X110979857Y-115449047D01*
X110979857Y-115836095D01*
X111028238Y-115932857D01*
X111076619Y-115981238D01*
X111173380Y-116029619D01*
X111366904Y-116029619D01*
X111463666Y-115981238D01*
X111512047Y-115932857D01*
X111560428Y-115836095D01*
X111560428Y-115594190D01*
X111512047Y-115497428D01*
X111463666Y-115449047D01*
X111366904Y-115400666D01*
X111173380Y-115400666D01*
X111076619Y-115449047D01*
X111028238Y-115497428D01*
X110979857Y-115594190D01*
X111947476Y-115110380D02*
X111995857Y-115062000D01*
X112092619Y-115013619D01*
X112334523Y-115013619D01*
X112431285Y-115062000D01*
X112479666Y-115110380D01*
X112528047Y-115207142D01*
X112528047Y-115303904D01*
X112479666Y-115449047D01*
X111899095Y-116029619D01*
X112528047Y-116029619D01*
%TO.C,SW1*%
D10*
X86910333Y-118521238D02*
X87055476Y-118569619D01*
X87297380Y-118569619D01*
X87394142Y-118521238D01*
X87442523Y-118472857D01*
X87490904Y-118376095D01*
X87490904Y-118279333D01*
X87442523Y-118182571D01*
X87394142Y-118134190D01*
X87297380Y-118085809D01*
X87103857Y-118037428D01*
X87007095Y-117989047D01*
X86958714Y-117940666D01*
X86910333Y-117843904D01*
X86910333Y-117747142D01*
X86958714Y-117650380D01*
X87007095Y-117602000D01*
X87103857Y-117553619D01*
X87345761Y-117553619D01*
X87490904Y-117602000D01*
X87829571Y-117553619D02*
X88071476Y-118569619D01*
X88265000Y-117843904D01*
X88458523Y-118569619D01*
X88700428Y-117553619D01*
X89619666Y-118569619D02*
X89039095Y-118569619D01*
X89329380Y-118569619D02*
X89329380Y-117553619D01*
X89232619Y-117698761D01*
X89135857Y-117795523D01*
X89039095Y-117843904D01*
D21*
X81219523Y-127151190D02*
X81219523Y-126909285D01*
X81280000Y-126788333D01*
X81400952Y-126667380D01*
X81642857Y-126606904D01*
X82066190Y-126606904D01*
X82308095Y-126667380D01*
X82429047Y-126788333D01*
X82489523Y-126909285D01*
X82489523Y-127151190D01*
X82429047Y-127272142D01*
X82308095Y-127393095D01*
X82066190Y-127453571D01*
X81642857Y-127453571D01*
X81400952Y-127393095D01*
X81280000Y-127272142D01*
X81219523Y-127151190D01*
X82489523Y-126062619D02*
X81219523Y-126062619D01*
X82489523Y-125336904D01*
X81219523Y-125336904D01*
X93919523Y-127574523D02*
X93919523Y-127332619D01*
X93980000Y-127211666D01*
X94100952Y-127090714D01*
X94342857Y-127030238D01*
X94766190Y-127030238D01*
X95008095Y-127090714D01*
X95129047Y-127211666D01*
X95189523Y-127332619D01*
X95189523Y-127574523D01*
X95129047Y-127695476D01*
X95008095Y-127816428D01*
X94766190Y-127876904D01*
X94342857Y-127876904D01*
X94100952Y-127816428D01*
X93980000Y-127695476D01*
X93919523Y-127574523D01*
X94524285Y-126062619D02*
X94524285Y-126485952D01*
X95189523Y-126485952D02*
X93919523Y-126485952D01*
X93919523Y-125881190D01*
X94524285Y-124974047D02*
X94524285Y-125397380D01*
X95189523Y-125397380D02*
X93919523Y-125397380D01*
X93919523Y-124792619D01*
%TO.C,P1*%
D10*
X62689619Y-118224904D02*
X61673619Y-118224904D01*
X61673619Y-117837857D01*
X61722000Y-117741095D01*
X61770380Y-117692714D01*
X61867142Y-117644333D01*
X62012285Y-117644333D01*
X62109047Y-117692714D01*
X62157428Y-117741095D01*
X62205809Y-117837857D01*
X62205809Y-118224904D01*
X62689619Y-116676714D02*
X62689619Y-117257285D01*
X62689619Y-116967000D02*
X61673619Y-116967000D01*
X61818761Y-117063761D01*
X61915523Y-117160523D01*
X61963904Y-117257285D01*
%TO.C,L2*%
D16*
X83100333Y-112497809D02*
X82858428Y-112497809D01*
X82858428Y-111989809D01*
X83245476Y-112038190D02*
X83269666Y-112014000D01*
X83318047Y-111989809D01*
X83439000Y-111989809D01*
X83487380Y-112014000D01*
X83511571Y-112038190D01*
X83535761Y-112086571D01*
X83535761Y-112134952D01*
X83511571Y-112207523D01*
X83221285Y-112497809D01*
X83535761Y-112497809D01*
%TO.C,L3*%
X83100333Y-107417809D02*
X82858428Y-107417809D01*
X82858428Y-106909809D01*
X83221285Y-106909809D02*
X83535761Y-106909809D01*
X83366428Y-107103333D01*
X83439000Y-107103333D01*
X83487380Y-107127523D01*
X83511571Y-107151714D01*
X83535761Y-107200095D01*
X83535761Y-107321047D01*
X83511571Y-107369428D01*
X83487380Y-107393619D01*
X83439000Y-107417809D01*
X83293857Y-107417809D01*
X83245476Y-107393619D01*
X83221285Y-107369428D01*
%TO.C,L4*%
X83100333Y-102337809D02*
X82858428Y-102337809D01*
X82858428Y-101829809D01*
X83487380Y-101999142D02*
X83487380Y-102337809D01*
X83366428Y-101805619D02*
X83245476Y-102168476D01*
X83559952Y-102168476D01*
%TO.C,L5*%
X88180333Y-112497809D02*
X87938428Y-112497809D01*
X87938428Y-111989809D01*
X88591571Y-111989809D02*
X88349666Y-111989809D01*
X88325476Y-112231714D01*
X88349666Y-112207523D01*
X88398047Y-112183333D01*
X88519000Y-112183333D01*
X88567380Y-112207523D01*
X88591571Y-112231714D01*
X88615761Y-112280095D01*
X88615761Y-112401047D01*
X88591571Y-112449428D01*
X88567380Y-112473619D01*
X88519000Y-112497809D01*
X88398047Y-112497809D01*
X88349666Y-112473619D01*
X88325476Y-112449428D01*
%TO.C,L6*%
X88180333Y-107417809D02*
X87938428Y-107417809D01*
X87938428Y-106909809D01*
X88567380Y-106909809D02*
X88470619Y-106909809D01*
X88422238Y-106934000D01*
X88398047Y-106958190D01*
X88349666Y-107030761D01*
X88325476Y-107127523D01*
X88325476Y-107321047D01*
X88349666Y-107369428D01*
X88373857Y-107393619D01*
X88422238Y-107417809D01*
X88519000Y-107417809D01*
X88567380Y-107393619D01*
X88591571Y-107369428D01*
X88615761Y-107321047D01*
X88615761Y-107200095D01*
X88591571Y-107151714D01*
X88567380Y-107127523D01*
X88519000Y-107103333D01*
X88422238Y-107103333D01*
X88373857Y-107127523D01*
X88349666Y-107151714D01*
X88325476Y-107200095D01*
%TO.C,L7*%
X88180333Y-102337809D02*
X87938428Y-102337809D01*
X87938428Y-101829809D01*
X88301285Y-101829809D02*
X88639952Y-101829809D01*
X88422238Y-102337809D01*
%TO.C,L8*%
X93260333Y-112497809D02*
X93018428Y-112497809D01*
X93018428Y-111989809D01*
X93502238Y-112207523D02*
X93453857Y-112183333D01*
X93429666Y-112159142D01*
X93405476Y-112110761D01*
X93405476Y-112086571D01*
X93429666Y-112038190D01*
X93453857Y-112014000D01*
X93502238Y-111989809D01*
X93599000Y-111989809D01*
X93647380Y-112014000D01*
X93671571Y-112038190D01*
X93695761Y-112086571D01*
X93695761Y-112110761D01*
X93671571Y-112159142D01*
X93647380Y-112183333D01*
X93599000Y-112207523D01*
X93502238Y-112207523D01*
X93453857Y-112231714D01*
X93429666Y-112255904D01*
X93405476Y-112304285D01*
X93405476Y-112401047D01*
X93429666Y-112449428D01*
X93453857Y-112473619D01*
X93502238Y-112497809D01*
X93599000Y-112497809D01*
X93647380Y-112473619D01*
X93671571Y-112449428D01*
X93695761Y-112401047D01*
X93695761Y-112304285D01*
X93671571Y-112255904D01*
X93647380Y-112231714D01*
X93599000Y-112207523D01*
%TO.C,L9*%
X93260333Y-107417809D02*
X93018428Y-107417809D01*
X93018428Y-106909809D01*
X93453857Y-107417809D02*
X93550619Y-107417809D01*
X93599000Y-107393619D01*
X93623190Y-107369428D01*
X93671571Y-107296857D01*
X93695761Y-107200095D01*
X93695761Y-107006571D01*
X93671571Y-106958190D01*
X93647380Y-106934000D01*
X93599000Y-106909809D01*
X93502238Y-106909809D01*
X93453857Y-106934000D01*
X93429666Y-106958190D01*
X93405476Y-107006571D01*
X93405476Y-107127523D01*
X93429666Y-107175904D01*
X93453857Y-107200095D01*
X93502238Y-107224285D01*
X93599000Y-107224285D01*
X93647380Y-107200095D01*
X93671571Y-107175904D01*
X93695761Y-107127523D01*
%TO.C,L10*%
X93018428Y-102337809D02*
X92776523Y-102337809D01*
X92776523Y-101829809D01*
X93453857Y-102337809D02*
X93163571Y-102337809D01*
X93308714Y-102337809D02*
X93308714Y-101829809D01*
X93260333Y-101902380D01*
X93211952Y-101950761D01*
X93163571Y-101974952D01*
X93768333Y-101829809D02*
X93816714Y-101829809D01*
X93865095Y-101854000D01*
X93889285Y-101878190D01*
X93913476Y-101926571D01*
X93937666Y-102023333D01*
X93937666Y-102144285D01*
X93913476Y-102241047D01*
X93889285Y-102289428D01*
X93865095Y-102313619D01*
X93816714Y-102337809D01*
X93768333Y-102337809D01*
X93719952Y-102313619D01*
X93695761Y-102289428D01*
X93671571Y-102241047D01*
X93647380Y-102144285D01*
X93647380Y-102023333D01*
X93671571Y-101926571D01*
X93695761Y-101878190D01*
X93719952Y-101854000D01*
X93768333Y-101829809D01*
%TO.C,L1*%
X79290333Y-124562809D02*
X79048428Y-124562809D01*
X79048428Y-124054809D01*
X79725761Y-124562809D02*
X79435476Y-124562809D01*
X79580619Y-124562809D02*
X79580619Y-124054809D01*
X79532238Y-124127380D01*
X79483857Y-124175761D01*
X79435476Y-124199952D01*
%TO.C,C1*%
D22*
X63394166Y-109573785D02*
X63363928Y-109604023D01*
X63273214Y-109634261D01*
X63212738Y-109634261D01*
X63122023Y-109604023D01*
X63061547Y-109543547D01*
X63031309Y-109483071D01*
X63001071Y-109362119D01*
X63001071Y-109271404D01*
X63031309Y-109150452D01*
X63061547Y-109089976D01*
X63122023Y-109029500D01*
X63212738Y-108999261D01*
X63273214Y-108999261D01*
X63363928Y-109029500D01*
X63394166Y-109059738D01*
X63998928Y-109634261D02*
X63636071Y-109634261D01*
X63817500Y-109634261D02*
X63817500Y-108999261D01*
X63757023Y-109089976D01*
X63696547Y-109150452D01*
X63636071Y-109180690D01*
X62819642Y-105570261D02*
X62456785Y-105570261D01*
X62638214Y-105570261D02*
X62638214Y-104935261D01*
X62577738Y-105025976D01*
X62517261Y-105086452D01*
X62456785Y-105116690D01*
X63212738Y-104935261D02*
X63273214Y-104935261D01*
X63333690Y-104965500D01*
X63363928Y-104995738D01*
X63394166Y-105056214D01*
X63424404Y-105177166D01*
X63424404Y-105328357D01*
X63394166Y-105449309D01*
X63363928Y-105509785D01*
X63333690Y-105540023D01*
X63273214Y-105570261D01*
X63212738Y-105570261D01*
X63152261Y-105540023D01*
X63122023Y-105509785D01*
X63091785Y-105449309D01*
X63061547Y-105328357D01*
X63061547Y-105177166D01*
X63091785Y-105056214D01*
X63122023Y-104995738D01*
X63152261Y-104965500D01*
X63212738Y-104935261D01*
X63968690Y-105146928D02*
X63968690Y-105570261D01*
X63696547Y-105146928D02*
X63696547Y-105479547D01*
X63726785Y-105540023D01*
X63787261Y-105570261D01*
X63877976Y-105570261D01*
X63938452Y-105540023D01*
X63968690Y-105509785D01*
X64482738Y-105237642D02*
X64271071Y-105237642D01*
X64271071Y-105570261D02*
X64271071Y-104935261D01*
X64573452Y-104935261D01*
%TO.C,D1*%
D10*
X67195095Y-103174619D02*
X67195095Y-102158619D01*
X67437000Y-102158619D01*
X67582142Y-102207000D01*
X67678904Y-102303761D01*
X67727285Y-102400523D01*
X67775666Y-102594047D01*
X67775666Y-102739190D01*
X67727285Y-102932714D01*
X67678904Y-103029476D01*
X67582142Y-103126238D01*
X67437000Y-103174619D01*
X67195095Y-103174619D01*
X68743285Y-103174619D02*
X68162714Y-103174619D01*
X68453000Y-103174619D02*
X68453000Y-102158619D01*
X68356238Y-102303761D01*
X68259476Y-102400523D01*
X68162714Y-102448904D01*
%TD*%
%LPC*%
D23*
%TO.C,S1*%
X52705000Y-75565000D03*
X52705000Y-78105000D03*
%TD*%
%TO.C,S2*%
X52705000Y-67945000D03*
X52705000Y-70485000D03*
%TD*%
%TO.C,S3*%
X52705000Y-60325000D03*
X52705000Y-62865000D03*
%TD*%
%TO.C,S4*%
X80645000Y-75565000D03*
X80645000Y-78105000D03*
%TD*%
%TO.C,S5*%
X80645000Y-67945000D03*
X80645000Y-70485000D03*
%TD*%
%TO.C,S6*%
X80645000Y-60325000D03*
X80645000Y-62865000D03*
%TD*%
%TO.C,S7*%
X108585000Y-75565000D03*
X108585000Y-78105000D03*
%TD*%
%TO.C,S8*%
X108585000Y-67945000D03*
X108585000Y-70485000D03*
%TD*%
%TO.C,S9*%
X108585000Y-60325000D03*
X108585000Y-62865000D03*
%TD*%
D24*
%TO.C,TEENSY1*%
X100965000Y-129540000D03*
X100965000Y-127000000D03*
X100965000Y-124460000D03*
X100965000Y-121920000D03*
X100965000Y-119380000D03*
X100965000Y-116840000D03*
X100965000Y-114300000D03*
X100965000Y-111760000D03*
X100965000Y-109220000D03*
X100965000Y-106680000D03*
X100965000Y-104140000D03*
X100965000Y-101600000D03*
X100965000Y-99060000D03*
X100965000Y-96520000D03*
X116205000Y-96520000D03*
X116205000Y-99060000D03*
X116205000Y-101600000D03*
X116205000Y-104140000D03*
X116205000Y-106680000D03*
X116205000Y-109220000D03*
X116205000Y-111760000D03*
X116205000Y-114300000D03*
X116205000Y-116840000D03*
X116205000Y-119380000D03*
X116205000Y-121920000D03*
X116205000Y-124460000D03*
X116205000Y-127000000D03*
D25*
X116205000Y-129540000D03*
%TD*%
D26*
%TO.C,SW1*%
X84580000Y-120470000D03*
X91950000Y-120470000D03*
D27*
X88265000Y-120470000D03*
D28*
X93265000Y-129540000D03*
X83265000Y-129540000D03*
%TD*%
D29*
%TO.C,P1*%
X67945000Y-127175000D03*
D30*
X74395000Y-123375000D03*
X61495000Y-123375000D03*
D31*
X68595000Y-114425000D03*
%TD*%
D32*
%TO.C,L2*%
X83185000Y-113245900D03*
X83185000Y-115354100D03*
%TD*%
%TO.C,L3*%
X83185000Y-108165900D03*
X83185000Y-110274100D03*
%TD*%
%TO.C,L4*%
X83185000Y-103085900D03*
X83185000Y-105194100D03*
%TD*%
%TO.C,L5*%
X88265000Y-113245900D03*
X88265000Y-115354100D03*
%TD*%
%TO.C,L6*%
X88265000Y-108165900D03*
X88265000Y-110274100D03*
%TD*%
%TO.C,L7*%
X88265000Y-103085900D03*
X88265000Y-105194100D03*
%TD*%
%TO.C,L8*%
X93345000Y-113245900D03*
X93345000Y-115354100D03*
%TD*%
%TO.C,L9*%
X93345000Y-108165900D03*
X93345000Y-110274100D03*
%TD*%
%TO.C,L10*%
X93345000Y-103085900D03*
X93345000Y-105194100D03*
%TD*%
%TO.C,L1*%
X79375000Y-125310900D03*
X79375000Y-127419100D03*
%TD*%
D33*
%TO.C,FID1*%
X53975000Y-53975000D03*
%TD*%
%TO.C,FID2*%
X122555000Y-53975000D03*
%TD*%
%TO.C,FID3*%
X122555000Y-128270000D03*
%TD*%
%TO.C,FID4*%
X53975000Y-128270000D03*
%TD*%
D34*
%TO.C,MH1*%
X92710000Y-85090000D03*
%TD*%
%TO.C,MH2*%
X64770000Y-56515000D03*
%TD*%
%TO.C,MH3*%
X120650000Y-56515000D03*
%TD*%
D35*
%TO.C,C1*%
X63500000Y-108356400D03*
X63500000Y-106273600D03*
%TD*%
D36*
%TO.C,D1*%
X66880000Y-110095000D03*
X69010000Y-110095000D03*
D37*
X67945000Y-106295000D03*
%TD*%
M02*
