%FSLAX45Y45*%
G04 Gerber Fmt 4.5, Leading zero omitted, Abs format (unit mm)*
G04 Created by KiCad (PCBNEW 5.1.6-c6e7f7d~87~ubuntu20.04.1) date 2020-07-21 15:37:22*
%MOMM*%
%LPD*%
G01*
G04 APERTURE LIST*
%TA.AperFunction,Profile*%
%ADD10C,0.279400*%
%TD*%
%ADD11C,0.200000*%
%ADD12C,0.300000*%
G04 APERTURE END LIST*
D10*
X12573000Y-13462000D02*
G75*
G02*
X11938000Y-14097000I-635000J0D01*
G01*
X5715000Y-14097000D02*
G75*
G02*
X5080000Y-13462000I0J635000D01*
G01*
X11938000Y-5080000D02*
G75*
G02*
X12573000Y-5715000I0J-635000D01*
G01*
X5080000Y-5715000D02*
G75*
G02*
X5715000Y-5080000I635000J0D01*
G01*
X5715000Y-5080000D02*
X11938000Y-5080000D01*
X5080000Y-13462000D02*
X5080000Y-5715000D01*
X11938000Y-14097000D02*
X5715000Y-14097000D01*
X12573000Y-5715000D02*
X12573000Y-13462000D01*
D11*
X7505700Y-9855200D02*
X7607300Y-9956800D01*
X7607300Y-9855200D02*
X7505700Y-9956800D01*
X7505700Y-10109200D02*
X7607300Y-10210800D01*
X7607300Y-10109200D02*
X7505700Y-10210800D01*
X7505700Y-10363200D02*
X7607300Y-10464800D01*
X7607300Y-10363200D02*
X7505700Y-10464800D01*
X7505700Y-10617200D02*
X7607300Y-10718800D01*
X7607300Y-10617200D02*
X7505700Y-10718800D01*
X7505700Y-10871200D02*
X7607300Y-10972800D01*
X7607300Y-10871200D02*
X7505700Y-10972800D01*
X7505700Y-11125200D02*
X7607300Y-11226800D01*
X7607300Y-11125200D02*
X7505700Y-11226800D01*
X7505700Y-11379200D02*
X7607300Y-11480800D01*
X7607300Y-11379200D02*
X7505700Y-11480800D01*
X7505700Y-11633200D02*
X7607300Y-11734800D01*
X7607300Y-11633200D02*
X7505700Y-11734800D01*
X7505700Y-11887200D02*
X7607300Y-11988800D01*
X7607300Y-11887200D02*
X7505700Y-11988800D01*
X7505700Y-12141200D02*
X7607300Y-12242800D01*
X7607300Y-12141200D02*
X7505700Y-12242800D01*
X7505700Y-12395200D02*
X7607300Y-12496800D01*
X7607300Y-12395200D02*
X7505700Y-12496800D01*
X7505700Y-12649200D02*
X7607300Y-12750800D01*
X7607300Y-12649200D02*
X7505700Y-12750800D01*
X7505700Y-12903200D02*
X7607300Y-13004800D01*
X7607300Y-12903200D02*
X7505700Y-13004800D01*
X7505700Y-13157200D02*
X7607300Y-13258800D01*
X7607300Y-13157200D02*
X7505700Y-13258800D01*
X7505700Y-13411200D02*
X7607300Y-13512800D01*
X7607300Y-13411200D02*
X7505700Y-13512800D01*
X7505700Y-13665200D02*
X7607300Y-13766800D01*
X7607300Y-13665200D02*
X7505700Y-13766800D01*
X10045700Y-9855200D02*
X10147300Y-9956800D01*
X10147300Y-9855200D02*
X10045700Y-9956800D01*
X10045700Y-10109200D02*
X10147300Y-10210800D01*
X10147300Y-10109200D02*
X10045700Y-10210800D01*
X10045700Y-10363200D02*
X10147300Y-10464800D01*
X10147300Y-10363200D02*
X10045700Y-10464800D01*
X10045700Y-10617200D02*
X10147300Y-10718800D01*
X10147300Y-10617200D02*
X10045700Y-10718800D01*
X10045700Y-10871200D02*
X10147300Y-10972800D01*
X10147300Y-10871200D02*
X10045700Y-10972800D01*
X10045700Y-11125200D02*
X10147300Y-11226800D01*
X10147300Y-11125200D02*
X10045700Y-11226800D01*
X10045700Y-11379200D02*
X10147300Y-11480800D01*
X10147300Y-11379200D02*
X10045700Y-11480800D01*
X10045700Y-11633200D02*
X10147300Y-11734800D01*
X10147300Y-11633200D02*
X10045700Y-11734800D01*
X10045700Y-11887200D02*
X10147300Y-11988800D01*
X10147300Y-11887200D02*
X10045700Y-11988800D01*
X10045700Y-12141200D02*
X10147300Y-12242800D01*
X10147300Y-12141200D02*
X10045700Y-12242800D01*
X10045700Y-12395200D02*
X10147300Y-12496800D01*
X10147300Y-12395200D02*
X10045700Y-12496800D01*
X10045700Y-12649200D02*
X10147300Y-12750800D01*
X10147300Y-12649200D02*
X10045700Y-12750800D01*
X10045700Y-12903200D02*
X10147300Y-13004800D01*
X10147300Y-12903200D02*
X10045700Y-13004800D01*
X10045700Y-13157200D02*
X10147300Y-13258800D01*
X10147300Y-13157200D02*
X10045700Y-13258800D01*
X10045700Y-13411200D02*
X10147300Y-13512800D01*
X10147300Y-13411200D02*
X10045700Y-13512800D01*
X10045700Y-13665200D02*
X10147300Y-13766800D01*
X10147300Y-13665200D02*
X10045700Y-13766800D01*
X8140700Y-6794500D02*
G75*
G03*
X8140700Y-6794500I-76200J0D01*
G01*
X8140700Y-7048500D02*
G75*
G03*
X8140700Y-7048500I-76200J0D01*
G01*
X10934700Y-6794500D02*
G75*
G03*
X10934700Y-6794500I-76200J0D01*
G01*
X10934700Y-7048500D02*
G75*
G03*
X10934700Y-7048500I-76200J0D01*
G01*
X10934700Y-7556500D02*
G75*
G03*
X10934700Y-7556500I-76200J0D01*
G01*
X10934700Y-7810500D02*
G75*
G03*
X10934700Y-7810500I-76200J0D01*
G01*
X8140700Y-7556500D02*
G75*
G03*
X8140700Y-7556500I-76200J0D01*
G01*
X8140700Y-7810500D02*
G75*
G03*
X8140700Y-7810500I-76200J0D01*
G01*
X5346700Y-6794500D02*
G75*
G03*
X5346700Y-6794500I-76200J0D01*
G01*
X5346700Y-7048500D02*
G75*
G03*
X5346700Y-7048500I-76200J0D01*
G01*
X5346700Y-7556500D02*
G75*
G03*
X5346700Y-7556500I-76200J0D01*
G01*
X5346700Y-7810500D02*
G75*
G03*
X5346700Y-7810500I-76200J0D01*
G01*
X5346700Y-6032500D02*
G75*
G03*
X5346700Y-6032500I-76200J0D01*
G01*
X5346700Y-6286500D02*
G75*
G03*
X5346700Y-6286500I-76200J0D01*
G01*
X8140700Y-6032500D02*
G75*
G03*
X8140700Y-6032500I-76200J0D01*
G01*
X8140700Y-6286500D02*
G75*
G03*
X8140700Y-6286500I-76200J0D01*
G01*
X10934700Y-6032500D02*
G75*
G03*
X10934700Y-6032500I-76200J0D01*
G01*
X10934700Y-6286500D02*
G75*
G03*
X10934700Y-6286500I-76200J0D01*
G01*
X8416500Y-12688000D02*
X8416500Y-12858000D01*
X8331500Y-12773000D02*
X8501500Y-12773000D01*
X9236500Y-12688000D02*
X9236500Y-12858000D01*
X9151500Y-12773000D02*
X9321500Y-12773000D01*
X9387744Y-8625744D02*
X9387744Y-8392256D01*
X9154256Y-8392256D01*
X9154256Y-8625744D01*
X9387744Y-8625744D01*
X6593744Y-5768244D02*
X6593744Y-5534756D01*
X6360256Y-5534756D01*
X6360256Y-5768244D01*
X6593744Y-5768244D01*
X12181744Y-5768244D02*
X12181744Y-5534756D01*
X11948256Y-5534756D01*
X11948256Y-5768244D01*
X12181744Y-5768244D01*
X8826500Y-12783000D02*
X9036500Y-12573000D01*
X8826500Y-12363000D01*
X8616500Y-12573000D01*
X8826500Y-12783000D01*
X5694680Y-6710680D02*
X6116320Y-7132320D01*
X6116320Y-6710680D02*
X5694680Y-7132320D01*
X6116320Y-6921500D02*
G75*
G03*
X6116320Y-6921500I-210820J0D01*
G01*
X5694680Y-13314680D02*
X6116320Y-13736320D01*
X6116320Y-13314680D02*
X5694680Y-13736320D01*
X6116320Y-13525500D02*
G75*
G03*
X6116320Y-13525500I-210820J0D01*
G01*
X11536680Y-6710680D02*
X11958320Y-7132320D01*
X11958320Y-6710680D02*
X11536680Y-7132320D01*
X11958320Y-6921500D02*
G75*
G03*
X11958320Y-6921500I-210820J0D01*
G01*
X11536680Y-13314680D02*
X11958320Y-13736320D01*
X11958320Y-13314680D02*
X11536680Y-13736320D01*
X11958320Y-13525500D02*
G75*
G03*
X11958320Y-13525500I-210820J0D01*
G01*
D12*
X5352458Y-14576684D02*
X5352458Y-14276684D01*
X5423887Y-14276684D01*
X5466744Y-14290970D01*
X5495316Y-14319541D01*
X5509601Y-14348113D01*
X5523887Y-14405256D01*
X5523887Y-14448113D01*
X5509601Y-14505256D01*
X5495316Y-14533827D01*
X5466744Y-14562399D01*
X5423887Y-14576684D01*
X5352458Y-14576684D01*
X5652458Y-14576684D02*
X5652458Y-14376684D01*
X5652458Y-14433827D02*
X5666744Y-14405256D01*
X5681030Y-14390970D01*
X5709601Y-14376684D01*
X5738173Y-14376684D01*
X5838173Y-14576684D02*
X5838173Y-14376684D01*
X5838173Y-14276684D02*
X5823887Y-14290970D01*
X5838173Y-14305256D01*
X5852458Y-14290970D01*
X5838173Y-14276684D01*
X5838173Y-14305256D01*
X6023887Y-14576684D02*
X5995316Y-14562399D01*
X5981030Y-14533827D01*
X5981030Y-14276684D01*
X6181030Y-14576684D02*
X6152458Y-14562399D01*
X6138173Y-14533827D01*
X6138173Y-14276684D01*
X6523887Y-14576684D02*
X6523887Y-14276684D01*
X6623887Y-14490970D01*
X6723887Y-14276684D01*
X6723887Y-14576684D01*
X6995316Y-14576684D02*
X6995316Y-14419541D01*
X6981030Y-14390970D01*
X6952458Y-14376684D01*
X6895316Y-14376684D01*
X6866744Y-14390970D01*
X6995316Y-14562399D02*
X6966744Y-14576684D01*
X6895316Y-14576684D01*
X6866744Y-14562399D01*
X6852458Y-14533827D01*
X6852458Y-14505256D01*
X6866744Y-14476684D01*
X6895316Y-14462399D01*
X6966744Y-14462399D01*
X6995316Y-14448113D01*
X7138173Y-14376684D02*
X7138173Y-14676684D01*
X7138173Y-14390970D02*
X7166744Y-14376684D01*
X7223887Y-14376684D01*
X7252458Y-14390970D01*
X7266744Y-14405256D01*
X7281030Y-14433827D01*
X7281030Y-14519541D01*
X7266744Y-14548113D01*
X7252458Y-14562399D01*
X7223887Y-14576684D01*
X7166744Y-14576684D01*
X7138173Y-14562399D01*
X7409601Y-14548113D02*
X7423887Y-14562399D01*
X7409601Y-14576684D01*
X7395316Y-14562399D01*
X7409601Y-14548113D01*
X7409601Y-14576684D01*
X7409601Y-14390970D02*
X7423887Y-14405256D01*
X7409601Y-14419541D01*
X7395316Y-14405256D01*
X7409601Y-14390970D01*
X7409601Y-14419541D01*
X4964430Y-15020170D02*
X5066030Y-15121770D01*
X5066030Y-15020170D02*
X4964430Y-15121770D01*
X5509601Y-15206684D02*
X5338173Y-15206684D01*
X5423887Y-15206684D02*
X5423887Y-14906684D01*
X5395316Y-14949541D01*
X5366744Y-14978113D01*
X5338173Y-14992399D01*
X5638173Y-15178113D02*
X5652458Y-15192399D01*
X5638173Y-15206684D01*
X5623887Y-15192399D01*
X5638173Y-15178113D01*
X5638173Y-15206684D01*
X5838173Y-14906684D02*
X5866744Y-14906684D01*
X5895316Y-14920970D01*
X5909601Y-14935256D01*
X5923887Y-14963827D01*
X5938173Y-15020970D01*
X5938173Y-15092399D01*
X5923887Y-15149541D01*
X5909601Y-15178113D01*
X5895316Y-15192399D01*
X5866744Y-15206684D01*
X5838173Y-15206684D01*
X5809601Y-15192399D01*
X5795316Y-15178113D01*
X5781030Y-15149541D01*
X5766744Y-15092399D01*
X5766744Y-15020970D01*
X5781030Y-14963827D01*
X5795316Y-14935256D01*
X5809601Y-14920970D01*
X5838173Y-14906684D01*
X6052458Y-14935256D02*
X6066744Y-14920970D01*
X6095316Y-14906684D01*
X6166744Y-14906684D01*
X6195316Y-14920970D01*
X6209601Y-14935256D01*
X6223887Y-14963827D01*
X6223887Y-14992399D01*
X6209601Y-15035256D01*
X6038173Y-15206684D01*
X6223887Y-15206684D01*
X6352458Y-15206684D02*
X6352458Y-15006684D01*
X6352458Y-15035256D02*
X6366744Y-15020970D01*
X6395316Y-15006684D01*
X6438173Y-15006684D01*
X6466744Y-15020970D01*
X6481030Y-15049541D01*
X6481030Y-15206684D01*
X6481030Y-15049541D02*
X6495316Y-15020970D01*
X6523887Y-15006684D01*
X6566744Y-15006684D01*
X6595316Y-15020970D01*
X6609601Y-15049541D01*
X6609601Y-15206684D01*
X6752458Y-15206684D02*
X6752458Y-15006684D01*
X6752458Y-15035256D02*
X6766744Y-15020970D01*
X6795316Y-15006684D01*
X6838173Y-15006684D01*
X6866744Y-15020970D01*
X6881030Y-15049541D01*
X6881030Y-15206684D01*
X6881030Y-15049541D02*
X6895316Y-15020970D01*
X6923887Y-15006684D01*
X6966744Y-15006684D01*
X6995316Y-15020970D01*
X7009601Y-15049541D01*
X7009601Y-15206684D01*
X7595316Y-14892399D02*
X7338173Y-15278113D01*
X7981030Y-14906684D02*
X8009601Y-14906684D01*
X8038173Y-14920970D01*
X8052458Y-14935256D01*
X8066744Y-14963827D01*
X8081030Y-15020970D01*
X8081030Y-15092399D01*
X8066744Y-15149541D01*
X8052458Y-15178113D01*
X8038173Y-15192399D01*
X8009601Y-15206684D01*
X7981030Y-15206684D01*
X7952458Y-15192399D01*
X7938173Y-15178113D01*
X7923887Y-15149541D01*
X7909601Y-15092399D01*
X7909601Y-15020970D01*
X7923887Y-14963827D01*
X7938173Y-14935256D01*
X7952458Y-14920970D01*
X7981030Y-14906684D01*
X8209601Y-15178113D02*
X8223887Y-15192399D01*
X8209601Y-15206684D01*
X8195316Y-15192399D01*
X8209601Y-15178113D01*
X8209601Y-15206684D01*
X8409601Y-14906684D02*
X8438173Y-14906684D01*
X8466744Y-14920970D01*
X8481030Y-14935256D01*
X8495316Y-14963827D01*
X8509601Y-15020970D01*
X8509601Y-15092399D01*
X8495316Y-15149541D01*
X8481030Y-15178113D01*
X8466744Y-15192399D01*
X8438173Y-15206684D01*
X8409601Y-15206684D01*
X8381030Y-15192399D01*
X8366744Y-15178113D01*
X8352458Y-15149541D01*
X8338173Y-15092399D01*
X8338173Y-15020970D01*
X8352458Y-14963827D01*
X8366744Y-14935256D01*
X8381030Y-14920970D01*
X8409601Y-14906684D01*
X8766744Y-15006684D02*
X8766744Y-15206684D01*
X8695316Y-14892399D02*
X8623887Y-15106684D01*
X8809601Y-15106684D01*
X8981030Y-14906684D02*
X9009601Y-14906684D01*
X9038173Y-14920970D01*
X9052458Y-14935256D01*
X9066744Y-14963827D01*
X9081030Y-15020970D01*
X9081030Y-15092399D01*
X9066744Y-15149541D01*
X9052458Y-15178113D01*
X9038173Y-15192399D01*
X9009601Y-15206684D01*
X8981030Y-15206684D01*
X8952458Y-15192399D01*
X8938173Y-15178113D01*
X8923887Y-15149541D01*
X8909601Y-15092399D01*
X8909601Y-15020970D01*
X8923887Y-14963827D01*
X8938173Y-14935256D01*
X8952458Y-14920970D01*
X8981030Y-14906684D01*
X9195316Y-14906684D02*
X9195316Y-14963827D01*
X9309601Y-14906684D02*
X9309601Y-14963827D01*
X9752458Y-15320970D02*
X9738173Y-15306684D01*
X9709601Y-15263827D01*
X9695316Y-15235256D01*
X9681030Y-15192399D01*
X9666744Y-15120970D01*
X9666744Y-15063827D01*
X9681030Y-14992399D01*
X9695316Y-14949541D01*
X9709601Y-14920970D01*
X9738173Y-14878113D01*
X9752458Y-14863827D01*
X9838173Y-14906684D02*
X10023887Y-14906684D01*
X9923887Y-15020970D01*
X9966744Y-15020970D01*
X9995316Y-15035256D01*
X10009601Y-15049541D01*
X10023887Y-15078113D01*
X10023887Y-15149541D01*
X10009601Y-15178113D01*
X9995316Y-15192399D01*
X9966744Y-15206684D01*
X9881030Y-15206684D01*
X9852458Y-15192399D01*
X9838173Y-15178113D01*
X10138173Y-14935256D02*
X10152458Y-14920970D01*
X10181030Y-14906684D01*
X10252458Y-14906684D01*
X10281030Y-14920970D01*
X10295316Y-14935256D01*
X10309601Y-14963827D01*
X10309601Y-14992399D01*
X10295316Y-15035256D01*
X10123887Y-15206684D01*
X10309601Y-15206684D01*
X10666744Y-15206684D02*
X10666744Y-14906684D01*
X10795316Y-15206684D02*
X10795316Y-15049541D01*
X10781030Y-15020970D01*
X10752458Y-15006684D01*
X10709601Y-15006684D01*
X10681030Y-15020970D01*
X10666744Y-15035256D01*
X10981030Y-15206684D02*
X10952458Y-15192399D01*
X10938173Y-15178113D01*
X10923887Y-15149541D01*
X10923887Y-15063827D01*
X10938173Y-15035256D01*
X10952458Y-15020970D01*
X10981030Y-15006684D01*
X11023887Y-15006684D01*
X11052458Y-15020970D01*
X11066744Y-15035256D01*
X11081030Y-15063827D01*
X11081030Y-15149541D01*
X11066744Y-15178113D01*
X11052458Y-15192399D01*
X11023887Y-15206684D01*
X10981030Y-15206684D01*
X11252458Y-15206684D02*
X11223887Y-15192399D01*
X11209601Y-15163827D01*
X11209601Y-14906684D01*
X11481030Y-15192399D02*
X11452458Y-15206684D01*
X11395316Y-15206684D01*
X11366744Y-15192399D01*
X11352458Y-15163827D01*
X11352458Y-15049541D01*
X11366744Y-15020970D01*
X11395316Y-15006684D01*
X11452458Y-15006684D01*
X11481030Y-15020970D01*
X11495316Y-15049541D01*
X11495316Y-15078113D01*
X11352458Y-15106684D01*
X11609601Y-15192399D02*
X11638173Y-15206684D01*
X11695316Y-15206684D01*
X11723887Y-15192399D01*
X11738173Y-15163827D01*
X11738173Y-15149541D01*
X11723887Y-15120970D01*
X11695316Y-15106684D01*
X11652458Y-15106684D01*
X11623887Y-15092399D01*
X11609601Y-15063827D01*
X11609601Y-15049541D01*
X11623887Y-15020970D01*
X11652458Y-15006684D01*
X11695316Y-15006684D01*
X11723887Y-15020970D01*
X11838173Y-15320970D02*
X11852458Y-15306684D01*
X11881030Y-15263827D01*
X11895316Y-15235256D01*
X11909601Y-15192399D01*
X11923887Y-15120970D01*
X11923887Y-15063827D01*
X11909601Y-14992399D01*
X11895316Y-14949541D01*
X11881030Y-14920970D01*
X11852458Y-14878113D01*
X11838173Y-14863827D01*
X5066030Y-15466970D02*
G75*
G03*
X5066030Y-15466970I-76200J0D01*
G01*
X5509601Y-15602684D02*
X5338173Y-15602684D01*
X5423887Y-15602684D02*
X5423887Y-15302684D01*
X5395316Y-15345541D01*
X5366744Y-15374113D01*
X5338173Y-15388399D01*
X5638173Y-15574113D02*
X5652458Y-15588399D01*
X5638173Y-15602684D01*
X5623887Y-15588399D01*
X5638173Y-15574113D01*
X5638173Y-15602684D01*
X5923887Y-15302684D02*
X5781030Y-15302684D01*
X5766744Y-15445541D01*
X5781030Y-15431256D01*
X5809601Y-15416970D01*
X5881030Y-15416970D01*
X5909601Y-15431256D01*
X5923887Y-15445541D01*
X5938173Y-15474113D01*
X5938173Y-15545541D01*
X5923887Y-15574113D01*
X5909601Y-15588399D01*
X5881030Y-15602684D01*
X5809601Y-15602684D01*
X5781030Y-15588399D01*
X5766744Y-15574113D01*
X6052458Y-15331256D02*
X6066744Y-15316970D01*
X6095316Y-15302684D01*
X6166744Y-15302684D01*
X6195316Y-15316970D01*
X6209601Y-15331256D01*
X6223887Y-15359827D01*
X6223887Y-15388399D01*
X6209601Y-15431256D01*
X6038173Y-15602684D01*
X6223887Y-15602684D01*
X6352458Y-15602684D02*
X6352458Y-15402684D01*
X6352458Y-15431256D02*
X6366744Y-15416970D01*
X6395316Y-15402684D01*
X6438173Y-15402684D01*
X6466744Y-15416970D01*
X6481030Y-15445541D01*
X6481030Y-15602684D01*
X6481030Y-15445541D02*
X6495316Y-15416970D01*
X6523887Y-15402684D01*
X6566744Y-15402684D01*
X6595316Y-15416970D01*
X6609601Y-15445541D01*
X6609601Y-15602684D01*
X6752458Y-15602684D02*
X6752458Y-15402684D01*
X6752458Y-15431256D02*
X6766744Y-15416970D01*
X6795316Y-15402684D01*
X6838173Y-15402684D01*
X6866744Y-15416970D01*
X6881030Y-15445541D01*
X6881030Y-15602684D01*
X6881030Y-15445541D02*
X6895316Y-15416970D01*
X6923887Y-15402684D01*
X6966744Y-15402684D01*
X6995316Y-15416970D01*
X7009601Y-15445541D01*
X7009601Y-15602684D01*
X7595316Y-15288399D02*
X7338173Y-15674113D01*
X7981030Y-15302684D02*
X8009601Y-15302684D01*
X8038173Y-15316970D01*
X8052458Y-15331256D01*
X8066744Y-15359827D01*
X8081030Y-15416970D01*
X8081030Y-15488399D01*
X8066744Y-15545541D01*
X8052458Y-15574113D01*
X8038173Y-15588399D01*
X8009601Y-15602684D01*
X7981030Y-15602684D01*
X7952458Y-15588399D01*
X7938173Y-15574113D01*
X7923887Y-15545541D01*
X7909601Y-15488399D01*
X7909601Y-15416970D01*
X7923887Y-15359827D01*
X7938173Y-15331256D01*
X7952458Y-15316970D01*
X7981030Y-15302684D01*
X8209601Y-15574113D02*
X8223887Y-15588399D01*
X8209601Y-15602684D01*
X8195316Y-15588399D01*
X8209601Y-15574113D01*
X8209601Y-15602684D01*
X8409601Y-15302684D02*
X8438173Y-15302684D01*
X8466744Y-15316970D01*
X8481030Y-15331256D01*
X8495316Y-15359827D01*
X8509601Y-15416970D01*
X8509601Y-15488399D01*
X8495316Y-15545541D01*
X8481030Y-15574113D01*
X8466744Y-15588399D01*
X8438173Y-15602684D01*
X8409601Y-15602684D01*
X8381030Y-15588399D01*
X8366744Y-15574113D01*
X8352458Y-15545541D01*
X8338173Y-15488399D01*
X8338173Y-15416970D01*
X8352458Y-15359827D01*
X8366744Y-15331256D01*
X8381030Y-15316970D01*
X8409601Y-15302684D01*
X8766744Y-15302684D02*
X8709601Y-15302684D01*
X8681030Y-15316970D01*
X8666744Y-15331256D01*
X8638173Y-15374113D01*
X8623887Y-15431256D01*
X8623887Y-15545541D01*
X8638173Y-15574113D01*
X8652458Y-15588399D01*
X8681030Y-15602684D01*
X8738173Y-15602684D01*
X8766744Y-15588399D01*
X8781030Y-15574113D01*
X8795316Y-15545541D01*
X8795316Y-15474113D01*
X8781030Y-15445541D01*
X8766744Y-15431256D01*
X8738173Y-15416970D01*
X8681030Y-15416970D01*
X8652458Y-15431256D01*
X8638173Y-15445541D01*
X8623887Y-15474113D01*
X8981030Y-15302684D02*
X9009601Y-15302684D01*
X9038173Y-15316970D01*
X9052458Y-15331256D01*
X9066744Y-15359827D01*
X9081030Y-15416970D01*
X9081030Y-15488399D01*
X9066744Y-15545541D01*
X9052458Y-15574113D01*
X9038173Y-15588399D01*
X9009601Y-15602684D01*
X8981030Y-15602684D01*
X8952458Y-15588399D01*
X8938173Y-15574113D01*
X8923887Y-15545541D01*
X8909601Y-15488399D01*
X8909601Y-15416970D01*
X8923887Y-15359827D01*
X8938173Y-15331256D01*
X8952458Y-15316970D01*
X8981030Y-15302684D01*
X9195316Y-15302684D02*
X9195316Y-15359827D01*
X9309601Y-15302684D02*
X9309601Y-15359827D01*
X9752458Y-15716970D02*
X9738173Y-15702684D01*
X9709601Y-15659827D01*
X9695316Y-15631256D01*
X9681030Y-15588399D01*
X9666744Y-15516970D01*
X9666744Y-15459827D01*
X9681030Y-15388399D01*
X9695316Y-15345541D01*
X9709601Y-15316970D01*
X9738173Y-15274113D01*
X9752458Y-15259827D01*
X10023887Y-15602684D02*
X9852458Y-15602684D01*
X9938173Y-15602684D02*
X9938173Y-15302684D01*
X9909601Y-15345541D01*
X9881030Y-15374113D01*
X9852458Y-15388399D01*
X10195316Y-15431256D02*
X10166744Y-15416970D01*
X10152458Y-15402684D01*
X10138173Y-15374113D01*
X10138173Y-15359827D01*
X10152458Y-15331256D01*
X10166744Y-15316970D01*
X10195316Y-15302684D01*
X10252458Y-15302684D01*
X10281030Y-15316970D01*
X10295316Y-15331256D01*
X10309601Y-15359827D01*
X10309601Y-15374113D01*
X10295316Y-15402684D01*
X10281030Y-15416970D01*
X10252458Y-15431256D01*
X10195316Y-15431256D01*
X10166744Y-15445541D01*
X10152458Y-15459827D01*
X10138173Y-15488399D01*
X10138173Y-15545541D01*
X10152458Y-15574113D01*
X10166744Y-15588399D01*
X10195316Y-15602684D01*
X10252458Y-15602684D01*
X10281030Y-15588399D01*
X10295316Y-15574113D01*
X10309601Y-15545541D01*
X10309601Y-15488399D01*
X10295316Y-15459827D01*
X10281030Y-15445541D01*
X10252458Y-15431256D01*
X10666744Y-15602684D02*
X10666744Y-15302684D01*
X10795316Y-15602684D02*
X10795316Y-15445541D01*
X10781030Y-15416970D01*
X10752458Y-15402684D01*
X10709601Y-15402684D01*
X10681030Y-15416970D01*
X10666744Y-15431256D01*
X10981030Y-15602684D02*
X10952458Y-15588399D01*
X10938173Y-15574113D01*
X10923887Y-15545541D01*
X10923887Y-15459827D01*
X10938173Y-15431256D01*
X10952458Y-15416970D01*
X10981030Y-15402684D01*
X11023887Y-15402684D01*
X11052458Y-15416970D01*
X11066744Y-15431256D01*
X11081030Y-15459827D01*
X11081030Y-15545541D01*
X11066744Y-15574113D01*
X11052458Y-15588399D01*
X11023887Y-15602684D01*
X10981030Y-15602684D01*
X11252458Y-15602684D02*
X11223887Y-15588399D01*
X11209601Y-15559827D01*
X11209601Y-15302684D01*
X11481030Y-15588399D02*
X11452458Y-15602684D01*
X11395316Y-15602684D01*
X11366744Y-15588399D01*
X11352458Y-15559827D01*
X11352458Y-15445541D01*
X11366744Y-15416970D01*
X11395316Y-15402684D01*
X11452458Y-15402684D01*
X11481030Y-15416970D01*
X11495316Y-15445541D01*
X11495316Y-15474113D01*
X11352458Y-15502684D01*
X11609601Y-15588399D02*
X11638173Y-15602684D01*
X11695316Y-15602684D01*
X11723887Y-15588399D01*
X11738173Y-15559827D01*
X11738173Y-15545541D01*
X11723887Y-15516970D01*
X11695316Y-15502684D01*
X11652458Y-15502684D01*
X11623887Y-15488399D01*
X11609601Y-15459827D01*
X11609601Y-15445541D01*
X11623887Y-15416970D01*
X11652458Y-15402684D01*
X11695316Y-15402684D01*
X11723887Y-15416970D01*
X11838173Y-15716970D02*
X11852458Y-15702684D01*
X11881030Y-15659827D01*
X11895316Y-15631256D01*
X11909601Y-15588399D01*
X11923887Y-15516970D01*
X11923887Y-15459827D01*
X11909601Y-15388399D01*
X11895316Y-15345541D01*
X11881030Y-15316970D01*
X11852458Y-15274113D01*
X11838173Y-15259827D01*
X4981030Y-15777970D02*
X4981030Y-15947970D01*
X4896030Y-15862970D02*
X5066030Y-15862970D01*
X5509601Y-15998684D02*
X5338173Y-15998684D01*
X5423887Y-15998684D02*
X5423887Y-15698684D01*
X5395316Y-15741541D01*
X5366744Y-15770113D01*
X5338173Y-15784399D01*
X5638173Y-15970113D02*
X5652458Y-15984399D01*
X5638173Y-15998684D01*
X5623887Y-15984399D01*
X5638173Y-15970113D01*
X5638173Y-15998684D01*
X5752458Y-15698684D02*
X5952458Y-15698684D01*
X5823887Y-15998684D01*
X6123887Y-15698684D02*
X6152458Y-15698684D01*
X6181030Y-15712970D01*
X6195316Y-15727256D01*
X6209601Y-15755827D01*
X6223887Y-15812970D01*
X6223887Y-15884399D01*
X6209601Y-15941541D01*
X6195316Y-15970113D01*
X6181030Y-15984399D01*
X6152458Y-15998684D01*
X6123887Y-15998684D01*
X6095316Y-15984399D01*
X6081030Y-15970113D01*
X6066744Y-15941541D01*
X6052458Y-15884399D01*
X6052458Y-15812970D01*
X6066744Y-15755827D01*
X6081030Y-15727256D01*
X6095316Y-15712970D01*
X6123887Y-15698684D01*
X6352458Y-15998684D02*
X6352458Y-15798684D01*
X6352458Y-15827256D02*
X6366744Y-15812970D01*
X6395316Y-15798684D01*
X6438173Y-15798684D01*
X6466744Y-15812970D01*
X6481030Y-15841541D01*
X6481030Y-15998684D01*
X6481030Y-15841541D02*
X6495316Y-15812970D01*
X6523887Y-15798684D01*
X6566744Y-15798684D01*
X6595316Y-15812970D01*
X6609601Y-15841541D01*
X6609601Y-15998684D01*
X6752458Y-15998684D02*
X6752458Y-15798684D01*
X6752458Y-15827256D02*
X6766744Y-15812970D01*
X6795316Y-15798684D01*
X6838173Y-15798684D01*
X6866744Y-15812970D01*
X6881030Y-15841541D01*
X6881030Y-15998684D01*
X6881030Y-15841541D02*
X6895316Y-15812970D01*
X6923887Y-15798684D01*
X6966744Y-15798684D01*
X6995316Y-15812970D01*
X7009601Y-15841541D01*
X7009601Y-15998684D01*
X7595316Y-15684399D02*
X7338173Y-16070113D01*
X7981030Y-15698684D02*
X8009601Y-15698684D01*
X8038173Y-15712970D01*
X8052458Y-15727256D01*
X8066744Y-15755827D01*
X8081030Y-15812970D01*
X8081030Y-15884399D01*
X8066744Y-15941541D01*
X8052458Y-15970113D01*
X8038173Y-15984399D01*
X8009601Y-15998684D01*
X7981030Y-15998684D01*
X7952458Y-15984399D01*
X7938173Y-15970113D01*
X7923887Y-15941541D01*
X7909601Y-15884399D01*
X7909601Y-15812970D01*
X7923887Y-15755827D01*
X7938173Y-15727256D01*
X7952458Y-15712970D01*
X7981030Y-15698684D01*
X8209601Y-15970113D02*
X8223887Y-15984399D01*
X8209601Y-15998684D01*
X8195316Y-15984399D01*
X8209601Y-15970113D01*
X8209601Y-15998684D01*
X8409601Y-15698684D02*
X8438173Y-15698684D01*
X8466744Y-15712970D01*
X8481030Y-15727256D01*
X8495316Y-15755827D01*
X8509601Y-15812970D01*
X8509601Y-15884399D01*
X8495316Y-15941541D01*
X8481030Y-15970113D01*
X8466744Y-15984399D01*
X8438173Y-15998684D01*
X8409601Y-15998684D01*
X8381030Y-15984399D01*
X8366744Y-15970113D01*
X8352458Y-15941541D01*
X8338173Y-15884399D01*
X8338173Y-15812970D01*
X8352458Y-15755827D01*
X8366744Y-15727256D01*
X8381030Y-15712970D01*
X8409601Y-15698684D01*
X8766744Y-15698684D02*
X8709601Y-15698684D01*
X8681030Y-15712970D01*
X8666744Y-15727256D01*
X8638173Y-15770113D01*
X8623887Y-15827256D01*
X8623887Y-15941541D01*
X8638173Y-15970113D01*
X8652458Y-15984399D01*
X8681030Y-15998684D01*
X8738173Y-15998684D01*
X8766744Y-15984399D01*
X8781030Y-15970113D01*
X8795316Y-15941541D01*
X8795316Y-15870113D01*
X8781030Y-15841541D01*
X8766744Y-15827256D01*
X8738173Y-15812970D01*
X8681030Y-15812970D01*
X8652458Y-15827256D01*
X8638173Y-15841541D01*
X8623887Y-15870113D01*
X8895316Y-15698684D02*
X9095316Y-15698684D01*
X8966744Y-15998684D01*
X9195316Y-15698684D02*
X9195316Y-15755827D01*
X9309601Y-15698684D02*
X9309601Y-15755827D01*
X9752458Y-16112970D02*
X9738173Y-16098684D01*
X9709601Y-16055827D01*
X9695316Y-16027256D01*
X9681030Y-15984399D01*
X9666744Y-15912970D01*
X9666744Y-15855827D01*
X9681030Y-15784399D01*
X9695316Y-15741541D01*
X9709601Y-15712970D01*
X9738173Y-15670113D01*
X9752458Y-15655827D01*
X9852458Y-15727256D02*
X9866744Y-15712970D01*
X9895316Y-15698684D01*
X9966744Y-15698684D01*
X9995316Y-15712970D01*
X10009601Y-15727256D01*
X10023887Y-15755827D01*
X10023887Y-15784399D01*
X10009601Y-15827256D01*
X9838173Y-15998684D01*
X10023887Y-15998684D01*
X10381030Y-15998684D02*
X10381030Y-15698684D01*
X10509601Y-15998684D02*
X10509601Y-15841541D01*
X10495316Y-15812970D01*
X10466744Y-15798684D01*
X10423887Y-15798684D01*
X10395316Y-15812970D01*
X10381030Y-15827256D01*
X10695316Y-15998684D02*
X10666744Y-15984399D01*
X10652458Y-15970113D01*
X10638173Y-15941541D01*
X10638173Y-15855827D01*
X10652458Y-15827256D01*
X10666744Y-15812970D01*
X10695316Y-15798684D01*
X10738173Y-15798684D01*
X10766744Y-15812970D01*
X10781030Y-15827256D01*
X10795316Y-15855827D01*
X10795316Y-15941541D01*
X10781030Y-15970113D01*
X10766744Y-15984399D01*
X10738173Y-15998684D01*
X10695316Y-15998684D01*
X10966744Y-15998684D02*
X10938173Y-15984399D01*
X10923887Y-15955827D01*
X10923887Y-15698684D01*
X11195316Y-15984399D02*
X11166744Y-15998684D01*
X11109601Y-15998684D01*
X11081030Y-15984399D01*
X11066744Y-15955827D01*
X11066744Y-15841541D01*
X11081030Y-15812970D01*
X11109601Y-15798684D01*
X11166744Y-15798684D01*
X11195316Y-15812970D01*
X11209601Y-15841541D01*
X11209601Y-15870113D01*
X11066744Y-15898684D01*
X11323887Y-15984399D02*
X11352458Y-15998684D01*
X11409601Y-15998684D01*
X11438173Y-15984399D01*
X11452458Y-15955827D01*
X11452458Y-15941541D01*
X11438173Y-15912970D01*
X11409601Y-15898684D01*
X11366744Y-15898684D01*
X11338173Y-15884399D01*
X11323887Y-15855827D01*
X11323887Y-15841541D01*
X11338173Y-15812970D01*
X11366744Y-15798684D01*
X11409601Y-15798684D01*
X11438173Y-15812970D01*
X11552458Y-16112970D02*
X11566744Y-16098684D01*
X11595316Y-16055827D01*
X11609601Y-16027256D01*
X11623887Y-15984399D01*
X11638173Y-15912970D01*
X11638173Y-15855827D01*
X11623887Y-15784399D01*
X11609601Y-15741541D01*
X11595316Y-15712970D01*
X11566744Y-15670113D01*
X11552458Y-15655827D01*
X5017674Y-16375714D02*
X5017674Y-16142226D01*
X4784186Y-16142226D01*
X4784186Y-16375714D01*
X5017674Y-16375714D01*
X5323887Y-16094684D02*
X5509601Y-16094684D01*
X5409601Y-16208970D01*
X5452458Y-16208970D01*
X5481030Y-16223256D01*
X5495316Y-16237541D01*
X5509601Y-16266113D01*
X5509601Y-16337541D01*
X5495316Y-16366113D01*
X5481030Y-16380399D01*
X5452458Y-16394684D01*
X5366744Y-16394684D01*
X5338173Y-16380399D01*
X5323887Y-16366113D01*
X5638173Y-16366113D02*
X5652458Y-16380399D01*
X5638173Y-16394684D01*
X5623887Y-16380399D01*
X5638173Y-16366113D01*
X5638173Y-16394684D01*
X5752458Y-16094684D02*
X5938173Y-16094684D01*
X5838173Y-16208970D01*
X5881030Y-16208970D01*
X5909601Y-16223256D01*
X5923887Y-16237541D01*
X5938173Y-16266113D01*
X5938173Y-16337541D01*
X5923887Y-16366113D01*
X5909601Y-16380399D01*
X5881030Y-16394684D01*
X5795316Y-16394684D01*
X5766744Y-16380399D01*
X5752458Y-16366113D01*
X6123887Y-16094684D02*
X6152458Y-16094684D01*
X6181030Y-16108970D01*
X6195316Y-16123256D01*
X6209601Y-16151827D01*
X6223887Y-16208970D01*
X6223887Y-16280399D01*
X6209601Y-16337541D01*
X6195316Y-16366113D01*
X6181030Y-16380399D01*
X6152458Y-16394684D01*
X6123887Y-16394684D01*
X6095316Y-16380399D01*
X6081030Y-16366113D01*
X6066744Y-16337541D01*
X6052458Y-16280399D01*
X6052458Y-16208970D01*
X6066744Y-16151827D01*
X6081030Y-16123256D01*
X6095316Y-16108970D01*
X6123887Y-16094684D01*
X6352458Y-16394684D02*
X6352458Y-16194684D01*
X6352458Y-16223256D02*
X6366744Y-16208970D01*
X6395316Y-16194684D01*
X6438173Y-16194684D01*
X6466744Y-16208970D01*
X6481030Y-16237541D01*
X6481030Y-16394684D01*
X6481030Y-16237541D02*
X6495316Y-16208970D01*
X6523887Y-16194684D01*
X6566744Y-16194684D01*
X6595316Y-16208970D01*
X6609601Y-16237541D01*
X6609601Y-16394684D01*
X6752458Y-16394684D02*
X6752458Y-16194684D01*
X6752458Y-16223256D02*
X6766744Y-16208970D01*
X6795316Y-16194684D01*
X6838173Y-16194684D01*
X6866744Y-16208970D01*
X6881030Y-16237541D01*
X6881030Y-16394684D01*
X6881030Y-16237541D02*
X6895316Y-16208970D01*
X6923887Y-16194684D01*
X6966744Y-16194684D01*
X6995316Y-16208970D01*
X7009601Y-16237541D01*
X7009601Y-16394684D01*
X7595316Y-16080399D02*
X7338173Y-16466113D01*
X7981030Y-16094684D02*
X8009601Y-16094684D01*
X8038173Y-16108970D01*
X8052458Y-16123256D01*
X8066744Y-16151827D01*
X8081030Y-16208970D01*
X8081030Y-16280399D01*
X8066744Y-16337541D01*
X8052458Y-16366113D01*
X8038173Y-16380399D01*
X8009601Y-16394684D01*
X7981030Y-16394684D01*
X7952458Y-16380399D01*
X7938173Y-16366113D01*
X7923887Y-16337541D01*
X7909601Y-16280399D01*
X7909601Y-16208970D01*
X7923887Y-16151827D01*
X7938173Y-16123256D01*
X7952458Y-16108970D01*
X7981030Y-16094684D01*
X8209601Y-16366113D02*
X8223887Y-16380399D01*
X8209601Y-16394684D01*
X8195316Y-16380399D01*
X8209601Y-16366113D01*
X8209601Y-16394684D01*
X8509601Y-16394684D02*
X8338173Y-16394684D01*
X8423887Y-16394684D02*
X8423887Y-16094684D01*
X8395316Y-16137541D01*
X8366744Y-16166113D01*
X8338173Y-16180399D01*
X8609601Y-16094684D02*
X8795316Y-16094684D01*
X8695316Y-16208970D01*
X8738173Y-16208970D01*
X8766744Y-16223256D01*
X8781030Y-16237541D01*
X8795316Y-16266113D01*
X8795316Y-16337541D01*
X8781030Y-16366113D01*
X8766744Y-16380399D01*
X8738173Y-16394684D01*
X8652458Y-16394684D01*
X8623887Y-16380399D01*
X8609601Y-16366113D01*
X8981030Y-16094684D02*
X9009601Y-16094684D01*
X9038173Y-16108970D01*
X9052458Y-16123256D01*
X9066744Y-16151827D01*
X9081030Y-16208970D01*
X9081030Y-16280399D01*
X9066744Y-16337541D01*
X9052458Y-16366113D01*
X9038173Y-16380399D01*
X9009601Y-16394684D01*
X8981030Y-16394684D01*
X8952458Y-16380399D01*
X8938173Y-16366113D01*
X8923887Y-16337541D01*
X8909601Y-16280399D01*
X8909601Y-16208970D01*
X8923887Y-16151827D01*
X8938173Y-16123256D01*
X8952458Y-16108970D01*
X8981030Y-16094684D01*
X9195316Y-16094684D02*
X9195316Y-16151827D01*
X9309601Y-16094684D02*
X9309601Y-16151827D01*
X9752458Y-16508970D02*
X9738173Y-16494684D01*
X9709601Y-16451827D01*
X9695316Y-16423256D01*
X9681030Y-16380399D01*
X9666744Y-16308970D01*
X9666744Y-16251827D01*
X9681030Y-16180399D01*
X9695316Y-16137541D01*
X9709601Y-16108970D01*
X9738173Y-16066113D01*
X9752458Y-16051827D01*
X9838173Y-16094684D02*
X10023887Y-16094684D01*
X9923887Y-16208970D01*
X9966744Y-16208970D01*
X9995316Y-16223256D01*
X10009601Y-16237541D01*
X10023887Y-16266113D01*
X10023887Y-16337541D01*
X10009601Y-16366113D01*
X9995316Y-16380399D01*
X9966744Y-16394684D01*
X9881030Y-16394684D01*
X9852458Y-16380399D01*
X9838173Y-16366113D01*
X10381030Y-16394684D02*
X10381030Y-16094684D01*
X10509601Y-16394684D02*
X10509601Y-16237541D01*
X10495316Y-16208970D01*
X10466744Y-16194684D01*
X10423887Y-16194684D01*
X10395316Y-16208970D01*
X10381030Y-16223256D01*
X10695316Y-16394684D02*
X10666744Y-16380399D01*
X10652458Y-16366113D01*
X10638173Y-16337541D01*
X10638173Y-16251827D01*
X10652458Y-16223256D01*
X10666744Y-16208970D01*
X10695316Y-16194684D01*
X10738173Y-16194684D01*
X10766744Y-16208970D01*
X10781030Y-16223256D01*
X10795316Y-16251827D01*
X10795316Y-16337541D01*
X10781030Y-16366113D01*
X10766744Y-16380399D01*
X10738173Y-16394684D01*
X10695316Y-16394684D01*
X10966744Y-16394684D02*
X10938173Y-16380399D01*
X10923887Y-16351827D01*
X10923887Y-16094684D01*
X11195316Y-16380399D02*
X11166744Y-16394684D01*
X11109601Y-16394684D01*
X11081030Y-16380399D01*
X11066744Y-16351827D01*
X11066744Y-16237541D01*
X11081030Y-16208970D01*
X11109601Y-16194684D01*
X11166744Y-16194684D01*
X11195316Y-16208970D01*
X11209601Y-16237541D01*
X11209601Y-16266113D01*
X11066744Y-16294684D01*
X11323887Y-16380399D02*
X11352458Y-16394684D01*
X11409601Y-16394684D01*
X11438173Y-16380399D01*
X11452458Y-16351827D01*
X11452458Y-16337541D01*
X11438173Y-16308970D01*
X11409601Y-16294684D01*
X11366744Y-16294684D01*
X11338173Y-16280399D01*
X11323887Y-16251827D01*
X11323887Y-16237541D01*
X11338173Y-16208970D01*
X11366744Y-16194684D01*
X11409601Y-16194684D01*
X11438173Y-16208970D01*
X11552458Y-16508970D02*
X11566744Y-16494684D01*
X11595316Y-16451827D01*
X11609601Y-16423256D01*
X11623887Y-16380399D01*
X11638173Y-16308970D01*
X11638173Y-16251827D01*
X11623887Y-16180399D01*
X11609601Y-16137541D01*
X11595316Y-16108970D01*
X11566744Y-16066113D01*
X11552458Y-16051827D01*
X4856030Y-16929170D02*
X5066030Y-16719170D01*
X4856030Y-16509170D01*
X4646030Y-16719170D01*
X4856030Y-16929170D01*
X5481030Y-16654884D02*
X5481030Y-16854884D01*
X5409601Y-16540599D02*
X5338173Y-16754884D01*
X5523887Y-16754884D01*
X5638173Y-16826313D02*
X5652458Y-16840599D01*
X5638173Y-16854884D01*
X5623887Y-16840599D01*
X5638173Y-16826313D01*
X5638173Y-16854884D01*
X5766744Y-16583456D02*
X5781030Y-16569170D01*
X5809601Y-16554884D01*
X5881030Y-16554884D01*
X5909601Y-16569170D01*
X5923887Y-16583456D01*
X5938173Y-16612027D01*
X5938173Y-16640599D01*
X5923887Y-16683456D01*
X5752458Y-16854884D01*
X5938173Y-16854884D01*
X6123887Y-16554884D02*
X6152458Y-16554884D01*
X6181030Y-16569170D01*
X6195316Y-16583456D01*
X6209601Y-16612027D01*
X6223887Y-16669170D01*
X6223887Y-16740599D01*
X6209601Y-16797742D01*
X6195316Y-16826313D01*
X6181030Y-16840599D01*
X6152458Y-16854884D01*
X6123887Y-16854884D01*
X6095316Y-16840599D01*
X6081030Y-16826313D01*
X6066744Y-16797742D01*
X6052458Y-16740599D01*
X6052458Y-16669170D01*
X6066744Y-16612027D01*
X6081030Y-16583456D01*
X6095316Y-16569170D01*
X6123887Y-16554884D01*
X6352458Y-16854884D02*
X6352458Y-16654884D01*
X6352458Y-16683456D02*
X6366744Y-16669170D01*
X6395316Y-16654884D01*
X6438173Y-16654884D01*
X6466744Y-16669170D01*
X6481030Y-16697741D01*
X6481030Y-16854884D01*
X6481030Y-16697741D02*
X6495316Y-16669170D01*
X6523887Y-16654884D01*
X6566744Y-16654884D01*
X6595316Y-16669170D01*
X6609601Y-16697741D01*
X6609601Y-16854884D01*
X6752458Y-16854884D02*
X6752458Y-16654884D01*
X6752458Y-16683456D02*
X6766744Y-16669170D01*
X6795316Y-16654884D01*
X6838173Y-16654884D01*
X6866744Y-16669170D01*
X6881030Y-16697741D01*
X6881030Y-16854884D01*
X6881030Y-16697741D02*
X6895316Y-16669170D01*
X6923887Y-16654884D01*
X6966744Y-16654884D01*
X6995316Y-16669170D01*
X7009601Y-16697741D01*
X7009601Y-16854884D01*
X7595316Y-16540599D02*
X7338173Y-16926313D01*
X7981030Y-16554884D02*
X8009601Y-16554884D01*
X8038173Y-16569170D01*
X8052458Y-16583456D01*
X8066744Y-16612027D01*
X8081030Y-16669170D01*
X8081030Y-16740599D01*
X8066744Y-16797742D01*
X8052458Y-16826313D01*
X8038173Y-16840599D01*
X8009601Y-16854884D01*
X7981030Y-16854884D01*
X7952458Y-16840599D01*
X7938173Y-16826313D01*
X7923887Y-16797742D01*
X7909601Y-16740599D01*
X7909601Y-16669170D01*
X7923887Y-16612027D01*
X7938173Y-16583456D01*
X7952458Y-16569170D01*
X7981030Y-16554884D01*
X8209601Y-16826313D02*
X8223887Y-16840599D01*
X8209601Y-16854884D01*
X8195316Y-16840599D01*
X8209601Y-16826313D01*
X8209601Y-16854884D01*
X8509601Y-16854884D02*
X8338173Y-16854884D01*
X8423887Y-16854884D02*
X8423887Y-16554884D01*
X8395316Y-16597741D01*
X8366744Y-16626313D01*
X8338173Y-16640599D01*
X8766744Y-16554884D02*
X8709601Y-16554884D01*
X8681030Y-16569170D01*
X8666744Y-16583456D01*
X8638173Y-16626313D01*
X8623887Y-16683456D01*
X8623887Y-16797742D01*
X8638173Y-16826313D01*
X8652458Y-16840599D01*
X8681030Y-16854884D01*
X8738173Y-16854884D01*
X8766744Y-16840599D01*
X8781030Y-16826313D01*
X8795316Y-16797742D01*
X8795316Y-16726313D01*
X8781030Y-16697741D01*
X8766744Y-16683456D01*
X8738173Y-16669170D01*
X8681030Y-16669170D01*
X8652458Y-16683456D01*
X8638173Y-16697741D01*
X8623887Y-16726313D01*
X9066744Y-16554884D02*
X8923887Y-16554884D01*
X8909601Y-16697741D01*
X8923887Y-16683456D01*
X8952458Y-16669170D01*
X9023887Y-16669170D01*
X9052458Y-16683456D01*
X9066744Y-16697741D01*
X9081030Y-16726313D01*
X9081030Y-16797742D01*
X9066744Y-16826313D01*
X9052458Y-16840599D01*
X9023887Y-16854884D01*
X8952458Y-16854884D01*
X8923887Y-16840599D01*
X8909601Y-16826313D01*
X9195316Y-16554884D02*
X9195316Y-16612027D01*
X9309601Y-16554884D02*
X9309601Y-16612027D01*
X9752458Y-16969170D02*
X9738173Y-16954884D01*
X9709601Y-16912027D01*
X9695316Y-16883456D01*
X9681030Y-16840599D01*
X9666744Y-16769170D01*
X9666744Y-16712027D01*
X9681030Y-16640599D01*
X9695316Y-16597741D01*
X9709601Y-16569170D01*
X9738173Y-16526313D01*
X9752458Y-16512027D01*
X10023887Y-16854884D02*
X9852458Y-16854884D01*
X9938173Y-16854884D02*
X9938173Y-16554884D01*
X9909601Y-16597741D01*
X9881030Y-16626313D01*
X9852458Y-16640599D01*
X10381030Y-16854884D02*
X10381030Y-16554884D01*
X10509601Y-16854884D02*
X10509601Y-16697741D01*
X10495316Y-16669170D01*
X10466744Y-16654884D01*
X10423887Y-16654884D01*
X10395316Y-16669170D01*
X10381030Y-16683456D01*
X10695316Y-16854884D02*
X10666744Y-16840599D01*
X10652458Y-16826313D01*
X10638173Y-16797742D01*
X10638173Y-16712027D01*
X10652458Y-16683456D01*
X10666744Y-16669170D01*
X10695316Y-16654884D01*
X10738173Y-16654884D01*
X10766744Y-16669170D01*
X10781030Y-16683456D01*
X10795316Y-16712027D01*
X10795316Y-16797742D01*
X10781030Y-16826313D01*
X10766744Y-16840599D01*
X10738173Y-16854884D01*
X10695316Y-16854884D01*
X10966744Y-16854884D02*
X10938173Y-16840599D01*
X10923887Y-16812027D01*
X10923887Y-16554884D01*
X11195316Y-16840599D02*
X11166744Y-16854884D01*
X11109601Y-16854884D01*
X11081030Y-16840599D01*
X11066744Y-16812027D01*
X11066744Y-16697741D01*
X11081030Y-16669170D01*
X11109601Y-16654884D01*
X11166744Y-16654884D01*
X11195316Y-16669170D01*
X11209601Y-16697741D01*
X11209601Y-16726313D01*
X11066744Y-16754884D01*
X11309601Y-16969170D02*
X11323887Y-16954884D01*
X11352458Y-16912027D01*
X11366744Y-16883456D01*
X11381030Y-16840599D01*
X11395316Y-16769170D01*
X11395316Y-16712027D01*
X11381030Y-16640599D01*
X11366744Y-16597741D01*
X11352458Y-16569170D01*
X11323887Y-16526313D01*
X11309601Y-16512027D01*
X4644390Y-17058350D02*
X5066030Y-17479990D01*
X5066030Y-17058350D02*
X4644390Y-17479990D01*
X5066030Y-17269170D02*
G75*
G03*
X5066030Y-17269170I-210820J0D01*
G01*
X5481030Y-17204884D02*
X5481030Y-17404884D01*
X5409601Y-17090599D02*
X5338173Y-17304884D01*
X5523887Y-17304884D01*
X5638173Y-17376313D02*
X5652458Y-17390599D01*
X5638173Y-17404884D01*
X5623887Y-17390599D01*
X5638173Y-17376313D01*
X5638173Y-17404884D01*
X5766744Y-17133456D02*
X5781030Y-17119170D01*
X5809601Y-17104884D01*
X5881030Y-17104884D01*
X5909601Y-17119170D01*
X5923887Y-17133456D01*
X5938173Y-17162027D01*
X5938173Y-17190599D01*
X5923887Y-17233456D01*
X5752458Y-17404884D01*
X5938173Y-17404884D01*
X6052458Y-17133456D02*
X6066744Y-17119170D01*
X6095316Y-17104884D01*
X6166744Y-17104884D01*
X6195316Y-17119170D01*
X6209601Y-17133456D01*
X6223887Y-17162027D01*
X6223887Y-17190599D01*
X6209601Y-17233456D01*
X6038173Y-17404884D01*
X6223887Y-17404884D01*
X6352458Y-17404884D02*
X6352458Y-17204884D01*
X6352458Y-17233456D02*
X6366744Y-17219170D01*
X6395316Y-17204884D01*
X6438173Y-17204884D01*
X6466744Y-17219170D01*
X6481030Y-17247742D01*
X6481030Y-17404884D01*
X6481030Y-17247742D02*
X6495316Y-17219170D01*
X6523887Y-17204884D01*
X6566744Y-17204884D01*
X6595316Y-17219170D01*
X6609601Y-17247742D01*
X6609601Y-17404884D01*
X6752458Y-17404884D02*
X6752458Y-17204884D01*
X6752458Y-17233456D02*
X6766744Y-17219170D01*
X6795316Y-17204884D01*
X6838173Y-17204884D01*
X6866744Y-17219170D01*
X6881030Y-17247742D01*
X6881030Y-17404884D01*
X6881030Y-17247742D02*
X6895316Y-17219170D01*
X6923887Y-17204884D01*
X6966744Y-17204884D01*
X6995316Y-17219170D01*
X7009601Y-17247742D01*
X7009601Y-17404884D01*
X7595316Y-17090599D02*
X7338173Y-17476313D01*
X7981030Y-17104884D02*
X8009601Y-17104884D01*
X8038173Y-17119170D01*
X8052458Y-17133456D01*
X8066744Y-17162027D01*
X8081030Y-17219170D01*
X8081030Y-17290599D01*
X8066744Y-17347742D01*
X8052458Y-17376313D01*
X8038173Y-17390599D01*
X8009601Y-17404884D01*
X7981030Y-17404884D01*
X7952458Y-17390599D01*
X7938173Y-17376313D01*
X7923887Y-17347742D01*
X7909601Y-17290599D01*
X7909601Y-17219170D01*
X7923887Y-17162027D01*
X7938173Y-17133456D01*
X7952458Y-17119170D01*
X7981030Y-17104884D01*
X8209601Y-17376313D02*
X8223887Y-17390599D01*
X8209601Y-17404884D01*
X8195316Y-17390599D01*
X8209601Y-17376313D01*
X8209601Y-17404884D01*
X8509601Y-17404884D02*
X8338173Y-17404884D01*
X8423887Y-17404884D02*
X8423887Y-17104884D01*
X8395316Y-17147742D01*
X8366744Y-17176313D01*
X8338173Y-17190599D01*
X8766744Y-17104884D02*
X8709601Y-17104884D01*
X8681030Y-17119170D01*
X8666744Y-17133456D01*
X8638173Y-17176313D01*
X8623887Y-17233456D01*
X8623887Y-17347742D01*
X8638173Y-17376313D01*
X8652458Y-17390599D01*
X8681030Y-17404884D01*
X8738173Y-17404884D01*
X8766744Y-17390599D01*
X8781030Y-17376313D01*
X8795316Y-17347742D01*
X8795316Y-17276313D01*
X8781030Y-17247742D01*
X8766744Y-17233456D01*
X8738173Y-17219170D01*
X8681030Y-17219170D01*
X8652458Y-17233456D01*
X8638173Y-17247742D01*
X8623887Y-17276313D01*
X9052458Y-17104884D02*
X8995316Y-17104884D01*
X8966744Y-17119170D01*
X8952458Y-17133456D01*
X8923887Y-17176313D01*
X8909601Y-17233456D01*
X8909601Y-17347742D01*
X8923887Y-17376313D01*
X8938173Y-17390599D01*
X8966744Y-17404884D01*
X9023887Y-17404884D01*
X9052458Y-17390599D01*
X9066744Y-17376313D01*
X9081030Y-17347742D01*
X9081030Y-17276313D01*
X9066744Y-17247742D01*
X9052458Y-17233456D01*
X9023887Y-17219170D01*
X8966744Y-17219170D01*
X8938173Y-17233456D01*
X8923887Y-17247742D01*
X8909601Y-17276313D01*
X9195316Y-17104884D02*
X9195316Y-17162027D01*
X9309601Y-17104884D02*
X9309601Y-17162027D01*
X9752458Y-17519170D02*
X9738173Y-17504884D01*
X9709601Y-17462027D01*
X9695316Y-17433456D01*
X9681030Y-17390599D01*
X9666744Y-17319170D01*
X9666744Y-17262027D01*
X9681030Y-17190599D01*
X9695316Y-17147742D01*
X9709601Y-17119170D01*
X9738173Y-17076313D01*
X9752458Y-17062027D01*
X9995316Y-17204884D02*
X9995316Y-17404884D01*
X9923887Y-17090599D02*
X9852458Y-17304884D01*
X10038173Y-17304884D01*
X10381030Y-17404884D02*
X10381030Y-17104884D01*
X10509601Y-17404884D02*
X10509601Y-17247742D01*
X10495316Y-17219170D01*
X10466744Y-17204884D01*
X10423887Y-17204884D01*
X10395316Y-17219170D01*
X10381030Y-17233456D01*
X10695316Y-17404884D02*
X10666744Y-17390599D01*
X10652458Y-17376313D01*
X10638173Y-17347742D01*
X10638173Y-17262027D01*
X10652458Y-17233456D01*
X10666744Y-17219170D01*
X10695316Y-17204884D01*
X10738173Y-17204884D01*
X10766744Y-17219170D01*
X10781030Y-17233456D01*
X10795316Y-17262027D01*
X10795316Y-17347742D01*
X10781030Y-17376313D01*
X10766744Y-17390599D01*
X10738173Y-17404884D01*
X10695316Y-17404884D01*
X10966744Y-17404884D02*
X10938173Y-17390599D01*
X10923887Y-17362027D01*
X10923887Y-17104884D01*
X11195316Y-17390599D02*
X11166744Y-17404884D01*
X11109601Y-17404884D01*
X11081030Y-17390599D01*
X11066744Y-17362027D01*
X11066744Y-17247742D01*
X11081030Y-17219170D01*
X11109601Y-17204884D01*
X11166744Y-17204884D01*
X11195316Y-17219170D01*
X11209601Y-17247742D01*
X11209601Y-17276313D01*
X11066744Y-17304884D01*
X11323887Y-17390599D02*
X11352458Y-17404884D01*
X11409601Y-17404884D01*
X11438173Y-17390599D01*
X11452458Y-17362027D01*
X11452458Y-17347742D01*
X11438173Y-17319170D01*
X11409601Y-17304884D01*
X11366744Y-17304884D01*
X11338173Y-17290599D01*
X11323887Y-17262027D01*
X11323887Y-17247742D01*
X11338173Y-17219170D01*
X11366744Y-17204884D01*
X11409601Y-17204884D01*
X11438173Y-17219170D01*
X11552458Y-17519170D02*
X11566744Y-17504884D01*
X11595316Y-17462027D01*
X11609601Y-17433456D01*
X11623887Y-17390599D01*
X11638173Y-17319170D01*
X11638173Y-17262027D01*
X11623887Y-17190599D01*
X11609601Y-17147742D01*
X11595316Y-17119170D01*
X11566744Y-17076313D01*
X11552458Y-17062027D01*
M02*
