%TF.GenerationSoftware,KiCad,Pcbnew,5.1.6-c6e7f7d~87~ubuntu20.04.1*%
%TF.CreationDate,2020-07-21T10:48:28-04:00*%
%TF.ProjectId,y_arena_valve_controller,795f6172-656e-4615-9f76-616c76655f63,1.0*%
%TF.SameCoordinates,Original*%
%TF.FileFunction,Copper,L2,Bot*%
%TF.FilePolarity,Positive*%
%FSLAX46Y46*%
G04 Gerber Fmt 4.6, Leading zero omitted, Abs format (unit mm)*
G04 Created by KiCad (PCBNEW 5.1.6-c6e7f7d~87~ubuntu20.04.1) date 2020-07-21 10:48:28*
%MOMM*%
%LPD*%
G01*
G04 APERTURE LIST*
%TA.AperFunction,ComponentPad*%
%ADD10O,2.032000X1.524000*%
%TD*%
%TA.AperFunction,ComponentPad*%
%ADD11C,6.197600*%
%TD*%
%TA.AperFunction,ComponentPad*%
%ADD12C,2.286000*%
%TD*%
%TA.AperFunction,ComponentPad*%
%ADD13C,3.556000*%
%TD*%
%TA.AperFunction,ComponentPad*%
%ADD14C,4.500000*%
%TD*%
%TA.AperFunction,ComponentPad*%
%ADD15C,1.900000*%
%TD*%
%TA.AperFunction,ViaPad*%
%ADD16C,0.889000*%
%TD*%
%TA.AperFunction,Conductor*%
%ADD17C,0.812800*%
%TD*%
%TA.AperFunction,Conductor*%
%ADD18C,0.254000*%
%TD*%
G04 APERTURE END LIST*
D10*
%TO.P,PHIDGET1,16*%
%TO.N,/VALVE_7*%
X59055000Y-98425000D03*
%TO.P,PHIDGET1,11*%
%TO.N,GND*%
X59055000Y-111125000D03*
%TO.P,PHIDGET1,1*%
X59055000Y-136525000D03*
%TO.P,PHIDGET1,4*%
%TO.N,/VALVE_1*%
X59055000Y-128905000D03*
%TO.P,PHIDGET1,9*%
%TO.N,GND*%
X59055000Y-116205000D03*
%TO.P,PHIDGET1,10*%
%TO.N,/VALVE_4*%
X59055000Y-113665000D03*
%TO.P,PHIDGET1,2*%
%TO.N,/VALVE_0*%
X59055000Y-133985000D03*
%TO.P,PHIDGET1,7*%
%TO.N,GND*%
X59055000Y-121285000D03*
%TO.P,PHIDGET1,8*%
%TO.N,/VALVE_3*%
X59055000Y-118745000D03*
%TO.P,PHIDGET1,3*%
%TO.N,GND*%
X59055000Y-131445000D03*
%TO.P,PHIDGET1,12*%
%TO.N,/VALVE_5*%
X59055000Y-108585000D03*
%TO.P,PHIDGET1,5*%
%TO.N,GND*%
X59055000Y-126365000D03*
%TO.P,PHIDGET1,15*%
X59055000Y-100965000D03*
%TO.P,PHIDGET1,14*%
%TO.N,/VALVE_6*%
X59055000Y-103505000D03*
%TO.P,PHIDGET1,13*%
%TO.N,GND*%
X59055000Y-106045000D03*
%TO.P,PHIDGET1,6*%
%TO.N,/VALVE_2*%
X59055000Y-123825000D03*
%TO.P,PHIDGET1,17*%
%TO.N,GND*%
X117475000Y-98425000D03*
%TO.P,PHIDGET1,18*%
%TO.N,/VALVE_8*%
X117475000Y-100965000D03*
%TO.P,PHIDGET1,32*%
%TO.N,N/C*%
X117475000Y-136525000D03*
D11*
%TO.P,PHIDGET1,*%
%TO.N,*%
X59055000Y-142875000D03*
X59055000Y-76835000D03*
X117475000Y-76835000D03*
X117475000Y-142875000D03*
D10*
%TO.P,PHIDGET1,19*%
%TO.N,GND*%
X117475000Y-103505000D03*
%TO.P,PHIDGET1,20*%
%TO.N,N/C*%
X117475000Y-106045000D03*
%TO.P,PHIDGET1,21*%
%TO.N,GND*%
X117475000Y-108585000D03*
%TO.P,PHIDGET1,22*%
%TO.N,N/C*%
X117475000Y-111125000D03*
%TO.P,PHIDGET1,23*%
%TO.N,GND*%
X117475000Y-113665000D03*
%TO.P,PHIDGET1,24*%
%TO.N,N/C*%
X117475000Y-116205000D03*
%TO.P,PHIDGET1,25*%
%TO.N,GND*%
X117475000Y-118745000D03*
%TO.P,PHIDGET1,26*%
%TO.N,N/C*%
X117475000Y-121285000D03*
%TO.P,PHIDGET1,27*%
%TO.N,GND*%
X117475000Y-123825000D03*
%TO.P,PHIDGET1,28*%
%TO.N,N/C*%
X117475000Y-126365000D03*
%TO.P,PHIDGET1,29*%
%TO.N,GND*%
X117475000Y-128905000D03*
%TO.P,PHIDGET1,30*%
%TO.N,N/C*%
X117475000Y-131445000D03*
%TO.P,PHIDGET1,31*%
%TO.N,GND*%
X117475000Y-133985000D03*
%TD*%
D12*
%TO.P,S1,2*%
%TO.N,/VALVE_0*%
X52705000Y-75565000D03*
%TO.P,S1,1*%
%TO.N,VCC*%
X52705000Y-78105000D03*
%TD*%
%TO.P,S2,2*%
%TO.N,/VALVE_1*%
X52705000Y-67945000D03*
%TO.P,S2,1*%
%TO.N,VCC*%
X52705000Y-70485000D03*
%TD*%
%TO.P,S3,2*%
%TO.N,/VALVE_2*%
X52705000Y-60325000D03*
%TO.P,S3,1*%
%TO.N,VCC*%
X52705000Y-62865000D03*
%TD*%
%TO.P,S4,2*%
%TO.N,/VALVE_3*%
X80645000Y-75565000D03*
%TO.P,S4,1*%
%TO.N,VCC*%
X80645000Y-78105000D03*
%TD*%
%TO.P,S5,2*%
%TO.N,/VALVE_4*%
X80645000Y-67945000D03*
%TO.P,S5,1*%
%TO.N,VCC*%
X80645000Y-70485000D03*
%TD*%
%TO.P,S6,2*%
%TO.N,/VALVE_5*%
X80645000Y-60325000D03*
%TO.P,S6,1*%
%TO.N,VCC*%
X80645000Y-62865000D03*
%TD*%
%TO.P,S7,2*%
%TO.N,/VALVE_6*%
X108585000Y-75565000D03*
%TO.P,S7,1*%
%TO.N,VCC*%
X108585000Y-78105000D03*
%TD*%
%TO.P,S8,2*%
%TO.N,/VALVE_7*%
X108585000Y-67945000D03*
%TO.P,S8,1*%
%TO.N,VCC*%
X108585000Y-70485000D03*
%TD*%
%TO.P,S9,2*%
%TO.N,/VALVE_8*%
X108585000Y-60325000D03*
%TO.P,S9,1*%
%TO.N,VCC*%
X108585000Y-62865000D03*
%TD*%
D13*
%TO.P,MH1,1*%
%TO.N,N/C*%
X92710000Y-85090000D03*
%TD*%
%TO.P,MH2,1*%
%TO.N,N/C*%
X64770000Y-56515000D03*
%TD*%
%TO.P,MH3,1*%
%TO.N,N/C*%
X120650000Y-56515000D03*
%TD*%
D14*
%TO.P,P1,*%
%TO.N,*%
X88265000Y-128905000D03*
D15*
X84165000Y-130905000D03*
X92365000Y-130905000D03*
%TD*%
D16*
%TO.N,/VALVE_3*%
X64926500Y-111531300D03*
%TO.N,/VALVE_4*%
X63811800Y-107534200D03*
%TD*%
D17*
%TO.N,/VALVE_3*%
X59055000Y-118745000D02*
X64926500Y-112873500D01*
X64926500Y-112873500D02*
X64926500Y-111531300D01*
%TO.N,/VALVE_4*%
X59055000Y-113665000D02*
X63811800Y-108908200D01*
X63811800Y-108908200D02*
X63811800Y-107534200D01*
%TO.N,/VALVE_5*%
X59055000Y-108585000D02*
X57524500Y-107054500D01*
X57524500Y-107054500D02*
X57524500Y-83650100D01*
X57524500Y-83650100D02*
X80645000Y-60529600D01*
X80645000Y-60529600D02*
X80645000Y-60325000D01*
%TO.N,/VALVE_6*%
X59055000Y-103505000D02*
X80645000Y-103505000D01*
X80645000Y-103505000D02*
X108585000Y-75565000D01*
%TO.N,/VALVE_7*%
X59055000Y-98425000D02*
X65266800Y-98425000D01*
X65266800Y-98425000D02*
X95746800Y-67945000D01*
X95746800Y-67945000D02*
X108585000Y-67945000D01*
%TO.N,GND*%
X117475000Y-108585000D02*
X115848600Y-106958600D01*
X115848600Y-106958600D02*
X115848600Y-105131400D01*
X115848600Y-105131400D02*
X117475000Y-103505000D01*
X117475000Y-113665000D02*
X115852200Y-112042200D01*
X115852200Y-112042200D02*
X115852200Y-110207800D01*
X115852200Y-110207800D02*
X117475000Y-108585000D01*
X117475000Y-118745000D02*
X115852200Y-117122200D01*
X115852200Y-117122200D02*
X115852200Y-115287800D01*
X115852200Y-115287800D02*
X117475000Y-113665000D01*
X117475000Y-123825000D02*
X115852200Y-122202200D01*
X115852200Y-122202200D02*
X115852200Y-120367800D01*
X115852200Y-120367800D02*
X117475000Y-118745000D01*
X117475000Y-128905000D02*
X115852200Y-127282200D01*
X115852200Y-127282200D02*
X115852200Y-125447800D01*
X115852200Y-125447800D02*
X117475000Y-123825000D01*
X59055000Y-121285000D02*
X57480400Y-122859600D01*
X57480400Y-122859600D02*
X57480400Y-124790400D01*
X57480400Y-124790400D02*
X59055000Y-126365000D01*
X59055000Y-131445000D02*
X60579400Y-132969400D01*
X60579400Y-132969400D02*
X60579400Y-135000600D01*
X60579400Y-135000600D02*
X59055000Y-136525000D01*
X59055000Y-126365000D02*
X57530600Y-127889400D01*
X57530600Y-127889400D02*
X57530600Y-129920600D01*
X57530600Y-129920600D02*
X59055000Y-131445000D01*
X117475000Y-98425000D02*
X119007300Y-99957300D01*
X119007300Y-99957300D02*
X119007300Y-101972700D01*
X119007300Y-101972700D02*
X117475000Y-103505000D01*
%TO.N,VCC*%
X54356300Y-62865000D02*
X52705000Y-62865000D01*
X80645000Y-62865000D02*
X82303700Y-61206300D01*
X82303700Y-61206300D02*
X82303700Y-59574000D01*
X82303700Y-59574000D02*
X81392300Y-58662600D01*
X81392300Y-58662600D02*
X77121600Y-58662600D01*
X77121600Y-58662600D02*
X72919200Y-62865000D01*
X72919200Y-62865000D02*
X54356300Y-62865000D01*
X54356300Y-62865000D02*
X54356300Y-68833700D01*
X54356300Y-68833700D02*
X52705000Y-70485000D01*
X80645000Y-70485000D02*
X78987100Y-68827100D01*
X78987100Y-68827100D02*
X78987100Y-64522900D01*
X78987100Y-64522900D02*
X80645000Y-62865000D01*
X52705000Y-70485000D02*
X54356700Y-72136700D01*
X54356700Y-72136700D02*
X54356700Y-76453300D01*
X54356700Y-76453300D02*
X52705000Y-78105000D01*
%TD*%
D18*
%TO.N,GND*%
G36*
X120251795Y-51645707D02*
G01*
X121102124Y-51849853D01*
X121910044Y-52184505D01*
X122655671Y-52641426D01*
X123320639Y-53209362D01*
X123888573Y-53874326D01*
X124345495Y-54619956D01*
X124680147Y-55427876D01*
X124884293Y-56278205D01*
X124955300Y-57180441D01*
X124955301Y-142209547D01*
X124884293Y-143111795D01*
X124680147Y-143962124D01*
X124345495Y-144770044D01*
X123888573Y-145515674D01*
X123320639Y-146180638D01*
X122655671Y-146748574D01*
X121910044Y-147205495D01*
X121102124Y-147540147D01*
X120251795Y-147744293D01*
X119349560Y-147815300D01*
X57180441Y-147815300D01*
X56278205Y-147744293D01*
X55427876Y-147540147D01*
X54619956Y-147205495D01*
X53874326Y-146748573D01*
X53209362Y-146180639D01*
X52641426Y-145515671D01*
X52184505Y-144770044D01*
X51849853Y-143962124D01*
X51645707Y-143111795D01*
X51598129Y-142507253D01*
X55321200Y-142507253D01*
X55321200Y-143242747D01*
X55464688Y-143964109D01*
X55746150Y-144643617D01*
X56154768Y-145255159D01*
X56674841Y-145775232D01*
X57286383Y-146183850D01*
X57965891Y-146465312D01*
X58687253Y-146608800D01*
X59422747Y-146608800D01*
X60144109Y-146465312D01*
X60823617Y-146183850D01*
X61435159Y-145775232D01*
X61955232Y-145255159D01*
X62363850Y-144643617D01*
X62645312Y-143964109D01*
X62788800Y-143242747D01*
X62788800Y-142507253D01*
X113741200Y-142507253D01*
X113741200Y-143242747D01*
X113884688Y-143964109D01*
X114166150Y-144643617D01*
X114574768Y-145255159D01*
X115094841Y-145775232D01*
X115706383Y-146183850D01*
X116385891Y-146465312D01*
X117107253Y-146608800D01*
X117842747Y-146608800D01*
X118564109Y-146465312D01*
X119243617Y-146183850D01*
X119855159Y-145775232D01*
X120375232Y-145255159D01*
X120783850Y-144643617D01*
X121065312Y-143964109D01*
X121208800Y-143242747D01*
X121208800Y-142507253D01*
X121065312Y-141785891D01*
X120783850Y-141106383D01*
X120375232Y-140494841D01*
X119855159Y-139974768D01*
X119243617Y-139566150D01*
X118564109Y-139284688D01*
X117842747Y-139141200D01*
X117107253Y-139141200D01*
X116385891Y-139284688D01*
X115706383Y-139566150D01*
X115094841Y-139974768D01*
X114574768Y-140494841D01*
X114166150Y-141106383D01*
X113884688Y-141785891D01*
X113741200Y-142507253D01*
X62788800Y-142507253D01*
X62645312Y-141785891D01*
X62363850Y-141106383D01*
X61955232Y-140494841D01*
X61435159Y-139974768D01*
X60823617Y-139566150D01*
X60144109Y-139284688D01*
X59422747Y-139141200D01*
X58687253Y-139141200D01*
X57965891Y-139284688D01*
X57286383Y-139566150D01*
X56674841Y-139974768D01*
X56154768Y-140494841D01*
X55746150Y-141106383D01*
X55464688Y-141785891D01*
X55321200Y-142507253D01*
X51598129Y-142507253D01*
X51574700Y-142209560D01*
X51574700Y-136868070D01*
X57446780Y-136868070D01*
X57461738Y-136942276D01*
X57568878Y-137195535D01*
X57723368Y-137423026D01*
X57919271Y-137616006D01*
X58149058Y-137767059D01*
X58403899Y-137870381D01*
X58674000Y-137922000D01*
X58928000Y-137922000D01*
X58928000Y-136652000D01*
X59182000Y-136652000D01*
X59182000Y-137922000D01*
X59436000Y-137922000D01*
X59706101Y-137870381D01*
X59960942Y-137767059D01*
X60190729Y-137616006D01*
X60386632Y-137423026D01*
X60541122Y-137195535D01*
X60648262Y-136942276D01*
X60663220Y-136868070D01*
X60540720Y-136652000D01*
X59182000Y-136652000D01*
X58928000Y-136652000D01*
X57569280Y-136652000D01*
X57446780Y-136868070D01*
X51574700Y-136868070D01*
X51574700Y-136525000D01*
X115817241Y-136525000D01*
X115844214Y-136798860D01*
X115924096Y-137062195D01*
X116053817Y-137304887D01*
X116228392Y-137517608D01*
X116441113Y-137692183D01*
X116683805Y-137821904D01*
X116947140Y-137901786D01*
X117152375Y-137922000D01*
X117797625Y-137922000D01*
X118002860Y-137901786D01*
X118266195Y-137821904D01*
X118508887Y-137692183D01*
X118721608Y-137517608D01*
X118896183Y-137304887D01*
X119025904Y-137062195D01*
X119105786Y-136798860D01*
X119132759Y-136525000D01*
X119105786Y-136251140D01*
X119025904Y-135987805D01*
X118896183Y-135745113D01*
X118721608Y-135532392D01*
X118508887Y-135357817D01*
X118314587Y-135253962D01*
X118380942Y-135227059D01*
X118610729Y-135076006D01*
X118806632Y-134883026D01*
X118961122Y-134655535D01*
X119068262Y-134402276D01*
X119083220Y-134328070D01*
X118960720Y-134112000D01*
X117602000Y-134112000D01*
X117602000Y-134132000D01*
X117348000Y-134132000D01*
X117348000Y-134112000D01*
X115989280Y-134112000D01*
X115866780Y-134328070D01*
X115881738Y-134402276D01*
X115988878Y-134655535D01*
X116143368Y-134883026D01*
X116339271Y-135076006D01*
X116569058Y-135227059D01*
X116635413Y-135253962D01*
X116441113Y-135357817D01*
X116228392Y-135532392D01*
X116053817Y-135745113D01*
X115924096Y-135987805D01*
X115844214Y-136251140D01*
X115817241Y-136525000D01*
X51574700Y-136525000D01*
X51574700Y-133985000D01*
X57397241Y-133985000D01*
X57424214Y-134258860D01*
X57504096Y-134522195D01*
X57633817Y-134764887D01*
X57808392Y-134977608D01*
X58021113Y-135152183D01*
X58215413Y-135256038D01*
X58149058Y-135282941D01*
X57919271Y-135433994D01*
X57723368Y-135626974D01*
X57568878Y-135854465D01*
X57461738Y-136107724D01*
X57446780Y-136181930D01*
X57569280Y-136398000D01*
X58928000Y-136398000D01*
X58928000Y-136378000D01*
X59182000Y-136378000D01*
X59182000Y-136398000D01*
X60540720Y-136398000D01*
X60663220Y-136181930D01*
X60648262Y-136107724D01*
X60541122Y-135854465D01*
X60386632Y-135626974D01*
X60190729Y-135433994D01*
X59960942Y-135282941D01*
X59894587Y-135256038D01*
X60088887Y-135152183D01*
X60301608Y-134977608D01*
X60476183Y-134764887D01*
X60605904Y-134522195D01*
X60685786Y-134258860D01*
X60712759Y-133985000D01*
X60685786Y-133711140D01*
X60605904Y-133447805D01*
X60476183Y-133205113D01*
X60301608Y-132992392D01*
X60088887Y-132817817D01*
X59894587Y-132713962D01*
X59960942Y-132687059D01*
X60190729Y-132536006D01*
X60386632Y-132343026D01*
X60541122Y-132115535D01*
X60648262Y-131862276D01*
X60663220Y-131788070D01*
X60540720Y-131572000D01*
X59182000Y-131572000D01*
X59182000Y-131592000D01*
X58928000Y-131592000D01*
X58928000Y-131572000D01*
X57569280Y-131572000D01*
X57446780Y-131788070D01*
X57461738Y-131862276D01*
X57568878Y-132115535D01*
X57723368Y-132343026D01*
X57919271Y-132536006D01*
X58149058Y-132687059D01*
X58215413Y-132713962D01*
X58021113Y-132817817D01*
X57808392Y-132992392D01*
X57633817Y-133205113D01*
X57504096Y-133447805D01*
X57424214Y-133711140D01*
X57397241Y-133985000D01*
X51574700Y-133985000D01*
X51574700Y-128905000D01*
X57397241Y-128905000D01*
X57424214Y-129178860D01*
X57504096Y-129442195D01*
X57633817Y-129684887D01*
X57808392Y-129897608D01*
X58021113Y-130072183D01*
X58215413Y-130176038D01*
X58149058Y-130202941D01*
X57919271Y-130353994D01*
X57723368Y-130546974D01*
X57568878Y-130774465D01*
X57461738Y-131027724D01*
X57446780Y-131101930D01*
X57569280Y-131318000D01*
X58928000Y-131318000D01*
X58928000Y-131298000D01*
X59182000Y-131298000D01*
X59182000Y-131318000D01*
X60540720Y-131318000D01*
X60663220Y-131101930D01*
X60648262Y-131027724D01*
X60541122Y-130774465D01*
X60523755Y-130748891D01*
X82580000Y-130748891D01*
X82580000Y-131061109D01*
X82640911Y-131367327D01*
X82760391Y-131655779D01*
X82933850Y-131915379D01*
X83154621Y-132136150D01*
X83414221Y-132309609D01*
X83702673Y-132429089D01*
X84008891Y-132490000D01*
X84321109Y-132490000D01*
X84627327Y-132429089D01*
X84915779Y-132309609D01*
X85175379Y-132136150D01*
X85396150Y-131915379D01*
X85569609Y-131655779D01*
X85689089Y-131367327D01*
X85750000Y-131061109D01*
X85750000Y-130748891D01*
X85689089Y-130442673D01*
X85569609Y-130154221D01*
X85396150Y-129894621D01*
X85175379Y-129673850D01*
X84915779Y-129500391D01*
X84627327Y-129380911D01*
X84321109Y-129320000D01*
X84008891Y-129320000D01*
X83702673Y-129380911D01*
X83414221Y-129500391D01*
X83154621Y-129673850D01*
X82933850Y-129894621D01*
X82760391Y-130154221D01*
X82640911Y-130442673D01*
X82580000Y-130748891D01*
X60523755Y-130748891D01*
X60386632Y-130546974D01*
X60190729Y-130353994D01*
X59960942Y-130202941D01*
X59894587Y-130176038D01*
X60088887Y-130072183D01*
X60301608Y-129897608D01*
X60476183Y-129684887D01*
X60605904Y-129442195D01*
X60685786Y-129178860D01*
X60712759Y-128905000D01*
X60685786Y-128631140D01*
X60682666Y-128620852D01*
X85380000Y-128620852D01*
X85380000Y-129189148D01*
X85490869Y-129746523D01*
X85708346Y-130271560D01*
X86024074Y-130744080D01*
X86425920Y-131145926D01*
X86898440Y-131461654D01*
X87423477Y-131679131D01*
X87980852Y-131790000D01*
X88549148Y-131790000D01*
X89106523Y-131679131D01*
X89631560Y-131461654D01*
X90104080Y-131145926D01*
X90501115Y-130748891D01*
X90780000Y-130748891D01*
X90780000Y-131061109D01*
X90840911Y-131367327D01*
X90960391Y-131655779D01*
X91133850Y-131915379D01*
X91354621Y-132136150D01*
X91614221Y-132309609D01*
X91902673Y-132429089D01*
X92208891Y-132490000D01*
X92521109Y-132490000D01*
X92827327Y-132429089D01*
X93115779Y-132309609D01*
X93375379Y-132136150D01*
X93596150Y-131915379D01*
X93769609Y-131655779D01*
X93856915Y-131445000D01*
X115817241Y-131445000D01*
X115844214Y-131718860D01*
X115924096Y-131982195D01*
X116053817Y-132224887D01*
X116228392Y-132437608D01*
X116441113Y-132612183D01*
X116635413Y-132716038D01*
X116569058Y-132742941D01*
X116339271Y-132893994D01*
X116143368Y-133086974D01*
X115988878Y-133314465D01*
X115881738Y-133567724D01*
X115866780Y-133641930D01*
X115989280Y-133858000D01*
X117348000Y-133858000D01*
X117348000Y-133838000D01*
X117602000Y-133838000D01*
X117602000Y-133858000D01*
X118960720Y-133858000D01*
X119083220Y-133641930D01*
X119068262Y-133567724D01*
X118961122Y-133314465D01*
X118806632Y-133086974D01*
X118610729Y-132893994D01*
X118380942Y-132742941D01*
X118314587Y-132716038D01*
X118508887Y-132612183D01*
X118721608Y-132437608D01*
X118896183Y-132224887D01*
X119025904Y-131982195D01*
X119105786Y-131718860D01*
X119132759Y-131445000D01*
X119105786Y-131171140D01*
X119025904Y-130907805D01*
X118896183Y-130665113D01*
X118721608Y-130452392D01*
X118508887Y-130277817D01*
X118314587Y-130173962D01*
X118380942Y-130147059D01*
X118610729Y-129996006D01*
X118806632Y-129803026D01*
X118961122Y-129575535D01*
X119068262Y-129322276D01*
X119083220Y-129248070D01*
X118960720Y-129032000D01*
X117602000Y-129032000D01*
X117602000Y-129052000D01*
X117348000Y-129052000D01*
X117348000Y-129032000D01*
X115989280Y-129032000D01*
X115866780Y-129248070D01*
X115881738Y-129322276D01*
X115988878Y-129575535D01*
X116143368Y-129803026D01*
X116339271Y-129996006D01*
X116569058Y-130147059D01*
X116635413Y-130173962D01*
X116441113Y-130277817D01*
X116228392Y-130452392D01*
X116053817Y-130665113D01*
X115924096Y-130907805D01*
X115844214Y-131171140D01*
X115817241Y-131445000D01*
X93856915Y-131445000D01*
X93889089Y-131367327D01*
X93950000Y-131061109D01*
X93950000Y-130748891D01*
X93889089Y-130442673D01*
X93769609Y-130154221D01*
X93596150Y-129894621D01*
X93375379Y-129673850D01*
X93115779Y-129500391D01*
X92827327Y-129380911D01*
X92521109Y-129320000D01*
X92208891Y-129320000D01*
X91902673Y-129380911D01*
X91614221Y-129500391D01*
X91354621Y-129673850D01*
X91133850Y-129894621D01*
X90960391Y-130154221D01*
X90840911Y-130442673D01*
X90780000Y-130748891D01*
X90501115Y-130748891D01*
X90505926Y-130744080D01*
X90821654Y-130271560D01*
X91039131Y-129746523D01*
X91150000Y-129189148D01*
X91150000Y-128620852D01*
X91039131Y-128063477D01*
X90821654Y-127538440D01*
X90505926Y-127065920D01*
X90104080Y-126664074D01*
X89656485Y-126365000D01*
X115817241Y-126365000D01*
X115844214Y-126638860D01*
X115924096Y-126902195D01*
X116053817Y-127144887D01*
X116228392Y-127357608D01*
X116441113Y-127532183D01*
X116635413Y-127636038D01*
X116569058Y-127662941D01*
X116339271Y-127813994D01*
X116143368Y-128006974D01*
X115988878Y-128234465D01*
X115881738Y-128487724D01*
X115866780Y-128561930D01*
X115989280Y-128778000D01*
X117348000Y-128778000D01*
X117348000Y-128758000D01*
X117602000Y-128758000D01*
X117602000Y-128778000D01*
X118960720Y-128778000D01*
X119083220Y-128561930D01*
X119068262Y-128487724D01*
X118961122Y-128234465D01*
X118806632Y-128006974D01*
X118610729Y-127813994D01*
X118380942Y-127662941D01*
X118314587Y-127636038D01*
X118508887Y-127532183D01*
X118721608Y-127357608D01*
X118896183Y-127144887D01*
X119025904Y-126902195D01*
X119105786Y-126638860D01*
X119132759Y-126365000D01*
X119105786Y-126091140D01*
X119025904Y-125827805D01*
X118896183Y-125585113D01*
X118721608Y-125372392D01*
X118508887Y-125197817D01*
X118314587Y-125093962D01*
X118380942Y-125067059D01*
X118610729Y-124916006D01*
X118806632Y-124723026D01*
X118961122Y-124495535D01*
X119068262Y-124242276D01*
X119083220Y-124168070D01*
X118960720Y-123952000D01*
X117602000Y-123952000D01*
X117602000Y-123972000D01*
X117348000Y-123972000D01*
X117348000Y-123952000D01*
X115989280Y-123952000D01*
X115866780Y-124168070D01*
X115881738Y-124242276D01*
X115988878Y-124495535D01*
X116143368Y-124723026D01*
X116339271Y-124916006D01*
X116569058Y-125067059D01*
X116635413Y-125093962D01*
X116441113Y-125197817D01*
X116228392Y-125372392D01*
X116053817Y-125585113D01*
X115924096Y-125827805D01*
X115844214Y-126091140D01*
X115817241Y-126365000D01*
X89656485Y-126365000D01*
X89631560Y-126348346D01*
X89106523Y-126130869D01*
X88549148Y-126020000D01*
X87980852Y-126020000D01*
X87423477Y-126130869D01*
X86898440Y-126348346D01*
X86425920Y-126664074D01*
X86024074Y-127065920D01*
X85708346Y-127538440D01*
X85490869Y-128063477D01*
X85380000Y-128620852D01*
X60682666Y-128620852D01*
X60605904Y-128367805D01*
X60476183Y-128125113D01*
X60301608Y-127912392D01*
X60088887Y-127737817D01*
X59894587Y-127633962D01*
X59960942Y-127607059D01*
X60190729Y-127456006D01*
X60386632Y-127263026D01*
X60541122Y-127035535D01*
X60648262Y-126782276D01*
X60663220Y-126708070D01*
X60540720Y-126492000D01*
X59182000Y-126492000D01*
X59182000Y-126512000D01*
X58928000Y-126512000D01*
X58928000Y-126492000D01*
X57569280Y-126492000D01*
X57446780Y-126708070D01*
X57461738Y-126782276D01*
X57568878Y-127035535D01*
X57723368Y-127263026D01*
X57919271Y-127456006D01*
X58149058Y-127607059D01*
X58215413Y-127633962D01*
X58021113Y-127737817D01*
X57808392Y-127912392D01*
X57633817Y-128125113D01*
X57504096Y-128367805D01*
X57424214Y-128631140D01*
X57397241Y-128905000D01*
X51574700Y-128905000D01*
X51574700Y-123825000D01*
X57397241Y-123825000D01*
X57424214Y-124098860D01*
X57504096Y-124362195D01*
X57633817Y-124604887D01*
X57808392Y-124817608D01*
X58021113Y-124992183D01*
X58215413Y-125096038D01*
X58149058Y-125122941D01*
X57919271Y-125273994D01*
X57723368Y-125466974D01*
X57568878Y-125694465D01*
X57461738Y-125947724D01*
X57446780Y-126021930D01*
X57569280Y-126238000D01*
X58928000Y-126238000D01*
X58928000Y-126218000D01*
X59182000Y-126218000D01*
X59182000Y-126238000D01*
X60540720Y-126238000D01*
X60663220Y-126021930D01*
X60648262Y-125947724D01*
X60541122Y-125694465D01*
X60386632Y-125466974D01*
X60190729Y-125273994D01*
X59960942Y-125122941D01*
X59894587Y-125096038D01*
X60088887Y-124992183D01*
X60301608Y-124817608D01*
X60476183Y-124604887D01*
X60605904Y-124362195D01*
X60685786Y-124098860D01*
X60712759Y-123825000D01*
X60685786Y-123551140D01*
X60605904Y-123287805D01*
X60476183Y-123045113D01*
X60301608Y-122832392D01*
X60088887Y-122657817D01*
X59894587Y-122553962D01*
X59960942Y-122527059D01*
X60190729Y-122376006D01*
X60386632Y-122183026D01*
X60541122Y-121955535D01*
X60648262Y-121702276D01*
X60663220Y-121628070D01*
X60540720Y-121412000D01*
X59182000Y-121412000D01*
X59182000Y-121432000D01*
X58928000Y-121432000D01*
X58928000Y-121412000D01*
X57569280Y-121412000D01*
X57446780Y-121628070D01*
X57461738Y-121702276D01*
X57568878Y-121955535D01*
X57723368Y-122183026D01*
X57919271Y-122376006D01*
X58149058Y-122527059D01*
X58215413Y-122553962D01*
X58021113Y-122657817D01*
X57808392Y-122832392D01*
X57633817Y-123045113D01*
X57504096Y-123287805D01*
X57424214Y-123551140D01*
X57397241Y-123825000D01*
X51574700Y-123825000D01*
X51574700Y-121285000D01*
X115817241Y-121285000D01*
X115844214Y-121558860D01*
X115924096Y-121822195D01*
X116053817Y-122064887D01*
X116228392Y-122277608D01*
X116441113Y-122452183D01*
X116635413Y-122556038D01*
X116569058Y-122582941D01*
X116339271Y-122733994D01*
X116143368Y-122926974D01*
X115988878Y-123154465D01*
X115881738Y-123407724D01*
X115866780Y-123481930D01*
X115989280Y-123698000D01*
X117348000Y-123698000D01*
X117348000Y-123678000D01*
X117602000Y-123678000D01*
X117602000Y-123698000D01*
X118960720Y-123698000D01*
X119083220Y-123481930D01*
X119068262Y-123407724D01*
X118961122Y-123154465D01*
X118806632Y-122926974D01*
X118610729Y-122733994D01*
X118380942Y-122582941D01*
X118314587Y-122556038D01*
X118508887Y-122452183D01*
X118721608Y-122277608D01*
X118896183Y-122064887D01*
X119025904Y-121822195D01*
X119105786Y-121558860D01*
X119132759Y-121285000D01*
X119105786Y-121011140D01*
X119025904Y-120747805D01*
X118896183Y-120505113D01*
X118721608Y-120292392D01*
X118508887Y-120117817D01*
X118314587Y-120013962D01*
X118380942Y-119987059D01*
X118610729Y-119836006D01*
X118806632Y-119643026D01*
X118961122Y-119415535D01*
X119068262Y-119162276D01*
X119083220Y-119088070D01*
X118960720Y-118872000D01*
X117602000Y-118872000D01*
X117602000Y-118892000D01*
X117348000Y-118892000D01*
X117348000Y-118872000D01*
X115989280Y-118872000D01*
X115866780Y-119088070D01*
X115881738Y-119162276D01*
X115988878Y-119415535D01*
X116143368Y-119643026D01*
X116339271Y-119836006D01*
X116569058Y-119987059D01*
X116635413Y-120013962D01*
X116441113Y-120117817D01*
X116228392Y-120292392D01*
X116053817Y-120505113D01*
X115924096Y-120747805D01*
X115844214Y-121011140D01*
X115817241Y-121285000D01*
X51574700Y-121285000D01*
X51574700Y-79488140D01*
X51862801Y-79680643D01*
X52186377Y-79814672D01*
X52529882Y-79883000D01*
X52880118Y-79883000D01*
X53223623Y-79814672D01*
X53547199Y-79680643D01*
X53838409Y-79486063D01*
X54086063Y-79238409D01*
X54280643Y-78947199D01*
X54414672Y-78623623D01*
X54483000Y-78280118D01*
X54483000Y-77929882D01*
X54461411Y-77821350D01*
X55056914Y-77225847D01*
X55096643Y-77193243D01*
X55129247Y-77153515D01*
X55129251Y-77153511D01*
X55226781Y-77034670D01*
X55321200Y-76858025D01*
X55321200Y-77202747D01*
X55464688Y-77924109D01*
X55746150Y-78603617D01*
X56154768Y-79215159D01*
X56674841Y-79735232D01*
X57286383Y-80143850D01*
X57965891Y-80425312D01*
X58687253Y-80568800D01*
X59133039Y-80568800D01*
X56824286Y-82877553D01*
X56784558Y-82910157D01*
X56751954Y-82949885D01*
X56751950Y-82949889D01*
X56654419Y-83068731D01*
X56557718Y-83249645D01*
X56557718Y-83249646D01*
X56498170Y-83445950D01*
X56483101Y-83598948D01*
X56478063Y-83650100D01*
X56483101Y-83701251D01*
X56483100Y-107003359D01*
X56478063Y-107054500D01*
X56483100Y-107105641D01*
X56483100Y-107105651D01*
X56498169Y-107258649D01*
X56557717Y-107454953D01*
X56654419Y-107635870D01*
X56784557Y-107794443D01*
X56824291Y-107827052D01*
X57413828Y-108416589D01*
X57397241Y-108585000D01*
X57424214Y-108858860D01*
X57504096Y-109122195D01*
X57633817Y-109364887D01*
X57808392Y-109577608D01*
X58021113Y-109752183D01*
X58215413Y-109856038D01*
X58149058Y-109882941D01*
X57919271Y-110033994D01*
X57723368Y-110226974D01*
X57568878Y-110454465D01*
X57461738Y-110707724D01*
X57446780Y-110781930D01*
X57569280Y-110998000D01*
X58928000Y-110998000D01*
X58928000Y-110978000D01*
X59182000Y-110978000D01*
X59182000Y-110998000D01*
X59202000Y-110998000D01*
X59202000Y-111252000D01*
X59182000Y-111252000D01*
X59182000Y-111272000D01*
X58928000Y-111272000D01*
X58928000Y-111252000D01*
X57569280Y-111252000D01*
X57446780Y-111468070D01*
X57461738Y-111542276D01*
X57568878Y-111795535D01*
X57723368Y-112023026D01*
X57919271Y-112216006D01*
X58149058Y-112367059D01*
X58215413Y-112393962D01*
X58021113Y-112497817D01*
X57808392Y-112672392D01*
X57633817Y-112885113D01*
X57504096Y-113127805D01*
X57424214Y-113391140D01*
X57397241Y-113665000D01*
X57424214Y-113938860D01*
X57504096Y-114202195D01*
X57633817Y-114444887D01*
X57808392Y-114657608D01*
X58021113Y-114832183D01*
X58215413Y-114936038D01*
X58149058Y-114962941D01*
X57919271Y-115113994D01*
X57723368Y-115306974D01*
X57568878Y-115534465D01*
X57461738Y-115787724D01*
X57446780Y-115861930D01*
X57569280Y-116078000D01*
X58928000Y-116078000D01*
X58928000Y-116058000D01*
X59182000Y-116058000D01*
X59182000Y-116078000D01*
X59202000Y-116078000D01*
X59202000Y-116332000D01*
X59182000Y-116332000D01*
X59182000Y-116352000D01*
X58928000Y-116352000D01*
X58928000Y-116332000D01*
X57569280Y-116332000D01*
X57446780Y-116548070D01*
X57461738Y-116622276D01*
X57568878Y-116875535D01*
X57723368Y-117103026D01*
X57919271Y-117296006D01*
X58149058Y-117447059D01*
X58215413Y-117473962D01*
X58021113Y-117577817D01*
X57808392Y-117752392D01*
X57633817Y-117965113D01*
X57504096Y-118207805D01*
X57424214Y-118471140D01*
X57397241Y-118745000D01*
X57424214Y-119018860D01*
X57504096Y-119282195D01*
X57633817Y-119524887D01*
X57808392Y-119737608D01*
X58021113Y-119912183D01*
X58215413Y-120016038D01*
X58149058Y-120042941D01*
X57919271Y-120193994D01*
X57723368Y-120386974D01*
X57568878Y-120614465D01*
X57461738Y-120867724D01*
X57446780Y-120941930D01*
X57569280Y-121158000D01*
X58928000Y-121158000D01*
X58928000Y-121138000D01*
X59182000Y-121138000D01*
X59182000Y-121158000D01*
X60540720Y-121158000D01*
X60663220Y-120941930D01*
X60648262Y-120867724D01*
X60541122Y-120614465D01*
X60386632Y-120386974D01*
X60190729Y-120193994D01*
X59960942Y-120042941D01*
X59894587Y-120016038D01*
X60088887Y-119912183D01*
X60301608Y-119737608D01*
X60476183Y-119524887D01*
X60605904Y-119282195D01*
X60685786Y-119018860D01*
X60712759Y-118745000D01*
X60696172Y-118576589D01*
X63067761Y-116205000D01*
X115817241Y-116205000D01*
X115844214Y-116478860D01*
X115924096Y-116742195D01*
X116053817Y-116984887D01*
X116228392Y-117197608D01*
X116441113Y-117372183D01*
X116635413Y-117476038D01*
X116569058Y-117502941D01*
X116339271Y-117653994D01*
X116143368Y-117846974D01*
X115988878Y-118074465D01*
X115881738Y-118327724D01*
X115866780Y-118401930D01*
X115989280Y-118618000D01*
X117348000Y-118618000D01*
X117348000Y-118598000D01*
X117602000Y-118598000D01*
X117602000Y-118618000D01*
X118960720Y-118618000D01*
X119083220Y-118401930D01*
X119068262Y-118327724D01*
X118961122Y-118074465D01*
X118806632Y-117846974D01*
X118610729Y-117653994D01*
X118380942Y-117502941D01*
X118314587Y-117476038D01*
X118508887Y-117372183D01*
X118721608Y-117197608D01*
X118896183Y-116984887D01*
X119025904Y-116742195D01*
X119105786Y-116478860D01*
X119132759Y-116205000D01*
X119105786Y-115931140D01*
X119025904Y-115667805D01*
X118896183Y-115425113D01*
X118721608Y-115212392D01*
X118508887Y-115037817D01*
X118314587Y-114933962D01*
X118380942Y-114907059D01*
X118610729Y-114756006D01*
X118806632Y-114563026D01*
X118961122Y-114335535D01*
X119068262Y-114082276D01*
X119083220Y-114008070D01*
X118960720Y-113792000D01*
X117602000Y-113792000D01*
X117602000Y-113812000D01*
X117348000Y-113812000D01*
X117348000Y-113792000D01*
X115989280Y-113792000D01*
X115866780Y-114008070D01*
X115881738Y-114082276D01*
X115988878Y-114335535D01*
X116143368Y-114563026D01*
X116339271Y-114756006D01*
X116569058Y-114907059D01*
X116635413Y-114933962D01*
X116441113Y-115037817D01*
X116228392Y-115212392D01*
X116053817Y-115425113D01*
X115924096Y-115667805D01*
X115844214Y-115931140D01*
X115817241Y-116205000D01*
X63067761Y-116205000D01*
X65626715Y-113646047D01*
X65666443Y-113613443D01*
X65796581Y-113454870D01*
X65893283Y-113273954D01*
X65952831Y-113077650D01*
X65967900Y-112924652D01*
X65967900Y-112924642D01*
X65972937Y-112873500D01*
X65967900Y-112822359D01*
X65967900Y-111829161D01*
X66006000Y-111637621D01*
X66006000Y-111424979D01*
X65964515Y-111216422D01*
X65926647Y-111125000D01*
X115817241Y-111125000D01*
X115844214Y-111398860D01*
X115924096Y-111662195D01*
X116053817Y-111904887D01*
X116228392Y-112117608D01*
X116441113Y-112292183D01*
X116635413Y-112396038D01*
X116569058Y-112422941D01*
X116339271Y-112573994D01*
X116143368Y-112766974D01*
X115988878Y-112994465D01*
X115881738Y-113247724D01*
X115866780Y-113321930D01*
X115989280Y-113538000D01*
X117348000Y-113538000D01*
X117348000Y-113518000D01*
X117602000Y-113518000D01*
X117602000Y-113538000D01*
X118960720Y-113538000D01*
X119083220Y-113321930D01*
X119068262Y-113247724D01*
X118961122Y-112994465D01*
X118806632Y-112766974D01*
X118610729Y-112573994D01*
X118380942Y-112422941D01*
X118314587Y-112396038D01*
X118508887Y-112292183D01*
X118721608Y-112117608D01*
X118896183Y-111904887D01*
X119025904Y-111662195D01*
X119105786Y-111398860D01*
X119132759Y-111125000D01*
X119105786Y-110851140D01*
X119025904Y-110587805D01*
X118896183Y-110345113D01*
X118721608Y-110132392D01*
X118508887Y-109957817D01*
X118314587Y-109853962D01*
X118380942Y-109827059D01*
X118610729Y-109676006D01*
X118806632Y-109483026D01*
X118961122Y-109255535D01*
X119068262Y-109002276D01*
X119083220Y-108928070D01*
X118960720Y-108712000D01*
X117602000Y-108712000D01*
X117602000Y-108732000D01*
X117348000Y-108732000D01*
X117348000Y-108712000D01*
X115989280Y-108712000D01*
X115866780Y-108928070D01*
X115881738Y-109002276D01*
X115988878Y-109255535D01*
X116143368Y-109483026D01*
X116339271Y-109676006D01*
X116569058Y-109827059D01*
X116635413Y-109853962D01*
X116441113Y-109957817D01*
X116228392Y-110132392D01*
X116053817Y-110345113D01*
X115924096Y-110587805D01*
X115844214Y-110851140D01*
X115817241Y-111125000D01*
X65926647Y-111125000D01*
X65883140Y-111019965D01*
X65765002Y-110843159D01*
X65614641Y-110692798D01*
X65437835Y-110574660D01*
X65241378Y-110493285D01*
X65032821Y-110451800D01*
X64820179Y-110451800D01*
X64611622Y-110493285D01*
X64415165Y-110574660D01*
X64238359Y-110692798D01*
X64087998Y-110843159D01*
X63969860Y-111019965D01*
X63888485Y-111216422D01*
X63847000Y-111424979D01*
X63847000Y-111637621D01*
X63885101Y-111829164D01*
X63885100Y-112442138D01*
X60615933Y-115711305D01*
X60541122Y-115534465D01*
X60386632Y-115306974D01*
X60190729Y-115113994D01*
X59960942Y-114962941D01*
X59894587Y-114936038D01*
X60088887Y-114832183D01*
X60301608Y-114657608D01*
X60476183Y-114444887D01*
X60605904Y-114202195D01*
X60685786Y-113938860D01*
X60712759Y-113665000D01*
X60696172Y-113496589D01*
X64512015Y-109680747D01*
X64551743Y-109648143D01*
X64681881Y-109489570D01*
X64778583Y-109308654D01*
X64838131Y-109112350D01*
X64853200Y-108959352D01*
X64853200Y-108959342D01*
X64858237Y-108908201D01*
X64853200Y-108857059D01*
X64853200Y-107832061D01*
X64891300Y-107640521D01*
X64891300Y-107427879D01*
X64849815Y-107219322D01*
X64768440Y-107022865D01*
X64650302Y-106846059D01*
X64499941Y-106695698D01*
X64323135Y-106577560D01*
X64126678Y-106496185D01*
X63918121Y-106454700D01*
X63705479Y-106454700D01*
X63496922Y-106496185D01*
X63300465Y-106577560D01*
X63123659Y-106695698D01*
X62973298Y-106846059D01*
X62855160Y-107022865D01*
X62773785Y-107219322D01*
X62732300Y-107427879D01*
X62732300Y-107640521D01*
X62770401Y-107832064D01*
X62770400Y-108476838D01*
X60615933Y-110631305D01*
X60541122Y-110454465D01*
X60386632Y-110226974D01*
X60190729Y-110033994D01*
X59960942Y-109882941D01*
X59894587Y-109856038D01*
X60088887Y-109752183D01*
X60301608Y-109577608D01*
X60476183Y-109364887D01*
X60605904Y-109122195D01*
X60685786Y-108858860D01*
X60712759Y-108585000D01*
X60685786Y-108311140D01*
X60605904Y-108047805D01*
X60476183Y-107805113D01*
X60301608Y-107592392D01*
X60088887Y-107417817D01*
X59894587Y-107313962D01*
X59960942Y-107287059D01*
X60190729Y-107136006D01*
X60386632Y-106943026D01*
X60541122Y-106715535D01*
X60648262Y-106462276D01*
X60663220Y-106388070D01*
X60540720Y-106172000D01*
X59182000Y-106172000D01*
X59182000Y-106192000D01*
X58928000Y-106192000D01*
X58928000Y-106172000D01*
X58908000Y-106172000D01*
X58908000Y-106045000D01*
X115817241Y-106045000D01*
X115844214Y-106318860D01*
X115924096Y-106582195D01*
X116053817Y-106824887D01*
X116228392Y-107037608D01*
X116441113Y-107212183D01*
X116635413Y-107316038D01*
X116569058Y-107342941D01*
X116339271Y-107493994D01*
X116143368Y-107686974D01*
X115988878Y-107914465D01*
X115881738Y-108167724D01*
X115866780Y-108241930D01*
X115989280Y-108458000D01*
X117348000Y-108458000D01*
X117348000Y-108438000D01*
X117602000Y-108438000D01*
X117602000Y-108458000D01*
X118960720Y-108458000D01*
X119083220Y-108241930D01*
X119068262Y-108167724D01*
X118961122Y-107914465D01*
X118806632Y-107686974D01*
X118610729Y-107493994D01*
X118380942Y-107342941D01*
X118314587Y-107316038D01*
X118508887Y-107212183D01*
X118721608Y-107037608D01*
X118896183Y-106824887D01*
X119025904Y-106582195D01*
X119105786Y-106318860D01*
X119132759Y-106045000D01*
X119105786Y-105771140D01*
X119025904Y-105507805D01*
X118896183Y-105265113D01*
X118721608Y-105052392D01*
X118508887Y-104877817D01*
X118314587Y-104773962D01*
X118380942Y-104747059D01*
X118610729Y-104596006D01*
X118806632Y-104403026D01*
X118961122Y-104175535D01*
X119068262Y-103922276D01*
X119083220Y-103848070D01*
X118960720Y-103632000D01*
X117602000Y-103632000D01*
X117602000Y-103652000D01*
X117348000Y-103652000D01*
X117348000Y-103632000D01*
X115989280Y-103632000D01*
X115866780Y-103848070D01*
X115881738Y-103922276D01*
X115988878Y-104175535D01*
X116143368Y-104403026D01*
X116339271Y-104596006D01*
X116569058Y-104747059D01*
X116635413Y-104773962D01*
X116441113Y-104877817D01*
X116228392Y-105052392D01*
X116053817Y-105265113D01*
X115924096Y-105507805D01*
X115844214Y-105771140D01*
X115817241Y-106045000D01*
X58908000Y-106045000D01*
X58908000Y-105918000D01*
X58928000Y-105918000D01*
X58928000Y-105898000D01*
X59182000Y-105898000D01*
X59182000Y-105918000D01*
X60540720Y-105918000D01*
X60663220Y-105701930D01*
X60648262Y-105627724D01*
X60541122Y-105374465D01*
X60386632Y-105146974D01*
X60190729Y-104953994D01*
X59960942Y-104802941D01*
X59894587Y-104776038D01*
X60088887Y-104672183D01*
X60242155Y-104546400D01*
X80593859Y-104546400D01*
X80645000Y-104551437D01*
X80696141Y-104546400D01*
X80696152Y-104546400D01*
X80849150Y-104531331D01*
X81045454Y-104471783D01*
X81226370Y-104375081D01*
X81384943Y-104244943D01*
X81417552Y-104205209D01*
X84657761Y-100965000D01*
X115817241Y-100965000D01*
X115844214Y-101238860D01*
X115924096Y-101502195D01*
X116053817Y-101744887D01*
X116228392Y-101957608D01*
X116441113Y-102132183D01*
X116635413Y-102236038D01*
X116569058Y-102262941D01*
X116339271Y-102413994D01*
X116143368Y-102606974D01*
X115988878Y-102834465D01*
X115881738Y-103087724D01*
X115866780Y-103161930D01*
X115989280Y-103378000D01*
X117348000Y-103378000D01*
X117348000Y-103358000D01*
X117602000Y-103358000D01*
X117602000Y-103378000D01*
X118960720Y-103378000D01*
X119083220Y-103161930D01*
X119068262Y-103087724D01*
X118961122Y-102834465D01*
X118806632Y-102606974D01*
X118610729Y-102413994D01*
X118380942Y-102262941D01*
X118314587Y-102236038D01*
X118508887Y-102132183D01*
X118721608Y-101957608D01*
X118896183Y-101744887D01*
X119025904Y-101502195D01*
X119105786Y-101238860D01*
X119132759Y-100965000D01*
X119105786Y-100691140D01*
X119025904Y-100427805D01*
X118896183Y-100185113D01*
X118721608Y-99972392D01*
X118508887Y-99797817D01*
X118314587Y-99693962D01*
X118380942Y-99667059D01*
X118610729Y-99516006D01*
X118806632Y-99323026D01*
X118961122Y-99095535D01*
X119068262Y-98842276D01*
X119083220Y-98768070D01*
X118960720Y-98552000D01*
X117602000Y-98552000D01*
X117602000Y-98572000D01*
X117348000Y-98572000D01*
X117348000Y-98552000D01*
X115989280Y-98552000D01*
X115866780Y-98768070D01*
X115881738Y-98842276D01*
X115988878Y-99095535D01*
X116143368Y-99323026D01*
X116339271Y-99516006D01*
X116569058Y-99667059D01*
X116635413Y-99693962D01*
X116441113Y-99797817D01*
X116228392Y-99972392D01*
X116053817Y-100185113D01*
X115924096Y-100427805D01*
X115844214Y-100691140D01*
X115817241Y-100965000D01*
X84657761Y-100965000D01*
X87540831Y-98081930D01*
X115866780Y-98081930D01*
X115989280Y-98298000D01*
X117348000Y-98298000D01*
X117348000Y-97028000D01*
X117602000Y-97028000D01*
X117602000Y-98298000D01*
X118960720Y-98298000D01*
X119083220Y-98081930D01*
X119068262Y-98007724D01*
X118961122Y-97754465D01*
X118806632Y-97526974D01*
X118610729Y-97333994D01*
X118380942Y-97182941D01*
X118126101Y-97079619D01*
X117856000Y-97028000D01*
X117602000Y-97028000D01*
X117348000Y-97028000D01*
X117094000Y-97028000D01*
X116823899Y-97079619D01*
X116569058Y-97182941D01*
X116339271Y-97333994D01*
X116143368Y-97526974D01*
X115988878Y-97754465D01*
X115881738Y-98007724D01*
X115866780Y-98081930D01*
X87540831Y-98081930D01*
X106911591Y-78711171D01*
X107009357Y-78947199D01*
X107203937Y-79238409D01*
X107451591Y-79486063D01*
X107742801Y-79680643D01*
X108066377Y-79814672D01*
X108409882Y-79883000D01*
X108760118Y-79883000D01*
X109103623Y-79814672D01*
X109427199Y-79680643D01*
X109718409Y-79486063D01*
X109966063Y-79238409D01*
X110160643Y-78947199D01*
X110294672Y-78623623D01*
X110363000Y-78280118D01*
X110363000Y-77929882D01*
X110294672Y-77586377D01*
X110160643Y-77262801D01*
X109966063Y-76971591D01*
X109829472Y-76835000D01*
X109966063Y-76698409D01*
X110120516Y-76467253D01*
X113741200Y-76467253D01*
X113741200Y-77202747D01*
X113884688Y-77924109D01*
X114166150Y-78603617D01*
X114574768Y-79215159D01*
X115094841Y-79735232D01*
X115706383Y-80143850D01*
X116385891Y-80425312D01*
X117107253Y-80568800D01*
X117842747Y-80568800D01*
X118564109Y-80425312D01*
X119243617Y-80143850D01*
X119855159Y-79735232D01*
X120375232Y-79215159D01*
X120783850Y-78603617D01*
X121065312Y-77924109D01*
X121208800Y-77202747D01*
X121208800Y-76467253D01*
X121065312Y-75745891D01*
X120783850Y-75066383D01*
X120375232Y-74454841D01*
X119855159Y-73934768D01*
X119243617Y-73526150D01*
X118564109Y-73244688D01*
X117842747Y-73101200D01*
X117107253Y-73101200D01*
X116385891Y-73244688D01*
X115706383Y-73526150D01*
X115094841Y-73934768D01*
X114574768Y-74454841D01*
X114166150Y-75066383D01*
X113884688Y-75745891D01*
X113741200Y-76467253D01*
X110120516Y-76467253D01*
X110160643Y-76407199D01*
X110294672Y-76083623D01*
X110363000Y-75740118D01*
X110363000Y-75389882D01*
X110294672Y-75046377D01*
X110160643Y-74722801D01*
X109966063Y-74431591D01*
X109718409Y-74183937D01*
X109427199Y-73989357D01*
X109103623Y-73855328D01*
X108760118Y-73787000D01*
X108409882Y-73787000D01*
X108066377Y-73855328D01*
X107742801Y-73989357D01*
X107451591Y-74183937D01*
X107203937Y-74431591D01*
X107009357Y-74722801D01*
X106875328Y-75046377D01*
X106807000Y-75389882D01*
X106807000Y-75740118D01*
X106828588Y-75848650D01*
X80213639Y-102463600D01*
X60242155Y-102463600D01*
X60088887Y-102337817D01*
X59894587Y-102233962D01*
X59960942Y-102207059D01*
X60190729Y-102056006D01*
X60386632Y-101863026D01*
X60541122Y-101635535D01*
X60648262Y-101382276D01*
X60663220Y-101308070D01*
X60540720Y-101092000D01*
X59182000Y-101092000D01*
X59182000Y-101112000D01*
X58928000Y-101112000D01*
X58928000Y-101092000D01*
X58908000Y-101092000D01*
X58908000Y-100838000D01*
X58928000Y-100838000D01*
X58928000Y-100818000D01*
X59182000Y-100818000D01*
X59182000Y-100838000D01*
X60540720Y-100838000D01*
X60663220Y-100621930D01*
X60648262Y-100547724D01*
X60541122Y-100294465D01*
X60386632Y-100066974D01*
X60190729Y-99873994D01*
X59960942Y-99722941D01*
X59894587Y-99696038D01*
X60088887Y-99592183D01*
X60242155Y-99466400D01*
X65215659Y-99466400D01*
X65266800Y-99471437D01*
X65317941Y-99466400D01*
X65317952Y-99466400D01*
X65470950Y-99451331D01*
X65667254Y-99391783D01*
X65848170Y-99295081D01*
X66006743Y-99164943D01*
X66039352Y-99125209D01*
X80312221Y-84852340D01*
X90297000Y-84852340D01*
X90297000Y-85327660D01*
X90389731Y-85793846D01*
X90571628Y-86232984D01*
X90835701Y-86628198D01*
X91171802Y-86964299D01*
X91567016Y-87228372D01*
X92006154Y-87410269D01*
X92472340Y-87503000D01*
X92947660Y-87503000D01*
X93413846Y-87410269D01*
X93852984Y-87228372D01*
X94248198Y-86964299D01*
X94584299Y-86628198D01*
X94848372Y-86232984D01*
X95030269Y-85793846D01*
X95123000Y-85327660D01*
X95123000Y-84852340D01*
X95030269Y-84386154D01*
X94848372Y-83947016D01*
X94584299Y-83551802D01*
X94248198Y-83215701D01*
X93852984Y-82951628D01*
X93413846Y-82769731D01*
X92947660Y-82677000D01*
X92472340Y-82677000D01*
X92006154Y-82769731D01*
X91567016Y-82951628D01*
X91171802Y-83215701D01*
X90835701Y-83551802D01*
X90571628Y-83947016D01*
X90389731Y-84386154D01*
X90297000Y-84852340D01*
X80312221Y-84852340D01*
X96178162Y-68986400D01*
X107142459Y-68986400D01*
X107203937Y-69078409D01*
X107340528Y-69215000D01*
X107203937Y-69351591D01*
X107009357Y-69642801D01*
X106875328Y-69966377D01*
X106807000Y-70309882D01*
X106807000Y-70660118D01*
X106875328Y-71003623D01*
X107009357Y-71327199D01*
X107203937Y-71618409D01*
X107451591Y-71866063D01*
X107742801Y-72060643D01*
X108066377Y-72194672D01*
X108409882Y-72263000D01*
X108760118Y-72263000D01*
X109103623Y-72194672D01*
X109427199Y-72060643D01*
X109718409Y-71866063D01*
X109966063Y-71618409D01*
X110160643Y-71327199D01*
X110294672Y-71003623D01*
X110363000Y-70660118D01*
X110363000Y-70309882D01*
X110294672Y-69966377D01*
X110160643Y-69642801D01*
X109966063Y-69351591D01*
X109829472Y-69215000D01*
X109966063Y-69078409D01*
X110160643Y-68787199D01*
X110294672Y-68463623D01*
X110363000Y-68120118D01*
X110363000Y-67769882D01*
X110294672Y-67426377D01*
X110160643Y-67102801D01*
X109966063Y-66811591D01*
X109718409Y-66563937D01*
X109427199Y-66369357D01*
X109103623Y-66235328D01*
X108760118Y-66167000D01*
X108409882Y-66167000D01*
X108066377Y-66235328D01*
X107742801Y-66369357D01*
X107451591Y-66563937D01*
X107203937Y-66811591D01*
X107142459Y-66903600D01*
X95797941Y-66903600D01*
X95746799Y-66898563D01*
X95695658Y-66903600D01*
X95695648Y-66903600D01*
X95542650Y-66918669D01*
X95346346Y-66978217D01*
X95346344Y-66978218D01*
X95165429Y-67074919D01*
X95046588Y-67172450D01*
X95046585Y-67172453D01*
X95006857Y-67205057D01*
X94974253Y-67244785D01*
X64835439Y-97383600D01*
X60242155Y-97383600D01*
X60088887Y-97257817D01*
X59846195Y-97128096D01*
X59582860Y-97048214D01*
X59377625Y-97028000D01*
X58732375Y-97028000D01*
X58565900Y-97044396D01*
X58565900Y-84081461D01*
X67257479Y-75389882D01*
X78867000Y-75389882D01*
X78867000Y-75740118D01*
X78935328Y-76083623D01*
X79069357Y-76407199D01*
X79263937Y-76698409D01*
X79400528Y-76835000D01*
X79263937Y-76971591D01*
X79069357Y-77262801D01*
X78935328Y-77586377D01*
X78867000Y-77929882D01*
X78867000Y-78280118D01*
X78935328Y-78623623D01*
X79069357Y-78947199D01*
X79263937Y-79238409D01*
X79511591Y-79486063D01*
X79802801Y-79680643D01*
X80126377Y-79814672D01*
X80469882Y-79883000D01*
X80820118Y-79883000D01*
X81163623Y-79814672D01*
X81487199Y-79680643D01*
X81778409Y-79486063D01*
X82026063Y-79238409D01*
X82220643Y-78947199D01*
X82354672Y-78623623D01*
X82423000Y-78280118D01*
X82423000Y-77929882D01*
X82354672Y-77586377D01*
X82220643Y-77262801D01*
X82026063Y-76971591D01*
X81889472Y-76835000D01*
X82026063Y-76698409D01*
X82220643Y-76407199D01*
X82354672Y-76083623D01*
X82423000Y-75740118D01*
X82423000Y-75389882D01*
X82354672Y-75046377D01*
X82220643Y-74722801D01*
X82026063Y-74431591D01*
X81778409Y-74183937D01*
X81487199Y-73989357D01*
X81163623Y-73855328D01*
X80820118Y-73787000D01*
X80469882Y-73787000D01*
X80126377Y-73855328D01*
X79802801Y-73989357D01*
X79511591Y-74183937D01*
X79263937Y-74431591D01*
X79069357Y-74722801D01*
X78935328Y-75046377D01*
X78867000Y-75389882D01*
X67257479Y-75389882D01*
X77945701Y-64701661D01*
X77945700Y-68775958D01*
X77940663Y-68827100D01*
X77945700Y-68878241D01*
X77945700Y-68878251D01*
X77960769Y-69031249D01*
X78020317Y-69227553D01*
X78117019Y-69408470D01*
X78247157Y-69567043D01*
X78286891Y-69599652D01*
X78888589Y-70201350D01*
X78867000Y-70309882D01*
X78867000Y-70660118D01*
X78935328Y-71003623D01*
X79069357Y-71327199D01*
X79263937Y-71618409D01*
X79511591Y-71866063D01*
X79802801Y-72060643D01*
X80126377Y-72194672D01*
X80469882Y-72263000D01*
X80820118Y-72263000D01*
X81163623Y-72194672D01*
X81487199Y-72060643D01*
X81778409Y-71866063D01*
X82026063Y-71618409D01*
X82220643Y-71327199D01*
X82354672Y-71003623D01*
X82423000Y-70660118D01*
X82423000Y-70309882D01*
X82354672Y-69966377D01*
X82220643Y-69642801D01*
X82026063Y-69351591D01*
X81889472Y-69215000D01*
X82026063Y-69078409D01*
X82220643Y-68787199D01*
X82354672Y-68463623D01*
X82423000Y-68120118D01*
X82423000Y-67769882D01*
X82354672Y-67426377D01*
X82220643Y-67102801D01*
X82026063Y-66811591D01*
X81778409Y-66563937D01*
X81487199Y-66369357D01*
X81163623Y-66235328D01*
X80820118Y-66167000D01*
X80469882Y-66167000D01*
X80126377Y-66235328D01*
X80028500Y-66275870D01*
X80028500Y-64954261D01*
X80361350Y-64621411D01*
X80469882Y-64643000D01*
X80820118Y-64643000D01*
X81163623Y-64574672D01*
X81487199Y-64440643D01*
X81778409Y-64246063D01*
X82026063Y-63998409D01*
X82220643Y-63707199D01*
X82354672Y-63383623D01*
X82423000Y-63040118D01*
X82423000Y-62689882D01*
X82401411Y-62581350D01*
X83003914Y-61978847D01*
X83043643Y-61946243D01*
X83081067Y-61900643D01*
X83173781Y-61787670D01*
X83270482Y-61606756D01*
X83270483Y-61606753D01*
X83330031Y-61410450D01*
X83345100Y-61257452D01*
X83345100Y-61257442D01*
X83350137Y-61206301D01*
X83345100Y-61155159D01*
X83345100Y-60149882D01*
X106807000Y-60149882D01*
X106807000Y-60500118D01*
X106875328Y-60843623D01*
X107009357Y-61167199D01*
X107203937Y-61458409D01*
X107340528Y-61595000D01*
X107203937Y-61731591D01*
X107009357Y-62022801D01*
X106875328Y-62346377D01*
X106807000Y-62689882D01*
X106807000Y-63040118D01*
X106875328Y-63383623D01*
X107009357Y-63707199D01*
X107203937Y-63998409D01*
X107451591Y-64246063D01*
X107742801Y-64440643D01*
X108066377Y-64574672D01*
X108409882Y-64643000D01*
X108760118Y-64643000D01*
X109103623Y-64574672D01*
X109427199Y-64440643D01*
X109718409Y-64246063D01*
X109966063Y-63998409D01*
X110160643Y-63707199D01*
X110294672Y-63383623D01*
X110363000Y-63040118D01*
X110363000Y-62689882D01*
X110294672Y-62346377D01*
X110160643Y-62022801D01*
X109966063Y-61731591D01*
X109829472Y-61595000D01*
X109966063Y-61458409D01*
X110160643Y-61167199D01*
X110294672Y-60843623D01*
X110363000Y-60500118D01*
X110363000Y-60149882D01*
X110294672Y-59806377D01*
X110160643Y-59482801D01*
X109966063Y-59191591D01*
X109718409Y-58943937D01*
X109427199Y-58749357D01*
X109103623Y-58615328D01*
X108760118Y-58547000D01*
X108409882Y-58547000D01*
X108066377Y-58615328D01*
X107742801Y-58749357D01*
X107451591Y-58943937D01*
X107203937Y-59191591D01*
X107009357Y-59482801D01*
X106875328Y-59806377D01*
X106807000Y-60149882D01*
X83345100Y-60149882D01*
X83345100Y-59625141D01*
X83350137Y-59573999D01*
X83345100Y-59522858D01*
X83345100Y-59522848D01*
X83330031Y-59369850D01*
X83270483Y-59173546D01*
X83173781Y-58992630D01*
X83133820Y-58943937D01*
X83076250Y-58873788D01*
X83076247Y-58873785D01*
X83043643Y-58834057D01*
X83003914Y-58801452D01*
X82164852Y-57962390D01*
X82132243Y-57922657D01*
X81973670Y-57792519D01*
X81792754Y-57695817D01*
X81596450Y-57636269D01*
X81443452Y-57621200D01*
X81443441Y-57621200D01*
X81392300Y-57616163D01*
X81341159Y-57621200D01*
X77172741Y-57621200D01*
X77121599Y-57616163D01*
X77070458Y-57621200D01*
X77070448Y-57621200D01*
X76917450Y-57636269D01*
X76721146Y-57695817D01*
X76721144Y-57695818D01*
X76540230Y-57792519D01*
X76421388Y-57890050D01*
X76421385Y-57890053D01*
X76381657Y-57922657D01*
X76349053Y-57962385D01*
X72487839Y-61823600D01*
X54407451Y-61823600D01*
X54356300Y-61818562D01*
X54305148Y-61823600D01*
X54147541Y-61823600D01*
X54086063Y-61731591D01*
X53949472Y-61595000D01*
X54086063Y-61458409D01*
X54280643Y-61167199D01*
X54414672Y-60843623D01*
X54483000Y-60500118D01*
X54483000Y-60149882D01*
X54414672Y-59806377D01*
X54280643Y-59482801D01*
X54086063Y-59191591D01*
X53838409Y-58943937D01*
X53547199Y-58749357D01*
X53223623Y-58615328D01*
X52880118Y-58547000D01*
X52529882Y-58547000D01*
X52186377Y-58615328D01*
X51862801Y-58749357D01*
X51574700Y-58941860D01*
X51574700Y-57180440D01*
X51645707Y-56278205D01*
X51645914Y-56277340D01*
X62357000Y-56277340D01*
X62357000Y-56752660D01*
X62449731Y-57218846D01*
X62631628Y-57657984D01*
X62895701Y-58053198D01*
X63231802Y-58389299D01*
X63627016Y-58653372D01*
X64066154Y-58835269D01*
X64532340Y-58928000D01*
X65007660Y-58928000D01*
X65473846Y-58835269D01*
X65912984Y-58653372D01*
X66308198Y-58389299D01*
X66644299Y-58053198D01*
X66908372Y-57657984D01*
X67090269Y-57218846D01*
X67183000Y-56752660D01*
X67183000Y-56277340D01*
X118237000Y-56277340D01*
X118237000Y-56752660D01*
X118329731Y-57218846D01*
X118511628Y-57657984D01*
X118775701Y-58053198D01*
X119111802Y-58389299D01*
X119507016Y-58653372D01*
X119946154Y-58835269D01*
X120412340Y-58928000D01*
X120887660Y-58928000D01*
X121353846Y-58835269D01*
X121792984Y-58653372D01*
X122188198Y-58389299D01*
X122524299Y-58053198D01*
X122788372Y-57657984D01*
X122970269Y-57218846D01*
X123063000Y-56752660D01*
X123063000Y-56277340D01*
X122970269Y-55811154D01*
X122788372Y-55372016D01*
X122524299Y-54976802D01*
X122188198Y-54640701D01*
X121792984Y-54376628D01*
X121353846Y-54194731D01*
X120887660Y-54102000D01*
X120412340Y-54102000D01*
X119946154Y-54194731D01*
X119507016Y-54376628D01*
X119111802Y-54640701D01*
X118775701Y-54976802D01*
X118511628Y-55372016D01*
X118329731Y-55811154D01*
X118237000Y-56277340D01*
X67183000Y-56277340D01*
X67090269Y-55811154D01*
X66908372Y-55372016D01*
X66644299Y-54976802D01*
X66308198Y-54640701D01*
X65912984Y-54376628D01*
X65473846Y-54194731D01*
X65007660Y-54102000D01*
X64532340Y-54102000D01*
X64066154Y-54194731D01*
X63627016Y-54376628D01*
X63231802Y-54640701D01*
X62895701Y-54976802D01*
X62631628Y-55372016D01*
X62449731Y-55811154D01*
X62357000Y-56277340D01*
X51645914Y-56277340D01*
X51849853Y-55427876D01*
X52184505Y-54619956D01*
X52641426Y-53874329D01*
X53209362Y-53209361D01*
X53874326Y-52641427D01*
X54619956Y-52184505D01*
X55427876Y-51849853D01*
X56278205Y-51645707D01*
X57180441Y-51574700D01*
X119349560Y-51574700D01*
X120251795Y-51645707D01*
G37*
X120251795Y-51645707D02*
X121102124Y-51849853D01*
X121910044Y-52184505D01*
X122655671Y-52641426D01*
X123320639Y-53209362D01*
X123888573Y-53874326D01*
X124345495Y-54619956D01*
X124680147Y-55427876D01*
X124884293Y-56278205D01*
X124955300Y-57180441D01*
X124955301Y-142209547D01*
X124884293Y-143111795D01*
X124680147Y-143962124D01*
X124345495Y-144770044D01*
X123888573Y-145515674D01*
X123320639Y-146180638D01*
X122655671Y-146748574D01*
X121910044Y-147205495D01*
X121102124Y-147540147D01*
X120251795Y-147744293D01*
X119349560Y-147815300D01*
X57180441Y-147815300D01*
X56278205Y-147744293D01*
X55427876Y-147540147D01*
X54619956Y-147205495D01*
X53874326Y-146748573D01*
X53209362Y-146180639D01*
X52641426Y-145515671D01*
X52184505Y-144770044D01*
X51849853Y-143962124D01*
X51645707Y-143111795D01*
X51598129Y-142507253D01*
X55321200Y-142507253D01*
X55321200Y-143242747D01*
X55464688Y-143964109D01*
X55746150Y-144643617D01*
X56154768Y-145255159D01*
X56674841Y-145775232D01*
X57286383Y-146183850D01*
X57965891Y-146465312D01*
X58687253Y-146608800D01*
X59422747Y-146608800D01*
X60144109Y-146465312D01*
X60823617Y-146183850D01*
X61435159Y-145775232D01*
X61955232Y-145255159D01*
X62363850Y-144643617D01*
X62645312Y-143964109D01*
X62788800Y-143242747D01*
X62788800Y-142507253D01*
X113741200Y-142507253D01*
X113741200Y-143242747D01*
X113884688Y-143964109D01*
X114166150Y-144643617D01*
X114574768Y-145255159D01*
X115094841Y-145775232D01*
X115706383Y-146183850D01*
X116385891Y-146465312D01*
X117107253Y-146608800D01*
X117842747Y-146608800D01*
X118564109Y-146465312D01*
X119243617Y-146183850D01*
X119855159Y-145775232D01*
X120375232Y-145255159D01*
X120783850Y-144643617D01*
X121065312Y-143964109D01*
X121208800Y-143242747D01*
X121208800Y-142507253D01*
X121065312Y-141785891D01*
X120783850Y-141106383D01*
X120375232Y-140494841D01*
X119855159Y-139974768D01*
X119243617Y-139566150D01*
X118564109Y-139284688D01*
X117842747Y-139141200D01*
X117107253Y-139141200D01*
X116385891Y-139284688D01*
X115706383Y-139566150D01*
X115094841Y-139974768D01*
X114574768Y-140494841D01*
X114166150Y-141106383D01*
X113884688Y-141785891D01*
X113741200Y-142507253D01*
X62788800Y-142507253D01*
X62645312Y-141785891D01*
X62363850Y-141106383D01*
X61955232Y-140494841D01*
X61435159Y-139974768D01*
X60823617Y-139566150D01*
X60144109Y-139284688D01*
X59422747Y-139141200D01*
X58687253Y-139141200D01*
X57965891Y-139284688D01*
X57286383Y-139566150D01*
X56674841Y-139974768D01*
X56154768Y-140494841D01*
X55746150Y-141106383D01*
X55464688Y-141785891D01*
X55321200Y-142507253D01*
X51598129Y-142507253D01*
X51574700Y-142209560D01*
X51574700Y-136868070D01*
X57446780Y-136868070D01*
X57461738Y-136942276D01*
X57568878Y-137195535D01*
X57723368Y-137423026D01*
X57919271Y-137616006D01*
X58149058Y-137767059D01*
X58403899Y-137870381D01*
X58674000Y-137922000D01*
X58928000Y-137922000D01*
X58928000Y-136652000D01*
X59182000Y-136652000D01*
X59182000Y-137922000D01*
X59436000Y-137922000D01*
X59706101Y-137870381D01*
X59960942Y-137767059D01*
X60190729Y-137616006D01*
X60386632Y-137423026D01*
X60541122Y-137195535D01*
X60648262Y-136942276D01*
X60663220Y-136868070D01*
X60540720Y-136652000D01*
X59182000Y-136652000D01*
X58928000Y-136652000D01*
X57569280Y-136652000D01*
X57446780Y-136868070D01*
X51574700Y-136868070D01*
X51574700Y-136525000D01*
X115817241Y-136525000D01*
X115844214Y-136798860D01*
X115924096Y-137062195D01*
X116053817Y-137304887D01*
X116228392Y-137517608D01*
X116441113Y-137692183D01*
X116683805Y-137821904D01*
X116947140Y-137901786D01*
X117152375Y-137922000D01*
X117797625Y-137922000D01*
X118002860Y-137901786D01*
X118266195Y-137821904D01*
X118508887Y-137692183D01*
X118721608Y-137517608D01*
X118896183Y-137304887D01*
X119025904Y-137062195D01*
X119105786Y-136798860D01*
X119132759Y-136525000D01*
X119105786Y-136251140D01*
X119025904Y-135987805D01*
X118896183Y-135745113D01*
X118721608Y-135532392D01*
X118508887Y-135357817D01*
X118314587Y-135253962D01*
X118380942Y-135227059D01*
X118610729Y-135076006D01*
X118806632Y-134883026D01*
X118961122Y-134655535D01*
X119068262Y-134402276D01*
X119083220Y-134328070D01*
X118960720Y-134112000D01*
X117602000Y-134112000D01*
X117602000Y-134132000D01*
X117348000Y-134132000D01*
X117348000Y-134112000D01*
X115989280Y-134112000D01*
X115866780Y-134328070D01*
X115881738Y-134402276D01*
X115988878Y-134655535D01*
X116143368Y-134883026D01*
X116339271Y-135076006D01*
X116569058Y-135227059D01*
X116635413Y-135253962D01*
X116441113Y-135357817D01*
X116228392Y-135532392D01*
X116053817Y-135745113D01*
X115924096Y-135987805D01*
X115844214Y-136251140D01*
X115817241Y-136525000D01*
X51574700Y-136525000D01*
X51574700Y-133985000D01*
X57397241Y-133985000D01*
X57424214Y-134258860D01*
X57504096Y-134522195D01*
X57633817Y-134764887D01*
X57808392Y-134977608D01*
X58021113Y-135152183D01*
X58215413Y-135256038D01*
X58149058Y-135282941D01*
X57919271Y-135433994D01*
X57723368Y-135626974D01*
X57568878Y-135854465D01*
X57461738Y-136107724D01*
X57446780Y-136181930D01*
X57569280Y-136398000D01*
X58928000Y-136398000D01*
X58928000Y-136378000D01*
X59182000Y-136378000D01*
X59182000Y-136398000D01*
X60540720Y-136398000D01*
X60663220Y-136181930D01*
X60648262Y-136107724D01*
X60541122Y-135854465D01*
X60386632Y-135626974D01*
X60190729Y-135433994D01*
X59960942Y-135282941D01*
X59894587Y-135256038D01*
X60088887Y-135152183D01*
X60301608Y-134977608D01*
X60476183Y-134764887D01*
X60605904Y-134522195D01*
X60685786Y-134258860D01*
X60712759Y-133985000D01*
X60685786Y-133711140D01*
X60605904Y-133447805D01*
X60476183Y-133205113D01*
X60301608Y-132992392D01*
X60088887Y-132817817D01*
X59894587Y-132713962D01*
X59960942Y-132687059D01*
X60190729Y-132536006D01*
X60386632Y-132343026D01*
X60541122Y-132115535D01*
X60648262Y-131862276D01*
X60663220Y-131788070D01*
X60540720Y-131572000D01*
X59182000Y-131572000D01*
X59182000Y-131592000D01*
X58928000Y-131592000D01*
X58928000Y-131572000D01*
X57569280Y-131572000D01*
X57446780Y-131788070D01*
X57461738Y-131862276D01*
X57568878Y-132115535D01*
X57723368Y-132343026D01*
X57919271Y-132536006D01*
X58149058Y-132687059D01*
X58215413Y-132713962D01*
X58021113Y-132817817D01*
X57808392Y-132992392D01*
X57633817Y-133205113D01*
X57504096Y-133447805D01*
X57424214Y-133711140D01*
X57397241Y-133985000D01*
X51574700Y-133985000D01*
X51574700Y-128905000D01*
X57397241Y-128905000D01*
X57424214Y-129178860D01*
X57504096Y-129442195D01*
X57633817Y-129684887D01*
X57808392Y-129897608D01*
X58021113Y-130072183D01*
X58215413Y-130176038D01*
X58149058Y-130202941D01*
X57919271Y-130353994D01*
X57723368Y-130546974D01*
X57568878Y-130774465D01*
X57461738Y-131027724D01*
X57446780Y-131101930D01*
X57569280Y-131318000D01*
X58928000Y-131318000D01*
X58928000Y-131298000D01*
X59182000Y-131298000D01*
X59182000Y-131318000D01*
X60540720Y-131318000D01*
X60663220Y-131101930D01*
X60648262Y-131027724D01*
X60541122Y-130774465D01*
X60523755Y-130748891D01*
X82580000Y-130748891D01*
X82580000Y-131061109D01*
X82640911Y-131367327D01*
X82760391Y-131655779D01*
X82933850Y-131915379D01*
X83154621Y-132136150D01*
X83414221Y-132309609D01*
X83702673Y-132429089D01*
X84008891Y-132490000D01*
X84321109Y-132490000D01*
X84627327Y-132429089D01*
X84915779Y-132309609D01*
X85175379Y-132136150D01*
X85396150Y-131915379D01*
X85569609Y-131655779D01*
X85689089Y-131367327D01*
X85750000Y-131061109D01*
X85750000Y-130748891D01*
X85689089Y-130442673D01*
X85569609Y-130154221D01*
X85396150Y-129894621D01*
X85175379Y-129673850D01*
X84915779Y-129500391D01*
X84627327Y-129380911D01*
X84321109Y-129320000D01*
X84008891Y-129320000D01*
X83702673Y-129380911D01*
X83414221Y-129500391D01*
X83154621Y-129673850D01*
X82933850Y-129894621D01*
X82760391Y-130154221D01*
X82640911Y-130442673D01*
X82580000Y-130748891D01*
X60523755Y-130748891D01*
X60386632Y-130546974D01*
X60190729Y-130353994D01*
X59960942Y-130202941D01*
X59894587Y-130176038D01*
X60088887Y-130072183D01*
X60301608Y-129897608D01*
X60476183Y-129684887D01*
X60605904Y-129442195D01*
X60685786Y-129178860D01*
X60712759Y-128905000D01*
X60685786Y-128631140D01*
X60682666Y-128620852D01*
X85380000Y-128620852D01*
X85380000Y-129189148D01*
X85490869Y-129746523D01*
X85708346Y-130271560D01*
X86024074Y-130744080D01*
X86425920Y-131145926D01*
X86898440Y-131461654D01*
X87423477Y-131679131D01*
X87980852Y-131790000D01*
X88549148Y-131790000D01*
X89106523Y-131679131D01*
X89631560Y-131461654D01*
X90104080Y-131145926D01*
X90501115Y-130748891D01*
X90780000Y-130748891D01*
X90780000Y-131061109D01*
X90840911Y-131367327D01*
X90960391Y-131655779D01*
X91133850Y-131915379D01*
X91354621Y-132136150D01*
X91614221Y-132309609D01*
X91902673Y-132429089D01*
X92208891Y-132490000D01*
X92521109Y-132490000D01*
X92827327Y-132429089D01*
X93115779Y-132309609D01*
X93375379Y-132136150D01*
X93596150Y-131915379D01*
X93769609Y-131655779D01*
X93856915Y-131445000D01*
X115817241Y-131445000D01*
X115844214Y-131718860D01*
X115924096Y-131982195D01*
X116053817Y-132224887D01*
X116228392Y-132437608D01*
X116441113Y-132612183D01*
X116635413Y-132716038D01*
X116569058Y-132742941D01*
X116339271Y-132893994D01*
X116143368Y-133086974D01*
X115988878Y-133314465D01*
X115881738Y-133567724D01*
X115866780Y-133641930D01*
X115989280Y-133858000D01*
X117348000Y-133858000D01*
X117348000Y-133838000D01*
X117602000Y-133838000D01*
X117602000Y-133858000D01*
X118960720Y-133858000D01*
X119083220Y-133641930D01*
X119068262Y-133567724D01*
X118961122Y-133314465D01*
X118806632Y-133086974D01*
X118610729Y-132893994D01*
X118380942Y-132742941D01*
X118314587Y-132716038D01*
X118508887Y-132612183D01*
X118721608Y-132437608D01*
X118896183Y-132224887D01*
X119025904Y-131982195D01*
X119105786Y-131718860D01*
X119132759Y-131445000D01*
X119105786Y-131171140D01*
X119025904Y-130907805D01*
X118896183Y-130665113D01*
X118721608Y-130452392D01*
X118508887Y-130277817D01*
X118314587Y-130173962D01*
X118380942Y-130147059D01*
X118610729Y-129996006D01*
X118806632Y-129803026D01*
X118961122Y-129575535D01*
X119068262Y-129322276D01*
X119083220Y-129248070D01*
X118960720Y-129032000D01*
X117602000Y-129032000D01*
X117602000Y-129052000D01*
X117348000Y-129052000D01*
X117348000Y-129032000D01*
X115989280Y-129032000D01*
X115866780Y-129248070D01*
X115881738Y-129322276D01*
X115988878Y-129575535D01*
X116143368Y-129803026D01*
X116339271Y-129996006D01*
X116569058Y-130147059D01*
X116635413Y-130173962D01*
X116441113Y-130277817D01*
X116228392Y-130452392D01*
X116053817Y-130665113D01*
X115924096Y-130907805D01*
X115844214Y-131171140D01*
X115817241Y-131445000D01*
X93856915Y-131445000D01*
X93889089Y-131367327D01*
X93950000Y-131061109D01*
X93950000Y-130748891D01*
X93889089Y-130442673D01*
X93769609Y-130154221D01*
X93596150Y-129894621D01*
X93375379Y-129673850D01*
X93115779Y-129500391D01*
X92827327Y-129380911D01*
X92521109Y-129320000D01*
X92208891Y-129320000D01*
X91902673Y-129380911D01*
X91614221Y-129500391D01*
X91354621Y-129673850D01*
X91133850Y-129894621D01*
X90960391Y-130154221D01*
X90840911Y-130442673D01*
X90780000Y-130748891D01*
X90501115Y-130748891D01*
X90505926Y-130744080D01*
X90821654Y-130271560D01*
X91039131Y-129746523D01*
X91150000Y-129189148D01*
X91150000Y-128620852D01*
X91039131Y-128063477D01*
X90821654Y-127538440D01*
X90505926Y-127065920D01*
X90104080Y-126664074D01*
X89656485Y-126365000D01*
X115817241Y-126365000D01*
X115844214Y-126638860D01*
X115924096Y-126902195D01*
X116053817Y-127144887D01*
X116228392Y-127357608D01*
X116441113Y-127532183D01*
X116635413Y-127636038D01*
X116569058Y-127662941D01*
X116339271Y-127813994D01*
X116143368Y-128006974D01*
X115988878Y-128234465D01*
X115881738Y-128487724D01*
X115866780Y-128561930D01*
X115989280Y-128778000D01*
X117348000Y-128778000D01*
X117348000Y-128758000D01*
X117602000Y-128758000D01*
X117602000Y-128778000D01*
X118960720Y-128778000D01*
X119083220Y-128561930D01*
X119068262Y-128487724D01*
X118961122Y-128234465D01*
X118806632Y-128006974D01*
X118610729Y-127813994D01*
X118380942Y-127662941D01*
X118314587Y-127636038D01*
X118508887Y-127532183D01*
X118721608Y-127357608D01*
X118896183Y-127144887D01*
X119025904Y-126902195D01*
X119105786Y-126638860D01*
X119132759Y-126365000D01*
X119105786Y-126091140D01*
X119025904Y-125827805D01*
X118896183Y-125585113D01*
X118721608Y-125372392D01*
X118508887Y-125197817D01*
X118314587Y-125093962D01*
X118380942Y-125067059D01*
X118610729Y-124916006D01*
X118806632Y-124723026D01*
X118961122Y-124495535D01*
X119068262Y-124242276D01*
X119083220Y-124168070D01*
X118960720Y-123952000D01*
X117602000Y-123952000D01*
X117602000Y-123972000D01*
X117348000Y-123972000D01*
X117348000Y-123952000D01*
X115989280Y-123952000D01*
X115866780Y-124168070D01*
X115881738Y-124242276D01*
X115988878Y-124495535D01*
X116143368Y-124723026D01*
X116339271Y-124916006D01*
X116569058Y-125067059D01*
X116635413Y-125093962D01*
X116441113Y-125197817D01*
X116228392Y-125372392D01*
X116053817Y-125585113D01*
X115924096Y-125827805D01*
X115844214Y-126091140D01*
X115817241Y-126365000D01*
X89656485Y-126365000D01*
X89631560Y-126348346D01*
X89106523Y-126130869D01*
X88549148Y-126020000D01*
X87980852Y-126020000D01*
X87423477Y-126130869D01*
X86898440Y-126348346D01*
X86425920Y-126664074D01*
X86024074Y-127065920D01*
X85708346Y-127538440D01*
X85490869Y-128063477D01*
X85380000Y-128620852D01*
X60682666Y-128620852D01*
X60605904Y-128367805D01*
X60476183Y-128125113D01*
X60301608Y-127912392D01*
X60088887Y-127737817D01*
X59894587Y-127633962D01*
X59960942Y-127607059D01*
X60190729Y-127456006D01*
X60386632Y-127263026D01*
X60541122Y-127035535D01*
X60648262Y-126782276D01*
X60663220Y-126708070D01*
X60540720Y-126492000D01*
X59182000Y-126492000D01*
X59182000Y-126512000D01*
X58928000Y-126512000D01*
X58928000Y-126492000D01*
X57569280Y-126492000D01*
X57446780Y-126708070D01*
X57461738Y-126782276D01*
X57568878Y-127035535D01*
X57723368Y-127263026D01*
X57919271Y-127456006D01*
X58149058Y-127607059D01*
X58215413Y-127633962D01*
X58021113Y-127737817D01*
X57808392Y-127912392D01*
X57633817Y-128125113D01*
X57504096Y-128367805D01*
X57424214Y-128631140D01*
X57397241Y-128905000D01*
X51574700Y-128905000D01*
X51574700Y-123825000D01*
X57397241Y-123825000D01*
X57424214Y-124098860D01*
X57504096Y-124362195D01*
X57633817Y-124604887D01*
X57808392Y-124817608D01*
X58021113Y-124992183D01*
X58215413Y-125096038D01*
X58149058Y-125122941D01*
X57919271Y-125273994D01*
X57723368Y-125466974D01*
X57568878Y-125694465D01*
X57461738Y-125947724D01*
X57446780Y-126021930D01*
X57569280Y-126238000D01*
X58928000Y-126238000D01*
X58928000Y-126218000D01*
X59182000Y-126218000D01*
X59182000Y-126238000D01*
X60540720Y-126238000D01*
X60663220Y-126021930D01*
X60648262Y-125947724D01*
X60541122Y-125694465D01*
X60386632Y-125466974D01*
X60190729Y-125273994D01*
X59960942Y-125122941D01*
X59894587Y-125096038D01*
X60088887Y-124992183D01*
X60301608Y-124817608D01*
X60476183Y-124604887D01*
X60605904Y-124362195D01*
X60685786Y-124098860D01*
X60712759Y-123825000D01*
X60685786Y-123551140D01*
X60605904Y-123287805D01*
X60476183Y-123045113D01*
X60301608Y-122832392D01*
X60088887Y-122657817D01*
X59894587Y-122553962D01*
X59960942Y-122527059D01*
X60190729Y-122376006D01*
X60386632Y-122183026D01*
X60541122Y-121955535D01*
X60648262Y-121702276D01*
X60663220Y-121628070D01*
X60540720Y-121412000D01*
X59182000Y-121412000D01*
X59182000Y-121432000D01*
X58928000Y-121432000D01*
X58928000Y-121412000D01*
X57569280Y-121412000D01*
X57446780Y-121628070D01*
X57461738Y-121702276D01*
X57568878Y-121955535D01*
X57723368Y-122183026D01*
X57919271Y-122376006D01*
X58149058Y-122527059D01*
X58215413Y-122553962D01*
X58021113Y-122657817D01*
X57808392Y-122832392D01*
X57633817Y-123045113D01*
X57504096Y-123287805D01*
X57424214Y-123551140D01*
X57397241Y-123825000D01*
X51574700Y-123825000D01*
X51574700Y-121285000D01*
X115817241Y-121285000D01*
X115844214Y-121558860D01*
X115924096Y-121822195D01*
X116053817Y-122064887D01*
X116228392Y-122277608D01*
X116441113Y-122452183D01*
X116635413Y-122556038D01*
X116569058Y-122582941D01*
X116339271Y-122733994D01*
X116143368Y-122926974D01*
X115988878Y-123154465D01*
X115881738Y-123407724D01*
X115866780Y-123481930D01*
X115989280Y-123698000D01*
X117348000Y-123698000D01*
X117348000Y-123678000D01*
X117602000Y-123678000D01*
X117602000Y-123698000D01*
X118960720Y-123698000D01*
X119083220Y-123481930D01*
X119068262Y-123407724D01*
X118961122Y-123154465D01*
X118806632Y-122926974D01*
X118610729Y-122733994D01*
X118380942Y-122582941D01*
X118314587Y-122556038D01*
X118508887Y-122452183D01*
X118721608Y-122277608D01*
X118896183Y-122064887D01*
X119025904Y-121822195D01*
X119105786Y-121558860D01*
X119132759Y-121285000D01*
X119105786Y-121011140D01*
X119025904Y-120747805D01*
X118896183Y-120505113D01*
X118721608Y-120292392D01*
X118508887Y-120117817D01*
X118314587Y-120013962D01*
X118380942Y-119987059D01*
X118610729Y-119836006D01*
X118806632Y-119643026D01*
X118961122Y-119415535D01*
X119068262Y-119162276D01*
X119083220Y-119088070D01*
X118960720Y-118872000D01*
X117602000Y-118872000D01*
X117602000Y-118892000D01*
X117348000Y-118892000D01*
X117348000Y-118872000D01*
X115989280Y-118872000D01*
X115866780Y-119088070D01*
X115881738Y-119162276D01*
X115988878Y-119415535D01*
X116143368Y-119643026D01*
X116339271Y-119836006D01*
X116569058Y-119987059D01*
X116635413Y-120013962D01*
X116441113Y-120117817D01*
X116228392Y-120292392D01*
X116053817Y-120505113D01*
X115924096Y-120747805D01*
X115844214Y-121011140D01*
X115817241Y-121285000D01*
X51574700Y-121285000D01*
X51574700Y-79488140D01*
X51862801Y-79680643D01*
X52186377Y-79814672D01*
X52529882Y-79883000D01*
X52880118Y-79883000D01*
X53223623Y-79814672D01*
X53547199Y-79680643D01*
X53838409Y-79486063D01*
X54086063Y-79238409D01*
X54280643Y-78947199D01*
X54414672Y-78623623D01*
X54483000Y-78280118D01*
X54483000Y-77929882D01*
X54461411Y-77821350D01*
X55056914Y-77225847D01*
X55096643Y-77193243D01*
X55129247Y-77153515D01*
X55129251Y-77153511D01*
X55226781Y-77034670D01*
X55321200Y-76858025D01*
X55321200Y-77202747D01*
X55464688Y-77924109D01*
X55746150Y-78603617D01*
X56154768Y-79215159D01*
X56674841Y-79735232D01*
X57286383Y-80143850D01*
X57965891Y-80425312D01*
X58687253Y-80568800D01*
X59133039Y-80568800D01*
X56824286Y-82877553D01*
X56784558Y-82910157D01*
X56751954Y-82949885D01*
X56751950Y-82949889D01*
X56654419Y-83068731D01*
X56557718Y-83249645D01*
X56557718Y-83249646D01*
X56498170Y-83445950D01*
X56483101Y-83598948D01*
X56478063Y-83650100D01*
X56483101Y-83701251D01*
X56483100Y-107003359D01*
X56478063Y-107054500D01*
X56483100Y-107105641D01*
X56483100Y-107105651D01*
X56498169Y-107258649D01*
X56557717Y-107454953D01*
X56654419Y-107635870D01*
X56784557Y-107794443D01*
X56824291Y-107827052D01*
X57413828Y-108416589D01*
X57397241Y-108585000D01*
X57424214Y-108858860D01*
X57504096Y-109122195D01*
X57633817Y-109364887D01*
X57808392Y-109577608D01*
X58021113Y-109752183D01*
X58215413Y-109856038D01*
X58149058Y-109882941D01*
X57919271Y-110033994D01*
X57723368Y-110226974D01*
X57568878Y-110454465D01*
X57461738Y-110707724D01*
X57446780Y-110781930D01*
X57569280Y-110998000D01*
X58928000Y-110998000D01*
X58928000Y-110978000D01*
X59182000Y-110978000D01*
X59182000Y-110998000D01*
X59202000Y-110998000D01*
X59202000Y-111252000D01*
X59182000Y-111252000D01*
X59182000Y-111272000D01*
X58928000Y-111272000D01*
X58928000Y-111252000D01*
X57569280Y-111252000D01*
X57446780Y-111468070D01*
X57461738Y-111542276D01*
X57568878Y-111795535D01*
X57723368Y-112023026D01*
X57919271Y-112216006D01*
X58149058Y-112367059D01*
X58215413Y-112393962D01*
X58021113Y-112497817D01*
X57808392Y-112672392D01*
X57633817Y-112885113D01*
X57504096Y-113127805D01*
X57424214Y-113391140D01*
X57397241Y-113665000D01*
X57424214Y-113938860D01*
X57504096Y-114202195D01*
X57633817Y-114444887D01*
X57808392Y-114657608D01*
X58021113Y-114832183D01*
X58215413Y-114936038D01*
X58149058Y-114962941D01*
X57919271Y-115113994D01*
X57723368Y-115306974D01*
X57568878Y-115534465D01*
X57461738Y-115787724D01*
X57446780Y-115861930D01*
X57569280Y-116078000D01*
X58928000Y-116078000D01*
X58928000Y-116058000D01*
X59182000Y-116058000D01*
X59182000Y-116078000D01*
X59202000Y-116078000D01*
X59202000Y-116332000D01*
X59182000Y-116332000D01*
X59182000Y-116352000D01*
X58928000Y-116352000D01*
X58928000Y-116332000D01*
X57569280Y-116332000D01*
X57446780Y-116548070D01*
X57461738Y-116622276D01*
X57568878Y-116875535D01*
X57723368Y-117103026D01*
X57919271Y-117296006D01*
X58149058Y-117447059D01*
X58215413Y-117473962D01*
X58021113Y-117577817D01*
X57808392Y-117752392D01*
X57633817Y-117965113D01*
X57504096Y-118207805D01*
X57424214Y-118471140D01*
X57397241Y-118745000D01*
X57424214Y-119018860D01*
X57504096Y-119282195D01*
X57633817Y-119524887D01*
X57808392Y-119737608D01*
X58021113Y-119912183D01*
X58215413Y-120016038D01*
X58149058Y-120042941D01*
X57919271Y-120193994D01*
X57723368Y-120386974D01*
X57568878Y-120614465D01*
X57461738Y-120867724D01*
X57446780Y-120941930D01*
X57569280Y-121158000D01*
X58928000Y-121158000D01*
X58928000Y-121138000D01*
X59182000Y-121138000D01*
X59182000Y-121158000D01*
X60540720Y-121158000D01*
X60663220Y-120941930D01*
X60648262Y-120867724D01*
X60541122Y-120614465D01*
X60386632Y-120386974D01*
X60190729Y-120193994D01*
X59960942Y-120042941D01*
X59894587Y-120016038D01*
X60088887Y-119912183D01*
X60301608Y-119737608D01*
X60476183Y-119524887D01*
X60605904Y-119282195D01*
X60685786Y-119018860D01*
X60712759Y-118745000D01*
X60696172Y-118576589D01*
X63067761Y-116205000D01*
X115817241Y-116205000D01*
X115844214Y-116478860D01*
X115924096Y-116742195D01*
X116053817Y-116984887D01*
X116228392Y-117197608D01*
X116441113Y-117372183D01*
X116635413Y-117476038D01*
X116569058Y-117502941D01*
X116339271Y-117653994D01*
X116143368Y-117846974D01*
X115988878Y-118074465D01*
X115881738Y-118327724D01*
X115866780Y-118401930D01*
X115989280Y-118618000D01*
X117348000Y-118618000D01*
X117348000Y-118598000D01*
X117602000Y-118598000D01*
X117602000Y-118618000D01*
X118960720Y-118618000D01*
X119083220Y-118401930D01*
X119068262Y-118327724D01*
X118961122Y-118074465D01*
X118806632Y-117846974D01*
X118610729Y-117653994D01*
X118380942Y-117502941D01*
X118314587Y-117476038D01*
X118508887Y-117372183D01*
X118721608Y-117197608D01*
X118896183Y-116984887D01*
X119025904Y-116742195D01*
X119105786Y-116478860D01*
X119132759Y-116205000D01*
X119105786Y-115931140D01*
X119025904Y-115667805D01*
X118896183Y-115425113D01*
X118721608Y-115212392D01*
X118508887Y-115037817D01*
X118314587Y-114933962D01*
X118380942Y-114907059D01*
X118610729Y-114756006D01*
X118806632Y-114563026D01*
X118961122Y-114335535D01*
X119068262Y-114082276D01*
X119083220Y-114008070D01*
X118960720Y-113792000D01*
X117602000Y-113792000D01*
X117602000Y-113812000D01*
X117348000Y-113812000D01*
X117348000Y-113792000D01*
X115989280Y-113792000D01*
X115866780Y-114008070D01*
X115881738Y-114082276D01*
X115988878Y-114335535D01*
X116143368Y-114563026D01*
X116339271Y-114756006D01*
X116569058Y-114907059D01*
X116635413Y-114933962D01*
X116441113Y-115037817D01*
X116228392Y-115212392D01*
X116053817Y-115425113D01*
X115924096Y-115667805D01*
X115844214Y-115931140D01*
X115817241Y-116205000D01*
X63067761Y-116205000D01*
X65626715Y-113646047D01*
X65666443Y-113613443D01*
X65796581Y-113454870D01*
X65893283Y-113273954D01*
X65952831Y-113077650D01*
X65967900Y-112924652D01*
X65967900Y-112924642D01*
X65972937Y-112873500D01*
X65967900Y-112822359D01*
X65967900Y-111829161D01*
X66006000Y-111637621D01*
X66006000Y-111424979D01*
X65964515Y-111216422D01*
X65926647Y-111125000D01*
X115817241Y-111125000D01*
X115844214Y-111398860D01*
X115924096Y-111662195D01*
X116053817Y-111904887D01*
X116228392Y-112117608D01*
X116441113Y-112292183D01*
X116635413Y-112396038D01*
X116569058Y-112422941D01*
X116339271Y-112573994D01*
X116143368Y-112766974D01*
X115988878Y-112994465D01*
X115881738Y-113247724D01*
X115866780Y-113321930D01*
X115989280Y-113538000D01*
X117348000Y-113538000D01*
X117348000Y-113518000D01*
X117602000Y-113518000D01*
X117602000Y-113538000D01*
X118960720Y-113538000D01*
X119083220Y-113321930D01*
X119068262Y-113247724D01*
X118961122Y-112994465D01*
X118806632Y-112766974D01*
X118610729Y-112573994D01*
X118380942Y-112422941D01*
X118314587Y-112396038D01*
X118508887Y-112292183D01*
X118721608Y-112117608D01*
X118896183Y-111904887D01*
X119025904Y-111662195D01*
X119105786Y-111398860D01*
X119132759Y-111125000D01*
X119105786Y-110851140D01*
X119025904Y-110587805D01*
X118896183Y-110345113D01*
X118721608Y-110132392D01*
X118508887Y-109957817D01*
X118314587Y-109853962D01*
X118380942Y-109827059D01*
X118610729Y-109676006D01*
X118806632Y-109483026D01*
X118961122Y-109255535D01*
X119068262Y-109002276D01*
X119083220Y-108928070D01*
X118960720Y-108712000D01*
X117602000Y-108712000D01*
X117602000Y-108732000D01*
X117348000Y-108732000D01*
X117348000Y-108712000D01*
X115989280Y-108712000D01*
X115866780Y-108928070D01*
X115881738Y-109002276D01*
X115988878Y-109255535D01*
X116143368Y-109483026D01*
X116339271Y-109676006D01*
X116569058Y-109827059D01*
X116635413Y-109853962D01*
X116441113Y-109957817D01*
X116228392Y-110132392D01*
X116053817Y-110345113D01*
X115924096Y-110587805D01*
X115844214Y-110851140D01*
X115817241Y-111125000D01*
X65926647Y-111125000D01*
X65883140Y-111019965D01*
X65765002Y-110843159D01*
X65614641Y-110692798D01*
X65437835Y-110574660D01*
X65241378Y-110493285D01*
X65032821Y-110451800D01*
X64820179Y-110451800D01*
X64611622Y-110493285D01*
X64415165Y-110574660D01*
X64238359Y-110692798D01*
X64087998Y-110843159D01*
X63969860Y-111019965D01*
X63888485Y-111216422D01*
X63847000Y-111424979D01*
X63847000Y-111637621D01*
X63885101Y-111829164D01*
X63885100Y-112442138D01*
X60615933Y-115711305D01*
X60541122Y-115534465D01*
X60386632Y-115306974D01*
X60190729Y-115113994D01*
X59960942Y-114962941D01*
X59894587Y-114936038D01*
X60088887Y-114832183D01*
X60301608Y-114657608D01*
X60476183Y-114444887D01*
X60605904Y-114202195D01*
X60685786Y-113938860D01*
X60712759Y-113665000D01*
X60696172Y-113496589D01*
X64512015Y-109680747D01*
X64551743Y-109648143D01*
X64681881Y-109489570D01*
X64778583Y-109308654D01*
X64838131Y-109112350D01*
X64853200Y-108959352D01*
X64853200Y-108959342D01*
X64858237Y-108908201D01*
X64853200Y-108857059D01*
X64853200Y-107832061D01*
X64891300Y-107640521D01*
X64891300Y-107427879D01*
X64849815Y-107219322D01*
X64768440Y-107022865D01*
X64650302Y-106846059D01*
X64499941Y-106695698D01*
X64323135Y-106577560D01*
X64126678Y-106496185D01*
X63918121Y-106454700D01*
X63705479Y-106454700D01*
X63496922Y-106496185D01*
X63300465Y-106577560D01*
X63123659Y-106695698D01*
X62973298Y-106846059D01*
X62855160Y-107022865D01*
X62773785Y-107219322D01*
X62732300Y-107427879D01*
X62732300Y-107640521D01*
X62770401Y-107832064D01*
X62770400Y-108476838D01*
X60615933Y-110631305D01*
X60541122Y-110454465D01*
X60386632Y-110226974D01*
X60190729Y-110033994D01*
X59960942Y-109882941D01*
X59894587Y-109856038D01*
X60088887Y-109752183D01*
X60301608Y-109577608D01*
X60476183Y-109364887D01*
X60605904Y-109122195D01*
X60685786Y-108858860D01*
X60712759Y-108585000D01*
X60685786Y-108311140D01*
X60605904Y-108047805D01*
X60476183Y-107805113D01*
X60301608Y-107592392D01*
X60088887Y-107417817D01*
X59894587Y-107313962D01*
X59960942Y-107287059D01*
X60190729Y-107136006D01*
X60386632Y-106943026D01*
X60541122Y-106715535D01*
X60648262Y-106462276D01*
X60663220Y-106388070D01*
X60540720Y-106172000D01*
X59182000Y-106172000D01*
X59182000Y-106192000D01*
X58928000Y-106192000D01*
X58928000Y-106172000D01*
X58908000Y-106172000D01*
X58908000Y-106045000D01*
X115817241Y-106045000D01*
X115844214Y-106318860D01*
X115924096Y-106582195D01*
X116053817Y-106824887D01*
X116228392Y-107037608D01*
X116441113Y-107212183D01*
X116635413Y-107316038D01*
X116569058Y-107342941D01*
X116339271Y-107493994D01*
X116143368Y-107686974D01*
X115988878Y-107914465D01*
X115881738Y-108167724D01*
X115866780Y-108241930D01*
X115989280Y-108458000D01*
X117348000Y-108458000D01*
X117348000Y-108438000D01*
X117602000Y-108438000D01*
X117602000Y-108458000D01*
X118960720Y-108458000D01*
X119083220Y-108241930D01*
X119068262Y-108167724D01*
X118961122Y-107914465D01*
X118806632Y-107686974D01*
X118610729Y-107493994D01*
X118380942Y-107342941D01*
X118314587Y-107316038D01*
X118508887Y-107212183D01*
X118721608Y-107037608D01*
X118896183Y-106824887D01*
X119025904Y-106582195D01*
X119105786Y-106318860D01*
X119132759Y-106045000D01*
X119105786Y-105771140D01*
X119025904Y-105507805D01*
X118896183Y-105265113D01*
X118721608Y-105052392D01*
X118508887Y-104877817D01*
X118314587Y-104773962D01*
X118380942Y-104747059D01*
X118610729Y-104596006D01*
X118806632Y-104403026D01*
X118961122Y-104175535D01*
X119068262Y-103922276D01*
X119083220Y-103848070D01*
X118960720Y-103632000D01*
X117602000Y-103632000D01*
X117602000Y-103652000D01*
X117348000Y-103652000D01*
X117348000Y-103632000D01*
X115989280Y-103632000D01*
X115866780Y-103848070D01*
X115881738Y-103922276D01*
X115988878Y-104175535D01*
X116143368Y-104403026D01*
X116339271Y-104596006D01*
X116569058Y-104747059D01*
X116635413Y-104773962D01*
X116441113Y-104877817D01*
X116228392Y-105052392D01*
X116053817Y-105265113D01*
X115924096Y-105507805D01*
X115844214Y-105771140D01*
X115817241Y-106045000D01*
X58908000Y-106045000D01*
X58908000Y-105918000D01*
X58928000Y-105918000D01*
X58928000Y-105898000D01*
X59182000Y-105898000D01*
X59182000Y-105918000D01*
X60540720Y-105918000D01*
X60663220Y-105701930D01*
X60648262Y-105627724D01*
X60541122Y-105374465D01*
X60386632Y-105146974D01*
X60190729Y-104953994D01*
X59960942Y-104802941D01*
X59894587Y-104776038D01*
X60088887Y-104672183D01*
X60242155Y-104546400D01*
X80593859Y-104546400D01*
X80645000Y-104551437D01*
X80696141Y-104546400D01*
X80696152Y-104546400D01*
X80849150Y-104531331D01*
X81045454Y-104471783D01*
X81226370Y-104375081D01*
X81384943Y-104244943D01*
X81417552Y-104205209D01*
X84657761Y-100965000D01*
X115817241Y-100965000D01*
X115844214Y-101238860D01*
X115924096Y-101502195D01*
X116053817Y-101744887D01*
X116228392Y-101957608D01*
X116441113Y-102132183D01*
X116635413Y-102236038D01*
X116569058Y-102262941D01*
X116339271Y-102413994D01*
X116143368Y-102606974D01*
X115988878Y-102834465D01*
X115881738Y-103087724D01*
X115866780Y-103161930D01*
X115989280Y-103378000D01*
X117348000Y-103378000D01*
X117348000Y-103358000D01*
X117602000Y-103358000D01*
X117602000Y-103378000D01*
X118960720Y-103378000D01*
X119083220Y-103161930D01*
X119068262Y-103087724D01*
X118961122Y-102834465D01*
X118806632Y-102606974D01*
X118610729Y-102413994D01*
X118380942Y-102262941D01*
X118314587Y-102236038D01*
X118508887Y-102132183D01*
X118721608Y-101957608D01*
X118896183Y-101744887D01*
X119025904Y-101502195D01*
X119105786Y-101238860D01*
X119132759Y-100965000D01*
X119105786Y-100691140D01*
X119025904Y-100427805D01*
X118896183Y-100185113D01*
X118721608Y-99972392D01*
X118508887Y-99797817D01*
X118314587Y-99693962D01*
X118380942Y-99667059D01*
X118610729Y-99516006D01*
X118806632Y-99323026D01*
X118961122Y-99095535D01*
X119068262Y-98842276D01*
X119083220Y-98768070D01*
X118960720Y-98552000D01*
X117602000Y-98552000D01*
X117602000Y-98572000D01*
X117348000Y-98572000D01*
X117348000Y-98552000D01*
X115989280Y-98552000D01*
X115866780Y-98768070D01*
X115881738Y-98842276D01*
X115988878Y-99095535D01*
X116143368Y-99323026D01*
X116339271Y-99516006D01*
X116569058Y-99667059D01*
X116635413Y-99693962D01*
X116441113Y-99797817D01*
X116228392Y-99972392D01*
X116053817Y-100185113D01*
X115924096Y-100427805D01*
X115844214Y-100691140D01*
X115817241Y-100965000D01*
X84657761Y-100965000D01*
X87540831Y-98081930D01*
X115866780Y-98081930D01*
X115989280Y-98298000D01*
X117348000Y-98298000D01*
X117348000Y-97028000D01*
X117602000Y-97028000D01*
X117602000Y-98298000D01*
X118960720Y-98298000D01*
X119083220Y-98081930D01*
X119068262Y-98007724D01*
X118961122Y-97754465D01*
X118806632Y-97526974D01*
X118610729Y-97333994D01*
X118380942Y-97182941D01*
X118126101Y-97079619D01*
X117856000Y-97028000D01*
X117602000Y-97028000D01*
X117348000Y-97028000D01*
X117094000Y-97028000D01*
X116823899Y-97079619D01*
X116569058Y-97182941D01*
X116339271Y-97333994D01*
X116143368Y-97526974D01*
X115988878Y-97754465D01*
X115881738Y-98007724D01*
X115866780Y-98081930D01*
X87540831Y-98081930D01*
X106911591Y-78711171D01*
X107009357Y-78947199D01*
X107203937Y-79238409D01*
X107451591Y-79486063D01*
X107742801Y-79680643D01*
X108066377Y-79814672D01*
X108409882Y-79883000D01*
X108760118Y-79883000D01*
X109103623Y-79814672D01*
X109427199Y-79680643D01*
X109718409Y-79486063D01*
X109966063Y-79238409D01*
X110160643Y-78947199D01*
X110294672Y-78623623D01*
X110363000Y-78280118D01*
X110363000Y-77929882D01*
X110294672Y-77586377D01*
X110160643Y-77262801D01*
X109966063Y-76971591D01*
X109829472Y-76835000D01*
X109966063Y-76698409D01*
X110120516Y-76467253D01*
X113741200Y-76467253D01*
X113741200Y-77202747D01*
X113884688Y-77924109D01*
X114166150Y-78603617D01*
X114574768Y-79215159D01*
X115094841Y-79735232D01*
X115706383Y-80143850D01*
X116385891Y-80425312D01*
X117107253Y-80568800D01*
X117842747Y-80568800D01*
X118564109Y-80425312D01*
X119243617Y-80143850D01*
X119855159Y-79735232D01*
X120375232Y-79215159D01*
X120783850Y-78603617D01*
X121065312Y-77924109D01*
X121208800Y-77202747D01*
X121208800Y-76467253D01*
X121065312Y-75745891D01*
X120783850Y-75066383D01*
X120375232Y-74454841D01*
X119855159Y-73934768D01*
X119243617Y-73526150D01*
X118564109Y-73244688D01*
X117842747Y-73101200D01*
X117107253Y-73101200D01*
X116385891Y-73244688D01*
X115706383Y-73526150D01*
X115094841Y-73934768D01*
X114574768Y-74454841D01*
X114166150Y-75066383D01*
X113884688Y-75745891D01*
X113741200Y-76467253D01*
X110120516Y-76467253D01*
X110160643Y-76407199D01*
X110294672Y-76083623D01*
X110363000Y-75740118D01*
X110363000Y-75389882D01*
X110294672Y-75046377D01*
X110160643Y-74722801D01*
X109966063Y-74431591D01*
X109718409Y-74183937D01*
X109427199Y-73989357D01*
X109103623Y-73855328D01*
X108760118Y-73787000D01*
X108409882Y-73787000D01*
X108066377Y-73855328D01*
X107742801Y-73989357D01*
X107451591Y-74183937D01*
X107203937Y-74431591D01*
X107009357Y-74722801D01*
X106875328Y-75046377D01*
X106807000Y-75389882D01*
X106807000Y-75740118D01*
X106828588Y-75848650D01*
X80213639Y-102463600D01*
X60242155Y-102463600D01*
X60088887Y-102337817D01*
X59894587Y-102233962D01*
X59960942Y-102207059D01*
X60190729Y-102056006D01*
X60386632Y-101863026D01*
X60541122Y-101635535D01*
X60648262Y-101382276D01*
X60663220Y-101308070D01*
X60540720Y-101092000D01*
X59182000Y-101092000D01*
X59182000Y-101112000D01*
X58928000Y-101112000D01*
X58928000Y-101092000D01*
X58908000Y-101092000D01*
X58908000Y-100838000D01*
X58928000Y-100838000D01*
X58928000Y-100818000D01*
X59182000Y-100818000D01*
X59182000Y-100838000D01*
X60540720Y-100838000D01*
X60663220Y-100621930D01*
X60648262Y-100547724D01*
X60541122Y-100294465D01*
X60386632Y-100066974D01*
X60190729Y-99873994D01*
X59960942Y-99722941D01*
X59894587Y-99696038D01*
X60088887Y-99592183D01*
X60242155Y-99466400D01*
X65215659Y-99466400D01*
X65266800Y-99471437D01*
X65317941Y-99466400D01*
X65317952Y-99466400D01*
X65470950Y-99451331D01*
X65667254Y-99391783D01*
X65848170Y-99295081D01*
X66006743Y-99164943D01*
X66039352Y-99125209D01*
X80312221Y-84852340D01*
X90297000Y-84852340D01*
X90297000Y-85327660D01*
X90389731Y-85793846D01*
X90571628Y-86232984D01*
X90835701Y-86628198D01*
X91171802Y-86964299D01*
X91567016Y-87228372D01*
X92006154Y-87410269D01*
X92472340Y-87503000D01*
X92947660Y-87503000D01*
X93413846Y-87410269D01*
X93852984Y-87228372D01*
X94248198Y-86964299D01*
X94584299Y-86628198D01*
X94848372Y-86232984D01*
X95030269Y-85793846D01*
X95123000Y-85327660D01*
X95123000Y-84852340D01*
X95030269Y-84386154D01*
X94848372Y-83947016D01*
X94584299Y-83551802D01*
X94248198Y-83215701D01*
X93852984Y-82951628D01*
X93413846Y-82769731D01*
X92947660Y-82677000D01*
X92472340Y-82677000D01*
X92006154Y-82769731D01*
X91567016Y-82951628D01*
X91171802Y-83215701D01*
X90835701Y-83551802D01*
X90571628Y-83947016D01*
X90389731Y-84386154D01*
X90297000Y-84852340D01*
X80312221Y-84852340D01*
X96178162Y-68986400D01*
X107142459Y-68986400D01*
X107203937Y-69078409D01*
X107340528Y-69215000D01*
X107203937Y-69351591D01*
X107009357Y-69642801D01*
X106875328Y-69966377D01*
X106807000Y-70309882D01*
X106807000Y-70660118D01*
X106875328Y-71003623D01*
X107009357Y-71327199D01*
X107203937Y-71618409D01*
X107451591Y-71866063D01*
X107742801Y-72060643D01*
X108066377Y-72194672D01*
X108409882Y-72263000D01*
X108760118Y-72263000D01*
X109103623Y-72194672D01*
X109427199Y-72060643D01*
X109718409Y-71866063D01*
X109966063Y-71618409D01*
X110160643Y-71327199D01*
X110294672Y-71003623D01*
X110363000Y-70660118D01*
X110363000Y-70309882D01*
X110294672Y-69966377D01*
X110160643Y-69642801D01*
X109966063Y-69351591D01*
X109829472Y-69215000D01*
X109966063Y-69078409D01*
X110160643Y-68787199D01*
X110294672Y-68463623D01*
X110363000Y-68120118D01*
X110363000Y-67769882D01*
X110294672Y-67426377D01*
X110160643Y-67102801D01*
X109966063Y-66811591D01*
X109718409Y-66563937D01*
X109427199Y-66369357D01*
X109103623Y-66235328D01*
X108760118Y-66167000D01*
X108409882Y-66167000D01*
X108066377Y-66235328D01*
X107742801Y-66369357D01*
X107451591Y-66563937D01*
X107203937Y-66811591D01*
X107142459Y-66903600D01*
X95797941Y-66903600D01*
X95746799Y-66898563D01*
X95695658Y-66903600D01*
X95695648Y-66903600D01*
X95542650Y-66918669D01*
X95346346Y-66978217D01*
X95346344Y-66978218D01*
X95165429Y-67074919D01*
X95046588Y-67172450D01*
X95046585Y-67172453D01*
X95006857Y-67205057D01*
X94974253Y-67244785D01*
X64835439Y-97383600D01*
X60242155Y-97383600D01*
X60088887Y-97257817D01*
X59846195Y-97128096D01*
X59582860Y-97048214D01*
X59377625Y-97028000D01*
X58732375Y-97028000D01*
X58565900Y-97044396D01*
X58565900Y-84081461D01*
X67257479Y-75389882D01*
X78867000Y-75389882D01*
X78867000Y-75740118D01*
X78935328Y-76083623D01*
X79069357Y-76407199D01*
X79263937Y-76698409D01*
X79400528Y-76835000D01*
X79263937Y-76971591D01*
X79069357Y-77262801D01*
X78935328Y-77586377D01*
X78867000Y-77929882D01*
X78867000Y-78280118D01*
X78935328Y-78623623D01*
X79069357Y-78947199D01*
X79263937Y-79238409D01*
X79511591Y-79486063D01*
X79802801Y-79680643D01*
X80126377Y-79814672D01*
X80469882Y-79883000D01*
X80820118Y-79883000D01*
X81163623Y-79814672D01*
X81487199Y-79680643D01*
X81778409Y-79486063D01*
X82026063Y-79238409D01*
X82220643Y-78947199D01*
X82354672Y-78623623D01*
X82423000Y-78280118D01*
X82423000Y-77929882D01*
X82354672Y-77586377D01*
X82220643Y-77262801D01*
X82026063Y-76971591D01*
X81889472Y-76835000D01*
X82026063Y-76698409D01*
X82220643Y-76407199D01*
X82354672Y-76083623D01*
X82423000Y-75740118D01*
X82423000Y-75389882D01*
X82354672Y-75046377D01*
X82220643Y-74722801D01*
X82026063Y-74431591D01*
X81778409Y-74183937D01*
X81487199Y-73989357D01*
X81163623Y-73855328D01*
X80820118Y-73787000D01*
X80469882Y-73787000D01*
X80126377Y-73855328D01*
X79802801Y-73989357D01*
X79511591Y-74183937D01*
X79263937Y-74431591D01*
X79069357Y-74722801D01*
X78935328Y-75046377D01*
X78867000Y-75389882D01*
X67257479Y-75389882D01*
X77945701Y-64701661D01*
X77945700Y-68775958D01*
X77940663Y-68827100D01*
X77945700Y-68878241D01*
X77945700Y-68878251D01*
X77960769Y-69031249D01*
X78020317Y-69227553D01*
X78117019Y-69408470D01*
X78247157Y-69567043D01*
X78286891Y-69599652D01*
X78888589Y-70201350D01*
X78867000Y-70309882D01*
X78867000Y-70660118D01*
X78935328Y-71003623D01*
X79069357Y-71327199D01*
X79263937Y-71618409D01*
X79511591Y-71866063D01*
X79802801Y-72060643D01*
X80126377Y-72194672D01*
X80469882Y-72263000D01*
X80820118Y-72263000D01*
X81163623Y-72194672D01*
X81487199Y-72060643D01*
X81778409Y-71866063D01*
X82026063Y-71618409D01*
X82220643Y-71327199D01*
X82354672Y-71003623D01*
X82423000Y-70660118D01*
X82423000Y-70309882D01*
X82354672Y-69966377D01*
X82220643Y-69642801D01*
X82026063Y-69351591D01*
X81889472Y-69215000D01*
X82026063Y-69078409D01*
X82220643Y-68787199D01*
X82354672Y-68463623D01*
X82423000Y-68120118D01*
X82423000Y-67769882D01*
X82354672Y-67426377D01*
X82220643Y-67102801D01*
X82026063Y-66811591D01*
X81778409Y-66563937D01*
X81487199Y-66369357D01*
X81163623Y-66235328D01*
X80820118Y-66167000D01*
X80469882Y-66167000D01*
X80126377Y-66235328D01*
X80028500Y-66275870D01*
X80028500Y-64954261D01*
X80361350Y-64621411D01*
X80469882Y-64643000D01*
X80820118Y-64643000D01*
X81163623Y-64574672D01*
X81487199Y-64440643D01*
X81778409Y-64246063D01*
X82026063Y-63998409D01*
X82220643Y-63707199D01*
X82354672Y-63383623D01*
X82423000Y-63040118D01*
X82423000Y-62689882D01*
X82401411Y-62581350D01*
X83003914Y-61978847D01*
X83043643Y-61946243D01*
X83081067Y-61900643D01*
X83173781Y-61787670D01*
X83270482Y-61606756D01*
X83270483Y-61606753D01*
X83330031Y-61410450D01*
X83345100Y-61257452D01*
X83345100Y-61257442D01*
X83350137Y-61206301D01*
X83345100Y-61155159D01*
X83345100Y-60149882D01*
X106807000Y-60149882D01*
X106807000Y-60500118D01*
X106875328Y-60843623D01*
X107009357Y-61167199D01*
X107203937Y-61458409D01*
X107340528Y-61595000D01*
X107203937Y-61731591D01*
X107009357Y-62022801D01*
X106875328Y-62346377D01*
X106807000Y-62689882D01*
X106807000Y-63040118D01*
X106875328Y-63383623D01*
X107009357Y-63707199D01*
X107203937Y-63998409D01*
X107451591Y-64246063D01*
X107742801Y-64440643D01*
X108066377Y-64574672D01*
X108409882Y-64643000D01*
X108760118Y-64643000D01*
X109103623Y-64574672D01*
X109427199Y-64440643D01*
X109718409Y-64246063D01*
X109966063Y-63998409D01*
X110160643Y-63707199D01*
X110294672Y-63383623D01*
X110363000Y-63040118D01*
X110363000Y-62689882D01*
X110294672Y-62346377D01*
X110160643Y-62022801D01*
X109966063Y-61731591D01*
X109829472Y-61595000D01*
X109966063Y-61458409D01*
X110160643Y-61167199D01*
X110294672Y-60843623D01*
X110363000Y-60500118D01*
X110363000Y-60149882D01*
X110294672Y-59806377D01*
X110160643Y-59482801D01*
X109966063Y-59191591D01*
X109718409Y-58943937D01*
X109427199Y-58749357D01*
X109103623Y-58615328D01*
X108760118Y-58547000D01*
X108409882Y-58547000D01*
X108066377Y-58615328D01*
X107742801Y-58749357D01*
X107451591Y-58943937D01*
X107203937Y-59191591D01*
X107009357Y-59482801D01*
X106875328Y-59806377D01*
X106807000Y-60149882D01*
X83345100Y-60149882D01*
X83345100Y-59625141D01*
X83350137Y-59573999D01*
X83345100Y-59522858D01*
X83345100Y-59522848D01*
X83330031Y-59369850D01*
X83270483Y-59173546D01*
X83173781Y-58992630D01*
X83133820Y-58943937D01*
X83076250Y-58873788D01*
X83076247Y-58873785D01*
X83043643Y-58834057D01*
X83003914Y-58801452D01*
X82164852Y-57962390D01*
X82132243Y-57922657D01*
X81973670Y-57792519D01*
X81792754Y-57695817D01*
X81596450Y-57636269D01*
X81443452Y-57621200D01*
X81443441Y-57621200D01*
X81392300Y-57616163D01*
X81341159Y-57621200D01*
X77172741Y-57621200D01*
X77121599Y-57616163D01*
X77070458Y-57621200D01*
X77070448Y-57621200D01*
X76917450Y-57636269D01*
X76721146Y-57695817D01*
X76721144Y-57695818D01*
X76540230Y-57792519D01*
X76421388Y-57890050D01*
X76421385Y-57890053D01*
X76381657Y-57922657D01*
X76349053Y-57962385D01*
X72487839Y-61823600D01*
X54407451Y-61823600D01*
X54356300Y-61818562D01*
X54305148Y-61823600D01*
X54147541Y-61823600D01*
X54086063Y-61731591D01*
X53949472Y-61595000D01*
X54086063Y-61458409D01*
X54280643Y-61167199D01*
X54414672Y-60843623D01*
X54483000Y-60500118D01*
X54483000Y-60149882D01*
X54414672Y-59806377D01*
X54280643Y-59482801D01*
X54086063Y-59191591D01*
X53838409Y-58943937D01*
X53547199Y-58749357D01*
X53223623Y-58615328D01*
X52880118Y-58547000D01*
X52529882Y-58547000D01*
X52186377Y-58615328D01*
X51862801Y-58749357D01*
X51574700Y-58941860D01*
X51574700Y-57180440D01*
X51645707Y-56278205D01*
X51645914Y-56277340D01*
X62357000Y-56277340D01*
X62357000Y-56752660D01*
X62449731Y-57218846D01*
X62631628Y-57657984D01*
X62895701Y-58053198D01*
X63231802Y-58389299D01*
X63627016Y-58653372D01*
X64066154Y-58835269D01*
X64532340Y-58928000D01*
X65007660Y-58928000D01*
X65473846Y-58835269D01*
X65912984Y-58653372D01*
X66308198Y-58389299D01*
X66644299Y-58053198D01*
X66908372Y-57657984D01*
X67090269Y-57218846D01*
X67183000Y-56752660D01*
X67183000Y-56277340D01*
X118237000Y-56277340D01*
X118237000Y-56752660D01*
X118329731Y-57218846D01*
X118511628Y-57657984D01*
X118775701Y-58053198D01*
X119111802Y-58389299D01*
X119507016Y-58653372D01*
X119946154Y-58835269D01*
X120412340Y-58928000D01*
X120887660Y-58928000D01*
X121353846Y-58835269D01*
X121792984Y-58653372D01*
X122188198Y-58389299D01*
X122524299Y-58053198D01*
X122788372Y-57657984D01*
X122970269Y-57218846D01*
X123063000Y-56752660D01*
X123063000Y-56277340D01*
X122970269Y-55811154D01*
X122788372Y-55372016D01*
X122524299Y-54976802D01*
X122188198Y-54640701D01*
X121792984Y-54376628D01*
X121353846Y-54194731D01*
X120887660Y-54102000D01*
X120412340Y-54102000D01*
X119946154Y-54194731D01*
X119507016Y-54376628D01*
X119111802Y-54640701D01*
X118775701Y-54976802D01*
X118511628Y-55372016D01*
X118329731Y-55811154D01*
X118237000Y-56277340D01*
X67183000Y-56277340D01*
X67090269Y-55811154D01*
X66908372Y-55372016D01*
X66644299Y-54976802D01*
X66308198Y-54640701D01*
X65912984Y-54376628D01*
X65473846Y-54194731D01*
X65007660Y-54102000D01*
X64532340Y-54102000D01*
X64066154Y-54194731D01*
X63627016Y-54376628D01*
X63231802Y-54640701D01*
X62895701Y-54976802D01*
X62631628Y-55372016D01*
X62449731Y-55811154D01*
X62357000Y-56277340D01*
X51645914Y-56277340D01*
X51849853Y-55427876D01*
X52184505Y-54619956D01*
X52641426Y-53874329D01*
X53209362Y-53209361D01*
X53874326Y-52641427D01*
X54619956Y-52184505D01*
X55427876Y-51849853D01*
X56278205Y-51645707D01*
X57180441Y-51574700D01*
X119349560Y-51574700D01*
X120251795Y-51645707D01*
%TD*%
M02*
