%FSLAX45Y45*%
G04 Gerber Fmt 4.5, Leading zero omitted, Abs format (unit mm)*
G04 Created by KiCad (PCBNEW 5.1.6-c6e7f7d~87~ubuntu20.04.1) date 2020-07-21 10:48:39*
%MOMM*%
%LPD*%
G01*
G04 APERTURE LIST*
%TA.AperFunction,Profile*%
%ADD10C,0.279400*%
%TD*%
%ADD11C,0.200000*%
%ADD12C,0.300000*%
G04 APERTURE END LIST*
D10*
X12573000Y-14224000D02*
G75*
G02*
X11938000Y-14859000I-635000J0D01*
G01*
X5715000Y-14859000D02*
G75*
G02*
X5080000Y-14224000I0J635000D01*
G01*
X11938000Y-5080000D02*
G75*
G02*
X12573000Y-5715000I0J-635000D01*
G01*
X5080000Y-5715000D02*
G75*
G02*
X5715000Y-5080000I635000J0D01*
G01*
X5715000Y-5080000D02*
X11938000Y-5080000D01*
X5080000Y-14224000D02*
X5080000Y-5715000D01*
X11938000Y-14859000D02*
X5715000Y-14859000D01*
X12573000Y-5715000D02*
X12573000Y-14224000D01*
D11*
D12*
X5352458Y-15338684D02*
X5352458Y-15038684D01*
X5423887Y-15038684D01*
X5466744Y-15052970D01*
X5495316Y-15081541D01*
X5509601Y-15110113D01*
X5523887Y-15167256D01*
X5523887Y-15210113D01*
X5509601Y-15267256D01*
X5495316Y-15295827D01*
X5466744Y-15324399D01*
X5423887Y-15338684D01*
X5352458Y-15338684D01*
X5652458Y-15338684D02*
X5652458Y-15138684D01*
X5652458Y-15195827D02*
X5666744Y-15167256D01*
X5681030Y-15152970D01*
X5709601Y-15138684D01*
X5738173Y-15138684D01*
X5838173Y-15338684D02*
X5838173Y-15138684D01*
X5838173Y-15038684D02*
X5823887Y-15052970D01*
X5838173Y-15067256D01*
X5852458Y-15052970D01*
X5838173Y-15038684D01*
X5838173Y-15067256D01*
X6023887Y-15338684D02*
X5995316Y-15324399D01*
X5981030Y-15295827D01*
X5981030Y-15038684D01*
X6181030Y-15338684D02*
X6152458Y-15324399D01*
X6138173Y-15295827D01*
X6138173Y-15038684D01*
X6523887Y-15338684D02*
X6523887Y-15038684D01*
X6623887Y-15252970D01*
X6723887Y-15038684D01*
X6723887Y-15338684D01*
X6995316Y-15338684D02*
X6995316Y-15181541D01*
X6981030Y-15152970D01*
X6952458Y-15138684D01*
X6895316Y-15138684D01*
X6866744Y-15152970D01*
X6995316Y-15324399D02*
X6966744Y-15338684D01*
X6895316Y-15338684D01*
X6866744Y-15324399D01*
X6852458Y-15295827D01*
X6852458Y-15267256D01*
X6866744Y-15238684D01*
X6895316Y-15224399D01*
X6966744Y-15224399D01*
X6995316Y-15210113D01*
X7138173Y-15138684D02*
X7138173Y-15438684D01*
X7138173Y-15152970D02*
X7166744Y-15138684D01*
X7223887Y-15138684D01*
X7252458Y-15152970D01*
X7266744Y-15167256D01*
X7281030Y-15195827D01*
X7281030Y-15281541D01*
X7266744Y-15310113D01*
X7252458Y-15324399D01*
X7223887Y-15338684D01*
X7166744Y-15338684D01*
X7138173Y-15324399D01*
X7409601Y-15310113D02*
X7423887Y-15324399D01*
X7409601Y-15338684D01*
X7395316Y-15324399D01*
X7409601Y-15310113D01*
X7409601Y-15338684D01*
X7409601Y-15152970D02*
X7423887Y-15167256D01*
X7409601Y-15181541D01*
X7395316Y-15167256D01*
X7409601Y-15152970D01*
X7409601Y-15181541D01*
M02*
