%TF.GenerationSoftware,KiCad,Pcbnew,5.1.6-c6e7f7d~87~ubuntu20.04.1*%
%TF.CreationDate,2020-07-22T10:08:30-04:00*%
%TF.ProjectId,y_arena_valve_controller,795f6172-656e-4615-9f76-616c76655f63,1.1*%
%TF.SameCoordinates,Original*%
%TF.FileFunction,Legend,Bot*%
%TF.FilePolarity,Positive*%
%FSLAX46Y46*%
G04 Gerber Fmt 4.6, Leading zero omitted, Abs format (unit mm)*
G04 Created by KiCad (PCBNEW 5.1.6-c6e7f7d~87~ubuntu20.04.1) date 2020-07-22 10:08:30*
%MOMM*%
%LPD*%
G01*
G04 APERTURE LIST*
%ADD10C,0.279400*%
%ADD11C,0.381000*%
%ADD12C,0.228600*%
%ADD13C,0.254000*%
%ADD14C,0.635000*%
%ADD15C,2.386000*%
%ADD16O,2.132000X1.624000*%
%ADD17C,6.297600*%
%ADD18C,3.656000*%
%ADD19C,4.600000*%
%ADD20C,2.000000*%
G04 APERTURE END LIST*
D10*
%TO.C,S7*%
X114350800Y-76835000D02*
G75*
G03*
X114350800Y-76835000I-3733800J0D01*
G01*
%TO.C,S1*%
X58470800Y-76835000D02*
G75*
G03*
X58470800Y-76835000I-3733800J0D01*
G01*
%TO.C,S2*%
X58470800Y-69215000D02*
G75*
G03*
X58470800Y-69215000I-3733800J0D01*
G01*
%TO.C,S3*%
X58470800Y-61595000D02*
G75*
G03*
X58470800Y-61595000I-3733800J0D01*
G01*
%TO.C,S4*%
X86410800Y-76835000D02*
G75*
G03*
X86410800Y-76835000I-3733800J0D01*
G01*
%TO.C,S5*%
X86410800Y-69215000D02*
G75*
G03*
X86410800Y-69215000I-3733800J0D01*
G01*
%TO.C,S6*%
X86410800Y-61595000D02*
G75*
G03*
X86410800Y-61595000I-3733800J0D01*
G01*
%TO.C,S8*%
X114350800Y-69215000D02*
G75*
G03*
X114350800Y-69215000I-3733800J0D01*
G01*
%TO.C,S9*%
X114350800Y-61595000D02*
G75*
G03*
X114350800Y-61595000I-3733800J0D01*
G01*
%TO.C,PHIDGET1*%
X120777000Y-69215000D02*
G75*
G03*
X120777000Y-69215000I-3302000J0D01*
G01*
X62357000Y-69215000D02*
G75*
G03*
X62357000Y-69215000I-3302000J0D01*
G01*
X62357000Y-135255000D02*
G75*
G03*
X62357000Y-135255000I-3302000J0D01*
G01*
X120777000Y-135255000D02*
G75*
G03*
X120777000Y-135255000I-3302000J0D01*
G01*
D11*
X92075000Y-139065000D02*
X84455000Y-139065000D01*
X84455000Y-136525000D02*
X84455000Y-139065000D01*
X92075000Y-136525000D02*
X84455000Y-136525000D01*
X92075000Y-139065000D02*
X92075000Y-136525000D01*
X122110500Y-64389000D02*
X54419500Y-64389000D01*
X122110500Y-64389000D02*
X122110500Y-140081000D01*
X122110500Y-140081000D02*
X54419500Y-140081000D01*
X54419500Y-140081000D02*
X54419500Y-64389000D01*
D12*
%TO.C,MH1*%
X95250000Y-85090000D02*
G75*
G03*
X95250000Y-85090000I-2540000J0D01*
G01*
%TO.C,MH2*%
X67310000Y-56515000D02*
G75*
G03*
X67310000Y-56515000I-2540000J0D01*
G01*
%TO.C,MH3*%
X123190000Y-56515000D02*
G75*
G03*
X123190000Y-56515000I-2540000J0D01*
G01*
%TO.C,S7*%
D13*
X111536238Y-76060904D02*
X111584619Y-76206047D01*
X111584619Y-76447952D01*
X111536238Y-76544714D01*
X111487857Y-76593095D01*
X111391095Y-76641476D01*
X111294333Y-76641476D01*
X111197571Y-76593095D01*
X111149190Y-76544714D01*
X111100809Y-76447952D01*
X111052428Y-76254428D01*
X111004047Y-76157666D01*
X110955666Y-76109285D01*
X110858904Y-76060904D01*
X110762142Y-76060904D01*
X110665380Y-76109285D01*
X110617000Y-76157666D01*
X110568619Y-76254428D01*
X110568619Y-76496333D01*
X110617000Y-76641476D01*
X110568619Y-76980142D02*
X110568619Y-77657476D01*
X111584619Y-77222047D01*
%TO.C,S1*%
X55656238Y-76060904D02*
X55704619Y-76206047D01*
X55704619Y-76447952D01*
X55656238Y-76544714D01*
X55607857Y-76593095D01*
X55511095Y-76641476D01*
X55414333Y-76641476D01*
X55317571Y-76593095D01*
X55269190Y-76544714D01*
X55220809Y-76447952D01*
X55172428Y-76254428D01*
X55124047Y-76157666D01*
X55075666Y-76109285D01*
X54978904Y-76060904D01*
X54882142Y-76060904D01*
X54785380Y-76109285D01*
X54737000Y-76157666D01*
X54688619Y-76254428D01*
X54688619Y-76496333D01*
X54737000Y-76641476D01*
X55704619Y-77609095D02*
X55704619Y-77028523D01*
X55704619Y-77318809D02*
X54688619Y-77318809D01*
X54833761Y-77222047D01*
X54930523Y-77125285D01*
X54978904Y-77028523D01*
%TO.C,S2*%
X55656238Y-68440904D02*
X55704619Y-68586047D01*
X55704619Y-68827952D01*
X55656238Y-68924714D01*
X55607857Y-68973095D01*
X55511095Y-69021476D01*
X55414333Y-69021476D01*
X55317571Y-68973095D01*
X55269190Y-68924714D01*
X55220809Y-68827952D01*
X55172428Y-68634428D01*
X55124047Y-68537666D01*
X55075666Y-68489285D01*
X54978904Y-68440904D01*
X54882142Y-68440904D01*
X54785380Y-68489285D01*
X54737000Y-68537666D01*
X54688619Y-68634428D01*
X54688619Y-68876333D01*
X54737000Y-69021476D01*
X54785380Y-69408523D02*
X54737000Y-69456904D01*
X54688619Y-69553666D01*
X54688619Y-69795571D01*
X54737000Y-69892333D01*
X54785380Y-69940714D01*
X54882142Y-69989095D01*
X54978904Y-69989095D01*
X55124047Y-69940714D01*
X55704619Y-69360142D01*
X55704619Y-69989095D01*
%TO.C,S3*%
X55656238Y-60820904D02*
X55704619Y-60966047D01*
X55704619Y-61207952D01*
X55656238Y-61304714D01*
X55607857Y-61353095D01*
X55511095Y-61401476D01*
X55414333Y-61401476D01*
X55317571Y-61353095D01*
X55269190Y-61304714D01*
X55220809Y-61207952D01*
X55172428Y-61014428D01*
X55124047Y-60917666D01*
X55075666Y-60869285D01*
X54978904Y-60820904D01*
X54882142Y-60820904D01*
X54785380Y-60869285D01*
X54737000Y-60917666D01*
X54688619Y-61014428D01*
X54688619Y-61256333D01*
X54737000Y-61401476D01*
X54688619Y-61740142D02*
X54688619Y-62369095D01*
X55075666Y-62030428D01*
X55075666Y-62175571D01*
X55124047Y-62272333D01*
X55172428Y-62320714D01*
X55269190Y-62369095D01*
X55511095Y-62369095D01*
X55607857Y-62320714D01*
X55656238Y-62272333D01*
X55704619Y-62175571D01*
X55704619Y-61885285D01*
X55656238Y-61788523D01*
X55607857Y-61740142D01*
%TO.C,S4*%
X83596238Y-76060904D02*
X83644619Y-76206047D01*
X83644619Y-76447952D01*
X83596238Y-76544714D01*
X83547857Y-76593095D01*
X83451095Y-76641476D01*
X83354333Y-76641476D01*
X83257571Y-76593095D01*
X83209190Y-76544714D01*
X83160809Y-76447952D01*
X83112428Y-76254428D01*
X83064047Y-76157666D01*
X83015666Y-76109285D01*
X82918904Y-76060904D01*
X82822142Y-76060904D01*
X82725380Y-76109285D01*
X82677000Y-76157666D01*
X82628619Y-76254428D01*
X82628619Y-76496333D01*
X82677000Y-76641476D01*
X82967285Y-77512333D02*
X83644619Y-77512333D01*
X82580238Y-77270428D02*
X83305952Y-77028523D01*
X83305952Y-77657476D01*
%TO.C,S5*%
X83596238Y-68440904D02*
X83644619Y-68586047D01*
X83644619Y-68827952D01*
X83596238Y-68924714D01*
X83547857Y-68973095D01*
X83451095Y-69021476D01*
X83354333Y-69021476D01*
X83257571Y-68973095D01*
X83209190Y-68924714D01*
X83160809Y-68827952D01*
X83112428Y-68634428D01*
X83064047Y-68537666D01*
X83015666Y-68489285D01*
X82918904Y-68440904D01*
X82822142Y-68440904D01*
X82725380Y-68489285D01*
X82677000Y-68537666D01*
X82628619Y-68634428D01*
X82628619Y-68876333D01*
X82677000Y-69021476D01*
X82628619Y-69940714D02*
X82628619Y-69456904D01*
X83112428Y-69408523D01*
X83064047Y-69456904D01*
X83015666Y-69553666D01*
X83015666Y-69795571D01*
X83064047Y-69892333D01*
X83112428Y-69940714D01*
X83209190Y-69989095D01*
X83451095Y-69989095D01*
X83547857Y-69940714D01*
X83596238Y-69892333D01*
X83644619Y-69795571D01*
X83644619Y-69553666D01*
X83596238Y-69456904D01*
X83547857Y-69408523D01*
%TO.C,S6*%
X83596238Y-60820904D02*
X83644619Y-60966047D01*
X83644619Y-61207952D01*
X83596238Y-61304714D01*
X83547857Y-61353095D01*
X83451095Y-61401476D01*
X83354333Y-61401476D01*
X83257571Y-61353095D01*
X83209190Y-61304714D01*
X83160809Y-61207952D01*
X83112428Y-61014428D01*
X83064047Y-60917666D01*
X83015666Y-60869285D01*
X82918904Y-60820904D01*
X82822142Y-60820904D01*
X82725380Y-60869285D01*
X82677000Y-60917666D01*
X82628619Y-61014428D01*
X82628619Y-61256333D01*
X82677000Y-61401476D01*
X82628619Y-62272333D02*
X82628619Y-62078809D01*
X82677000Y-61982047D01*
X82725380Y-61933666D01*
X82870523Y-61836904D01*
X83064047Y-61788523D01*
X83451095Y-61788523D01*
X83547857Y-61836904D01*
X83596238Y-61885285D01*
X83644619Y-61982047D01*
X83644619Y-62175571D01*
X83596238Y-62272333D01*
X83547857Y-62320714D01*
X83451095Y-62369095D01*
X83209190Y-62369095D01*
X83112428Y-62320714D01*
X83064047Y-62272333D01*
X83015666Y-62175571D01*
X83015666Y-61982047D01*
X83064047Y-61885285D01*
X83112428Y-61836904D01*
X83209190Y-61788523D01*
%TO.C,S8*%
X111536238Y-68440904D02*
X111584619Y-68586047D01*
X111584619Y-68827952D01*
X111536238Y-68924714D01*
X111487857Y-68973095D01*
X111391095Y-69021476D01*
X111294333Y-69021476D01*
X111197571Y-68973095D01*
X111149190Y-68924714D01*
X111100809Y-68827952D01*
X111052428Y-68634428D01*
X111004047Y-68537666D01*
X110955666Y-68489285D01*
X110858904Y-68440904D01*
X110762142Y-68440904D01*
X110665380Y-68489285D01*
X110617000Y-68537666D01*
X110568619Y-68634428D01*
X110568619Y-68876333D01*
X110617000Y-69021476D01*
X111004047Y-69602047D02*
X110955666Y-69505285D01*
X110907285Y-69456904D01*
X110810523Y-69408523D01*
X110762142Y-69408523D01*
X110665380Y-69456904D01*
X110617000Y-69505285D01*
X110568619Y-69602047D01*
X110568619Y-69795571D01*
X110617000Y-69892333D01*
X110665380Y-69940714D01*
X110762142Y-69989095D01*
X110810523Y-69989095D01*
X110907285Y-69940714D01*
X110955666Y-69892333D01*
X111004047Y-69795571D01*
X111004047Y-69602047D01*
X111052428Y-69505285D01*
X111100809Y-69456904D01*
X111197571Y-69408523D01*
X111391095Y-69408523D01*
X111487857Y-69456904D01*
X111536238Y-69505285D01*
X111584619Y-69602047D01*
X111584619Y-69795571D01*
X111536238Y-69892333D01*
X111487857Y-69940714D01*
X111391095Y-69989095D01*
X111197571Y-69989095D01*
X111100809Y-69940714D01*
X111052428Y-69892333D01*
X111004047Y-69795571D01*
%TO.C,S9*%
X111536238Y-60820904D02*
X111584619Y-60966047D01*
X111584619Y-61207952D01*
X111536238Y-61304714D01*
X111487857Y-61353095D01*
X111391095Y-61401476D01*
X111294333Y-61401476D01*
X111197571Y-61353095D01*
X111149190Y-61304714D01*
X111100809Y-61207952D01*
X111052428Y-61014428D01*
X111004047Y-60917666D01*
X110955666Y-60869285D01*
X110858904Y-60820904D01*
X110762142Y-60820904D01*
X110665380Y-60869285D01*
X110617000Y-60917666D01*
X110568619Y-61014428D01*
X110568619Y-61256333D01*
X110617000Y-61401476D01*
X111584619Y-61885285D02*
X111584619Y-62078809D01*
X111536238Y-62175571D01*
X111487857Y-62223952D01*
X111342714Y-62320714D01*
X111149190Y-62369095D01*
X110762142Y-62369095D01*
X110665380Y-62320714D01*
X110617000Y-62272333D01*
X110568619Y-62175571D01*
X110568619Y-61982047D01*
X110617000Y-61885285D01*
X110665380Y-61836904D01*
X110762142Y-61788523D01*
X111004047Y-61788523D01*
X111100809Y-61836904D01*
X111149190Y-61885285D01*
X111197571Y-61982047D01*
X111197571Y-62175571D01*
X111149190Y-62272333D01*
X111100809Y-62320714D01*
X111004047Y-62369095D01*
%TO.C,PHIDGET1*%
D11*
X52015571Y-107315000D02*
X53539571Y-107315000D01*
X53539571Y-106734428D01*
X53467000Y-106589285D01*
X53394428Y-106516714D01*
X53249285Y-106444142D01*
X53031571Y-106444142D01*
X52886428Y-106516714D01*
X52813857Y-106589285D01*
X52741285Y-106734428D01*
X52741285Y-107315000D01*
X52015571Y-105791000D02*
X53539571Y-105791000D01*
X52813857Y-105791000D02*
X52813857Y-104920142D01*
X52015571Y-104920142D02*
X53539571Y-104920142D01*
X52015571Y-104194428D02*
X53539571Y-104194428D01*
X52015571Y-103468714D02*
X53539571Y-103468714D01*
X53539571Y-103105857D01*
X53467000Y-102888142D01*
X53321857Y-102743000D01*
X53176714Y-102670428D01*
X52886428Y-102597857D01*
X52668714Y-102597857D01*
X52378428Y-102670428D01*
X52233285Y-102743000D01*
X52088142Y-102888142D01*
X52015571Y-103105857D01*
X52015571Y-103468714D01*
X53467000Y-101146428D02*
X53539571Y-101291571D01*
X53539571Y-101509285D01*
X53467000Y-101727000D01*
X53321857Y-101872142D01*
X53176714Y-101944714D01*
X52886428Y-102017285D01*
X52668714Y-102017285D01*
X52378428Y-101944714D01*
X52233285Y-101872142D01*
X52088142Y-101727000D01*
X52015571Y-101509285D01*
X52015571Y-101364142D01*
X52088142Y-101146428D01*
X52160714Y-101073857D01*
X52668714Y-101073857D01*
X52668714Y-101364142D01*
X52813857Y-100420714D02*
X52813857Y-99912714D01*
X52015571Y-99695000D02*
X52015571Y-100420714D01*
X53539571Y-100420714D01*
X53539571Y-99695000D01*
X53539571Y-99259571D02*
X53539571Y-98388714D01*
X52015571Y-98824142D02*
X53539571Y-98824142D01*
X52015571Y-97082428D02*
X52015571Y-97953285D01*
X52015571Y-97517857D02*
X53539571Y-97517857D01*
X53321857Y-97663000D01*
X53176714Y-97808142D01*
X53104142Y-97953285D01*
D14*
X63258095Y-83608333D02*
X63379047Y-83971190D01*
X63379047Y-84575952D01*
X63258095Y-84817857D01*
X63137142Y-84938809D01*
X62895238Y-85059761D01*
X62653333Y-85059761D01*
X62411428Y-84938809D01*
X62290476Y-84817857D01*
X62169523Y-84575952D01*
X62048571Y-84092142D01*
X61927619Y-83850238D01*
X61806666Y-83729285D01*
X61564761Y-83608333D01*
X61322857Y-83608333D01*
X61080952Y-83729285D01*
X60960000Y-83850238D01*
X60839047Y-84092142D01*
X60839047Y-84696904D01*
X60960000Y-85059761D01*
X61685714Y-85785476D02*
X61685714Y-86753095D01*
X60839047Y-86148333D02*
X63016190Y-86148333D01*
X63258095Y-86269285D01*
X63379047Y-86511190D01*
X63379047Y-86753095D01*
X63379047Y-88688333D02*
X62048571Y-88688333D01*
X61806666Y-88567380D01*
X61685714Y-88325476D01*
X61685714Y-87841666D01*
X61806666Y-87599761D01*
X63258095Y-88688333D02*
X63379047Y-88446428D01*
X63379047Y-87841666D01*
X63258095Y-87599761D01*
X63016190Y-87478809D01*
X62774285Y-87478809D01*
X62532380Y-87599761D01*
X62411428Y-87841666D01*
X62411428Y-88446428D01*
X62290476Y-88688333D01*
X61685714Y-89535000D02*
X61685714Y-90502619D01*
X60839047Y-89897857D02*
X63016190Y-89897857D01*
X63258095Y-90018809D01*
X63379047Y-90260714D01*
X63379047Y-90502619D01*
X63258095Y-92316904D02*
X63379047Y-92075000D01*
X63379047Y-91591190D01*
X63258095Y-91349285D01*
X63016190Y-91228333D01*
X62048571Y-91228333D01*
X61806666Y-91349285D01*
X61685714Y-91591190D01*
X61685714Y-92075000D01*
X61806666Y-92316904D01*
X62048571Y-92437857D01*
X62290476Y-92437857D01*
X62532380Y-91228333D01*
X63379047Y-96913095D02*
X62169523Y-96066428D01*
X63379047Y-95461666D02*
X60839047Y-95461666D01*
X60839047Y-96429285D01*
X60960000Y-96671190D01*
X61080952Y-96792142D01*
X61322857Y-96913095D01*
X61685714Y-96913095D01*
X61927619Y-96792142D01*
X62048571Y-96671190D01*
X62169523Y-96429285D01*
X62169523Y-95461666D01*
X63258095Y-98969285D02*
X63379047Y-98727380D01*
X63379047Y-98243571D01*
X63258095Y-98001666D01*
X63016190Y-97880714D01*
X62048571Y-97880714D01*
X61806666Y-98001666D01*
X61685714Y-98243571D01*
X61685714Y-98727380D01*
X61806666Y-98969285D01*
X62048571Y-99090238D01*
X62290476Y-99090238D01*
X62532380Y-97880714D01*
X63379047Y-100541666D02*
X63258095Y-100299761D01*
X63016190Y-100178809D01*
X60839047Y-100178809D01*
X63379047Y-102597857D02*
X62048571Y-102597857D01*
X61806666Y-102476904D01*
X61685714Y-102235000D01*
X61685714Y-101751190D01*
X61806666Y-101509285D01*
X63258095Y-102597857D02*
X63379047Y-102355952D01*
X63379047Y-101751190D01*
X63258095Y-101509285D01*
X63016190Y-101388333D01*
X62774285Y-101388333D01*
X62532380Y-101509285D01*
X62411428Y-101751190D01*
X62411428Y-102355952D01*
X62290476Y-102597857D01*
X61685714Y-103565476D02*
X63379047Y-104170238D01*
X61685714Y-104775000D02*
X63379047Y-104170238D01*
X63983809Y-103928333D01*
X64104761Y-103807380D01*
X64225714Y-103565476D01*
X63379047Y-107677857D02*
X60839047Y-107677857D01*
X60839047Y-108645476D01*
X60960000Y-108887380D01*
X61080952Y-109008333D01*
X61322857Y-109129285D01*
X61685714Y-109129285D01*
X61927619Y-109008333D01*
X62048571Y-108887380D01*
X62169523Y-108645476D01*
X62169523Y-107677857D01*
X63379047Y-110217857D02*
X60839047Y-110217857D01*
X63379047Y-111306428D02*
X62048571Y-111306428D01*
X61806666Y-111185476D01*
X61685714Y-110943571D01*
X61685714Y-110580714D01*
X61806666Y-110338809D01*
X61927619Y-110217857D01*
X63379047Y-112515952D02*
X61685714Y-112515952D01*
X60839047Y-112515952D02*
X60960000Y-112395000D01*
X61080952Y-112515952D01*
X60960000Y-112636904D01*
X60839047Y-112515952D01*
X61080952Y-112515952D01*
X63379047Y-114814047D02*
X60839047Y-114814047D01*
X63258095Y-114814047D02*
X63379047Y-114572142D01*
X63379047Y-114088333D01*
X63258095Y-113846428D01*
X63137142Y-113725476D01*
X62895238Y-113604523D01*
X62169523Y-113604523D01*
X61927619Y-113725476D01*
X61806666Y-113846428D01*
X61685714Y-114088333D01*
X61685714Y-114572142D01*
X61806666Y-114814047D01*
X61685714Y-117112142D02*
X63741904Y-117112142D01*
X63983809Y-116991190D01*
X64104761Y-116870238D01*
X64225714Y-116628333D01*
X64225714Y-116265476D01*
X64104761Y-116023571D01*
X63258095Y-117112142D02*
X63379047Y-116870238D01*
X63379047Y-116386428D01*
X63258095Y-116144523D01*
X63137142Y-116023571D01*
X62895238Y-115902619D01*
X62169523Y-115902619D01*
X61927619Y-116023571D01*
X61806666Y-116144523D01*
X61685714Y-116386428D01*
X61685714Y-116870238D01*
X61806666Y-117112142D01*
X63258095Y-119289285D02*
X63379047Y-119047380D01*
X63379047Y-118563571D01*
X63258095Y-118321666D01*
X63016190Y-118200714D01*
X62048571Y-118200714D01*
X61806666Y-118321666D01*
X61685714Y-118563571D01*
X61685714Y-119047380D01*
X61806666Y-119289285D01*
X62048571Y-119410238D01*
X62290476Y-119410238D01*
X62532380Y-118200714D01*
X61685714Y-120135952D02*
X61685714Y-121103571D01*
X60839047Y-120498809D02*
X63016190Y-120498809D01*
X63258095Y-120619761D01*
X63379047Y-120861666D01*
X63379047Y-121103571D01*
X67824047Y-86450714D02*
X67824047Y-84999285D01*
X67824047Y-85725000D02*
X65284047Y-85725000D01*
X65646904Y-85483095D01*
X65888809Y-85241190D01*
X66009761Y-84999285D01*
X65284047Y-88627857D02*
X65284047Y-88144047D01*
X65405000Y-87902142D01*
X65525952Y-87781190D01*
X65888809Y-87539285D01*
X66372619Y-87418333D01*
X67340238Y-87418333D01*
X67582142Y-87539285D01*
X67703095Y-87660238D01*
X67824047Y-87902142D01*
X67824047Y-88385952D01*
X67703095Y-88627857D01*
X67582142Y-88748809D01*
X67340238Y-88869761D01*
X66735476Y-88869761D01*
X66493571Y-88748809D01*
X66372619Y-88627857D01*
X66251666Y-88385952D01*
X66251666Y-87902142D01*
X66372619Y-87660238D01*
X66493571Y-87539285D01*
X66735476Y-87418333D01*
X67824047Y-89716428D02*
X66130714Y-91046904D01*
X66130714Y-89716428D02*
X67824047Y-91046904D01*
X67824047Y-93949761D02*
X65284047Y-93949761D01*
X67703095Y-95038333D02*
X67824047Y-95280238D01*
X67824047Y-95764047D01*
X67703095Y-96005952D01*
X67461190Y-96126904D01*
X67340238Y-96126904D01*
X67098333Y-96005952D01*
X66977380Y-95764047D01*
X66977380Y-95401190D01*
X66856428Y-95159285D01*
X66614523Y-95038333D01*
X66493571Y-95038333D01*
X66251666Y-95159285D01*
X66130714Y-95401190D01*
X66130714Y-95764047D01*
X66251666Y-96005952D01*
X67824047Y-97578333D02*
X67703095Y-97336428D01*
X67582142Y-97215476D01*
X67340238Y-97094523D01*
X66614523Y-97094523D01*
X66372619Y-97215476D01*
X66251666Y-97336428D01*
X66130714Y-97578333D01*
X66130714Y-97941190D01*
X66251666Y-98183095D01*
X66372619Y-98304047D01*
X66614523Y-98425000D01*
X67340238Y-98425000D01*
X67582142Y-98304047D01*
X67703095Y-98183095D01*
X67824047Y-97941190D01*
X67824047Y-97578333D01*
X67824047Y-99876428D02*
X67703095Y-99634523D01*
X67461190Y-99513571D01*
X65284047Y-99513571D01*
X67824047Y-101932619D02*
X66493571Y-101932619D01*
X66251666Y-101811666D01*
X66130714Y-101569761D01*
X66130714Y-101085952D01*
X66251666Y-100844047D01*
X67703095Y-101932619D02*
X67824047Y-101690714D01*
X67824047Y-101085952D01*
X67703095Y-100844047D01*
X67461190Y-100723095D01*
X67219285Y-100723095D01*
X66977380Y-100844047D01*
X66856428Y-101085952D01*
X66856428Y-101690714D01*
X66735476Y-101932619D01*
X66130714Y-102779285D02*
X66130714Y-103746904D01*
X65284047Y-103142142D02*
X67461190Y-103142142D01*
X67703095Y-103263095D01*
X67824047Y-103505000D01*
X67824047Y-103746904D01*
X67703095Y-105561190D02*
X67824047Y-105319285D01*
X67824047Y-104835476D01*
X67703095Y-104593571D01*
X67461190Y-104472619D01*
X66493571Y-104472619D01*
X66251666Y-104593571D01*
X66130714Y-104835476D01*
X66130714Y-105319285D01*
X66251666Y-105561190D01*
X66493571Y-105682142D01*
X66735476Y-105682142D01*
X66977380Y-104472619D01*
X67824047Y-107859285D02*
X65284047Y-107859285D01*
X67703095Y-107859285D02*
X67824047Y-107617380D01*
X67824047Y-107133571D01*
X67703095Y-106891666D01*
X67582142Y-106770714D01*
X67340238Y-106649761D01*
X66614523Y-106649761D01*
X66372619Y-106770714D01*
X66251666Y-106891666D01*
X66130714Y-107133571D01*
X66130714Y-107617380D01*
X66251666Y-107859285D01*
X67703095Y-110883095D02*
X67824047Y-111245952D01*
X67824047Y-111850714D01*
X67703095Y-112092619D01*
X67582142Y-112213571D01*
X67340238Y-112334523D01*
X67098333Y-112334523D01*
X66856428Y-112213571D01*
X66735476Y-112092619D01*
X66614523Y-111850714D01*
X66493571Y-111366904D01*
X66372619Y-111125000D01*
X66251666Y-111004047D01*
X66009761Y-110883095D01*
X65767857Y-110883095D01*
X65525952Y-111004047D01*
X65405000Y-111125000D01*
X65284047Y-111366904D01*
X65284047Y-111971666D01*
X65405000Y-112334523D01*
X67824047Y-113785952D02*
X67703095Y-113544047D01*
X67582142Y-113423095D01*
X67340238Y-113302142D01*
X66614523Y-113302142D01*
X66372619Y-113423095D01*
X66251666Y-113544047D01*
X66130714Y-113785952D01*
X66130714Y-114148809D01*
X66251666Y-114390714D01*
X66372619Y-114511666D01*
X66614523Y-114632619D01*
X67340238Y-114632619D01*
X67582142Y-114511666D01*
X67703095Y-114390714D01*
X67824047Y-114148809D01*
X67824047Y-113785952D01*
X67824047Y-116084047D02*
X67703095Y-115842142D01*
X67461190Y-115721190D01*
X65284047Y-115721190D01*
X67824047Y-117051666D02*
X66130714Y-117051666D01*
X65284047Y-117051666D02*
X65405000Y-116930714D01*
X65525952Y-117051666D01*
X65405000Y-117172619D01*
X65284047Y-117051666D01*
X65525952Y-117051666D01*
X67824047Y-119349761D02*
X65284047Y-119349761D01*
X67703095Y-119349761D02*
X67824047Y-119107857D01*
X67824047Y-118624047D01*
X67703095Y-118382142D01*
X67582142Y-118261190D01*
X67340238Y-118140238D01*
X66614523Y-118140238D01*
X66372619Y-118261190D01*
X66251666Y-118382142D01*
X66130714Y-118624047D01*
X66130714Y-119107857D01*
X66251666Y-119349761D01*
%TD*%
%LPC*%
D15*
%TO.C,S7*%
X108585000Y-75565000D03*
X108585000Y-78105000D03*
%TD*%
%TO.C,S1*%
X52705000Y-75565000D03*
X52705000Y-78105000D03*
%TD*%
%TO.C,S2*%
X52705000Y-67945000D03*
X52705000Y-70485000D03*
%TD*%
%TO.C,S3*%
X52705000Y-60325000D03*
X52705000Y-62865000D03*
%TD*%
%TO.C,S4*%
X80645000Y-75565000D03*
X80645000Y-78105000D03*
%TD*%
%TO.C,S5*%
X80645000Y-67945000D03*
X80645000Y-70485000D03*
%TD*%
%TO.C,S6*%
X80645000Y-60325000D03*
X80645000Y-62865000D03*
%TD*%
%TO.C,S8*%
X108585000Y-67945000D03*
X108585000Y-70485000D03*
%TD*%
%TO.C,S9*%
X108585000Y-60325000D03*
X108585000Y-62865000D03*
%TD*%
D16*
%TO.C,PHIDGET1*%
X75565000Y-99060000D03*
X75565000Y-111760000D03*
X75565000Y-137160000D03*
X75565000Y-129540000D03*
X75565000Y-116840000D03*
X75565000Y-114300000D03*
X75565000Y-134620000D03*
X75565000Y-121920000D03*
X75565000Y-119380000D03*
X75565000Y-132080000D03*
X75565000Y-109220000D03*
X75565000Y-127000000D03*
X75565000Y-101600000D03*
X75565000Y-104140000D03*
X75565000Y-106680000D03*
X75565000Y-124460000D03*
X100965000Y-99060000D03*
X100965000Y-101600000D03*
X100965000Y-137160000D03*
D17*
X59055000Y-135255000D03*
X59055000Y-69215000D03*
X117475000Y-69215000D03*
X117475000Y-135255000D03*
D16*
X100965000Y-104140000D03*
X100965000Y-106680000D03*
X100965000Y-109220000D03*
X100965000Y-111760000D03*
X100965000Y-114300000D03*
X100965000Y-116840000D03*
X100965000Y-119380000D03*
X100965000Y-121920000D03*
X100965000Y-124460000D03*
X100965000Y-127000000D03*
X100965000Y-129540000D03*
X100965000Y-132080000D03*
X100965000Y-134620000D03*
%TD*%
D18*
%TO.C,MH1*%
X92710000Y-85090000D03*
%TD*%
%TO.C,MH2*%
X64770000Y-56515000D03*
%TD*%
%TO.C,MH3*%
X120650000Y-56515000D03*
%TD*%
D19*
%TO.C,P1*%
X88265000Y-125730000D03*
D20*
X84165000Y-127730000D03*
X92365000Y-127730000D03*
%TD*%
M02*
