M48
; DRILL file {KiCad 5.1.6-c6e7f7d~87~ubuntu20.04.1} date Tue Jul 21 10:48:37 2020
; FORMAT={2:4/ absolute / inch / keep zeros}
; #@! TF.CreationDate,2020-07-21T10:48:37-04:00
; #@! TF.GenerationSoftware,Kicad,Pcbnew,5.1.6-c6e7f7d~87~ubuntu20.04.1
; #@! TF.FileFunction,Plated,1,2,PTH
FMAT,2
INCH
T1C0.0250
T2C0.0400
T3C0.0600
T4C0.0669
T5C0.1300
T6C0.1654
T7C0.1660
%
G90
G05
T1
X025123Y-042336
X025562Y-043910
T2
X023250Y-038750
X023250Y-039750
X023250Y-040750
X023250Y-041750
X023250Y-042750
X023250Y-043750
X023250Y-044750
X023250Y-045750
X023250Y-046750
X023250Y-047750
X023250Y-048750
X023250Y-049750
X023250Y-050750
X023250Y-051750
X023250Y-052750
X023250Y-053750
X046250Y-038750
X046250Y-039750
X046250Y-040750
X046250Y-041750
X046250Y-042750
X046250Y-043750
X046250Y-044750
X046250Y-045750
X046250Y-046750
X046250Y-047750
X046250Y-048750
X046250Y-049750
X046250Y-050750
X046250Y-051750
X046250Y-052750
X046250Y-053750
T3
X031750Y-026750
X031750Y-027750
X020750Y-029750
X020750Y-030750
X031750Y-029750
X031750Y-030750
X020750Y-023750
X020750Y-024750
X020750Y-026750
X020750Y-027750
X042750Y-026750
X042750Y-027750
X042750Y-029750
X042750Y-030750
X031750Y-023750
X031750Y-024750
X042750Y-023750
X042750Y-024750
T4
X033136Y-051537
X036364Y-051537
T5
X047500Y-022250
X025500Y-022250
X036500Y-033500
T6
X034750Y-050750
T7
X023250Y-030250
X023250Y-056250
X046250Y-030250
X046250Y-056250
T0
M30
