%TF.GenerationSoftware,KiCad,Pcbnew,5.1.6-c6e7f7d~87~ubuntu20.04.1*%
%TF.CreationDate,2020-07-22T10:08:30-04:00*%
%TF.ProjectId,y_arena_valve_controller,795f6172-656e-4615-9f76-616c76655f63,1.1*%
%TF.SameCoordinates,Original*%
%TF.FileFunction,Legend,Top*%
%TF.FilePolarity,Positive*%
%FSLAX46Y46*%
G04 Gerber Fmt 4.6, Leading zero omitted, Abs format (unit mm)*
G04 Created by KiCad (PCBNEW 5.1.6-c6e7f7d~87~ubuntu20.04.1) date 2020-07-22 10:08:30*
%MOMM*%
%LPD*%
G01*
G04 APERTURE LIST*
%ADD10C,0.254000*%
%ADD11C,0.279400*%
%ADD12C,0.190500*%
%ADD13C,0.381000*%
%ADD14C,0.150000*%
%ADD15C,0.177800*%
%ADD16C,0.228600*%
%ADD17C,0.400000*%
%ADD18C,0.158750*%
%ADD19C,2.386000*%
%ADD20O,2.132000X1.624000*%
%ADD21C,6.297600*%
%ADD22C,1.000000*%
%ADD23C,3.656000*%
%ADD24R,1.700200X0.887400*%
%ADD25R,4.000000X5.160000*%
%ADD26R,1.800000X1.640000*%
%ADD27C,4.600000*%
%ADD28C,2.000000*%
%ADD29R,5.100000X5.300000*%
%ADD30R,3.850000X5.100000*%
G04 APERTURE END LIST*
D10*
X120940285Y-124919619D02*
X120359714Y-124919619D01*
X120650000Y-124919619D02*
X120650000Y-123903619D01*
X120553238Y-124048761D01*
X120456476Y-124145523D01*
X120359714Y-124193904D01*
X120359714Y-118920380D02*
X120408095Y-118872000D01*
X120504857Y-118823619D01*
X120746761Y-118823619D01*
X120843523Y-118872000D01*
X120891904Y-118920380D01*
X120940285Y-119017142D01*
X120940285Y-119113904D01*
X120891904Y-119259047D01*
X120311333Y-119839619D01*
X120940285Y-119839619D01*
X120601619Y-128983619D02*
X120698380Y-128983619D01*
X120795142Y-129032000D01*
X120843523Y-129080380D01*
X120891904Y-129177142D01*
X120940285Y-129370666D01*
X120940285Y-129612571D01*
X120891904Y-129806095D01*
X120843523Y-129902857D01*
X120795142Y-129951238D01*
X120698380Y-129999619D01*
X120601619Y-129999619D01*
X120504857Y-129951238D01*
X120456476Y-129902857D01*
X120408095Y-129806095D01*
X120359714Y-129612571D01*
X120359714Y-129370666D01*
X120408095Y-129177142D01*
X120456476Y-129080380D01*
X120504857Y-129032000D01*
X120601619Y-128983619D01*
X116549714Y-115110380D02*
X116598095Y-115062000D01*
X116694857Y-115013619D01*
X116936761Y-115013619D01*
X117033523Y-115062000D01*
X117081904Y-115110380D01*
X117130285Y-115207142D01*
X117130285Y-115303904D01*
X117081904Y-115449047D01*
X116501333Y-116029619D01*
X117130285Y-116029619D01*
X112050285Y-116029619D02*
X111469714Y-116029619D01*
X111760000Y-116029619D02*
X111760000Y-115013619D01*
X111663238Y-115158761D01*
X111566476Y-115255523D01*
X111469714Y-115303904D01*
X106631619Y-115013619D02*
X106728380Y-115013619D01*
X106825142Y-115062000D01*
X106873523Y-115110380D01*
X106921904Y-115207142D01*
X106970285Y-115400666D01*
X106970285Y-115642571D01*
X106921904Y-115836095D01*
X106873523Y-115932857D01*
X106825142Y-115981238D01*
X106728380Y-116029619D01*
X106631619Y-116029619D01*
X106534857Y-115981238D01*
X106486476Y-115932857D01*
X106438095Y-115836095D01*
X106389714Y-115642571D01*
X106389714Y-115400666D01*
X106438095Y-115207142D01*
X106486476Y-115110380D01*
X106534857Y-115062000D01*
X106631619Y-115013619D01*
X122633619Y-126540380D02*
X123649619Y-126201714D01*
X122633619Y-125863047D01*
X123359333Y-125572761D02*
X123359333Y-125088952D01*
X123649619Y-125669523D02*
X122633619Y-125330857D01*
X123649619Y-124992190D01*
X123649619Y-124169714D02*
X123649619Y-124653523D01*
X122633619Y-124653523D01*
X122633619Y-123976190D02*
X123649619Y-123637523D01*
X122633619Y-123298857D01*
X123117428Y-122960190D02*
X123117428Y-122621523D01*
X123649619Y-122476380D02*
X123649619Y-122960190D01*
X122633619Y-122960190D01*
X122633619Y-122476380D01*
X108324952Y-113489619D02*
X108324952Y-112473619D01*
X108663619Y-113199333D01*
X109002285Y-112473619D01*
X109002285Y-113489619D01*
X109437714Y-113199333D02*
X109921523Y-113199333D01*
X109340952Y-113489619D02*
X109679619Y-112473619D01*
X110018285Y-113489619D01*
X110356952Y-113489619D02*
X110356952Y-112473619D01*
X110937523Y-113489619D01*
X110937523Y-112473619D01*
X111421333Y-113489619D02*
X111421333Y-112473619D01*
X112243809Y-112957428D02*
X111905142Y-112957428D01*
X111905142Y-113489619D02*
X111905142Y-112473619D01*
X112388952Y-112473619D01*
X112969523Y-112473619D02*
X113163047Y-112473619D01*
X113259809Y-112522000D01*
X113356571Y-112618761D01*
X113404952Y-112812285D01*
X113404952Y-113150952D01*
X113356571Y-113344476D01*
X113259809Y-113441238D01*
X113163047Y-113489619D01*
X112969523Y-113489619D01*
X112872761Y-113441238D01*
X112776000Y-113344476D01*
X112727619Y-113150952D01*
X112727619Y-112812285D01*
X112776000Y-112618761D01*
X112872761Y-112522000D01*
X112969523Y-112473619D01*
X114324190Y-113489619D02*
X113840380Y-113489619D01*
X113840380Y-112473619D01*
X114662857Y-113489619D02*
X114662857Y-112473619D01*
X114904761Y-112473619D01*
X115049904Y-112522000D01*
X115146666Y-112618761D01*
X115195047Y-112715523D01*
X115243428Y-112909047D01*
X115243428Y-113054190D01*
X115195047Y-113247714D01*
X115146666Y-113344476D01*
X115049904Y-113441238D01*
X114904761Y-113489619D01*
X114662857Y-113489619D01*
D11*
X104140000Y-127000000D02*
X121920000Y-127000000D01*
X104140000Y-121920000D02*
X121920000Y-121920000D01*
X114300000Y-116840000D02*
X114300000Y-114300000D01*
X109220000Y-116840000D02*
X109220000Y-114300000D01*
X119380000Y-111760000D02*
X119380000Y-114300000D01*
X104140000Y-111760000D02*
X119380000Y-111760000D01*
X104140000Y-114300000D02*
X104140000Y-111760000D01*
X119380000Y-114300000D02*
X119380000Y-116840000D01*
X104140000Y-114300000D02*
X119380000Y-114300000D01*
X104140000Y-116840000D02*
X104140000Y-114300000D01*
X124460000Y-132080000D02*
X121920000Y-132080000D01*
X124460000Y-116840000D02*
X124460000Y-132080000D01*
X121920000Y-116840000D02*
X124460000Y-116840000D01*
X121920000Y-132080000D02*
X119380000Y-132080000D01*
X121920000Y-116840000D02*
X121920000Y-132080000D01*
X119380000Y-116840000D02*
X121920000Y-116840000D01*
X119380000Y-132080000D02*
X114300000Y-132080000D01*
X119380000Y-116840000D02*
X119380000Y-132080000D01*
X114300000Y-116840000D02*
X119380000Y-116840000D01*
X114300000Y-132080000D02*
X109220000Y-132080000D01*
X114300000Y-116840000D02*
X114300000Y-132080000D01*
X109220000Y-116840000D02*
X114300000Y-116840000D01*
X109220000Y-132080000D02*
X104140000Y-132080000D01*
X109220000Y-116840000D02*
X109220000Y-132080000D01*
X104140000Y-116840000D02*
X109220000Y-116840000D01*
X104140000Y-132080000D02*
X104140000Y-116840000D01*
D12*
X115769571Y-129217964D02*
X115515571Y-128855107D01*
X115334142Y-129217964D02*
X115334142Y-128455964D01*
X115624428Y-128455964D01*
X115697000Y-128492250D01*
X115733285Y-128528535D01*
X115769571Y-128601107D01*
X115769571Y-128709964D01*
X115733285Y-128782535D01*
X115697000Y-128818821D01*
X115624428Y-128855107D01*
X115334142Y-128855107D01*
X116096142Y-128818821D02*
X116350142Y-128818821D01*
X116459000Y-129217964D02*
X116096142Y-129217964D01*
X116096142Y-128455964D01*
X116459000Y-128455964D01*
X117148428Y-129217964D02*
X116785571Y-129217964D01*
X116785571Y-128455964D01*
X117366142Y-129000250D02*
X117729000Y-129000250D01*
X117293571Y-129217964D02*
X117547571Y-128455964D01*
X117801571Y-129217964D01*
X118200714Y-128855107D02*
X118200714Y-129217964D01*
X117946714Y-128455964D02*
X118200714Y-128855107D01*
X118454714Y-128455964D01*
X116985142Y-129789464D02*
X116840000Y-129789464D01*
X116767428Y-129825750D01*
X116731142Y-129862035D01*
X116658571Y-129970892D01*
X116622285Y-130116035D01*
X116622285Y-130406321D01*
X116658571Y-130478892D01*
X116694857Y-130515178D01*
X116767428Y-130551464D01*
X116912571Y-130551464D01*
X116985142Y-130515178D01*
X117021428Y-130478892D01*
X117057714Y-130406321D01*
X117057714Y-130224892D01*
X117021428Y-130152321D01*
X116985142Y-130116035D01*
X116912571Y-130079750D01*
X116767428Y-130079750D01*
X116694857Y-130116035D01*
X116658571Y-130152321D01*
X116622285Y-130224892D01*
X110689571Y-129217964D02*
X110435571Y-128855107D01*
X110254142Y-129217964D02*
X110254142Y-128455964D01*
X110544428Y-128455964D01*
X110617000Y-128492250D01*
X110653285Y-128528535D01*
X110689571Y-128601107D01*
X110689571Y-128709964D01*
X110653285Y-128782535D01*
X110617000Y-128818821D01*
X110544428Y-128855107D01*
X110254142Y-128855107D01*
X111016142Y-128818821D02*
X111270142Y-128818821D01*
X111379000Y-129217964D02*
X111016142Y-129217964D01*
X111016142Y-128455964D01*
X111379000Y-128455964D01*
X112068428Y-129217964D02*
X111705571Y-129217964D01*
X111705571Y-128455964D01*
X112286142Y-129000250D02*
X112649000Y-129000250D01*
X112213571Y-129217964D02*
X112467571Y-128455964D01*
X112721571Y-129217964D01*
X113120714Y-128855107D02*
X113120714Y-129217964D01*
X112866714Y-128455964D02*
X113120714Y-128855107D01*
X113374714Y-128455964D01*
X111506000Y-129789464D02*
X111977714Y-129789464D01*
X111723714Y-130079750D01*
X111832571Y-130079750D01*
X111905142Y-130116035D01*
X111941428Y-130152321D01*
X111977714Y-130224892D01*
X111977714Y-130406321D01*
X111941428Y-130478892D01*
X111905142Y-130515178D01*
X111832571Y-130551464D01*
X111614857Y-130551464D01*
X111542285Y-130515178D01*
X111506000Y-130478892D01*
X115769571Y-124137964D02*
X115515571Y-123775107D01*
X115334142Y-124137964D02*
X115334142Y-123375964D01*
X115624428Y-123375964D01*
X115697000Y-123412250D01*
X115733285Y-123448535D01*
X115769571Y-123521107D01*
X115769571Y-123629964D01*
X115733285Y-123702535D01*
X115697000Y-123738821D01*
X115624428Y-123775107D01*
X115334142Y-123775107D01*
X116096142Y-123738821D02*
X116350142Y-123738821D01*
X116459000Y-124137964D02*
X116096142Y-124137964D01*
X116096142Y-123375964D01*
X116459000Y-123375964D01*
X117148428Y-124137964D02*
X116785571Y-124137964D01*
X116785571Y-123375964D01*
X117366142Y-123920250D02*
X117729000Y-123920250D01*
X117293571Y-124137964D02*
X117547571Y-123375964D01*
X117801571Y-124137964D01*
X118200714Y-123775107D02*
X118200714Y-124137964D01*
X117946714Y-123375964D02*
X118200714Y-123775107D01*
X118454714Y-123375964D01*
X116586000Y-124709464D02*
X117094000Y-124709464D01*
X116767428Y-125471464D01*
X110689571Y-124137964D02*
X110435571Y-123775107D01*
X110254142Y-124137964D02*
X110254142Y-123375964D01*
X110544428Y-123375964D01*
X110617000Y-123412250D01*
X110653285Y-123448535D01*
X110689571Y-123521107D01*
X110689571Y-123629964D01*
X110653285Y-123702535D01*
X110617000Y-123738821D01*
X110544428Y-123775107D01*
X110254142Y-123775107D01*
X111016142Y-123738821D02*
X111270142Y-123738821D01*
X111379000Y-124137964D02*
X111016142Y-124137964D01*
X111016142Y-123375964D01*
X111379000Y-123375964D01*
X112068428Y-124137964D02*
X111705571Y-124137964D01*
X111705571Y-123375964D01*
X112286142Y-123920250D02*
X112649000Y-123920250D01*
X112213571Y-124137964D02*
X112467571Y-123375964D01*
X112721571Y-124137964D01*
X113120714Y-123775107D02*
X113120714Y-124137964D01*
X112866714Y-123375964D02*
X113120714Y-123775107D01*
X113374714Y-123375964D01*
X111905142Y-124963464D02*
X111905142Y-125471464D01*
X111723714Y-124673178D02*
X111542285Y-125217464D01*
X112014000Y-125217464D01*
X115769571Y-119057964D02*
X115515571Y-118695107D01*
X115334142Y-119057964D02*
X115334142Y-118295964D01*
X115624428Y-118295964D01*
X115697000Y-118332250D01*
X115733285Y-118368535D01*
X115769571Y-118441107D01*
X115769571Y-118549964D01*
X115733285Y-118622535D01*
X115697000Y-118658821D01*
X115624428Y-118695107D01*
X115334142Y-118695107D01*
X116096142Y-118658821D02*
X116350142Y-118658821D01*
X116459000Y-119057964D02*
X116096142Y-119057964D01*
X116096142Y-118295964D01*
X116459000Y-118295964D01*
X117148428Y-119057964D02*
X116785571Y-119057964D01*
X116785571Y-118295964D01*
X117366142Y-118840250D02*
X117729000Y-118840250D01*
X117293571Y-119057964D02*
X117547571Y-118295964D01*
X117801571Y-119057964D01*
X118200714Y-118695107D02*
X118200714Y-119057964D01*
X117946714Y-118295964D02*
X118200714Y-118695107D01*
X118454714Y-118295964D01*
X116767428Y-119956035D02*
X116694857Y-119919750D01*
X116658571Y-119883464D01*
X116622285Y-119810892D01*
X116622285Y-119774607D01*
X116658571Y-119702035D01*
X116694857Y-119665750D01*
X116767428Y-119629464D01*
X116912571Y-119629464D01*
X116985142Y-119665750D01*
X117021428Y-119702035D01*
X117057714Y-119774607D01*
X117057714Y-119810892D01*
X117021428Y-119883464D01*
X116985142Y-119919750D01*
X116912571Y-119956035D01*
X116767428Y-119956035D01*
X116694857Y-119992321D01*
X116658571Y-120028607D01*
X116622285Y-120101178D01*
X116622285Y-120246321D01*
X116658571Y-120318892D01*
X116694857Y-120355178D01*
X116767428Y-120391464D01*
X116912571Y-120391464D01*
X116985142Y-120355178D01*
X117021428Y-120318892D01*
X117057714Y-120246321D01*
X117057714Y-120101178D01*
X117021428Y-120028607D01*
X116985142Y-119992321D01*
X116912571Y-119956035D01*
X110689571Y-119057964D02*
X110435571Y-118695107D01*
X110254142Y-119057964D02*
X110254142Y-118295964D01*
X110544428Y-118295964D01*
X110617000Y-118332250D01*
X110653285Y-118368535D01*
X110689571Y-118441107D01*
X110689571Y-118549964D01*
X110653285Y-118622535D01*
X110617000Y-118658821D01*
X110544428Y-118695107D01*
X110254142Y-118695107D01*
X111016142Y-118658821D02*
X111270142Y-118658821D01*
X111379000Y-119057964D02*
X111016142Y-119057964D01*
X111016142Y-118295964D01*
X111379000Y-118295964D01*
X112068428Y-119057964D02*
X111705571Y-119057964D01*
X111705571Y-118295964D01*
X112286142Y-118840250D02*
X112649000Y-118840250D01*
X112213571Y-119057964D02*
X112467571Y-118295964D01*
X112721571Y-119057964D01*
X113120714Y-118695107D02*
X113120714Y-119057964D01*
X112866714Y-118295964D02*
X113120714Y-118695107D01*
X113374714Y-118295964D01*
X111941428Y-119629464D02*
X111578571Y-119629464D01*
X111542285Y-119992321D01*
X111578571Y-119956035D01*
X111651142Y-119919750D01*
X111832571Y-119919750D01*
X111905142Y-119956035D01*
X111941428Y-119992321D01*
X111977714Y-120064892D01*
X111977714Y-120246321D01*
X111941428Y-120318892D01*
X111905142Y-120355178D01*
X111832571Y-120391464D01*
X111651142Y-120391464D01*
X111578571Y-120355178D01*
X111542285Y-120318892D01*
X105609571Y-119057964D02*
X105355571Y-118695107D01*
X105174142Y-119057964D02*
X105174142Y-118295964D01*
X105464428Y-118295964D01*
X105537000Y-118332250D01*
X105573285Y-118368535D01*
X105609571Y-118441107D01*
X105609571Y-118549964D01*
X105573285Y-118622535D01*
X105537000Y-118658821D01*
X105464428Y-118695107D01*
X105174142Y-118695107D01*
X105936142Y-118658821D02*
X106190142Y-118658821D01*
X106299000Y-119057964D02*
X105936142Y-119057964D01*
X105936142Y-118295964D01*
X106299000Y-118295964D01*
X106988428Y-119057964D02*
X106625571Y-119057964D01*
X106625571Y-118295964D01*
X107206142Y-118840250D02*
X107569000Y-118840250D01*
X107133571Y-119057964D02*
X107387571Y-118295964D01*
X107641571Y-119057964D01*
X108040714Y-118695107D02*
X108040714Y-119057964D01*
X107786714Y-118295964D02*
X108040714Y-118695107D01*
X108294714Y-118295964D01*
X106462285Y-119702035D02*
X106498571Y-119665750D01*
X106571142Y-119629464D01*
X106752571Y-119629464D01*
X106825142Y-119665750D01*
X106861428Y-119702035D01*
X106897714Y-119774607D01*
X106897714Y-119847178D01*
X106861428Y-119956035D01*
X106426000Y-120391464D01*
X106897714Y-120391464D01*
X105609571Y-124137964D02*
X105355571Y-123775107D01*
X105174142Y-124137964D02*
X105174142Y-123375964D01*
X105464428Y-123375964D01*
X105537000Y-123412250D01*
X105573285Y-123448535D01*
X105609571Y-123521107D01*
X105609571Y-123629964D01*
X105573285Y-123702535D01*
X105537000Y-123738821D01*
X105464428Y-123775107D01*
X105174142Y-123775107D01*
X105936142Y-123738821D02*
X106190142Y-123738821D01*
X106299000Y-124137964D02*
X105936142Y-124137964D01*
X105936142Y-123375964D01*
X106299000Y-123375964D01*
X106988428Y-124137964D02*
X106625571Y-124137964D01*
X106625571Y-123375964D01*
X107206142Y-123920250D02*
X107569000Y-123920250D01*
X107133571Y-124137964D02*
X107387571Y-123375964D01*
X107641571Y-124137964D01*
X108040714Y-123775107D02*
X108040714Y-124137964D01*
X107786714Y-123375964D02*
X108040714Y-123775107D01*
X108294714Y-123375964D01*
X106897714Y-125471464D02*
X106462285Y-125471464D01*
X106680000Y-125471464D02*
X106680000Y-124709464D01*
X106607428Y-124818321D01*
X106534857Y-124890892D01*
X106462285Y-124927178D01*
X105609571Y-129217964D02*
X105355571Y-128855107D01*
X105174142Y-129217964D02*
X105174142Y-128455964D01*
X105464428Y-128455964D01*
X105537000Y-128492250D01*
X105573285Y-128528535D01*
X105609571Y-128601107D01*
X105609571Y-128709964D01*
X105573285Y-128782535D01*
X105537000Y-128818821D01*
X105464428Y-128855107D01*
X105174142Y-128855107D01*
X105936142Y-128818821D02*
X106190142Y-128818821D01*
X106299000Y-129217964D02*
X105936142Y-129217964D01*
X105936142Y-128455964D01*
X106299000Y-128455964D01*
X106988428Y-129217964D02*
X106625571Y-129217964D01*
X106625571Y-128455964D01*
X107206142Y-129000250D02*
X107569000Y-129000250D01*
X107133571Y-129217964D02*
X107387571Y-128455964D01*
X107641571Y-129217964D01*
X108040714Y-128855107D02*
X108040714Y-129217964D01*
X107786714Y-128455964D02*
X108040714Y-128855107D01*
X108294714Y-128455964D01*
X106643714Y-129789464D02*
X106716285Y-129789464D01*
X106788857Y-129825750D01*
X106825142Y-129862035D01*
X106861428Y-129934607D01*
X106897714Y-130079750D01*
X106897714Y-130261178D01*
X106861428Y-130406321D01*
X106825142Y-130478892D01*
X106788857Y-130515178D01*
X106716285Y-130551464D01*
X106643714Y-130551464D01*
X106571142Y-130515178D01*
X106534857Y-130478892D01*
X106498571Y-130406321D01*
X106462285Y-130261178D01*
X106462285Y-130079750D01*
X106498571Y-129934607D01*
X106534857Y-129862035D01*
X106571142Y-129825750D01*
X106643714Y-129789464D01*
D11*
X119380000Y-119380000D02*
G75*
G03*
X119380000Y-119380000I-2540000J0D01*
G01*
X119380000Y-124460000D02*
G75*
G03*
X119380000Y-124460000I-2540000J0D01*
G01*
X114300000Y-119380000D02*
G75*
G03*
X114300000Y-119380000I-2540000J0D01*
G01*
X114300000Y-124460000D02*
G75*
G03*
X114300000Y-124460000I-2540000J0D01*
G01*
X119380000Y-129540000D02*
G75*
G03*
X119380000Y-129540000I-2540000J0D01*
G01*
X114300000Y-129540000D02*
G75*
G03*
X114300000Y-129540000I-2540000J0D01*
G01*
X109220000Y-119380000D02*
G75*
G03*
X109220000Y-119380000I-2540000J0D01*
G01*
X109220000Y-124460000D02*
G75*
G03*
X109220000Y-124460000I-2540000J0D01*
G01*
X109220000Y-129540000D02*
G75*
G03*
X109220000Y-129540000I-2540000J0D01*
G01*
D13*
X64316428Y-138212285D02*
X65332428Y-137849428D01*
X64316428Y-137486571D02*
X65332428Y-137849428D01*
X65695285Y-137994571D01*
X65767857Y-138067142D01*
X65840428Y-138212285D01*
X65477571Y-137268857D02*
X65477571Y-136107714D01*
X65332428Y-135091714D02*
X64534142Y-135091714D01*
X64389000Y-135164285D01*
X64316428Y-135309428D01*
X64316428Y-135599714D01*
X64389000Y-135744857D01*
X65259857Y-135091714D02*
X65332428Y-135236857D01*
X65332428Y-135599714D01*
X65259857Y-135744857D01*
X65114714Y-135817428D01*
X64969571Y-135817428D01*
X64824428Y-135744857D01*
X64751857Y-135599714D01*
X64751857Y-135236857D01*
X64679285Y-135091714D01*
X65332428Y-134366000D02*
X64316428Y-134366000D01*
X64606714Y-134366000D02*
X64461571Y-134293428D01*
X64389000Y-134220857D01*
X64316428Y-134075714D01*
X64316428Y-133930571D01*
X65259857Y-132842000D02*
X65332428Y-132987142D01*
X65332428Y-133277428D01*
X65259857Y-133422571D01*
X65114714Y-133495142D01*
X64534142Y-133495142D01*
X64389000Y-133422571D01*
X64316428Y-133277428D01*
X64316428Y-132987142D01*
X64389000Y-132842000D01*
X64534142Y-132769428D01*
X64679285Y-132769428D01*
X64824428Y-133495142D01*
X64316428Y-132116285D02*
X65332428Y-132116285D01*
X64461571Y-132116285D02*
X64389000Y-132043714D01*
X64316428Y-131898571D01*
X64316428Y-131680857D01*
X64389000Y-131535714D01*
X64534142Y-131463142D01*
X65332428Y-131463142D01*
X65332428Y-130084285D02*
X64534142Y-130084285D01*
X64389000Y-130156857D01*
X64316428Y-130302000D01*
X64316428Y-130592285D01*
X64389000Y-130737428D01*
X65259857Y-130084285D02*
X65332428Y-130229428D01*
X65332428Y-130592285D01*
X65259857Y-130737428D01*
X65114714Y-130810000D01*
X64969571Y-130810000D01*
X64824428Y-130737428D01*
X64751857Y-130592285D01*
X64751857Y-130229428D01*
X64679285Y-130084285D01*
X65477571Y-129721428D02*
X65477571Y-128560285D01*
X64316428Y-128342571D02*
X65332428Y-127979714D01*
X64316428Y-127616857D01*
X65332428Y-126383142D02*
X64534142Y-126383142D01*
X64389000Y-126455714D01*
X64316428Y-126600857D01*
X64316428Y-126891142D01*
X64389000Y-127036285D01*
X65259857Y-126383142D02*
X65332428Y-126528285D01*
X65332428Y-126891142D01*
X65259857Y-127036285D01*
X65114714Y-127108857D01*
X64969571Y-127108857D01*
X64824428Y-127036285D01*
X64751857Y-126891142D01*
X64751857Y-126528285D01*
X64679285Y-126383142D01*
X65332428Y-125439714D02*
X65259857Y-125584857D01*
X65114714Y-125657428D01*
X63808428Y-125657428D01*
X64316428Y-125004285D02*
X65332428Y-124641428D01*
X64316428Y-124278571D01*
X65259857Y-123117428D02*
X65332428Y-123262571D01*
X65332428Y-123552857D01*
X65259857Y-123698000D01*
X65114714Y-123770571D01*
X64534142Y-123770571D01*
X64389000Y-123698000D01*
X64316428Y-123552857D01*
X64316428Y-123262571D01*
X64389000Y-123117428D01*
X64534142Y-123044857D01*
X64679285Y-123044857D01*
X64824428Y-123770571D01*
X65477571Y-122754571D02*
X65477571Y-121593428D01*
X65259857Y-120577428D02*
X65332428Y-120722571D01*
X65332428Y-121012857D01*
X65259857Y-121158000D01*
X65187285Y-121230571D01*
X65042142Y-121303142D01*
X64606714Y-121303142D01*
X64461571Y-121230571D01*
X64389000Y-121158000D01*
X64316428Y-121012857D01*
X64316428Y-120722571D01*
X64389000Y-120577428D01*
X65332428Y-119706571D02*
X65259857Y-119851714D01*
X65187285Y-119924285D01*
X65042142Y-119996857D01*
X64606714Y-119996857D01*
X64461571Y-119924285D01*
X64389000Y-119851714D01*
X64316428Y-119706571D01*
X64316428Y-119488857D01*
X64389000Y-119343714D01*
X64461571Y-119271142D01*
X64606714Y-119198571D01*
X65042142Y-119198571D01*
X65187285Y-119271142D01*
X65259857Y-119343714D01*
X65332428Y-119488857D01*
X65332428Y-119706571D01*
X64316428Y-118545428D02*
X65332428Y-118545428D01*
X64461571Y-118545428D02*
X64389000Y-118472857D01*
X64316428Y-118327714D01*
X64316428Y-118110000D01*
X64389000Y-117964857D01*
X64534142Y-117892285D01*
X65332428Y-117892285D01*
X64316428Y-117384285D02*
X64316428Y-116803714D01*
X63808428Y-117166571D02*
X65114714Y-117166571D01*
X65259857Y-117094000D01*
X65332428Y-116948857D01*
X65332428Y-116803714D01*
X65332428Y-116295714D02*
X64316428Y-116295714D01*
X64606714Y-116295714D02*
X64461571Y-116223142D01*
X64389000Y-116150571D01*
X64316428Y-116005428D01*
X64316428Y-115860285D01*
X65332428Y-115134571D02*
X65259857Y-115279714D01*
X65187285Y-115352285D01*
X65042142Y-115424857D01*
X64606714Y-115424857D01*
X64461571Y-115352285D01*
X64389000Y-115279714D01*
X64316428Y-115134571D01*
X64316428Y-114916857D01*
X64389000Y-114771714D01*
X64461571Y-114699142D01*
X64606714Y-114626571D01*
X65042142Y-114626571D01*
X65187285Y-114699142D01*
X65259857Y-114771714D01*
X65332428Y-114916857D01*
X65332428Y-115134571D01*
X65332428Y-113755714D02*
X65259857Y-113900857D01*
X65114714Y-113973428D01*
X63808428Y-113973428D01*
X65332428Y-112957428D02*
X65259857Y-113102571D01*
X65114714Y-113175142D01*
X63808428Y-113175142D01*
X65259857Y-111796285D02*
X65332428Y-111941428D01*
X65332428Y-112231714D01*
X65259857Y-112376857D01*
X65114714Y-112449428D01*
X64534142Y-112449428D01*
X64389000Y-112376857D01*
X64316428Y-112231714D01*
X64316428Y-111941428D01*
X64389000Y-111796285D01*
X64534142Y-111723714D01*
X64679285Y-111723714D01*
X64824428Y-112449428D01*
X65332428Y-111070571D02*
X64316428Y-111070571D01*
X64606714Y-111070571D02*
X64461571Y-110998000D01*
X64389000Y-110925428D01*
X64316428Y-110780285D01*
X64316428Y-110635142D01*
X66475428Y-138538857D02*
X67564000Y-138538857D01*
X67781714Y-138611428D01*
X67926857Y-138756571D01*
X67999428Y-138974285D01*
X67999428Y-139119428D01*
X67999428Y-137160000D02*
X67201142Y-137160000D01*
X67056000Y-137232571D01*
X66983428Y-137377714D01*
X66983428Y-137668000D01*
X67056000Y-137813142D01*
X67926857Y-137160000D02*
X67999428Y-137305142D01*
X67999428Y-137668000D01*
X67926857Y-137813142D01*
X67781714Y-137885714D01*
X67636571Y-137885714D01*
X67491428Y-137813142D01*
X67418857Y-137668000D01*
X67418857Y-137305142D01*
X67346285Y-137160000D01*
X66983428Y-136434285D02*
X67999428Y-136434285D01*
X67128571Y-136434285D02*
X67056000Y-136361714D01*
X66983428Y-136216571D01*
X66983428Y-135998857D01*
X67056000Y-135853714D01*
X67201142Y-135781142D01*
X67999428Y-135781142D01*
X67926857Y-134474857D02*
X67999428Y-134620000D01*
X67999428Y-134910285D01*
X67926857Y-135055428D01*
X67781714Y-135128000D01*
X67201142Y-135128000D01*
X67056000Y-135055428D01*
X66983428Y-134910285D01*
X66983428Y-134620000D01*
X67056000Y-134474857D01*
X67201142Y-134402285D01*
X67346285Y-134402285D01*
X67491428Y-135128000D01*
X67999428Y-133531428D02*
X67926857Y-133676571D01*
X67781714Y-133749142D01*
X66475428Y-133749142D01*
X67999428Y-132950857D02*
X66983428Y-132950857D01*
X66475428Y-132950857D02*
X66548000Y-133023428D01*
X66620571Y-132950857D01*
X66548000Y-132878285D01*
X66475428Y-132950857D01*
X66620571Y-132950857D01*
X67999428Y-131572000D02*
X67201142Y-131572000D01*
X67056000Y-131644571D01*
X66983428Y-131789714D01*
X66983428Y-132080000D01*
X67056000Y-132225142D01*
X67926857Y-131572000D02*
X67999428Y-131717142D01*
X67999428Y-132080000D01*
X67926857Y-132225142D01*
X67781714Y-132297714D01*
X67636571Y-132297714D01*
X67491428Y-132225142D01*
X67418857Y-132080000D01*
X67418857Y-131717142D01*
X67346285Y-131572000D01*
X67999428Y-128814285D02*
X67273714Y-129322285D01*
X67999428Y-129685142D02*
X66475428Y-129685142D01*
X66475428Y-129104571D01*
X66548000Y-128959428D01*
X66620571Y-128886857D01*
X66765714Y-128814285D01*
X66983428Y-128814285D01*
X67128571Y-128886857D01*
X67201142Y-128959428D01*
X67273714Y-129104571D01*
X67273714Y-129685142D01*
X67926857Y-127580571D02*
X67999428Y-127725714D01*
X67999428Y-128016000D01*
X67926857Y-128161142D01*
X67781714Y-128233714D01*
X67201142Y-128233714D01*
X67056000Y-128161142D01*
X66983428Y-128016000D01*
X66983428Y-127725714D01*
X67056000Y-127580571D01*
X67201142Y-127508000D01*
X67346285Y-127508000D01*
X67491428Y-128233714D01*
X67926857Y-126927428D02*
X67999428Y-126782285D01*
X67999428Y-126492000D01*
X67926857Y-126346857D01*
X67781714Y-126274285D01*
X67709142Y-126274285D01*
X67564000Y-126346857D01*
X67491428Y-126492000D01*
X67491428Y-126709714D01*
X67418857Y-126854857D01*
X67273714Y-126927428D01*
X67201142Y-126927428D01*
X67056000Y-126854857D01*
X66983428Y-126709714D01*
X66983428Y-126492000D01*
X67056000Y-126346857D01*
X67926857Y-125040571D02*
X67999428Y-125185714D01*
X67999428Y-125476000D01*
X67926857Y-125621142D01*
X67781714Y-125693714D01*
X67201142Y-125693714D01*
X67056000Y-125621142D01*
X66983428Y-125476000D01*
X66983428Y-125185714D01*
X67056000Y-125040571D01*
X67201142Y-124968000D01*
X67346285Y-124968000D01*
X67491428Y-125693714D01*
X67999428Y-123661714D02*
X67201142Y-123661714D01*
X67056000Y-123734285D01*
X66983428Y-123879428D01*
X66983428Y-124169714D01*
X67056000Y-124314857D01*
X67926857Y-123661714D02*
X67999428Y-123806857D01*
X67999428Y-124169714D01*
X67926857Y-124314857D01*
X67781714Y-124387428D01*
X67636571Y-124387428D01*
X67491428Y-124314857D01*
X67418857Y-124169714D01*
X67418857Y-123806857D01*
X67346285Y-123661714D01*
X67999428Y-122936000D02*
X66983428Y-122936000D01*
X67273714Y-122936000D02*
X67128571Y-122863428D01*
X67056000Y-122790857D01*
X66983428Y-122645714D01*
X66983428Y-122500571D01*
X67926857Y-121339428D02*
X67999428Y-121484571D01*
X67999428Y-121774857D01*
X67926857Y-121920000D01*
X67854285Y-121992571D01*
X67709142Y-122065142D01*
X67273714Y-122065142D01*
X67128571Y-121992571D01*
X67056000Y-121920000D01*
X66983428Y-121774857D01*
X66983428Y-121484571D01*
X67056000Y-121339428D01*
X67999428Y-120686285D02*
X66475428Y-120686285D01*
X67999428Y-120033142D02*
X67201142Y-120033142D01*
X67056000Y-120105714D01*
X66983428Y-120250857D01*
X66983428Y-120468571D01*
X67056000Y-120613714D01*
X67128571Y-120686285D01*
X67854285Y-117275428D02*
X67926857Y-117348000D01*
X67999428Y-117565714D01*
X67999428Y-117710857D01*
X67926857Y-117928571D01*
X67781714Y-118073714D01*
X67636571Y-118146285D01*
X67346285Y-118218857D01*
X67128571Y-118218857D01*
X66838285Y-118146285D01*
X66693142Y-118073714D01*
X66548000Y-117928571D01*
X66475428Y-117710857D01*
X66475428Y-117565714D01*
X66548000Y-117348000D01*
X66620571Y-117275428D01*
X67999428Y-115969142D02*
X67201142Y-115969142D01*
X67056000Y-116041714D01*
X66983428Y-116186857D01*
X66983428Y-116477142D01*
X67056000Y-116622285D01*
X67926857Y-115969142D02*
X67999428Y-116114285D01*
X67999428Y-116477142D01*
X67926857Y-116622285D01*
X67781714Y-116694857D01*
X67636571Y-116694857D01*
X67491428Y-116622285D01*
X67418857Y-116477142D01*
X67418857Y-116114285D01*
X67346285Y-115969142D01*
X67999428Y-115243428D02*
X66983428Y-115243428D01*
X67128571Y-115243428D02*
X67056000Y-115170857D01*
X66983428Y-115025714D01*
X66983428Y-114808000D01*
X67056000Y-114662857D01*
X67201142Y-114590285D01*
X67999428Y-114590285D01*
X67201142Y-114590285D02*
X67056000Y-114517714D01*
X66983428Y-114372571D01*
X66983428Y-114154857D01*
X67056000Y-114009714D01*
X67201142Y-113937142D01*
X67999428Y-113937142D01*
X66983428Y-113211428D02*
X68507428Y-113211428D01*
X67056000Y-113211428D02*
X66983428Y-113066285D01*
X66983428Y-112776000D01*
X67056000Y-112630857D01*
X67128571Y-112558285D01*
X67273714Y-112485714D01*
X67709142Y-112485714D01*
X67854285Y-112558285D01*
X67926857Y-112630857D01*
X67999428Y-112776000D01*
X67999428Y-113066285D01*
X67926857Y-113211428D01*
X66983428Y-111179428D02*
X67999428Y-111179428D01*
X66983428Y-111832571D02*
X67781714Y-111832571D01*
X67926857Y-111760000D01*
X67999428Y-111614857D01*
X67999428Y-111397142D01*
X67926857Y-111252000D01*
X67854285Y-111179428D01*
X67926857Y-110526285D02*
X67999428Y-110381142D01*
X67999428Y-110090857D01*
X67926857Y-109945714D01*
X67781714Y-109873142D01*
X67709142Y-109873142D01*
X67564000Y-109945714D01*
X67491428Y-110090857D01*
X67491428Y-110308571D01*
X67418857Y-110453714D01*
X67273714Y-110526285D01*
X67201142Y-110526285D01*
X67056000Y-110453714D01*
X66983428Y-110308571D01*
X66983428Y-110090857D01*
X67056000Y-109945714D01*
X69142428Y-135890000D02*
X69142428Y-135744857D01*
X69215000Y-135599714D01*
X69287571Y-135527142D01*
X69432714Y-135454571D01*
X69723000Y-135382000D01*
X70085857Y-135382000D01*
X70376142Y-135454571D01*
X70521285Y-135527142D01*
X70593857Y-135599714D01*
X70666428Y-135744857D01*
X70666428Y-135890000D01*
X70593857Y-136035142D01*
X70521285Y-136107714D01*
X70376142Y-136180285D01*
X70085857Y-136252857D01*
X69723000Y-136252857D01*
X69432714Y-136180285D01*
X69287571Y-136107714D01*
X69215000Y-136035142D01*
X69142428Y-135890000D01*
X69142428Y-134874000D02*
X69142428Y-133858000D01*
X70666428Y-134511142D01*
X69069857Y-132188857D02*
X71029285Y-133495142D01*
X69287571Y-131753428D02*
X69215000Y-131680857D01*
X69142428Y-131535714D01*
X69142428Y-131172857D01*
X69215000Y-131027714D01*
X69287571Y-130955142D01*
X69432714Y-130882571D01*
X69577857Y-130882571D01*
X69795571Y-130955142D01*
X70666428Y-131826000D01*
X70666428Y-130882571D01*
X69287571Y-130302000D02*
X69215000Y-130229428D01*
X69142428Y-130084285D01*
X69142428Y-129721428D01*
X69215000Y-129576285D01*
X69287571Y-129503714D01*
X69432714Y-129431142D01*
X69577857Y-129431142D01*
X69795571Y-129503714D01*
X70666428Y-130374571D01*
X70666428Y-129431142D01*
X69069857Y-127689428D02*
X71029285Y-128995714D01*
X69287571Y-127254000D02*
X69215000Y-127181428D01*
X69142428Y-127036285D01*
X69142428Y-126673428D01*
X69215000Y-126528285D01*
X69287571Y-126455714D01*
X69432714Y-126383142D01*
X69577857Y-126383142D01*
X69795571Y-126455714D01*
X70666428Y-127326571D01*
X70666428Y-126383142D01*
X69142428Y-125439714D02*
X69142428Y-125294571D01*
X69215000Y-125149428D01*
X69287571Y-125076857D01*
X69432714Y-125004285D01*
X69723000Y-124931714D01*
X70085857Y-124931714D01*
X70376142Y-125004285D01*
X70521285Y-125076857D01*
X70593857Y-125149428D01*
X70666428Y-125294571D01*
X70666428Y-125439714D01*
X70593857Y-125584857D01*
X70521285Y-125657428D01*
X70376142Y-125730000D01*
X70085857Y-125802571D01*
X69723000Y-125802571D01*
X69432714Y-125730000D01*
X69287571Y-125657428D01*
X69215000Y-125584857D01*
X69142428Y-125439714D01*
X69287571Y-124351142D02*
X69215000Y-124278571D01*
X69142428Y-124133428D01*
X69142428Y-123770571D01*
X69215000Y-123625428D01*
X69287571Y-123552857D01*
X69432714Y-123480285D01*
X69577857Y-123480285D01*
X69795571Y-123552857D01*
X70666428Y-124423714D01*
X70666428Y-123480285D01*
X69142428Y-122536857D02*
X69142428Y-122391714D01*
X69215000Y-122246571D01*
X69287571Y-122174000D01*
X69432714Y-122101428D01*
X69723000Y-122028857D01*
X70085857Y-122028857D01*
X70376142Y-122101428D01*
X70521285Y-122174000D01*
X70593857Y-122246571D01*
X70666428Y-122391714D01*
X70666428Y-122536857D01*
X70593857Y-122682000D01*
X70521285Y-122754571D01*
X70376142Y-122827142D01*
X70085857Y-122899714D01*
X69723000Y-122899714D01*
X69432714Y-122827142D01*
X69287571Y-122754571D01*
X69215000Y-122682000D01*
X69142428Y-122536857D01*
X69650428Y-120359714D02*
X70666428Y-119996857D01*
X69650428Y-119634000D01*
X70593857Y-118472857D02*
X70666428Y-118618000D01*
X70666428Y-118908285D01*
X70593857Y-119053428D01*
X70448714Y-119126000D01*
X69868142Y-119126000D01*
X69723000Y-119053428D01*
X69650428Y-118908285D01*
X69650428Y-118618000D01*
X69723000Y-118472857D01*
X69868142Y-118400285D01*
X70013285Y-118400285D01*
X70158428Y-119126000D01*
X70666428Y-117747142D02*
X69650428Y-117747142D01*
X69940714Y-117747142D02*
X69795571Y-117674571D01*
X69723000Y-117602000D01*
X69650428Y-117456857D01*
X69650428Y-117311714D01*
X70666428Y-114844285D02*
X70666428Y-115715142D01*
X70666428Y-115279714D02*
X69142428Y-115279714D01*
X69360142Y-115424857D01*
X69505285Y-115570000D01*
X69577857Y-115715142D01*
X70521285Y-114191142D02*
X70593857Y-114118571D01*
X70666428Y-114191142D01*
X70593857Y-114263714D01*
X70521285Y-114191142D01*
X70666428Y-114191142D01*
X70666428Y-112667142D02*
X70666428Y-113538000D01*
X70666428Y-113102571D02*
X69142428Y-113102571D01*
X69360142Y-113247714D01*
X69505285Y-113392857D01*
X69577857Y-113538000D01*
X105264857Y-133168571D02*
X105337428Y-133096000D01*
X105482571Y-133023428D01*
X105845428Y-133023428D01*
X105990571Y-133096000D01*
X106063142Y-133168571D01*
X106135714Y-133313714D01*
X106135714Y-133458857D01*
X106063142Y-133676571D01*
X105192285Y-134547428D01*
X106135714Y-134547428D01*
X106788857Y-134402285D02*
X106861428Y-134474857D01*
X106788857Y-134547428D01*
X106716285Y-134474857D01*
X106788857Y-134402285D01*
X106788857Y-134547428D01*
X108312857Y-134547428D02*
X107442000Y-134547428D01*
X107877428Y-134547428D02*
X107877428Y-133023428D01*
X107732285Y-133241142D01*
X107587142Y-133386285D01*
X107442000Y-133458857D01*
X108820857Y-134547428D02*
X109619142Y-133531428D01*
X108820857Y-133531428D02*
X109619142Y-134547428D01*
X110925428Y-133023428D02*
X110199714Y-133023428D01*
X110127142Y-133749142D01*
X110199714Y-133676571D01*
X110344857Y-133604000D01*
X110707714Y-133604000D01*
X110852857Y-133676571D01*
X110925428Y-133749142D01*
X110998000Y-133894285D01*
X110998000Y-134257142D01*
X110925428Y-134402285D01*
X110852857Y-134474857D01*
X110707714Y-134547428D01*
X110344857Y-134547428D01*
X110199714Y-134474857D01*
X110127142Y-134402285D01*
X111651142Y-134402285D02*
X111723714Y-134474857D01*
X111651142Y-134547428D01*
X111578571Y-134474857D01*
X111651142Y-134402285D01*
X111651142Y-134547428D01*
X113102571Y-133023428D02*
X112376857Y-133023428D01*
X112304285Y-133749142D01*
X112376857Y-133676571D01*
X112522000Y-133604000D01*
X112884857Y-133604000D01*
X113030000Y-133676571D01*
X113102571Y-133749142D01*
X113175142Y-133894285D01*
X113175142Y-134257142D01*
X113102571Y-134402285D01*
X113030000Y-134474857D01*
X112884857Y-134547428D01*
X112522000Y-134547428D01*
X112376857Y-134474857D01*
X112304285Y-134402285D01*
X105264857Y-137069285D02*
X105192285Y-137141857D01*
X104974571Y-137214428D01*
X104829428Y-137214428D01*
X104611714Y-137141857D01*
X104466571Y-136996714D01*
X104394000Y-136851571D01*
X104321428Y-136561285D01*
X104321428Y-136343571D01*
X104394000Y-136053285D01*
X104466571Y-135908142D01*
X104611714Y-135763000D01*
X104829428Y-135690428D01*
X104974571Y-135690428D01*
X105192285Y-135763000D01*
X105264857Y-135835571D01*
X106498571Y-137141857D02*
X106353428Y-137214428D01*
X106063142Y-137214428D01*
X105918000Y-137141857D01*
X105845428Y-136996714D01*
X105845428Y-136416142D01*
X105918000Y-136271000D01*
X106063142Y-136198428D01*
X106353428Y-136198428D01*
X106498571Y-136271000D01*
X106571142Y-136416142D01*
X106571142Y-136561285D01*
X105845428Y-136706428D01*
X107224285Y-136198428D02*
X107224285Y-137214428D01*
X107224285Y-136343571D02*
X107296857Y-136271000D01*
X107442000Y-136198428D01*
X107659714Y-136198428D01*
X107804857Y-136271000D01*
X107877428Y-136416142D01*
X107877428Y-137214428D01*
X108385428Y-136198428D02*
X108966000Y-136198428D01*
X108603142Y-135690428D02*
X108603142Y-136996714D01*
X108675714Y-137141857D01*
X108820857Y-137214428D01*
X108966000Y-137214428D01*
X110054571Y-137141857D02*
X109909428Y-137214428D01*
X109619142Y-137214428D01*
X109474000Y-137141857D01*
X109401428Y-136996714D01*
X109401428Y-136416142D01*
X109474000Y-136271000D01*
X109619142Y-136198428D01*
X109909428Y-136198428D01*
X110054571Y-136271000D01*
X110127142Y-136416142D01*
X110127142Y-136561285D01*
X109401428Y-136706428D01*
X110780285Y-137214428D02*
X110780285Y-136198428D01*
X110780285Y-136488714D02*
X110852857Y-136343571D01*
X110925428Y-136271000D01*
X111070571Y-136198428D01*
X111215714Y-136198428D01*
X112884857Y-136633857D02*
X114046000Y-136633857D01*
X113465428Y-137214428D02*
X113465428Y-136053285D01*
X105010857Y-139300857D02*
X106172000Y-139300857D01*
X105591428Y-139881428D02*
X105591428Y-138720285D01*
X107696000Y-139881428D02*
X106825142Y-139881428D01*
X107260571Y-139881428D02*
X107260571Y-138357428D01*
X107115428Y-138575142D01*
X106970285Y-138720285D01*
X106825142Y-138792857D01*
X108276571Y-138502571D02*
X108349142Y-138430000D01*
X108494285Y-138357428D01*
X108857142Y-138357428D01*
X109002285Y-138430000D01*
X109074857Y-138502571D01*
X109147428Y-138647714D01*
X109147428Y-138792857D01*
X109074857Y-139010571D01*
X108204000Y-139881428D01*
X109147428Y-139881428D01*
X109582857Y-138357428D02*
X110090857Y-139881428D01*
X110598857Y-138357428D01*
X111106857Y-139881428D02*
X111106857Y-138357428D01*
X111469714Y-138357428D01*
X111687428Y-138430000D01*
X111832571Y-138575142D01*
X111905142Y-138720285D01*
X111977714Y-139010571D01*
X111977714Y-139228285D01*
X111905142Y-139518571D01*
X111832571Y-139663714D01*
X111687428Y-139808857D01*
X111469714Y-139881428D01*
X111106857Y-139881428D01*
X113501714Y-139736285D02*
X113429142Y-139808857D01*
X113211428Y-139881428D01*
X113066285Y-139881428D01*
X112848571Y-139808857D01*
X112703428Y-139663714D01*
X112630857Y-139518571D01*
X112558285Y-139228285D01*
X112558285Y-139010571D01*
X112630857Y-138720285D01*
X112703428Y-138575142D01*
X112848571Y-138430000D01*
X113066285Y-138357428D01*
X113211428Y-138357428D01*
X113429142Y-138430000D01*
X113501714Y-138502571D01*
D11*
%TO.C,S7*%
X116433600Y-80568800D02*
X116433600Y-73101200D01*
X121513600Y-80568800D02*
X121513600Y-73101200D01*
X124053600Y-73101200D02*
X114401600Y-73101200D01*
X124053600Y-80568800D02*
X114401600Y-80568800D01*
X124053600Y-80568800D02*
X124053600Y-73101200D01*
D14*
X109855000Y-78105000D02*
G75*
G03*
X109855000Y-78105000I-1270000J0D01*
G01*
X109855000Y-75565000D02*
G75*
G03*
X109855000Y-75565000I-1270000J0D01*
G01*
D11*
X114350800Y-76835000D02*
G75*
G03*
X114350800Y-76835000I-3733800J0D01*
G01*
X110617000Y-80568800D02*
X114401600Y-80568800D01*
X114401600Y-80568800D02*
X114401600Y-73101200D01*
X114401600Y-73101200D02*
X110617000Y-73101200D01*
%TO.C,S1*%
X60553600Y-80568800D02*
X60553600Y-73101200D01*
X65633600Y-80568800D02*
X65633600Y-73101200D01*
X68173600Y-73101200D02*
X58521600Y-73101200D01*
X68173600Y-80568800D02*
X58521600Y-80568800D01*
X68173600Y-80568800D02*
X68173600Y-73101200D01*
D14*
X53975000Y-78105000D02*
G75*
G03*
X53975000Y-78105000I-1270000J0D01*
G01*
X53975000Y-75565000D02*
G75*
G03*
X53975000Y-75565000I-1270000J0D01*
G01*
D11*
X58470800Y-76835000D02*
G75*
G03*
X58470800Y-76835000I-3733800J0D01*
G01*
X54737000Y-80568800D02*
X58521600Y-80568800D01*
X58521600Y-80568800D02*
X58521600Y-73101200D01*
X58521600Y-73101200D02*
X54737000Y-73101200D01*
%TO.C,S2*%
X60553600Y-72948800D02*
X60553600Y-65481200D01*
X65633600Y-72948800D02*
X65633600Y-65481200D01*
X68173600Y-65481200D02*
X58521600Y-65481200D01*
X68173600Y-72948800D02*
X58521600Y-72948800D01*
X68173600Y-72948800D02*
X68173600Y-65481200D01*
D14*
X53975000Y-70485000D02*
G75*
G03*
X53975000Y-70485000I-1270000J0D01*
G01*
X53975000Y-67945000D02*
G75*
G03*
X53975000Y-67945000I-1270000J0D01*
G01*
D11*
X58470800Y-69215000D02*
G75*
G03*
X58470800Y-69215000I-3733800J0D01*
G01*
X54737000Y-72948800D02*
X58521600Y-72948800D01*
X58521600Y-72948800D02*
X58521600Y-65481200D01*
X58521600Y-65481200D02*
X54737000Y-65481200D01*
%TO.C,S3*%
X60553600Y-65328800D02*
X60553600Y-57861200D01*
X65633600Y-65328800D02*
X65633600Y-57861200D01*
X68173600Y-57861200D02*
X58521600Y-57861200D01*
X68173600Y-65328800D02*
X58521600Y-65328800D01*
X68173600Y-65328800D02*
X68173600Y-57861200D01*
D14*
X53975000Y-62865000D02*
G75*
G03*
X53975000Y-62865000I-1270000J0D01*
G01*
X53975000Y-60325000D02*
G75*
G03*
X53975000Y-60325000I-1270000J0D01*
G01*
D11*
X58470800Y-61595000D02*
G75*
G03*
X58470800Y-61595000I-3733800J0D01*
G01*
X54737000Y-65328800D02*
X58521600Y-65328800D01*
X58521600Y-65328800D02*
X58521600Y-57861200D01*
X58521600Y-57861200D02*
X54737000Y-57861200D01*
%TO.C,S4*%
X88493600Y-80568800D02*
X88493600Y-73101200D01*
X93573600Y-80568800D02*
X93573600Y-73101200D01*
X96113600Y-73101200D02*
X86461600Y-73101200D01*
X96113600Y-80568800D02*
X86461600Y-80568800D01*
X96113600Y-80568800D02*
X96113600Y-73101200D01*
D14*
X81915000Y-78105000D02*
G75*
G03*
X81915000Y-78105000I-1270000J0D01*
G01*
X81915000Y-75565000D02*
G75*
G03*
X81915000Y-75565000I-1270000J0D01*
G01*
D11*
X86410800Y-76835000D02*
G75*
G03*
X86410800Y-76835000I-3733800J0D01*
G01*
X82677000Y-80568800D02*
X86461600Y-80568800D01*
X86461600Y-80568800D02*
X86461600Y-73101200D01*
X86461600Y-73101200D02*
X82677000Y-73101200D01*
%TO.C,S5*%
X88493600Y-72948800D02*
X88493600Y-65481200D01*
X93573600Y-72948800D02*
X93573600Y-65481200D01*
X96113600Y-65481200D02*
X86461600Y-65481200D01*
X96113600Y-72948800D02*
X86461600Y-72948800D01*
X96113600Y-72948800D02*
X96113600Y-65481200D01*
D14*
X81915000Y-70485000D02*
G75*
G03*
X81915000Y-70485000I-1270000J0D01*
G01*
X81915000Y-67945000D02*
G75*
G03*
X81915000Y-67945000I-1270000J0D01*
G01*
D11*
X86410800Y-69215000D02*
G75*
G03*
X86410800Y-69215000I-3733800J0D01*
G01*
X82677000Y-72948800D02*
X86461600Y-72948800D01*
X86461600Y-72948800D02*
X86461600Y-65481200D01*
X86461600Y-65481200D02*
X82677000Y-65481200D01*
%TO.C,S6*%
X88493600Y-65328800D02*
X88493600Y-57861200D01*
X93573600Y-65328800D02*
X93573600Y-57861200D01*
X96113600Y-57861200D02*
X86461600Y-57861200D01*
X96113600Y-65328800D02*
X86461600Y-65328800D01*
X96113600Y-65328800D02*
X96113600Y-57861200D01*
D14*
X81915000Y-62865000D02*
G75*
G03*
X81915000Y-62865000I-1270000J0D01*
G01*
X81915000Y-60325000D02*
G75*
G03*
X81915000Y-60325000I-1270000J0D01*
G01*
D11*
X86410800Y-61595000D02*
G75*
G03*
X86410800Y-61595000I-3733800J0D01*
G01*
X82677000Y-65328800D02*
X86461600Y-65328800D01*
X86461600Y-65328800D02*
X86461600Y-57861200D01*
X86461600Y-57861200D02*
X82677000Y-57861200D01*
%TO.C,S8*%
X116433600Y-72948800D02*
X116433600Y-65481200D01*
X121513600Y-72948800D02*
X121513600Y-65481200D01*
X124053600Y-65481200D02*
X114401600Y-65481200D01*
X124053600Y-72948800D02*
X114401600Y-72948800D01*
X124053600Y-72948800D02*
X124053600Y-65481200D01*
D14*
X109855000Y-70485000D02*
G75*
G03*
X109855000Y-70485000I-1270000J0D01*
G01*
X109855000Y-67945000D02*
G75*
G03*
X109855000Y-67945000I-1270000J0D01*
G01*
D11*
X114350800Y-69215000D02*
G75*
G03*
X114350800Y-69215000I-3733800J0D01*
G01*
X110617000Y-72948800D02*
X114401600Y-72948800D01*
X114401600Y-72948800D02*
X114401600Y-65481200D01*
X114401600Y-65481200D02*
X110617000Y-65481200D01*
%TO.C,S9*%
X116433600Y-65328800D02*
X116433600Y-57861200D01*
X121513600Y-65328800D02*
X121513600Y-57861200D01*
X124053600Y-57861200D02*
X114401600Y-57861200D01*
X124053600Y-65328800D02*
X114401600Y-65328800D01*
X124053600Y-65328800D02*
X124053600Y-57861200D01*
D14*
X109855000Y-62865000D02*
G75*
G03*
X109855000Y-62865000I-1270000J0D01*
G01*
X109855000Y-60325000D02*
G75*
G03*
X109855000Y-60325000I-1270000J0D01*
G01*
D11*
X114350800Y-61595000D02*
G75*
G03*
X114350800Y-61595000I-3733800J0D01*
G01*
X110617000Y-65328800D02*
X114401600Y-65328800D01*
X114401600Y-65328800D02*
X114401600Y-57861200D01*
X114401600Y-57861200D02*
X110617000Y-57861200D01*
%TO.C,PHIDGET1*%
X80010000Y-114300000D02*
X80010000Y-121920000D01*
X80010000Y-114300000D02*
X78105000Y-114300000D01*
X78105000Y-121920000D02*
X80010000Y-121920000D01*
X73025000Y-139700000D02*
X78105000Y-139700000D01*
X78105000Y-137160000D02*
X79375000Y-135890000D01*
X78105000Y-139700000D02*
X78105000Y-96520000D01*
X73025000Y-96520000D02*
X73025000Y-139700000D01*
X78105000Y-96520000D02*
X73025000Y-96520000D01*
X79375000Y-135890000D02*
X79375000Y-138430000D01*
X79375000Y-138430000D02*
X78105000Y-137160000D01*
X98425000Y-99060000D02*
X97155000Y-100330000D01*
X97155000Y-97790000D02*
X98425000Y-99060000D01*
X97155000Y-100330000D02*
X97155000Y-97790000D01*
X98425000Y-114300000D02*
X96520000Y-114300000D01*
X96520000Y-121920000D02*
X96520000Y-114300000D01*
X96520000Y-121920000D02*
X98425000Y-121920000D01*
X98425000Y-139700000D02*
X103505000Y-139700000D01*
X98425000Y-96520000D02*
X98425000Y-139700000D01*
X103505000Y-96520000D02*
X98425000Y-96520000D01*
X103505000Y-139700000D02*
X103505000Y-96520000D01*
D15*
%TO.C,C1*%
X82296000Y-110744000D02*
X82296000Y-109855000D01*
X84074000Y-110744000D02*
X82296000Y-110744000D01*
X84074000Y-109855000D02*
X84074000Y-110744000D01*
X82296000Y-107696000D02*
X82296000Y-108585000D01*
X84074000Y-107696000D02*
X82296000Y-107696000D01*
X84074000Y-108585000D02*
X84074000Y-107696000D01*
D16*
%TO.C,D1*%
X90565000Y-112970000D02*
X85965000Y-112970000D01*
X85965000Y-112970000D02*
X85965000Y-105470000D01*
X85965000Y-105470000D02*
X90565000Y-105470000D01*
X90565000Y-105470000D02*
X90565000Y-112970000D01*
D17*
%TO.C,P1*%
X81765000Y-135530000D02*
X94765000Y-135530000D01*
X81765000Y-119830000D02*
X94765000Y-119830000D01*
X81765000Y-119830000D02*
X81765000Y-135530000D01*
X94765000Y-119830000D02*
X94765000Y-135530000D01*
%TO.C,PHIDGET1*%
D10*
X79931380Y-134571619D02*
X79931380Y-134668380D01*
X79883000Y-134765142D01*
X79834619Y-134813523D01*
X79737857Y-134861904D01*
X79544333Y-134910285D01*
X79302428Y-134910285D01*
X79108904Y-134861904D01*
X79012142Y-134813523D01*
X78963761Y-134765142D01*
X78915380Y-134668380D01*
X78915380Y-134571619D01*
X78963761Y-134474857D01*
X79012142Y-134426476D01*
X79108904Y-134378095D01*
X79302428Y-134329714D01*
X79544333Y-134329714D01*
X79737857Y-134378095D01*
X79834619Y-134426476D01*
X79883000Y-134474857D01*
X79931380Y-134571619D01*
X78915380Y-129830285D02*
X78915380Y-129249714D01*
X78915380Y-129540000D02*
X79931380Y-129540000D01*
X79786238Y-129443238D01*
X79689476Y-129346476D01*
X79641095Y-129249714D01*
X79931380Y-98721333D02*
X79931380Y-99398666D01*
X78915380Y-98963238D01*
X79931380Y-104333523D02*
X79931380Y-104140000D01*
X79883000Y-104043238D01*
X79834619Y-103994857D01*
X79689476Y-103898095D01*
X79495952Y-103849714D01*
X79108904Y-103849714D01*
X79012142Y-103898095D01*
X78963761Y-103946476D01*
X78915380Y-104043238D01*
X78915380Y-104236761D01*
X78963761Y-104333523D01*
X79012142Y-104381904D01*
X79108904Y-104430285D01*
X79350809Y-104430285D01*
X79447571Y-104381904D01*
X79495952Y-104333523D01*
X79544333Y-104236761D01*
X79544333Y-104043238D01*
X79495952Y-103946476D01*
X79447571Y-103898095D01*
X79350809Y-103849714D01*
X79931380Y-109461904D02*
X79931380Y-108978095D01*
X79447571Y-108929714D01*
X79495952Y-108978095D01*
X79544333Y-109074857D01*
X79544333Y-109316761D01*
X79495952Y-109413523D01*
X79447571Y-109461904D01*
X79350809Y-109510285D01*
X79108904Y-109510285D01*
X79012142Y-109461904D01*
X78963761Y-109413523D01*
X78915380Y-109316761D01*
X78915380Y-109074857D01*
X78963761Y-108978095D01*
X79012142Y-108929714D01*
X79834619Y-124169714D02*
X79883000Y-124218095D01*
X79931380Y-124314857D01*
X79931380Y-124556761D01*
X79883000Y-124653523D01*
X79834619Y-124701904D01*
X79737857Y-124750285D01*
X79641095Y-124750285D01*
X79495952Y-124701904D01*
X78915380Y-124121333D01*
X78915380Y-124750285D01*
X97034047Y-101696761D02*
X96985666Y-101793523D01*
X96937285Y-101841904D01*
X96840523Y-101890285D01*
X96792142Y-101890285D01*
X96695380Y-101841904D01*
X96647000Y-101793523D01*
X96598619Y-101696761D01*
X96598619Y-101503238D01*
X96647000Y-101406476D01*
X96695380Y-101358095D01*
X96792142Y-101309714D01*
X96840523Y-101309714D01*
X96937285Y-101358095D01*
X96985666Y-101406476D01*
X97034047Y-101503238D01*
X97034047Y-101696761D01*
X97082428Y-101793523D01*
X97130809Y-101841904D01*
X97227571Y-101890285D01*
X97421095Y-101890285D01*
X97517857Y-101841904D01*
X97566238Y-101793523D01*
X97614619Y-101696761D01*
X97614619Y-101503238D01*
X97566238Y-101406476D01*
X97517857Y-101358095D01*
X97421095Y-101309714D01*
X97227571Y-101309714D01*
X97130809Y-101358095D01*
X97082428Y-101406476D01*
X97034047Y-101503238D01*
X97614619Y-137353523D02*
X97614619Y-137934095D01*
X97614619Y-137643809D02*
X96598619Y-137643809D01*
X96743761Y-137740571D01*
X96840523Y-137837333D01*
X96888904Y-137934095D01*
X96598619Y-136434285D02*
X96598619Y-136918095D01*
X97082428Y-136966476D01*
X97034047Y-136918095D01*
X96985666Y-136821333D01*
X96985666Y-136579428D01*
X97034047Y-136482666D01*
X97082428Y-136434285D01*
X97179190Y-136385904D01*
X97421095Y-136385904D01*
X97517857Y-136434285D01*
X97566238Y-136482666D01*
X97614619Y-136579428D01*
X97614619Y-136821333D01*
X97566238Y-136918095D01*
X97517857Y-136966476D01*
X97614619Y-132273523D02*
X97614619Y-132854095D01*
X97614619Y-132563809D02*
X96598619Y-132563809D01*
X96743761Y-132660571D01*
X96840523Y-132757333D01*
X96888904Y-132854095D01*
X96937285Y-131402666D02*
X97614619Y-131402666D01*
X96550238Y-131644571D02*
X97275952Y-131886476D01*
X97275952Y-131257523D01*
X97614619Y-127193523D02*
X97614619Y-127774095D01*
X97614619Y-127483809D02*
X96598619Y-127483809D01*
X96743761Y-127580571D01*
X96840523Y-127677333D01*
X96888904Y-127774095D01*
X96598619Y-126854857D02*
X96598619Y-126225904D01*
X96985666Y-126564571D01*
X96985666Y-126419428D01*
X97034047Y-126322666D01*
X97082428Y-126274285D01*
X97179190Y-126225904D01*
X97421095Y-126225904D01*
X97517857Y-126274285D01*
X97566238Y-126322666D01*
X97614619Y-126419428D01*
X97614619Y-126709714D01*
X97566238Y-126806476D01*
X97517857Y-126854857D01*
X97614619Y-111953523D02*
X97614619Y-112534095D01*
X97614619Y-112243809D02*
X96598619Y-112243809D01*
X96743761Y-112340571D01*
X96840523Y-112437333D01*
X96888904Y-112534095D01*
X96598619Y-111324571D02*
X96598619Y-111227809D01*
X96647000Y-111131047D01*
X96695380Y-111082666D01*
X96792142Y-111034285D01*
X96985666Y-110985904D01*
X97227571Y-110985904D01*
X97421095Y-111034285D01*
X97517857Y-111082666D01*
X97566238Y-111131047D01*
X97614619Y-111227809D01*
X97614619Y-111324571D01*
X97566238Y-111421333D01*
X97517857Y-111469714D01*
X97421095Y-111518095D01*
X97227571Y-111566476D01*
X96985666Y-111566476D01*
X96792142Y-111518095D01*
X96695380Y-111469714D01*
X96647000Y-111421333D01*
X96598619Y-111324571D01*
X97614619Y-106873523D02*
X97614619Y-106680000D01*
X97566238Y-106583238D01*
X97517857Y-106534857D01*
X97372714Y-106438095D01*
X97179190Y-106389714D01*
X96792142Y-106389714D01*
X96695380Y-106438095D01*
X96647000Y-106486476D01*
X96598619Y-106583238D01*
X96598619Y-106776761D01*
X96647000Y-106873523D01*
X96695380Y-106921904D01*
X96792142Y-106970285D01*
X97034047Y-106970285D01*
X97130809Y-106921904D01*
X97179190Y-106873523D01*
X97227571Y-106776761D01*
X97227571Y-106583238D01*
X97179190Y-106486476D01*
X97130809Y-106438095D01*
X97034047Y-106389714D01*
%TO.C,C1*%
D18*
X83079166Y-111478785D02*
X83048928Y-111509023D01*
X82958214Y-111539261D01*
X82897738Y-111539261D01*
X82807023Y-111509023D01*
X82746547Y-111448547D01*
X82716309Y-111388071D01*
X82686071Y-111267119D01*
X82686071Y-111176404D01*
X82716309Y-111055452D01*
X82746547Y-110994976D01*
X82807023Y-110934500D01*
X82897738Y-110904261D01*
X82958214Y-110904261D01*
X83048928Y-110934500D01*
X83079166Y-110964738D01*
X83683928Y-111539261D02*
X83321071Y-111539261D01*
X83502500Y-111539261D02*
X83502500Y-110904261D01*
X83442023Y-110994976D01*
X83381547Y-111055452D01*
X83321071Y-111085690D01*
X82504642Y-107475261D02*
X82141785Y-107475261D01*
X82323214Y-107475261D02*
X82323214Y-106840261D01*
X82262738Y-106930976D01*
X82202261Y-106991452D01*
X82141785Y-107021690D01*
X82897738Y-106840261D02*
X82958214Y-106840261D01*
X83018690Y-106870500D01*
X83048928Y-106900738D01*
X83079166Y-106961214D01*
X83109404Y-107082166D01*
X83109404Y-107233357D01*
X83079166Y-107354309D01*
X83048928Y-107414785D01*
X83018690Y-107445023D01*
X82958214Y-107475261D01*
X82897738Y-107475261D01*
X82837261Y-107445023D01*
X82807023Y-107414785D01*
X82776785Y-107354309D01*
X82746547Y-107233357D01*
X82746547Y-107082166D01*
X82776785Y-106961214D01*
X82807023Y-106900738D01*
X82837261Y-106870500D01*
X82897738Y-106840261D01*
X83653690Y-107051928D02*
X83653690Y-107475261D01*
X83381547Y-107051928D02*
X83381547Y-107384547D01*
X83411785Y-107445023D01*
X83472261Y-107475261D01*
X83562976Y-107475261D01*
X83623452Y-107445023D01*
X83653690Y-107414785D01*
X84167738Y-107142642D02*
X83956071Y-107142642D01*
X83956071Y-107475261D02*
X83956071Y-106840261D01*
X84258452Y-106840261D01*
%TO.C,D1*%
D10*
X87515095Y-105079619D02*
X87515095Y-104063619D01*
X87757000Y-104063619D01*
X87902142Y-104112000D01*
X87998904Y-104208761D01*
X88047285Y-104305523D01*
X88095666Y-104499047D01*
X88095666Y-104644190D01*
X88047285Y-104837714D01*
X87998904Y-104934476D01*
X87902142Y-105031238D01*
X87757000Y-105079619D01*
X87515095Y-105079619D01*
X89063285Y-105079619D02*
X88482714Y-105079619D01*
X88773000Y-105079619D02*
X88773000Y-104063619D01*
X88676238Y-104208761D01*
X88579476Y-104305523D01*
X88482714Y-104353904D01*
%TO.C,P1*%
X93117004Y-119204619D02*
X93117004Y-118188619D01*
X93504052Y-118188619D01*
X93600814Y-118237000D01*
X93649195Y-118285380D01*
X93697576Y-118382142D01*
X93697576Y-118527285D01*
X93649195Y-118624047D01*
X93600814Y-118672428D01*
X93504052Y-118720809D01*
X93117004Y-118720809D01*
X94665195Y-119204619D02*
X94084623Y-119204619D01*
X94374909Y-119204619D02*
X94374909Y-118188619D01*
X94278147Y-118333761D01*
X94181385Y-118430523D01*
X94084623Y-118478904D01*
%TD*%
%LPC*%
D19*
%TO.C,S7*%
X108585000Y-75565000D03*
X108585000Y-78105000D03*
%TD*%
%TO.C,S1*%
X52705000Y-75565000D03*
X52705000Y-78105000D03*
%TD*%
%TO.C,S2*%
X52705000Y-67945000D03*
X52705000Y-70485000D03*
%TD*%
%TO.C,S3*%
X52705000Y-60325000D03*
X52705000Y-62865000D03*
%TD*%
%TO.C,S4*%
X80645000Y-75565000D03*
X80645000Y-78105000D03*
%TD*%
%TO.C,S5*%
X80645000Y-67945000D03*
X80645000Y-70485000D03*
%TD*%
%TO.C,S6*%
X80645000Y-60325000D03*
X80645000Y-62865000D03*
%TD*%
%TO.C,S8*%
X108585000Y-67945000D03*
X108585000Y-70485000D03*
%TD*%
%TO.C,S9*%
X108585000Y-60325000D03*
X108585000Y-62865000D03*
%TD*%
D20*
%TO.C,PHIDGET1*%
X75565000Y-99060000D03*
X75565000Y-111760000D03*
X75565000Y-137160000D03*
X75565000Y-129540000D03*
X75565000Y-116840000D03*
X75565000Y-114300000D03*
X75565000Y-134620000D03*
X75565000Y-121920000D03*
X75565000Y-119380000D03*
X75565000Y-132080000D03*
X75565000Y-109220000D03*
X75565000Y-127000000D03*
X75565000Y-101600000D03*
X75565000Y-104140000D03*
X75565000Y-106680000D03*
X75565000Y-124460000D03*
X100965000Y-99060000D03*
X100965000Y-101600000D03*
X100965000Y-137160000D03*
D21*
X59055000Y-135255000D03*
X59055000Y-69215000D03*
X117475000Y-69215000D03*
X117475000Y-135255000D03*
D20*
X100965000Y-104140000D03*
X100965000Y-106680000D03*
X100965000Y-109220000D03*
X100965000Y-111760000D03*
X100965000Y-114300000D03*
X100965000Y-116840000D03*
X100965000Y-119380000D03*
X100965000Y-121920000D03*
X100965000Y-124460000D03*
X100965000Y-127000000D03*
X100965000Y-129540000D03*
X100965000Y-132080000D03*
X100965000Y-134620000D03*
%TD*%
D22*
%TO.C,FID1*%
X53975000Y-53975000D03*
%TD*%
%TO.C,FID2*%
X122555000Y-53975000D03*
%TD*%
%TO.C,FID3*%
X122555000Y-137795000D03*
%TD*%
%TO.C,FID4*%
X53975000Y-137795000D03*
%TD*%
D23*
%TO.C,MH1*%
X92710000Y-85090000D03*
%TD*%
%TO.C,MH2*%
X64770000Y-56515000D03*
%TD*%
%TO.C,MH3*%
X120650000Y-56515000D03*
%TD*%
D24*
%TO.C,C1*%
X83185000Y-110261400D03*
X83185000Y-108178600D03*
%TD*%
D25*
%TO.C,D1*%
X88265000Y-108200000D03*
D26*
X89330000Y-112000000D03*
X87200000Y-112000000D03*
%TD*%
D27*
%TO.C,P1*%
X88265000Y-125730000D03*
D28*
X84165000Y-127730000D03*
X92365000Y-127730000D03*
D29*
X88265000Y-118130000D03*
D30*
X85890000Y-137030000D03*
X90640000Y-137030000D03*
%TD*%
M02*
