%TF.GenerationSoftware,KiCad,Pcbnew,5.1.6-c6e7f7d~87~ubuntu20.04.1*%
%TF.CreationDate,2020-07-21T10:48:28-04:00*%
%TF.ProjectId,y_arena_valve_controller,795f6172-656e-4615-9f76-616c76655f63,1.0*%
%TF.SameCoordinates,Original*%
%TF.FileFunction,Legend,Bot*%
%TF.FilePolarity,Positive*%
%FSLAX46Y46*%
G04 Gerber Fmt 4.6, Leading zero omitted, Abs format (unit mm)*
G04 Created by KiCad (PCBNEW 5.1.6-c6e7f7d~87~ubuntu20.04.1) date 2020-07-21 10:48:28*
%MOMM*%
%LPD*%
G01*
G04 APERTURE LIST*
%ADD10C,0.381000*%
%ADD11C,0.279400*%
%ADD12C,0.228600*%
%ADD13C,0.635000*%
%ADD14C,0.254000*%
%ADD15O,2.132000X1.624000*%
%ADD16C,6.297600*%
%ADD17C,2.386000*%
%ADD18C,3.656000*%
%ADD19C,4.600000*%
%ADD20C,2.000000*%
G04 APERTURE END LIST*
D10*
%TO.C,PHIDGET1*%
X54419500Y-147701000D02*
X54419500Y-72009000D01*
X122110500Y-147701000D02*
X54419500Y-147701000D01*
X122110500Y-72009000D02*
X122110500Y-147701000D01*
X122110500Y-72009000D02*
X54419500Y-72009000D01*
X92075000Y-146685000D02*
X92075000Y-144145000D01*
X92075000Y-144145000D02*
X84455000Y-144145000D01*
X84455000Y-144145000D02*
X84455000Y-146685000D01*
X92075000Y-146685000D02*
X84455000Y-146685000D01*
D11*
X120777000Y-142875000D02*
G75*
G03*
X120777000Y-142875000I-3302000J0D01*
G01*
X62357000Y-142875000D02*
G75*
G03*
X62357000Y-142875000I-3302000J0D01*
G01*
X62357000Y-76835000D02*
G75*
G03*
X62357000Y-76835000I-3302000J0D01*
G01*
X120777000Y-76835000D02*
G75*
G03*
X120777000Y-76835000I-3302000J0D01*
G01*
%TO.C,S1*%
X58470800Y-76835000D02*
G75*
G03*
X58470800Y-76835000I-3733800J0D01*
G01*
%TO.C,S2*%
X58470800Y-69215000D02*
G75*
G03*
X58470800Y-69215000I-3733800J0D01*
G01*
%TO.C,S3*%
X58470800Y-61595000D02*
G75*
G03*
X58470800Y-61595000I-3733800J0D01*
G01*
%TO.C,S4*%
X86410800Y-76835000D02*
G75*
G03*
X86410800Y-76835000I-3733800J0D01*
G01*
%TO.C,S5*%
X86410800Y-69215000D02*
G75*
G03*
X86410800Y-69215000I-3733800J0D01*
G01*
%TO.C,S6*%
X86410800Y-61595000D02*
G75*
G03*
X86410800Y-61595000I-3733800J0D01*
G01*
%TO.C,S7*%
X114350800Y-76835000D02*
G75*
G03*
X114350800Y-76835000I-3733800J0D01*
G01*
%TO.C,S8*%
X114350800Y-69215000D02*
G75*
G03*
X114350800Y-69215000I-3733800J0D01*
G01*
%TO.C,S9*%
X114350800Y-61595000D02*
G75*
G03*
X114350800Y-61595000I-3733800J0D01*
G01*
D12*
%TO.C,MH1*%
X95250000Y-85090000D02*
G75*
G03*
X95250000Y-85090000I-2540000J0D01*
G01*
%TO.C,MH2*%
X67310000Y-56515000D02*
G75*
G03*
X67310000Y-56515000I-2540000J0D01*
G01*
%TO.C,MH3*%
X123190000Y-56515000D02*
G75*
G03*
X123190000Y-56515000I-2540000J0D01*
G01*
%TO.C,PHIDGET1*%
D10*
X53394428Y-104775000D02*
X51870428Y-104775000D01*
X51870428Y-105355571D01*
X51943000Y-105500714D01*
X52015571Y-105573285D01*
X52160714Y-105645857D01*
X52378428Y-105645857D01*
X52523571Y-105573285D01*
X52596142Y-105500714D01*
X52668714Y-105355571D01*
X52668714Y-104775000D01*
X53394428Y-106299000D02*
X51870428Y-106299000D01*
X52596142Y-106299000D02*
X52596142Y-107169857D01*
X53394428Y-107169857D02*
X51870428Y-107169857D01*
X53394428Y-107895571D02*
X51870428Y-107895571D01*
X53394428Y-108621285D02*
X51870428Y-108621285D01*
X51870428Y-108984142D01*
X51943000Y-109201857D01*
X52088142Y-109347000D01*
X52233285Y-109419571D01*
X52523571Y-109492142D01*
X52741285Y-109492142D01*
X53031571Y-109419571D01*
X53176714Y-109347000D01*
X53321857Y-109201857D01*
X53394428Y-108984142D01*
X53394428Y-108621285D01*
X51943000Y-110943571D02*
X51870428Y-110798428D01*
X51870428Y-110580714D01*
X51943000Y-110363000D01*
X52088142Y-110217857D01*
X52233285Y-110145285D01*
X52523571Y-110072714D01*
X52741285Y-110072714D01*
X53031571Y-110145285D01*
X53176714Y-110217857D01*
X53321857Y-110363000D01*
X53394428Y-110580714D01*
X53394428Y-110725857D01*
X53321857Y-110943571D01*
X53249285Y-111016142D01*
X52741285Y-111016142D01*
X52741285Y-110725857D01*
X52596142Y-111669285D02*
X52596142Y-112177285D01*
X53394428Y-112395000D02*
X53394428Y-111669285D01*
X51870428Y-111669285D01*
X51870428Y-112395000D01*
X51870428Y-112830428D02*
X51870428Y-113701285D01*
X53394428Y-113265857D02*
X51870428Y-113265857D01*
X53394428Y-115007571D02*
X53394428Y-114136714D01*
X53394428Y-114572142D02*
X51870428Y-114572142D01*
X52088142Y-114427000D01*
X52233285Y-114281857D01*
X52305857Y-114136714D01*
D13*
X86753095Y-91228333D02*
X86874047Y-91591190D01*
X86874047Y-92195952D01*
X86753095Y-92437857D01*
X86632142Y-92558809D01*
X86390238Y-92679761D01*
X86148333Y-92679761D01*
X85906428Y-92558809D01*
X85785476Y-92437857D01*
X85664523Y-92195952D01*
X85543571Y-91712142D01*
X85422619Y-91470238D01*
X85301666Y-91349285D01*
X85059761Y-91228333D01*
X84817857Y-91228333D01*
X84575952Y-91349285D01*
X84455000Y-91470238D01*
X84334047Y-91712142D01*
X84334047Y-92316904D01*
X84455000Y-92679761D01*
X85180714Y-93405476D02*
X85180714Y-94373095D01*
X84334047Y-93768333D02*
X86511190Y-93768333D01*
X86753095Y-93889285D01*
X86874047Y-94131190D01*
X86874047Y-94373095D01*
X86874047Y-96308333D02*
X85543571Y-96308333D01*
X85301666Y-96187380D01*
X85180714Y-95945476D01*
X85180714Y-95461666D01*
X85301666Y-95219761D01*
X86753095Y-96308333D02*
X86874047Y-96066428D01*
X86874047Y-95461666D01*
X86753095Y-95219761D01*
X86511190Y-95098809D01*
X86269285Y-95098809D01*
X86027380Y-95219761D01*
X85906428Y-95461666D01*
X85906428Y-96066428D01*
X85785476Y-96308333D01*
X85180714Y-97155000D02*
X85180714Y-98122619D01*
X84334047Y-97517857D02*
X86511190Y-97517857D01*
X86753095Y-97638809D01*
X86874047Y-97880714D01*
X86874047Y-98122619D01*
X86753095Y-99936904D02*
X86874047Y-99695000D01*
X86874047Y-99211190D01*
X86753095Y-98969285D01*
X86511190Y-98848333D01*
X85543571Y-98848333D01*
X85301666Y-98969285D01*
X85180714Y-99211190D01*
X85180714Y-99695000D01*
X85301666Y-99936904D01*
X85543571Y-100057857D01*
X85785476Y-100057857D01*
X86027380Y-98848333D01*
X86874047Y-104533095D02*
X85664523Y-103686428D01*
X86874047Y-103081666D02*
X84334047Y-103081666D01*
X84334047Y-104049285D01*
X84455000Y-104291190D01*
X84575952Y-104412142D01*
X84817857Y-104533095D01*
X85180714Y-104533095D01*
X85422619Y-104412142D01*
X85543571Y-104291190D01*
X85664523Y-104049285D01*
X85664523Y-103081666D01*
X86753095Y-106589285D02*
X86874047Y-106347380D01*
X86874047Y-105863571D01*
X86753095Y-105621666D01*
X86511190Y-105500714D01*
X85543571Y-105500714D01*
X85301666Y-105621666D01*
X85180714Y-105863571D01*
X85180714Y-106347380D01*
X85301666Y-106589285D01*
X85543571Y-106710238D01*
X85785476Y-106710238D01*
X86027380Y-105500714D01*
X86874047Y-108161666D02*
X86753095Y-107919761D01*
X86511190Y-107798809D01*
X84334047Y-107798809D01*
X86874047Y-110217857D02*
X85543571Y-110217857D01*
X85301666Y-110096904D01*
X85180714Y-109855000D01*
X85180714Y-109371190D01*
X85301666Y-109129285D01*
X86753095Y-110217857D02*
X86874047Y-109975952D01*
X86874047Y-109371190D01*
X86753095Y-109129285D01*
X86511190Y-109008333D01*
X86269285Y-109008333D01*
X86027380Y-109129285D01*
X85906428Y-109371190D01*
X85906428Y-109975952D01*
X85785476Y-110217857D01*
X85180714Y-111185476D02*
X86874047Y-111790238D01*
X85180714Y-112395000D02*
X86874047Y-111790238D01*
X87478809Y-111548333D01*
X87599761Y-111427380D01*
X87720714Y-111185476D01*
X86874047Y-115297857D02*
X84334047Y-115297857D01*
X84334047Y-116265476D01*
X84455000Y-116507380D01*
X84575952Y-116628333D01*
X84817857Y-116749285D01*
X85180714Y-116749285D01*
X85422619Y-116628333D01*
X85543571Y-116507380D01*
X85664523Y-116265476D01*
X85664523Y-115297857D01*
X86874047Y-117837857D02*
X84334047Y-117837857D01*
X86874047Y-118926428D02*
X85543571Y-118926428D01*
X85301666Y-118805476D01*
X85180714Y-118563571D01*
X85180714Y-118200714D01*
X85301666Y-117958809D01*
X85422619Y-117837857D01*
X86874047Y-120135952D02*
X85180714Y-120135952D01*
X84334047Y-120135952D02*
X84455000Y-120015000D01*
X84575952Y-120135952D01*
X84455000Y-120256904D01*
X84334047Y-120135952D01*
X84575952Y-120135952D01*
X86874047Y-122434047D02*
X84334047Y-122434047D01*
X86753095Y-122434047D02*
X86874047Y-122192142D01*
X86874047Y-121708333D01*
X86753095Y-121466428D01*
X86632142Y-121345476D01*
X86390238Y-121224523D01*
X85664523Y-121224523D01*
X85422619Y-121345476D01*
X85301666Y-121466428D01*
X85180714Y-121708333D01*
X85180714Y-122192142D01*
X85301666Y-122434047D01*
X85180714Y-124732142D02*
X87236904Y-124732142D01*
X87478809Y-124611190D01*
X87599761Y-124490238D01*
X87720714Y-124248333D01*
X87720714Y-123885476D01*
X87599761Y-123643571D01*
X86753095Y-124732142D02*
X86874047Y-124490238D01*
X86874047Y-124006428D01*
X86753095Y-123764523D01*
X86632142Y-123643571D01*
X86390238Y-123522619D01*
X85664523Y-123522619D01*
X85422619Y-123643571D01*
X85301666Y-123764523D01*
X85180714Y-124006428D01*
X85180714Y-124490238D01*
X85301666Y-124732142D01*
X86753095Y-126909285D02*
X86874047Y-126667380D01*
X86874047Y-126183571D01*
X86753095Y-125941666D01*
X86511190Y-125820714D01*
X85543571Y-125820714D01*
X85301666Y-125941666D01*
X85180714Y-126183571D01*
X85180714Y-126667380D01*
X85301666Y-126909285D01*
X85543571Y-127030238D01*
X85785476Y-127030238D01*
X86027380Y-125820714D01*
X85180714Y-127755952D02*
X85180714Y-128723571D01*
X84334047Y-128118809D02*
X86511190Y-128118809D01*
X86753095Y-128239761D01*
X86874047Y-128481666D01*
X86874047Y-128723571D01*
X91954047Y-94070714D02*
X91954047Y-92619285D01*
X91954047Y-93345000D02*
X89414047Y-93345000D01*
X89776904Y-93103095D01*
X90018809Y-92861190D01*
X90139761Y-92619285D01*
X89414047Y-96247857D02*
X89414047Y-95764047D01*
X89535000Y-95522142D01*
X89655952Y-95401190D01*
X90018809Y-95159285D01*
X90502619Y-95038333D01*
X91470238Y-95038333D01*
X91712142Y-95159285D01*
X91833095Y-95280238D01*
X91954047Y-95522142D01*
X91954047Y-96005952D01*
X91833095Y-96247857D01*
X91712142Y-96368809D01*
X91470238Y-96489761D01*
X90865476Y-96489761D01*
X90623571Y-96368809D01*
X90502619Y-96247857D01*
X90381666Y-96005952D01*
X90381666Y-95522142D01*
X90502619Y-95280238D01*
X90623571Y-95159285D01*
X90865476Y-95038333D01*
X91954047Y-97336428D02*
X90260714Y-98666904D01*
X90260714Y-97336428D02*
X91954047Y-98666904D01*
X91954047Y-101569761D02*
X89414047Y-101569761D01*
X91833095Y-102658333D02*
X91954047Y-102900238D01*
X91954047Y-103384047D01*
X91833095Y-103625952D01*
X91591190Y-103746904D01*
X91470238Y-103746904D01*
X91228333Y-103625952D01*
X91107380Y-103384047D01*
X91107380Y-103021190D01*
X90986428Y-102779285D01*
X90744523Y-102658333D01*
X90623571Y-102658333D01*
X90381666Y-102779285D01*
X90260714Y-103021190D01*
X90260714Y-103384047D01*
X90381666Y-103625952D01*
X91954047Y-105198333D02*
X91833095Y-104956428D01*
X91712142Y-104835476D01*
X91470238Y-104714523D01*
X90744523Y-104714523D01*
X90502619Y-104835476D01*
X90381666Y-104956428D01*
X90260714Y-105198333D01*
X90260714Y-105561190D01*
X90381666Y-105803095D01*
X90502619Y-105924047D01*
X90744523Y-106045000D01*
X91470238Y-106045000D01*
X91712142Y-105924047D01*
X91833095Y-105803095D01*
X91954047Y-105561190D01*
X91954047Y-105198333D01*
X91954047Y-107496428D02*
X91833095Y-107254523D01*
X91591190Y-107133571D01*
X89414047Y-107133571D01*
X91954047Y-109552619D02*
X90623571Y-109552619D01*
X90381666Y-109431666D01*
X90260714Y-109189761D01*
X90260714Y-108705952D01*
X90381666Y-108464047D01*
X91833095Y-109552619D02*
X91954047Y-109310714D01*
X91954047Y-108705952D01*
X91833095Y-108464047D01*
X91591190Y-108343095D01*
X91349285Y-108343095D01*
X91107380Y-108464047D01*
X90986428Y-108705952D01*
X90986428Y-109310714D01*
X90865476Y-109552619D01*
X90260714Y-110399285D02*
X90260714Y-111366904D01*
X89414047Y-110762142D02*
X91591190Y-110762142D01*
X91833095Y-110883095D01*
X91954047Y-111125000D01*
X91954047Y-111366904D01*
X91833095Y-113181190D02*
X91954047Y-112939285D01*
X91954047Y-112455476D01*
X91833095Y-112213571D01*
X91591190Y-112092619D01*
X90623571Y-112092619D01*
X90381666Y-112213571D01*
X90260714Y-112455476D01*
X90260714Y-112939285D01*
X90381666Y-113181190D01*
X90623571Y-113302142D01*
X90865476Y-113302142D01*
X91107380Y-112092619D01*
X91954047Y-115479285D02*
X89414047Y-115479285D01*
X91833095Y-115479285D02*
X91954047Y-115237380D01*
X91954047Y-114753571D01*
X91833095Y-114511666D01*
X91712142Y-114390714D01*
X91470238Y-114269761D01*
X90744523Y-114269761D01*
X90502619Y-114390714D01*
X90381666Y-114511666D01*
X90260714Y-114753571D01*
X90260714Y-115237380D01*
X90381666Y-115479285D01*
X91833095Y-118503095D02*
X91954047Y-118865952D01*
X91954047Y-119470714D01*
X91833095Y-119712619D01*
X91712142Y-119833571D01*
X91470238Y-119954523D01*
X91228333Y-119954523D01*
X90986428Y-119833571D01*
X90865476Y-119712619D01*
X90744523Y-119470714D01*
X90623571Y-118986904D01*
X90502619Y-118745000D01*
X90381666Y-118624047D01*
X90139761Y-118503095D01*
X89897857Y-118503095D01*
X89655952Y-118624047D01*
X89535000Y-118745000D01*
X89414047Y-118986904D01*
X89414047Y-119591666D01*
X89535000Y-119954523D01*
X91954047Y-121405952D02*
X91833095Y-121164047D01*
X91712142Y-121043095D01*
X91470238Y-120922142D01*
X90744523Y-120922142D01*
X90502619Y-121043095D01*
X90381666Y-121164047D01*
X90260714Y-121405952D01*
X90260714Y-121768809D01*
X90381666Y-122010714D01*
X90502619Y-122131666D01*
X90744523Y-122252619D01*
X91470238Y-122252619D01*
X91712142Y-122131666D01*
X91833095Y-122010714D01*
X91954047Y-121768809D01*
X91954047Y-121405952D01*
X91954047Y-123704047D02*
X91833095Y-123462142D01*
X91591190Y-123341190D01*
X89414047Y-123341190D01*
X91954047Y-124671666D02*
X90260714Y-124671666D01*
X89414047Y-124671666D02*
X89535000Y-124550714D01*
X89655952Y-124671666D01*
X89535000Y-124792619D01*
X89414047Y-124671666D01*
X89655952Y-124671666D01*
X91954047Y-126969761D02*
X89414047Y-126969761D01*
X91833095Y-126969761D02*
X91954047Y-126727857D01*
X91954047Y-126244047D01*
X91833095Y-126002142D01*
X91712142Y-125881190D01*
X91470238Y-125760238D01*
X90744523Y-125760238D01*
X90502619Y-125881190D01*
X90381666Y-126002142D01*
X90260714Y-126244047D01*
X90260714Y-126727857D01*
X90381666Y-126969761D01*
%TO.C,S1*%
D14*
X53479095Y-81691238D02*
X53333952Y-81739619D01*
X53092047Y-81739619D01*
X52995285Y-81691238D01*
X52946904Y-81642857D01*
X52898523Y-81546095D01*
X52898523Y-81449333D01*
X52946904Y-81352571D01*
X52995285Y-81304190D01*
X53092047Y-81255809D01*
X53285571Y-81207428D01*
X53382333Y-81159047D01*
X53430714Y-81110666D01*
X53479095Y-81013904D01*
X53479095Y-80917142D01*
X53430714Y-80820380D01*
X53382333Y-80772000D01*
X53285571Y-80723619D01*
X53043666Y-80723619D01*
X52898523Y-80772000D01*
X51930904Y-81739619D02*
X52511476Y-81739619D01*
X52221190Y-81739619D02*
X52221190Y-80723619D01*
X52317952Y-80868761D01*
X52414714Y-80965523D01*
X52511476Y-81013904D01*
%TO.C,S2*%
X60101238Y-68440904D02*
X60149619Y-68586047D01*
X60149619Y-68827952D01*
X60101238Y-68924714D01*
X60052857Y-68973095D01*
X59956095Y-69021476D01*
X59859333Y-69021476D01*
X59762571Y-68973095D01*
X59714190Y-68924714D01*
X59665809Y-68827952D01*
X59617428Y-68634428D01*
X59569047Y-68537666D01*
X59520666Y-68489285D01*
X59423904Y-68440904D01*
X59327142Y-68440904D01*
X59230380Y-68489285D01*
X59182000Y-68537666D01*
X59133619Y-68634428D01*
X59133619Y-68876333D01*
X59182000Y-69021476D01*
X59230380Y-69408523D02*
X59182000Y-69456904D01*
X59133619Y-69553666D01*
X59133619Y-69795571D01*
X59182000Y-69892333D01*
X59230380Y-69940714D01*
X59327142Y-69989095D01*
X59423904Y-69989095D01*
X59569047Y-69940714D01*
X60149619Y-69360142D01*
X60149619Y-69989095D01*
%TO.C,S3*%
X60101238Y-60820904D02*
X60149619Y-60966047D01*
X60149619Y-61207952D01*
X60101238Y-61304714D01*
X60052857Y-61353095D01*
X59956095Y-61401476D01*
X59859333Y-61401476D01*
X59762571Y-61353095D01*
X59714190Y-61304714D01*
X59665809Y-61207952D01*
X59617428Y-61014428D01*
X59569047Y-60917666D01*
X59520666Y-60869285D01*
X59423904Y-60820904D01*
X59327142Y-60820904D01*
X59230380Y-60869285D01*
X59182000Y-60917666D01*
X59133619Y-61014428D01*
X59133619Y-61256333D01*
X59182000Y-61401476D01*
X59133619Y-61740142D02*
X59133619Y-62369095D01*
X59520666Y-62030428D01*
X59520666Y-62175571D01*
X59569047Y-62272333D01*
X59617428Y-62320714D01*
X59714190Y-62369095D01*
X59956095Y-62369095D01*
X60052857Y-62320714D01*
X60101238Y-62272333D01*
X60149619Y-62175571D01*
X60149619Y-61885285D01*
X60101238Y-61788523D01*
X60052857Y-61740142D01*
%TO.C,S4*%
X88041238Y-76060904D02*
X88089619Y-76206047D01*
X88089619Y-76447952D01*
X88041238Y-76544714D01*
X87992857Y-76593095D01*
X87896095Y-76641476D01*
X87799333Y-76641476D01*
X87702571Y-76593095D01*
X87654190Y-76544714D01*
X87605809Y-76447952D01*
X87557428Y-76254428D01*
X87509047Y-76157666D01*
X87460666Y-76109285D01*
X87363904Y-76060904D01*
X87267142Y-76060904D01*
X87170380Y-76109285D01*
X87122000Y-76157666D01*
X87073619Y-76254428D01*
X87073619Y-76496333D01*
X87122000Y-76641476D01*
X87412285Y-77512333D02*
X88089619Y-77512333D01*
X87025238Y-77270428D02*
X87750952Y-77028523D01*
X87750952Y-77657476D01*
%TO.C,S5*%
X88041238Y-68440904D02*
X88089619Y-68586047D01*
X88089619Y-68827952D01*
X88041238Y-68924714D01*
X87992857Y-68973095D01*
X87896095Y-69021476D01*
X87799333Y-69021476D01*
X87702571Y-68973095D01*
X87654190Y-68924714D01*
X87605809Y-68827952D01*
X87557428Y-68634428D01*
X87509047Y-68537666D01*
X87460666Y-68489285D01*
X87363904Y-68440904D01*
X87267142Y-68440904D01*
X87170380Y-68489285D01*
X87122000Y-68537666D01*
X87073619Y-68634428D01*
X87073619Y-68876333D01*
X87122000Y-69021476D01*
X87073619Y-69940714D02*
X87073619Y-69456904D01*
X87557428Y-69408523D01*
X87509047Y-69456904D01*
X87460666Y-69553666D01*
X87460666Y-69795571D01*
X87509047Y-69892333D01*
X87557428Y-69940714D01*
X87654190Y-69989095D01*
X87896095Y-69989095D01*
X87992857Y-69940714D01*
X88041238Y-69892333D01*
X88089619Y-69795571D01*
X88089619Y-69553666D01*
X88041238Y-69456904D01*
X87992857Y-69408523D01*
%TO.C,S6*%
X88041238Y-60820904D02*
X88089619Y-60966047D01*
X88089619Y-61207952D01*
X88041238Y-61304714D01*
X87992857Y-61353095D01*
X87896095Y-61401476D01*
X87799333Y-61401476D01*
X87702571Y-61353095D01*
X87654190Y-61304714D01*
X87605809Y-61207952D01*
X87557428Y-61014428D01*
X87509047Y-60917666D01*
X87460666Y-60869285D01*
X87363904Y-60820904D01*
X87267142Y-60820904D01*
X87170380Y-60869285D01*
X87122000Y-60917666D01*
X87073619Y-61014428D01*
X87073619Y-61256333D01*
X87122000Y-61401476D01*
X87073619Y-62272333D02*
X87073619Y-62078809D01*
X87122000Y-61982047D01*
X87170380Y-61933666D01*
X87315523Y-61836904D01*
X87509047Y-61788523D01*
X87896095Y-61788523D01*
X87992857Y-61836904D01*
X88041238Y-61885285D01*
X88089619Y-61982047D01*
X88089619Y-62175571D01*
X88041238Y-62272333D01*
X87992857Y-62320714D01*
X87896095Y-62369095D01*
X87654190Y-62369095D01*
X87557428Y-62320714D01*
X87509047Y-62272333D01*
X87460666Y-62175571D01*
X87460666Y-61982047D01*
X87509047Y-61885285D01*
X87557428Y-61836904D01*
X87654190Y-61788523D01*
%TO.C,S7*%
X109359095Y-81691238D02*
X109213952Y-81739619D01*
X108972047Y-81739619D01*
X108875285Y-81691238D01*
X108826904Y-81642857D01*
X108778523Y-81546095D01*
X108778523Y-81449333D01*
X108826904Y-81352571D01*
X108875285Y-81304190D01*
X108972047Y-81255809D01*
X109165571Y-81207428D01*
X109262333Y-81159047D01*
X109310714Y-81110666D01*
X109359095Y-81013904D01*
X109359095Y-80917142D01*
X109310714Y-80820380D01*
X109262333Y-80772000D01*
X109165571Y-80723619D01*
X108923666Y-80723619D01*
X108778523Y-80772000D01*
X108439857Y-80723619D02*
X107762523Y-80723619D01*
X108197952Y-81739619D01*
%TO.C,S8*%
X115981238Y-68440904D02*
X116029619Y-68586047D01*
X116029619Y-68827952D01*
X115981238Y-68924714D01*
X115932857Y-68973095D01*
X115836095Y-69021476D01*
X115739333Y-69021476D01*
X115642571Y-68973095D01*
X115594190Y-68924714D01*
X115545809Y-68827952D01*
X115497428Y-68634428D01*
X115449047Y-68537666D01*
X115400666Y-68489285D01*
X115303904Y-68440904D01*
X115207142Y-68440904D01*
X115110380Y-68489285D01*
X115062000Y-68537666D01*
X115013619Y-68634428D01*
X115013619Y-68876333D01*
X115062000Y-69021476D01*
X115449047Y-69602047D02*
X115400666Y-69505285D01*
X115352285Y-69456904D01*
X115255523Y-69408523D01*
X115207142Y-69408523D01*
X115110380Y-69456904D01*
X115062000Y-69505285D01*
X115013619Y-69602047D01*
X115013619Y-69795571D01*
X115062000Y-69892333D01*
X115110380Y-69940714D01*
X115207142Y-69989095D01*
X115255523Y-69989095D01*
X115352285Y-69940714D01*
X115400666Y-69892333D01*
X115449047Y-69795571D01*
X115449047Y-69602047D01*
X115497428Y-69505285D01*
X115545809Y-69456904D01*
X115642571Y-69408523D01*
X115836095Y-69408523D01*
X115932857Y-69456904D01*
X115981238Y-69505285D01*
X116029619Y-69602047D01*
X116029619Y-69795571D01*
X115981238Y-69892333D01*
X115932857Y-69940714D01*
X115836095Y-69989095D01*
X115642571Y-69989095D01*
X115545809Y-69940714D01*
X115497428Y-69892333D01*
X115449047Y-69795571D01*
%TO.C,S9*%
X115981238Y-60820904D02*
X116029619Y-60966047D01*
X116029619Y-61207952D01*
X115981238Y-61304714D01*
X115932857Y-61353095D01*
X115836095Y-61401476D01*
X115739333Y-61401476D01*
X115642571Y-61353095D01*
X115594190Y-61304714D01*
X115545809Y-61207952D01*
X115497428Y-61014428D01*
X115449047Y-60917666D01*
X115400666Y-60869285D01*
X115303904Y-60820904D01*
X115207142Y-60820904D01*
X115110380Y-60869285D01*
X115062000Y-60917666D01*
X115013619Y-61014428D01*
X115013619Y-61256333D01*
X115062000Y-61401476D01*
X116029619Y-61885285D02*
X116029619Y-62078809D01*
X115981238Y-62175571D01*
X115932857Y-62223952D01*
X115787714Y-62320714D01*
X115594190Y-62369095D01*
X115207142Y-62369095D01*
X115110380Y-62320714D01*
X115062000Y-62272333D01*
X115013619Y-62175571D01*
X115013619Y-61982047D01*
X115062000Y-61885285D01*
X115110380Y-61836904D01*
X115207142Y-61788523D01*
X115449047Y-61788523D01*
X115545809Y-61836904D01*
X115594190Y-61885285D01*
X115642571Y-61982047D01*
X115642571Y-62175571D01*
X115594190Y-62272333D01*
X115545809Y-62320714D01*
X115449047Y-62369095D01*
%TD*%
%LPC*%
D15*
%TO.C,PHIDGET1*%
X59055000Y-98425000D03*
X59055000Y-111125000D03*
X59055000Y-136525000D03*
X59055000Y-128905000D03*
X59055000Y-116205000D03*
X59055000Y-113665000D03*
X59055000Y-133985000D03*
X59055000Y-121285000D03*
X59055000Y-118745000D03*
X59055000Y-131445000D03*
X59055000Y-108585000D03*
X59055000Y-126365000D03*
X59055000Y-100965000D03*
X59055000Y-103505000D03*
X59055000Y-106045000D03*
X59055000Y-123825000D03*
X117475000Y-98425000D03*
X117475000Y-100965000D03*
X117475000Y-136525000D03*
D16*
X59055000Y-142875000D03*
X59055000Y-76835000D03*
X117475000Y-76835000D03*
X117475000Y-142875000D03*
D15*
X117475000Y-103505000D03*
X117475000Y-106045000D03*
X117475000Y-108585000D03*
X117475000Y-111125000D03*
X117475000Y-113665000D03*
X117475000Y-116205000D03*
X117475000Y-118745000D03*
X117475000Y-121285000D03*
X117475000Y-123825000D03*
X117475000Y-126365000D03*
X117475000Y-128905000D03*
X117475000Y-131445000D03*
X117475000Y-133985000D03*
%TD*%
D17*
%TO.C,S1*%
X52705000Y-75565000D03*
X52705000Y-78105000D03*
%TD*%
%TO.C,S2*%
X52705000Y-67945000D03*
X52705000Y-70485000D03*
%TD*%
%TO.C,S3*%
X52705000Y-60325000D03*
X52705000Y-62865000D03*
%TD*%
%TO.C,S4*%
X80645000Y-75565000D03*
X80645000Y-78105000D03*
%TD*%
%TO.C,S5*%
X80645000Y-67945000D03*
X80645000Y-70485000D03*
%TD*%
%TO.C,S6*%
X80645000Y-60325000D03*
X80645000Y-62865000D03*
%TD*%
%TO.C,S7*%
X108585000Y-75565000D03*
X108585000Y-78105000D03*
%TD*%
%TO.C,S8*%
X108585000Y-67945000D03*
X108585000Y-70485000D03*
%TD*%
%TO.C,S9*%
X108585000Y-60325000D03*
X108585000Y-62865000D03*
%TD*%
D18*
%TO.C,MH1*%
X92710000Y-85090000D03*
%TD*%
%TO.C,MH2*%
X64770000Y-56515000D03*
%TD*%
%TO.C,MH3*%
X120650000Y-56515000D03*
%TD*%
D19*
%TO.C,P1*%
X88265000Y-128905000D03*
D20*
X84165000Y-130905000D03*
X92365000Y-130905000D03*
%TD*%
M02*
