%TF.GenerationSoftware,KiCad,Pcbnew,5.1.6-c6e7f7d~87~ubuntu20.04.1*%
%TF.CreationDate,2020-08-02T14:52:04-04:00*%
%TF.ProjectId,y_arena_valve_controller,795f6172-656e-4615-9f76-616c76655f63,1.2*%
%TF.SameCoordinates,Original*%
%TF.FileFunction,Soldermask,Top*%
%TF.FilePolarity,Negative*%
%FSLAX46Y46*%
G04 Gerber Fmt 4.6, Leading zero omitted, Abs format (unit mm)*
G04 Created by KiCad (PCBNEW 5.1.6-c6e7f7d~87~ubuntu20.04.1) date 2020-08-02 14:52:04*
%MOMM*%
%LPD*%
G01*
G04 APERTURE LIST*
%ADD10R,3.910000X2.130000*%
%ADD11R,1.120000X2.390000*%
%ADD12R,3.099999X2.600000*%
%ADD13C,3.100000*%
%ADD14R,4.000000X6.300000*%
%ADD15R,3.400000X4.500000*%
%ADD16R,1.293800X1.293800*%
%ADD17C,2.386000*%
%ADD18C,1.000000*%
%ADD19C,3.656000*%
%ADD20R,1.700200X0.887400*%
%ADD21R,1.700000X1.540000*%
%ADD22R,3.900000X5.060000*%
%ADD23O,2.640000X2.284400*%
%ADD24R,2.640000X2.284400*%
G04 APERTURE END LIST*
D10*
%TO.C,SW1*%
X84580000Y-120470000D03*
X91950000Y-120470000D03*
D11*
X88265000Y-120470000D03*
D12*
X93265000Y-129540000D03*
X83265000Y-129540000D03*
%TD*%
D13*
%TO.C,P1*%
X67945000Y-127175000D03*
D14*
X74395000Y-123375000D03*
X61495000Y-123375000D03*
D15*
X68595000Y-114425000D03*
%TD*%
D16*
%TO.C,L2*%
X83185000Y-113245900D03*
X83185000Y-115354100D03*
%TD*%
%TO.C,L3*%
X83185000Y-108165900D03*
X83185000Y-110274100D03*
%TD*%
%TO.C,L4*%
X83185000Y-103085900D03*
X83185000Y-105194100D03*
%TD*%
%TO.C,L5*%
X88265000Y-113245900D03*
X88265000Y-115354100D03*
%TD*%
%TO.C,L6*%
X88265000Y-108165900D03*
X88265000Y-110274100D03*
%TD*%
%TO.C,L7*%
X88265000Y-103085900D03*
X88265000Y-105194100D03*
%TD*%
%TO.C,L8*%
X93345000Y-113245900D03*
X93345000Y-115354100D03*
%TD*%
%TO.C,L9*%
X93345000Y-108165900D03*
X93345000Y-110274100D03*
%TD*%
%TO.C,L10*%
X93345000Y-103085900D03*
X93345000Y-105194100D03*
%TD*%
D17*
%TO.C,S1*%
X52705000Y-75565000D03*
X52705000Y-78105000D03*
%TD*%
%TO.C,S2*%
X52705000Y-67945000D03*
X52705000Y-70485000D03*
%TD*%
%TO.C,S3*%
X52705000Y-60325000D03*
X52705000Y-62865000D03*
%TD*%
%TO.C,S4*%
X80645000Y-75565000D03*
X80645000Y-78105000D03*
%TD*%
%TO.C,S5*%
X80645000Y-67945000D03*
X80645000Y-70485000D03*
%TD*%
%TO.C,S6*%
X80645000Y-60325000D03*
X80645000Y-62865000D03*
%TD*%
%TO.C,S7*%
X108585000Y-75565000D03*
X108585000Y-78105000D03*
%TD*%
%TO.C,S8*%
X108585000Y-67945000D03*
X108585000Y-70485000D03*
%TD*%
%TO.C,S9*%
X108585000Y-60325000D03*
X108585000Y-62865000D03*
%TD*%
D16*
%TO.C,L1*%
X79375000Y-125310900D03*
X79375000Y-127419100D03*
%TD*%
D18*
%TO.C,FID1*%
X53975000Y-53975000D03*
%TD*%
%TO.C,FID2*%
X122555000Y-53975000D03*
%TD*%
%TO.C,FID3*%
X122555000Y-128270000D03*
%TD*%
%TO.C,FID4*%
X53975000Y-128270000D03*
%TD*%
D19*
%TO.C,MH1*%
X92710000Y-85090000D03*
%TD*%
%TO.C,MH2*%
X64770000Y-56515000D03*
%TD*%
%TO.C,MH3*%
X120650000Y-56515000D03*
%TD*%
D20*
%TO.C,C1*%
X63500000Y-108356400D03*
X63500000Y-106273600D03*
%TD*%
D21*
%TO.C,D1*%
X66880000Y-110095000D03*
X69010000Y-110095000D03*
D22*
X67945000Y-106295000D03*
%TD*%
D23*
%TO.C,TEENSY1*%
X100965000Y-129540000D03*
X100965000Y-127000000D03*
X100965000Y-124460000D03*
X100965000Y-121920000D03*
X100965000Y-119380000D03*
X100965000Y-116840000D03*
X100965000Y-114300000D03*
X100965000Y-111760000D03*
X100965000Y-109220000D03*
X100965000Y-106680000D03*
X100965000Y-104140000D03*
X100965000Y-101600000D03*
X100965000Y-99060000D03*
X100965000Y-96520000D03*
X116205000Y-96520000D03*
X116205000Y-99060000D03*
X116205000Y-101600000D03*
X116205000Y-104140000D03*
X116205000Y-106680000D03*
X116205000Y-109220000D03*
X116205000Y-111760000D03*
X116205000Y-114300000D03*
X116205000Y-116840000D03*
X116205000Y-119380000D03*
X116205000Y-121920000D03*
X116205000Y-124460000D03*
X116205000Y-127000000D03*
D24*
X116205000Y-129540000D03*
%TD*%
M02*
