<?xml version="1.0" standalone="no"?>
 <!DOCTYPE svg PUBLIC "-//W3C//DTD SVG 1.1//EN" 
 "http://www.w3.org/Graphics/SVG/1.1/DTD/svg11.dtd"> 
<svg
  xmlns:svg="http://www.w3.org/2000/svg"
  xmlns="http://www.w3.org/2000/svg"
  xmlns:xlink="http://www.w3.org/1999/xlink"
  version="1.1"
  width="8.803640cm" height="9.906000cm" viewBox="0 0 34660 39000">
<title>SVG Picture created as y_arena_valve_controller-F_SilkS.svg date 2020/07/22 10:08:20 </title>
  <desc>Picture generated by PCBNEW </desc>
<g style="fill:#000000; fill-opacity:1;stroke:#000000; stroke-opacity:1;
stroke-linecap:round; stroke-linejoin:round;"
 transform="translate(0 0) scale(1 1)">
</g>
<g style="fill:#000000; fill-opacity:0.0; 
stroke:#000000; stroke-width:-0.000393701; stroke-opacity:1; 
stroke-linecap:round; stroke-linejoin:round;">
</g>
<g style="fill:#008484; fill-opacity:0.0; 
stroke:#008484; stroke-width:-0.000393701; stroke-opacity:1; 
stroke-linecap:round; stroke-linejoin:round;">
</g>
<g style="fill:#008484; fill-opacity:0.0; 
stroke:#008484; stroke-width:100; stroke-opacity:1; 
stroke-linecap:round; stroke-linejoin:round;">
<text x="29500" y="31200"
textLength="705.952" font-size="533.333" lengthAdjust="spacingAndGlyphs"
text-anchor="middle" opacity="0">1</text>
<path d="M29614 31180
L29385 31180
" />
<path d="M29500 31180
L29500 30780
L29461 30838
L29423 30876
L29385 30895
" />
<text x="29500" y="29200"
textLength="510.952" font-size="533.333" lengthAdjust="spacingAndGlyphs"
text-anchor="middle" opacity="0">2</text>
<path d="M29385 28819
L29404 28800
L29442 28780
L29538 28780
L29576 28800
L29595 28819
L29614 28857
L29614 28895
L29595 28952
L29366 29180
L29614 29180
" />
<text x="29500" y="33200"
textLength="510.952" font-size="533.333" lengthAdjust="spacingAndGlyphs"
text-anchor="middle" opacity="0">0</text>
<path d="M29480 32780
L29519 32780
L29557 32800
L29576 32819
L29595 32857
L29614 32933
L29614 33028
L29595 33104
L29576 33142
L29557 33161
L29519 33180
L29480 33180
L29442 33161
L29423 33142
L29404 33104
L29385 33028
L29385 32933
L29404 32857
L29423 32819
L29442 32800
L29480 32780
" />
<text x="28000" y="27700"
textLength="510.952" font-size="533.333" lengthAdjust="spacingAndGlyphs"
text-anchor="middle" opacity="0">2</text>
<path d="M27885 27319
L27904 27300
L27942 27280
L28038 27280
L28076 27300
L28095 27319
L28114 27357
L28114 27395
L28095 27452
L27866 27680
L28114 27680
" />
<text x="26000" y="27700"
textLength="510.952" font-size="533.333" lengthAdjust="spacingAndGlyphs"
text-anchor="middle" opacity="0">1</text>
<path d="M26114 27680
L25885 27680
" />
<path d="M26000 27680
L26000 27280
L25961 27338
L25923 27376
L25885 27395
" />
<text x="24000" y="27700"
textLength="510.952" font-size="533.333" lengthAdjust="spacingAndGlyphs"
text-anchor="middle" opacity="0">0</text>
<path d="M23980 27280
L24019 27280
L24057 27300
L24076 27319
L24095 27357
L24114 27433
L24114 27528
L24095 27604
L24076 27642
L24057 27661
L24019 27680
L23980 27680
L23942 27661
L23923 27642
L23904 27604
L23885 27528
L23885 27433
L23904 27357
L23923 27319
L23942 27300
L23980 27280
" />
<g transform="rotate(-90 30500 31000)">
<text x="30500" y="31200"
textLength="1844.29" font-size="533.333" lengthAdjust="spacingAndGlyphs"
text-anchor="middle" opacity="0">VALVE</text>
</g>
<path d="M30280 31819
L30680 31685
L30280 31552
" />
<path d="M30566 31438
L30566 31247
" />
<path d="M30680 31476
L30280 31342
L30680 31209
" />
<path d="M30680 30885
L30680 31076
L30280 31076
" />
<path d="M30280 30809
L30680 30676
L30280 30542
" />
<path d="M30471 30409
L30471 30276
" />
<path d="M30680 30219
L30680 30409
L30280 30409
L30280 30219
" />
<text x="26000" y="26700"
textLength="3025.24" font-size="533.333" lengthAdjust="spacingAndGlyphs"
text-anchor="middle" opacity="0">MANIFOLD</text>
<path d="M24647 26680
L24647 26280
L24780 26566
L24914 26280
L24914 26680
" />
<path d="M25085 26566
L25276 26566
" />
<path d="M25047 26680
L25180 26280
L25314 26680
" />
<path d="M25447 26680
L25447 26280
L25676 26680
L25676 26280
" />
<path d="M25866 26680
L25866 26280
" />
<path d="M26190 26471
L26057 26471
" />
<path d="M26057 26680
L26057 26280
L26247 26280
" />
<path d="M26476 26280
L26552 26280
L26590 26300
L26628 26338
L26647 26414
L26647 26547
L26628 26623
L26590 26661
L26552 26680
L26476 26680
L26438 26661
L26400 26623
L26380 26547
L26380 26414
L26400 26338
L26438 26300
L26476 26280
" />
<path d="M27009 26680
L26819 26680
L26819 26280
" />
<path d="M27142 26680
L27142 26280
L27238 26280
L27295 26300
L27333 26338
L27352 26376
L27371 26452
L27371 26509
L27352 26585
L27333 26623
L27295 26661
L27238 26680
L27142 26680
" />
</g>
<g style="fill:#008484; fill-opacity:0.0; 
stroke:#008484; stroke-width:110; stroke-opacity:1; 
stroke-linecap:round; stroke-linejoin:round;">
<path d="M23000 32000
L30000 32000
" />
<path d="M23000 30000
L30000 30000
" />
<path d="M27000 28000
L27000 27000
" />
<path d="M25000 28000
L25000 27000
" />
<path d="M29000 26000
L29000 27000
" />
<path d="M23000 26000
L29000 26000
" />
<path d="M23000 27000
L23000 26000
" />
<path d="M29000 27000
L29000 28000
" />
<path d="M23000 27000
L29000 27000
" />
<path d="M23000 28000
L23000 27000
" />
<path d="M31000 34000
L30000 34000
" />
<path d="M31000 28000
L31000 34000
" />
<path d="M30000 28000
L31000 28000
" />
<path d="M30000 34000
L29000 34000
" />
<path d="M30000 28000
L30000 34000
" />
<path d="M29000 28000
L30000 28000
" />
<path d="M29000 34000
L27000 34000
" />
<path d="M29000 28000
L29000 34000
" />
<path d="M27000 28000
L29000 28000
" />
<path d="M27000 34000
L25000 34000
" />
<path d="M27000 28000
L27000 34000
" />
<path d="M25000 28000
L27000 28000
" />
<path d="M25000 34000
L23000 34000
" />
<path d="M25000 28000
L25000 34000
" />
<path d="M23000 28000
L25000 28000
" />
<path d="M23000 34000
L23000 28000
" />
</g>
<g style="fill:#008484; fill-opacity:0.0; 
stroke:#008484; stroke-width:75; stroke-opacity:1; 
stroke-linecap:round; stroke-linejoin:round;">
<text x="28000" y="32887.5"
textLength="1458.57" font-size="400" lengthAdjust="spacingAndGlyphs"
text-anchor="middle" opacity="0">RELAY</text>
<path d="M27578 32873
L27478 32730
" />
<path d="M27407 32873
L27407 32573
L27521 32573
L27550 32587
L27564 32601
L27578 32630
L27578 32673
L27564 32701
L27550 32716
L27521 32730
L27407 32730
" />
<path d="M27707 32716
L27807 32716
" />
<path d="M27850 32873
L27707 32873
L27707 32573
L27850 32573
" />
<path d="M28121 32873
L27978 32873
L27978 32573
" />
<path d="M28207 32787
L28350 32787
" />
<path d="M28178 32873
L28278 32573
L28378 32873
" />
<path d="M28535 32730
L28535 32873
" />
<path d="M28435 32573
L28535 32730
L28635 32573
" />
<text x="28000" y="33412.5"
textLength="383.214" font-size="400" lengthAdjust="spacingAndGlyphs"
text-anchor="middle" opacity="0">6</text>
<path d="M28057 33098
L28000 33098
L27971 33112
L27957 33126
L27928 33169
L27914 33226
L27914 33341
L27928 33369
L27942 33383
L27971 33398
L28028 33398
L28057 33383
L28071 33369
L28085 33341
L28085 33269
L28071 33241
L28057 33226
L28028 33212
L27971 33212
L27942 33226
L27928 33241
L27914 33269
" />
<text x="26000" y="32887.5"
textLength="1426.07" font-size="400" lengthAdjust="spacingAndGlyphs"
text-anchor="middle" opacity="0">RELAY</text>
<path d="M25578 32873
L25478 32730
" />
<path d="M25407 32873
L25407 32573
L25521 32573
L25550 32587
L25564 32601
L25578 32630
L25578 32673
L25564 32701
L25550 32716
L25521 32730
L25407 32730
" />
<path d="M25707 32716
L25807 32716
" />
<path d="M25850 32873
L25707 32873
L25707 32573
L25850 32573
" />
<path d="M26121 32873
L25978 32873
L25978 32573
" />
<path d="M26207 32787
L26350 32787
" />
<path d="M26178 32873
L26278 32573
L26378 32873
" />
<path d="M26535 32730
L26535 32873
" />
<path d="M26435 32573
L26535 32730
L26635 32573
" />
<text x="26000" y="33412.5"
textLength="383.214" font-size="400" lengthAdjust="spacingAndGlyphs"
text-anchor="middle" opacity="0">3</text>
<path d="M25900 33098
L26085 33098
L25985 33212
L26028 33212
L26057 33226
L26071 33241
L26085 33269
L26085 33341
L26071 33369
L26057 33383
L26028 33398
L25942 33398
L25914 33383
L25900 33369
" />
<text x="28000" y="30887.5"
textLength="1426.07" font-size="400" lengthAdjust="spacingAndGlyphs"
text-anchor="middle" opacity="0">RELAY</text>
<path d="M27578 30873
L27478 30730
" />
<path d="M27407 30873
L27407 30573
L27521 30573
L27550 30587
L27564 30601
L27578 30630
L27578 30673
L27564 30701
L27550 30716
L27521 30730
L27407 30730
" />
<path d="M27707 30716
L27807 30716
" />
<path d="M27850 30873
L27707 30873
L27707 30573
L27850 30573
" />
<path d="M28121 30873
L27978 30873
L27978 30573
" />
<path d="M28207 30787
L28350 30787
" />
<path d="M28178 30873
L28278 30573
L28378 30873
" />
<path d="M28535 30730
L28535 30873
" />
<path d="M28435 30573
L28535 30730
L28635 30573
" />
<text x="28000" y="31412.5"
textLength="383.214" font-size="400" lengthAdjust="spacingAndGlyphs"
text-anchor="middle" opacity="0">7</text>
<path d="M27900 31098
L28100 31098
L27971 31398
" />
<text x="26000" y="30887.5"
textLength="1426.07" font-size="400" lengthAdjust="spacingAndGlyphs"
text-anchor="middle" opacity="0">RELAY</text>
<path d="M25578 30873
L25478 30730
" />
<path d="M25407 30873
L25407 30573
L25521 30573
L25550 30587
L25564 30601
L25578 30630
L25578 30673
L25564 30701
L25550 30716
L25521 30730
L25407 30730
" />
<path d="M25707 30716
L25807 30716
" />
<path d="M25850 30873
L25707 30873
L25707 30573
L25850 30573
" />
<path d="M26121 30873
L25978 30873
L25978 30573
" />
<path d="M26207 30787
L26350 30787
" />
<path d="M26178 30873
L26278 30573
L26378 30873
" />
<path d="M26535 30730
L26535 30873
" />
<path d="M26435 30573
L26535 30730
L26635 30573
" />
<text x="26000" y="31412.5"
textLength="383.214" font-size="400" lengthAdjust="spacingAndGlyphs"
text-anchor="middle" opacity="0">4</text>
<path d="M26057 31198
L26057 31398
" />
<path d="M25985 31083
L25914 31298
L26100 31298
" />
<text x="28000" y="28887.5"
textLength="1426.07" font-size="400" lengthAdjust="spacingAndGlyphs"
text-anchor="middle" opacity="0">RELAY</text>
<path d="M27578 28873
L27478 28730
" />
<path d="M27407 28873
L27407 28573
L27521 28573
L27550 28587
L27564 28601
L27578 28630
L27578 28673
L27564 28701
L27550 28716
L27521 28730
L27407 28730
" />
<path d="M27707 28716
L27807 28716
" />
<path d="M27850 28873
L27707 28873
L27707 28573
L27850 28573
" />
<path d="M28121 28873
L27978 28873
L27978 28573
" />
<path d="M28207 28787
L28350 28787
" />
<path d="M28178 28873
L28278 28573
L28378 28873
" />
<path d="M28535 28730
L28535 28873
" />
<path d="M28435 28573
L28535 28730
L28635 28573
" />
<text x="28000" y="29412.5"
textLength="383.214" font-size="400" lengthAdjust="spacingAndGlyphs"
text-anchor="middle" opacity="0">8</text>
<path d="M27971 29226
L27942 29212
L27928 29198
L27914 29169
L27914 29155
L27928 29126
L27942 29112
L27971 29098
L28028 29098
L28057 29112
L28071 29126
L28085 29155
L28085 29169
L28071 29198
L28057 29212
L28028 29226
L27971 29226
L27942 29241
L27928 29255
L27914 29283
L27914 29341
L27928 29369
L27942 29383
L27971 29398
L28028 29398
L28057 29383
L28071 29369
L28085 29341
L28085 29283
L28071 29255
L28057 29241
L28028 29226
" />
<text x="26000" y="28887.5"
textLength="1426.07" font-size="400" lengthAdjust="spacingAndGlyphs"
text-anchor="middle" opacity="0">RELAY</text>
<path d="M25578 28873
L25478 28730
" />
<path d="M25407 28873
L25407 28573
L25521 28573
L25550 28587
L25564 28601
L25578 28630
L25578 28673
L25564 28701
L25550 28716
L25521 28730
L25407 28730
" />
<path d="M25707 28716
L25807 28716
" />
<path d="M25850 28873
L25707 28873
L25707 28573
L25850 28573
" />
<path d="M26121 28873
L25978 28873
L25978 28573
" />
<path d="M26207 28787
L26350 28787
" />
<path d="M26178 28873
L26278 28573
L26378 28873
" />
<path d="M26535 28730
L26535 28873
" />
<path d="M26435 28573
L26535 28730
L26635 28573
" />
<text x="26000" y="29412.5"
textLength="383.214" font-size="400" lengthAdjust="spacingAndGlyphs"
text-anchor="middle" opacity="0">5</text>
<path d="M26071 29098
L25928 29098
L25914 29241
L25928 29226
L25957 29212
L26028 29212
L26057 29226
L26071 29241
L26085 29269
L26085 29341
L26071 29369
L26057 29383
L26028 29398
L25957 29398
L25928 29383
L25914 29369
" />
<text x="24000" y="28887.5"
textLength="1426.07" font-size="400" lengthAdjust="spacingAndGlyphs"
text-anchor="middle" opacity="0">RELAY</text>
<path d="M23578 28873
L23478 28730
" />
<path d="M23407 28873
L23407 28573
L23521 28573
L23550 28587
L23564 28601
L23578 28630
L23578 28673
L23564 28701
L23550 28716
L23521 28730
L23407 28730
" />
<path d="M23707 28716
L23807 28716
" />
<path d="M23850 28873
L23707 28873
L23707 28573
L23850 28573
" />
<path d="M24121 28873
L23978 28873
L23978 28573
" />
<path d="M24207 28787
L24350 28787
" />
<path d="M24178 28873
L24278 28573
L24378 28873
" />
<path d="M24535 28730
L24535 28873
" />
<path d="M24435 28573
L24535 28730
L24635 28573
" />
<text x="24000" y="29412.5"
textLength="383.214" font-size="400" lengthAdjust="spacingAndGlyphs"
text-anchor="middle" opacity="0">2</text>
<path d="M23914 29126
L23928 29112
L23957 29098
L24028 29098
L24057 29112
L24071 29126
L24085 29155
L24085 29183
L24071 29226
L23900 29398
L24085 29398
" />
<text x="24000" y="30887.5"
textLength="1426.07" font-size="400" lengthAdjust="spacingAndGlyphs"
text-anchor="middle" opacity="0">RELAY</text>
<path d="M23578 30873
L23478 30730
" />
<path d="M23407 30873
L23407 30573
L23521 30573
L23550 30587
L23564 30601
L23578 30630
L23578 30673
L23564 30701
L23550 30716
L23521 30730
L23407 30730
" />
<path d="M23707 30716
L23807 30716
" />
<path d="M23850 30873
L23707 30873
L23707 30573
L23850 30573
" />
<path d="M24121 30873
L23978 30873
L23978 30573
" />
<path d="M24207 30787
L24350 30787
" />
<path d="M24178 30873
L24278 30573
L24378 30873
" />
<path d="M24535 30730
L24535 30873
" />
<path d="M24435 30573
L24535 30730
L24635 30573
" />
<text x="24000" y="31412.5"
textLength="383.214" font-size="400" lengthAdjust="spacingAndGlyphs"
text-anchor="middle" opacity="0">1</text>
<path d="M24085 31398
L23914 31398
" />
<path d="M24000 31398
L24000 31098
L23971 31141
L23942 31169
L23914 31183
" />
<text x="24000" y="32887.5"
textLength="1426.07" font-size="400" lengthAdjust="spacingAndGlyphs"
text-anchor="middle" opacity="0">RELAY</text>
<path d="M23578 32873
L23478 32730
" />
<path d="M23407 32873
L23407 32573
L23521 32573
L23550 32587
L23564 32601
L23578 32630
L23578 32673
L23564 32701
L23550 32716
L23521 32730
L23407 32730
" />
<path d="M23707 32716
L23807 32716
" />
<path d="M23850 32873
L23707 32873
L23707 32573
L23850 32573
" />
<path d="M24121 32873
L23978 32873
L23978 32573
" />
<path d="M24207 32787
L24350 32787
" />
<path d="M24178 32873
L24278 32573
L24378 32873
" />
<path d="M24535 32730
L24535 32873
" />
<path d="M24435 32573
L24535 32730
L24635 32573
" />
<text x="24000" y="33412.5"
textLength="383.214" font-size="400" lengthAdjust="spacingAndGlyphs"
text-anchor="middle" opacity="0">0</text>
<path d="M23985 33098
L24014 33098
L24042 33112
L24057 33126
L24071 33155
L24085 33212
L24085 33283
L24071 33341
L24057 33369
L24042 33383
L24014 33398
L23985 33398
L23957 33383
L23942 33369
L23928 33341
L23914 33283
L23914 33212
L23928 33155
L23942 33126
L23957 33112
L23985 33098
" />
</g>
<g style="fill:#008484; fill-opacity:0.0; 
stroke:#008484; stroke-width:110; stroke-opacity:1; 
stroke-linecap:round; stroke-linejoin:round;">
<circle cx="28000" cy="29000" r="1000" /> 
<circle cx="28000" cy="31000" r="1000" /> 
<circle cx="26000" cy="29000" r="1000" /> 
<circle cx="26000" cy="31000" r="1000" /> 
<circle cx="28000" cy="33000" r="1000" /> 
<circle cx="26000" cy="33000" r="1000" /> 
<circle cx="24000" cy="29000" r="1000" /> 
<circle cx="24000" cy="31000" r="1000" /> 
<circle cx="24000" cy="33000" r="1000" /> 
</g>
<g style="fill:#008484; fill-opacity:0.0; 
stroke:#008484; stroke-width:150; stroke-opacity:1; 
stroke-linecap:round; stroke-linejoin:round;">
<g transform="rotate(-90 7450 31000)">
<text x="7450" y="31300"
textLength="11097.5" font-size="800" lengthAdjust="spacingAndGlyphs"
text-anchor="middle" opacity="0">y_arena_valve_controller</text>
</g>
<path d="M7321 36414
L7721 36271
" />
<path d="M7321 36128
L7721 36271
L7864 36328
L7892 36357
L7921 36414
" />
<path d="M7778 36042
L7778 35585
" />
<path d="M7721 35185
L7407 35185
L7350 35214
L7321 35271
L7321 35385
L7350 35442
" />
<path d="M7692 35185
L7721 35242
L7721 35385
L7692 35442
L7635 35471
L7578 35471
L7521 35442
L7492 35385
L7492 35242
L7464 35185
" />
<path d="M7721 34900
L7321 34900
" />
<path d="M7435 34900
L7378 34871
L7350 34842
L7321 34785
L7321 34728
" />
<path d="M7692 34300
L7721 34357
L7721 34471
L7692 34528
L7635 34557
L7407 34557
L7350 34528
L7321 34471
L7321 34357
L7350 34300
L7407 34271
L7464 34271
L7521 34557
" />
<path d="M7321 34014
L7721 34014
" />
<path d="M7378 34014
L7350 33985
L7321 33928
L7321 33842
L7350 33785
L7407 33757
L7721 33757
" />
<path d="M7721 33214
L7407 33214
L7350 33242
L7321 33300
L7321 33414
L7350 33471
" />
<path d="M7692 33214
L7721 33271
L7721 33414
L7692 33471
L7635 33500
L7578 33500
L7521 33471
L7492 33414
L7492 33271
L7464 33214
" />
<path d="M7778 33071
L7778 32614
" />
<path d="M7321 32528
L7721 32385
L7321 32242
" />
<path d="M7721 31757
L7407 31757
L7350 31785
L7321 31842
L7321 31957
L7350 32014
" />
<path d="M7692 31757
L7721 31814
L7721 31957
L7692 32014
L7635 32042
L7578 32042
L7521 32014
L7492 31957
L7492 31814
L7464 31757
" />
<path d="M7721 31385
L7692 31442
L7635 31471
L7121 31471
" />
<path d="M7321 31214
L7721 31071
L7321 30928
" />
<path d="M7692 30471
L7721 30528
L7721 30642
L7692 30700
L7635 30728
L7407 30728
L7350 30700
L7321 30642
L7321 30528
L7350 30471
L7407 30442
L7464 30442
L7521 30728
" />
<path d="M7778 30328
L7778 29871
" />
<path d="M7692 29471
L7721 29528
L7721 29642
L7692 29700
L7664 29728
L7607 29757
L7435 29757
L7378 29728
L7350 29700
L7321 29642
L7321 29528
L7350 29471
" />
<path d="M7721 29128
L7692 29185
L7664 29214
L7607 29242
L7435 29242
L7378 29214
L7350 29185
L7321 29128
L7321 29042
L7350 28985
L7378 28957
L7435 28928
L7607 28928
L7664 28957
L7692 28985
L7721 29042
L7721 29128
" />
<path d="M7321 28671
L7721 28671
" />
<path d="M7378 28671
L7350 28642
L7321 28585
L7321 28500
L7350 28442
L7407 28414
L7721 28414
" />
<path d="M7321 28214
L7321 27985
" />
<path d="M7121 28128
L7635 28128
L7692 28100
L7721 28042
L7721 27985
" />
<path d="M7721 27785
L7321 27785
" />
<path d="M7435 27785
L7378 27757
L7350 27728
L7321 27671
L7321 27614
" />
<path d="M7721 27328
L7692 27385
L7664 27414
L7607 27442
L7435 27442
L7378 27414
L7350 27385
L7321 27328
L7321 27242
L7350 27185
L7378 27157
L7435 27128
L7607 27128
L7664 27157
L7692 27185
L7721 27242
L7721 27328
" />
<path d="M7721 26785
L7692 26842
L7635 26871
L7121 26871
" />
<path d="M7721 26471
L7692 26528
L7635 26557
L7121 26557
" />
<path d="M7692 26014
L7721 26071
L7721 26185
L7692 26242
L7635 26271
L7407 26271
L7350 26242
L7321 26185
L7321 26071
L7350 26014
L7407 25985
L7464 25985
L7521 26271
" />
<path d="M7721 25728
L7321 25728
" />
<path d="M7435 25728
L7378 25700
L7350 25671
L7321 25614
L7321 25557
" />
<g transform="rotate(-90 8500 31000)">
<text x="8500" y="31300"
textLength="11909.3" font-size="800" lengthAdjust="spacingAndGlyphs"
text-anchor="middle" opacity="0">Janelia Research Campus</text>
</g>
<path d="M8171 36542
L8600 36542
L8685 36571
L8742 36628
L8771 36714
L8771 36771
" />
<path d="M8771 36000
L8457 36000
L8400 36028
L8371 36085
L8371 36200
L8400 36257
" />
<path d="M8742 36000
L8771 36057
L8771 36200
L8742 36257
L8685 36285
L8628 36285
L8571 36257
L8542 36200
L8542 36057
L8514 36000
" />
<path d="M8371 35714
L8771 35714
" />
<path d="M8428 35714
L8400 35685
L8371 35628
L8371 35542
L8400 35485
L8457 35457
L8771 35457
" />
<path d="M8742 34942
L8771 35000
L8771 35114
L8742 35171
L8685 35200
L8457 35200
L8400 35171
L8371 35114
L8371 35000
L8400 34942
L8457 34914
L8514 34914
L8571 35200
" />
<path d="M8771 34571
L8742 34628
L8685 34657
L8171 34657
" />
<path d="M8771 34342
L8371 34342
" />
<path d="M8171 34342
L8200 34371
L8228 34342
L8200 34314
L8171 34342
L8228 34342
" />
<path d="M8771 33800
L8457 33800
L8400 33828
L8371 33885
L8371 34000
L8400 34057
" />
<path d="M8742 33800
L8771 33857
L8771 34000
L8742 34057
L8685 34085
L8628 34085
L8571 34057
L8542 34000
L8542 33857
L8514 33800
" />
<path d="M8771 32714
L8485 32914
" />
<path d="M8771 33057
L8171 33057
L8171 32828
L8200 32771
L8228 32742
L8285 32714
L8371 32714
L8428 32742
L8457 32771
L8485 32828
L8485 33057
" />
<path d="M8742 32228
L8771 32285
L8771 32400
L8742 32457
L8685 32485
L8457 32485
L8400 32457
L8371 32400
L8371 32285
L8400 32228
L8457 32200
L8514 32200
L8571 32485
" />
<path d="M8742 31971
L8771 31914
L8771 31800
L8742 31742
L8685 31714
L8657 31714
L8600 31742
L8571 31800
L8571 31885
L8542 31942
L8485 31971
L8457 31971
L8400 31942
L8371 31885
L8371 31800
L8400 31742
" />
<path d="M8742 31228
L8771 31285
L8771 31400
L8742 31457
L8685 31485
L8457 31485
L8400 31457
L8371 31400
L8371 31285
L8400 31228
L8457 31200
L8514 31200
L8571 31485
" />
<path d="M8771 30685
L8457 30685
L8400 30714
L8371 30771
L8371 30885
L8400 30942
" />
<path d="M8742 30685
L8771 30742
L8771 30885
L8742 30942
L8685 30971
L8628 30971
L8571 30942
L8542 30885
L8542 30742
L8514 30685
" />
<path d="M8771 30400
L8371 30400
" />
<path d="M8485 30400
L8428 30371
L8400 30342
L8371 30285
L8371 30228
" />
<path d="M8742 29771
L8771 29828
L8771 29942
L8742 30000
L8714 30028
L8657 30057
L8485 30057
L8428 30028
L8400 30000
L8371 29942
L8371 29828
L8400 29771
" />
<path d="M8771 29514
L8171 29514
" />
<path d="M8771 29257
L8457 29257
L8400 29285
L8371 29342
L8371 29428
L8400 29485
L8428 29514
" />
<path d="M8714 28171
L8742 28200
L8771 28285
L8771 28342
L8742 28428
L8685 28485
L8628 28514
L8514 28542
L8428 28542
L8314 28514
L8257 28485
L8200 28428
L8171 28342
L8171 28285
L8200 28200
L8228 28171
" />
<path d="M8771 27657
L8457 27657
L8400 27685
L8371 27742
L8371 27857
L8400 27914
" />
<path d="M8742 27657
L8771 27714
L8771 27857
L8742 27914
L8685 27942
L8628 27942
L8571 27914
L8542 27857
L8542 27714
L8514 27657
" />
<path d="M8771 27371
L8371 27371
" />
<path d="M8428 27371
L8400 27342
L8371 27285
L8371 27200
L8400 27142
L8457 27114
L8771 27114
" />
<path d="M8457 27114
L8400 27085
L8371 27028
L8371 26942
L8400 26885
L8457 26857
L8771 26857
" />
<path d="M8371 26571
L8971 26571
" />
<path d="M8400 26571
L8371 26514
L8371 26400
L8400 26342
L8428 26314
L8485 26285
L8657 26285
L8714 26314
L8742 26342
L8771 26400
L8771 26514
L8742 26571
" />
<path d="M8371 25771
L8771 25771
" />
<path d="M8371 26028
L8685 26028
L8742 26000
L8771 25942
L8771 25857
L8742 25800
L8714 25771
" />
<path d="M8742 25514
L8771 25457
L8771 25342
L8742 25285
L8685 25257
L8657 25257
L8600 25285
L8571 25342
L8571 25428
L8542 25485
L8485 25514
L8457 25514
L8400 25485
L8371 25428
L8371 25342
L8400 25285
" />
<g transform="rotate(-90 9550 31000)">
<text x="9550" y="31300"
textLength="9709.29" font-size="800" lengthAdjust="spacingAndGlyphs"
text-anchor="middle" opacity="0">07/22/2020 ver 1.1</text>
</g>
<path d="M9221 35500
L9221 35442
L9250 35385
L9278 35357
L9335 35328
L9450 35300
L9592 35300
L9707 35328
L9764 35357
L9792 35385
L9821 35442
L9821 35500
L9792 35557
L9764 35585
L9707 35614
L9592 35642
L9450 35642
L9335 35614
L9278 35585
L9250 35557
L9221 35500
" />
<path d="M9221 35100
L9221 34700
L9821 34957
" />
<path d="M9192 34042
L9964 34557
" />
<path d="M9278 33871
L9250 33842
L9221 33785
L9221 33642
L9250 33585
L9278 33557
L9335 33528
L9392 33528
L9478 33557
L9821 33900
L9821 33528
" />
<path d="M9278 33300
L9250 33271
L9221 33214
L9221 33071
L9250 33014
L9278 32985
L9335 32957
L9392 32957
L9478 32985
L9821 33328
L9821 32957
" />
<path d="M9192 32271
L9964 32785
" />
<path d="M9278 32100
L9250 32071
L9221 32014
L9221 31871
L9250 31814
L9278 31785
L9335 31757
L9392 31757
L9478 31785
L9821 32128
L9821 31757
" />
<path d="M9221 31385
L9221 31328
L9250 31271
L9278 31242
L9335 31214
L9450 31185
L9592 31185
L9707 31214
L9764 31242
L9792 31271
L9821 31328
L9821 31385
L9792 31442
L9764 31471
L9707 31500
L9592 31528
L9450 31528
L9335 31500
L9278 31471
L9250 31442
L9221 31385
" />
<path d="M9278 30957
L9250 30928
L9221 30871
L9221 30728
L9250 30671
L9278 30642
L9335 30614
L9392 30614
L9478 30642
L9821 30985
L9821 30614
" />
<path d="M9221 30242
L9221 30185
L9250 30128
L9278 30100
L9335 30071
L9450 30042
L9592 30042
L9707 30071
L9764 30100
L9792 30128
L9821 30185
L9821 30242
L9792 30300
L9764 30328
L9707 30357
L9592 30385
L9450 30385
L9335 30357
L9278 30328
L9250 30300
L9221 30242
" />
<path d="M9421 29385
L9821 29242
L9421 29100
" />
<path d="M9792 28642
L9821 28700
L9821 28814
L9792 28871
L9735 28900
L9507 28900
L9450 28871
L9421 28814
L9421 28700
L9450 28642
L9507 28614
L9564 28614
L9621 28900
" />
<path d="M9821 28357
L9421 28357
" />
<path d="M9535 28357
L9478 28328
L9450 28300
L9421 28242
L9421 28185
" />
<path d="M9821 27214
L9821 27557
" />
<path d="M9821 27385
L9221 27385
L9307 27442
L9364 27500
L9392 27557
" />
<path d="M9764 26957
L9792 26928
L9821 26957
L9792 26985
L9764 26957
L9821 26957
" />
<path d="M9821 26357
L9821 26700
" />
<path d="M9821 26528
L9221 26528
L9307 26585
L9364 26642
L9392 26700
" />
<text x="25000" y="35000"
textLength="3537.86" font-size="800" lengthAdjust="spacingAndGlyphs"
text-anchor="middle" opacity="0">2.1x5.5</text>
<path d="M23442 34428
L23471 34400
L23528 34371
L23671 34371
L23728 34400
L23757 34428
L23785 34485
L23785 34542
L23757 34628
L23414 34971
L23785 34971
" />
<path d="M24042 34914
L24071 34942
L24042 34971
L24014 34942
L24042 34914
L24042 34971
" />
<path d="M24642 34971
L24300 34971
" />
<path d="M24471 34971
L24471 34371
L24414 34457
L24357 34514
L24300 34542
" />
<path d="M24842 34971
L25157 34571
" />
<path d="M24842 34571
L25157 34971
" />
<path d="M25671 34371
L25385 34371
L25357 34657
L25385 34628
L25442 34600
L25585 34600
L25642 34628
L25671 34657
L25700 34714
L25700 34857
L25671 34914
L25642 34942
L25585 34971
L25442 34971
L25385 34942
L25357 34914
" />
<path d="M25957 34914
L25985 34942
L25957 34971
L25928 34942
L25957 34914
L25957 34971
" />
<path d="M26528 34371
L26242 34371
L26214 34657
L26242 34628
L26300 34600
L26442 34600
L26500 34628
L26528 34657
L26557 34714
L26557 34857
L26528 34914
L26500 34942
L26442 34971
L26300 34971
L26242 34942
L26214 34914
" />
<text x="25000" y="36050"
textLength="4280.71" font-size="800" lengthAdjust="spacingAndGlyphs"
text-anchor="middle" opacity="0">Center +</text>
<path d="M23442 35964
L23414 35992
L23328 36021
L23271 36021
L23185 35992
L23128 35935
L23100 35878
L23071 35764
L23071 35678
L23100 35564
L23128 35507
L23185 35450
L23271 35421
L23328 35421
L23414 35450
L23442 35478
" />
<path d="M23928 35992
L23871 36021
L23757 36021
L23700 35992
L23671 35935
L23671 35707
L23700 35650
L23757 35621
L23871 35621
L23928 35650
L23957 35707
L23957 35764
L23671 35821
" />
<path d="M24214 35621
L24214 36021
" />
<path d="M24214 35678
L24242 35650
L24300 35621
L24385 35621
L24442 35650
L24471 35707
L24471 36021
" />
<path d="M24671 35621
L24900 35621
" />
<path d="M24757 35421
L24757 35935
L24785 35992
L24842 36021
L24900 36021
" />
<path d="M25328 35992
L25271 36021
L25157 36021
L25100 35992
L25071 35935
L25071 35707
L25100 35650
L25157 35621
L25271 35621
L25328 35650
L25357 35707
L25357 35764
L25071 35821
" />
<path d="M25614 36021
L25614 35621
" />
<path d="M25614 35735
L25642 35678
L25671 35650
L25728 35621
L25785 35621
" />
<path d="M26442 35792
L26900 35792
" />
<path d="M26671 36021
L26671 35564
" />
<text x="25000" y="37100"
textLength="3795" font-size="800" lengthAdjust="spacingAndGlyphs"
text-anchor="middle" opacity="0">+12VDC</text>
<path d="M23342 36842
L23800 36842
" />
<path d="M23571 37071
L23571 36614
" />
<path d="M24400 37071
L24057 37071
" />
<path d="M24228 37071
L24228 36471
L24171 36557
L24114 36614
L24057 36642
" />
<path d="M24628 36528
L24657 36500
L24714 36471
L24857 36471
L24914 36500
L24942 36528
L24971 36585
L24971 36642
L24942 36728
L24600 37071
L24971 37071
" />
<path d="M25142 36471
L25342 37071
L25542 36471
" />
<path d="M25742 37071
L25742 36471
L25885 36471
L25971 36500
L26028 36557
L26057 36614
L26085 36728
L26085 36814
L26057 36928
L26028 36985
L25971 37042
L25885 37071
L25742 37071
" />
<path d="M26685 37014
L26657 37042
L26571 37071
L26514 37071
L26428 37042
L26371 36985
L26342 36928
L26314 36814
L26314 36728
L26342 36614
L26371 36557
L26428 36500
L26514 36471
L26571 36471
L26657 36500
L26685 36528
" />
</g>
<g style="fill:#008484; fill-opacity:0.0; 
stroke:#008484; stroke-width:110; stroke-opacity:1; 
stroke-linecap:round; stroke-linejoin:round;">
<path d="M27840 13720
L27840 10780
" />
<path d="M29840 13720
L29840 10780
" />
<path d="M30840 10780
L27040 10780
" />
<path d="M30840 13720
L27040 13720
" />
<path d="M30840 13720
L30840 10780
" />
</g>
<g style="fill:#008484; fill-opacity:0.0; 
stroke:#008484; stroke-width:59.0551; stroke-opacity:1; 
stroke-linecap:round; stroke-linejoin:round;">
<circle cx="24750" cy="12750" r="500" /> 
<circle cx="24750" cy="11750" r="500" /> 
</g>
<g style="fill:#008484; fill-opacity:0.0; 
stroke:#008484; stroke-width:110; stroke-opacity:1; 
stroke-linecap:round; stroke-linejoin:round;">
<circle cx="25550" cy="12250" r="1470" /> 
<path d="M25550 13720
L27040 13720
" />
<path d="M27040 13720
L27040 10780
" />
<path d="M27040 10780
L25550 10780
" />
<path d="M5840 13720
L5840 10780
" />
<path d="M7840 13720
L7840 10780
" />
<path d="M8840 10780
L5040 10780
" />
<path d="M8840 13720
L5040 13720
" />
<path d="M8840 13720
L8840 10780
" />
</g>
<g style="fill:#008484; fill-opacity:0.0; 
stroke:#008484; stroke-width:59.0551; stroke-opacity:1; 
stroke-linecap:round; stroke-linejoin:round;">
<circle cx="2750" cy="12750" r="500" /> 
<circle cx="2750" cy="11750" r="500" /> 
</g>
<g style="fill:#008484; fill-opacity:0.0; 
stroke:#008484; stroke-width:110; stroke-opacity:1; 
stroke-linecap:round; stroke-linejoin:round;">
<circle cx="3550" cy="12250" r="1470" /> 
<path d="M3550 13720
L5040 13720
" />
<path d="M5040 13720
L5040 10780
" />
<path d="M5040 10780
L3550 10780
" />
<path d="M5840 10720
L5840 7780
" />
<path d="M7840 10720
L7840 7780
" />
<path d="M8840 7780
L5040 7780
" />
<path d="M8840 10720
L5040 10720
" />
<path d="M8840 10720
L8840 7780
" />
</g>
<g style="fill:#008484; fill-opacity:0.0; 
stroke:#008484; stroke-width:59.0551; stroke-opacity:1; 
stroke-linecap:round; stroke-linejoin:round;">
<circle cx="2750" cy="9750" r="500" /> 
<circle cx="2750" cy="8750" r="500" /> 
</g>
<g style="fill:#008484; fill-opacity:0.0; 
stroke:#008484; stroke-width:110; stroke-opacity:1; 
stroke-linecap:round; stroke-linejoin:round;">
<circle cx="3550" cy="9250" r="1470" /> 
<path d="M3550 10720
L5040 10720
" />
<path d="M5040 10720
L5040 7780
" />
<path d="M5040 7780
L3550 7780
" />
<path d="M5840 7720
L5840 4780
" />
<path d="M7840 7720
L7840 4780
" />
<path d="M8840 4780
L5040 4780
" />
<path d="M8840 7720
L5040 7720
" />
<path d="M8840 7720
L8840 4780
" />
</g>
<g style="fill:#008484; fill-opacity:0.0; 
stroke:#008484; stroke-width:59.0551; stroke-opacity:1; 
stroke-linecap:round; stroke-linejoin:round;">
<circle cx="2750" cy="6750" r="500" /> 
<circle cx="2750" cy="5750" r="500" /> 
</g>
<g style="fill:#008484; fill-opacity:0.0; 
stroke:#008484; stroke-width:110; stroke-opacity:1; 
stroke-linecap:round; stroke-linejoin:round;">
<circle cx="3550" cy="6250" r="1470" /> 
<path d="M3550 7720
L5040 7720
" />
<path d="M5040 7720
L5040 4780
" />
<path d="M5040 4780
L3550 4780
" />
<path d="M16840 13720
L16840 10780
" />
<path d="M18840 13720
L18840 10780
" />
<path d="M19840 10780
L16040 10780
" />
<path d="M19840 13720
L16040 13720
" />
<path d="M19840 13720
L19840 10780
" />
</g>
<g style="fill:#008484; fill-opacity:0.0; 
stroke:#008484; stroke-width:59.0551; stroke-opacity:1; 
stroke-linecap:round; stroke-linejoin:round;">
<circle cx="13750" cy="12750" r="500" /> 
<circle cx="13750" cy="11750" r="500" /> 
</g>
<g style="fill:#008484; fill-opacity:0.0; 
stroke:#008484; stroke-width:110; stroke-opacity:1; 
stroke-linecap:round; stroke-linejoin:round;">
<circle cx="14550" cy="12250" r="1470" /> 
<path d="M14550 13720
L16040 13720
" />
<path d="M16040 13720
L16040 10780
" />
<path d="M16040 10780
L14550 10780
" />
<path d="M16840 10720
L16840 7780
" />
<path d="M18840 10720
L18840 7780
" />
<path d="M19840 7780
L16040 7780
" />
<path d="M19840 10720
L16040 10720
" />
<path d="M19840 10720
L19840 7780
" />
</g>
<g style="fill:#008484; fill-opacity:0.0; 
stroke:#008484; stroke-width:59.0551; stroke-opacity:1; 
stroke-linecap:round; stroke-linejoin:round;">
<circle cx="13750" cy="9750" r="500" /> 
<circle cx="13750" cy="8750" r="500" /> 
</g>
<g style="fill:#008484; fill-opacity:0.0; 
stroke:#008484; stroke-width:110; stroke-opacity:1; 
stroke-linecap:round; stroke-linejoin:round;">
<circle cx="14550" cy="9250" r="1470" /> 
<path d="M14550 10720
L16040 10720
" />
<path d="M16040 10720
L16040 7780
" />
<path d="M16040 7780
L14550 7780
" />
<path d="M16840 7720
L16840 4780
" />
<path d="M18840 7720
L18840 4780
" />
<path d="M19840 4780
L16040 4780
" />
<path d="M19840 7720
L16040 7720
" />
<path d="M19840 7720
L19840 4780
" />
</g>
<g style="fill:#008484; fill-opacity:0.0; 
stroke:#008484; stroke-width:59.0551; stroke-opacity:1; 
stroke-linecap:round; stroke-linejoin:round;">
<circle cx="13750" cy="6750" r="500" /> 
<circle cx="13750" cy="5750" r="500" /> 
</g>
<g style="fill:#008484; fill-opacity:0.0; 
stroke:#008484; stroke-width:110; stroke-opacity:1; 
stroke-linecap:round; stroke-linejoin:round;">
<circle cx="14550" cy="6250" r="1470" /> 
<path d="M14550 7720
L16040 7720
" />
<path d="M16040 7720
L16040 4780
" />
<path d="M16040 4780
L14550 4780
" />
<path d="M27840 10720
L27840 7780
" />
<path d="M29840 10720
L29840 7780
" />
<path d="M30840 7780
L27040 7780
" />
<path d="M30840 10720
L27040 10720
" />
<path d="M30840 10720
L30840 7780
" />
</g>
<g style="fill:#008484; fill-opacity:0.0; 
stroke:#008484; stroke-width:59.0551; stroke-opacity:1; 
stroke-linecap:round; stroke-linejoin:round;">
<circle cx="24750" cy="9750" r="500" /> 
<circle cx="24750" cy="8750" r="500" /> 
</g>
<g style="fill:#008484; fill-opacity:0.0; 
stroke:#008484; stroke-width:110; stroke-opacity:1; 
stroke-linecap:round; stroke-linejoin:round;">
<circle cx="25550" cy="9250" r="1470" /> 
<path d="M25550 10720
L27040 10720
" />
<path d="M27040 10720
L27040 7780
" />
<path d="M27040 7780
L25550 7780
" />
<path d="M27840 7720
L27840 4780
" />
<path d="M29840 7720
L29840 4780
" />
<path d="M30840 4780
L27040 4780
" />
<path d="M30840 7720
L27040 7720
" />
<path d="M30840 7720
L30840 4780
" />
</g>
<g style="fill:#008484; fill-opacity:0.0; 
stroke:#008484; stroke-width:59.0551; stroke-opacity:1; 
stroke-linecap:round; stroke-linejoin:round;">
<circle cx="24750" cy="6750" r="500" /> 
<circle cx="24750" cy="5750" r="500" /> 
</g>
<g style="fill:#008484; fill-opacity:0.0; 
stroke:#008484; stroke-width:110; stroke-opacity:1; 
stroke-linecap:round; stroke-linejoin:round;">
<circle cx="25550" cy="6250" r="1470" /> 
<path d="M25550 7720
L27040 7720
" />
<path d="M27040 7720
L27040 4780
" />
<path d="M27040 4780
L25550 4780
" />
<path d="M13500 27000
L13500 30000
" />
<path d="M13500 27000
L12750 27000
" />
<path d="M12750 30000
L13500 30000
" />
<path d="M10750 37000
L12750 37000
" />
<path d="M12750 36000
L13250 35500
" />
<path d="M12750 37000
L12750 20000
" />
<path d="M10750 20000
L10750 37000
" />
<path d="M12750 20000
L10750 20000
" />
<path d="M13250 35500
L13250 36500
" />
<path d="M13250 36500
L12750 36000
" />
<path d="M20750 21000
L20250 21500
" />
<path d="M20250 20500
L20750 21000
" />
<path d="M20250 21500
L20250 20500
" />
<path d="M20750 27000
L20000 27000
" />
<path d="M20000 30000
L20000 27000
" />
<path d="M20000 30000
L20750 30000
" />
<path d="M20750 37000
L22750 37000
" />
<path d="M20750 20000
L20750 37000
" />
<path d="M22750 20000
L20750 20000
" />
<path d="M22750 37000
L22750 20000
" />
</g>
<g style="fill:#008484; fill-opacity:0.0; 
stroke:#008484; stroke-width:70; stroke-opacity:1; 
stroke-linecap:round; stroke-linejoin:round;">
<path d="M14400 25600
L14400 25250
" />
<path d="M15100 25600
L14400 25600
" />
<path d="M15100 25250
L15100 25600
" />
<path d="M14400 24400
L14400 24750
" />
<path d="M15100 24400
L14400 24400
" />
<path d="M15100 24750
L15100 24400
" />
</g>
<g style="fill:#008484; fill-opacity:0.0; 
stroke:#008484; stroke-width:90; stroke-opacity:1; 
stroke-linecap:round; stroke-linejoin:round;">
<path d="M17655 26476
L15844 26476
" />
<path d="M15844 26476
L15844 23523
" />
<path d="M15844 23523
L17655 23523
" />
<path d="M17655 23523
L17655 26476
" />
</g>
<g style="fill:#008484; fill-opacity:0.0; 
stroke:#008484; stroke-width:157.48; stroke-opacity:1; 
stroke-linecap:round; stroke-linejoin:round;">
<path d="M14190 35358
L19309 35358
" />
<path d="M14190 29177
L19309 29177
" />
<path d="M14190 29177
L14190 35358
" />
<path d="M19309 29177
L19309 35358
" />
</g>
<g style="fill:#008484; fill-opacity:0.0; 
stroke:#008484; stroke-width:100; stroke-opacity:1; 
stroke-linecap:round; stroke-linejoin:round;">
<g transform="rotate(90 13250 35000)">
<text x="13250" y="35200"
textLength="575.952" font-size="533.333" lengthAdjust="spacingAndGlyphs"
text-anchor="middle" opacity="0">0</text>
</g>
<path d="M13469 34980
L13469 35019
L13450 35057
L13430 35076
L13392 35095
L13316 35114
L13221 35114
L13145 35095
L13107 35076
L13088 35057
L13069 35019
L13069 34980
L13088 34942
L13107 34923
L13145 34904
L13221 34885
L13316 34885
L13392 34904
L13430 34923
L13450 34942
L13469 34980
" />
<g transform="rotate(90 13250 33000)">
<text x="13250" y="33200"
textLength="510.952" font-size="533.333" lengthAdjust="spacingAndGlyphs"
text-anchor="middle" opacity="0">1</text>
</g>
<path d="M13069 33114
L13069 32885
" />
<path d="M13069 33000
L13469 33000
L13411 32961
L13373 32923
L13354 32885
" />
<g transform="rotate(90 13250 21000)">
<text x="13250" y="21200"
textLength="510.952" font-size="533.333" lengthAdjust="spacingAndGlyphs"
text-anchor="middle" opacity="0">7</text>
</g>
<path d="M13469 20866
L13469 21133
L13069 20961
" />
<g transform="rotate(90 13250 23000)">
<text x="13250" y="23200"
textLength="510.952" font-size="533.333" lengthAdjust="spacingAndGlyphs"
text-anchor="middle" opacity="0">6</text>
</g>
<path d="M13469 23076
L13469 23000
L13450 22961
L13430 22942
L13373 22904
L13297 22885
L13145 22885
L13107 22904
L13088 22923
L13069 22961
L13069 23038
L13088 23076
L13107 23095
L13145 23114
L13240 23114
L13278 23095
L13297 23076
L13316 23038
L13316 22961
L13297 22923
L13278 22904
L13240 22885
" />
<g transform="rotate(90 13250 25000)">
<text x="13250" y="25200"
textLength="510.952" font-size="533.333" lengthAdjust="spacingAndGlyphs"
text-anchor="middle" opacity="0">5</text>
</g>
<path d="M13469 25095
L13469 24904
L13278 24885
L13297 24904
L13316 24942
L13316 25038
L13297 25076
L13278 25095
L13240 25114
L13145 25114
L13107 25095
L13088 25076
L13069 25038
L13069 24942
L13088 24904
L13107 24885
" />
<g transform="rotate(90 13250 31000)">
<text x="13250" y="31200"
textLength="510.952" font-size="533.333" lengthAdjust="spacingAndGlyphs"
text-anchor="middle" opacity="0">2</text>
</g>
<path d="M13430 30885
L13450 30904
L13469 30942
L13469 31038
L13450 31076
L13430 31095
L13392 31114
L13354 31114
L13297 31095
L13069 30866
L13069 31114
" />
<g transform="rotate(-90 20250 22000)">
<text x="20250" y="22200"
textLength="510.952" font-size="533.333" lengthAdjust="spacingAndGlyphs"
text-anchor="middle" opacity="0">8</text>
</g>
<path d="M20202 22038
L20183 22076
L20164 22095
L20126 22114
L20107 22114
L20069 22095
L20050 22076
L20030 22038
L20030 21961
L20050 21923
L20069 21904
L20107 21885
L20126 21885
L20164 21904
L20183 21923
L20202 21961
L20202 22038
L20221 22076
L20240 22095
L20278 22114
L20354 22114
L20392 22095
L20411 22076
L20430 22038
L20430 21961
L20411 21923
L20392 21904
L20354 21885
L20278 21885
L20240 21904
L20221 21923
L20202 21961
" />
<g transform="rotate(-90 20250 36000)">
<text x="20250" y="36200"
textLength="891.905" font-size="533.333" lengthAdjust="spacingAndGlyphs"
text-anchor="middle" opacity="0">15</text>
</g>
<path d="M20430 36076
L20430 36304
" />
<path d="M20430 36190
L20030 36190
L20088 36228
L20126 36266
L20145 36304
" />
<path d="M20030 35714
L20030 35904
L20221 35923
L20202 35904
L20183 35866
L20183 35771
L20202 35733
L20221 35714
L20259 35695
L20354 35695
L20392 35714
L20411 35733
L20430 35771
L20430 35866
L20411 35904
L20392 35923
" />
<g transform="rotate(-90 20250 34000)">
<text x="20250" y="34200"
textLength="891.905" font-size="533.333" lengthAdjust="spacingAndGlyphs"
text-anchor="middle" opacity="0">14</text>
</g>
<path d="M20430 34076
L20430 34304
" />
<path d="M20430 34190
L20030 34190
L20088 34228
L20126 34266
L20145 34304
" />
<path d="M20164 33733
L20430 33733
" />
<path d="M20011 33828
L20297 33923
L20297 33676
" />
<g transform="rotate(-90 20250 32000)">
<text x="20250" y="32200"
textLength="891.905" font-size="533.333" lengthAdjust="spacingAndGlyphs"
text-anchor="middle" opacity="0">13</text>
</g>
<path d="M20430 32076
L20430 32304
" />
<path d="M20430 32190
L20030 32190
L20088 32228
L20126 32266
L20145 32304
" />
<path d="M20030 31942
L20030 31695
L20183 31828
L20183 31771
L20202 31733
L20221 31714
L20259 31695
L20354 31695
L20392 31714
L20411 31733
L20430 31771
L20430 31885
L20411 31923
L20392 31942
" />
<g transform="rotate(-90 20250 26000)">
<text x="20250" y="26200"
textLength="891.905" font-size="533.333" lengthAdjust="spacingAndGlyphs"
text-anchor="middle" opacity="0">10</text>
</g>
<path d="M20430 26076
L20430 26304
" />
<path d="M20430 26190
L20030 26190
L20088 26228
L20126 26266
L20145 26304
" />
<path d="M20030 25828
L20030 25790
L20050 25752
L20069 25733
L20107 25714
L20183 25695
L20278 25695
L20354 25714
L20392 25733
L20411 25752
L20430 25790
L20430 25828
L20411 25866
L20392 25885
L20354 25904
L20278 25923
L20183 25923
L20107 25904
L20069 25885
L20050 25866
L20030 25828
" />
<g transform="rotate(-90 20250 24000)">
<text x="20250" y="24200"
textLength="510.952" font-size="533.333" lengthAdjust="spacingAndGlyphs"
text-anchor="middle" opacity="0">9</text>
</g>
<path d="M20430 24076
L20430 24000
L20411 23961
L20392 23942
L20335 23904
L20259 23885
L20107 23885
L20069 23904
L20050 23923
L20030 23961
L20030 24038
L20050 24076
L20069 24095
L20107 24114
L20202 24114
L20240 24095
L20259 24076
L20278 24038
L20278 23961
L20259 23923
L20240 23904
L20202 23885
" />
</g>
<g style="fill:#008484; fill-opacity:0.0; 
stroke:#008484; stroke-width:62.5; stroke-opacity:1; 
stroke-linecap:round; stroke-linejoin:round;">
<text x="14750" y="25925"
textLength="618.095" font-size="333.333" lengthAdjust="spacingAndGlyphs"
text-anchor="middle" opacity="0">C1</text>
<path d="M14708 25889
L14696 25901
L14660 25913
L14636 25913
L14601 25901
L14577 25877
L14565 25853
L14553 25805
L14553 25770
L14565 25722
L14577 25698
L14601 25675
L14636 25663
L14660 25663
L14696 25675
L14708 25686
" />
<path d="M14946 25913
L14803 25913
" />
<path d="M14875 25913
L14875 25663
L14851 25698
L14827 25722
L14803 25734
" />
<text x="14750" y="24325"
textLength="997.917" font-size="333.333" lengthAdjust="spacingAndGlyphs"
text-anchor="middle" opacity="0">10uF</text>
<path d="M14482 24313
L14339 24313
" />
<path d="M14410 24313
L14410 24063
L14386 24098
L14363 24122
L14339 24134
" />
<path d="M14636 24063
L14660 24063
L14684 24075
L14696 24086
L14708 24110
L14720 24158
L14720 24217
L14708 24265
L14696 24289
L14684 24301
L14660 24313
L14636 24313
L14613 24301
L14601 24289
L14589 24265
L14577 24217
L14577 24158
L14589 24110
L14601 24086
L14613 24075
L14636 24063
" />
<path d="M14934 24146
L14934 24313
" />
<path d="M14827 24146
L14827 24277
L14839 24301
L14863 24313
L14898 24313
L14922 24301
L14934 24289
" />
<path d="M15136 24182
L15053 24182
" />
<path d="M15053 24313
L15053 24063
L15172 24063
" />
</g>
<g style="fill:#008484; fill-opacity:0.0; 
stroke:#008484; stroke-width:100; stroke-opacity:1; 
stroke-linecap:round; stroke-linejoin:round;">
<text x="16750" y="23389"
textLength="862.202" font-size="533.333" lengthAdjust="spacingAndGlyphs"
text-anchor="middle" opacity="0">D1</text>
<path d="M16454 23369
L16454 22969
L16550 22969
L16607 22988
L16645 23027
L16664 23065
L16683 23141
L16683 23198
L16664 23274
L16645 23312
L16607 23350
L16550 23369
L16454 23369
" />
<path d="M17064 23369
L16835 23369
" />
<path d="M16950 23369
L16950 22969
L16911 23027
L16873 23065
L16835 23084
" />
<text x="18500" y="28950"
textLength="910.952" font-size="533.333" lengthAdjust="spacingAndGlyphs"
text-anchor="start" opacity="0">P1</text>
<path d="M18660 28930
L18660 28530
L18812 28530
L18850 28550
L18869 28569
L18888 28607
L18888 28664
L18869 28702
L18850 28721
L18812 28740
L18660 28740
" />
<path d="M19269 28930
L19041 28930
" />
<path d="M19155 28930
L19155 28530
L19117 28588
L19079 28626
L19041 28645
" />
<g >
</g>
</g>
<g style="fill:#000000; fill-opacity:0.0; 
stroke:#000000; stroke-width:100; stroke-opacity:1; 
stroke-linecap:round; stroke-linejoin:round;">
</g>
<g style="fill:#C2C200; fill-opacity:0.0; 
stroke:#C2C200; stroke-width:100; stroke-opacity:1; 
stroke-linecap:round; stroke-linejoin:round;">
</g>
<g style="fill:#C2C200; fill-opacity:0.0; 
stroke:#C2C200; stroke-width:110; stroke-opacity:1; 
stroke-linecap:round; stroke-linejoin:round;">
<path d="M29000 37500 A2500 2500 0.0 0 0 31500 35000" />
<path d="M2000 35000 A2500 2500 0.0 0 0 4500 37500" />
<path d="M31500 4500 A2500 2500 0.0 0 0 29000 2000" />
<path d="M4500 2000 A2500 2500 0.0 0 0 2000 4500" />
<path d="M4500 2000
L29000 2000
" />
<path d="M2000 35000
L2000 4500
" />
<path d="M29000 37500
L4500 37500
" />
<path d="M31500 4500
L31500 35000
" />
<g >
</g>
<g >
</g>
<g >
</g>
<g >
</g>
<g >
</g>
<g >
</g>
<g >
</g>
<g >
</g>
<g >
</g>
<g >
</g>
<g >
</g>
<g >
</g>
<g >
</g>
<g >
</g>
<g >
</g>
<g >
</g>
<g >
</g>
<g >
</g>
<g >
</g>
<g >
</g>
<g >
</g>
</g> 
</svg>
