%TF.GenerationSoftware,KiCad,Pcbnew,5.1.7-a382d34a8~87~ubuntu20.04.1*%
%TF.CreationDate,2020-10-21T15:20:26-04:00*%
%TF.ProjectId,y_arena_odor_controller,795f6172-656e-4615-9f6f-646f725f636f,2.0*%
%TF.SameCoordinates,Original*%
%TF.FileFunction,Copper,L1,Top*%
%TF.FilePolarity,Positive*%
%FSLAX46Y46*%
G04 Gerber Fmt 4.6, Leading zero omitted, Abs format (unit mm)*
G04 Created by KiCad (PCBNEW 5.1.7-a382d34a8~87~ubuntu20.04.1) date 2020-10-21 15:20:26*
%MOMM*%
%LPD*%
G01*
G04 APERTURE LIST*
%TA.AperFunction,SMDPad,CuDef*%
%ADD10R,3.810000X2.030000*%
%TD*%
%TA.AperFunction,SMDPad,CuDef*%
%ADD11R,1.020000X2.290000*%
%TD*%
%TA.AperFunction,SMDPad,CuDef*%
%ADD12R,2.999999X2.500000*%
%TD*%
%TA.AperFunction,ComponentPad*%
%ADD13O,2.540000X2.184400*%
%TD*%
%TA.AperFunction,ComponentPad*%
%ADD14R,2.540000X2.184400*%
%TD*%
%TA.AperFunction,ComponentPad*%
%ADD15C,2.286000*%
%TD*%
%TA.AperFunction,ComponentPad*%
%ADD16C,3.000000*%
%TD*%
%TA.AperFunction,SMDPad,CuDef*%
%ADD17R,3.900000X6.200000*%
%TD*%
%TA.AperFunction,SMDPad,CuDef*%
%ADD18R,3.300000X4.400000*%
%TD*%
%TA.AperFunction,SMDPad,CuDef*%
%ADD19R,1.193800X1.193800*%
%TD*%
%TA.AperFunction,SMDPad,CuDef*%
%ADD20C,0.500000*%
%TD*%
%TA.AperFunction,ComponentPad*%
%ADD21C,3.556000*%
%TD*%
%TA.AperFunction,SMDPad,CuDef*%
%ADD22R,1.600200X0.787400*%
%TD*%
%TA.AperFunction,SMDPad,CuDef*%
%ADD23R,0.700000X0.600000*%
%TD*%
%TA.AperFunction,ViaPad*%
%ADD24C,0.889000*%
%TD*%
%TA.AperFunction,Conductor*%
%ADD25C,0.406400*%
%TD*%
%TA.AperFunction,Conductor*%
%ADD26C,0.254000*%
%TD*%
%TA.AperFunction,Conductor*%
%ADD27C,0.100000*%
%TD*%
G04 APERTURE END LIST*
D10*
%TO.P,SW1,1*%
%TO.N,/Vled*%
X84580000Y-117930000D03*
%TO.P,SW1,3*%
%TO.N,N/C*%
X91950000Y-117930000D03*
D11*
%TO.P,SW1,2*%
%TO.N,VCC*%
X88265000Y-117930000D03*
D12*
%TO.P,SW1,*%
%TO.N,*%
X93265000Y-127000000D03*
X83265000Y-127000000D03*
%TD*%
D13*
%TO.P,TEENSY1,V_IN*%
%TO.N,N/C*%
X100965000Y-127000000D03*
%TO.P,TEENSY1,*%
%TO.N,*%
X100965000Y-124460000D03*
%TO.P,TEENSY1,3V3*%
%TO.N,N/C*%
X100965000Y-121920000D03*
%TO.P,TEENSY1,23*%
X100965000Y-119380000D03*
%TO.P,TEENSY1,22*%
%TO.N,/ARM_0_ODOR_0*%
X100965000Y-116840000D03*
%TO.P,TEENSY1,21*%
%TO.N,/ARM_1_ODOR_0*%
X100965000Y-114300000D03*
%TO.P,TEENSY1,20*%
%TO.N,/ARM_2_ODOR_0*%
X100965000Y-111760000D03*
%TO.P,TEENSY1,19*%
%TO.N,/ARM_0_ODOR_1*%
X100965000Y-109220000D03*
%TO.P,TEENSY1,18*%
%TO.N,/ARM_1_ODOR_1*%
X100965000Y-106680000D03*
%TO.P,TEENSY1,17*%
%TO.N,/ARM_2_ODOR_1*%
X100965000Y-104140000D03*
%TO.P,TEENSY1,16*%
%TO.N,/ARM_0_ODOR_2*%
X100965000Y-101600000D03*
%TO.P,TEENSY1,15*%
%TO.N,/ARM_1_ODOR_2*%
X100965000Y-99060000D03*
%TO.P,TEENSY1,14*%
%TO.N,/ARM_2_ODOR_2*%
X100965000Y-96520000D03*
%TO.P,TEENSY1,13*%
%TO.N,N/C*%
X100965000Y-93980000D03*
%TO.P,TEENSY1,12*%
X116205000Y-93980000D03*
%TO.P,TEENSY1,11*%
X116205000Y-96520000D03*
%TO.P,TEENSY1,10*%
X116205000Y-99060000D03*
%TO.P,TEENSY1,9*%
X116205000Y-101600000D03*
%TO.P,TEENSY1,8*%
X116205000Y-104140000D03*
%TO.P,TEENSY1,7*%
X116205000Y-106680000D03*
%TO.P,TEENSY1,6*%
X116205000Y-109220000D03*
%TO.P,TEENSY1,5*%
X116205000Y-111760000D03*
%TO.P,TEENSY1,4*%
X116205000Y-114300000D03*
%TO.P,TEENSY1,3*%
X116205000Y-116840000D03*
%TO.P,TEENSY1,2*%
X116205000Y-119380000D03*
%TO.P,TEENSY1,1*%
X116205000Y-121920000D03*
%TO.P,TEENSY1,0*%
X116205000Y-124460000D03*
D14*
%TO.P,TEENSY1,GND*%
%TO.N,GND*%
X116205000Y-127000000D03*
%TD*%
D15*
%TO.P,S1,2*%
%TO.N,VCC*%
X52705000Y-75565000D03*
%TO.P,S1,1*%
%TO.N,/odor_0/SH*%
X52705000Y-78105000D03*
%TD*%
%TO.P,S2,2*%
%TO.N,VCC*%
X52705000Y-67945000D03*
%TO.P,S2,1*%
%TO.N,/odor_1/SH*%
X52705000Y-70485000D03*
%TD*%
%TO.P,S3,2*%
%TO.N,VCC*%
X52705000Y-60325000D03*
%TO.P,S3,1*%
%TO.N,/odor_2/SH*%
X52705000Y-62865000D03*
%TD*%
%TO.P,S4,2*%
%TO.N,VCC*%
X80645000Y-75565000D03*
%TO.P,S4,1*%
%TO.N,/odor_3/SH*%
X80645000Y-78105000D03*
%TD*%
%TO.P,S5,2*%
%TO.N,VCC*%
X80645000Y-67945000D03*
%TO.P,S5,1*%
%TO.N,/odor_4/SH*%
X80645000Y-70485000D03*
%TD*%
%TO.P,S6,2*%
%TO.N,VCC*%
X80645000Y-60325000D03*
%TO.P,S6,1*%
%TO.N,/odor_5/SH*%
X80645000Y-62865000D03*
%TD*%
%TO.P,S7,2*%
%TO.N,VCC*%
X108585000Y-75565000D03*
%TO.P,S7,1*%
%TO.N,/odor_6/SH*%
X108585000Y-78105000D03*
%TD*%
%TO.P,S8,2*%
%TO.N,VCC*%
X108585000Y-67945000D03*
%TO.P,S8,1*%
%TO.N,/odor_7/SH*%
X108585000Y-70485000D03*
%TD*%
%TO.P,S9,2*%
%TO.N,VCC*%
X108585000Y-60325000D03*
%TO.P,S9,1*%
%TO.N,/odor_8/SH*%
X108585000Y-62865000D03*
%TD*%
D16*
%TO.P,P1,*%
%TO.N,*%
X67945000Y-124635000D03*
D17*
%TO.P,P1,3*%
%TO.N,N/C*%
X74395000Y-120835000D03*
%TO.P,P1,2*%
%TO.N,GND*%
X61495000Y-120835000D03*
D18*
%TO.P,P1,1*%
%TO.N,VAA*%
X68595000Y-111885000D03*
%TD*%
D19*
%TO.P,L2,2*%
%TO.N,/odor_0/SH*%
X83185000Y-110705900D03*
%TO.P,L2,1*%
%TO.N,Net-(L2-Pad1)*%
X83185000Y-112814100D03*
%TD*%
%TO.P,L3,2*%
%TO.N,/odor_1/SH*%
X83185000Y-105625900D03*
%TO.P,L3,1*%
%TO.N,Net-(L3-Pad1)*%
X83185000Y-107734100D03*
%TD*%
%TO.P,L4,2*%
%TO.N,/odor_2/SH*%
X83185000Y-100545900D03*
%TO.P,L4,1*%
%TO.N,Net-(L4-Pad1)*%
X83185000Y-102654100D03*
%TD*%
%TO.P,L5,2*%
%TO.N,/odor_3/SH*%
X88265000Y-110705900D03*
%TO.P,L5,1*%
%TO.N,Net-(L5-Pad1)*%
X88265000Y-112814100D03*
%TD*%
%TO.P,L6,2*%
%TO.N,/odor_4/SH*%
X88265000Y-105625900D03*
%TO.P,L6,1*%
%TO.N,Net-(L6-Pad1)*%
X88265000Y-107734100D03*
%TD*%
%TO.P,L7,2*%
%TO.N,/odor_5/SH*%
X88265000Y-100545900D03*
%TO.P,L7,1*%
%TO.N,Net-(L7-Pad1)*%
X88265000Y-102654100D03*
%TD*%
%TO.P,L8,2*%
%TO.N,/odor_6/SH*%
X93345000Y-110705900D03*
%TO.P,L8,1*%
%TO.N,Net-(L8-Pad1)*%
X93345000Y-112814100D03*
%TD*%
%TO.P,L9,2*%
%TO.N,/odor_7/SH*%
X93345000Y-105625900D03*
%TO.P,L9,1*%
%TO.N,Net-(L9-Pad1)*%
X93345000Y-107734100D03*
%TD*%
%TO.P,L10,2*%
%TO.N,/odor_8/SH*%
X93345000Y-100545900D03*
%TO.P,L10,1*%
%TO.N,Net-(L10-Pad1)*%
X93345000Y-102654100D03*
%TD*%
%TO.P,L1,2*%
%TO.N,GND*%
X79375000Y-122770900D03*
%TO.P,L1,1*%
%TO.N,Net-(L1-Pad1)*%
X79375000Y-124879100D03*
%TD*%
D20*
%TO.P,FID1,~*%
%TO.N,N/C*%
X53975000Y-53975000D03*
%TD*%
%TO.P,FID2,~*%
%TO.N,N/C*%
X122555000Y-53975000D03*
%TD*%
%TO.P,FID3,~*%
%TO.N,N/C*%
X122555000Y-125730000D03*
%TD*%
%TO.P,FID4,~*%
%TO.N,N/C*%
X53975000Y-125730000D03*
%TD*%
D21*
%TO.P,MH1,1*%
%TO.N,N/C*%
X92710000Y-85090000D03*
%TD*%
%TO.P,MH2,1*%
%TO.N,N/C*%
X64770000Y-56515000D03*
%TD*%
%TO.P,MH3,1*%
%TO.N,N/C*%
X120650000Y-56515000D03*
%TD*%
D22*
%TO.P,C1,2*%
%TO.N,GND*%
X63500000Y-105816400D03*
%TO.P,C1,1*%
%TO.N,VCC*%
X63500000Y-103733600D03*
%TD*%
D23*
%TO.P,D1,1*%
%TO.N,Net-(D1-Pad1)*%
X67945000Y-105275000D03*
%TO.P,D1,2*%
%TO.N,/Vled*%
X67945000Y-104275000D03*
%TD*%
D24*
%TO.N,/ARM_0_ODOR_0*%
X67996200Y-75831300D03*
%TO.N,/ARM_0_ODOR_1*%
X89707000Y-77561700D03*
%TO.N,/ARM_1_ODOR_0*%
X67672900Y-68232900D03*
%TO.N,/ARM_2_ODOR_0*%
X80760300Y-64963300D03*
%TO.N,/ARM_2_ODOR_1*%
X110865000Y-58669100D03*
%TO.N,VAA*%
X77362600Y-119777700D03*
%TO.N,GND*%
X63133100Y-104689300D03*
%TO.N,VCC*%
X117373200Y-79835500D03*
%TO.N,/Vled*%
X80153200Y-115505500D03*
%TO.N,Net-(L1-Pad1)*%
X80645000Y-125173200D03*
%TO.N,Net-(L2-Pad1)*%
X85352500Y-112260000D03*
%TO.N,Net-(L3-Pad1)*%
X84384900Y-108052900D03*
%TO.N,Net-(L4-Pad1)*%
X84374700Y-102961700D03*
%TO.N,Net-(L5-Pad1)*%
X89456800Y-113109500D03*
%TO.N,Net-(L6-Pad1)*%
X89488900Y-108032900D03*
%TO.N,Net-(L7-Pad1)*%
X89522100Y-102950400D03*
%TO.N,Net-(L8-Pad1)*%
X94615000Y-113159000D03*
%TO.N,Net-(L9-Pad1)*%
X94563100Y-108039800D03*
%TO.N,Net-(L10-Pad1)*%
X94523400Y-102987500D03*
%TO.N,Net-(D1-Pad1)*%
X81169700Y-122136600D03*
%TD*%
D25*
%TO.N,/ARM_0_ODOR_0*%
X67996200Y-75831300D02*
X85124400Y-92959500D01*
X85124400Y-92959500D02*
X85124400Y-107656800D01*
X85124400Y-107656800D02*
X86254200Y-108786600D01*
X86254200Y-108786600D02*
X86254200Y-110352400D01*
X86254200Y-110352400D02*
X87509800Y-111608000D01*
X87509800Y-111608000D02*
X89052700Y-111608000D01*
X89052700Y-111608000D02*
X90206500Y-112761800D01*
X90206500Y-112761800D02*
X90206500Y-112851700D01*
X90206500Y-112851700D02*
X93052200Y-115697400D01*
X93052200Y-115697400D02*
X99822400Y-115697400D01*
X99822400Y-115697400D02*
X100965000Y-116840000D01*
%TO.N,/ARM_0_ODOR_1*%
X100965000Y-109220000D02*
X98544600Y-111640400D01*
X98544600Y-111640400D02*
X92598100Y-111640400D01*
X92598100Y-111640400D02*
X92087100Y-111129400D01*
X92087100Y-111129400D02*
X92087100Y-87552200D01*
X92087100Y-87552200D02*
X89707000Y-85172100D01*
X89707000Y-85172100D02*
X89707000Y-77561700D01*
%TO.N,/ARM_1_ODOR_0*%
X67672900Y-68232900D02*
X75399800Y-68232900D01*
X75399800Y-68232900D02*
X86323300Y-79156400D01*
X86323300Y-79156400D02*
X86323300Y-107417700D01*
X86323300Y-107417700D02*
X87688200Y-108782600D01*
X87688200Y-108782600D02*
X88007100Y-108782600D01*
X88007100Y-108782600D02*
X90714800Y-111490300D01*
X90714800Y-111490300D02*
X90714800Y-112602700D01*
X90714800Y-112602700D02*
X92582800Y-114470700D01*
X92582800Y-114470700D02*
X99196100Y-114470700D01*
X99196100Y-114470700D02*
X99366800Y-114300000D01*
X100965000Y-114300000D02*
X99366800Y-114300000D01*
%TO.N,/ARM_2_ODOR_0*%
X80760300Y-64963300D02*
X87340000Y-71543000D01*
X87340000Y-71543000D02*
X87340000Y-103416300D01*
X87340000Y-103416300D02*
X87623800Y-103700100D01*
X87623800Y-103700100D02*
X88009600Y-103700100D01*
X88009600Y-103700100D02*
X91223200Y-106913700D01*
X91223200Y-106913700D02*
X91223200Y-112317600D01*
X91223200Y-112317600D02*
X92814300Y-113908700D01*
X92814300Y-113908700D02*
X98816300Y-113908700D01*
X98816300Y-113908700D02*
X100965000Y-111760000D01*
%TO.N,/ARM_2_ODOR_1*%
X110865000Y-58669100D02*
X110865000Y-94240000D01*
X110865000Y-94240000D02*
X100965000Y-104140000D01*
%TO.N,VAA*%
X68595000Y-111885000D02*
X71073700Y-111885000D01*
X71073700Y-111885000D02*
X77362600Y-118173900D01*
X77362600Y-118173900D02*
X77362600Y-119777700D01*
%TO.N,GND*%
X63500000Y-105094500D02*
X63133100Y-104727600D01*
X63133100Y-104727600D02*
X63133100Y-104689300D01*
X63500000Y-105816400D02*
X63500000Y-105094500D01*
X63500000Y-117417000D02*
X63917800Y-117417000D01*
X63917800Y-117417000D02*
X70839400Y-124338600D01*
X70839400Y-124338600D02*
X76882200Y-124338600D01*
X76882200Y-124338600D02*
X78449900Y-122770900D01*
X61495000Y-120835000D02*
X61495000Y-119422000D01*
X61495000Y-119422000D02*
X63500000Y-117417000D01*
X63500000Y-106538300D02*
X63500000Y-117417000D01*
X79375000Y-122770900D02*
X78449900Y-122770900D01*
X63500000Y-105816400D02*
X63500000Y-106538300D01*
%TO.N,VCC*%
X63500000Y-103733600D02*
X63500000Y-103011700D01*
X52705000Y-75565000D02*
X51213600Y-77056400D01*
X51213600Y-77056400D02*
X51213600Y-90725300D01*
X51213600Y-90725300D02*
X63500000Y-103011700D01*
X80645000Y-60325000D02*
X79191400Y-61778600D01*
X79191400Y-61778600D02*
X79191400Y-66491400D01*
X79191400Y-66491400D02*
X80645000Y-67945000D01*
X108585000Y-60325000D02*
X80645000Y-60325000D01*
X88265000Y-116456800D02*
X82894100Y-116456800D01*
X82894100Y-116456800D02*
X70107100Y-103669800D01*
X70107100Y-103669800D02*
X64692100Y-103669800D01*
X64692100Y-103669800D02*
X64628300Y-103733600D01*
X108585000Y-60325000D02*
X108585000Y-59801600D01*
X108585000Y-59801600D02*
X110504400Y-57882200D01*
X110504400Y-57882200D02*
X111150200Y-57882200D01*
X111150200Y-57882200D02*
X117373200Y-64105200D01*
X117373200Y-64105200D02*
X117373200Y-79835500D01*
X108585000Y-67945000D02*
X110052700Y-69412700D01*
X110052700Y-69412700D02*
X110052700Y-74097300D01*
X110052700Y-74097300D02*
X108585000Y-75565000D01*
X63500000Y-103733600D02*
X64628300Y-103733600D01*
X88265000Y-117930000D02*
X88265000Y-116456800D01*
%TO.N,/Vled*%
X84580000Y-117930000D02*
X82346800Y-117930000D01*
X68623200Y-104275000D02*
X79853700Y-115505500D01*
X79853700Y-115505500D02*
X80153200Y-115505500D01*
X80153200Y-115505500D02*
X82346800Y-117699100D01*
X82346800Y-117699100D02*
X82346800Y-117930000D01*
X67945000Y-104275000D02*
X68623200Y-104275000D01*
%TO.N,/odor_0/SH*%
X83185000Y-110705900D02*
X83185000Y-109780800D01*
X52705000Y-78105000D02*
X52705000Y-79300800D01*
X52705000Y-79300800D02*
X83185000Y-109780800D01*
%TO.N,/odor_1/SH*%
X83185000Y-105625900D02*
X83185000Y-104700800D01*
X52705000Y-70485000D02*
X58138400Y-75918400D01*
X58138400Y-75918400D02*
X58138400Y-79654200D01*
X58138400Y-79654200D02*
X83185000Y-104700800D01*
%TO.N,/odor_2/SH*%
X52705000Y-62865000D02*
X83185000Y-93345000D01*
X83185000Y-93345000D02*
X83185000Y-99620800D01*
X83185000Y-100545900D02*
X83185000Y-99620800D01*
%TO.N,/odor_3/SH*%
X80645000Y-78105000D02*
X85815000Y-83275000D01*
X85815000Y-83275000D02*
X85815000Y-107628400D01*
X85815000Y-107628400D02*
X87967400Y-109780800D01*
X87967400Y-109780800D02*
X88265000Y-109780800D01*
X88265000Y-110705900D02*
X88265000Y-109780800D01*
%TO.N,/odor_4/SH*%
X80645000Y-70485000D02*
X86831600Y-76671600D01*
X86831600Y-76671600D02*
X86831600Y-103626900D01*
X86831600Y-103626900D02*
X87905500Y-104700800D01*
X87905500Y-104700800D02*
X88265000Y-104700800D01*
X88265000Y-105625900D02*
X88265000Y-104700800D01*
%TO.N,/odor_5/SH*%
X80645000Y-62865000D02*
X88265000Y-70485000D01*
X88265000Y-70485000D02*
X88265000Y-99620800D01*
X88265000Y-100545900D02*
X88265000Y-99620800D01*
%TO.N,/odor_6/SH*%
X93345000Y-109780800D02*
X93887800Y-109780800D01*
X93887800Y-109780800D02*
X97187400Y-106481200D01*
X97187400Y-106481200D02*
X97187400Y-89502600D01*
X97187400Y-89502600D02*
X108585000Y-78105000D01*
X93345000Y-110705900D02*
X93345000Y-109780800D01*
%TO.N,/odor_7/SH*%
X93345000Y-104700800D02*
X93870300Y-104700800D01*
X93870300Y-104700800D02*
X96258400Y-102312700D01*
X96258400Y-102312700D02*
X96258400Y-82811600D01*
X96258400Y-82811600D02*
X108585000Y-70485000D01*
X93345000Y-105625900D02*
X93345000Y-104700800D01*
%TO.N,/odor_8/SH*%
X93345000Y-100545900D02*
X93345000Y-99620800D01*
X108585000Y-62865000D02*
X95241700Y-76208300D01*
X95241700Y-76208300D02*
X95241700Y-97724100D01*
X95241700Y-97724100D02*
X93345000Y-99620800D01*
%TO.N,Net-(L1-Pad1)*%
X79375000Y-125804200D02*
X80112700Y-125804200D01*
X80112700Y-125804200D02*
X80645000Y-125271900D01*
X80645000Y-125271900D02*
X80645000Y-125173200D01*
X79375000Y-124879100D02*
X79375000Y-125804200D01*
%TO.N,Net-(L2-Pad1)*%
X84110100Y-112814100D02*
X84664200Y-112260000D01*
X84664200Y-112260000D02*
X85352500Y-112260000D01*
X83185000Y-112814100D02*
X84110100Y-112814100D01*
%TO.N,Net-(L3-Pad1)*%
X84110100Y-107734100D02*
X84110100Y-107778100D01*
X84110100Y-107778100D02*
X84384900Y-108052900D01*
X83185000Y-107734100D02*
X84110100Y-107734100D01*
%TO.N,Net-(L4-Pad1)*%
X84110100Y-102654100D02*
X84110100Y-102697100D01*
X84110100Y-102697100D02*
X84374700Y-102961700D01*
X83185000Y-102654100D02*
X84110100Y-102654100D01*
%TO.N,Net-(L5-Pad1)*%
X89190100Y-112814100D02*
X89456800Y-113080800D01*
X89456800Y-113080800D02*
X89456800Y-113109500D01*
X88265000Y-112814100D02*
X89190100Y-112814100D01*
%TO.N,Net-(L6-Pad1)*%
X89488900Y-108032900D02*
X89190100Y-107734100D01*
X88265000Y-107734100D02*
X89190100Y-107734100D01*
%TO.N,Net-(L7-Pad1)*%
X89190100Y-102654100D02*
X89225800Y-102654100D01*
X89225800Y-102654100D02*
X89522100Y-102950400D01*
X88265000Y-102654100D02*
X89190100Y-102654100D01*
%TO.N,Net-(L8-Pad1)*%
X94615000Y-113159000D02*
X94270100Y-112814100D01*
X93345000Y-112814100D02*
X94270100Y-112814100D01*
%TO.N,Net-(L9-Pad1)*%
X94270100Y-107734100D02*
X94270100Y-107746800D01*
X94270100Y-107746800D02*
X94563100Y-108039800D01*
X93345000Y-107734100D02*
X94270100Y-107734100D01*
%TO.N,Net-(L10-Pad1)*%
X93345000Y-102654100D02*
X94270100Y-102654100D01*
X94523400Y-102987500D02*
X94270100Y-102734200D01*
X94270100Y-102734200D02*
X94270100Y-102654100D01*
%TO.N,Net-(D1-Pad1)*%
X67945000Y-105275000D02*
X67945000Y-105903200D01*
X67945000Y-105903200D02*
X81169700Y-119127900D01*
X81169700Y-119127900D02*
X81169700Y-122136600D01*
%TD*%
D26*
%TO.N,VCC*%
X120299618Y-51343728D02*
X121196604Y-51559075D01*
X122048849Y-51912087D01*
X122835381Y-52394075D01*
X123536828Y-52993166D01*
X124135926Y-53694619D01*
X124617911Y-54481147D01*
X124970925Y-55333396D01*
X125186272Y-56230382D01*
X125260100Y-57168457D01*
X125260101Y-122536531D01*
X125186272Y-123474618D01*
X124970925Y-124371604D01*
X124617911Y-125223853D01*
X124135926Y-126010381D01*
X123536828Y-126711834D01*
X122835381Y-127310925D01*
X122048849Y-127792913D01*
X121196604Y-128145925D01*
X120299618Y-128361272D01*
X119361543Y-128435100D01*
X95040252Y-128435100D01*
X95040878Y-128434337D01*
X95071539Y-128376973D01*
X95090421Y-128314730D01*
X95096796Y-128250000D01*
X95096796Y-125750000D01*
X95090421Y-125685270D01*
X95071539Y-125623027D01*
X95040878Y-125565663D01*
X94999615Y-125515384D01*
X94949336Y-125474121D01*
X94891972Y-125443460D01*
X94829729Y-125424578D01*
X94764999Y-125418203D01*
X91765001Y-125418203D01*
X91700271Y-125424578D01*
X91638028Y-125443460D01*
X91580664Y-125474121D01*
X91530385Y-125515384D01*
X91489122Y-125565663D01*
X91458461Y-125623027D01*
X91439579Y-125685270D01*
X91433204Y-125750000D01*
X91433204Y-128250000D01*
X91439579Y-128314730D01*
X91458461Y-128376973D01*
X91489122Y-128434337D01*
X91489748Y-128435100D01*
X85040252Y-128435100D01*
X85040878Y-128434337D01*
X85071539Y-128376973D01*
X85090421Y-128314730D01*
X85096796Y-128250000D01*
X85096796Y-125750000D01*
X85090421Y-125685270D01*
X85071539Y-125623027D01*
X85040878Y-125565663D01*
X84999615Y-125515384D01*
X84949336Y-125474121D01*
X84891972Y-125443460D01*
X84829729Y-125424578D01*
X84764999Y-125418203D01*
X81765001Y-125418203D01*
X81700271Y-125424578D01*
X81638028Y-125443460D01*
X81580664Y-125474121D01*
X81530385Y-125515384D01*
X81489122Y-125565663D01*
X81458461Y-125623027D01*
X81439579Y-125685270D01*
X81433204Y-125750000D01*
X81433204Y-128250000D01*
X81439579Y-128314730D01*
X81458461Y-128376973D01*
X81489122Y-128434337D01*
X81489748Y-128435100D01*
X57168457Y-128435100D01*
X56230382Y-128361272D01*
X55333396Y-128145925D01*
X54481147Y-127792911D01*
X53694619Y-127310926D01*
X52993166Y-126711828D01*
X52394075Y-126010381D01*
X52184415Y-125668246D01*
X53348000Y-125668246D01*
X53348000Y-125791754D01*
X53372095Y-125912889D01*
X53419360Y-126026996D01*
X53487977Y-126129689D01*
X53575311Y-126217023D01*
X53678004Y-126285640D01*
X53792111Y-126332905D01*
X53913246Y-126357000D01*
X54036754Y-126357000D01*
X54157889Y-126332905D01*
X54271996Y-126285640D01*
X54374689Y-126217023D01*
X54462023Y-126129689D01*
X54530640Y-126026996D01*
X54577905Y-125912889D01*
X54602000Y-125791754D01*
X54602000Y-125668246D01*
X54577905Y-125547111D01*
X54530640Y-125433004D01*
X54462023Y-125330311D01*
X54374689Y-125242977D01*
X54271996Y-125174360D01*
X54157889Y-125127095D01*
X54036754Y-125103000D01*
X53913246Y-125103000D01*
X53792111Y-125127095D01*
X53678004Y-125174360D01*
X53575311Y-125242977D01*
X53487977Y-125330311D01*
X53419360Y-125433004D01*
X53372095Y-125547111D01*
X53348000Y-125668246D01*
X52184415Y-125668246D01*
X51912087Y-125223849D01*
X51559075Y-124371604D01*
X51343728Y-123474618D01*
X51269900Y-122536543D01*
X51269900Y-117735000D01*
X59213203Y-117735000D01*
X59213203Y-123935000D01*
X59219578Y-123999730D01*
X59238460Y-124061973D01*
X59269121Y-124119337D01*
X59310384Y-124169616D01*
X59360663Y-124210879D01*
X59418027Y-124241540D01*
X59480270Y-124260422D01*
X59545000Y-124266797D01*
X63445000Y-124266797D01*
X63509730Y-124260422D01*
X63571973Y-124241540D01*
X63629337Y-124210879D01*
X63679616Y-124169616D01*
X63720879Y-124119337D01*
X63751540Y-124061973D01*
X63770422Y-123999730D01*
X63776797Y-123935000D01*
X63776797Y-118030338D01*
X68722526Y-122976067D01*
X68478850Y-122875133D01*
X68125259Y-122804800D01*
X67764741Y-122804800D01*
X67411150Y-122875133D01*
X67078075Y-123013097D01*
X66778315Y-123213390D01*
X66523390Y-123468315D01*
X66323097Y-123768075D01*
X66185133Y-124101150D01*
X66114800Y-124454741D01*
X66114800Y-124815259D01*
X66185133Y-125168850D01*
X66323097Y-125501925D01*
X66523390Y-125801685D01*
X66778315Y-126056610D01*
X67078075Y-126256903D01*
X67411150Y-126394867D01*
X67764741Y-126465200D01*
X68125259Y-126465200D01*
X68478850Y-126394867D01*
X68811925Y-126256903D01*
X69111685Y-126056610D01*
X69366610Y-125801685D01*
X69566903Y-125501925D01*
X69704867Y-125168850D01*
X69775200Y-124815259D01*
X69775200Y-124454741D01*
X69704867Y-124101150D01*
X69603933Y-123857474D01*
X70443704Y-124697245D01*
X70460405Y-124717595D01*
X70541625Y-124784251D01*
X70634289Y-124833781D01*
X70734835Y-124864281D01*
X70813205Y-124872000D01*
X70813206Y-124872000D01*
X70839400Y-124874580D01*
X70865594Y-124872000D01*
X76856013Y-124872000D01*
X76882200Y-124874579D01*
X76908387Y-124872000D01*
X76908395Y-124872000D01*
X76986765Y-124864281D01*
X77087311Y-124833781D01*
X77179975Y-124784251D01*
X77261195Y-124717595D01*
X77277896Y-124697245D01*
X77692941Y-124282200D01*
X78446303Y-124282200D01*
X78446303Y-125476000D01*
X78452678Y-125540730D01*
X78471560Y-125602973D01*
X78502221Y-125660337D01*
X78543484Y-125710616D01*
X78593763Y-125751879D01*
X78651127Y-125782540D01*
X78713370Y-125801422D01*
X78778100Y-125807797D01*
X78839374Y-125807797D01*
X78849319Y-125908765D01*
X78879819Y-126009311D01*
X78929349Y-126101975D01*
X78996005Y-126183195D01*
X79077225Y-126249851D01*
X79169889Y-126299381D01*
X79270435Y-126329881D01*
X79348805Y-126337600D01*
X79348806Y-126337600D01*
X79375000Y-126340180D01*
X79401195Y-126337600D01*
X80086513Y-126337600D01*
X80112700Y-126340179D01*
X80138887Y-126337600D01*
X80138895Y-126337600D01*
X80217265Y-126329881D01*
X80317811Y-126299381D01*
X80410475Y-126249851D01*
X80491695Y-126183195D01*
X80508395Y-126162846D01*
X80723848Y-125947393D01*
X80870972Y-125918128D01*
X81011958Y-125859730D01*
X81138842Y-125774948D01*
X81246748Y-125667042D01*
X81331530Y-125540158D01*
X81389928Y-125399172D01*
X81419700Y-125249501D01*
X81419700Y-125096899D01*
X81389928Y-124947228D01*
X81331530Y-124806242D01*
X81246748Y-124679358D01*
X81138842Y-124571452D01*
X81011958Y-124486670D01*
X80870972Y-124428272D01*
X80721301Y-124398500D01*
X80568699Y-124398500D01*
X80419028Y-124428272D01*
X80303697Y-124476043D01*
X80303697Y-124282200D01*
X80297322Y-124217470D01*
X80278440Y-124155227D01*
X80247779Y-124097863D01*
X80206516Y-124047584D01*
X80156237Y-124006321D01*
X80098873Y-123975660D01*
X80036630Y-123956778D01*
X79971900Y-123950403D01*
X78778100Y-123950403D01*
X78713370Y-123956778D01*
X78651127Y-123975660D01*
X78593763Y-124006321D01*
X78543484Y-124047584D01*
X78502221Y-124097863D01*
X78471560Y-124155227D01*
X78452678Y-124217470D01*
X78446303Y-124282200D01*
X77692941Y-124282200D01*
X78474628Y-123500513D01*
X78502221Y-123552137D01*
X78543484Y-123602416D01*
X78593763Y-123643679D01*
X78651127Y-123674340D01*
X78713370Y-123693222D01*
X78778100Y-123699597D01*
X79971900Y-123699597D01*
X80036630Y-123693222D01*
X80098873Y-123674340D01*
X80156237Y-123643679D01*
X80206516Y-123602416D01*
X80247779Y-123552137D01*
X80278440Y-123494773D01*
X80297322Y-123432530D01*
X80303697Y-123367800D01*
X80303697Y-122174000D01*
X80297322Y-122109270D01*
X80278440Y-122047027D01*
X80247779Y-121989663D01*
X80206516Y-121939384D01*
X80156237Y-121898121D01*
X80098873Y-121867460D01*
X80036630Y-121848578D01*
X79971900Y-121842203D01*
X78778100Y-121842203D01*
X78713370Y-121848578D01*
X78651127Y-121867460D01*
X78593763Y-121898121D01*
X78543484Y-121939384D01*
X78502221Y-121989663D01*
X78471560Y-122047027D01*
X78452678Y-122109270D01*
X78446303Y-122174000D01*
X78446303Y-122235274D01*
X78423706Y-122237500D01*
X78423705Y-122237500D01*
X78345335Y-122245219D01*
X78244789Y-122275719D01*
X78152125Y-122325249D01*
X78070905Y-122391905D01*
X78054204Y-122412255D01*
X76676797Y-123789662D01*
X76676797Y-120145746D01*
X76760852Y-120271542D01*
X76868758Y-120379448D01*
X76995642Y-120464230D01*
X77136628Y-120522628D01*
X77286299Y-120552400D01*
X77438901Y-120552400D01*
X77588572Y-120522628D01*
X77729558Y-120464230D01*
X77856442Y-120379448D01*
X77964348Y-120271542D01*
X78049130Y-120144658D01*
X78107528Y-120003672D01*
X78137300Y-119854001D01*
X78137300Y-119701399D01*
X78107528Y-119551728D01*
X78049130Y-119410742D01*
X77964348Y-119283858D01*
X77896000Y-119215510D01*
X77896000Y-118200094D01*
X77898580Y-118173900D01*
X77895709Y-118144751D01*
X77888281Y-118069335D01*
X77857781Y-117968789D01*
X77808251Y-117876125D01*
X77741595Y-117794905D01*
X77721245Y-117778204D01*
X71469396Y-111526355D01*
X71452695Y-111506005D01*
X71371475Y-111439349D01*
X71278811Y-111389819D01*
X71178265Y-111359319D01*
X71099895Y-111351600D01*
X71099887Y-111351600D01*
X71073700Y-111349021D01*
X71047513Y-111351600D01*
X70576797Y-111351600D01*
X70576797Y-109685000D01*
X70570422Y-109620270D01*
X70551540Y-109558027D01*
X70520879Y-109500663D01*
X70479616Y-109450384D01*
X70429337Y-109409121D01*
X70371973Y-109378460D01*
X70309730Y-109359578D01*
X70245000Y-109353203D01*
X66945000Y-109353203D01*
X66880270Y-109359578D01*
X66818027Y-109378460D01*
X66760663Y-109409121D01*
X66710384Y-109450384D01*
X66669121Y-109500663D01*
X66638460Y-109558027D01*
X66619578Y-109620270D01*
X66613203Y-109685000D01*
X66613203Y-114085000D01*
X66619578Y-114149730D01*
X66638460Y-114211973D01*
X66669121Y-114269337D01*
X66710384Y-114319616D01*
X66760663Y-114360879D01*
X66818027Y-114391540D01*
X66880270Y-114410422D01*
X66945000Y-114416797D01*
X70245000Y-114416797D01*
X70309730Y-114410422D01*
X70371973Y-114391540D01*
X70429337Y-114360879D01*
X70479616Y-114319616D01*
X70520879Y-114269337D01*
X70551540Y-114211973D01*
X70570422Y-114149730D01*
X70576797Y-114085000D01*
X70576797Y-112418400D01*
X70852759Y-112418400D01*
X75837562Y-117403203D01*
X72445000Y-117403203D01*
X72380270Y-117409578D01*
X72318027Y-117428460D01*
X72260663Y-117459121D01*
X72210384Y-117500384D01*
X72169121Y-117550663D01*
X72138460Y-117608027D01*
X72119578Y-117670270D01*
X72113203Y-117735000D01*
X72113203Y-123805200D01*
X71060341Y-123805200D01*
X64313496Y-117058355D01*
X64296795Y-117038005D01*
X64215575Y-116971349D01*
X64122911Y-116921819D01*
X64033400Y-116894666D01*
X64033400Y-106541897D01*
X64300100Y-106541897D01*
X64364830Y-106535522D01*
X64427073Y-106516640D01*
X64484437Y-106485979D01*
X64534716Y-106444716D01*
X64575979Y-106394437D01*
X64606640Y-106337073D01*
X64625522Y-106274830D01*
X64631897Y-106210100D01*
X64631897Y-105422700D01*
X64625522Y-105357970D01*
X64606640Y-105295727D01*
X64575979Y-105238363D01*
X64534716Y-105188084D01*
X64484437Y-105146821D01*
X64427073Y-105116160D01*
X64364830Y-105097278D01*
X64300100Y-105090903D01*
X64035625Y-105090903D01*
X64033400Y-105068313D01*
X64033400Y-105068305D01*
X64025681Y-104989935D01*
X63995181Y-104889389D01*
X63945651Y-104796725D01*
X63918047Y-104763090D01*
X64300100Y-104765372D01*
X64424582Y-104753112D01*
X64544280Y-104716802D01*
X64654594Y-104657837D01*
X64751285Y-104578485D01*
X64830637Y-104481794D01*
X64889602Y-104371480D01*
X64925912Y-104251782D01*
X64938172Y-104127300D01*
X64935100Y-104019350D01*
X64890750Y-103975000D01*
X67263203Y-103975000D01*
X67263203Y-104575000D01*
X67269578Y-104639730D01*
X67288460Y-104701973D01*
X67319121Y-104759337D01*
X67331975Y-104775000D01*
X67319121Y-104790663D01*
X67288460Y-104848027D01*
X67269578Y-104910270D01*
X67263203Y-104975000D01*
X67263203Y-105575000D01*
X67269578Y-105639730D01*
X67288460Y-105701973D01*
X67319121Y-105759337D01*
X67360384Y-105809616D01*
X67410663Y-105850879D01*
X67411600Y-105851380D01*
X67411600Y-105877013D01*
X67409021Y-105903200D01*
X67411600Y-105929387D01*
X67411600Y-105929395D01*
X67419319Y-106007765D01*
X67423489Y-106021510D01*
X67449819Y-106108310D01*
X67463036Y-106133037D01*
X67499350Y-106200975D01*
X67526674Y-106234269D01*
X67549307Y-106261848D01*
X67549310Y-106261851D01*
X67566006Y-106282195D01*
X67586350Y-106298891D01*
X80636300Y-119348842D01*
X80636301Y-121574409D01*
X80567952Y-121642758D01*
X80483170Y-121769642D01*
X80424772Y-121910628D01*
X80395000Y-122060299D01*
X80395000Y-122212901D01*
X80424772Y-122362572D01*
X80483170Y-122503558D01*
X80567952Y-122630442D01*
X80675858Y-122738348D01*
X80802742Y-122823130D01*
X80943728Y-122881528D01*
X81093399Y-122911300D01*
X81246001Y-122911300D01*
X81395672Y-122881528D01*
X81536658Y-122823130D01*
X81663542Y-122738348D01*
X81771448Y-122630442D01*
X81856230Y-122503558D01*
X81914628Y-122362572D01*
X81944400Y-122212901D01*
X81944400Y-122060299D01*
X81914628Y-121910628D01*
X81856230Y-121769642D01*
X81771448Y-121642758D01*
X81703100Y-121574410D01*
X81703100Y-119154086D01*
X81705679Y-119127899D01*
X81703100Y-119101712D01*
X81703100Y-119101705D01*
X81695381Y-119023335D01*
X81664881Y-118922789D01*
X81615351Y-118830125D01*
X81548695Y-118748905D01*
X81528351Y-118732209D01*
X68563937Y-105767796D01*
X68570879Y-105759337D01*
X68601540Y-105701973D01*
X68620422Y-105639730D01*
X68626797Y-105575000D01*
X68626797Y-105032938D01*
X79458009Y-115864151D01*
X79474705Y-115884495D01*
X79474723Y-115884509D01*
X79551452Y-115999342D01*
X79659358Y-116107248D01*
X79786242Y-116192030D01*
X79927228Y-116250428D01*
X80076899Y-116280200D01*
X80173559Y-116280200D01*
X81811944Y-117918586D01*
X81810820Y-117930000D01*
X81813400Y-117956194D01*
X81813400Y-117956195D01*
X81817407Y-117996874D01*
X81821119Y-118034565D01*
X81851619Y-118135111D01*
X81901149Y-118227775D01*
X81967805Y-118308995D01*
X82049025Y-118375651D01*
X82141689Y-118425181D01*
X82242235Y-118455681D01*
X82320605Y-118463400D01*
X82320606Y-118463400D01*
X82343203Y-118465626D01*
X82343203Y-118945000D01*
X82349578Y-119009730D01*
X82368460Y-119071973D01*
X82399121Y-119129337D01*
X82440384Y-119179616D01*
X82490663Y-119220879D01*
X82548027Y-119251540D01*
X82610270Y-119270422D01*
X82675000Y-119276797D01*
X86485000Y-119276797D01*
X86549730Y-119270422D01*
X86611973Y-119251540D01*
X86669337Y-119220879D01*
X86719616Y-119179616D01*
X86760879Y-119129337D01*
X86789922Y-119075000D01*
X87116928Y-119075000D01*
X87129188Y-119199482D01*
X87165498Y-119319180D01*
X87224463Y-119429494D01*
X87303815Y-119526185D01*
X87400506Y-119605537D01*
X87510820Y-119664502D01*
X87630518Y-119700812D01*
X87755000Y-119713072D01*
X87979250Y-119710000D01*
X88138000Y-119551250D01*
X88138000Y-118057000D01*
X88392000Y-118057000D01*
X88392000Y-119551250D01*
X88550750Y-119710000D01*
X88775000Y-119713072D01*
X88899482Y-119700812D01*
X89019180Y-119664502D01*
X89129494Y-119605537D01*
X89226185Y-119526185D01*
X89305537Y-119429494D01*
X89364502Y-119319180D01*
X89400812Y-119199482D01*
X89413072Y-119075000D01*
X89410000Y-118215750D01*
X89251250Y-118057000D01*
X88392000Y-118057000D01*
X88138000Y-118057000D01*
X87278750Y-118057000D01*
X87120000Y-118215750D01*
X87116928Y-119075000D01*
X86789922Y-119075000D01*
X86791540Y-119071973D01*
X86810422Y-119009730D01*
X86816797Y-118945000D01*
X86816797Y-116915000D01*
X86810422Y-116850270D01*
X86791540Y-116788027D01*
X86789923Y-116785000D01*
X87116928Y-116785000D01*
X87120000Y-117644250D01*
X87278750Y-117803000D01*
X88138000Y-117803000D01*
X88138000Y-116308750D01*
X88392000Y-116308750D01*
X88392000Y-117803000D01*
X89251250Y-117803000D01*
X89410000Y-117644250D01*
X89412607Y-116915000D01*
X89713203Y-116915000D01*
X89713203Y-118945000D01*
X89719578Y-119009730D01*
X89738460Y-119071973D01*
X89769121Y-119129337D01*
X89810384Y-119179616D01*
X89860663Y-119220879D01*
X89918027Y-119251540D01*
X89980270Y-119270422D01*
X90045000Y-119276797D01*
X93855000Y-119276797D01*
X93919730Y-119270422D01*
X93981973Y-119251540D01*
X94039337Y-119220879D01*
X94089616Y-119179616D01*
X94130879Y-119129337D01*
X94161540Y-119071973D01*
X94180422Y-119009730D01*
X94186797Y-118945000D01*
X94186797Y-116915000D01*
X94180422Y-116850270D01*
X94161540Y-116788027D01*
X94130879Y-116730663D01*
X94089616Y-116680384D01*
X94039337Y-116639121D01*
X93981973Y-116608460D01*
X93919730Y-116589578D01*
X93855000Y-116583203D01*
X90045000Y-116583203D01*
X89980270Y-116589578D01*
X89918027Y-116608460D01*
X89860663Y-116639121D01*
X89810384Y-116680384D01*
X89769121Y-116730663D01*
X89738460Y-116788027D01*
X89719578Y-116850270D01*
X89713203Y-116915000D01*
X89412607Y-116915000D01*
X89413072Y-116785000D01*
X89400812Y-116660518D01*
X89364502Y-116540820D01*
X89305537Y-116430506D01*
X89226185Y-116333815D01*
X89129494Y-116254463D01*
X89019180Y-116195498D01*
X88899482Y-116159188D01*
X88775000Y-116146928D01*
X88550750Y-116150000D01*
X88392000Y-116308750D01*
X88138000Y-116308750D01*
X87979250Y-116150000D01*
X87755000Y-116146928D01*
X87630518Y-116159188D01*
X87510820Y-116195498D01*
X87400506Y-116254463D01*
X87303815Y-116333815D01*
X87224463Y-116430506D01*
X87165498Y-116540820D01*
X87129188Y-116660518D01*
X87116928Y-116785000D01*
X86789923Y-116785000D01*
X86760879Y-116730663D01*
X86719616Y-116680384D01*
X86669337Y-116639121D01*
X86611973Y-116608460D01*
X86549730Y-116589578D01*
X86485000Y-116583203D01*
X82675000Y-116583203D01*
X82610270Y-116589578D01*
X82548027Y-116608460D01*
X82490663Y-116639121D01*
X82440384Y-116680384D01*
X82399121Y-116730663D01*
X82368460Y-116788027D01*
X82349578Y-116850270D01*
X82343203Y-116915000D01*
X82343203Y-116941161D01*
X80927900Y-115525859D01*
X80927900Y-115429199D01*
X80898128Y-115279528D01*
X80839730Y-115138542D01*
X80754948Y-115011658D01*
X80647042Y-114903752D01*
X80520158Y-114818970D01*
X80379172Y-114760572D01*
X80229501Y-114730800D01*
X80076899Y-114730800D01*
X79927228Y-114760572D01*
X79881892Y-114779350D01*
X77319742Y-112217200D01*
X82256303Y-112217200D01*
X82256303Y-113411000D01*
X82262678Y-113475730D01*
X82281560Y-113537973D01*
X82312221Y-113595337D01*
X82353484Y-113645616D01*
X82403763Y-113686879D01*
X82461127Y-113717540D01*
X82523370Y-113736422D01*
X82588100Y-113742797D01*
X83781900Y-113742797D01*
X83846630Y-113736422D01*
X83908873Y-113717540D01*
X83966237Y-113686879D01*
X84016516Y-113645616D01*
X84057779Y-113595337D01*
X84088440Y-113537973D01*
X84107322Y-113475730D01*
X84113697Y-113411000D01*
X84113697Y-113349725D01*
X84136287Y-113347500D01*
X84136295Y-113347500D01*
X84214665Y-113339781D01*
X84315211Y-113309281D01*
X84407875Y-113259751D01*
X84489095Y-113193095D01*
X84505796Y-113172745D01*
X84837726Y-112840816D01*
X84858658Y-112861748D01*
X84985542Y-112946530D01*
X85126528Y-113004928D01*
X85276199Y-113034700D01*
X85428801Y-113034700D01*
X85578472Y-113004928D01*
X85719458Y-112946530D01*
X85846342Y-112861748D01*
X85954248Y-112753842D01*
X86039030Y-112626958D01*
X86097428Y-112485972D01*
X86127200Y-112336301D01*
X86127200Y-112183699D01*
X86097428Y-112034028D01*
X86039030Y-111893042D01*
X85954248Y-111766158D01*
X85846342Y-111658252D01*
X85719458Y-111573470D01*
X85578472Y-111515072D01*
X85428801Y-111485300D01*
X85276199Y-111485300D01*
X85126528Y-111515072D01*
X84985542Y-111573470D01*
X84858658Y-111658252D01*
X84790310Y-111726600D01*
X84690394Y-111726600D01*
X84664200Y-111724020D01*
X84638006Y-111726600D01*
X84638005Y-111726600D01*
X84559635Y-111734319D01*
X84459089Y-111764819D01*
X84366425Y-111814349D01*
X84285205Y-111881005D01*
X84268504Y-111901355D01*
X84085372Y-112084487D01*
X84057779Y-112032863D01*
X84016516Y-111982584D01*
X83966237Y-111941321D01*
X83908873Y-111910660D01*
X83846630Y-111891778D01*
X83781900Y-111885403D01*
X82588100Y-111885403D01*
X82523370Y-111891778D01*
X82461127Y-111910660D01*
X82403763Y-111941321D01*
X82353484Y-111982584D01*
X82312221Y-112032863D01*
X82281560Y-112090227D01*
X82262678Y-112152470D01*
X82256303Y-112217200D01*
X77319742Y-112217200D01*
X69018896Y-103916355D01*
X69002195Y-103896005D01*
X68920975Y-103829349D01*
X68828311Y-103779819D01*
X68727765Y-103749319D01*
X68649395Y-103741600D01*
X68649387Y-103741600D01*
X68623200Y-103739021D01*
X68597013Y-103741600D01*
X68530614Y-103741600D01*
X68529616Y-103740384D01*
X68479337Y-103699121D01*
X68421973Y-103668460D01*
X68359730Y-103649578D01*
X68295000Y-103643203D01*
X67595000Y-103643203D01*
X67530270Y-103649578D01*
X67468027Y-103668460D01*
X67410663Y-103699121D01*
X67360384Y-103740384D01*
X67319121Y-103790663D01*
X67288460Y-103848027D01*
X67269578Y-103910270D01*
X67263203Y-103975000D01*
X64890750Y-103975000D01*
X64776350Y-103860600D01*
X63627000Y-103860600D01*
X63627000Y-103880600D01*
X63373000Y-103880600D01*
X63373000Y-103860600D01*
X62223650Y-103860600D01*
X62064900Y-104019350D01*
X62061828Y-104127300D01*
X62074088Y-104251782D01*
X62110398Y-104371480D01*
X62169363Y-104481794D01*
X62248715Y-104578485D01*
X62345406Y-104657837D01*
X62358400Y-104664783D01*
X62358400Y-104765601D01*
X62388172Y-104915272D01*
X62446570Y-105056258D01*
X62510086Y-105151316D01*
X62465284Y-105188084D01*
X62424021Y-105238363D01*
X62393360Y-105295727D01*
X62374478Y-105357970D01*
X62368103Y-105422700D01*
X62368103Y-106210100D01*
X62374478Y-106274830D01*
X62393360Y-106337073D01*
X62424021Y-106394437D01*
X62465284Y-106444716D01*
X62515563Y-106485979D01*
X62572927Y-106516640D01*
X62635170Y-106535522D01*
X62699900Y-106541897D01*
X62966600Y-106541897D01*
X62966601Y-117196057D01*
X62759455Y-117403203D01*
X59545000Y-117403203D01*
X59480270Y-117409578D01*
X59418027Y-117428460D01*
X59360663Y-117459121D01*
X59310384Y-117500384D01*
X59269121Y-117550663D01*
X59238460Y-117608027D01*
X59219578Y-117670270D01*
X59213203Y-117735000D01*
X51269900Y-117735000D01*
X51269900Y-103339900D01*
X62061828Y-103339900D01*
X62064900Y-103447850D01*
X62223650Y-103606600D01*
X63373000Y-103606600D01*
X63373000Y-102863650D01*
X63627000Y-102863650D01*
X63627000Y-103606600D01*
X64776350Y-103606600D01*
X64935100Y-103447850D01*
X64938172Y-103339900D01*
X64925912Y-103215418D01*
X64889602Y-103095720D01*
X64830637Y-102985406D01*
X64751285Y-102888715D01*
X64654594Y-102809363D01*
X64544280Y-102750398D01*
X64424582Y-102714088D01*
X64300100Y-102701828D01*
X63785750Y-102704900D01*
X63627000Y-102863650D01*
X63373000Y-102863650D01*
X63214250Y-102704900D01*
X62699900Y-102701828D01*
X62575418Y-102714088D01*
X62455720Y-102750398D01*
X62345406Y-102809363D01*
X62248715Y-102888715D01*
X62169363Y-102985406D01*
X62110398Y-103095720D01*
X62074088Y-103215418D01*
X62061828Y-103339900D01*
X51269900Y-103339900D01*
X51269900Y-78441640D01*
X51288414Y-78534717D01*
X51399467Y-78802822D01*
X51560691Y-79044110D01*
X51765890Y-79249309D01*
X52007178Y-79410533D01*
X52205850Y-79492826D01*
X52209819Y-79505910D01*
X52234505Y-79552093D01*
X52259350Y-79598575D01*
X52262203Y-79602051D01*
X52309307Y-79659448D01*
X52309310Y-79659451D01*
X52326006Y-79679795D01*
X52346350Y-79696491D01*
X82455386Y-109805528D01*
X82403763Y-109833121D01*
X82353484Y-109874384D01*
X82312221Y-109924663D01*
X82281560Y-109982027D01*
X82262678Y-110044270D01*
X82256303Y-110109000D01*
X82256303Y-111302800D01*
X82262678Y-111367530D01*
X82281560Y-111429773D01*
X82312221Y-111487137D01*
X82353484Y-111537416D01*
X82403763Y-111578679D01*
X82461127Y-111609340D01*
X82523370Y-111628222D01*
X82588100Y-111634597D01*
X83781900Y-111634597D01*
X83846630Y-111628222D01*
X83908873Y-111609340D01*
X83966237Y-111578679D01*
X84016516Y-111537416D01*
X84057779Y-111487137D01*
X84088440Y-111429773D01*
X84107322Y-111367530D01*
X84113697Y-111302800D01*
X84113697Y-110109000D01*
X84107322Y-110044270D01*
X84088440Y-109982027D01*
X84057779Y-109924663D01*
X84016516Y-109874384D01*
X83966237Y-109833121D01*
X83908873Y-109802460D01*
X83846630Y-109783578D01*
X83781900Y-109777203D01*
X83720625Y-109777203D01*
X83718400Y-109754612D01*
X83718400Y-109754605D01*
X83710681Y-109676235D01*
X83680181Y-109575689D01*
X83630651Y-109483025D01*
X83583122Y-109425111D01*
X83580693Y-109422151D01*
X83580691Y-109422149D01*
X83563995Y-109401805D01*
X83543651Y-109385109D01*
X82821339Y-108662797D01*
X83781900Y-108662797D01*
X83846630Y-108656422D01*
X83882078Y-108645668D01*
X83891058Y-108654648D01*
X84017942Y-108739430D01*
X84158928Y-108797828D01*
X84308599Y-108827600D01*
X84461201Y-108827600D01*
X84610872Y-108797828D01*
X84751858Y-108739430D01*
X84878742Y-108654648D01*
X84986648Y-108546742D01*
X85071430Y-108419858D01*
X85089498Y-108376239D01*
X85720800Y-109007542D01*
X85720801Y-110326203D01*
X85718221Y-110352400D01*
X85728519Y-110456964D01*
X85759019Y-110557510D01*
X85759020Y-110557511D01*
X85808550Y-110650175D01*
X85835874Y-110683469D01*
X85858507Y-110711048D01*
X85858510Y-110711051D01*
X85875206Y-110731395D01*
X85895550Y-110748091D01*
X87114104Y-111966645D01*
X87130805Y-111986995D01*
X87212025Y-112053651D01*
X87304689Y-112103181D01*
X87353169Y-112117887D01*
X87342678Y-112152470D01*
X87336303Y-112217200D01*
X87336303Y-113411000D01*
X87342678Y-113475730D01*
X87361560Y-113537973D01*
X87392221Y-113595337D01*
X87433484Y-113645616D01*
X87483763Y-113686879D01*
X87541127Y-113717540D01*
X87603370Y-113736422D01*
X87668100Y-113742797D01*
X88861900Y-113742797D01*
X88926630Y-113736422D01*
X88977526Y-113720982D01*
X89089842Y-113796030D01*
X89230828Y-113854428D01*
X89380499Y-113884200D01*
X89533101Y-113884200D01*
X89682772Y-113854428D01*
X89823758Y-113796030D01*
X89950642Y-113711248D01*
X90058548Y-113603342D01*
X90116729Y-113516270D01*
X92656504Y-116056045D01*
X92673205Y-116076395D01*
X92754425Y-116143051D01*
X92847089Y-116192581D01*
X92947635Y-116223081D01*
X93026005Y-116230800D01*
X93026006Y-116230800D01*
X93052200Y-116233380D01*
X93078394Y-116230800D01*
X99499982Y-116230800D01*
X99466716Y-116293037D01*
X99385381Y-116561161D01*
X99357918Y-116840000D01*
X99385381Y-117118839D01*
X99466716Y-117386963D01*
X99598795Y-117634067D01*
X99776545Y-117850655D01*
X99993133Y-118028405D01*
X100145787Y-118110000D01*
X99993133Y-118191595D01*
X99776545Y-118369345D01*
X99598795Y-118585933D01*
X99466716Y-118833037D01*
X99385381Y-119101161D01*
X99357918Y-119380000D01*
X99385381Y-119658839D01*
X99466716Y-119926963D01*
X99598795Y-120174067D01*
X99776545Y-120390655D01*
X99993133Y-120568405D01*
X100145787Y-120650000D01*
X99993133Y-120731595D01*
X99776545Y-120909345D01*
X99598795Y-121125933D01*
X99466716Y-121373037D01*
X99385381Y-121641161D01*
X99357918Y-121920000D01*
X99385381Y-122198839D01*
X99466716Y-122466963D01*
X99598795Y-122714067D01*
X99776545Y-122930655D01*
X99993133Y-123108405D01*
X100145787Y-123190000D01*
X99993133Y-123271595D01*
X99776545Y-123449345D01*
X99598795Y-123665933D01*
X99466716Y-123913037D01*
X99385381Y-124181161D01*
X99357918Y-124460000D01*
X99385381Y-124738839D01*
X99466716Y-125006963D01*
X99598795Y-125254067D01*
X99776545Y-125470655D01*
X99993133Y-125648405D01*
X100145787Y-125730000D01*
X99993133Y-125811595D01*
X99776545Y-125989345D01*
X99598795Y-126205933D01*
X99466716Y-126453037D01*
X99385381Y-126721161D01*
X99357918Y-127000000D01*
X99385381Y-127278839D01*
X99466716Y-127546963D01*
X99598795Y-127794067D01*
X99776545Y-128010655D01*
X99993133Y-128188405D01*
X100240237Y-128320484D01*
X100508361Y-128401819D01*
X100717325Y-128422400D01*
X101212675Y-128422400D01*
X101421639Y-128401819D01*
X101689763Y-128320484D01*
X101936867Y-128188405D01*
X102153455Y-128010655D01*
X102331205Y-127794067D01*
X102463284Y-127546963D01*
X102544619Y-127278839D01*
X102572082Y-127000000D01*
X102544619Y-126721161D01*
X102463284Y-126453037D01*
X102331205Y-126205933D01*
X102153455Y-125989345D01*
X101936867Y-125811595D01*
X101784213Y-125730000D01*
X101936867Y-125648405D01*
X102153455Y-125470655D01*
X102331205Y-125254067D01*
X102463284Y-125006963D01*
X102544619Y-124738839D01*
X102572082Y-124460000D01*
X102544619Y-124181161D01*
X102463284Y-123913037D01*
X102331205Y-123665933D01*
X102153455Y-123449345D01*
X101936867Y-123271595D01*
X101784213Y-123190000D01*
X101936867Y-123108405D01*
X102153455Y-122930655D01*
X102331205Y-122714067D01*
X102463284Y-122466963D01*
X102544619Y-122198839D01*
X102572082Y-121920000D01*
X102544619Y-121641161D01*
X102463284Y-121373037D01*
X102331205Y-121125933D01*
X102153455Y-120909345D01*
X101936867Y-120731595D01*
X101784213Y-120650000D01*
X101936867Y-120568405D01*
X102153455Y-120390655D01*
X102331205Y-120174067D01*
X102463284Y-119926963D01*
X102544619Y-119658839D01*
X102572082Y-119380000D01*
X102544619Y-119101161D01*
X102463284Y-118833037D01*
X102331205Y-118585933D01*
X102153455Y-118369345D01*
X101936867Y-118191595D01*
X101784213Y-118110000D01*
X101936867Y-118028405D01*
X102153455Y-117850655D01*
X102331205Y-117634067D01*
X102463284Y-117386963D01*
X102544619Y-117118839D01*
X102572082Y-116840000D01*
X102544619Y-116561161D01*
X102463284Y-116293037D01*
X102331205Y-116045933D01*
X102153455Y-115829345D01*
X101936867Y-115651595D01*
X101784213Y-115570000D01*
X101936867Y-115488405D01*
X102153455Y-115310655D01*
X102331205Y-115094067D01*
X102463284Y-114846963D01*
X102544619Y-114578839D01*
X102572082Y-114300000D01*
X102544619Y-114021161D01*
X102463284Y-113753037D01*
X102331205Y-113505933D01*
X102153455Y-113289345D01*
X101936867Y-113111595D01*
X101784213Y-113030000D01*
X101936867Y-112948405D01*
X102153455Y-112770655D01*
X102331205Y-112554067D01*
X102463284Y-112306963D01*
X102544619Y-112038839D01*
X102572082Y-111760000D01*
X102544619Y-111481161D01*
X102463284Y-111213037D01*
X102331205Y-110965933D01*
X102153455Y-110749345D01*
X101936867Y-110571595D01*
X101784213Y-110490000D01*
X101936867Y-110408405D01*
X102153455Y-110230655D01*
X102331205Y-110014067D01*
X102463284Y-109766963D01*
X102544619Y-109498839D01*
X102572082Y-109220000D01*
X102544619Y-108941161D01*
X102463284Y-108673037D01*
X102331205Y-108425933D01*
X102153455Y-108209345D01*
X101936867Y-108031595D01*
X101784213Y-107950000D01*
X101936867Y-107868405D01*
X102153455Y-107690655D01*
X102331205Y-107474067D01*
X102463284Y-107226963D01*
X102544619Y-106958839D01*
X102572082Y-106680000D01*
X102544619Y-106401161D01*
X102463284Y-106133037D01*
X102331205Y-105885933D01*
X102153455Y-105669345D01*
X101936867Y-105491595D01*
X101784213Y-105410000D01*
X101936867Y-105328405D01*
X102153455Y-105150655D01*
X102331205Y-104934067D01*
X102463284Y-104686963D01*
X102544619Y-104418839D01*
X102572082Y-104140000D01*
X102544619Y-103861161D01*
X102463284Y-103593037D01*
X102394671Y-103464670D01*
X111223651Y-94635691D01*
X111243995Y-94618995D01*
X111310651Y-94537775D01*
X111360181Y-94445111D01*
X111390681Y-94344565D01*
X111398400Y-94266195D01*
X111398400Y-94266188D01*
X111400979Y-94240001D01*
X111398400Y-94213814D01*
X111398400Y-93980000D01*
X114597918Y-93980000D01*
X114625381Y-94258839D01*
X114706716Y-94526963D01*
X114838795Y-94774067D01*
X115016545Y-94990655D01*
X115233133Y-95168405D01*
X115385787Y-95250000D01*
X115233133Y-95331595D01*
X115016545Y-95509345D01*
X114838795Y-95725933D01*
X114706716Y-95973037D01*
X114625381Y-96241161D01*
X114597918Y-96520000D01*
X114625381Y-96798839D01*
X114706716Y-97066963D01*
X114838795Y-97314067D01*
X115016545Y-97530655D01*
X115233133Y-97708405D01*
X115385787Y-97790000D01*
X115233133Y-97871595D01*
X115016545Y-98049345D01*
X114838795Y-98265933D01*
X114706716Y-98513037D01*
X114625381Y-98781161D01*
X114597918Y-99060000D01*
X114625381Y-99338839D01*
X114706716Y-99606963D01*
X114838795Y-99854067D01*
X115016545Y-100070655D01*
X115233133Y-100248405D01*
X115385787Y-100330000D01*
X115233133Y-100411595D01*
X115016545Y-100589345D01*
X114838795Y-100805933D01*
X114706716Y-101053037D01*
X114625381Y-101321161D01*
X114597918Y-101600000D01*
X114625381Y-101878839D01*
X114706716Y-102146963D01*
X114838795Y-102394067D01*
X115016545Y-102610655D01*
X115233133Y-102788405D01*
X115385787Y-102870000D01*
X115233133Y-102951595D01*
X115016545Y-103129345D01*
X114838795Y-103345933D01*
X114706716Y-103593037D01*
X114625381Y-103861161D01*
X114597918Y-104140000D01*
X114625381Y-104418839D01*
X114706716Y-104686963D01*
X114838795Y-104934067D01*
X115016545Y-105150655D01*
X115233133Y-105328405D01*
X115385787Y-105410000D01*
X115233133Y-105491595D01*
X115016545Y-105669345D01*
X114838795Y-105885933D01*
X114706716Y-106133037D01*
X114625381Y-106401161D01*
X114597918Y-106680000D01*
X114625381Y-106958839D01*
X114706716Y-107226963D01*
X114838795Y-107474067D01*
X115016545Y-107690655D01*
X115233133Y-107868405D01*
X115385787Y-107950000D01*
X115233133Y-108031595D01*
X115016545Y-108209345D01*
X114838795Y-108425933D01*
X114706716Y-108673037D01*
X114625381Y-108941161D01*
X114597918Y-109220000D01*
X114625381Y-109498839D01*
X114706716Y-109766963D01*
X114838795Y-110014067D01*
X115016545Y-110230655D01*
X115233133Y-110408405D01*
X115385787Y-110490000D01*
X115233133Y-110571595D01*
X115016545Y-110749345D01*
X114838795Y-110965933D01*
X114706716Y-111213037D01*
X114625381Y-111481161D01*
X114597918Y-111760000D01*
X114625381Y-112038839D01*
X114706716Y-112306963D01*
X114838795Y-112554067D01*
X115016545Y-112770655D01*
X115233133Y-112948405D01*
X115385787Y-113030000D01*
X115233133Y-113111595D01*
X115016545Y-113289345D01*
X114838795Y-113505933D01*
X114706716Y-113753037D01*
X114625381Y-114021161D01*
X114597918Y-114300000D01*
X114625381Y-114578839D01*
X114706716Y-114846963D01*
X114838795Y-115094067D01*
X115016545Y-115310655D01*
X115233133Y-115488405D01*
X115385787Y-115570000D01*
X115233133Y-115651595D01*
X115016545Y-115829345D01*
X114838795Y-116045933D01*
X114706716Y-116293037D01*
X114625381Y-116561161D01*
X114597918Y-116840000D01*
X114625381Y-117118839D01*
X114706716Y-117386963D01*
X114838795Y-117634067D01*
X115016545Y-117850655D01*
X115233133Y-118028405D01*
X115385787Y-118110000D01*
X115233133Y-118191595D01*
X115016545Y-118369345D01*
X114838795Y-118585933D01*
X114706716Y-118833037D01*
X114625381Y-119101161D01*
X114597918Y-119380000D01*
X114625381Y-119658839D01*
X114706716Y-119926963D01*
X114838795Y-120174067D01*
X115016545Y-120390655D01*
X115233133Y-120568405D01*
X115385787Y-120650000D01*
X115233133Y-120731595D01*
X115016545Y-120909345D01*
X114838795Y-121125933D01*
X114706716Y-121373037D01*
X114625381Y-121641161D01*
X114597918Y-121920000D01*
X114625381Y-122198839D01*
X114706716Y-122466963D01*
X114838795Y-122714067D01*
X115016545Y-122930655D01*
X115233133Y-123108405D01*
X115385787Y-123190000D01*
X115233133Y-123271595D01*
X115016545Y-123449345D01*
X114838795Y-123665933D01*
X114706716Y-123913037D01*
X114625381Y-124181161D01*
X114597918Y-124460000D01*
X114625381Y-124738839D01*
X114706716Y-125006963D01*
X114838795Y-125254067D01*
X115016545Y-125470655D01*
X115144911Y-125576003D01*
X114935000Y-125576003D01*
X114870270Y-125582378D01*
X114808027Y-125601260D01*
X114750663Y-125631921D01*
X114700384Y-125673184D01*
X114659121Y-125723463D01*
X114628460Y-125780827D01*
X114609578Y-125843070D01*
X114603203Y-125907800D01*
X114603203Y-128092200D01*
X114609578Y-128156930D01*
X114628460Y-128219173D01*
X114659121Y-128276537D01*
X114700384Y-128326816D01*
X114750663Y-128368079D01*
X114808027Y-128398740D01*
X114870270Y-128417622D01*
X114935000Y-128423997D01*
X117475000Y-128423997D01*
X117539730Y-128417622D01*
X117601973Y-128398740D01*
X117659337Y-128368079D01*
X117709616Y-128326816D01*
X117750879Y-128276537D01*
X117781540Y-128219173D01*
X117800422Y-128156930D01*
X117806797Y-128092200D01*
X117806797Y-125907800D01*
X117800422Y-125843070D01*
X117781540Y-125780827D01*
X117750879Y-125723463D01*
X117709616Y-125673184D01*
X117703600Y-125668246D01*
X121928000Y-125668246D01*
X121928000Y-125791754D01*
X121952095Y-125912889D01*
X121999360Y-126026996D01*
X122067977Y-126129689D01*
X122155311Y-126217023D01*
X122258004Y-126285640D01*
X122372111Y-126332905D01*
X122493246Y-126357000D01*
X122616754Y-126357000D01*
X122737889Y-126332905D01*
X122851996Y-126285640D01*
X122954689Y-126217023D01*
X123042023Y-126129689D01*
X123110640Y-126026996D01*
X123157905Y-125912889D01*
X123182000Y-125791754D01*
X123182000Y-125668246D01*
X123157905Y-125547111D01*
X123110640Y-125433004D01*
X123042023Y-125330311D01*
X122954689Y-125242977D01*
X122851996Y-125174360D01*
X122737889Y-125127095D01*
X122616754Y-125103000D01*
X122493246Y-125103000D01*
X122372111Y-125127095D01*
X122258004Y-125174360D01*
X122155311Y-125242977D01*
X122067977Y-125330311D01*
X121999360Y-125433004D01*
X121952095Y-125547111D01*
X121928000Y-125668246D01*
X117703600Y-125668246D01*
X117659337Y-125631921D01*
X117601973Y-125601260D01*
X117539730Y-125582378D01*
X117475000Y-125576003D01*
X117265089Y-125576003D01*
X117393455Y-125470655D01*
X117571205Y-125254067D01*
X117703284Y-125006963D01*
X117784619Y-124738839D01*
X117812082Y-124460000D01*
X117784619Y-124181161D01*
X117703284Y-123913037D01*
X117571205Y-123665933D01*
X117393455Y-123449345D01*
X117176867Y-123271595D01*
X117024213Y-123190000D01*
X117176867Y-123108405D01*
X117393455Y-122930655D01*
X117571205Y-122714067D01*
X117703284Y-122466963D01*
X117784619Y-122198839D01*
X117812082Y-121920000D01*
X117784619Y-121641161D01*
X117703284Y-121373037D01*
X117571205Y-121125933D01*
X117393455Y-120909345D01*
X117176867Y-120731595D01*
X117024213Y-120650000D01*
X117176867Y-120568405D01*
X117393455Y-120390655D01*
X117571205Y-120174067D01*
X117703284Y-119926963D01*
X117784619Y-119658839D01*
X117812082Y-119380000D01*
X117784619Y-119101161D01*
X117703284Y-118833037D01*
X117571205Y-118585933D01*
X117393455Y-118369345D01*
X117176867Y-118191595D01*
X117024213Y-118110000D01*
X117176867Y-118028405D01*
X117393455Y-117850655D01*
X117571205Y-117634067D01*
X117703284Y-117386963D01*
X117784619Y-117118839D01*
X117812082Y-116840000D01*
X117784619Y-116561161D01*
X117703284Y-116293037D01*
X117571205Y-116045933D01*
X117393455Y-115829345D01*
X117176867Y-115651595D01*
X117024213Y-115570000D01*
X117176867Y-115488405D01*
X117393455Y-115310655D01*
X117571205Y-115094067D01*
X117703284Y-114846963D01*
X117784619Y-114578839D01*
X117812082Y-114300000D01*
X117784619Y-114021161D01*
X117703284Y-113753037D01*
X117571205Y-113505933D01*
X117393455Y-113289345D01*
X117176867Y-113111595D01*
X117024213Y-113030000D01*
X117176867Y-112948405D01*
X117393455Y-112770655D01*
X117571205Y-112554067D01*
X117703284Y-112306963D01*
X117784619Y-112038839D01*
X117812082Y-111760000D01*
X117784619Y-111481161D01*
X117703284Y-111213037D01*
X117571205Y-110965933D01*
X117393455Y-110749345D01*
X117176867Y-110571595D01*
X117024213Y-110490000D01*
X117176867Y-110408405D01*
X117393455Y-110230655D01*
X117571205Y-110014067D01*
X117703284Y-109766963D01*
X117784619Y-109498839D01*
X117812082Y-109220000D01*
X117784619Y-108941161D01*
X117703284Y-108673037D01*
X117571205Y-108425933D01*
X117393455Y-108209345D01*
X117176867Y-108031595D01*
X117024213Y-107950000D01*
X117176867Y-107868405D01*
X117393455Y-107690655D01*
X117571205Y-107474067D01*
X117703284Y-107226963D01*
X117784619Y-106958839D01*
X117812082Y-106680000D01*
X117784619Y-106401161D01*
X117703284Y-106133037D01*
X117571205Y-105885933D01*
X117393455Y-105669345D01*
X117176867Y-105491595D01*
X117024213Y-105410000D01*
X117176867Y-105328405D01*
X117393455Y-105150655D01*
X117571205Y-104934067D01*
X117703284Y-104686963D01*
X117784619Y-104418839D01*
X117812082Y-104140000D01*
X117784619Y-103861161D01*
X117703284Y-103593037D01*
X117571205Y-103345933D01*
X117393455Y-103129345D01*
X117176867Y-102951595D01*
X117024213Y-102870000D01*
X117176867Y-102788405D01*
X117393455Y-102610655D01*
X117571205Y-102394067D01*
X117703284Y-102146963D01*
X117784619Y-101878839D01*
X117812082Y-101600000D01*
X117784619Y-101321161D01*
X117703284Y-101053037D01*
X117571205Y-100805933D01*
X117393455Y-100589345D01*
X117176867Y-100411595D01*
X117024213Y-100330000D01*
X117176867Y-100248405D01*
X117393455Y-100070655D01*
X117571205Y-99854067D01*
X117703284Y-99606963D01*
X117784619Y-99338839D01*
X117812082Y-99060000D01*
X117784619Y-98781161D01*
X117703284Y-98513037D01*
X117571205Y-98265933D01*
X117393455Y-98049345D01*
X117176867Y-97871595D01*
X117024213Y-97790000D01*
X117176867Y-97708405D01*
X117393455Y-97530655D01*
X117571205Y-97314067D01*
X117703284Y-97066963D01*
X117784619Y-96798839D01*
X117812082Y-96520000D01*
X117784619Y-96241161D01*
X117703284Y-95973037D01*
X117571205Y-95725933D01*
X117393455Y-95509345D01*
X117176867Y-95331595D01*
X117024213Y-95250000D01*
X117176867Y-95168405D01*
X117393455Y-94990655D01*
X117571205Y-94774067D01*
X117703284Y-94526963D01*
X117784619Y-94258839D01*
X117812082Y-93980000D01*
X117784619Y-93701161D01*
X117703284Y-93433037D01*
X117571205Y-93185933D01*
X117393455Y-92969345D01*
X117176867Y-92791595D01*
X116929763Y-92659516D01*
X116661639Y-92578181D01*
X116452675Y-92557600D01*
X115957325Y-92557600D01*
X115748361Y-92578181D01*
X115480237Y-92659516D01*
X115233133Y-92791595D01*
X115016545Y-92969345D01*
X114838795Y-93185933D01*
X114706716Y-93433037D01*
X114625381Y-93701161D01*
X114597918Y-93980000D01*
X111398400Y-93980000D01*
X111398400Y-59231290D01*
X111466748Y-59162942D01*
X111551530Y-59036058D01*
X111609928Y-58895072D01*
X111639700Y-58745401D01*
X111639700Y-58592799D01*
X111609928Y-58443128D01*
X111551530Y-58302142D01*
X111466748Y-58175258D01*
X111358842Y-58067352D01*
X111231958Y-57982570D01*
X111090972Y-57924172D01*
X110941301Y-57894400D01*
X110788699Y-57894400D01*
X110639028Y-57924172D01*
X110498042Y-57982570D01*
X110371158Y-58067352D01*
X110263252Y-58175258D01*
X110178470Y-58302142D01*
X110120072Y-58443128D01*
X110090300Y-58592799D01*
X110090300Y-58745401D01*
X110120072Y-58895072D01*
X110178470Y-59036058D01*
X110263252Y-59162942D01*
X110331600Y-59231290D01*
X110331600Y-59969146D01*
X110325275Y-59920784D01*
X110212977Y-59589040D01*
X110101384Y-59380264D01*
X109822360Y-59267245D01*
X108764605Y-60325000D01*
X109822360Y-61382755D01*
X110101384Y-61269736D01*
X110256556Y-60955751D01*
X110331600Y-60676632D01*
X110331600Y-67589147D01*
X110325275Y-67540784D01*
X110212977Y-67209040D01*
X110101384Y-67000264D01*
X109822360Y-66887245D01*
X108764605Y-67945000D01*
X109822360Y-69002755D01*
X110101384Y-68889736D01*
X110256556Y-68575751D01*
X110331600Y-68296631D01*
X110331600Y-75209149D01*
X110325275Y-75160784D01*
X110212977Y-74829040D01*
X110101384Y-74620264D01*
X109822360Y-74507245D01*
X108764605Y-75565000D01*
X109822360Y-76622755D01*
X110101384Y-76509736D01*
X110256556Y-76195751D01*
X110331600Y-75916630D01*
X110331601Y-94019057D01*
X102552572Y-101798086D01*
X102572082Y-101600000D01*
X102544619Y-101321161D01*
X102463284Y-101053037D01*
X102331205Y-100805933D01*
X102153455Y-100589345D01*
X101936867Y-100411595D01*
X101784213Y-100330000D01*
X101936867Y-100248405D01*
X102153455Y-100070655D01*
X102331205Y-99854067D01*
X102463284Y-99606963D01*
X102544619Y-99338839D01*
X102572082Y-99060000D01*
X102544619Y-98781161D01*
X102463284Y-98513037D01*
X102331205Y-98265933D01*
X102153455Y-98049345D01*
X101936867Y-97871595D01*
X101784213Y-97790000D01*
X101936867Y-97708405D01*
X102153455Y-97530655D01*
X102331205Y-97314067D01*
X102463284Y-97066963D01*
X102544619Y-96798839D01*
X102572082Y-96520000D01*
X102544619Y-96241161D01*
X102463284Y-95973037D01*
X102331205Y-95725933D01*
X102153455Y-95509345D01*
X101936867Y-95331595D01*
X101784213Y-95250000D01*
X101936867Y-95168405D01*
X102153455Y-94990655D01*
X102331205Y-94774067D01*
X102463284Y-94526963D01*
X102544619Y-94258839D01*
X102572082Y-93980000D01*
X102544619Y-93701161D01*
X102463284Y-93433037D01*
X102331205Y-93185933D01*
X102153455Y-92969345D01*
X101936867Y-92791595D01*
X101689763Y-92659516D01*
X101421639Y-92578181D01*
X101212675Y-92557600D01*
X100717325Y-92557600D01*
X100508361Y-92578181D01*
X100240237Y-92659516D01*
X99993133Y-92791595D01*
X99776545Y-92969345D01*
X99598795Y-93185933D01*
X99466716Y-93433037D01*
X99385381Y-93701161D01*
X99357918Y-93980000D01*
X99385381Y-94258839D01*
X99466716Y-94526963D01*
X99598795Y-94774067D01*
X99776545Y-94990655D01*
X99993133Y-95168405D01*
X100145787Y-95250000D01*
X99993133Y-95331595D01*
X99776545Y-95509345D01*
X99598795Y-95725933D01*
X99466716Y-95973037D01*
X99385381Y-96241161D01*
X99357918Y-96520000D01*
X99385381Y-96798839D01*
X99466716Y-97066963D01*
X99598795Y-97314067D01*
X99776545Y-97530655D01*
X99993133Y-97708405D01*
X100145787Y-97790000D01*
X99993133Y-97871595D01*
X99776545Y-98049345D01*
X99598795Y-98265933D01*
X99466716Y-98513037D01*
X99385381Y-98781161D01*
X99357918Y-99060000D01*
X99385381Y-99338839D01*
X99466716Y-99606963D01*
X99598795Y-99854067D01*
X99776545Y-100070655D01*
X99993133Y-100248405D01*
X100145787Y-100330000D01*
X99993133Y-100411595D01*
X99776545Y-100589345D01*
X99598795Y-100805933D01*
X99466716Y-101053037D01*
X99385381Y-101321161D01*
X99357918Y-101600000D01*
X99385381Y-101878839D01*
X99466716Y-102146963D01*
X99598795Y-102394067D01*
X99776545Y-102610655D01*
X99993133Y-102788405D01*
X100145787Y-102870000D01*
X99993133Y-102951595D01*
X99776545Y-103129345D01*
X99598795Y-103345933D01*
X99466716Y-103593037D01*
X99385381Y-103861161D01*
X99357918Y-104140000D01*
X99385381Y-104418839D01*
X99466716Y-104686963D01*
X99598795Y-104934067D01*
X99776545Y-105150655D01*
X99993133Y-105328405D01*
X100145787Y-105410000D01*
X99993133Y-105491595D01*
X99776545Y-105669345D01*
X99598795Y-105885933D01*
X99466716Y-106133037D01*
X99385381Y-106401161D01*
X99357918Y-106680000D01*
X99385381Y-106958839D01*
X99466716Y-107226963D01*
X99598795Y-107474067D01*
X99776545Y-107690655D01*
X99993133Y-107868405D01*
X100145787Y-107950000D01*
X99993133Y-108031595D01*
X99776545Y-108209345D01*
X99598795Y-108425933D01*
X99466716Y-108673037D01*
X99385381Y-108941161D01*
X99357918Y-109220000D01*
X99385381Y-109498839D01*
X99466716Y-109766963D01*
X99535329Y-109895330D01*
X98323659Y-111107000D01*
X94273697Y-111107000D01*
X94273697Y-110151385D01*
X94283496Y-110139445D01*
X97546051Y-106876891D01*
X97566395Y-106860195D01*
X97608299Y-106809136D01*
X97633051Y-106778975D01*
X97682581Y-106686311D01*
X97713081Y-106585765D01*
X97716151Y-106554597D01*
X97720800Y-106507395D01*
X97720800Y-106507388D01*
X97723379Y-106481201D01*
X97720800Y-106455014D01*
X97720800Y-89723541D01*
X107990862Y-79453480D01*
X108155283Y-79521586D01*
X108439902Y-79578200D01*
X108730098Y-79578200D01*
X109014717Y-79521586D01*
X109282822Y-79410533D01*
X109524110Y-79249309D01*
X109729309Y-79044110D01*
X109890533Y-78802822D01*
X110001586Y-78534717D01*
X110058200Y-78250098D01*
X110058200Y-77959902D01*
X110001586Y-77675283D01*
X109890533Y-77407178D01*
X109729309Y-77165890D01*
X109562908Y-76999489D01*
X109642755Y-76802360D01*
X108585000Y-75744605D01*
X107527245Y-76802360D01*
X107607092Y-76999489D01*
X107440691Y-77165890D01*
X107279467Y-77407178D01*
X107168414Y-77675283D01*
X107111800Y-77959902D01*
X107111800Y-78250098D01*
X107168414Y-78534717D01*
X107236520Y-78699138D01*
X96828750Y-89106909D01*
X96808406Y-89123605D01*
X96791800Y-89143839D01*
X96791800Y-83032541D01*
X104202403Y-75621938D01*
X106799306Y-75621938D01*
X106844725Y-75969216D01*
X106957023Y-76300960D01*
X107068616Y-76509736D01*
X107347640Y-76622755D01*
X108405395Y-75565000D01*
X107347640Y-74507245D01*
X107068616Y-74620264D01*
X106913444Y-74934249D01*
X106822509Y-75272473D01*
X106799306Y-75621938D01*
X104202403Y-75621938D01*
X105496701Y-74327640D01*
X107527245Y-74327640D01*
X108585000Y-75385395D01*
X109642755Y-74327640D01*
X109529736Y-74048616D01*
X109215751Y-73893444D01*
X108877527Y-73802509D01*
X108528062Y-73779306D01*
X108180784Y-73824725D01*
X107849040Y-73937023D01*
X107640264Y-74048616D01*
X107527245Y-74327640D01*
X105496701Y-74327640D01*
X107990862Y-71833480D01*
X108155283Y-71901586D01*
X108439902Y-71958200D01*
X108730098Y-71958200D01*
X109014717Y-71901586D01*
X109282822Y-71790533D01*
X109524110Y-71629309D01*
X109729309Y-71424110D01*
X109890533Y-71182822D01*
X110001586Y-70914717D01*
X110058200Y-70630098D01*
X110058200Y-70339902D01*
X110001586Y-70055283D01*
X109890533Y-69787178D01*
X109729309Y-69545890D01*
X109562908Y-69379489D01*
X109642755Y-69182360D01*
X108585000Y-68124605D01*
X107527245Y-69182360D01*
X107607092Y-69379489D01*
X107440691Y-69545890D01*
X107279467Y-69787178D01*
X107168414Y-70055283D01*
X107111800Y-70339902D01*
X107111800Y-70630098D01*
X107168414Y-70914717D01*
X107236520Y-71079138D01*
X95899750Y-82415909D01*
X95879406Y-82432605D01*
X95862710Y-82452949D01*
X95862707Y-82452952D01*
X95840074Y-82480531D01*
X95812750Y-82513825D01*
X95812749Y-82513827D01*
X95775100Y-82584262D01*
X95775100Y-76429241D01*
X104202403Y-68001938D01*
X106799306Y-68001938D01*
X106844725Y-68349216D01*
X106957023Y-68680960D01*
X107068616Y-68889736D01*
X107347640Y-69002755D01*
X108405395Y-67945000D01*
X107347640Y-66887245D01*
X107068616Y-67000264D01*
X106913444Y-67314249D01*
X106822509Y-67652473D01*
X106799306Y-68001938D01*
X104202403Y-68001938D01*
X105496701Y-66707640D01*
X107527245Y-66707640D01*
X108585000Y-67765395D01*
X109642755Y-66707640D01*
X109529736Y-66428616D01*
X109215751Y-66273444D01*
X108877527Y-66182509D01*
X108528062Y-66159306D01*
X108180784Y-66204725D01*
X107849040Y-66317023D01*
X107640264Y-66428616D01*
X107527245Y-66707640D01*
X105496701Y-66707640D01*
X107990861Y-64213480D01*
X108155283Y-64281586D01*
X108439902Y-64338200D01*
X108730098Y-64338200D01*
X109014717Y-64281586D01*
X109282822Y-64170533D01*
X109524110Y-64009309D01*
X109729309Y-63804110D01*
X109890533Y-63562822D01*
X110001586Y-63294717D01*
X110058200Y-63010098D01*
X110058200Y-62719902D01*
X110001586Y-62435283D01*
X109890533Y-62167178D01*
X109729309Y-61925890D01*
X109562908Y-61759489D01*
X109642755Y-61562360D01*
X108585000Y-60504605D01*
X107527245Y-61562360D01*
X107607092Y-61759489D01*
X107440691Y-61925890D01*
X107279467Y-62167178D01*
X107168414Y-62435283D01*
X107111800Y-62719902D01*
X107111800Y-63010098D01*
X107168414Y-63294717D01*
X107236520Y-63459139D01*
X94883055Y-75812604D01*
X94862705Y-75829305D01*
X94796049Y-75910525D01*
X94746519Y-76003190D01*
X94716019Y-76103736D01*
X94708300Y-76182106D01*
X94708300Y-76182113D01*
X94705721Y-76208300D01*
X94708300Y-76234487D01*
X94708300Y-84405332D01*
X94578263Y-84091393D01*
X94347546Y-83746101D01*
X94053899Y-83452454D01*
X93708607Y-83221737D01*
X93324939Y-83062817D01*
X92917640Y-82981800D01*
X92502360Y-82981800D01*
X92095061Y-83062817D01*
X91711393Y-83221737D01*
X91366101Y-83452454D01*
X91072454Y-83746101D01*
X90841737Y-84091393D01*
X90682817Y-84475061D01*
X90601800Y-84882360D01*
X90601800Y-85297640D01*
X90605504Y-85316263D01*
X90240400Y-84951159D01*
X90240400Y-78123890D01*
X90308748Y-78055542D01*
X90393530Y-77928658D01*
X90451928Y-77787672D01*
X90481700Y-77638001D01*
X90481700Y-77485399D01*
X90451928Y-77335728D01*
X90393530Y-77194742D01*
X90308748Y-77067858D01*
X90200842Y-76959952D01*
X90073958Y-76875170D01*
X89932972Y-76816772D01*
X89783301Y-76787000D01*
X89630699Y-76787000D01*
X89481028Y-76816772D01*
X89340042Y-76875170D01*
X89213158Y-76959952D01*
X89105252Y-77067858D01*
X89020470Y-77194742D01*
X88962072Y-77335728D01*
X88932300Y-77485399D01*
X88932300Y-77638001D01*
X88962072Y-77787672D01*
X89020470Y-77928658D01*
X89105252Y-78055542D01*
X89173601Y-78123891D01*
X89173600Y-85145913D01*
X89171021Y-85172100D01*
X89173600Y-85198287D01*
X89173600Y-85198294D01*
X89181319Y-85276664D01*
X89211819Y-85377210D01*
X89261349Y-85469875D01*
X89328005Y-85551095D01*
X89348355Y-85567796D01*
X91553701Y-87773142D01*
X91553700Y-106489859D01*
X88646638Y-103582797D01*
X88861900Y-103582797D01*
X88926630Y-103576422D01*
X88988873Y-103557540D01*
X89018053Y-103541943D01*
X89028258Y-103552148D01*
X89155142Y-103636930D01*
X89296128Y-103695328D01*
X89445799Y-103725100D01*
X89598401Y-103725100D01*
X89748072Y-103695328D01*
X89889058Y-103636930D01*
X90015942Y-103552148D01*
X90123848Y-103444242D01*
X90208630Y-103317358D01*
X90267028Y-103176372D01*
X90296800Y-103026701D01*
X90296800Y-102874099D01*
X90267028Y-102724428D01*
X90208630Y-102583442D01*
X90123848Y-102456558D01*
X90015942Y-102348652D01*
X89889058Y-102263870D01*
X89748072Y-102205472D01*
X89598401Y-102175700D01*
X89462306Y-102175700D01*
X89430911Y-102158919D01*
X89330365Y-102128419D01*
X89251995Y-102120700D01*
X89251987Y-102120700D01*
X89225800Y-102118121D01*
X89199613Y-102120700D01*
X89193697Y-102120700D01*
X89193697Y-102057200D01*
X89187322Y-101992470D01*
X89168440Y-101930227D01*
X89137779Y-101872863D01*
X89096516Y-101822584D01*
X89046237Y-101781321D01*
X88988873Y-101750660D01*
X88926630Y-101731778D01*
X88861900Y-101725403D01*
X87873400Y-101725403D01*
X87873400Y-101474597D01*
X88861900Y-101474597D01*
X88926630Y-101468222D01*
X88988873Y-101449340D01*
X89046237Y-101418679D01*
X89096516Y-101377416D01*
X89137779Y-101327137D01*
X89168440Y-101269773D01*
X89187322Y-101207530D01*
X89193697Y-101142800D01*
X89193697Y-99949000D01*
X89187322Y-99884270D01*
X89168440Y-99822027D01*
X89137779Y-99764663D01*
X89096516Y-99714384D01*
X89046237Y-99673121D01*
X88988873Y-99642460D01*
X88926630Y-99623578D01*
X88861900Y-99617203D01*
X88798400Y-99617203D01*
X88798400Y-70511186D01*
X88800979Y-70484999D01*
X88798400Y-70458812D01*
X88798400Y-70458805D01*
X88790681Y-70380435D01*
X88760181Y-70279889D01*
X88710651Y-70187225D01*
X88643995Y-70106005D01*
X88623649Y-70089307D01*
X81993480Y-63459139D01*
X82061586Y-63294717D01*
X82118200Y-63010098D01*
X82118200Y-62719902D01*
X82061586Y-62435283D01*
X81950533Y-62167178D01*
X81789309Y-61925890D01*
X81622908Y-61759489D01*
X81702755Y-61562360D01*
X80645000Y-60504605D01*
X79587245Y-61562360D01*
X79667092Y-61759489D01*
X79500691Y-61925890D01*
X79339467Y-62167178D01*
X79228414Y-62435283D01*
X79171800Y-62719902D01*
X79171800Y-63010098D01*
X79228414Y-63294717D01*
X79339467Y-63562822D01*
X79500691Y-63804110D01*
X79705890Y-64009309D01*
X79947178Y-64170533D01*
X80215283Y-64281586D01*
X80346941Y-64307774D01*
X80266458Y-64361552D01*
X80158552Y-64469458D01*
X80073770Y-64596342D01*
X80015372Y-64737328D01*
X79985600Y-64886999D01*
X79985600Y-65039601D01*
X80015372Y-65189272D01*
X80073770Y-65330258D01*
X80158552Y-65457142D01*
X80266458Y-65565048D01*
X80393342Y-65649830D01*
X80534328Y-65708228D01*
X80683999Y-65738000D01*
X80780659Y-65738000D01*
X81355530Y-66312871D01*
X81275751Y-66273444D01*
X80937527Y-66182509D01*
X80588062Y-66159306D01*
X80240784Y-66204725D01*
X79909040Y-66317023D01*
X79700264Y-66428616D01*
X79587245Y-66707640D01*
X80645000Y-67765395D01*
X80659143Y-67751253D01*
X80838748Y-67930858D01*
X80824605Y-67945000D01*
X81882360Y-69002755D01*
X82161384Y-68889736D01*
X82316556Y-68575751D01*
X82407491Y-68237527D01*
X82430694Y-67888062D01*
X82385275Y-67540784D01*
X82283866Y-67241207D01*
X86806600Y-71763942D01*
X86806600Y-75892259D01*
X81993480Y-71079139D01*
X82061586Y-70914717D01*
X82118200Y-70630098D01*
X82118200Y-70339902D01*
X82061586Y-70055283D01*
X81950533Y-69787178D01*
X81789309Y-69545890D01*
X81622908Y-69379489D01*
X81702755Y-69182360D01*
X80645000Y-68124605D01*
X79587245Y-69182360D01*
X79667092Y-69379489D01*
X79500691Y-69545890D01*
X79339467Y-69787178D01*
X79228414Y-70055283D01*
X79171800Y-70339902D01*
X79171800Y-70630098D01*
X79228414Y-70914717D01*
X79339467Y-71182822D01*
X79500691Y-71424110D01*
X79705890Y-71629309D01*
X79947178Y-71790533D01*
X80215283Y-71901586D01*
X80499902Y-71958200D01*
X80790098Y-71958200D01*
X81074717Y-71901586D01*
X81239139Y-71833480D01*
X86298200Y-76892541D01*
X86298200Y-78376959D01*
X75923179Y-68001938D01*
X78859306Y-68001938D01*
X78904725Y-68349216D01*
X79017023Y-68680960D01*
X79128616Y-68889736D01*
X79407640Y-69002755D01*
X80465395Y-67945000D01*
X79407640Y-66887245D01*
X79128616Y-67000264D01*
X78973444Y-67314249D01*
X78882509Y-67652473D01*
X78859306Y-68001938D01*
X75923179Y-68001938D01*
X75795496Y-67874255D01*
X75778795Y-67853905D01*
X75697575Y-67787249D01*
X75604911Y-67737719D01*
X75504365Y-67707219D01*
X75425995Y-67699500D01*
X75425987Y-67699500D01*
X75399800Y-67696921D01*
X75373613Y-67699500D01*
X68235090Y-67699500D01*
X68166742Y-67631152D01*
X68039858Y-67546370D01*
X67898872Y-67487972D01*
X67749201Y-67458200D01*
X67596599Y-67458200D01*
X67446928Y-67487972D01*
X67305942Y-67546370D01*
X67179058Y-67631152D01*
X67071152Y-67739058D01*
X66986370Y-67865942D01*
X66927972Y-68006928D01*
X66898200Y-68156599D01*
X66898200Y-68309201D01*
X66927972Y-68458872D01*
X66986370Y-68599858D01*
X67071152Y-68726742D01*
X67179058Y-68834648D01*
X67305942Y-68919430D01*
X67446928Y-68977828D01*
X67596599Y-69007600D01*
X67749201Y-69007600D01*
X67898872Y-68977828D01*
X68039858Y-68919430D01*
X68166742Y-68834648D01*
X68235090Y-68766300D01*
X75178859Y-68766300D01*
X80238169Y-73825610D01*
X79909040Y-73937023D01*
X79700264Y-74048616D01*
X79587245Y-74327640D01*
X80645000Y-75385395D01*
X80659143Y-75371253D01*
X80838748Y-75550858D01*
X80824605Y-75565000D01*
X81882360Y-76622755D01*
X82161384Y-76509736D01*
X82316556Y-76195751D01*
X82378376Y-75965817D01*
X85789900Y-79377341D01*
X85789900Y-82495558D01*
X81993480Y-78699139D01*
X82061586Y-78534717D01*
X82118200Y-78250098D01*
X82118200Y-77959902D01*
X82061586Y-77675283D01*
X81950533Y-77407178D01*
X81789309Y-77165890D01*
X81622908Y-76999489D01*
X81702755Y-76802360D01*
X80645000Y-75744605D01*
X79587245Y-76802360D01*
X79667092Y-76999489D01*
X79500691Y-77165890D01*
X79339467Y-77407178D01*
X79228414Y-77675283D01*
X79171800Y-77959902D01*
X79171800Y-78250098D01*
X79228414Y-78534717D01*
X79339467Y-78802822D01*
X79500691Y-79044110D01*
X79705890Y-79249309D01*
X79947178Y-79410533D01*
X80215283Y-79521586D01*
X80499902Y-79578200D01*
X80790098Y-79578200D01*
X81074717Y-79521586D01*
X81239139Y-79453480D01*
X85281600Y-83495942D01*
X85281600Y-92362359D01*
X68770900Y-75851659D01*
X68770900Y-75754999D01*
X68744432Y-75621938D01*
X78859306Y-75621938D01*
X78904725Y-75969216D01*
X79017023Y-76300960D01*
X79128616Y-76509736D01*
X79407640Y-76622755D01*
X80465395Y-75565000D01*
X79407640Y-74507245D01*
X79128616Y-74620264D01*
X78973444Y-74934249D01*
X78882509Y-75272473D01*
X78859306Y-75621938D01*
X68744432Y-75621938D01*
X68741128Y-75605328D01*
X68682730Y-75464342D01*
X68597948Y-75337458D01*
X68490042Y-75229552D01*
X68363158Y-75144770D01*
X68222172Y-75086372D01*
X68072501Y-75056600D01*
X67919899Y-75056600D01*
X67770228Y-75086372D01*
X67629242Y-75144770D01*
X67502358Y-75229552D01*
X67394452Y-75337458D01*
X67309670Y-75464342D01*
X67251272Y-75605328D01*
X67221500Y-75754999D01*
X67221500Y-75907601D01*
X67251272Y-76057272D01*
X67309670Y-76198258D01*
X67394452Y-76325142D01*
X67502358Y-76433048D01*
X67629242Y-76517830D01*
X67770228Y-76576228D01*
X67919899Y-76606000D01*
X68016559Y-76606000D01*
X84591000Y-93180441D01*
X84591001Y-102214848D01*
X84451001Y-102187000D01*
X84367747Y-102187000D01*
X84315211Y-102158919D01*
X84214665Y-102128419D01*
X84136295Y-102120700D01*
X84136294Y-102120700D01*
X84113697Y-102118474D01*
X84113697Y-102057200D01*
X84107322Y-101992470D01*
X84088440Y-101930227D01*
X84057779Y-101872863D01*
X84016516Y-101822584D01*
X83966237Y-101781321D01*
X83908873Y-101750660D01*
X83846630Y-101731778D01*
X83781900Y-101725403D01*
X82588100Y-101725403D01*
X82523370Y-101731778D01*
X82461127Y-101750660D01*
X82403763Y-101781321D01*
X82353484Y-101822584D01*
X82312221Y-101872863D01*
X82281560Y-101930227D01*
X82262678Y-101992470D01*
X82256303Y-102057200D01*
X82256303Y-103017761D01*
X58671800Y-79433259D01*
X58671800Y-75944587D01*
X58674379Y-75918400D01*
X58671800Y-75892213D01*
X58671800Y-75892205D01*
X58664081Y-75813835D01*
X58633581Y-75713289D01*
X58584051Y-75620625D01*
X58549087Y-75578021D01*
X58534093Y-75559751D01*
X58534091Y-75559749D01*
X58517395Y-75539405D01*
X58497051Y-75522709D01*
X54053480Y-71079139D01*
X54121586Y-70914717D01*
X54178200Y-70630098D01*
X54178200Y-70339902D01*
X54121586Y-70055283D01*
X54010533Y-69787178D01*
X53849309Y-69545890D01*
X53682908Y-69379489D01*
X53762755Y-69182360D01*
X52705000Y-68124605D01*
X51647245Y-69182360D01*
X51727092Y-69379489D01*
X51560691Y-69545890D01*
X51399467Y-69787178D01*
X51288414Y-70055283D01*
X51269900Y-70148360D01*
X51269900Y-68922660D01*
X51467640Y-69002755D01*
X52525395Y-67945000D01*
X52884605Y-67945000D01*
X53942360Y-69002755D01*
X54221384Y-68889736D01*
X54376556Y-68575751D01*
X54467491Y-68237527D01*
X54490694Y-67888062D01*
X54445275Y-67540784D01*
X54332977Y-67209040D01*
X54221384Y-67000264D01*
X53942360Y-66887245D01*
X52884605Y-67945000D01*
X52525395Y-67945000D01*
X51467640Y-66887245D01*
X51269900Y-66967340D01*
X51269900Y-66707640D01*
X51647245Y-66707640D01*
X52705000Y-67765395D01*
X53762755Y-66707640D01*
X53649736Y-66428616D01*
X53335751Y-66273444D01*
X52997527Y-66182509D01*
X52648062Y-66159306D01*
X52300784Y-66204725D01*
X51969040Y-66317023D01*
X51760264Y-66428616D01*
X51647245Y-66707640D01*
X51269900Y-66707640D01*
X51269900Y-63201640D01*
X51288414Y-63294717D01*
X51399467Y-63562822D01*
X51560691Y-63804110D01*
X51765890Y-64009309D01*
X52007178Y-64170533D01*
X52275283Y-64281586D01*
X52559902Y-64338200D01*
X52850098Y-64338200D01*
X53134717Y-64281586D01*
X53299139Y-64213480D01*
X82651600Y-93565942D01*
X82651601Y-99594605D01*
X82651601Y-99617203D01*
X82588100Y-99617203D01*
X82523370Y-99623578D01*
X82461127Y-99642460D01*
X82403763Y-99673121D01*
X82353484Y-99714384D01*
X82312221Y-99764663D01*
X82281560Y-99822027D01*
X82262678Y-99884270D01*
X82256303Y-99949000D01*
X82256303Y-101142800D01*
X82262678Y-101207530D01*
X82281560Y-101269773D01*
X82312221Y-101327137D01*
X82353484Y-101377416D01*
X82403763Y-101418679D01*
X82461127Y-101449340D01*
X82523370Y-101468222D01*
X82588100Y-101474597D01*
X83781900Y-101474597D01*
X83846630Y-101468222D01*
X83908873Y-101449340D01*
X83966237Y-101418679D01*
X84016516Y-101377416D01*
X84057779Y-101327137D01*
X84088440Y-101269773D01*
X84107322Y-101207530D01*
X84113697Y-101142800D01*
X84113697Y-99949000D01*
X84107322Y-99884270D01*
X84088440Y-99822027D01*
X84057779Y-99764663D01*
X84016516Y-99714384D01*
X83966237Y-99673121D01*
X83908873Y-99642460D01*
X83846630Y-99623578D01*
X83781900Y-99617203D01*
X83718400Y-99617203D01*
X83718400Y-93371186D01*
X83720979Y-93344999D01*
X83718400Y-93318812D01*
X83718400Y-93318805D01*
X83710681Y-93240435D01*
X83680181Y-93139889D01*
X83630651Y-93047225D01*
X83563995Y-92966005D01*
X83543651Y-92949309D01*
X54053480Y-63459139D01*
X54121586Y-63294717D01*
X54178200Y-63010098D01*
X54178200Y-62719902D01*
X54121586Y-62435283D01*
X54010533Y-62167178D01*
X53849309Y-61925890D01*
X53682908Y-61759489D01*
X53762755Y-61562360D01*
X52705000Y-60504605D01*
X51647245Y-61562360D01*
X51727092Y-61759489D01*
X51560691Y-61925890D01*
X51399467Y-62167178D01*
X51288414Y-62435283D01*
X51269900Y-62528360D01*
X51269900Y-61302660D01*
X51467640Y-61382755D01*
X52525395Y-60325000D01*
X52884605Y-60325000D01*
X53942360Y-61382755D01*
X54221384Y-61269736D01*
X54376556Y-60955751D01*
X54467491Y-60617527D01*
X54483133Y-60381938D01*
X78859306Y-60381938D01*
X78904725Y-60729216D01*
X79017023Y-61060960D01*
X79128616Y-61269736D01*
X79407640Y-61382755D01*
X80465395Y-60325000D01*
X80824605Y-60325000D01*
X81882360Y-61382755D01*
X82161384Y-61269736D01*
X82316556Y-60955751D01*
X82407491Y-60617527D01*
X82423133Y-60381938D01*
X106799306Y-60381938D01*
X106844725Y-60729216D01*
X106957023Y-61060960D01*
X107068616Y-61269736D01*
X107347640Y-61382755D01*
X108405395Y-60325000D01*
X107347640Y-59267245D01*
X107068616Y-59380264D01*
X106913444Y-59694249D01*
X106822509Y-60032473D01*
X106799306Y-60381938D01*
X82423133Y-60381938D01*
X82430694Y-60268062D01*
X82385275Y-59920784D01*
X82272977Y-59589040D01*
X82161384Y-59380264D01*
X81882360Y-59267245D01*
X80824605Y-60325000D01*
X80465395Y-60325000D01*
X79407640Y-59267245D01*
X79128616Y-59380264D01*
X78973444Y-59694249D01*
X78882509Y-60032473D01*
X78859306Y-60381938D01*
X54483133Y-60381938D01*
X54490694Y-60268062D01*
X54445275Y-59920784D01*
X54332977Y-59589040D01*
X54221384Y-59380264D01*
X53942360Y-59267245D01*
X52884605Y-60325000D01*
X52525395Y-60325000D01*
X51467640Y-59267245D01*
X51269900Y-59347340D01*
X51269900Y-59087640D01*
X51647245Y-59087640D01*
X52705000Y-60145395D01*
X53762755Y-59087640D01*
X79587245Y-59087640D01*
X80645000Y-60145395D01*
X81702755Y-59087640D01*
X107527245Y-59087640D01*
X108585000Y-60145395D01*
X109642755Y-59087640D01*
X109529736Y-58808616D01*
X109215751Y-58653444D01*
X108877527Y-58562509D01*
X108528062Y-58539306D01*
X108180784Y-58584725D01*
X107849040Y-58697023D01*
X107640264Y-58808616D01*
X107527245Y-59087640D01*
X81702755Y-59087640D01*
X81589736Y-58808616D01*
X81275751Y-58653444D01*
X80937527Y-58562509D01*
X80588062Y-58539306D01*
X80240784Y-58584725D01*
X79909040Y-58697023D01*
X79700264Y-58808616D01*
X79587245Y-59087640D01*
X53762755Y-59087640D01*
X53649736Y-58808616D01*
X53335751Y-58653444D01*
X52997527Y-58562509D01*
X52648062Y-58539306D01*
X52300784Y-58584725D01*
X51969040Y-58697023D01*
X51760264Y-58808616D01*
X51647245Y-59087640D01*
X51269900Y-59087640D01*
X51269900Y-57168457D01*
X51337669Y-56307360D01*
X62661800Y-56307360D01*
X62661800Y-56722640D01*
X62742817Y-57129939D01*
X62901737Y-57513607D01*
X63132454Y-57858899D01*
X63426101Y-58152546D01*
X63771393Y-58383263D01*
X64155061Y-58542183D01*
X64562360Y-58623200D01*
X64977640Y-58623200D01*
X65384939Y-58542183D01*
X65768607Y-58383263D01*
X66113899Y-58152546D01*
X66407546Y-57858899D01*
X66638263Y-57513607D01*
X66797183Y-57129939D01*
X66878200Y-56722640D01*
X66878200Y-56307360D01*
X118541800Y-56307360D01*
X118541800Y-56722640D01*
X118622817Y-57129939D01*
X118781737Y-57513607D01*
X119012454Y-57858899D01*
X119306101Y-58152546D01*
X119651393Y-58383263D01*
X120035061Y-58542183D01*
X120442360Y-58623200D01*
X120857640Y-58623200D01*
X121264939Y-58542183D01*
X121648607Y-58383263D01*
X121993899Y-58152546D01*
X122287546Y-57858899D01*
X122518263Y-57513607D01*
X122677183Y-57129939D01*
X122758200Y-56722640D01*
X122758200Y-56307360D01*
X122677183Y-55900061D01*
X122518263Y-55516393D01*
X122287546Y-55171101D01*
X121993899Y-54877454D01*
X121648607Y-54646737D01*
X121264939Y-54487817D01*
X120857640Y-54406800D01*
X120442360Y-54406800D01*
X120035061Y-54487817D01*
X119651393Y-54646737D01*
X119306101Y-54877454D01*
X119012454Y-55171101D01*
X118781737Y-55516393D01*
X118622817Y-55900061D01*
X118541800Y-56307360D01*
X66878200Y-56307360D01*
X66797183Y-55900061D01*
X66638263Y-55516393D01*
X66407546Y-55171101D01*
X66113899Y-54877454D01*
X65768607Y-54646737D01*
X65384939Y-54487817D01*
X64977640Y-54406800D01*
X64562360Y-54406800D01*
X64155061Y-54487817D01*
X63771393Y-54646737D01*
X63426101Y-54877454D01*
X63132454Y-55171101D01*
X62901737Y-55516393D01*
X62742817Y-55900061D01*
X62661800Y-56307360D01*
X51337669Y-56307360D01*
X51343728Y-56230382D01*
X51559075Y-55333396D01*
X51912087Y-54481151D01*
X52260100Y-53913246D01*
X53348000Y-53913246D01*
X53348000Y-54036754D01*
X53372095Y-54157889D01*
X53419360Y-54271996D01*
X53487977Y-54374689D01*
X53575311Y-54462023D01*
X53678004Y-54530640D01*
X53792111Y-54577905D01*
X53913246Y-54602000D01*
X54036754Y-54602000D01*
X54157889Y-54577905D01*
X54271996Y-54530640D01*
X54374689Y-54462023D01*
X54462023Y-54374689D01*
X54530640Y-54271996D01*
X54577905Y-54157889D01*
X54602000Y-54036754D01*
X54602000Y-53913246D01*
X121928000Y-53913246D01*
X121928000Y-54036754D01*
X121952095Y-54157889D01*
X121999360Y-54271996D01*
X122067977Y-54374689D01*
X122155311Y-54462023D01*
X122258004Y-54530640D01*
X122372111Y-54577905D01*
X122493246Y-54602000D01*
X122616754Y-54602000D01*
X122737889Y-54577905D01*
X122851996Y-54530640D01*
X122954689Y-54462023D01*
X123042023Y-54374689D01*
X123110640Y-54271996D01*
X123157905Y-54157889D01*
X123182000Y-54036754D01*
X123182000Y-53913246D01*
X123157905Y-53792111D01*
X123110640Y-53678004D01*
X123042023Y-53575311D01*
X122954689Y-53487977D01*
X122851996Y-53419360D01*
X122737889Y-53372095D01*
X122616754Y-53348000D01*
X122493246Y-53348000D01*
X122372111Y-53372095D01*
X122258004Y-53419360D01*
X122155311Y-53487977D01*
X122067977Y-53575311D01*
X121999360Y-53678004D01*
X121952095Y-53792111D01*
X121928000Y-53913246D01*
X54602000Y-53913246D01*
X54577905Y-53792111D01*
X54530640Y-53678004D01*
X54462023Y-53575311D01*
X54374689Y-53487977D01*
X54271996Y-53419360D01*
X54157889Y-53372095D01*
X54036754Y-53348000D01*
X53913246Y-53348000D01*
X53792111Y-53372095D01*
X53678004Y-53419360D01*
X53575311Y-53487977D01*
X53487977Y-53575311D01*
X53419360Y-53678004D01*
X53372095Y-53792111D01*
X53348000Y-53913246D01*
X52260100Y-53913246D01*
X52394075Y-53694619D01*
X52993166Y-52993172D01*
X53694619Y-52394074D01*
X54481147Y-51912089D01*
X55333396Y-51559075D01*
X56230382Y-51343728D01*
X57168457Y-51269900D01*
X119361543Y-51269900D01*
X120299618Y-51343728D01*
%TA.AperFunction,Conductor*%
D27*
G36*
X120299618Y-51343728D02*
G01*
X121196604Y-51559075D01*
X122048849Y-51912087D01*
X122835381Y-52394075D01*
X123536828Y-52993166D01*
X124135926Y-53694619D01*
X124617911Y-54481147D01*
X124970925Y-55333396D01*
X125186272Y-56230382D01*
X125260100Y-57168457D01*
X125260101Y-122536531D01*
X125186272Y-123474618D01*
X124970925Y-124371604D01*
X124617911Y-125223853D01*
X124135926Y-126010381D01*
X123536828Y-126711834D01*
X122835381Y-127310925D01*
X122048849Y-127792913D01*
X121196604Y-128145925D01*
X120299618Y-128361272D01*
X119361543Y-128435100D01*
X95040252Y-128435100D01*
X95040878Y-128434337D01*
X95071539Y-128376973D01*
X95090421Y-128314730D01*
X95096796Y-128250000D01*
X95096796Y-125750000D01*
X95090421Y-125685270D01*
X95071539Y-125623027D01*
X95040878Y-125565663D01*
X94999615Y-125515384D01*
X94949336Y-125474121D01*
X94891972Y-125443460D01*
X94829729Y-125424578D01*
X94764999Y-125418203D01*
X91765001Y-125418203D01*
X91700271Y-125424578D01*
X91638028Y-125443460D01*
X91580664Y-125474121D01*
X91530385Y-125515384D01*
X91489122Y-125565663D01*
X91458461Y-125623027D01*
X91439579Y-125685270D01*
X91433204Y-125750000D01*
X91433204Y-128250000D01*
X91439579Y-128314730D01*
X91458461Y-128376973D01*
X91489122Y-128434337D01*
X91489748Y-128435100D01*
X85040252Y-128435100D01*
X85040878Y-128434337D01*
X85071539Y-128376973D01*
X85090421Y-128314730D01*
X85096796Y-128250000D01*
X85096796Y-125750000D01*
X85090421Y-125685270D01*
X85071539Y-125623027D01*
X85040878Y-125565663D01*
X84999615Y-125515384D01*
X84949336Y-125474121D01*
X84891972Y-125443460D01*
X84829729Y-125424578D01*
X84764999Y-125418203D01*
X81765001Y-125418203D01*
X81700271Y-125424578D01*
X81638028Y-125443460D01*
X81580664Y-125474121D01*
X81530385Y-125515384D01*
X81489122Y-125565663D01*
X81458461Y-125623027D01*
X81439579Y-125685270D01*
X81433204Y-125750000D01*
X81433204Y-128250000D01*
X81439579Y-128314730D01*
X81458461Y-128376973D01*
X81489122Y-128434337D01*
X81489748Y-128435100D01*
X57168457Y-128435100D01*
X56230382Y-128361272D01*
X55333396Y-128145925D01*
X54481147Y-127792911D01*
X53694619Y-127310926D01*
X52993166Y-126711828D01*
X52394075Y-126010381D01*
X52184415Y-125668246D01*
X53348000Y-125668246D01*
X53348000Y-125791754D01*
X53372095Y-125912889D01*
X53419360Y-126026996D01*
X53487977Y-126129689D01*
X53575311Y-126217023D01*
X53678004Y-126285640D01*
X53792111Y-126332905D01*
X53913246Y-126357000D01*
X54036754Y-126357000D01*
X54157889Y-126332905D01*
X54271996Y-126285640D01*
X54374689Y-126217023D01*
X54462023Y-126129689D01*
X54530640Y-126026996D01*
X54577905Y-125912889D01*
X54602000Y-125791754D01*
X54602000Y-125668246D01*
X54577905Y-125547111D01*
X54530640Y-125433004D01*
X54462023Y-125330311D01*
X54374689Y-125242977D01*
X54271996Y-125174360D01*
X54157889Y-125127095D01*
X54036754Y-125103000D01*
X53913246Y-125103000D01*
X53792111Y-125127095D01*
X53678004Y-125174360D01*
X53575311Y-125242977D01*
X53487977Y-125330311D01*
X53419360Y-125433004D01*
X53372095Y-125547111D01*
X53348000Y-125668246D01*
X52184415Y-125668246D01*
X51912087Y-125223849D01*
X51559075Y-124371604D01*
X51343728Y-123474618D01*
X51269900Y-122536543D01*
X51269900Y-117735000D01*
X59213203Y-117735000D01*
X59213203Y-123935000D01*
X59219578Y-123999730D01*
X59238460Y-124061973D01*
X59269121Y-124119337D01*
X59310384Y-124169616D01*
X59360663Y-124210879D01*
X59418027Y-124241540D01*
X59480270Y-124260422D01*
X59545000Y-124266797D01*
X63445000Y-124266797D01*
X63509730Y-124260422D01*
X63571973Y-124241540D01*
X63629337Y-124210879D01*
X63679616Y-124169616D01*
X63720879Y-124119337D01*
X63751540Y-124061973D01*
X63770422Y-123999730D01*
X63776797Y-123935000D01*
X63776797Y-118030338D01*
X68722526Y-122976067D01*
X68478850Y-122875133D01*
X68125259Y-122804800D01*
X67764741Y-122804800D01*
X67411150Y-122875133D01*
X67078075Y-123013097D01*
X66778315Y-123213390D01*
X66523390Y-123468315D01*
X66323097Y-123768075D01*
X66185133Y-124101150D01*
X66114800Y-124454741D01*
X66114800Y-124815259D01*
X66185133Y-125168850D01*
X66323097Y-125501925D01*
X66523390Y-125801685D01*
X66778315Y-126056610D01*
X67078075Y-126256903D01*
X67411150Y-126394867D01*
X67764741Y-126465200D01*
X68125259Y-126465200D01*
X68478850Y-126394867D01*
X68811925Y-126256903D01*
X69111685Y-126056610D01*
X69366610Y-125801685D01*
X69566903Y-125501925D01*
X69704867Y-125168850D01*
X69775200Y-124815259D01*
X69775200Y-124454741D01*
X69704867Y-124101150D01*
X69603933Y-123857474D01*
X70443704Y-124697245D01*
X70460405Y-124717595D01*
X70541625Y-124784251D01*
X70634289Y-124833781D01*
X70734835Y-124864281D01*
X70813205Y-124872000D01*
X70813206Y-124872000D01*
X70839400Y-124874580D01*
X70865594Y-124872000D01*
X76856013Y-124872000D01*
X76882200Y-124874579D01*
X76908387Y-124872000D01*
X76908395Y-124872000D01*
X76986765Y-124864281D01*
X77087311Y-124833781D01*
X77179975Y-124784251D01*
X77261195Y-124717595D01*
X77277896Y-124697245D01*
X77692941Y-124282200D01*
X78446303Y-124282200D01*
X78446303Y-125476000D01*
X78452678Y-125540730D01*
X78471560Y-125602973D01*
X78502221Y-125660337D01*
X78543484Y-125710616D01*
X78593763Y-125751879D01*
X78651127Y-125782540D01*
X78713370Y-125801422D01*
X78778100Y-125807797D01*
X78839374Y-125807797D01*
X78849319Y-125908765D01*
X78879819Y-126009311D01*
X78929349Y-126101975D01*
X78996005Y-126183195D01*
X79077225Y-126249851D01*
X79169889Y-126299381D01*
X79270435Y-126329881D01*
X79348805Y-126337600D01*
X79348806Y-126337600D01*
X79375000Y-126340180D01*
X79401195Y-126337600D01*
X80086513Y-126337600D01*
X80112700Y-126340179D01*
X80138887Y-126337600D01*
X80138895Y-126337600D01*
X80217265Y-126329881D01*
X80317811Y-126299381D01*
X80410475Y-126249851D01*
X80491695Y-126183195D01*
X80508395Y-126162846D01*
X80723848Y-125947393D01*
X80870972Y-125918128D01*
X81011958Y-125859730D01*
X81138842Y-125774948D01*
X81246748Y-125667042D01*
X81331530Y-125540158D01*
X81389928Y-125399172D01*
X81419700Y-125249501D01*
X81419700Y-125096899D01*
X81389928Y-124947228D01*
X81331530Y-124806242D01*
X81246748Y-124679358D01*
X81138842Y-124571452D01*
X81011958Y-124486670D01*
X80870972Y-124428272D01*
X80721301Y-124398500D01*
X80568699Y-124398500D01*
X80419028Y-124428272D01*
X80303697Y-124476043D01*
X80303697Y-124282200D01*
X80297322Y-124217470D01*
X80278440Y-124155227D01*
X80247779Y-124097863D01*
X80206516Y-124047584D01*
X80156237Y-124006321D01*
X80098873Y-123975660D01*
X80036630Y-123956778D01*
X79971900Y-123950403D01*
X78778100Y-123950403D01*
X78713370Y-123956778D01*
X78651127Y-123975660D01*
X78593763Y-124006321D01*
X78543484Y-124047584D01*
X78502221Y-124097863D01*
X78471560Y-124155227D01*
X78452678Y-124217470D01*
X78446303Y-124282200D01*
X77692941Y-124282200D01*
X78474628Y-123500513D01*
X78502221Y-123552137D01*
X78543484Y-123602416D01*
X78593763Y-123643679D01*
X78651127Y-123674340D01*
X78713370Y-123693222D01*
X78778100Y-123699597D01*
X79971900Y-123699597D01*
X80036630Y-123693222D01*
X80098873Y-123674340D01*
X80156237Y-123643679D01*
X80206516Y-123602416D01*
X80247779Y-123552137D01*
X80278440Y-123494773D01*
X80297322Y-123432530D01*
X80303697Y-123367800D01*
X80303697Y-122174000D01*
X80297322Y-122109270D01*
X80278440Y-122047027D01*
X80247779Y-121989663D01*
X80206516Y-121939384D01*
X80156237Y-121898121D01*
X80098873Y-121867460D01*
X80036630Y-121848578D01*
X79971900Y-121842203D01*
X78778100Y-121842203D01*
X78713370Y-121848578D01*
X78651127Y-121867460D01*
X78593763Y-121898121D01*
X78543484Y-121939384D01*
X78502221Y-121989663D01*
X78471560Y-122047027D01*
X78452678Y-122109270D01*
X78446303Y-122174000D01*
X78446303Y-122235274D01*
X78423706Y-122237500D01*
X78423705Y-122237500D01*
X78345335Y-122245219D01*
X78244789Y-122275719D01*
X78152125Y-122325249D01*
X78070905Y-122391905D01*
X78054204Y-122412255D01*
X76676797Y-123789662D01*
X76676797Y-120145746D01*
X76760852Y-120271542D01*
X76868758Y-120379448D01*
X76995642Y-120464230D01*
X77136628Y-120522628D01*
X77286299Y-120552400D01*
X77438901Y-120552400D01*
X77588572Y-120522628D01*
X77729558Y-120464230D01*
X77856442Y-120379448D01*
X77964348Y-120271542D01*
X78049130Y-120144658D01*
X78107528Y-120003672D01*
X78137300Y-119854001D01*
X78137300Y-119701399D01*
X78107528Y-119551728D01*
X78049130Y-119410742D01*
X77964348Y-119283858D01*
X77896000Y-119215510D01*
X77896000Y-118200094D01*
X77898580Y-118173900D01*
X77895709Y-118144751D01*
X77888281Y-118069335D01*
X77857781Y-117968789D01*
X77808251Y-117876125D01*
X77741595Y-117794905D01*
X77721245Y-117778204D01*
X71469396Y-111526355D01*
X71452695Y-111506005D01*
X71371475Y-111439349D01*
X71278811Y-111389819D01*
X71178265Y-111359319D01*
X71099895Y-111351600D01*
X71099887Y-111351600D01*
X71073700Y-111349021D01*
X71047513Y-111351600D01*
X70576797Y-111351600D01*
X70576797Y-109685000D01*
X70570422Y-109620270D01*
X70551540Y-109558027D01*
X70520879Y-109500663D01*
X70479616Y-109450384D01*
X70429337Y-109409121D01*
X70371973Y-109378460D01*
X70309730Y-109359578D01*
X70245000Y-109353203D01*
X66945000Y-109353203D01*
X66880270Y-109359578D01*
X66818027Y-109378460D01*
X66760663Y-109409121D01*
X66710384Y-109450384D01*
X66669121Y-109500663D01*
X66638460Y-109558027D01*
X66619578Y-109620270D01*
X66613203Y-109685000D01*
X66613203Y-114085000D01*
X66619578Y-114149730D01*
X66638460Y-114211973D01*
X66669121Y-114269337D01*
X66710384Y-114319616D01*
X66760663Y-114360879D01*
X66818027Y-114391540D01*
X66880270Y-114410422D01*
X66945000Y-114416797D01*
X70245000Y-114416797D01*
X70309730Y-114410422D01*
X70371973Y-114391540D01*
X70429337Y-114360879D01*
X70479616Y-114319616D01*
X70520879Y-114269337D01*
X70551540Y-114211973D01*
X70570422Y-114149730D01*
X70576797Y-114085000D01*
X70576797Y-112418400D01*
X70852759Y-112418400D01*
X75837562Y-117403203D01*
X72445000Y-117403203D01*
X72380270Y-117409578D01*
X72318027Y-117428460D01*
X72260663Y-117459121D01*
X72210384Y-117500384D01*
X72169121Y-117550663D01*
X72138460Y-117608027D01*
X72119578Y-117670270D01*
X72113203Y-117735000D01*
X72113203Y-123805200D01*
X71060341Y-123805200D01*
X64313496Y-117058355D01*
X64296795Y-117038005D01*
X64215575Y-116971349D01*
X64122911Y-116921819D01*
X64033400Y-116894666D01*
X64033400Y-106541897D01*
X64300100Y-106541897D01*
X64364830Y-106535522D01*
X64427073Y-106516640D01*
X64484437Y-106485979D01*
X64534716Y-106444716D01*
X64575979Y-106394437D01*
X64606640Y-106337073D01*
X64625522Y-106274830D01*
X64631897Y-106210100D01*
X64631897Y-105422700D01*
X64625522Y-105357970D01*
X64606640Y-105295727D01*
X64575979Y-105238363D01*
X64534716Y-105188084D01*
X64484437Y-105146821D01*
X64427073Y-105116160D01*
X64364830Y-105097278D01*
X64300100Y-105090903D01*
X64035625Y-105090903D01*
X64033400Y-105068313D01*
X64033400Y-105068305D01*
X64025681Y-104989935D01*
X63995181Y-104889389D01*
X63945651Y-104796725D01*
X63918047Y-104763090D01*
X64300100Y-104765372D01*
X64424582Y-104753112D01*
X64544280Y-104716802D01*
X64654594Y-104657837D01*
X64751285Y-104578485D01*
X64830637Y-104481794D01*
X64889602Y-104371480D01*
X64925912Y-104251782D01*
X64938172Y-104127300D01*
X64935100Y-104019350D01*
X64890750Y-103975000D01*
X67263203Y-103975000D01*
X67263203Y-104575000D01*
X67269578Y-104639730D01*
X67288460Y-104701973D01*
X67319121Y-104759337D01*
X67331975Y-104775000D01*
X67319121Y-104790663D01*
X67288460Y-104848027D01*
X67269578Y-104910270D01*
X67263203Y-104975000D01*
X67263203Y-105575000D01*
X67269578Y-105639730D01*
X67288460Y-105701973D01*
X67319121Y-105759337D01*
X67360384Y-105809616D01*
X67410663Y-105850879D01*
X67411600Y-105851380D01*
X67411600Y-105877013D01*
X67409021Y-105903200D01*
X67411600Y-105929387D01*
X67411600Y-105929395D01*
X67419319Y-106007765D01*
X67423489Y-106021510D01*
X67449819Y-106108310D01*
X67463036Y-106133037D01*
X67499350Y-106200975D01*
X67526674Y-106234269D01*
X67549307Y-106261848D01*
X67549310Y-106261851D01*
X67566006Y-106282195D01*
X67586350Y-106298891D01*
X80636300Y-119348842D01*
X80636301Y-121574409D01*
X80567952Y-121642758D01*
X80483170Y-121769642D01*
X80424772Y-121910628D01*
X80395000Y-122060299D01*
X80395000Y-122212901D01*
X80424772Y-122362572D01*
X80483170Y-122503558D01*
X80567952Y-122630442D01*
X80675858Y-122738348D01*
X80802742Y-122823130D01*
X80943728Y-122881528D01*
X81093399Y-122911300D01*
X81246001Y-122911300D01*
X81395672Y-122881528D01*
X81536658Y-122823130D01*
X81663542Y-122738348D01*
X81771448Y-122630442D01*
X81856230Y-122503558D01*
X81914628Y-122362572D01*
X81944400Y-122212901D01*
X81944400Y-122060299D01*
X81914628Y-121910628D01*
X81856230Y-121769642D01*
X81771448Y-121642758D01*
X81703100Y-121574410D01*
X81703100Y-119154086D01*
X81705679Y-119127899D01*
X81703100Y-119101712D01*
X81703100Y-119101705D01*
X81695381Y-119023335D01*
X81664881Y-118922789D01*
X81615351Y-118830125D01*
X81548695Y-118748905D01*
X81528351Y-118732209D01*
X68563937Y-105767796D01*
X68570879Y-105759337D01*
X68601540Y-105701973D01*
X68620422Y-105639730D01*
X68626797Y-105575000D01*
X68626797Y-105032938D01*
X79458009Y-115864151D01*
X79474705Y-115884495D01*
X79474723Y-115884509D01*
X79551452Y-115999342D01*
X79659358Y-116107248D01*
X79786242Y-116192030D01*
X79927228Y-116250428D01*
X80076899Y-116280200D01*
X80173559Y-116280200D01*
X81811944Y-117918586D01*
X81810820Y-117930000D01*
X81813400Y-117956194D01*
X81813400Y-117956195D01*
X81817407Y-117996874D01*
X81821119Y-118034565D01*
X81851619Y-118135111D01*
X81901149Y-118227775D01*
X81967805Y-118308995D01*
X82049025Y-118375651D01*
X82141689Y-118425181D01*
X82242235Y-118455681D01*
X82320605Y-118463400D01*
X82320606Y-118463400D01*
X82343203Y-118465626D01*
X82343203Y-118945000D01*
X82349578Y-119009730D01*
X82368460Y-119071973D01*
X82399121Y-119129337D01*
X82440384Y-119179616D01*
X82490663Y-119220879D01*
X82548027Y-119251540D01*
X82610270Y-119270422D01*
X82675000Y-119276797D01*
X86485000Y-119276797D01*
X86549730Y-119270422D01*
X86611973Y-119251540D01*
X86669337Y-119220879D01*
X86719616Y-119179616D01*
X86760879Y-119129337D01*
X86789922Y-119075000D01*
X87116928Y-119075000D01*
X87129188Y-119199482D01*
X87165498Y-119319180D01*
X87224463Y-119429494D01*
X87303815Y-119526185D01*
X87400506Y-119605537D01*
X87510820Y-119664502D01*
X87630518Y-119700812D01*
X87755000Y-119713072D01*
X87979250Y-119710000D01*
X88138000Y-119551250D01*
X88138000Y-118057000D01*
X88392000Y-118057000D01*
X88392000Y-119551250D01*
X88550750Y-119710000D01*
X88775000Y-119713072D01*
X88899482Y-119700812D01*
X89019180Y-119664502D01*
X89129494Y-119605537D01*
X89226185Y-119526185D01*
X89305537Y-119429494D01*
X89364502Y-119319180D01*
X89400812Y-119199482D01*
X89413072Y-119075000D01*
X89410000Y-118215750D01*
X89251250Y-118057000D01*
X88392000Y-118057000D01*
X88138000Y-118057000D01*
X87278750Y-118057000D01*
X87120000Y-118215750D01*
X87116928Y-119075000D01*
X86789922Y-119075000D01*
X86791540Y-119071973D01*
X86810422Y-119009730D01*
X86816797Y-118945000D01*
X86816797Y-116915000D01*
X86810422Y-116850270D01*
X86791540Y-116788027D01*
X86789923Y-116785000D01*
X87116928Y-116785000D01*
X87120000Y-117644250D01*
X87278750Y-117803000D01*
X88138000Y-117803000D01*
X88138000Y-116308750D01*
X88392000Y-116308750D01*
X88392000Y-117803000D01*
X89251250Y-117803000D01*
X89410000Y-117644250D01*
X89412607Y-116915000D01*
X89713203Y-116915000D01*
X89713203Y-118945000D01*
X89719578Y-119009730D01*
X89738460Y-119071973D01*
X89769121Y-119129337D01*
X89810384Y-119179616D01*
X89860663Y-119220879D01*
X89918027Y-119251540D01*
X89980270Y-119270422D01*
X90045000Y-119276797D01*
X93855000Y-119276797D01*
X93919730Y-119270422D01*
X93981973Y-119251540D01*
X94039337Y-119220879D01*
X94089616Y-119179616D01*
X94130879Y-119129337D01*
X94161540Y-119071973D01*
X94180422Y-119009730D01*
X94186797Y-118945000D01*
X94186797Y-116915000D01*
X94180422Y-116850270D01*
X94161540Y-116788027D01*
X94130879Y-116730663D01*
X94089616Y-116680384D01*
X94039337Y-116639121D01*
X93981973Y-116608460D01*
X93919730Y-116589578D01*
X93855000Y-116583203D01*
X90045000Y-116583203D01*
X89980270Y-116589578D01*
X89918027Y-116608460D01*
X89860663Y-116639121D01*
X89810384Y-116680384D01*
X89769121Y-116730663D01*
X89738460Y-116788027D01*
X89719578Y-116850270D01*
X89713203Y-116915000D01*
X89412607Y-116915000D01*
X89413072Y-116785000D01*
X89400812Y-116660518D01*
X89364502Y-116540820D01*
X89305537Y-116430506D01*
X89226185Y-116333815D01*
X89129494Y-116254463D01*
X89019180Y-116195498D01*
X88899482Y-116159188D01*
X88775000Y-116146928D01*
X88550750Y-116150000D01*
X88392000Y-116308750D01*
X88138000Y-116308750D01*
X87979250Y-116150000D01*
X87755000Y-116146928D01*
X87630518Y-116159188D01*
X87510820Y-116195498D01*
X87400506Y-116254463D01*
X87303815Y-116333815D01*
X87224463Y-116430506D01*
X87165498Y-116540820D01*
X87129188Y-116660518D01*
X87116928Y-116785000D01*
X86789923Y-116785000D01*
X86760879Y-116730663D01*
X86719616Y-116680384D01*
X86669337Y-116639121D01*
X86611973Y-116608460D01*
X86549730Y-116589578D01*
X86485000Y-116583203D01*
X82675000Y-116583203D01*
X82610270Y-116589578D01*
X82548027Y-116608460D01*
X82490663Y-116639121D01*
X82440384Y-116680384D01*
X82399121Y-116730663D01*
X82368460Y-116788027D01*
X82349578Y-116850270D01*
X82343203Y-116915000D01*
X82343203Y-116941161D01*
X80927900Y-115525859D01*
X80927900Y-115429199D01*
X80898128Y-115279528D01*
X80839730Y-115138542D01*
X80754948Y-115011658D01*
X80647042Y-114903752D01*
X80520158Y-114818970D01*
X80379172Y-114760572D01*
X80229501Y-114730800D01*
X80076899Y-114730800D01*
X79927228Y-114760572D01*
X79881892Y-114779350D01*
X77319742Y-112217200D01*
X82256303Y-112217200D01*
X82256303Y-113411000D01*
X82262678Y-113475730D01*
X82281560Y-113537973D01*
X82312221Y-113595337D01*
X82353484Y-113645616D01*
X82403763Y-113686879D01*
X82461127Y-113717540D01*
X82523370Y-113736422D01*
X82588100Y-113742797D01*
X83781900Y-113742797D01*
X83846630Y-113736422D01*
X83908873Y-113717540D01*
X83966237Y-113686879D01*
X84016516Y-113645616D01*
X84057779Y-113595337D01*
X84088440Y-113537973D01*
X84107322Y-113475730D01*
X84113697Y-113411000D01*
X84113697Y-113349725D01*
X84136287Y-113347500D01*
X84136295Y-113347500D01*
X84214665Y-113339781D01*
X84315211Y-113309281D01*
X84407875Y-113259751D01*
X84489095Y-113193095D01*
X84505796Y-113172745D01*
X84837726Y-112840816D01*
X84858658Y-112861748D01*
X84985542Y-112946530D01*
X85126528Y-113004928D01*
X85276199Y-113034700D01*
X85428801Y-113034700D01*
X85578472Y-113004928D01*
X85719458Y-112946530D01*
X85846342Y-112861748D01*
X85954248Y-112753842D01*
X86039030Y-112626958D01*
X86097428Y-112485972D01*
X86127200Y-112336301D01*
X86127200Y-112183699D01*
X86097428Y-112034028D01*
X86039030Y-111893042D01*
X85954248Y-111766158D01*
X85846342Y-111658252D01*
X85719458Y-111573470D01*
X85578472Y-111515072D01*
X85428801Y-111485300D01*
X85276199Y-111485300D01*
X85126528Y-111515072D01*
X84985542Y-111573470D01*
X84858658Y-111658252D01*
X84790310Y-111726600D01*
X84690394Y-111726600D01*
X84664200Y-111724020D01*
X84638006Y-111726600D01*
X84638005Y-111726600D01*
X84559635Y-111734319D01*
X84459089Y-111764819D01*
X84366425Y-111814349D01*
X84285205Y-111881005D01*
X84268504Y-111901355D01*
X84085372Y-112084487D01*
X84057779Y-112032863D01*
X84016516Y-111982584D01*
X83966237Y-111941321D01*
X83908873Y-111910660D01*
X83846630Y-111891778D01*
X83781900Y-111885403D01*
X82588100Y-111885403D01*
X82523370Y-111891778D01*
X82461127Y-111910660D01*
X82403763Y-111941321D01*
X82353484Y-111982584D01*
X82312221Y-112032863D01*
X82281560Y-112090227D01*
X82262678Y-112152470D01*
X82256303Y-112217200D01*
X77319742Y-112217200D01*
X69018896Y-103916355D01*
X69002195Y-103896005D01*
X68920975Y-103829349D01*
X68828311Y-103779819D01*
X68727765Y-103749319D01*
X68649395Y-103741600D01*
X68649387Y-103741600D01*
X68623200Y-103739021D01*
X68597013Y-103741600D01*
X68530614Y-103741600D01*
X68529616Y-103740384D01*
X68479337Y-103699121D01*
X68421973Y-103668460D01*
X68359730Y-103649578D01*
X68295000Y-103643203D01*
X67595000Y-103643203D01*
X67530270Y-103649578D01*
X67468027Y-103668460D01*
X67410663Y-103699121D01*
X67360384Y-103740384D01*
X67319121Y-103790663D01*
X67288460Y-103848027D01*
X67269578Y-103910270D01*
X67263203Y-103975000D01*
X64890750Y-103975000D01*
X64776350Y-103860600D01*
X63627000Y-103860600D01*
X63627000Y-103880600D01*
X63373000Y-103880600D01*
X63373000Y-103860600D01*
X62223650Y-103860600D01*
X62064900Y-104019350D01*
X62061828Y-104127300D01*
X62074088Y-104251782D01*
X62110398Y-104371480D01*
X62169363Y-104481794D01*
X62248715Y-104578485D01*
X62345406Y-104657837D01*
X62358400Y-104664783D01*
X62358400Y-104765601D01*
X62388172Y-104915272D01*
X62446570Y-105056258D01*
X62510086Y-105151316D01*
X62465284Y-105188084D01*
X62424021Y-105238363D01*
X62393360Y-105295727D01*
X62374478Y-105357970D01*
X62368103Y-105422700D01*
X62368103Y-106210100D01*
X62374478Y-106274830D01*
X62393360Y-106337073D01*
X62424021Y-106394437D01*
X62465284Y-106444716D01*
X62515563Y-106485979D01*
X62572927Y-106516640D01*
X62635170Y-106535522D01*
X62699900Y-106541897D01*
X62966600Y-106541897D01*
X62966601Y-117196057D01*
X62759455Y-117403203D01*
X59545000Y-117403203D01*
X59480270Y-117409578D01*
X59418027Y-117428460D01*
X59360663Y-117459121D01*
X59310384Y-117500384D01*
X59269121Y-117550663D01*
X59238460Y-117608027D01*
X59219578Y-117670270D01*
X59213203Y-117735000D01*
X51269900Y-117735000D01*
X51269900Y-103339900D01*
X62061828Y-103339900D01*
X62064900Y-103447850D01*
X62223650Y-103606600D01*
X63373000Y-103606600D01*
X63373000Y-102863650D01*
X63627000Y-102863650D01*
X63627000Y-103606600D01*
X64776350Y-103606600D01*
X64935100Y-103447850D01*
X64938172Y-103339900D01*
X64925912Y-103215418D01*
X64889602Y-103095720D01*
X64830637Y-102985406D01*
X64751285Y-102888715D01*
X64654594Y-102809363D01*
X64544280Y-102750398D01*
X64424582Y-102714088D01*
X64300100Y-102701828D01*
X63785750Y-102704900D01*
X63627000Y-102863650D01*
X63373000Y-102863650D01*
X63214250Y-102704900D01*
X62699900Y-102701828D01*
X62575418Y-102714088D01*
X62455720Y-102750398D01*
X62345406Y-102809363D01*
X62248715Y-102888715D01*
X62169363Y-102985406D01*
X62110398Y-103095720D01*
X62074088Y-103215418D01*
X62061828Y-103339900D01*
X51269900Y-103339900D01*
X51269900Y-78441640D01*
X51288414Y-78534717D01*
X51399467Y-78802822D01*
X51560691Y-79044110D01*
X51765890Y-79249309D01*
X52007178Y-79410533D01*
X52205850Y-79492826D01*
X52209819Y-79505910D01*
X52234505Y-79552093D01*
X52259350Y-79598575D01*
X52262203Y-79602051D01*
X52309307Y-79659448D01*
X52309310Y-79659451D01*
X52326006Y-79679795D01*
X52346350Y-79696491D01*
X82455386Y-109805528D01*
X82403763Y-109833121D01*
X82353484Y-109874384D01*
X82312221Y-109924663D01*
X82281560Y-109982027D01*
X82262678Y-110044270D01*
X82256303Y-110109000D01*
X82256303Y-111302800D01*
X82262678Y-111367530D01*
X82281560Y-111429773D01*
X82312221Y-111487137D01*
X82353484Y-111537416D01*
X82403763Y-111578679D01*
X82461127Y-111609340D01*
X82523370Y-111628222D01*
X82588100Y-111634597D01*
X83781900Y-111634597D01*
X83846630Y-111628222D01*
X83908873Y-111609340D01*
X83966237Y-111578679D01*
X84016516Y-111537416D01*
X84057779Y-111487137D01*
X84088440Y-111429773D01*
X84107322Y-111367530D01*
X84113697Y-111302800D01*
X84113697Y-110109000D01*
X84107322Y-110044270D01*
X84088440Y-109982027D01*
X84057779Y-109924663D01*
X84016516Y-109874384D01*
X83966237Y-109833121D01*
X83908873Y-109802460D01*
X83846630Y-109783578D01*
X83781900Y-109777203D01*
X83720625Y-109777203D01*
X83718400Y-109754612D01*
X83718400Y-109754605D01*
X83710681Y-109676235D01*
X83680181Y-109575689D01*
X83630651Y-109483025D01*
X83583122Y-109425111D01*
X83580693Y-109422151D01*
X83580691Y-109422149D01*
X83563995Y-109401805D01*
X83543651Y-109385109D01*
X82821339Y-108662797D01*
X83781900Y-108662797D01*
X83846630Y-108656422D01*
X83882078Y-108645668D01*
X83891058Y-108654648D01*
X84017942Y-108739430D01*
X84158928Y-108797828D01*
X84308599Y-108827600D01*
X84461201Y-108827600D01*
X84610872Y-108797828D01*
X84751858Y-108739430D01*
X84878742Y-108654648D01*
X84986648Y-108546742D01*
X85071430Y-108419858D01*
X85089498Y-108376239D01*
X85720800Y-109007542D01*
X85720801Y-110326203D01*
X85718221Y-110352400D01*
X85728519Y-110456964D01*
X85759019Y-110557510D01*
X85759020Y-110557511D01*
X85808550Y-110650175D01*
X85835874Y-110683469D01*
X85858507Y-110711048D01*
X85858510Y-110711051D01*
X85875206Y-110731395D01*
X85895550Y-110748091D01*
X87114104Y-111966645D01*
X87130805Y-111986995D01*
X87212025Y-112053651D01*
X87304689Y-112103181D01*
X87353169Y-112117887D01*
X87342678Y-112152470D01*
X87336303Y-112217200D01*
X87336303Y-113411000D01*
X87342678Y-113475730D01*
X87361560Y-113537973D01*
X87392221Y-113595337D01*
X87433484Y-113645616D01*
X87483763Y-113686879D01*
X87541127Y-113717540D01*
X87603370Y-113736422D01*
X87668100Y-113742797D01*
X88861900Y-113742797D01*
X88926630Y-113736422D01*
X88977526Y-113720982D01*
X89089842Y-113796030D01*
X89230828Y-113854428D01*
X89380499Y-113884200D01*
X89533101Y-113884200D01*
X89682772Y-113854428D01*
X89823758Y-113796030D01*
X89950642Y-113711248D01*
X90058548Y-113603342D01*
X90116729Y-113516270D01*
X92656504Y-116056045D01*
X92673205Y-116076395D01*
X92754425Y-116143051D01*
X92847089Y-116192581D01*
X92947635Y-116223081D01*
X93026005Y-116230800D01*
X93026006Y-116230800D01*
X93052200Y-116233380D01*
X93078394Y-116230800D01*
X99499982Y-116230800D01*
X99466716Y-116293037D01*
X99385381Y-116561161D01*
X99357918Y-116840000D01*
X99385381Y-117118839D01*
X99466716Y-117386963D01*
X99598795Y-117634067D01*
X99776545Y-117850655D01*
X99993133Y-118028405D01*
X100145787Y-118110000D01*
X99993133Y-118191595D01*
X99776545Y-118369345D01*
X99598795Y-118585933D01*
X99466716Y-118833037D01*
X99385381Y-119101161D01*
X99357918Y-119380000D01*
X99385381Y-119658839D01*
X99466716Y-119926963D01*
X99598795Y-120174067D01*
X99776545Y-120390655D01*
X99993133Y-120568405D01*
X100145787Y-120650000D01*
X99993133Y-120731595D01*
X99776545Y-120909345D01*
X99598795Y-121125933D01*
X99466716Y-121373037D01*
X99385381Y-121641161D01*
X99357918Y-121920000D01*
X99385381Y-122198839D01*
X99466716Y-122466963D01*
X99598795Y-122714067D01*
X99776545Y-122930655D01*
X99993133Y-123108405D01*
X100145787Y-123190000D01*
X99993133Y-123271595D01*
X99776545Y-123449345D01*
X99598795Y-123665933D01*
X99466716Y-123913037D01*
X99385381Y-124181161D01*
X99357918Y-124460000D01*
X99385381Y-124738839D01*
X99466716Y-125006963D01*
X99598795Y-125254067D01*
X99776545Y-125470655D01*
X99993133Y-125648405D01*
X100145787Y-125730000D01*
X99993133Y-125811595D01*
X99776545Y-125989345D01*
X99598795Y-126205933D01*
X99466716Y-126453037D01*
X99385381Y-126721161D01*
X99357918Y-127000000D01*
X99385381Y-127278839D01*
X99466716Y-127546963D01*
X99598795Y-127794067D01*
X99776545Y-128010655D01*
X99993133Y-128188405D01*
X100240237Y-128320484D01*
X100508361Y-128401819D01*
X100717325Y-128422400D01*
X101212675Y-128422400D01*
X101421639Y-128401819D01*
X101689763Y-128320484D01*
X101936867Y-128188405D01*
X102153455Y-128010655D01*
X102331205Y-127794067D01*
X102463284Y-127546963D01*
X102544619Y-127278839D01*
X102572082Y-127000000D01*
X102544619Y-126721161D01*
X102463284Y-126453037D01*
X102331205Y-126205933D01*
X102153455Y-125989345D01*
X101936867Y-125811595D01*
X101784213Y-125730000D01*
X101936867Y-125648405D01*
X102153455Y-125470655D01*
X102331205Y-125254067D01*
X102463284Y-125006963D01*
X102544619Y-124738839D01*
X102572082Y-124460000D01*
X102544619Y-124181161D01*
X102463284Y-123913037D01*
X102331205Y-123665933D01*
X102153455Y-123449345D01*
X101936867Y-123271595D01*
X101784213Y-123190000D01*
X101936867Y-123108405D01*
X102153455Y-122930655D01*
X102331205Y-122714067D01*
X102463284Y-122466963D01*
X102544619Y-122198839D01*
X102572082Y-121920000D01*
X102544619Y-121641161D01*
X102463284Y-121373037D01*
X102331205Y-121125933D01*
X102153455Y-120909345D01*
X101936867Y-120731595D01*
X101784213Y-120650000D01*
X101936867Y-120568405D01*
X102153455Y-120390655D01*
X102331205Y-120174067D01*
X102463284Y-119926963D01*
X102544619Y-119658839D01*
X102572082Y-119380000D01*
X102544619Y-119101161D01*
X102463284Y-118833037D01*
X102331205Y-118585933D01*
X102153455Y-118369345D01*
X101936867Y-118191595D01*
X101784213Y-118110000D01*
X101936867Y-118028405D01*
X102153455Y-117850655D01*
X102331205Y-117634067D01*
X102463284Y-117386963D01*
X102544619Y-117118839D01*
X102572082Y-116840000D01*
X102544619Y-116561161D01*
X102463284Y-116293037D01*
X102331205Y-116045933D01*
X102153455Y-115829345D01*
X101936867Y-115651595D01*
X101784213Y-115570000D01*
X101936867Y-115488405D01*
X102153455Y-115310655D01*
X102331205Y-115094067D01*
X102463284Y-114846963D01*
X102544619Y-114578839D01*
X102572082Y-114300000D01*
X102544619Y-114021161D01*
X102463284Y-113753037D01*
X102331205Y-113505933D01*
X102153455Y-113289345D01*
X101936867Y-113111595D01*
X101784213Y-113030000D01*
X101936867Y-112948405D01*
X102153455Y-112770655D01*
X102331205Y-112554067D01*
X102463284Y-112306963D01*
X102544619Y-112038839D01*
X102572082Y-111760000D01*
X102544619Y-111481161D01*
X102463284Y-111213037D01*
X102331205Y-110965933D01*
X102153455Y-110749345D01*
X101936867Y-110571595D01*
X101784213Y-110490000D01*
X101936867Y-110408405D01*
X102153455Y-110230655D01*
X102331205Y-110014067D01*
X102463284Y-109766963D01*
X102544619Y-109498839D01*
X102572082Y-109220000D01*
X102544619Y-108941161D01*
X102463284Y-108673037D01*
X102331205Y-108425933D01*
X102153455Y-108209345D01*
X101936867Y-108031595D01*
X101784213Y-107950000D01*
X101936867Y-107868405D01*
X102153455Y-107690655D01*
X102331205Y-107474067D01*
X102463284Y-107226963D01*
X102544619Y-106958839D01*
X102572082Y-106680000D01*
X102544619Y-106401161D01*
X102463284Y-106133037D01*
X102331205Y-105885933D01*
X102153455Y-105669345D01*
X101936867Y-105491595D01*
X101784213Y-105410000D01*
X101936867Y-105328405D01*
X102153455Y-105150655D01*
X102331205Y-104934067D01*
X102463284Y-104686963D01*
X102544619Y-104418839D01*
X102572082Y-104140000D01*
X102544619Y-103861161D01*
X102463284Y-103593037D01*
X102394671Y-103464670D01*
X111223651Y-94635691D01*
X111243995Y-94618995D01*
X111310651Y-94537775D01*
X111360181Y-94445111D01*
X111390681Y-94344565D01*
X111398400Y-94266195D01*
X111398400Y-94266188D01*
X111400979Y-94240001D01*
X111398400Y-94213814D01*
X111398400Y-93980000D01*
X114597918Y-93980000D01*
X114625381Y-94258839D01*
X114706716Y-94526963D01*
X114838795Y-94774067D01*
X115016545Y-94990655D01*
X115233133Y-95168405D01*
X115385787Y-95250000D01*
X115233133Y-95331595D01*
X115016545Y-95509345D01*
X114838795Y-95725933D01*
X114706716Y-95973037D01*
X114625381Y-96241161D01*
X114597918Y-96520000D01*
X114625381Y-96798839D01*
X114706716Y-97066963D01*
X114838795Y-97314067D01*
X115016545Y-97530655D01*
X115233133Y-97708405D01*
X115385787Y-97790000D01*
X115233133Y-97871595D01*
X115016545Y-98049345D01*
X114838795Y-98265933D01*
X114706716Y-98513037D01*
X114625381Y-98781161D01*
X114597918Y-99060000D01*
X114625381Y-99338839D01*
X114706716Y-99606963D01*
X114838795Y-99854067D01*
X115016545Y-100070655D01*
X115233133Y-100248405D01*
X115385787Y-100330000D01*
X115233133Y-100411595D01*
X115016545Y-100589345D01*
X114838795Y-100805933D01*
X114706716Y-101053037D01*
X114625381Y-101321161D01*
X114597918Y-101600000D01*
X114625381Y-101878839D01*
X114706716Y-102146963D01*
X114838795Y-102394067D01*
X115016545Y-102610655D01*
X115233133Y-102788405D01*
X115385787Y-102870000D01*
X115233133Y-102951595D01*
X115016545Y-103129345D01*
X114838795Y-103345933D01*
X114706716Y-103593037D01*
X114625381Y-103861161D01*
X114597918Y-104140000D01*
X114625381Y-104418839D01*
X114706716Y-104686963D01*
X114838795Y-104934067D01*
X115016545Y-105150655D01*
X115233133Y-105328405D01*
X115385787Y-105410000D01*
X115233133Y-105491595D01*
X115016545Y-105669345D01*
X114838795Y-105885933D01*
X114706716Y-106133037D01*
X114625381Y-106401161D01*
X114597918Y-106680000D01*
X114625381Y-106958839D01*
X114706716Y-107226963D01*
X114838795Y-107474067D01*
X115016545Y-107690655D01*
X115233133Y-107868405D01*
X115385787Y-107950000D01*
X115233133Y-108031595D01*
X115016545Y-108209345D01*
X114838795Y-108425933D01*
X114706716Y-108673037D01*
X114625381Y-108941161D01*
X114597918Y-109220000D01*
X114625381Y-109498839D01*
X114706716Y-109766963D01*
X114838795Y-110014067D01*
X115016545Y-110230655D01*
X115233133Y-110408405D01*
X115385787Y-110490000D01*
X115233133Y-110571595D01*
X115016545Y-110749345D01*
X114838795Y-110965933D01*
X114706716Y-111213037D01*
X114625381Y-111481161D01*
X114597918Y-111760000D01*
X114625381Y-112038839D01*
X114706716Y-112306963D01*
X114838795Y-112554067D01*
X115016545Y-112770655D01*
X115233133Y-112948405D01*
X115385787Y-113030000D01*
X115233133Y-113111595D01*
X115016545Y-113289345D01*
X114838795Y-113505933D01*
X114706716Y-113753037D01*
X114625381Y-114021161D01*
X114597918Y-114300000D01*
X114625381Y-114578839D01*
X114706716Y-114846963D01*
X114838795Y-115094067D01*
X115016545Y-115310655D01*
X115233133Y-115488405D01*
X115385787Y-115570000D01*
X115233133Y-115651595D01*
X115016545Y-115829345D01*
X114838795Y-116045933D01*
X114706716Y-116293037D01*
X114625381Y-116561161D01*
X114597918Y-116840000D01*
X114625381Y-117118839D01*
X114706716Y-117386963D01*
X114838795Y-117634067D01*
X115016545Y-117850655D01*
X115233133Y-118028405D01*
X115385787Y-118110000D01*
X115233133Y-118191595D01*
X115016545Y-118369345D01*
X114838795Y-118585933D01*
X114706716Y-118833037D01*
X114625381Y-119101161D01*
X114597918Y-119380000D01*
X114625381Y-119658839D01*
X114706716Y-119926963D01*
X114838795Y-120174067D01*
X115016545Y-120390655D01*
X115233133Y-120568405D01*
X115385787Y-120650000D01*
X115233133Y-120731595D01*
X115016545Y-120909345D01*
X114838795Y-121125933D01*
X114706716Y-121373037D01*
X114625381Y-121641161D01*
X114597918Y-121920000D01*
X114625381Y-122198839D01*
X114706716Y-122466963D01*
X114838795Y-122714067D01*
X115016545Y-122930655D01*
X115233133Y-123108405D01*
X115385787Y-123190000D01*
X115233133Y-123271595D01*
X115016545Y-123449345D01*
X114838795Y-123665933D01*
X114706716Y-123913037D01*
X114625381Y-124181161D01*
X114597918Y-124460000D01*
X114625381Y-124738839D01*
X114706716Y-125006963D01*
X114838795Y-125254067D01*
X115016545Y-125470655D01*
X115144911Y-125576003D01*
X114935000Y-125576003D01*
X114870270Y-125582378D01*
X114808027Y-125601260D01*
X114750663Y-125631921D01*
X114700384Y-125673184D01*
X114659121Y-125723463D01*
X114628460Y-125780827D01*
X114609578Y-125843070D01*
X114603203Y-125907800D01*
X114603203Y-128092200D01*
X114609578Y-128156930D01*
X114628460Y-128219173D01*
X114659121Y-128276537D01*
X114700384Y-128326816D01*
X114750663Y-128368079D01*
X114808027Y-128398740D01*
X114870270Y-128417622D01*
X114935000Y-128423997D01*
X117475000Y-128423997D01*
X117539730Y-128417622D01*
X117601973Y-128398740D01*
X117659337Y-128368079D01*
X117709616Y-128326816D01*
X117750879Y-128276537D01*
X117781540Y-128219173D01*
X117800422Y-128156930D01*
X117806797Y-128092200D01*
X117806797Y-125907800D01*
X117800422Y-125843070D01*
X117781540Y-125780827D01*
X117750879Y-125723463D01*
X117709616Y-125673184D01*
X117703600Y-125668246D01*
X121928000Y-125668246D01*
X121928000Y-125791754D01*
X121952095Y-125912889D01*
X121999360Y-126026996D01*
X122067977Y-126129689D01*
X122155311Y-126217023D01*
X122258004Y-126285640D01*
X122372111Y-126332905D01*
X122493246Y-126357000D01*
X122616754Y-126357000D01*
X122737889Y-126332905D01*
X122851996Y-126285640D01*
X122954689Y-126217023D01*
X123042023Y-126129689D01*
X123110640Y-126026996D01*
X123157905Y-125912889D01*
X123182000Y-125791754D01*
X123182000Y-125668246D01*
X123157905Y-125547111D01*
X123110640Y-125433004D01*
X123042023Y-125330311D01*
X122954689Y-125242977D01*
X122851996Y-125174360D01*
X122737889Y-125127095D01*
X122616754Y-125103000D01*
X122493246Y-125103000D01*
X122372111Y-125127095D01*
X122258004Y-125174360D01*
X122155311Y-125242977D01*
X122067977Y-125330311D01*
X121999360Y-125433004D01*
X121952095Y-125547111D01*
X121928000Y-125668246D01*
X117703600Y-125668246D01*
X117659337Y-125631921D01*
X117601973Y-125601260D01*
X117539730Y-125582378D01*
X117475000Y-125576003D01*
X117265089Y-125576003D01*
X117393455Y-125470655D01*
X117571205Y-125254067D01*
X117703284Y-125006963D01*
X117784619Y-124738839D01*
X117812082Y-124460000D01*
X117784619Y-124181161D01*
X117703284Y-123913037D01*
X117571205Y-123665933D01*
X117393455Y-123449345D01*
X117176867Y-123271595D01*
X117024213Y-123190000D01*
X117176867Y-123108405D01*
X117393455Y-122930655D01*
X117571205Y-122714067D01*
X117703284Y-122466963D01*
X117784619Y-122198839D01*
X117812082Y-121920000D01*
X117784619Y-121641161D01*
X117703284Y-121373037D01*
X117571205Y-121125933D01*
X117393455Y-120909345D01*
X117176867Y-120731595D01*
X117024213Y-120650000D01*
X117176867Y-120568405D01*
X117393455Y-120390655D01*
X117571205Y-120174067D01*
X117703284Y-119926963D01*
X117784619Y-119658839D01*
X117812082Y-119380000D01*
X117784619Y-119101161D01*
X117703284Y-118833037D01*
X117571205Y-118585933D01*
X117393455Y-118369345D01*
X117176867Y-118191595D01*
X117024213Y-118110000D01*
X117176867Y-118028405D01*
X117393455Y-117850655D01*
X117571205Y-117634067D01*
X117703284Y-117386963D01*
X117784619Y-117118839D01*
X117812082Y-116840000D01*
X117784619Y-116561161D01*
X117703284Y-116293037D01*
X117571205Y-116045933D01*
X117393455Y-115829345D01*
X117176867Y-115651595D01*
X117024213Y-115570000D01*
X117176867Y-115488405D01*
X117393455Y-115310655D01*
X117571205Y-115094067D01*
X117703284Y-114846963D01*
X117784619Y-114578839D01*
X117812082Y-114300000D01*
X117784619Y-114021161D01*
X117703284Y-113753037D01*
X117571205Y-113505933D01*
X117393455Y-113289345D01*
X117176867Y-113111595D01*
X117024213Y-113030000D01*
X117176867Y-112948405D01*
X117393455Y-112770655D01*
X117571205Y-112554067D01*
X117703284Y-112306963D01*
X117784619Y-112038839D01*
X117812082Y-111760000D01*
X117784619Y-111481161D01*
X117703284Y-111213037D01*
X117571205Y-110965933D01*
X117393455Y-110749345D01*
X117176867Y-110571595D01*
X117024213Y-110490000D01*
X117176867Y-110408405D01*
X117393455Y-110230655D01*
X117571205Y-110014067D01*
X117703284Y-109766963D01*
X117784619Y-109498839D01*
X117812082Y-109220000D01*
X117784619Y-108941161D01*
X117703284Y-108673037D01*
X117571205Y-108425933D01*
X117393455Y-108209345D01*
X117176867Y-108031595D01*
X117024213Y-107950000D01*
X117176867Y-107868405D01*
X117393455Y-107690655D01*
X117571205Y-107474067D01*
X117703284Y-107226963D01*
X117784619Y-106958839D01*
X117812082Y-106680000D01*
X117784619Y-106401161D01*
X117703284Y-106133037D01*
X117571205Y-105885933D01*
X117393455Y-105669345D01*
X117176867Y-105491595D01*
X117024213Y-105410000D01*
X117176867Y-105328405D01*
X117393455Y-105150655D01*
X117571205Y-104934067D01*
X117703284Y-104686963D01*
X117784619Y-104418839D01*
X117812082Y-104140000D01*
X117784619Y-103861161D01*
X117703284Y-103593037D01*
X117571205Y-103345933D01*
X117393455Y-103129345D01*
X117176867Y-102951595D01*
X117024213Y-102870000D01*
X117176867Y-102788405D01*
X117393455Y-102610655D01*
X117571205Y-102394067D01*
X117703284Y-102146963D01*
X117784619Y-101878839D01*
X117812082Y-101600000D01*
X117784619Y-101321161D01*
X117703284Y-101053037D01*
X117571205Y-100805933D01*
X117393455Y-100589345D01*
X117176867Y-100411595D01*
X117024213Y-100330000D01*
X117176867Y-100248405D01*
X117393455Y-100070655D01*
X117571205Y-99854067D01*
X117703284Y-99606963D01*
X117784619Y-99338839D01*
X117812082Y-99060000D01*
X117784619Y-98781161D01*
X117703284Y-98513037D01*
X117571205Y-98265933D01*
X117393455Y-98049345D01*
X117176867Y-97871595D01*
X117024213Y-97790000D01*
X117176867Y-97708405D01*
X117393455Y-97530655D01*
X117571205Y-97314067D01*
X117703284Y-97066963D01*
X117784619Y-96798839D01*
X117812082Y-96520000D01*
X117784619Y-96241161D01*
X117703284Y-95973037D01*
X117571205Y-95725933D01*
X117393455Y-95509345D01*
X117176867Y-95331595D01*
X117024213Y-95250000D01*
X117176867Y-95168405D01*
X117393455Y-94990655D01*
X117571205Y-94774067D01*
X117703284Y-94526963D01*
X117784619Y-94258839D01*
X117812082Y-93980000D01*
X117784619Y-93701161D01*
X117703284Y-93433037D01*
X117571205Y-93185933D01*
X117393455Y-92969345D01*
X117176867Y-92791595D01*
X116929763Y-92659516D01*
X116661639Y-92578181D01*
X116452675Y-92557600D01*
X115957325Y-92557600D01*
X115748361Y-92578181D01*
X115480237Y-92659516D01*
X115233133Y-92791595D01*
X115016545Y-92969345D01*
X114838795Y-93185933D01*
X114706716Y-93433037D01*
X114625381Y-93701161D01*
X114597918Y-93980000D01*
X111398400Y-93980000D01*
X111398400Y-59231290D01*
X111466748Y-59162942D01*
X111551530Y-59036058D01*
X111609928Y-58895072D01*
X111639700Y-58745401D01*
X111639700Y-58592799D01*
X111609928Y-58443128D01*
X111551530Y-58302142D01*
X111466748Y-58175258D01*
X111358842Y-58067352D01*
X111231958Y-57982570D01*
X111090972Y-57924172D01*
X110941301Y-57894400D01*
X110788699Y-57894400D01*
X110639028Y-57924172D01*
X110498042Y-57982570D01*
X110371158Y-58067352D01*
X110263252Y-58175258D01*
X110178470Y-58302142D01*
X110120072Y-58443128D01*
X110090300Y-58592799D01*
X110090300Y-58745401D01*
X110120072Y-58895072D01*
X110178470Y-59036058D01*
X110263252Y-59162942D01*
X110331600Y-59231290D01*
X110331600Y-59969146D01*
X110325275Y-59920784D01*
X110212977Y-59589040D01*
X110101384Y-59380264D01*
X109822360Y-59267245D01*
X108764605Y-60325000D01*
X109822360Y-61382755D01*
X110101384Y-61269736D01*
X110256556Y-60955751D01*
X110331600Y-60676632D01*
X110331600Y-67589147D01*
X110325275Y-67540784D01*
X110212977Y-67209040D01*
X110101384Y-67000264D01*
X109822360Y-66887245D01*
X108764605Y-67945000D01*
X109822360Y-69002755D01*
X110101384Y-68889736D01*
X110256556Y-68575751D01*
X110331600Y-68296631D01*
X110331600Y-75209149D01*
X110325275Y-75160784D01*
X110212977Y-74829040D01*
X110101384Y-74620264D01*
X109822360Y-74507245D01*
X108764605Y-75565000D01*
X109822360Y-76622755D01*
X110101384Y-76509736D01*
X110256556Y-76195751D01*
X110331600Y-75916630D01*
X110331601Y-94019057D01*
X102552572Y-101798086D01*
X102572082Y-101600000D01*
X102544619Y-101321161D01*
X102463284Y-101053037D01*
X102331205Y-100805933D01*
X102153455Y-100589345D01*
X101936867Y-100411595D01*
X101784213Y-100330000D01*
X101936867Y-100248405D01*
X102153455Y-100070655D01*
X102331205Y-99854067D01*
X102463284Y-99606963D01*
X102544619Y-99338839D01*
X102572082Y-99060000D01*
X102544619Y-98781161D01*
X102463284Y-98513037D01*
X102331205Y-98265933D01*
X102153455Y-98049345D01*
X101936867Y-97871595D01*
X101784213Y-97790000D01*
X101936867Y-97708405D01*
X102153455Y-97530655D01*
X102331205Y-97314067D01*
X102463284Y-97066963D01*
X102544619Y-96798839D01*
X102572082Y-96520000D01*
X102544619Y-96241161D01*
X102463284Y-95973037D01*
X102331205Y-95725933D01*
X102153455Y-95509345D01*
X101936867Y-95331595D01*
X101784213Y-95250000D01*
X101936867Y-95168405D01*
X102153455Y-94990655D01*
X102331205Y-94774067D01*
X102463284Y-94526963D01*
X102544619Y-94258839D01*
X102572082Y-93980000D01*
X102544619Y-93701161D01*
X102463284Y-93433037D01*
X102331205Y-93185933D01*
X102153455Y-92969345D01*
X101936867Y-92791595D01*
X101689763Y-92659516D01*
X101421639Y-92578181D01*
X101212675Y-92557600D01*
X100717325Y-92557600D01*
X100508361Y-92578181D01*
X100240237Y-92659516D01*
X99993133Y-92791595D01*
X99776545Y-92969345D01*
X99598795Y-93185933D01*
X99466716Y-93433037D01*
X99385381Y-93701161D01*
X99357918Y-93980000D01*
X99385381Y-94258839D01*
X99466716Y-94526963D01*
X99598795Y-94774067D01*
X99776545Y-94990655D01*
X99993133Y-95168405D01*
X100145787Y-95250000D01*
X99993133Y-95331595D01*
X99776545Y-95509345D01*
X99598795Y-95725933D01*
X99466716Y-95973037D01*
X99385381Y-96241161D01*
X99357918Y-96520000D01*
X99385381Y-96798839D01*
X99466716Y-97066963D01*
X99598795Y-97314067D01*
X99776545Y-97530655D01*
X99993133Y-97708405D01*
X100145787Y-97790000D01*
X99993133Y-97871595D01*
X99776545Y-98049345D01*
X99598795Y-98265933D01*
X99466716Y-98513037D01*
X99385381Y-98781161D01*
X99357918Y-99060000D01*
X99385381Y-99338839D01*
X99466716Y-99606963D01*
X99598795Y-99854067D01*
X99776545Y-100070655D01*
X99993133Y-100248405D01*
X100145787Y-100330000D01*
X99993133Y-100411595D01*
X99776545Y-100589345D01*
X99598795Y-100805933D01*
X99466716Y-101053037D01*
X99385381Y-101321161D01*
X99357918Y-101600000D01*
X99385381Y-101878839D01*
X99466716Y-102146963D01*
X99598795Y-102394067D01*
X99776545Y-102610655D01*
X99993133Y-102788405D01*
X100145787Y-102870000D01*
X99993133Y-102951595D01*
X99776545Y-103129345D01*
X99598795Y-103345933D01*
X99466716Y-103593037D01*
X99385381Y-103861161D01*
X99357918Y-104140000D01*
X99385381Y-104418839D01*
X99466716Y-104686963D01*
X99598795Y-104934067D01*
X99776545Y-105150655D01*
X99993133Y-105328405D01*
X100145787Y-105410000D01*
X99993133Y-105491595D01*
X99776545Y-105669345D01*
X99598795Y-105885933D01*
X99466716Y-106133037D01*
X99385381Y-106401161D01*
X99357918Y-106680000D01*
X99385381Y-106958839D01*
X99466716Y-107226963D01*
X99598795Y-107474067D01*
X99776545Y-107690655D01*
X99993133Y-107868405D01*
X100145787Y-107950000D01*
X99993133Y-108031595D01*
X99776545Y-108209345D01*
X99598795Y-108425933D01*
X99466716Y-108673037D01*
X99385381Y-108941161D01*
X99357918Y-109220000D01*
X99385381Y-109498839D01*
X99466716Y-109766963D01*
X99535329Y-109895330D01*
X98323659Y-111107000D01*
X94273697Y-111107000D01*
X94273697Y-110151385D01*
X94283496Y-110139445D01*
X97546051Y-106876891D01*
X97566395Y-106860195D01*
X97608299Y-106809136D01*
X97633051Y-106778975D01*
X97682581Y-106686311D01*
X97713081Y-106585765D01*
X97716151Y-106554597D01*
X97720800Y-106507395D01*
X97720800Y-106507388D01*
X97723379Y-106481201D01*
X97720800Y-106455014D01*
X97720800Y-89723541D01*
X107990862Y-79453480D01*
X108155283Y-79521586D01*
X108439902Y-79578200D01*
X108730098Y-79578200D01*
X109014717Y-79521586D01*
X109282822Y-79410533D01*
X109524110Y-79249309D01*
X109729309Y-79044110D01*
X109890533Y-78802822D01*
X110001586Y-78534717D01*
X110058200Y-78250098D01*
X110058200Y-77959902D01*
X110001586Y-77675283D01*
X109890533Y-77407178D01*
X109729309Y-77165890D01*
X109562908Y-76999489D01*
X109642755Y-76802360D01*
X108585000Y-75744605D01*
X107527245Y-76802360D01*
X107607092Y-76999489D01*
X107440691Y-77165890D01*
X107279467Y-77407178D01*
X107168414Y-77675283D01*
X107111800Y-77959902D01*
X107111800Y-78250098D01*
X107168414Y-78534717D01*
X107236520Y-78699138D01*
X96828750Y-89106909D01*
X96808406Y-89123605D01*
X96791800Y-89143839D01*
X96791800Y-83032541D01*
X104202403Y-75621938D01*
X106799306Y-75621938D01*
X106844725Y-75969216D01*
X106957023Y-76300960D01*
X107068616Y-76509736D01*
X107347640Y-76622755D01*
X108405395Y-75565000D01*
X107347640Y-74507245D01*
X107068616Y-74620264D01*
X106913444Y-74934249D01*
X106822509Y-75272473D01*
X106799306Y-75621938D01*
X104202403Y-75621938D01*
X105496701Y-74327640D01*
X107527245Y-74327640D01*
X108585000Y-75385395D01*
X109642755Y-74327640D01*
X109529736Y-74048616D01*
X109215751Y-73893444D01*
X108877527Y-73802509D01*
X108528062Y-73779306D01*
X108180784Y-73824725D01*
X107849040Y-73937023D01*
X107640264Y-74048616D01*
X107527245Y-74327640D01*
X105496701Y-74327640D01*
X107990862Y-71833480D01*
X108155283Y-71901586D01*
X108439902Y-71958200D01*
X108730098Y-71958200D01*
X109014717Y-71901586D01*
X109282822Y-71790533D01*
X109524110Y-71629309D01*
X109729309Y-71424110D01*
X109890533Y-71182822D01*
X110001586Y-70914717D01*
X110058200Y-70630098D01*
X110058200Y-70339902D01*
X110001586Y-70055283D01*
X109890533Y-69787178D01*
X109729309Y-69545890D01*
X109562908Y-69379489D01*
X109642755Y-69182360D01*
X108585000Y-68124605D01*
X107527245Y-69182360D01*
X107607092Y-69379489D01*
X107440691Y-69545890D01*
X107279467Y-69787178D01*
X107168414Y-70055283D01*
X107111800Y-70339902D01*
X107111800Y-70630098D01*
X107168414Y-70914717D01*
X107236520Y-71079138D01*
X95899750Y-82415909D01*
X95879406Y-82432605D01*
X95862710Y-82452949D01*
X95862707Y-82452952D01*
X95840074Y-82480531D01*
X95812750Y-82513825D01*
X95812749Y-82513827D01*
X95775100Y-82584262D01*
X95775100Y-76429241D01*
X104202403Y-68001938D01*
X106799306Y-68001938D01*
X106844725Y-68349216D01*
X106957023Y-68680960D01*
X107068616Y-68889736D01*
X107347640Y-69002755D01*
X108405395Y-67945000D01*
X107347640Y-66887245D01*
X107068616Y-67000264D01*
X106913444Y-67314249D01*
X106822509Y-67652473D01*
X106799306Y-68001938D01*
X104202403Y-68001938D01*
X105496701Y-66707640D01*
X107527245Y-66707640D01*
X108585000Y-67765395D01*
X109642755Y-66707640D01*
X109529736Y-66428616D01*
X109215751Y-66273444D01*
X108877527Y-66182509D01*
X108528062Y-66159306D01*
X108180784Y-66204725D01*
X107849040Y-66317023D01*
X107640264Y-66428616D01*
X107527245Y-66707640D01*
X105496701Y-66707640D01*
X107990861Y-64213480D01*
X108155283Y-64281586D01*
X108439902Y-64338200D01*
X108730098Y-64338200D01*
X109014717Y-64281586D01*
X109282822Y-64170533D01*
X109524110Y-64009309D01*
X109729309Y-63804110D01*
X109890533Y-63562822D01*
X110001586Y-63294717D01*
X110058200Y-63010098D01*
X110058200Y-62719902D01*
X110001586Y-62435283D01*
X109890533Y-62167178D01*
X109729309Y-61925890D01*
X109562908Y-61759489D01*
X109642755Y-61562360D01*
X108585000Y-60504605D01*
X107527245Y-61562360D01*
X107607092Y-61759489D01*
X107440691Y-61925890D01*
X107279467Y-62167178D01*
X107168414Y-62435283D01*
X107111800Y-62719902D01*
X107111800Y-63010098D01*
X107168414Y-63294717D01*
X107236520Y-63459139D01*
X94883055Y-75812604D01*
X94862705Y-75829305D01*
X94796049Y-75910525D01*
X94746519Y-76003190D01*
X94716019Y-76103736D01*
X94708300Y-76182106D01*
X94708300Y-76182113D01*
X94705721Y-76208300D01*
X94708300Y-76234487D01*
X94708300Y-84405332D01*
X94578263Y-84091393D01*
X94347546Y-83746101D01*
X94053899Y-83452454D01*
X93708607Y-83221737D01*
X93324939Y-83062817D01*
X92917640Y-82981800D01*
X92502360Y-82981800D01*
X92095061Y-83062817D01*
X91711393Y-83221737D01*
X91366101Y-83452454D01*
X91072454Y-83746101D01*
X90841737Y-84091393D01*
X90682817Y-84475061D01*
X90601800Y-84882360D01*
X90601800Y-85297640D01*
X90605504Y-85316263D01*
X90240400Y-84951159D01*
X90240400Y-78123890D01*
X90308748Y-78055542D01*
X90393530Y-77928658D01*
X90451928Y-77787672D01*
X90481700Y-77638001D01*
X90481700Y-77485399D01*
X90451928Y-77335728D01*
X90393530Y-77194742D01*
X90308748Y-77067858D01*
X90200842Y-76959952D01*
X90073958Y-76875170D01*
X89932972Y-76816772D01*
X89783301Y-76787000D01*
X89630699Y-76787000D01*
X89481028Y-76816772D01*
X89340042Y-76875170D01*
X89213158Y-76959952D01*
X89105252Y-77067858D01*
X89020470Y-77194742D01*
X88962072Y-77335728D01*
X88932300Y-77485399D01*
X88932300Y-77638001D01*
X88962072Y-77787672D01*
X89020470Y-77928658D01*
X89105252Y-78055542D01*
X89173601Y-78123891D01*
X89173600Y-85145913D01*
X89171021Y-85172100D01*
X89173600Y-85198287D01*
X89173600Y-85198294D01*
X89181319Y-85276664D01*
X89211819Y-85377210D01*
X89261349Y-85469875D01*
X89328005Y-85551095D01*
X89348355Y-85567796D01*
X91553701Y-87773142D01*
X91553700Y-106489859D01*
X88646638Y-103582797D01*
X88861900Y-103582797D01*
X88926630Y-103576422D01*
X88988873Y-103557540D01*
X89018053Y-103541943D01*
X89028258Y-103552148D01*
X89155142Y-103636930D01*
X89296128Y-103695328D01*
X89445799Y-103725100D01*
X89598401Y-103725100D01*
X89748072Y-103695328D01*
X89889058Y-103636930D01*
X90015942Y-103552148D01*
X90123848Y-103444242D01*
X90208630Y-103317358D01*
X90267028Y-103176372D01*
X90296800Y-103026701D01*
X90296800Y-102874099D01*
X90267028Y-102724428D01*
X90208630Y-102583442D01*
X90123848Y-102456558D01*
X90015942Y-102348652D01*
X89889058Y-102263870D01*
X89748072Y-102205472D01*
X89598401Y-102175700D01*
X89462306Y-102175700D01*
X89430911Y-102158919D01*
X89330365Y-102128419D01*
X89251995Y-102120700D01*
X89251987Y-102120700D01*
X89225800Y-102118121D01*
X89199613Y-102120700D01*
X89193697Y-102120700D01*
X89193697Y-102057200D01*
X89187322Y-101992470D01*
X89168440Y-101930227D01*
X89137779Y-101872863D01*
X89096516Y-101822584D01*
X89046237Y-101781321D01*
X88988873Y-101750660D01*
X88926630Y-101731778D01*
X88861900Y-101725403D01*
X87873400Y-101725403D01*
X87873400Y-101474597D01*
X88861900Y-101474597D01*
X88926630Y-101468222D01*
X88988873Y-101449340D01*
X89046237Y-101418679D01*
X89096516Y-101377416D01*
X89137779Y-101327137D01*
X89168440Y-101269773D01*
X89187322Y-101207530D01*
X89193697Y-101142800D01*
X89193697Y-99949000D01*
X89187322Y-99884270D01*
X89168440Y-99822027D01*
X89137779Y-99764663D01*
X89096516Y-99714384D01*
X89046237Y-99673121D01*
X88988873Y-99642460D01*
X88926630Y-99623578D01*
X88861900Y-99617203D01*
X88798400Y-99617203D01*
X88798400Y-70511186D01*
X88800979Y-70484999D01*
X88798400Y-70458812D01*
X88798400Y-70458805D01*
X88790681Y-70380435D01*
X88760181Y-70279889D01*
X88710651Y-70187225D01*
X88643995Y-70106005D01*
X88623649Y-70089307D01*
X81993480Y-63459139D01*
X82061586Y-63294717D01*
X82118200Y-63010098D01*
X82118200Y-62719902D01*
X82061586Y-62435283D01*
X81950533Y-62167178D01*
X81789309Y-61925890D01*
X81622908Y-61759489D01*
X81702755Y-61562360D01*
X80645000Y-60504605D01*
X79587245Y-61562360D01*
X79667092Y-61759489D01*
X79500691Y-61925890D01*
X79339467Y-62167178D01*
X79228414Y-62435283D01*
X79171800Y-62719902D01*
X79171800Y-63010098D01*
X79228414Y-63294717D01*
X79339467Y-63562822D01*
X79500691Y-63804110D01*
X79705890Y-64009309D01*
X79947178Y-64170533D01*
X80215283Y-64281586D01*
X80346941Y-64307774D01*
X80266458Y-64361552D01*
X80158552Y-64469458D01*
X80073770Y-64596342D01*
X80015372Y-64737328D01*
X79985600Y-64886999D01*
X79985600Y-65039601D01*
X80015372Y-65189272D01*
X80073770Y-65330258D01*
X80158552Y-65457142D01*
X80266458Y-65565048D01*
X80393342Y-65649830D01*
X80534328Y-65708228D01*
X80683999Y-65738000D01*
X80780659Y-65738000D01*
X81355530Y-66312871D01*
X81275751Y-66273444D01*
X80937527Y-66182509D01*
X80588062Y-66159306D01*
X80240784Y-66204725D01*
X79909040Y-66317023D01*
X79700264Y-66428616D01*
X79587245Y-66707640D01*
X80645000Y-67765395D01*
X80659143Y-67751253D01*
X80838748Y-67930858D01*
X80824605Y-67945000D01*
X81882360Y-69002755D01*
X82161384Y-68889736D01*
X82316556Y-68575751D01*
X82407491Y-68237527D01*
X82430694Y-67888062D01*
X82385275Y-67540784D01*
X82283866Y-67241207D01*
X86806600Y-71763942D01*
X86806600Y-75892259D01*
X81993480Y-71079139D01*
X82061586Y-70914717D01*
X82118200Y-70630098D01*
X82118200Y-70339902D01*
X82061586Y-70055283D01*
X81950533Y-69787178D01*
X81789309Y-69545890D01*
X81622908Y-69379489D01*
X81702755Y-69182360D01*
X80645000Y-68124605D01*
X79587245Y-69182360D01*
X79667092Y-69379489D01*
X79500691Y-69545890D01*
X79339467Y-69787178D01*
X79228414Y-70055283D01*
X79171800Y-70339902D01*
X79171800Y-70630098D01*
X79228414Y-70914717D01*
X79339467Y-71182822D01*
X79500691Y-71424110D01*
X79705890Y-71629309D01*
X79947178Y-71790533D01*
X80215283Y-71901586D01*
X80499902Y-71958200D01*
X80790098Y-71958200D01*
X81074717Y-71901586D01*
X81239139Y-71833480D01*
X86298200Y-76892541D01*
X86298200Y-78376959D01*
X75923179Y-68001938D01*
X78859306Y-68001938D01*
X78904725Y-68349216D01*
X79017023Y-68680960D01*
X79128616Y-68889736D01*
X79407640Y-69002755D01*
X80465395Y-67945000D01*
X79407640Y-66887245D01*
X79128616Y-67000264D01*
X78973444Y-67314249D01*
X78882509Y-67652473D01*
X78859306Y-68001938D01*
X75923179Y-68001938D01*
X75795496Y-67874255D01*
X75778795Y-67853905D01*
X75697575Y-67787249D01*
X75604911Y-67737719D01*
X75504365Y-67707219D01*
X75425995Y-67699500D01*
X75425987Y-67699500D01*
X75399800Y-67696921D01*
X75373613Y-67699500D01*
X68235090Y-67699500D01*
X68166742Y-67631152D01*
X68039858Y-67546370D01*
X67898872Y-67487972D01*
X67749201Y-67458200D01*
X67596599Y-67458200D01*
X67446928Y-67487972D01*
X67305942Y-67546370D01*
X67179058Y-67631152D01*
X67071152Y-67739058D01*
X66986370Y-67865942D01*
X66927972Y-68006928D01*
X66898200Y-68156599D01*
X66898200Y-68309201D01*
X66927972Y-68458872D01*
X66986370Y-68599858D01*
X67071152Y-68726742D01*
X67179058Y-68834648D01*
X67305942Y-68919430D01*
X67446928Y-68977828D01*
X67596599Y-69007600D01*
X67749201Y-69007600D01*
X67898872Y-68977828D01*
X68039858Y-68919430D01*
X68166742Y-68834648D01*
X68235090Y-68766300D01*
X75178859Y-68766300D01*
X80238169Y-73825610D01*
X79909040Y-73937023D01*
X79700264Y-74048616D01*
X79587245Y-74327640D01*
X80645000Y-75385395D01*
X80659143Y-75371253D01*
X80838748Y-75550858D01*
X80824605Y-75565000D01*
X81882360Y-76622755D01*
X82161384Y-76509736D01*
X82316556Y-76195751D01*
X82378376Y-75965817D01*
X85789900Y-79377341D01*
X85789900Y-82495558D01*
X81993480Y-78699139D01*
X82061586Y-78534717D01*
X82118200Y-78250098D01*
X82118200Y-77959902D01*
X82061586Y-77675283D01*
X81950533Y-77407178D01*
X81789309Y-77165890D01*
X81622908Y-76999489D01*
X81702755Y-76802360D01*
X80645000Y-75744605D01*
X79587245Y-76802360D01*
X79667092Y-76999489D01*
X79500691Y-77165890D01*
X79339467Y-77407178D01*
X79228414Y-77675283D01*
X79171800Y-77959902D01*
X79171800Y-78250098D01*
X79228414Y-78534717D01*
X79339467Y-78802822D01*
X79500691Y-79044110D01*
X79705890Y-79249309D01*
X79947178Y-79410533D01*
X80215283Y-79521586D01*
X80499902Y-79578200D01*
X80790098Y-79578200D01*
X81074717Y-79521586D01*
X81239139Y-79453480D01*
X85281600Y-83495942D01*
X85281600Y-92362359D01*
X68770900Y-75851659D01*
X68770900Y-75754999D01*
X68744432Y-75621938D01*
X78859306Y-75621938D01*
X78904725Y-75969216D01*
X79017023Y-76300960D01*
X79128616Y-76509736D01*
X79407640Y-76622755D01*
X80465395Y-75565000D01*
X79407640Y-74507245D01*
X79128616Y-74620264D01*
X78973444Y-74934249D01*
X78882509Y-75272473D01*
X78859306Y-75621938D01*
X68744432Y-75621938D01*
X68741128Y-75605328D01*
X68682730Y-75464342D01*
X68597948Y-75337458D01*
X68490042Y-75229552D01*
X68363158Y-75144770D01*
X68222172Y-75086372D01*
X68072501Y-75056600D01*
X67919899Y-75056600D01*
X67770228Y-75086372D01*
X67629242Y-75144770D01*
X67502358Y-75229552D01*
X67394452Y-75337458D01*
X67309670Y-75464342D01*
X67251272Y-75605328D01*
X67221500Y-75754999D01*
X67221500Y-75907601D01*
X67251272Y-76057272D01*
X67309670Y-76198258D01*
X67394452Y-76325142D01*
X67502358Y-76433048D01*
X67629242Y-76517830D01*
X67770228Y-76576228D01*
X67919899Y-76606000D01*
X68016559Y-76606000D01*
X84591000Y-93180441D01*
X84591001Y-102214848D01*
X84451001Y-102187000D01*
X84367747Y-102187000D01*
X84315211Y-102158919D01*
X84214665Y-102128419D01*
X84136295Y-102120700D01*
X84136294Y-102120700D01*
X84113697Y-102118474D01*
X84113697Y-102057200D01*
X84107322Y-101992470D01*
X84088440Y-101930227D01*
X84057779Y-101872863D01*
X84016516Y-101822584D01*
X83966237Y-101781321D01*
X83908873Y-101750660D01*
X83846630Y-101731778D01*
X83781900Y-101725403D01*
X82588100Y-101725403D01*
X82523370Y-101731778D01*
X82461127Y-101750660D01*
X82403763Y-101781321D01*
X82353484Y-101822584D01*
X82312221Y-101872863D01*
X82281560Y-101930227D01*
X82262678Y-101992470D01*
X82256303Y-102057200D01*
X82256303Y-103017761D01*
X58671800Y-79433259D01*
X58671800Y-75944587D01*
X58674379Y-75918400D01*
X58671800Y-75892213D01*
X58671800Y-75892205D01*
X58664081Y-75813835D01*
X58633581Y-75713289D01*
X58584051Y-75620625D01*
X58549087Y-75578021D01*
X58534093Y-75559751D01*
X58534091Y-75559749D01*
X58517395Y-75539405D01*
X58497051Y-75522709D01*
X54053480Y-71079139D01*
X54121586Y-70914717D01*
X54178200Y-70630098D01*
X54178200Y-70339902D01*
X54121586Y-70055283D01*
X54010533Y-69787178D01*
X53849309Y-69545890D01*
X53682908Y-69379489D01*
X53762755Y-69182360D01*
X52705000Y-68124605D01*
X51647245Y-69182360D01*
X51727092Y-69379489D01*
X51560691Y-69545890D01*
X51399467Y-69787178D01*
X51288414Y-70055283D01*
X51269900Y-70148360D01*
X51269900Y-68922660D01*
X51467640Y-69002755D01*
X52525395Y-67945000D01*
X52884605Y-67945000D01*
X53942360Y-69002755D01*
X54221384Y-68889736D01*
X54376556Y-68575751D01*
X54467491Y-68237527D01*
X54490694Y-67888062D01*
X54445275Y-67540784D01*
X54332977Y-67209040D01*
X54221384Y-67000264D01*
X53942360Y-66887245D01*
X52884605Y-67945000D01*
X52525395Y-67945000D01*
X51467640Y-66887245D01*
X51269900Y-66967340D01*
X51269900Y-66707640D01*
X51647245Y-66707640D01*
X52705000Y-67765395D01*
X53762755Y-66707640D01*
X53649736Y-66428616D01*
X53335751Y-66273444D01*
X52997527Y-66182509D01*
X52648062Y-66159306D01*
X52300784Y-66204725D01*
X51969040Y-66317023D01*
X51760264Y-66428616D01*
X51647245Y-66707640D01*
X51269900Y-66707640D01*
X51269900Y-63201640D01*
X51288414Y-63294717D01*
X51399467Y-63562822D01*
X51560691Y-63804110D01*
X51765890Y-64009309D01*
X52007178Y-64170533D01*
X52275283Y-64281586D01*
X52559902Y-64338200D01*
X52850098Y-64338200D01*
X53134717Y-64281586D01*
X53299139Y-64213480D01*
X82651600Y-93565942D01*
X82651601Y-99594605D01*
X82651601Y-99617203D01*
X82588100Y-99617203D01*
X82523370Y-99623578D01*
X82461127Y-99642460D01*
X82403763Y-99673121D01*
X82353484Y-99714384D01*
X82312221Y-99764663D01*
X82281560Y-99822027D01*
X82262678Y-99884270D01*
X82256303Y-99949000D01*
X82256303Y-101142800D01*
X82262678Y-101207530D01*
X82281560Y-101269773D01*
X82312221Y-101327137D01*
X82353484Y-101377416D01*
X82403763Y-101418679D01*
X82461127Y-101449340D01*
X82523370Y-101468222D01*
X82588100Y-101474597D01*
X83781900Y-101474597D01*
X83846630Y-101468222D01*
X83908873Y-101449340D01*
X83966237Y-101418679D01*
X84016516Y-101377416D01*
X84057779Y-101327137D01*
X84088440Y-101269773D01*
X84107322Y-101207530D01*
X84113697Y-101142800D01*
X84113697Y-99949000D01*
X84107322Y-99884270D01*
X84088440Y-99822027D01*
X84057779Y-99764663D01*
X84016516Y-99714384D01*
X83966237Y-99673121D01*
X83908873Y-99642460D01*
X83846630Y-99623578D01*
X83781900Y-99617203D01*
X83718400Y-99617203D01*
X83718400Y-93371186D01*
X83720979Y-93344999D01*
X83718400Y-93318812D01*
X83718400Y-93318805D01*
X83710681Y-93240435D01*
X83680181Y-93139889D01*
X83630651Y-93047225D01*
X83563995Y-92966005D01*
X83543651Y-92949309D01*
X54053480Y-63459139D01*
X54121586Y-63294717D01*
X54178200Y-63010098D01*
X54178200Y-62719902D01*
X54121586Y-62435283D01*
X54010533Y-62167178D01*
X53849309Y-61925890D01*
X53682908Y-61759489D01*
X53762755Y-61562360D01*
X52705000Y-60504605D01*
X51647245Y-61562360D01*
X51727092Y-61759489D01*
X51560691Y-61925890D01*
X51399467Y-62167178D01*
X51288414Y-62435283D01*
X51269900Y-62528360D01*
X51269900Y-61302660D01*
X51467640Y-61382755D01*
X52525395Y-60325000D01*
X52884605Y-60325000D01*
X53942360Y-61382755D01*
X54221384Y-61269736D01*
X54376556Y-60955751D01*
X54467491Y-60617527D01*
X54483133Y-60381938D01*
X78859306Y-60381938D01*
X78904725Y-60729216D01*
X79017023Y-61060960D01*
X79128616Y-61269736D01*
X79407640Y-61382755D01*
X80465395Y-60325000D01*
X80824605Y-60325000D01*
X81882360Y-61382755D01*
X82161384Y-61269736D01*
X82316556Y-60955751D01*
X82407491Y-60617527D01*
X82423133Y-60381938D01*
X106799306Y-60381938D01*
X106844725Y-60729216D01*
X106957023Y-61060960D01*
X107068616Y-61269736D01*
X107347640Y-61382755D01*
X108405395Y-60325000D01*
X107347640Y-59267245D01*
X107068616Y-59380264D01*
X106913444Y-59694249D01*
X106822509Y-60032473D01*
X106799306Y-60381938D01*
X82423133Y-60381938D01*
X82430694Y-60268062D01*
X82385275Y-59920784D01*
X82272977Y-59589040D01*
X82161384Y-59380264D01*
X81882360Y-59267245D01*
X80824605Y-60325000D01*
X80465395Y-60325000D01*
X79407640Y-59267245D01*
X79128616Y-59380264D01*
X78973444Y-59694249D01*
X78882509Y-60032473D01*
X78859306Y-60381938D01*
X54483133Y-60381938D01*
X54490694Y-60268062D01*
X54445275Y-59920784D01*
X54332977Y-59589040D01*
X54221384Y-59380264D01*
X53942360Y-59267245D01*
X52884605Y-60325000D01*
X52525395Y-60325000D01*
X51467640Y-59267245D01*
X51269900Y-59347340D01*
X51269900Y-59087640D01*
X51647245Y-59087640D01*
X52705000Y-60145395D01*
X53762755Y-59087640D01*
X79587245Y-59087640D01*
X80645000Y-60145395D01*
X81702755Y-59087640D01*
X107527245Y-59087640D01*
X108585000Y-60145395D01*
X109642755Y-59087640D01*
X109529736Y-58808616D01*
X109215751Y-58653444D01*
X108877527Y-58562509D01*
X108528062Y-58539306D01*
X108180784Y-58584725D01*
X107849040Y-58697023D01*
X107640264Y-58808616D01*
X107527245Y-59087640D01*
X81702755Y-59087640D01*
X81589736Y-58808616D01*
X81275751Y-58653444D01*
X80937527Y-58562509D01*
X80588062Y-58539306D01*
X80240784Y-58584725D01*
X79909040Y-58697023D01*
X79700264Y-58808616D01*
X79587245Y-59087640D01*
X53762755Y-59087640D01*
X53649736Y-58808616D01*
X53335751Y-58653444D01*
X52997527Y-58562509D01*
X52648062Y-58539306D01*
X52300784Y-58584725D01*
X51969040Y-58697023D01*
X51760264Y-58808616D01*
X51647245Y-59087640D01*
X51269900Y-59087640D01*
X51269900Y-57168457D01*
X51337669Y-56307360D01*
X62661800Y-56307360D01*
X62661800Y-56722640D01*
X62742817Y-57129939D01*
X62901737Y-57513607D01*
X63132454Y-57858899D01*
X63426101Y-58152546D01*
X63771393Y-58383263D01*
X64155061Y-58542183D01*
X64562360Y-58623200D01*
X64977640Y-58623200D01*
X65384939Y-58542183D01*
X65768607Y-58383263D01*
X66113899Y-58152546D01*
X66407546Y-57858899D01*
X66638263Y-57513607D01*
X66797183Y-57129939D01*
X66878200Y-56722640D01*
X66878200Y-56307360D01*
X118541800Y-56307360D01*
X118541800Y-56722640D01*
X118622817Y-57129939D01*
X118781737Y-57513607D01*
X119012454Y-57858899D01*
X119306101Y-58152546D01*
X119651393Y-58383263D01*
X120035061Y-58542183D01*
X120442360Y-58623200D01*
X120857640Y-58623200D01*
X121264939Y-58542183D01*
X121648607Y-58383263D01*
X121993899Y-58152546D01*
X122287546Y-57858899D01*
X122518263Y-57513607D01*
X122677183Y-57129939D01*
X122758200Y-56722640D01*
X122758200Y-56307360D01*
X122677183Y-55900061D01*
X122518263Y-55516393D01*
X122287546Y-55171101D01*
X121993899Y-54877454D01*
X121648607Y-54646737D01*
X121264939Y-54487817D01*
X120857640Y-54406800D01*
X120442360Y-54406800D01*
X120035061Y-54487817D01*
X119651393Y-54646737D01*
X119306101Y-54877454D01*
X119012454Y-55171101D01*
X118781737Y-55516393D01*
X118622817Y-55900061D01*
X118541800Y-56307360D01*
X66878200Y-56307360D01*
X66797183Y-55900061D01*
X66638263Y-55516393D01*
X66407546Y-55171101D01*
X66113899Y-54877454D01*
X65768607Y-54646737D01*
X65384939Y-54487817D01*
X64977640Y-54406800D01*
X64562360Y-54406800D01*
X64155061Y-54487817D01*
X63771393Y-54646737D01*
X63426101Y-54877454D01*
X63132454Y-55171101D01*
X62901737Y-55516393D01*
X62742817Y-55900061D01*
X62661800Y-56307360D01*
X51337669Y-56307360D01*
X51343728Y-56230382D01*
X51559075Y-55333396D01*
X51912087Y-54481151D01*
X52260100Y-53913246D01*
X53348000Y-53913246D01*
X53348000Y-54036754D01*
X53372095Y-54157889D01*
X53419360Y-54271996D01*
X53487977Y-54374689D01*
X53575311Y-54462023D01*
X53678004Y-54530640D01*
X53792111Y-54577905D01*
X53913246Y-54602000D01*
X54036754Y-54602000D01*
X54157889Y-54577905D01*
X54271996Y-54530640D01*
X54374689Y-54462023D01*
X54462023Y-54374689D01*
X54530640Y-54271996D01*
X54577905Y-54157889D01*
X54602000Y-54036754D01*
X54602000Y-53913246D01*
X121928000Y-53913246D01*
X121928000Y-54036754D01*
X121952095Y-54157889D01*
X121999360Y-54271996D01*
X122067977Y-54374689D01*
X122155311Y-54462023D01*
X122258004Y-54530640D01*
X122372111Y-54577905D01*
X122493246Y-54602000D01*
X122616754Y-54602000D01*
X122737889Y-54577905D01*
X122851996Y-54530640D01*
X122954689Y-54462023D01*
X123042023Y-54374689D01*
X123110640Y-54271996D01*
X123157905Y-54157889D01*
X123182000Y-54036754D01*
X123182000Y-53913246D01*
X123157905Y-53792111D01*
X123110640Y-53678004D01*
X123042023Y-53575311D01*
X122954689Y-53487977D01*
X122851996Y-53419360D01*
X122737889Y-53372095D01*
X122616754Y-53348000D01*
X122493246Y-53348000D01*
X122372111Y-53372095D01*
X122258004Y-53419360D01*
X122155311Y-53487977D01*
X122067977Y-53575311D01*
X121999360Y-53678004D01*
X121952095Y-53792111D01*
X121928000Y-53913246D01*
X54602000Y-53913246D01*
X54577905Y-53792111D01*
X54530640Y-53678004D01*
X54462023Y-53575311D01*
X54374689Y-53487977D01*
X54271996Y-53419360D01*
X54157889Y-53372095D01*
X54036754Y-53348000D01*
X53913246Y-53348000D01*
X53792111Y-53372095D01*
X53678004Y-53419360D01*
X53575311Y-53487977D01*
X53487977Y-53575311D01*
X53419360Y-53678004D01*
X53372095Y-53792111D01*
X53348000Y-53913246D01*
X52260100Y-53913246D01*
X52394075Y-53694619D01*
X52993166Y-52993172D01*
X53694619Y-52394074D01*
X54481147Y-51912089D01*
X55333396Y-51559075D01*
X56230382Y-51343728D01*
X57168457Y-51269900D01*
X119361543Y-51269900D01*
X120299618Y-51343728D01*
G37*
%TD.AperFunction*%
D26*
X51288414Y-70914717D02*
X51399467Y-71182822D01*
X51560691Y-71424110D01*
X51765890Y-71629309D01*
X52007178Y-71790533D01*
X52275283Y-71901586D01*
X52559902Y-71958200D01*
X52850098Y-71958200D01*
X53134717Y-71901586D01*
X53299139Y-71833480D01*
X57605000Y-76139342D01*
X57605001Y-79628003D01*
X57602421Y-79654200D01*
X57612719Y-79758764D01*
X57643219Y-79859310D01*
X57643220Y-79859311D01*
X57692750Y-79951975D01*
X57720074Y-79985269D01*
X57742707Y-80012848D01*
X57742710Y-80012851D01*
X57759406Y-80033195D01*
X57779750Y-80049891D01*
X82455386Y-104725528D01*
X82403763Y-104753121D01*
X82353484Y-104794384D01*
X82312221Y-104844663D01*
X82281560Y-104902027D01*
X82262678Y-104964270D01*
X82256303Y-105029000D01*
X82256303Y-106222800D01*
X82262678Y-106287530D01*
X82281560Y-106349773D01*
X82312221Y-106407137D01*
X82353484Y-106457416D01*
X82403763Y-106498679D01*
X82461127Y-106529340D01*
X82523370Y-106548222D01*
X82588100Y-106554597D01*
X83781900Y-106554597D01*
X83846630Y-106548222D01*
X83908873Y-106529340D01*
X83966237Y-106498679D01*
X84016516Y-106457416D01*
X84057779Y-106407137D01*
X84088440Y-106349773D01*
X84107322Y-106287530D01*
X84113697Y-106222800D01*
X84113697Y-105029000D01*
X84107322Y-104964270D01*
X84088440Y-104902027D01*
X84057779Y-104844663D01*
X84016516Y-104794384D01*
X83966237Y-104753121D01*
X83908873Y-104722460D01*
X83846630Y-104703578D01*
X83781900Y-104697203D01*
X83720625Y-104697203D01*
X83718400Y-104674612D01*
X83718400Y-104674605D01*
X83710681Y-104596235D01*
X83680181Y-104495689D01*
X83630651Y-104403025D01*
X83593698Y-104357998D01*
X83580693Y-104342151D01*
X83580691Y-104342149D01*
X83563995Y-104321805D01*
X83543651Y-104305109D01*
X82821339Y-103582797D01*
X83781900Y-103582797D01*
X83846630Y-103576422D01*
X83883524Y-103565230D01*
X84007742Y-103648230D01*
X84148728Y-103706628D01*
X84298399Y-103736400D01*
X84451001Y-103736400D01*
X84591001Y-103708552D01*
X84591001Y-107304019D01*
X84461201Y-107278200D01*
X84388700Y-107278200D01*
X84315211Y-107238919D01*
X84214665Y-107208419D01*
X84136295Y-107200700D01*
X84136294Y-107200700D01*
X84113697Y-107198474D01*
X84113697Y-107137200D01*
X84107322Y-107072470D01*
X84088440Y-107010227D01*
X84057779Y-106952863D01*
X84016516Y-106902584D01*
X83966237Y-106861321D01*
X83908873Y-106830660D01*
X83846630Y-106811778D01*
X83781900Y-106805403D01*
X82588100Y-106805403D01*
X82523370Y-106811778D01*
X82461127Y-106830660D01*
X82403763Y-106861321D01*
X82353484Y-106902584D01*
X82312221Y-106952863D01*
X82281560Y-107010227D01*
X82262678Y-107072470D01*
X82256303Y-107137200D01*
X82256303Y-108097761D01*
X53502483Y-79343942D01*
X53644110Y-79249309D01*
X53849309Y-79044110D01*
X54010533Y-78802822D01*
X54121586Y-78534717D01*
X54178200Y-78250098D01*
X54178200Y-77959902D01*
X54121586Y-77675283D01*
X54010533Y-77407178D01*
X53849309Y-77165890D01*
X53682908Y-76999489D01*
X53762755Y-76802360D01*
X52705000Y-75744605D01*
X51647245Y-76802360D01*
X51727092Y-76999489D01*
X51560691Y-77165890D01*
X51399467Y-77407178D01*
X51288414Y-77675283D01*
X51269900Y-77768360D01*
X51269900Y-76542660D01*
X51467640Y-76622755D01*
X52525395Y-75565000D01*
X52884605Y-75565000D01*
X53942360Y-76622755D01*
X54221384Y-76509736D01*
X54376556Y-76195751D01*
X54467491Y-75857527D01*
X54490694Y-75508062D01*
X54445275Y-75160784D01*
X54332977Y-74829040D01*
X54221384Y-74620264D01*
X53942360Y-74507245D01*
X52884605Y-75565000D01*
X52525395Y-75565000D01*
X51467640Y-74507245D01*
X51269900Y-74587340D01*
X51269900Y-74327640D01*
X51647245Y-74327640D01*
X52705000Y-75385395D01*
X53762755Y-74327640D01*
X53649736Y-74048616D01*
X53335751Y-73893444D01*
X52997527Y-73802509D01*
X52648062Y-73779306D01*
X52300784Y-73824725D01*
X51969040Y-73937023D01*
X51760264Y-74048616D01*
X51647245Y-74327640D01*
X51269900Y-74327640D01*
X51269900Y-70821640D01*
X51288414Y-70914717D01*
%TA.AperFunction,Conductor*%
D27*
G36*
X51288414Y-70914717D02*
G01*
X51399467Y-71182822D01*
X51560691Y-71424110D01*
X51765890Y-71629309D01*
X52007178Y-71790533D01*
X52275283Y-71901586D01*
X52559902Y-71958200D01*
X52850098Y-71958200D01*
X53134717Y-71901586D01*
X53299139Y-71833480D01*
X57605000Y-76139342D01*
X57605001Y-79628003D01*
X57602421Y-79654200D01*
X57612719Y-79758764D01*
X57643219Y-79859310D01*
X57643220Y-79859311D01*
X57692750Y-79951975D01*
X57720074Y-79985269D01*
X57742707Y-80012848D01*
X57742710Y-80012851D01*
X57759406Y-80033195D01*
X57779750Y-80049891D01*
X82455386Y-104725528D01*
X82403763Y-104753121D01*
X82353484Y-104794384D01*
X82312221Y-104844663D01*
X82281560Y-104902027D01*
X82262678Y-104964270D01*
X82256303Y-105029000D01*
X82256303Y-106222800D01*
X82262678Y-106287530D01*
X82281560Y-106349773D01*
X82312221Y-106407137D01*
X82353484Y-106457416D01*
X82403763Y-106498679D01*
X82461127Y-106529340D01*
X82523370Y-106548222D01*
X82588100Y-106554597D01*
X83781900Y-106554597D01*
X83846630Y-106548222D01*
X83908873Y-106529340D01*
X83966237Y-106498679D01*
X84016516Y-106457416D01*
X84057779Y-106407137D01*
X84088440Y-106349773D01*
X84107322Y-106287530D01*
X84113697Y-106222800D01*
X84113697Y-105029000D01*
X84107322Y-104964270D01*
X84088440Y-104902027D01*
X84057779Y-104844663D01*
X84016516Y-104794384D01*
X83966237Y-104753121D01*
X83908873Y-104722460D01*
X83846630Y-104703578D01*
X83781900Y-104697203D01*
X83720625Y-104697203D01*
X83718400Y-104674612D01*
X83718400Y-104674605D01*
X83710681Y-104596235D01*
X83680181Y-104495689D01*
X83630651Y-104403025D01*
X83593698Y-104357998D01*
X83580693Y-104342151D01*
X83580691Y-104342149D01*
X83563995Y-104321805D01*
X83543651Y-104305109D01*
X82821339Y-103582797D01*
X83781900Y-103582797D01*
X83846630Y-103576422D01*
X83883524Y-103565230D01*
X84007742Y-103648230D01*
X84148728Y-103706628D01*
X84298399Y-103736400D01*
X84451001Y-103736400D01*
X84591001Y-103708552D01*
X84591001Y-107304019D01*
X84461201Y-107278200D01*
X84388700Y-107278200D01*
X84315211Y-107238919D01*
X84214665Y-107208419D01*
X84136295Y-107200700D01*
X84136294Y-107200700D01*
X84113697Y-107198474D01*
X84113697Y-107137200D01*
X84107322Y-107072470D01*
X84088440Y-107010227D01*
X84057779Y-106952863D01*
X84016516Y-106902584D01*
X83966237Y-106861321D01*
X83908873Y-106830660D01*
X83846630Y-106811778D01*
X83781900Y-106805403D01*
X82588100Y-106805403D01*
X82523370Y-106811778D01*
X82461127Y-106830660D01*
X82403763Y-106861321D01*
X82353484Y-106902584D01*
X82312221Y-106952863D01*
X82281560Y-107010227D01*
X82262678Y-107072470D01*
X82256303Y-107137200D01*
X82256303Y-108097761D01*
X53502483Y-79343942D01*
X53644110Y-79249309D01*
X53849309Y-79044110D01*
X54010533Y-78802822D01*
X54121586Y-78534717D01*
X54178200Y-78250098D01*
X54178200Y-77959902D01*
X54121586Y-77675283D01*
X54010533Y-77407178D01*
X53849309Y-77165890D01*
X53682908Y-76999489D01*
X53762755Y-76802360D01*
X52705000Y-75744605D01*
X51647245Y-76802360D01*
X51727092Y-76999489D01*
X51560691Y-77165890D01*
X51399467Y-77407178D01*
X51288414Y-77675283D01*
X51269900Y-77768360D01*
X51269900Y-76542660D01*
X51467640Y-76622755D01*
X52525395Y-75565000D01*
X52884605Y-75565000D01*
X53942360Y-76622755D01*
X54221384Y-76509736D01*
X54376556Y-76195751D01*
X54467491Y-75857527D01*
X54490694Y-75508062D01*
X54445275Y-75160784D01*
X54332977Y-74829040D01*
X54221384Y-74620264D01*
X53942360Y-74507245D01*
X52884605Y-75565000D01*
X52525395Y-75565000D01*
X51467640Y-74507245D01*
X51269900Y-74587340D01*
X51269900Y-74327640D01*
X51647245Y-74327640D01*
X52705000Y-75385395D01*
X53762755Y-74327640D01*
X53649736Y-74048616D01*
X53335751Y-73893444D01*
X52997527Y-73802509D01*
X52648062Y-73779306D01*
X52300784Y-73824725D01*
X51969040Y-73937023D01*
X51760264Y-74048616D01*
X51647245Y-74327640D01*
X51269900Y-74327640D01*
X51269900Y-70821640D01*
X51288414Y-70914717D01*
G37*
%TD.AperFunction*%
%TD*%
M02*
