%TF.GenerationSoftware,KiCad,Pcbnew,5.1.6-c6e7f7d~87~ubuntu20.04.1*%
%TF.CreationDate,2020-08-03T15:13:37-04:00*%
%TF.ProjectId,y_arena_valve_controller,795f6172-656e-4615-9f76-616c76655f63,1.2*%
%TF.SameCoordinates,Original*%
%TF.FileFunction,Legend,Bot*%
%TF.FilePolarity,Positive*%
%FSLAX46Y46*%
G04 Gerber Fmt 4.6, Leading zero omitted, Abs format (unit mm)*
G04 Created by KiCad (PCBNEW 5.1.6-c6e7f7d~87~ubuntu20.04.1) date 2020-08-03 15:13:37*
%MOMM*%
%LPD*%
G01*
G04 APERTURE LIST*
%ADD10C,0.254000*%
%ADD11C,0.279400*%
%ADD12C,0.381000*%
%ADD13C,0.177800*%
%ADD14C,0.228600*%
%ADD15C,0.127000*%
%ADD16C,2.386000*%
%ADD17O,2.640000X2.284400*%
%ADD18R,2.640000X2.284400*%
%ADD19C,3.100000*%
%ADD20R,1.649400X0.699440*%
%ADD21R,0.800000X0.700000*%
%ADD22R,0.700000X0.800000*%
%ADD23C,3.656000*%
G04 APERTURE END LIST*
D10*
X110060619Y-58643761D02*
X111076619Y-58982428D01*
X110060619Y-59321095D01*
X110786333Y-59611380D02*
X110786333Y-60095190D01*
X111076619Y-59514619D02*
X110060619Y-59853285D01*
X111076619Y-60191952D01*
X111076619Y-61014428D02*
X111076619Y-60530619D01*
X110060619Y-60530619D01*
X110060619Y-61207952D02*
X111076619Y-61546619D01*
X110060619Y-61885285D01*
X110544428Y-62223952D02*
X110544428Y-62562619D01*
X111076619Y-62707761D02*
X111076619Y-62223952D01*
X110060619Y-62223952D01*
X110060619Y-62707761D01*
X110157380Y-63868904D02*
X110109000Y-63917285D01*
X110060619Y-64014047D01*
X110060619Y-64255952D01*
X110109000Y-64352714D01*
X110157380Y-64401095D01*
X110254142Y-64449476D01*
X110350904Y-64449476D01*
X110496047Y-64401095D01*
X111076619Y-63820523D01*
X111076619Y-64449476D01*
X82120619Y-58643761D02*
X83136619Y-58982428D01*
X82120619Y-59321095D01*
X82846333Y-59611380D02*
X82846333Y-60095190D01*
X83136619Y-59514619D02*
X82120619Y-59853285D01*
X83136619Y-60191952D01*
X83136619Y-61014428D02*
X83136619Y-60530619D01*
X82120619Y-60530619D01*
X82120619Y-61207952D02*
X83136619Y-61546619D01*
X82120619Y-61885285D01*
X82604428Y-62223952D02*
X82604428Y-62562619D01*
X83136619Y-62707761D02*
X83136619Y-62223952D01*
X82120619Y-62223952D01*
X82120619Y-62707761D01*
X82217380Y-63868904D02*
X82169000Y-63917285D01*
X82120619Y-64014047D01*
X82120619Y-64255952D01*
X82169000Y-64352714D01*
X82217380Y-64401095D01*
X82314142Y-64449476D01*
X82410904Y-64449476D01*
X82556047Y-64401095D01*
X83136619Y-63820523D01*
X83136619Y-64449476D01*
X54180619Y-58643761D02*
X55196619Y-58982428D01*
X54180619Y-59321095D01*
X54906333Y-59611380D02*
X54906333Y-60095190D01*
X55196619Y-59514619D02*
X54180619Y-59853285D01*
X55196619Y-60191952D01*
X55196619Y-61014428D02*
X55196619Y-60530619D01*
X54180619Y-60530619D01*
X54180619Y-61207952D02*
X55196619Y-61546619D01*
X54180619Y-61885285D01*
X54664428Y-62223952D02*
X54664428Y-62562619D01*
X55196619Y-62707761D02*
X55196619Y-62223952D01*
X54180619Y-62223952D01*
X54180619Y-62707761D01*
X54277380Y-63868904D02*
X54229000Y-63917285D01*
X54180619Y-64014047D01*
X54180619Y-64255952D01*
X54229000Y-64352714D01*
X54277380Y-64401095D01*
X54374142Y-64449476D01*
X54470904Y-64449476D01*
X54616047Y-64401095D01*
X55196619Y-63820523D01*
X55196619Y-64449476D01*
X110060619Y-66263761D02*
X111076619Y-66602428D01*
X110060619Y-66941095D01*
X110786333Y-67231380D02*
X110786333Y-67715190D01*
X111076619Y-67134619D02*
X110060619Y-67473285D01*
X111076619Y-67811952D01*
X111076619Y-68634428D02*
X111076619Y-68150619D01*
X110060619Y-68150619D01*
X110060619Y-68827952D02*
X111076619Y-69166619D01*
X110060619Y-69505285D01*
X110544428Y-69843952D02*
X110544428Y-70182619D01*
X111076619Y-70327761D02*
X111076619Y-69843952D01*
X110060619Y-69843952D01*
X110060619Y-70327761D01*
X111076619Y-72069476D02*
X111076619Y-71488904D01*
X111076619Y-71779190D02*
X110060619Y-71779190D01*
X110205761Y-71682428D01*
X110302523Y-71585666D01*
X110350904Y-71488904D01*
X82120619Y-66263761D02*
X83136619Y-66602428D01*
X82120619Y-66941095D01*
X82846333Y-67231380D02*
X82846333Y-67715190D01*
X83136619Y-67134619D02*
X82120619Y-67473285D01*
X83136619Y-67811952D01*
X83136619Y-68634428D02*
X83136619Y-68150619D01*
X82120619Y-68150619D01*
X82120619Y-68827952D02*
X83136619Y-69166619D01*
X82120619Y-69505285D01*
X82604428Y-69843952D02*
X82604428Y-70182619D01*
X83136619Y-70327761D02*
X83136619Y-69843952D01*
X82120619Y-69843952D01*
X82120619Y-70327761D01*
X83136619Y-72069476D02*
X83136619Y-71488904D01*
X83136619Y-71779190D02*
X82120619Y-71779190D01*
X82265761Y-71682428D01*
X82362523Y-71585666D01*
X82410904Y-71488904D01*
X54180619Y-66263761D02*
X55196619Y-66602428D01*
X54180619Y-66941095D01*
X54906333Y-67231380D02*
X54906333Y-67715190D01*
X55196619Y-67134619D02*
X54180619Y-67473285D01*
X55196619Y-67811952D01*
X55196619Y-68634428D02*
X55196619Y-68150619D01*
X54180619Y-68150619D01*
X54180619Y-68827952D02*
X55196619Y-69166619D01*
X54180619Y-69505285D01*
X54664428Y-69843952D02*
X54664428Y-70182619D01*
X55196619Y-70327761D02*
X55196619Y-69843952D01*
X54180619Y-69843952D01*
X54180619Y-70327761D01*
X55196619Y-72069476D02*
X55196619Y-71488904D01*
X55196619Y-71779190D02*
X54180619Y-71779190D01*
X54325761Y-71682428D01*
X54422523Y-71585666D01*
X54470904Y-71488904D01*
X110060619Y-73883761D02*
X111076619Y-74222428D01*
X110060619Y-74561095D01*
X110786333Y-74851380D02*
X110786333Y-75335190D01*
X111076619Y-74754619D02*
X110060619Y-75093285D01*
X111076619Y-75431952D01*
X111076619Y-76254428D02*
X111076619Y-75770619D01*
X110060619Y-75770619D01*
X110060619Y-76447952D02*
X111076619Y-76786619D01*
X110060619Y-77125285D01*
X110544428Y-77463952D02*
X110544428Y-77802619D01*
X111076619Y-77947761D02*
X111076619Y-77463952D01*
X110060619Y-77463952D01*
X110060619Y-77947761D01*
X110060619Y-79350809D02*
X110060619Y-79447571D01*
X110109000Y-79544333D01*
X110157380Y-79592714D01*
X110254142Y-79641095D01*
X110447666Y-79689476D01*
X110689571Y-79689476D01*
X110883095Y-79641095D01*
X110979857Y-79592714D01*
X111028238Y-79544333D01*
X111076619Y-79447571D01*
X111076619Y-79350809D01*
X111028238Y-79254047D01*
X110979857Y-79205666D01*
X110883095Y-79157285D01*
X110689571Y-79108904D01*
X110447666Y-79108904D01*
X110254142Y-79157285D01*
X110157380Y-79205666D01*
X110109000Y-79254047D01*
X110060619Y-79350809D01*
X82120619Y-73883761D02*
X83136619Y-74222428D01*
X82120619Y-74561095D01*
X82846333Y-74851380D02*
X82846333Y-75335190D01*
X83136619Y-74754619D02*
X82120619Y-75093285D01*
X83136619Y-75431952D01*
X83136619Y-76254428D02*
X83136619Y-75770619D01*
X82120619Y-75770619D01*
X82120619Y-76447952D02*
X83136619Y-76786619D01*
X82120619Y-77125285D01*
X82604428Y-77463952D02*
X82604428Y-77802619D01*
X83136619Y-77947761D02*
X83136619Y-77463952D01*
X82120619Y-77463952D01*
X82120619Y-77947761D01*
X82120619Y-79350809D02*
X82120619Y-79447571D01*
X82169000Y-79544333D01*
X82217380Y-79592714D01*
X82314142Y-79641095D01*
X82507666Y-79689476D01*
X82749571Y-79689476D01*
X82943095Y-79641095D01*
X83039857Y-79592714D01*
X83088238Y-79544333D01*
X83136619Y-79447571D01*
X83136619Y-79350809D01*
X83088238Y-79254047D01*
X83039857Y-79205666D01*
X82943095Y-79157285D01*
X82749571Y-79108904D01*
X82507666Y-79108904D01*
X82314142Y-79157285D01*
X82217380Y-79205666D01*
X82169000Y-79254047D01*
X82120619Y-79350809D01*
X54180619Y-73883761D02*
X55196619Y-74222428D01*
X54180619Y-74561095D01*
X54906333Y-74851380D02*
X54906333Y-75335190D01*
X55196619Y-74754619D02*
X54180619Y-75093285D01*
X55196619Y-75431952D01*
X55196619Y-76254428D02*
X55196619Y-75770619D01*
X54180619Y-75770619D01*
X54180619Y-76447952D02*
X55196619Y-76786619D01*
X54180619Y-77125285D01*
X54664428Y-77463952D02*
X54664428Y-77802619D01*
X55196619Y-77947761D02*
X55196619Y-77463952D01*
X54180619Y-77463952D01*
X54180619Y-77947761D01*
X54180619Y-79350809D02*
X54180619Y-79447571D01*
X54229000Y-79544333D01*
X54277380Y-79592714D01*
X54374142Y-79641095D01*
X54567666Y-79689476D01*
X54809571Y-79689476D01*
X55003095Y-79641095D01*
X55099857Y-79592714D01*
X55148238Y-79544333D01*
X55196619Y-79447571D01*
X55196619Y-79350809D01*
X55148238Y-79254047D01*
X55099857Y-79205666D01*
X55003095Y-79157285D01*
X54809571Y-79108904D01*
X54567666Y-79108904D01*
X54374142Y-79157285D01*
X54277380Y-79205666D01*
X54229000Y-79254047D01*
X54180619Y-79350809D01*
X113326333Y-82719333D02*
X112842523Y-82719333D01*
X113423095Y-83009619D02*
X113084428Y-81993619D01*
X112745761Y-83009619D01*
X111826523Y-83009619D02*
X112165190Y-82525809D01*
X112407095Y-83009619D02*
X112407095Y-81993619D01*
X112020047Y-81993619D01*
X111923285Y-82042000D01*
X111874904Y-82090380D01*
X111826523Y-82187142D01*
X111826523Y-82332285D01*
X111874904Y-82429047D01*
X111923285Y-82477428D01*
X112020047Y-82525809D01*
X112407095Y-82525809D01*
X111391095Y-83009619D02*
X111391095Y-81993619D01*
X111052428Y-82719333D01*
X110713761Y-81993619D01*
X110713761Y-83009619D01*
X109504238Y-82090380D02*
X109455857Y-82042000D01*
X109359095Y-81993619D01*
X109117190Y-81993619D01*
X109020428Y-82042000D01*
X108972047Y-82090380D01*
X108923666Y-82187142D01*
X108923666Y-82283904D01*
X108972047Y-82429047D01*
X109552619Y-83009619D01*
X108923666Y-83009619D01*
X84751333Y-82719333D02*
X84267523Y-82719333D01*
X84848095Y-83009619D02*
X84509428Y-81993619D01*
X84170761Y-83009619D01*
X83251523Y-83009619D02*
X83590190Y-82525809D01*
X83832095Y-83009619D02*
X83832095Y-81993619D01*
X83445047Y-81993619D01*
X83348285Y-82042000D01*
X83299904Y-82090380D01*
X83251523Y-82187142D01*
X83251523Y-82332285D01*
X83299904Y-82429047D01*
X83348285Y-82477428D01*
X83445047Y-82525809D01*
X83832095Y-82525809D01*
X82816095Y-83009619D02*
X82816095Y-81993619D01*
X82477428Y-82719333D01*
X82138761Y-81993619D01*
X82138761Y-83009619D01*
X80348666Y-83009619D02*
X80929238Y-83009619D01*
X80638952Y-83009619D02*
X80638952Y-81993619D01*
X80735714Y-82138761D01*
X80832476Y-82235523D01*
X80929238Y-82283904D01*
X56811333Y-82719333D02*
X56327523Y-82719333D01*
X56908095Y-83009619D02*
X56569428Y-81993619D01*
X56230761Y-83009619D01*
X55311523Y-83009619D02*
X55650190Y-82525809D01*
X55892095Y-83009619D02*
X55892095Y-81993619D01*
X55505047Y-81993619D01*
X55408285Y-82042000D01*
X55359904Y-82090380D01*
X55311523Y-82187142D01*
X55311523Y-82332285D01*
X55359904Y-82429047D01*
X55408285Y-82477428D01*
X55505047Y-82525809D01*
X55892095Y-82525809D01*
X54876095Y-83009619D02*
X54876095Y-81993619D01*
X54537428Y-82719333D01*
X54198761Y-81993619D01*
X54198761Y-83009619D01*
X52747333Y-81993619D02*
X52650571Y-81993619D01*
X52553809Y-82042000D01*
X52505428Y-82090380D01*
X52457047Y-82187142D01*
X52408666Y-82380666D01*
X52408666Y-82622571D01*
X52457047Y-82816095D01*
X52505428Y-82912857D01*
X52553809Y-82961238D01*
X52650571Y-83009619D01*
X52747333Y-83009619D01*
X52844095Y-82961238D01*
X52892476Y-82912857D01*
X52940857Y-82816095D01*
X52989238Y-82622571D01*
X52989238Y-82380666D01*
X52940857Y-82187142D01*
X52892476Y-82090380D01*
X52844095Y-82042000D01*
X52747333Y-81993619D01*
D11*
%TO.C,S1*%
X58470800Y-76835000D02*
G75*
G03*
X58470800Y-76835000I-3733800J0D01*
G01*
%TO.C,S2*%
X58470800Y-69215000D02*
G75*
G03*
X58470800Y-69215000I-3733800J0D01*
G01*
%TO.C,S3*%
X58470800Y-61595000D02*
G75*
G03*
X58470800Y-61595000I-3733800J0D01*
G01*
%TO.C,S4*%
X86410800Y-76835000D02*
G75*
G03*
X86410800Y-76835000I-3733800J0D01*
G01*
%TO.C,S5*%
X86410800Y-69215000D02*
G75*
G03*
X86410800Y-69215000I-3733800J0D01*
G01*
%TO.C,S6*%
X86410800Y-61595000D02*
G75*
G03*
X86410800Y-61595000I-3733800J0D01*
G01*
%TO.C,S7*%
X114350800Y-76835000D02*
G75*
G03*
X114350800Y-76835000I-3733800J0D01*
G01*
%TO.C,S8*%
X114350800Y-69215000D02*
G75*
G03*
X114350800Y-69215000I-3733800J0D01*
G01*
%TO.C,S9*%
X114350800Y-61595000D02*
G75*
G03*
X114350800Y-61595000I-3733800J0D01*
G01*
D12*
%TO.C,U1*%
X60325000Y-80645000D02*
X64135000Y-80645000D01*
X60325000Y-75565000D02*
X64135000Y-75565000D01*
X63500000Y-76454000D02*
G75*
G03*
X63500000Y-76454000I-381000J0D01*
G01*
%TO.C,U2*%
X60325000Y-73025000D02*
X64135000Y-73025000D01*
X60325000Y-67945000D02*
X64135000Y-67945000D01*
X63500000Y-68834000D02*
G75*
G03*
X63500000Y-68834000I-381000J0D01*
G01*
%TO.C,U3*%
X60325000Y-65405000D02*
X64135000Y-65405000D01*
X60325000Y-60325000D02*
X64135000Y-60325000D01*
X63500000Y-61214000D02*
G75*
G03*
X63500000Y-61214000I-381000J0D01*
G01*
%TO.C,U4*%
X88265000Y-80645000D02*
X92075000Y-80645000D01*
X88265000Y-75565000D02*
X92075000Y-75565000D01*
X91440000Y-76454000D02*
G75*
G03*
X91440000Y-76454000I-381000J0D01*
G01*
%TO.C,U5*%
X88265000Y-73025000D02*
X92075000Y-73025000D01*
X88265000Y-67945000D02*
X92075000Y-67945000D01*
X91440000Y-68834000D02*
G75*
G03*
X91440000Y-68834000I-381000J0D01*
G01*
%TO.C,U6*%
X88265000Y-65405000D02*
X92075000Y-65405000D01*
X88265000Y-60325000D02*
X92075000Y-60325000D01*
X91440000Y-61214000D02*
G75*
G03*
X91440000Y-61214000I-381000J0D01*
G01*
%TO.C,U7*%
X116205000Y-80645000D02*
X120015000Y-80645000D01*
X116205000Y-75565000D02*
X120015000Y-75565000D01*
X119380000Y-76454000D02*
G75*
G03*
X119380000Y-76454000I-381000J0D01*
G01*
%TO.C,U8*%
X116205000Y-73025000D02*
X120015000Y-73025000D01*
X116205000Y-67945000D02*
X120015000Y-67945000D01*
X119380000Y-68834000D02*
G75*
G03*
X119380000Y-68834000I-381000J0D01*
G01*
%TO.C,U9*%
X116205000Y-65405000D02*
X120015000Y-65405000D01*
X116205000Y-60325000D02*
X120015000Y-60325000D01*
X119380000Y-61214000D02*
G75*
G03*
X119380000Y-61214000I-381000J0D01*
G01*
D13*
%TO.C,D3*%
X81515000Y-113157000D02*
X82315000Y-113157000D01*
X81515000Y-114100000D02*
X81515000Y-113450000D01*
X81515000Y-113450000D02*
X82315000Y-113450000D01*
X82315000Y-113450000D02*
X82315000Y-114100000D01*
X81515000Y-114500000D02*
X81515000Y-115150000D01*
X81515000Y-115150000D02*
X82315000Y-115150000D01*
X82315000Y-115150000D02*
X82315000Y-114500000D01*
%TO.C,D4*%
X56115000Y-75692000D02*
X56915000Y-75692000D01*
X56115000Y-76635000D02*
X56115000Y-75985000D01*
X56115000Y-75985000D02*
X56915000Y-75985000D01*
X56915000Y-75985000D02*
X56915000Y-76635000D01*
X56115000Y-77035000D02*
X56115000Y-77685000D01*
X56115000Y-77685000D02*
X56915000Y-77685000D01*
X56915000Y-77685000D02*
X56915000Y-77035000D01*
%TO.C,D5*%
X81515000Y-108077000D02*
X82315000Y-108077000D01*
X81515000Y-109020000D02*
X81515000Y-108370000D01*
X81515000Y-108370000D02*
X82315000Y-108370000D01*
X82315000Y-108370000D02*
X82315000Y-109020000D01*
X81515000Y-109420000D02*
X81515000Y-110070000D01*
X81515000Y-110070000D02*
X82315000Y-110070000D01*
X82315000Y-110070000D02*
X82315000Y-109420000D01*
%TO.C,D6*%
X56115000Y-68072000D02*
X56915000Y-68072000D01*
X56115000Y-69015000D02*
X56115000Y-68365000D01*
X56115000Y-68365000D02*
X56915000Y-68365000D01*
X56915000Y-68365000D02*
X56915000Y-69015000D01*
X56115000Y-69415000D02*
X56115000Y-70065000D01*
X56115000Y-70065000D02*
X56915000Y-70065000D01*
X56915000Y-70065000D02*
X56915000Y-69415000D01*
%TO.C,D7*%
X81515000Y-102997000D02*
X82315000Y-102997000D01*
X81515000Y-103940000D02*
X81515000Y-103290000D01*
X81515000Y-103290000D02*
X82315000Y-103290000D01*
X82315000Y-103290000D02*
X82315000Y-103940000D01*
X81515000Y-104340000D02*
X81515000Y-104990000D01*
X81515000Y-104990000D02*
X82315000Y-104990000D01*
X82315000Y-104990000D02*
X82315000Y-104340000D01*
%TO.C,D8*%
X56115000Y-60452000D02*
X56915000Y-60452000D01*
X56115000Y-61395000D02*
X56115000Y-60745000D01*
X56115000Y-60745000D02*
X56915000Y-60745000D01*
X56915000Y-60745000D02*
X56915000Y-61395000D01*
X56115000Y-61795000D02*
X56115000Y-62445000D01*
X56115000Y-62445000D02*
X56915000Y-62445000D01*
X56915000Y-62445000D02*
X56915000Y-61795000D01*
%TO.C,D9*%
X86595000Y-113157000D02*
X87395000Y-113157000D01*
X86595000Y-114100000D02*
X86595000Y-113450000D01*
X86595000Y-113450000D02*
X87395000Y-113450000D01*
X87395000Y-113450000D02*
X87395000Y-114100000D01*
X86595000Y-114500000D02*
X86595000Y-115150000D01*
X86595000Y-115150000D02*
X87395000Y-115150000D01*
X87395000Y-115150000D02*
X87395000Y-114500000D01*
%TO.C,D10*%
X84055000Y-75692000D02*
X84855000Y-75692000D01*
X84055000Y-76635000D02*
X84055000Y-75985000D01*
X84055000Y-75985000D02*
X84855000Y-75985000D01*
X84855000Y-75985000D02*
X84855000Y-76635000D01*
X84055000Y-77035000D02*
X84055000Y-77685000D01*
X84055000Y-77685000D02*
X84855000Y-77685000D01*
X84855000Y-77685000D02*
X84855000Y-77035000D01*
%TO.C,D11*%
X86595000Y-108077000D02*
X87395000Y-108077000D01*
X86595000Y-109020000D02*
X86595000Y-108370000D01*
X86595000Y-108370000D02*
X87395000Y-108370000D01*
X87395000Y-108370000D02*
X87395000Y-109020000D01*
X86595000Y-109420000D02*
X86595000Y-110070000D01*
X86595000Y-110070000D02*
X87395000Y-110070000D01*
X87395000Y-110070000D02*
X87395000Y-109420000D01*
%TO.C,D12*%
X84055000Y-68072000D02*
X84855000Y-68072000D01*
X84055000Y-69015000D02*
X84055000Y-68365000D01*
X84055000Y-68365000D02*
X84855000Y-68365000D01*
X84855000Y-68365000D02*
X84855000Y-69015000D01*
X84055000Y-69415000D02*
X84055000Y-70065000D01*
X84055000Y-70065000D02*
X84855000Y-70065000D01*
X84855000Y-70065000D02*
X84855000Y-69415000D01*
%TO.C,D13*%
X86595000Y-102997000D02*
X87395000Y-102997000D01*
X86595000Y-103940000D02*
X86595000Y-103290000D01*
X86595000Y-103290000D02*
X87395000Y-103290000D01*
X87395000Y-103290000D02*
X87395000Y-103940000D01*
X86595000Y-104340000D02*
X86595000Y-104990000D01*
X86595000Y-104990000D02*
X87395000Y-104990000D01*
X87395000Y-104990000D02*
X87395000Y-104340000D01*
%TO.C,D14*%
X84055000Y-60452000D02*
X84855000Y-60452000D01*
X84055000Y-61395000D02*
X84055000Y-60745000D01*
X84055000Y-60745000D02*
X84855000Y-60745000D01*
X84855000Y-60745000D02*
X84855000Y-61395000D01*
X84055000Y-61795000D02*
X84055000Y-62445000D01*
X84055000Y-62445000D02*
X84855000Y-62445000D01*
X84855000Y-62445000D02*
X84855000Y-61795000D01*
%TO.C,D15*%
X91675000Y-113157000D02*
X92475000Y-113157000D01*
X91675000Y-114100000D02*
X91675000Y-113450000D01*
X91675000Y-113450000D02*
X92475000Y-113450000D01*
X92475000Y-113450000D02*
X92475000Y-114100000D01*
X91675000Y-114500000D02*
X91675000Y-115150000D01*
X91675000Y-115150000D02*
X92475000Y-115150000D01*
X92475000Y-115150000D02*
X92475000Y-114500000D01*
%TO.C,D16*%
X111995000Y-75692000D02*
X112795000Y-75692000D01*
X111995000Y-76635000D02*
X111995000Y-75985000D01*
X111995000Y-75985000D02*
X112795000Y-75985000D01*
X112795000Y-75985000D02*
X112795000Y-76635000D01*
X111995000Y-77035000D02*
X111995000Y-77685000D01*
X111995000Y-77685000D02*
X112795000Y-77685000D01*
X112795000Y-77685000D02*
X112795000Y-77035000D01*
%TO.C,D17*%
X91675000Y-108077000D02*
X92475000Y-108077000D01*
X91675000Y-109020000D02*
X91675000Y-108370000D01*
X91675000Y-108370000D02*
X92475000Y-108370000D01*
X92475000Y-108370000D02*
X92475000Y-109020000D01*
X91675000Y-109420000D02*
X91675000Y-110070000D01*
X91675000Y-110070000D02*
X92475000Y-110070000D01*
X92475000Y-110070000D02*
X92475000Y-109420000D01*
%TO.C,D18*%
X111995000Y-68072000D02*
X112795000Y-68072000D01*
X111995000Y-69015000D02*
X111995000Y-68365000D01*
X111995000Y-68365000D02*
X112795000Y-68365000D01*
X112795000Y-68365000D02*
X112795000Y-69015000D01*
X111995000Y-69415000D02*
X111995000Y-70065000D01*
X111995000Y-70065000D02*
X112795000Y-70065000D01*
X112795000Y-70065000D02*
X112795000Y-69415000D01*
%TO.C,D19*%
X91675000Y-102997000D02*
X92475000Y-102997000D01*
X91675000Y-103940000D02*
X91675000Y-103290000D01*
X91675000Y-103290000D02*
X92475000Y-103290000D01*
X92475000Y-103290000D02*
X92475000Y-103940000D01*
X91675000Y-104340000D02*
X91675000Y-104990000D01*
X91675000Y-104990000D02*
X92475000Y-104990000D01*
X92475000Y-104990000D02*
X92475000Y-104340000D01*
%TO.C,D20*%
X111995000Y-60452000D02*
X112795000Y-60452000D01*
X111995000Y-61395000D02*
X111995000Y-60745000D01*
X111995000Y-60745000D02*
X112795000Y-60745000D01*
X112795000Y-60745000D02*
X112795000Y-61395000D01*
X111995000Y-61795000D02*
X111995000Y-62445000D01*
X111995000Y-62445000D02*
X112795000Y-62445000D01*
X112795000Y-62445000D02*
X112795000Y-61795000D01*
%TO.C,C2*%
X61087000Y-82315000D02*
X61087000Y-81515000D01*
X62030000Y-82315000D02*
X61380000Y-82315000D01*
X61380000Y-82315000D02*
X61380000Y-81515000D01*
X61380000Y-81515000D02*
X62030000Y-81515000D01*
X62430000Y-82315000D02*
X63080000Y-82315000D01*
X63080000Y-82315000D02*
X63080000Y-81515000D01*
X63080000Y-81515000D02*
X62430000Y-81515000D01*
%TO.C,C4*%
X61087000Y-74695000D02*
X61087000Y-73895000D01*
X62030000Y-74695000D02*
X61380000Y-74695000D01*
X61380000Y-74695000D02*
X61380000Y-73895000D01*
X61380000Y-73895000D02*
X62030000Y-73895000D01*
X62430000Y-74695000D02*
X63080000Y-74695000D01*
X63080000Y-74695000D02*
X63080000Y-73895000D01*
X63080000Y-73895000D02*
X62430000Y-73895000D01*
%TO.C,C6*%
X61087000Y-67075000D02*
X61087000Y-66275000D01*
X62030000Y-67075000D02*
X61380000Y-67075000D01*
X61380000Y-67075000D02*
X61380000Y-66275000D01*
X61380000Y-66275000D02*
X62030000Y-66275000D01*
X62430000Y-67075000D02*
X63080000Y-67075000D01*
X63080000Y-67075000D02*
X63080000Y-66275000D01*
X63080000Y-66275000D02*
X62430000Y-66275000D01*
%TO.C,C8*%
X89027000Y-82315000D02*
X89027000Y-81515000D01*
X89970000Y-82315000D02*
X89320000Y-82315000D01*
X89320000Y-82315000D02*
X89320000Y-81515000D01*
X89320000Y-81515000D02*
X89970000Y-81515000D01*
X90370000Y-82315000D02*
X91020000Y-82315000D01*
X91020000Y-82315000D02*
X91020000Y-81515000D01*
X91020000Y-81515000D02*
X90370000Y-81515000D01*
%TO.C,C10*%
X89027000Y-74695000D02*
X89027000Y-73895000D01*
X89970000Y-74695000D02*
X89320000Y-74695000D01*
X89320000Y-74695000D02*
X89320000Y-73895000D01*
X89320000Y-73895000D02*
X89970000Y-73895000D01*
X90370000Y-74695000D02*
X91020000Y-74695000D01*
X91020000Y-74695000D02*
X91020000Y-73895000D01*
X91020000Y-73895000D02*
X90370000Y-73895000D01*
%TO.C,C12*%
X89027000Y-67075000D02*
X89027000Y-66275000D01*
X89970000Y-67075000D02*
X89320000Y-67075000D01*
X89320000Y-67075000D02*
X89320000Y-66275000D01*
X89320000Y-66275000D02*
X89970000Y-66275000D01*
X90370000Y-67075000D02*
X91020000Y-67075000D01*
X91020000Y-67075000D02*
X91020000Y-66275000D01*
X91020000Y-66275000D02*
X90370000Y-66275000D01*
%TO.C,C14*%
X116967000Y-82315000D02*
X116967000Y-81515000D01*
X117910000Y-82315000D02*
X117260000Y-82315000D01*
X117260000Y-82315000D02*
X117260000Y-81515000D01*
X117260000Y-81515000D02*
X117910000Y-81515000D01*
X118310000Y-82315000D02*
X118960000Y-82315000D01*
X118960000Y-82315000D02*
X118960000Y-81515000D01*
X118960000Y-81515000D02*
X118310000Y-81515000D01*
%TO.C,C16*%
X116967000Y-74695000D02*
X116967000Y-73895000D01*
X117910000Y-74695000D02*
X117260000Y-74695000D01*
X117260000Y-74695000D02*
X117260000Y-73895000D01*
X117260000Y-73895000D02*
X117910000Y-73895000D01*
X118310000Y-74695000D02*
X118960000Y-74695000D01*
X118960000Y-74695000D02*
X118960000Y-73895000D01*
X118960000Y-73895000D02*
X118310000Y-73895000D01*
%TO.C,C18*%
X116967000Y-67075000D02*
X116967000Y-66275000D01*
X117910000Y-67075000D02*
X117260000Y-67075000D01*
X117260000Y-67075000D02*
X117260000Y-66275000D01*
X117260000Y-66275000D02*
X117910000Y-66275000D01*
X118310000Y-67075000D02*
X118960000Y-67075000D01*
X118960000Y-67075000D02*
X118960000Y-66275000D01*
X118960000Y-66275000D02*
X118310000Y-66275000D01*
%TO.C,C3*%
X68795000Y-77705000D02*
X68145000Y-77705000D01*
X68795000Y-78505000D02*
X68795000Y-77705000D01*
X68145000Y-78505000D02*
X68795000Y-78505000D01*
X67095000Y-77705000D02*
X67745000Y-77705000D01*
X67095000Y-78505000D02*
X67095000Y-77705000D01*
X67745000Y-78505000D02*
X67095000Y-78505000D01*
%TO.C,C5*%
X68795000Y-70085000D02*
X68145000Y-70085000D01*
X68795000Y-70885000D02*
X68795000Y-70085000D01*
X68145000Y-70885000D02*
X68795000Y-70885000D01*
X67095000Y-70085000D02*
X67745000Y-70085000D01*
X67095000Y-70885000D02*
X67095000Y-70085000D01*
X67745000Y-70885000D02*
X67095000Y-70885000D01*
%TO.C,C7*%
X68795000Y-62465000D02*
X68145000Y-62465000D01*
X68795000Y-63265000D02*
X68795000Y-62465000D01*
X68145000Y-63265000D02*
X68795000Y-63265000D01*
X67095000Y-62465000D02*
X67745000Y-62465000D01*
X67095000Y-63265000D02*
X67095000Y-62465000D01*
X67745000Y-63265000D02*
X67095000Y-63265000D01*
%TO.C,C9*%
X96735000Y-77705000D02*
X96085000Y-77705000D01*
X96735000Y-78505000D02*
X96735000Y-77705000D01*
X96085000Y-78505000D02*
X96735000Y-78505000D01*
X95035000Y-77705000D02*
X95685000Y-77705000D01*
X95035000Y-78505000D02*
X95035000Y-77705000D01*
X95685000Y-78505000D02*
X95035000Y-78505000D01*
%TO.C,C11*%
X96735000Y-70085000D02*
X96085000Y-70085000D01*
X96735000Y-70885000D02*
X96735000Y-70085000D01*
X96085000Y-70885000D02*
X96735000Y-70885000D01*
X95035000Y-70085000D02*
X95685000Y-70085000D01*
X95035000Y-70885000D02*
X95035000Y-70085000D01*
X95685000Y-70885000D02*
X95035000Y-70885000D01*
%TO.C,C13*%
X96735000Y-62465000D02*
X96085000Y-62465000D01*
X96735000Y-63265000D02*
X96735000Y-62465000D01*
X96085000Y-63265000D02*
X96735000Y-63265000D01*
X95035000Y-62465000D02*
X95685000Y-62465000D01*
X95035000Y-63265000D02*
X95035000Y-62465000D01*
X95685000Y-63265000D02*
X95035000Y-63265000D01*
%TO.C,C15*%
X124675000Y-77705000D02*
X124025000Y-77705000D01*
X124675000Y-78505000D02*
X124675000Y-77705000D01*
X124025000Y-78505000D02*
X124675000Y-78505000D01*
X122975000Y-77705000D02*
X123625000Y-77705000D01*
X122975000Y-78505000D02*
X122975000Y-77705000D01*
X123625000Y-78505000D02*
X122975000Y-78505000D01*
%TO.C,C17*%
X124675000Y-70085000D02*
X124025000Y-70085000D01*
X124675000Y-70885000D02*
X124675000Y-70085000D01*
X124025000Y-70885000D02*
X124675000Y-70885000D01*
X122975000Y-70085000D02*
X123625000Y-70085000D01*
X122975000Y-70885000D02*
X122975000Y-70085000D01*
X123625000Y-70885000D02*
X122975000Y-70885000D01*
%TO.C,C19*%
X124675000Y-62465000D02*
X124025000Y-62465000D01*
X124675000Y-63265000D02*
X124675000Y-62465000D01*
X124025000Y-63265000D02*
X124675000Y-63265000D01*
X122975000Y-62465000D02*
X123625000Y-62465000D01*
X122975000Y-63265000D02*
X122975000Y-62465000D01*
X123625000Y-63265000D02*
X122975000Y-63265000D01*
%TO.C,R3*%
X68795000Y-75165000D02*
X68145000Y-75165000D01*
X68795000Y-75965000D02*
X68795000Y-75165000D01*
X68145000Y-75965000D02*
X68795000Y-75965000D01*
X67095000Y-75165000D02*
X67745000Y-75165000D01*
X67095000Y-75965000D02*
X67095000Y-75165000D01*
X67745000Y-75965000D02*
X67095000Y-75965000D01*
%TO.C,R4*%
X68795000Y-80245000D02*
X68145000Y-80245000D01*
X68795000Y-81045000D02*
X68795000Y-80245000D01*
X68145000Y-81045000D02*
X68795000Y-81045000D01*
X67095000Y-80245000D02*
X67745000Y-80245000D01*
X67095000Y-81045000D02*
X67095000Y-80245000D01*
X67745000Y-81045000D02*
X67095000Y-81045000D01*
%TO.C,R6*%
X68795000Y-67545000D02*
X68145000Y-67545000D01*
X68795000Y-68345000D02*
X68795000Y-67545000D01*
X68145000Y-68345000D02*
X68795000Y-68345000D01*
X67095000Y-67545000D02*
X67745000Y-67545000D01*
X67095000Y-68345000D02*
X67095000Y-67545000D01*
X67745000Y-68345000D02*
X67095000Y-68345000D01*
%TO.C,R7*%
X68795000Y-72625000D02*
X68145000Y-72625000D01*
X68795000Y-73425000D02*
X68795000Y-72625000D01*
X68145000Y-73425000D02*
X68795000Y-73425000D01*
X67095000Y-72625000D02*
X67745000Y-72625000D01*
X67095000Y-73425000D02*
X67095000Y-72625000D01*
X67745000Y-73425000D02*
X67095000Y-73425000D01*
%TO.C,R9*%
X68795000Y-59925000D02*
X68145000Y-59925000D01*
X68795000Y-60725000D02*
X68795000Y-59925000D01*
X68145000Y-60725000D02*
X68795000Y-60725000D01*
X67095000Y-59925000D02*
X67745000Y-59925000D01*
X67095000Y-60725000D02*
X67095000Y-59925000D01*
X67745000Y-60725000D02*
X67095000Y-60725000D01*
%TO.C,R10*%
X68795000Y-65005000D02*
X68145000Y-65005000D01*
X68795000Y-65805000D02*
X68795000Y-65005000D01*
X68145000Y-65805000D02*
X68795000Y-65805000D01*
X67095000Y-65005000D02*
X67745000Y-65005000D01*
X67095000Y-65805000D02*
X67095000Y-65005000D01*
X67745000Y-65805000D02*
X67095000Y-65805000D01*
%TO.C,R12*%
X96735000Y-75165000D02*
X96085000Y-75165000D01*
X96735000Y-75965000D02*
X96735000Y-75165000D01*
X96085000Y-75965000D02*
X96735000Y-75965000D01*
X95035000Y-75165000D02*
X95685000Y-75165000D01*
X95035000Y-75965000D02*
X95035000Y-75165000D01*
X95685000Y-75965000D02*
X95035000Y-75965000D01*
%TO.C,R13*%
X96735000Y-80245000D02*
X96085000Y-80245000D01*
X96735000Y-81045000D02*
X96735000Y-80245000D01*
X96085000Y-81045000D02*
X96735000Y-81045000D01*
X95035000Y-80245000D02*
X95685000Y-80245000D01*
X95035000Y-81045000D02*
X95035000Y-80245000D01*
X95685000Y-81045000D02*
X95035000Y-81045000D01*
%TO.C,R15*%
X96735000Y-67545000D02*
X96085000Y-67545000D01*
X96735000Y-68345000D02*
X96735000Y-67545000D01*
X96085000Y-68345000D02*
X96735000Y-68345000D01*
X95035000Y-67545000D02*
X95685000Y-67545000D01*
X95035000Y-68345000D02*
X95035000Y-67545000D01*
X95685000Y-68345000D02*
X95035000Y-68345000D01*
%TO.C,R16*%
X96735000Y-72625000D02*
X96085000Y-72625000D01*
X96735000Y-73425000D02*
X96735000Y-72625000D01*
X96085000Y-73425000D02*
X96735000Y-73425000D01*
X95035000Y-72625000D02*
X95685000Y-72625000D01*
X95035000Y-73425000D02*
X95035000Y-72625000D01*
X95685000Y-73425000D02*
X95035000Y-73425000D01*
%TO.C,R18*%
X96735000Y-59925000D02*
X96085000Y-59925000D01*
X96735000Y-60725000D02*
X96735000Y-59925000D01*
X96085000Y-60725000D02*
X96735000Y-60725000D01*
X95035000Y-59925000D02*
X95685000Y-59925000D01*
X95035000Y-60725000D02*
X95035000Y-59925000D01*
X95685000Y-60725000D02*
X95035000Y-60725000D01*
%TO.C,R19*%
X96735000Y-65005000D02*
X96085000Y-65005000D01*
X96735000Y-65805000D02*
X96735000Y-65005000D01*
X96085000Y-65805000D02*
X96735000Y-65805000D01*
X95035000Y-65005000D02*
X95685000Y-65005000D01*
X95035000Y-65805000D02*
X95035000Y-65005000D01*
X95685000Y-65805000D02*
X95035000Y-65805000D01*
%TO.C,R21*%
X124675000Y-75165000D02*
X124025000Y-75165000D01*
X124675000Y-75965000D02*
X124675000Y-75165000D01*
X124025000Y-75965000D02*
X124675000Y-75965000D01*
X122975000Y-75165000D02*
X123625000Y-75165000D01*
X122975000Y-75965000D02*
X122975000Y-75165000D01*
X123625000Y-75965000D02*
X122975000Y-75965000D01*
%TO.C,R22*%
X124675000Y-80245000D02*
X124025000Y-80245000D01*
X124675000Y-81045000D02*
X124675000Y-80245000D01*
X124025000Y-81045000D02*
X124675000Y-81045000D01*
X122975000Y-80245000D02*
X123625000Y-80245000D01*
X122975000Y-81045000D02*
X122975000Y-80245000D01*
X123625000Y-81045000D02*
X122975000Y-81045000D01*
%TO.C,R24*%
X124675000Y-67545000D02*
X124025000Y-67545000D01*
X124675000Y-68345000D02*
X124675000Y-67545000D01*
X124025000Y-68345000D02*
X124675000Y-68345000D01*
X122975000Y-67545000D02*
X123625000Y-67545000D01*
X122975000Y-68345000D02*
X122975000Y-67545000D01*
X123625000Y-68345000D02*
X122975000Y-68345000D01*
%TO.C,R25*%
X124675000Y-72625000D02*
X124025000Y-72625000D01*
X124675000Y-73425000D02*
X124675000Y-72625000D01*
X124025000Y-73425000D02*
X124675000Y-73425000D01*
X122975000Y-72625000D02*
X123625000Y-72625000D01*
X122975000Y-73425000D02*
X122975000Y-72625000D01*
X123625000Y-73425000D02*
X122975000Y-73425000D01*
%TO.C,R27*%
X124675000Y-59925000D02*
X124025000Y-59925000D01*
X124675000Y-60725000D02*
X124675000Y-59925000D01*
X124025000Y-60725000D02*
X124675000Y-60725000D01*
X122975000Y-59925000D02*
X123625000Y-59925000D01*
X122975000Y-60725000D02*
X122975000Y-59925000D01*
X123625000Y-60725000D02*
X122975000Y-60725000D01*
%TO.C,R28*%
X124675000Y-65005000D02*
X124025000Y-65005000D01*
X124675000Y-65805000D02*
X124675000Y-65005000D01*
X124025000Y-65805000D02*
X124675000Y-65805000D01*
X122975000Y-65005000D02*
X123625000Y-65005000D01*
X122975000Y-65805000D02*
X122975000Y-65005000D01*
X123625000Y-65805000D02*
X122975000Y-65805000D01*
%TO.C,R2*%
X84855000Y-115150000D02*
X84855000Y-114500000D01*
X84055000Y-115150000D02*
X84855000Y-115150000D01*
X84055000Y-114500000D02*
X84055000Y-115150000D01*
X84855000Y-113450000D02*
X84855000Y-114100000D01*
X84055000Y-113450000D02*
X84855000Y-113450000D01*
X84055000Y-114100000D02*
X84055000Y-113450000D01*
%TO.C,R5*%
X84855000Y-110070000D02*
X84855000Y-109420000D01*
X84055000Y-110070000D02*
X84855000Y-110070000D01*
X84055000Y-109420000D02*
X84055000Y-110070000D01*
X84855000Y-108370000D02*
X84855000Y-109020000D01*
X84055000Y-108370000D02*
X84855000Y-108370000D01*
X84055000Y-109020000D02*
X84055000Y-108370000D01*
%TO.C,R8*%
X84855000Y-104990000D02*
X84855000Y-104340000D01*
X84055000Y-104990000D02*
X84855000Y-104990000D01*
X84055000Y-104340000D02*
X84055000Y-104990000D01*
X84855000Y-103290000D02*
X84855000Y-103940000D01*
X84055000Y-103290000D02*
X84855000Y-103290000D01*
X84055000Y-103940000D02*
X84055000Y-103290000D01*
%TO.C,R11*%
X89935000Y-115150000D02*
X89935000Y-114500000D01*
X89135000Y-115150000D02*
X89935000Y-115150000D01*
X89135000Y-114500000D02*
X89135000Y-115150000D01*
X89935000Y-113450000D02*
X89935000Y-114100000D01*
X89135000Y-113450000D02*
X89935000Y-113450000D01*
X89135000Y-114100000D02*
X89135000Y-113450000D01*
%TO.C,R14*%
X89935000Y-110070000D02*
X89935000Y-109420000D01*
X89135000Y-110070000D02*
X89935000Y-110070000D01*
X89135000Y-109420000D02*
X89135000Y-110070000D01*
X89935000Y-108370000D02*
X89935000Y-109020000D01*
X89135000Y-108370000D02*
X89935000Y-108370000D01*
X89135000Y-109020000D02*
X89135000Y-108370000D01*
%TO.C,R17*%
X89935000Y-104990000D02*
X89935000Y-104340000D01*
X89135000Y-104990000D02*
X89935000Y-104990000D01*
X89135000Y-104340000D02*
X89135000Y-104990000D01*
X89935000Y-103290000D02*
X89935000Y-103940000D01*
X89135000Y-103290000D02*
X89935000Y-103290000D01*
X89135000Y-103940000D02*
X89135000Y-103290000D01*
%TO.C,R20*%
X95015000Y-115150000D02*
X95015000Y-114500000D01*
X94215000Y-115150000D02*
X95015000Y-115150000D01*
X94215000Y-114500000D02*
X94215000Y-115150000D01*
X95015000Y-113450000D02*
X95015000Y-114100000D01*
X94215000Y-113450000D02*
X95015000Y-113450000D01*
X94215000Y-114100000D02*
X94215000Y-113450000D01*
%TO.C,R23*%
X95015000Y-110070000D02*
X95015000Y-109420000D01*
X94215000Y-110070000D02*
X95015000Y-110070000D01*
X94215000Y-109420000D02*
X94215000Y-110070000D01*
X95015000Y-108370000D02*
X95015000Y-109020000D01*
X94215000Y-108370000D02*
X95015000Y-108370000D01*
X94215000Y-109020000D02*
X94215000Y-108370000D01*
%TO.C,R26*%
X95015000Y-104990000D02*
X95015000Y-104340000D01*
X94215000Y-104990000D02*
X95015000Y-104990000D01*
X94215000Y-104340000D02*
X94215000Y-104990000D01*
X95015000Y-103290000D02*
X95015000Y-103940000D01*
X94215000Y-103290000D02*
X95015000Y-103290000D01*
X94215000Y-103940000D02*
X94215000Y-103290000D01*
%TO.C,D2*%
X77705000Y-125222000D02*
X78505000Y-125222000D01*
X77705000Y-126165000D02*
X77705000Y-125515000D01*
X77705000Y-125515000D02*
X78505000Y-125515000D01*
X78505000Y-125515000D02*
X78505000Y-126165000D01*
X77705000Y-126565000D02*
X77705000Y-127215000D01*
X77705000Y-127215000D02*
X78505000Y-127215000D01*
X78505000Y-127215000D02*
X78505000Y-126565000D01*
%TO.C,R1*%
X80245000Y-126165000D02*
X80245000Y-125515000D01*
X80245000Y-125515000D02*
X81045000Y-125515000D01*
X81045000Y-125515000D02*
X81045000Y-126165000D01*
X80245000Y-126565000D02*
X80245000Y-127215000D01*
X80245000Y-127215000D02*
X81045000Y-127215000D01*
X81045000Y-127215000D02*
X81045000Y-126565000D01*
D14*
%TO.C,MH1*%
X95250000Y-85090000D02*
G75*
G03*
X95250000Y-85090000I-2540000J0D01*
G01*
%TO.C,MH2*%
X67310000Y-56515000D02*
G75*
G03*
X67310000Y-56515000I-2540000J0D01*
G01*
%TO.C,MH3*%
X123190000Y-56515000D02*
G75*
G03*
X123190000Y-56515000I-2540000J0D01*
G01*
%TO.C,U1*%
D15*
X60839047Y-74778809D02*
X60839047Y-75190047D01*
X60814857Y-75238428D01*
X60790666Y-75262619D01*
X60742285Y-75286809D01*
X60645523Y-75286809D01*
X60597142Y-75262619D01*
X60572952Y-75238428D01*
X60548761Y-75190047D01*
X60548761Y-74778809D01*
X60040761Y-75286809D02*
X60331047Y-75286809D01*
X60185904Y-75286809D02*
X60185904Y-74778809D01*
X60234285Y-74851380D01*
X60282666Y-74899761D01*
X60331047Y-74923952D01*
X61824809Y-76774523D02*
X61316809Y-76774523D01*
X61316809Y-76895476D01*
X61341000Y-76968047D01*
X61389380Y-77016428D01*
X61437761Y-77040619D01*
X61534523Y-77064809D01*
X61607095Y-77064809D01*
X61703857Y-77040619D01*
X61752238Y-77016428D01*
X61800619Y-76968047D01*
X61824809Y-76895476D01*
X61824809Y-76774523D01*
X61824809Y-77572809D02*
X61582904Y-77403476D01*
X61824809Y-77282523D02*
X61316809Y-77282523D01*
X61316809Y-77476047D01*
X61341000Y-77524428D01*
X61365190Y-77548619D01*
X61413571Y-77572809D01*
X61486142Y-77572809D01*
X61534523Y-77548619D01*
X61558714Y-77524428D01*
X61582904Y-77476047D01*
X61582904Y-77282523D01*
X61316809Y-77717952D02*
X61824809Y-77887285D01*
X61316809Y-78056619D01*
X61824809Y-78492047D02*
X61824809Y-78201761D01*
X61824809Y-78346904D02*
X61316809Y-78346904D01*
X61389380Y-78298523D01*
X61437761Y-78250142D01*
X61461952Y-78201761D01*
X61316809Y-78806523D02*
X61316809Y-78854904D01*
X61341000Y-78903285D01*
X61365190Y-78927476D01*
X61413571Y-78951666D01*
X61510333Y-78975857D01*
X61631285Y-78975857D01*
X61728047Y-78951666D01*
X61776428Y-78927476D01*
X61800619Y-78903285D01*
X61824809Y-78854904D01*
X61824809Y-78806523D01*
X61800619Y-78758142D01*
X61776428Y-78733952D01*
X61728047Y-78709761D01*
X61631285Y-78685571D01*
X61510333Y-78685571D01*
X61413571Y-78709761D01*
X61365190Y-78733952D01*
X61341000Y-78758142D01*
X61316809Y-78806523D01*
X61316809Y-79145190D02*
X61316809Y-79459666D01*
X61510333Y-79290333D01*
X61510333Y-79362904D01*
X61534523Y-79411285D01*
X61558714Y-79435476D01*
X61607095Y-79459666D01*
X61728047Y-79459666D01*
X61776428Y-79435476D01*
X61800619Y-79411285D01*
X61824809Y-79362904D01*
X61824809Y-79217761D01*
X61800619Y-79169380D01*
X61776428Y-79145190D01*
%TO.C,U2*%
X60839047Y-67158809D02*
X60839047Y-67570047D01*
X60814857Y-67618428D01*
X60790666Y-67642619D01*
X60742285Y-67666809D01*
X60645523Y-67666809D01*
X60597142Y-67642619D01*
X60572952Y-67618428D01*
X60548761Y-67570047D01*
X60548761Y-67158809D01*
X60331047Y-67207190D02*
X60306857Y-67183000D01*
X60258476Y-67158809D01*
X60137523Y-67158809D01*
X60089142Y-67183000D01*
X60064952Y-67207190D01*
X60040761Y-67255571D01*
X60040761Y-67303952D01*
X60064952Y-67376523D01*
X60355238Y-67666809D01*
X60040761Y-67666809D01*
X61824809Y-69154523D02*
X61316809Y-69154523D01*
X61316809Y-69275476D01*
X61341000Y-69348047D01*
X61389380Y-69396428D01*
X61437761Y-69420619D01*
X61534523Y-69444809D01*
X61607095Y-69444809D01*
X61703857Y-69420619D01*
X61752238Y-69396428D01*
X61800619Y-69348047D01*
X61824809Y-69275476D01*
X61824809Y-69154523D01*
X61824809Y-69952809D02*
X61582904Y-69783476D01*
X61824809Y-69662523D02*
X61316809Y-69662523D01*
X61316809Y-69856047D01*
X61341000Y-69904428D01*
X61365190Y-69928619D01*
X61413571Y-69952809D01*
X61486142Y-69952809D01*
X61534523Y-69928619D01*
X61558714Y-69904428D01*
X61582904Y-69856047D01*
X61582904Y-69662523D01*
X61316809Y-70097952D02*
X61824809Y-70267285D01*
X61316809Y-70436619D01*
X61824809Y-70872047D02*
X61824809Y-70581761D01*
X61824809Y-70726904D02*
X61316809Y-70726904D01*
X61389380Y-70678523D01*
X61437761Y-70630142D01*
X61461952Y-70581761D01*
X61316809Y-71186523D02*
X61316809Y-71234904D01*
X61341000Y-71283285D01*
X61365190Y-71307476D01*
X61413571Y-71331666D01*
X61510333Y-71355857D01*
X61631285Y-71355857D01*
X61728047Y-71331666D01*
X61776428Y-71307476D01*
X61800619Y-71283285D01*
X61824809Y-71234904D01*
X61824809Y-71186523D01*
X61800619Y-71138142D01*
X61776428Y-71113952D01*
X61728047Y-71089761D01*
X61631285Y-71065571D01*
X61510333Y-71065571D01*
X61413571Y-71089761D01*
X61365190Y-71113952D01*
X61341000Y-71138142D01*
X61316809Y-71186523D01*
X61316809Y-71525190D02*
X61316809Y-71839666D01*
X61510333Y-71670333D01*
X61510333Y-71742904D01*
X61534523Y-71791285D01*
X61558714Y-71815476D01*
X61607095Y-71839666D01*
X61728047Y-71839666D01*
X61776428Y-71815476D01*
X61800619Y-71791285D01*
X61824809Y-71742904D01*
X61824809Y-71597761D01*
X61800619Y-71549380D01*
X61776428Y-71525190D01*
%TO.C,U3*%
X60839047Y-59538809D02*
X60839047Y-59950047D01*
X60814857Y-59998428D01*
X60790666Y-60022619D01*
X60742285Y-60046809D01*
X60645523Y-60046809D01*
X60597142Y-60022619D01*
X60572952Y-59998428D01*
X60548761Y-59950047D01*
X60548761Y-59538809D01*
X60355238Y-59538809D02*
X60040761Y-59538809D01*
X60210095Y-59732333D01*
X60137523Y-59732333D01*
X60089142Y-59756523D01*
X60064952Y-59780714D01*
X60040761Y-59829095D01*
X60040761Y-59950047D01*
X60064952Y-59998428D01*
X60089142Y-60022619D01*
X60137523Y-60046809D01*
X60282666Y-60046809D01*
X60331047Y-60022619D01*
X60355238Y-59998428D01*
X61824809Y-61534523D02*
X61316809Y-61534523D01*
X61316809Y-61655476D01*
X61341000Y-61728047D01*
X61389380Y-61776428D01*
X61437761Y-61800619D01*
X61534523Y-61824809D01*
X61607095Y-61824809D01*
X61703857Y-61800619D01*
X61752238Y-61776428D01*
X61800619Y-61728047D01*
X61824809Y-61655476D01*
X61824809Y-61534523D01*
X61824809Y-62332809D02*
X61582904Y-62163476D01*
X61824809Y-62042523D02*
X61316809Y-62042523D01*
X61316809Y-62236047D01*
X61341000Y-62284428D01*
X61365190Y-62308619D01*
X61413571Y-62332809D01*
X61486142Y-62332809D01*
X61534523Y-62308619D01*
X61558714Y-62284428D01*
X61582904Y-62236047D01*
X61582904Y-62042523D01*
X61316809Y-62477952D02*
X61824809Y-62647285D01*
X61316809Y-62816619D01*
X61824809Y-63252047D02*
X61824809Y-62961761D01*
X61824809Y-63106904D02*
X61316809Y-63106904D01*
X61389380Y-63058523D01*
X61437761Y-63010142D01*
X61461952Y-62961761D01*
X61316809Y-63566523D02*
X61316809Y-63614904D01*
X61341000Y-63663285D01*
X61365190Y-63687476D01*
X61413571Y-63711666D01*
X61510333Y-63735857D01*
X61631285Y-63735857D01*
X61728047Y-63711666D01*
X61776428Y-63687476D01*
X61800619Y-63663285D01*
X61824809Y-63614904D01*
X61824809Y-63566523D01*
X61800619Y-63518142D01*
X61776428Y-63493952D01*
X61728047Y-63469761D01*
X61631285Y-63445571D01*
X61510333Y-63445571D01*
X61413571Y-63469761D01*
X61365190Y-63493952D01*
X61341000Y-63518142D01*
X61316809Y-63566523D01*
X61316809Y-63905190D02*
X61316809Y-64219666D01*
X61510333Y-64050333D01*
X61510333Y-64122904D01*
X61534523Y-64171285D01*
X61558714Y-64195476D01*
X61607095Y-64219666D01*
X61728047Y-64219666D01*
X61776428Y-64195476D01*
X61800619Y-64171285D01*
X61824809Y-64122904D01*
X61824809Y-63977761D01*
X61800619Y-63929380D01*
X61776428Y-63905190D01*
%TO.C,U4*%
X88779047Y-74778809D02*
X88779047Y-75190047D01*
X88754857Y-75238428D01*
X88730666Y-75262619D01*
X88682285Y-75286809D01*
X88585523Y-75286809D01*
X88537142Y-75262619D01*
X88512952Y-75238428D01*
X88488761Y-75190047D01*
X88488761Y-74778809D01*
X88029142Y-74948142D02*
X88029142Y-75286809D01*
X88150095Y-74754619D02*
X88271047Y-75117476D01*
X87956571Y-75117476D01*
X89764809Y-76774523D02*
X89256809Y-76774523D01*
X89256809Y-76895476D01*
X89281000Y-76968047D01*
X89329380Y-77016428D01*
X89377761Y-77040619D01*
X89474523Y-77064809D01*
X89547095Y-77064809D01*
X89643857Y-77040619D01*
X89692238Y-77016428D01*
X89740619Y-76968047D01*
X89764809Y-76895476D01*
X89764809Y-76774523D01*
X89764809Y-77572809D02*
X89522904Y-77403476D01*
X89764809Y-77282523D02*
X89256809Y-77282523D01*
X89256809Y-77476047D01*
X89281000Y-77524428D01*
X89305190Y-77548619D01*
X89353571Y-77572809D01*
X89426142Y-77572809D01*
X89474523Y-77548619D01*
X89498714Y-77524428D01*
X89522904Y-77476047D01*
X89522904Y-77282523D01*
X89256809Y-77717952D02*
X89764809Y-77887285D01*
X89256809Y-78056619D01*
X89764809Y-78492047D02*
X89764809Y-78201761D01*
X89764809Y-78346904D02*
X89256809Y-78346904D01*
X89329380Y-78298523D01*
X89377761Y-78250142D01*
X89401952Y-78201761D01*
X89256809Y-78806523D02*
X89256809Y-78854904D01*
X89281000Y-78903285D01*
X89305190Y-78927476D01*
X89353571Y-78951666D01*
X89450333Y-78975857D01*
X89571285Y-78975857D01*
X89668047Y-78951666D01*
X89716428Y-78927476D01*
X89740619Y-78903285D01*
X89764809Y-78854904D01*
X89764809Y-78806523D01*
X89740619Y-78758142D01*
X89716428Y-78733952D01*
X89668047Y-78709761D01*
X89571285Y-78685571D01*
X89450333Y-78685571D01*
X89353571Y-78709761D01*
X89305190Y-78733952D01*
X89281000Y-78758142D01*
X89256809Y-78806523D01*
X89256809Y-79145190D02*
X89256809Y-79459666D01*
X89450333Y-79290333D01*
X89450333Y-79362904D01*
X89474523Y-79411285D01*
X89498714Y-79435476D01*
X89547095Y-79459666D01*
X89668047Y-79459666D01*
X89716428Y-79435476D01*
X89740619Y-79411285D01*
X89764809Y-79362904D01*
X89764809Y-79217761D01*
X89740619Y-79169380D01*
X89716428Y-79145190D01*
%TO.C,U5*%
X88779047Y-67158809D02*
X88779047Y-67570047D01*
X88754857Y-67618428D01*
X88730666Y-67642619D01*
X88682285Y-67666809D01*
X88585523Y-67666809D01*
X88537142Y-67642619D01*
X88512952Y-67618428D01*
X88488761Y-67570047D01*
X88488761Y-67158809D01*
X88004952Y-67158809D02*
X88246857Y-67158809D01*
X88271047Y-67400714D01*
X88246857Y-67376523D01*
X88198476Y-67352333D01*
X88077523Y-67352333D01*
X88029142Y-67376523D01*
X88004952Y-67400714D01*
X87980761Y-67449095D01*
X87980761Y-67570047D01*
X88004952Y-67618428D01*
X88029142Y-67642619D01*
X88077523Y-67666809D01*
X88198476Y-67666809D01*
X88246857Y-67642619D01*
X88271047Y-67618428D01*
X89764809Y-69154523D02*
X89256809Y-69154523D01*
X89256809Y-69275476D01*
X89281000Y-69348047D01*
X89329380Y-69396428D01*
X89377761Y-69420619D01*
X89474523Y-69444809D01*
X89547095Y-69444809D01*
X89643857Y-69420619D01*
X89692238Y-69396428D01*
X89740619Y-69348047D01*
X89764809Y-69275476D01*
X89764809Y-69154523D01*
X89764809Y-69952809D02*
X89522904Y-69783476D01*
X89764809Y-69662523D02*
X89256809Y-69662523D01*
X89256809Y-69856047D01*
X89281000Y-69904428D01*
X89305190Y-69928619D01*
X89353571Y-69952809D01*
X89426142Y-69952809D01*
X89474523Y-69928619D01*
X89498714Y-69904428D01*
X89522904Y-69856047D01*
X89522904Y-69662523D01*
X89256809Y-70097952D02*
X89764809Y-70267285D01*
X89256809Y-70436619D01*
X89764809Y-70872047D02*
X89764809Y-70581761D01*
X89764809Y-70726904D02*
X89256809Y-70726904D01*
X89329380Y-70678523D01*
X89377761Y-70630142D01*
X89401952Y-70581761D01*
X89256809Y-71186523D02*
X89256809Y-71234904D01*
X89281000Y-71283285D01*
X89305190Y-71307476D01*
X89353571Y-71331666D01*
X89450333Y-71355857D01*
X89571285Y-71355857D01*
X89668047Y-71331666D01*
X89716428Y-71307476D01*
X89740619Y-71283285D01*
X89764809Y-71234904D01*
X89764809Y-71186523D01*
X89740619Y-71138142D01*
X89716428Y-71113952D01*
X89668047Y-71089761D01*
X89571285Y-71065571D01*
X89450333Y-71065571D01*
X89353571Y-71089761D01*
X89305190Y-71113952D01*
X89281000Y-71138142D01*
X89256809Y-71186523D01*
X89256809Y-71525190D02*
X89256809Y-71839666D01*
X89450333Y-71670333D01*
X89450333Y-71742904D01*
X89474523Y-71791285D01*
X89498714Y-71815476D01*
X89547095Y-71839666D01*
X89668047Y-71839666D01*
X89716428Y-71815476D01*
X89740619Y-71791285D01*
X89764809Y-71742904D01*
X89764809Y-71597761D01*
X89740619Y-71549380D01*
X89716428Y-71525190D01*
%TO.C,U6*%
X88779047Y-59538809D02*
X88779047Y-59950047D01*
X88754857Y-59998428D01*
X88730666Y-60022619D01*
X88682285Y-60046809D01*
X88585523Y-60046809D01*
X88537142Y-60022619D01*
X88512952Y-59998428D01*
X88488761Y-59950047D01*
X88488761Y-59538809D01*
X88029142Y-59538809D02*
X88125904Y-59538809D01*
X88174285Y-59563000D01*
X88198476Y-59587190D01*
X88246857Y-59659761D01*
X88271047Y-59756523D01*
X88271047Y-59950047D01*
X88246857Y-59998428D01*
X88222666Y-60022619D01*
X88174285Y-60046809D01*
X88077523Y-60046809D01*
X88029142Y-60022619D01*
X88004952Y-59998428D01*
X87980761Y-59950047D01*
X87980761Y-59829095D01*
X88004952Y-59780714D01*
X88029142Y-59756523D01*
X88077523Y-59732333D01*
X88174285Y-59732333D01*
X88222666Y-59756523D01*
X88246857Y-59780714D01*
X88271047Y-59829095D01*
X89764809Y-61534523D02*
X89256809Y-61534523D01*
X89256809Y-61655476D01*
X89281000Y-61728047D01*
X89329380Y-61776428D01*
X89377761Y-61800619D01*
X89474523Y-61824809D01*
X89547095Y-61824809D01*
X89643857Y-61800619D01*
X89692238Y-61776428D01*
X89740619Y-61728047D01*
X89764809Y-61655476D01*
X89764809Y-61534523D01*
X89764809Y-62332809D02*
X89522904Y-62163476D01*
X89764809Y-62042523D02*
X89256809Y-62042523D01*
X89256809Y-62236047D01*
X89281000Y-62284428D01*
X89305190Y-62308619D01*
X89353571Y-62332809D01*
X89426142Y-62332809D01*
X89474523Y-62308619D01*
X89498714Y-62284428D01*
X89522904Y-62236047D01*
X89522904Y-62042523D01*
X89256809Y-62477952D02*
X89764809Y-62647285D01*
X89256809Y-62816619D01*
X89764809Y-63252047D02*
X89764809Y-62961761D01*
X89764809Y-63106904D02*
X89256809Y-63106904D01*
X89329380Y-63058523D01*
X89377761Y-63010142D01*
X89401952Y-62961761D01*
X89256809Y-63566523D02*
X89256809Y-63614904D01*
X89281000Y-63663285D01*
X89305190Y-63687476D01*
X89353571Y-63711666D01*
X89450333Y-63735857D01*
X89571285Y-63735857D01*
X89668047Y-63711666D01*
X89716428Y-63687476D01*
X89740619Y-63663285D01*
X89764809Y-63614904D01*
X89764809Y-63566523D01*
X89740619Y-63518142D01*
X89716428Y-63493952D01*
X89668047Y-63469761D01*
X89571285Y-63445571D01*
X89450333Y-63445571D01*
X89353571Y-63469761D01*
X89305190Y-63493952D01*
X89281000Y-63518142D01*
X89256809Y-63566523D01*
X89256809Y-63905190D02*
X89256809Y-64219666D01*
X89450333Y-64050333D01*
X89450333Y-64122904D01*
X89474523Y-64171285D01*
X89498714Y-64195476D01*
X89547095Y-64219666D01*
X89668047Y-64219666D01*
X89716428Y-64195476D01*
X89740619Y-64171285D01*
X89764809Y-64122904D01*
X89764809Y-63977761D01*
X89740619Y-63929380D01*
X89716428Y-63905190D01*
%TO.C,U7*%
X116719047Y-74778809D02*
X116719047Y-75190047D01*
X116694857Y-75238428D01*
X116670666Y-75262619D01*
X116622285Y-75286809D01*
X116525523Y-75286809D01*
X116477142Y-75262619D01*
X116452952Y-75238428D01*
X116428761Y-75190047D01*
X116428761Y-74778809D01*
X116235238Y-74778809D02*
X115896571Y-74778809D01*
X116114285Y-75286809D01*
X117704809Y-76774523D02*
X117196809Y-76774523D01*
X117196809Y-76895476D01*
X117221000Y-76968047D01*
X117269380Y-77016428D01*
X117317761Y-77040619D01*
X117414523Y-77064809D01*
X117487095Y-77064809D01*
X117583857Y-77040619D01*
X117632238Y-77016428D01*
X117680619Y-76968047D01*
X117704809Y-76895476D01*
X117704809Y-76774523D01*
X117704809Y-77572809D02*
X117462904Y-77403476D01*
X117704809Y-77282523D02*
X117196809Y-77282523D01*
X117196809Y-77476047D01*
X117221000Y-77524428D01*
X117245190Y-77548619D01*
X117293571Y-77572809D01*
X117366142Y-77572809D01*
X117414523Y-77548619D01*
X117438714Y-77524428D01*
X117462904Y-77476047D01*
X117462904Y-77282523D01*
X117196809Y-77717952D02*
X117704809Y-77887285D01*
X117196809Y-78056619D01*
X117704809Y-78492047D02*
X117704809Y-78201761D01*
X117704809Y-78346904D02*
X117196809Y-78346904D01*
X117269380Y-78298523D01*
X117317761Y-78250142D01*
X117341952Y-78201761D01*
X117196809Y-78806523D02*
X117196809Y-78854904D01*
X117221000Y-78903285D01*
X117245190Y-78927476D01*
X117293571Y-78951666D01*
X117390333Y-78975857D01*
X117511285Y-78975857D01*
X117608047Y-78951666D01*
X117656428Y-78927476D01*
X117680619Y-78903285D01*
X117704809Y-78854904D01*
X117704809Y-78806523D01*
X117680619Y-78758142D01*
X117656428Y-78733952D01*
X117608047Y-78709761D01*
X117511285Y-78685571D01*
X117390333Y-78685571D01*
X117293571Y-78709761D01*
X117245190Y-78733952D01*
X117221000Y-78758142D01*
X117196809Y-78806523D01*
X117196809Y-79145190D02*
X117196809Y-79459666D01*
X117390333Y-79290333D01*
X117390333Y-79362904D01*
X117414523Y-79411285D01*
X117438714Y-79435476D01*
X117487095Y-79459666D01*
X117608047Y-79459666D01*
X117656428Y-79435476D01*
X117680619Y-79411285D01*
X117704809Y-79362904D01*
X117704809Y-79217761D01*
X117680619Y-79169380D01*
X117656428Y-79145190D01*
%TO.C,U8*%
X116719047Y-67158809D02*
X116719047Y-67570047D01*
X116694857Y-67618428D01*
X116670666Y-67642619D01*
X116622285Y-67666809D01*
X116525523Y-67666809D01*
X116477142Y-67642619D01*
X116452952Y-67618428D01*
X116428761Y-67570047D01*
X116428761Y-67158809D01*
X116114285Y-67376523D02*
X116162666Y-67352333D01*
X116186857Y-67328142D01*
X116211047Y-67279761D01*
X116211047Y-67255571D01*
X116186857Y-67207190D01*
X116162666Y-67183000D01*
X116114285Y-67158809D01*
X116017523Y-67158809D01*
X115969142Y-67183000D01*
X115944952Y-67207190D01*
X115920761Y-67255571D01*
X115920761Y-67279761D01*
X115944952Y-67328142D01*
X115969142Y-67352333D01*
X116017523Y-67376523D01*
X116114285Y-67376523D01*
X116162666Y-67400714D01*
X116186857Y-67424904D01*
X116211047Y-67473285D01*
X116211047Y-67570047D01*
X116186857Y-67618428D01*
X116162666Y-67642619D01*
X116114285Y-67666809D01*
X116017523Y-67666809D01*
X115969142Y-67642619D01*
X115944952Y-67618428D01*
X115920761Y-67570047D01*
X115920761Y-67473285D01*
X115944952Y-67424904D01*
X115969142Y-67400714D01*
X116017523Y-67376523D01*
X117704809Y-69154523D02*
X117196809Y-69154523D01*
X117196809Y-69275476D01*
X117221000Y-69348047D01*
X117269380Y-69396428D01*
X117317761Y-69420619D01*
X117414523Y-69444809D01*
X117487095Y-69444809D01*
X117583857Y-69420619D01*
X117632238Y-69396428D01*
X117680619Y-69348047D01*
X117704809Y-69275476D01*
X117704809Y-69154523D01*
X117704809Y-69952809D02*
X117462904Y-69783476D01*
X117704809Y-69662523D02*
X117196809Y-69662523D01*
X117196809Y-69856047D01*
X117221000Y-69904428D01*
X117245190Y-69928619D01*
X117293571Y-69952809D01*
X117366142Y-69952809D01*
X117414523Y-69928619D01*
X117438714Y-69904428D01*
X117462904Y-69856047D01*
X117462904Y-69662523D01*
X117196809Y-70097952D02*
X117704809Y-70267285D01*
X117196809Y-70436619D01*
X117704809Y-70872047D02*
X117704809Y-70581761D01*
X117704809Y-70726904D02*
X117196809Y-70726904D01*
X117269380Y-70678523D01*
X117317761Y-70630142D01*
X117341952Y-70581761D01*
X117196809Y-71186523D02*
X117196809Y-71234904D01*
X117221000Y-71283285D01*
X117245190Y-71307476D01*
X117293571Y-71331666D01*
X117390333Y-71355857D01*
X117511285Y-71355857D01*
X117608047Y-71331666D01*
X117656428Y-71307476D01*
X117680619Y-71283285D01*
X117704809Y-71234904D01*
X117704809Y-71186523D01*
X117680619Y-71138142D01*
X117656428Y-71113952D01*
X117608047Y-71089761D01*
X117511285Y-71065571D01*
X117390333Y-71065571D01*
X117293571Y-71089761D01*
X117245190Y-71113952D01*
X117221000Y-71138142D01*
X117196809Y-71186523D01*
X117196809Y-71525190D02*
X117196809Y-71839666D01*
X117390333Y-71670333D01*
X117390333Y-71742904D01*
X117414523Y-71791285D01*
X117438714Y-71815476D01*
X117487095Y-71839666D01*
X117608047Y-71839666D01*
X117656428Y-71815476D01*
X117680619Y-71791285D01*
X117704809Y-71742904D01*
X117704809Y-71597761D01*
X117680619Y-71549380D01*
X117656428Y-71525190D01*
%TO.C,U9*%
X116719047Y-59538809D02*
X116719047Y-59950047D01*
X116694857Y-59998428D01*
X116670666Y-60022619D01*
X116622285Y-60046809D01*
X116525523Y-60046809D01*
X116477142Y-60022619D01*
X116452952Y-59998428D01*
X116428761Y-59950047D01*
X116428761Y-59538809D01*
X116162666Y-60046809D02*
X116065904Y-60046809D01*
X116017523Y-60022619D01*
X115993333Y-59998428D01*
X115944952Y-59925857D01*
X115920761Y-59829095D01*
X115920761Y-59635571D01*
X115944952Y-59587190D01*
X115969142Y-59563000D01*
X116017523Y-59538809D01*
X116114285Y-59538809D01*
X116162666Y-59563000D01*
X116186857Y-59587190D01*
X116211047Y-59635571D01*
X116211047Y-59756523D01*
X116186857Y-59804904D01*
X116162666Y-59829095D01*
X116114285Y-59853285D01*
X116017523Y-59853285D01*
X115969142Y-59829095D01*
X115944952Y-59804904D01*
X115920761Y-59756523D01*
X117704809Y-61534523D02*
X117196809Y-61534523D01*
X117196809Y-61655476D01*
X117221000Y-61728047D01*
X117269380Y-61776428D01*
X117317761Y-61800619D01*
X117414523Y-61824809D01*
X117487095Y-61824809D01*
X117583857Y-61800619D01*
X117632238Y-61776428D01*
X117680619Y-61728047D01*
X117704809Y-61655476D01*
X117704809Y-61534523D01*
X117704809Y-62332809D02*
X117462904Y-62163476D01*
X117704809Y-62042523D02*
X117196809Y-62042523D01*
X117196809Y-62236047D01*
X117221000Y-62284428D01*
X117245190Y-62308619D01*
X117293571Y-62332809D01*
X117366142Y-62332809D01*
X117414523Y-62308619D01*
X117438714Y-62284428D01*
X117462904Y-62236047D01*
X117462904Y-62042523D01*
X117196809Y-62477952D02*
X117704809Y-62647285D01*
X117196809Y-62816619D01*
X117704809Y-63252047D02*
X117704809Y-62961761D01*
X117704809Y-63106904D02*
X117196809Y-63106904D01*
X117269380Y-63058523D01*
X117317761Y-63010142D01*
X117341952Y-62961761D01*
X117196809Y-63566523D02*
X117196809Y-63614904D01*
X117221000Y-63663285D01*
X117245190Y-63687476D01*
X117293571Y-63711666D01*
X117390333Y-63735857D01*
X117511285Y-63735857D01*
X117608047Y-63711666D01*
X117656428Y-63687476D01*
X117680619Y-63663285D01*
X117704809Y-63614904D01*
X117704809Y-63566523D01*
X117680619Y-63518142D01*
X117656428Y-63493952D01*
X117608047Y-63469761D01*
X117511285Y-63445571D01*
X117390333Y-63445571D01*
X117293571Y-63469761D01*
X117245190Y-63493952D01*
X117221000Y-63518142D01*
X117196809Y-63566523D01*
X117196809Y-63905190D02*
X117196809Y-64219666D01*
X117390333Y-64050333D01*
X117390333Y-64122904D01*
X117414523Y-64171285D01*
X117438714Y-64195476D01*
X117487095Y-64219666D01*
X117608047Y-64219666D01*
X117656428Y-64195476D01*
X117680619Y-64171285D01*
X117704809Y-64122904D01*
X117704809Y-63977761D01*
X117680619Y-63929380D01*
X117656428Y-63905190D01*
%TO.C,D3*%
X82289952Y-115926809D02*
X82289952Y-115418809D01*
X82169000Y-115418809D01*
X82096428Y-115443000D01*
X82048047Y-115491380D01*
X82023857Y-115539761D01*
X81999666Y-115636523D01*
X81999666Y-115709095D01*
X82023857Y-115805857D01*
X82048047Y-115854238D01*
X82096428Y-115902619D01*
X82169000Y-115926809D01*
X82289952Y-115926809D01*
X81830333Y-115418809D02*
X81515857Y-115418809D01*
X81685190Y-115612333D01*
X81612619Y-115612333D01*
X81564238Y-115636523D01*
X81540047Y-115660714D01*
X81515857Y-115709095D01*
X81515857Y-115830047D01*
X81540047Y-115878428D01*
X81564238Y-115902619D01*
X81612619Y-115926809D01*
X81757761Y-115926809D01*
X81806142Y-115902619D01*
X81830333Y-115878428D01*
%TO.C,D4*%
X56889952Y-78461809D02*
X56889952Y-77953809D01*
X56769000Y-77953809D01*
X56696428Y-77978000D01*
X56648047Y-78026380D01*
X56623857Y-78074761D01*
X56599666Y-78171523D01*
X56599666Y-78244095D01*
X56623857Y-78340857D01*
X56648047Y-78389238D01*
X56696428Y-78437619D01*
X56769000Y-78461809D01*
X56889952Y-78461809D01*
X56164238Y-78123142D02*
X56164238Y-78461809D01*
X56285190Y-77929619D02*
X56406142Y-78292476D01*
X56091666Y-78292476D01*
%TO.C,D5*%
X82289952Y-110846809D02*
X82289952Y-110338809D01*
X82169000Y-110338809D01*
X82096428Y-110363000D01*
X82048047Y-110411380D01*
X82023857Y-110459761D01*
X81999666Y-110556523D01*
X81999666Y-110629095D01*
X82023857Y-110725857D01*
X82048047Y-110774238D01*
X82096428Y-110822619D01*
X82169000Y-110846809D01*
X82289952Y-110846809D01*
X81540047Y-110338809D02*
X81781952Y-110338809D01*
X81806142Y-110580714D01*
X81781952Y-110556523D01*
X81733571Y-110532333D01*
X81612619Y-110532333D01*
X81564238Y-110556523D01*
X81540047Y-110580714D01*
X81515857Y-110629095D01*
X81515857Y-110750047D01*
X81540047Y-110798428D01*
X81564238Y-110822619D01*
X81612619Y-110846809D01*
X81733571Y-110846809D01*
X81781952Y-110822619D01*
X81806142Y-110798428D01*
%TO.C,D6*%
X56889952Y-70841809D02*
X56889952Y-70333809D01*
X56769000Y-70333809D01*
X56696428Y-70358000D01*
X56648047Y-70406380D01*
X56623857Y-70454761D01*
X56599666Y-70551523D01*
X56599666Y-70624095D01*
X56623857Y-70720857D01*
X56648047Y-70769238D01*
X56696428Y-70817619D01*
X56769000Y-70841809D01*
X56889952Y-70841809D01*
X56164238Y-70333809D02*
X56261000Y-70333809D01*
X56309380Y-70358000D01*
X56333571Y-70382190D01*
X56381952Y-70454761D01*
X56406142Y-70551523D01*
X56406142Y-70745047D01*
X56381952Y-70793428D01*
X56357761Y-70817619D01*
X56309380Y-70841809D01*
X56212619Y-70841809D01*
X56164238Y-70817619D01*
X56140047Y-70793428D01*
X56115857Y-70745047D01*
X56115857Y-70624095D01*
X56140047Y-70575714D01*
X56164238Y-70551523D01*
X56212619Y-70527333D01*
X56309380Y-70527333D01*
X56357761Y-70551523D01*
X56381952Y-70575714D01*
X56406142Y-70624095D01*
%TO.C,D7*%
X82289952Y-105766809D02*
X82289952Y-105258809D01*
X82169000Y-105258809D01*
X82096428Y-105283000D01*
X82048047Y-105331380D01*
X82023857Y-105379761D01*
X81999666Y-105476523D01*
X81999666Y-105549095D01*
X82023857Y-105645857D01*
X82048047Y-105694238D01*
X82096428Y-105742619D01*
X82169000Y-105766809D01*
X82289952Y-105766809D01*
X81830333Y-105258809D02*
X81491666Y-105258809D01*
X81709380Y-105766809D01*
%TO.C,D8*%
X56889952Y-63221809D02*
X56889952Y-62713809D01*
X56769000Y-62713809D01*
X56696428Y-62738000D01*
X56648047Y-62786380D01*
X56623857Y-62834761D01*
X56599666Y-62931523D01*
X56599666Y-63004095D01*
X56623857Y-63100857D01*
X56648047Y-63149238D01*
X56696428Y-63197619D01*
X56769000Y-63221809D01*
X56889952Y-63221809D01*
X56309380Y-62931523D02*
X56357761Y-62907333D01*
X56381952Y-62883142D01*
X56406142Y-62834761D01*
X56406142Y-62810571D01*
X56381952Y-62762190D01*
X56357761Y-62738000D01*
X56309380Y-62713809D01*
X56212619Y-62713809D01*
X56164238Y-62738000D01*
X56140047Y-62762190D01*
X56115857Y-62810571D01*
X56115857Y-62834761D01*
X56140047Y-62883142D01*
X56164238Y-62907333D01*
X56212619Y-62931523D01*
X56309380Y-62931523D01*
X56357761Y-62955714D01*
X56381952Y-62979904D01*
X56406142Y-63028285D01*
X56406142Y-63125047D01*
X56381952Y-63173428D01*
X56357761Y-63197619D01*
X56309380Y-63221809D01*
X56212619Y-63221809D01*
X56164238Y-63197619D01*
X56140047Y-63173428D01*
X56115857Y-63125047D01*
X56115857Y-63028285D01*
X56140047Y-62979904D01*
X56164238Y-62955714D01*
X56212619Y-62931523D01*
%TO.C,D9*%
X87369952Y-115926809D02*
X87369952Y-115418809D01*
X87249000Y-115418809D01*
X87176428Y-115443000D01*
X87128047Y-115491380D01*
X87103857Y-115539761D01*
X87079666Y-115636523D01*
X87079666Y-115709095D01*
X87103857Y-115805857D01*
X87128047Y-115854238D01*
X87176428Y-115902619D01*
X87249000Y-115926809D01*
X87369952Y-115926809D01*
X86837761Y-115926809D02*
X86741000Y-115926809D01*
X86692619Y-115902619D01*
X86668428Y-115878428D01*
X86620047Y-115805857D01*
X86595857Y-115709095D01*
X86595857Y-115515571D01*
X86620047Y-115467190D01*
X86644238Y-115443000D01*
X86692619Y-115418809D01*
X86789380Y-115418809D01*
X86837761Y-115443000D01*
X86861952Y-115467190D01*
X86886142Y-115515571D01*
X86886142Y-115636523D01*
X86861952Y-115684904D01*
X86837761Y-115709095D01*
X86789380Y-115733285D01*
X86692619Y-115733285D01*
X86644238Y-115709095D01*
X86620047Y-115684904D01*
X86595857Y-115636523D01*
%TO.C,D10*%
X85071857Y-78461809D02*
X85071857Y-77953809D01*
X84950904Y-77953809D01*
X84878333Y-77978000D01*
X84829952Y-78026380D01*
X84805761Y-78074761D01*
X84781571Y-78171523D01*
X84781571Y-78244095D01*
X84805761Y-78340857D01*
X84829952Y-78389238D01*
X84878333Y-78437619D01*
X84950904Y-78461809D01*
X85071857Y-78461809D01*
X84297761Y-78461809D02*
X84588047Y-78461809D01*
X84442904Y-78461809D02*
X84442904Y-77953809D01*
X84491285Y-78026380D01*
X84539666Y-78074761D01*
X84588047Y-78098952D01*
X83983285Y-77953809D02*
X83934904Y-77953809D01*
X83886523Y-77978000D01*
X83862333Y-78002190D01*
X83838142Y-78050571D01*
X83813952Y-78147333D01*
X83813952Y-78268285D01*
X83838142Y-78365047D01*
X83862333Y-78413428D01*
X83886523Y-78437619D01*
X83934904Y-78461809D01*
X83983285Y-78461809D01*
X84031666Y-78437619D01*
X84055857Y-78413428D01*
X84080047Y-78365047D01*
X84104238Y-78268285D01*
X84104238Y-78147333D01*
X84080047Y-78050571D01*
X84055857Y-78002190D01*
X84031666Y-77978000D01*
X83983285Y-77953809D01*
%TO.C,D11*%
X87611857Y-110846809D02*
X87611857Y-110338809D01*
X87490904Y-110338809D01*
X87418333Y-110363000D01*
X87369952Y-110411380D01*
X87345761Y-110459761D01*
X87321571Y-110556523D01*
X87321571Y-110629095D01*
X87345761Y-110725857D01*
X87369952Y-110774238D01*
X87418333Y-110822619D01*
X87490904Y-110846809D01*
X87611857Y-110846809D01*
X86837761Y-110846809D02*
X87128047Y-110846809D01*
X86982904Y-110846809D02*
X86982904Y-110338809D01*
X87031285Y-110411380D01*
X87079666Y-110459761D01*
X87128047Y-110483952D01*
X86353952Y-110846809D02*
X86644238Y-110846809D01*
X86499095Y-110846809D02*
X86499095Y-110338809D01*
X86547476Y-110411380D01*
X86595857Y-110459761D01*
X86644238Y-110483952D01*
%TO.C,D12*%
X85071857Y-70841809D02*
X85071857Y-70333809D01*
X84950904Y-70333809D01*
X84878333Y-70358000D01*
X84829952Y-70406380D01*
X84805761Y-70454761D01*
X84781571Y-70551523D01*
X84781571Y-70624095D01*
X84805761Y-70720857D01*
X84829952Y-70769238D01*
X84878333Y-70817619D01*
X84950904Y-70841809D01*
X85071857Y-70841809D01*
X84297761Y-70841809D02*
X84588047Y-70841809D01*
X84442904Y-70841809D02*
X84442904Y-70333809D01*
X84491285Y-70406380D01*
X84539666Y-70454761D01*
X84588047Y-70478952D01*
X84104238Y-70382190D02*
X84080047Y-70358000D01*
X84031666Y-70333809D01*
X83910714Y-70333809D01*
X83862333Y-70358000D01*
X83838142Y-70382190D01*
X83813952Y-70430571D01*
X83813952Y-70478952D01*
X83838142Y-70551523D01*
X84128428Y-70841809D01*
X83813952Y-70841809D01*
%TO.C,D13*%
X87611857Y-105766809D02*
X87611857Y-105258809D01*
X87490904Y-105258809D01*
X87418333Y-105283000D01*
X87369952Y-105331380D01*
X87345761Y-105379761D01*
X87321571Y-105476523D01*
X87321571Y-105549095D01*
X87345761Y-105645857D01*
X87369952Y-105694238D01*
X87418333Y-105742619D01*
X87490904Y-105766809D01*
X87611857Y-105766809D01*
X86837761Y-105766809D02*
X87128047Y-105766809D01*
X86982904Y-105766809D02*
X86982904Y-105258809D01*
X87031285Y-105331380D01*
X87079666Y-105379761D01*
X87128047Y-105403952D01*
X86668428Y-105258809D02*
X86353952Y-105258809D01*
X86523285Y-105452333D01*
X86450714Y-105452333D01*
X86402333Y-105476523D01*
X86378142Y-105500714D01*
X86353952Y-105549095D01*
X86353952Y-105670047D01*
X86378142Y-105718428D01*
X86402333Y-105742619D01*
X86450714Y-105766809D01*
X86595857Y-105766809D01*
X86644238Y-105742619D01*
X86668428Y-105718428D01*
%TO.C,D14*%
X85071857Y-63221809D02*
X85071857Y-62713809D01*
X84950904Y-62713809D01*
X84878333Y-62738000D01*
X84829952Y-62786380D01*
X84805761Y-62834761D01*
X84781571Y-62931523D01*
X84781571Y-63004095D01*
X84805761Y-63100857D01*
X84829952Y-63149238D01*
X84878333Y-63197619D01*
X84950904Y-63221809D01*
X85071857Y-63221809D01*
X84297761Y-63221809D02*
X84588047Y-63221809D01*
X84442904Y-63221809D02*
X84442904Y-62713809D01*
X84491285Y-62786380D01*
X84539666Y-62834761D01*
X84588047Y-62858952D01*
X83862333Y-62883142D02*
X83862333Y-63221809D01*
X83983285Y-62689619D02*
X84104238Y-63052476D01*
X83789761Y-63052476D01*
%TO.C,D15*%
X92691857Y-115926809D02*
X92691857Y-115418809D01*
X92570904Y-115418809D01*
X92498333Y-115443000D01*
X92449952Y-115491380D01*
X92425761Y-115539761D01*
X92401571Y-115636523D01*
X92401571Y-115709095D01*
X92425761Y-115805857D01*
X92449952Y-115854238D01*
X92498333Y-115902619D01*
X92570904Y-115926809D01*
X92691857Y-115926809D01*
X91917761Y-115926809D02*
X92208047Y-115926809D01*
X92062904Y-115926809D02*
X92062904Y-115418809D01*
X92111285Y-115491380D01*
X92159666Y-115539761D01*
X92208047Y-115563952D01*
X91458142Y-115418809D02*
X91700047Y-115418809D01*
X91724238Y-115660714D01*
X91700047Y-115636523D01*
X91651666Y-115612333D01*
X91530714Y-115612333D01*
X91482333Y-115636523D01*
X91458142Y-115660714D01*
X91433952Y-115709095D01*
X91433952Y-115830047D01*
X91458142Y-115878428D01*
X91482333Y-115902619D01*
X91530714Y-115926809D01*
X91651666Y-115926809D01*
X91700047Y-115902619D01*
X91724238Y-115878428D01*
%TO.C,D16*%
X113011857Y-78461809D02*
X113011857Y-77953809D01*
X112890904Y-77953809D01*
X112818333Y-77978000D01*
X112769952Y-78026380D01*
X112745761Y-78074761D01*
X112721571Y-78171523D01*
X112721571Y-78244095D01*
X112745761Y-78340857D01*
X112769952Y-78389238D01*
X112818333Y-78437619D01*
X112890904Y-78461809D01*
X113011857Y-78461809D01*
X112237761Y-78461809D02*
X112528047Y-78461809D01*
X112382904Y-78461809D02*
X112382904Y-77953809D01*
X112431285Y-78026380D01*
X112479666Y-78074761D01*
X112528047Y-78098952D01*
X111802333Y-77953809D02*
X111899095Y-77953809D01*
X111947476Y-77978000D01*
X111971666Y-78002190D01*
X112020047Y-78074761D01*
X112044238Y-78171523D01*
X112044238Y-78365047D01*
X112020047Y-78413428D01*
X111995857Y-78437619D01*
X111947476Y-78461809D01*
X111850714Y-78461809D01*
X111802333Y-78437619D01*
X111778142Y-78413428D01*
X111753952Y-78365047D01*
X111753952Y-78244095D01*
X111778142Y-78195714D01*
X111802333Y-78171523D01*
X111850714Y-78147333D01*
X111947476Y-78147333D01*
X111995857Y-78171523D01*
X112020047Y-78195714D01*
X112044238Y-78244095D01*
%TO.C,D17*%
X92691857Y-110846809D02*
X92691857Y-110338809D01*
X92570904Y-110338809D01*
X92498333Y-110363000D01*
X92449952Y-110411380D01*
X92425761Y-110459761D01*
X92401571Y-110556523D01*
X92401571Y-110629095D01*
X92425761Y-110725857D01*
X92449952Y-110774238D01*
X92498333Y-110822619D01*
X92570904Y-110846809D01*
X92691857Y-110846809D01*
X91917761Y-110846809D02*
X92208047Y-110846809D01*
X92062904Y-110846809D02*
X92062904Y-110338809D01*
X92111285Y-110411380D01*
X92159666Y-110459761D01*
X92208047Y-110483952D01*
X91748428Y-110338809D02*
X91409761Y-110338809D01*
X91627476Y-110846809D01*
%TO.C,D18*%
X113011857Y-70841809D02*
X113011857Y-70333809D01*
X112890904Y-70333809D01*
X112818333Y-70358000D01*
X112769952Y-70406380D01*
X112745761Y-70454761D01*
X112721571Y-70551523D01*
X112721571Y-70624095D01*
X112745761Y-70720857D01*
X112769952Y-70769238D01*
X112818333Y-70817619D01*
X112890904Y-70841809D01*
X113011857Y-70841809D01*
X112237761Y-70841809D02*
X112528047Y-70841809D01*
X112382904Y-70841809D02*
X112382904Y-70333809D01*
X112431285Y-70406380D01*
X112479666Y-70454761D01*
X112528047Y-70478952D01*
X111947476Y-70551523D02*
X111995857Y-70527333D01*
X112020047Y-70503142D01*
X112044238Y-70454761D01*
X112044238Y-70430571D01*
X112020047Y-70382190D01*
X111995857Y-70358000D01*
X111947476Y-70333809D01*
X111850714Y-70333809D01*
X111802333Y-70358000D01*
X111778142Y-70382190D01*
X111753952Y-70430571D01*
X111753952Y-70454761D01*
X111778142Y-70503142D01*
X111802333Y-70527333D01*
X111850714Y-70551523D01*
X111947476Y-70551523D01*
X111995857Y-70575714D01*
X112020047Y-70599904D01*
X112044238Y-70648285D01*
X112044238Y-70745047D01*
X112020047Y-70793428D01*
X111995857Y-70817619D01*
X111947476Y-70841809D01*
X111850714Y-70841809D01*
X111802333Y-70817619D01*
X111778142Y-70793428D01*
X111753952Y-70745047D01*
X111753952Y-70648285D01*
X111778142Y-70599904D01*
X111802333Y-70575714D01*
X111850714Y-70551523D01*
%TO.C,D19*%
X92691857Y-105766809D02*
X92691857Y-105258809D01*
X92570904Y-105258809D01*
X92498333Y-105283000D01*
X92449952Y-105331380D01*
X92425761Y-105379761D01*
X92401571Y-105476523D01*
X92401571Y-105549095D01*
X92425761Y-105645857D01*
X92449952Y-105694238D01*
X92498333Y-105742619D01*
X92570904Y-105766809D01*
X92691857Y-105766809D01*
X91917761Y-105766809D02*
X92208047Y-105766809D01*
X92062904Y-105766809D02*
X92062904Y-105258809D01*
X92111285Y-105331380D01*
X92159666Y-105379761D01*
X92208047Y-105403952D01*
X91675857Y-105766809D02*
X91579095Y-105766809D01*
X91530714Y-105742619D01*
X91506523Y-105718428D01*
X91458142Y-105645857D01*
X91433952Y-105549095D01*
X91433952Y-105355571D01*
X91458142Y-105307190D01*
X91482333Y-105283000D01*
X91530714Y-105258809D01*
X91627476Y-105258809D01*
X91675857Y-105283000D01*
X91700047Y-105307190D01*
X91724238Y-105355571D01*
X91724238Y-105476523D01*
X91700047Y-105524904D01*
X91675857Y-105549095D01*
X91627476Y-105573285D01*
X91530714Y-105573285D01*
X91482333Y-105549095D01*
X91458142Y-105524904D01*
X91433952Y-105476523D01*
%TO.C,D20*%
X113011857Y-63221809D02*
X113011857Y-62713809D01*
X112890904Y-62713809D01*
X112818333Y-62738000D01*
X112769952Y-62786380D01*
X112745761Y-62834761D01*
X112721571Y-62931523D01*
X112721571Y-63004095D01*
X112745761Y-63100857D01*
X112769952Y-63149238D01*
X112818333Y-63197619D01*
X112890904Y-63221809D01*
X113011857Y-63221809D01*
X112528047Y-62762190D02*
X112503857Y-62738000D01*
X112455476Y-62713809D01*
X112334523Y-62713809D01*
X112286142Y-62738000D01*
X112261952Y-62762190D01*
X112237761Y-62810571D01*
X112237761Y-62858952D01*
X112261952Y-62931523D01*
X112552238Y-63221809D01*
X112237761Y-63221809D01*
X111923285Y-62713809D02*
X111874904Y-62713809D01*
X111826523Y-62738000D01*
X111802333Y-62762190D01*
X111778142Y-62810571D01*
X111753952Y-62907333D01*
X111753952Y-63028285D01*
X111778142Y-63125047D01*
X111802333Y-63173428D01*
X111826523Y-63197619D01*
X111874904Y-63221809D01*
X111923285Y-63221809D01*
X111971666Y-63197619D01*
X111995857Y-63173428D01*
X112020047Y-63125047D01*
X112044238Y-63028285D01*
X112044238Y-62907333D01*
X112020047Y-62810571D01*
X111995857Y-62762190D01*
X111971666Y-62738000D01*
X111923285Y-62713809D01*
%TO.C,C2*%
X63808428Y-81830333D02*
X63832619Y-81806142D01*
X63856809Y-81733571D01*
X63856809Y-81685190D01*
X63832619Y-81612619D01*
X63784238Y-81564238D01*
X63735857Y-81540047D01*
X63639095Y-81515857D01*
X63566523Y-81515857D01*
X63469761Y-81540047D01*
X63421380Y-81564238D01*
X63373000Y-81612619D01*
X63348809Y-81685190D01*
X63348809Y-81733571D01*
X63373000Y-81806142D01*
X63397190Y-81830333D01*
X63397190Y-82023857D02*
X63373000Y-82048047D01*
X63348809Y-82096428D01*
X63348809Y-82217380D01*
X63373000Y-82265761D01*
X63397190Y-82289952D01*
X63445571Y-82314142D01*
X63493952Y-82314142D01*
X63566523Y-82289952D01*
X63856809Y-81999666D01*
X63856809Y-82314142D01*
%TO.C,C4*%
X63808428Y-74210333D02*
X63832619Y-74186142D01*
X63856809Y-74113571D01*
X63856809Y-74065190D01*
X63832619Y-73992619D01*
X63784238Y-73944238D01*
X63735857Y-73920047D01*
X63639095Y-73895857D01*
X63566523Y-73895857D01*
X63469761Y-73920047D01*
X63421380Y-73944238D01*
X63373000Y-73992619D01*
X63348809Y-74065190D01*
X63348809Y-74113571D01*
X63373000Y-74186142D01*
X63397190Y-74210333D01*
X63518142Y-74645761D02*
X63856809Y-74645761D01*
X63324619Y-74524809D02*
X63687476Y-74403857D01*
X63687476Y-74718333D01*
%TO.C,C6*%
X63808428Y-66590333D02*
X63832619Y-66566142D01*
X63856809Y-66493571D01*
X63856809Y-66445190D01*
X63832619Y-66372619D01*
X63784238Y-66324238D01*
X63735857Y-66300047D01*
X63639095Y-66275857D01*
X63566523Y-66275857D01*
X63469761Y-66300047D01*
X63421380Y-66324238D01*
X63373000Y-66372619D01*
X63348809Y-66445190D01*
X63348809Y-66493571D01*
X63373000Y-66566142D01*
X63397190Y-66590333D01*
X63348809Y-67025761D02*
X63348809Y-66929000D01*
X63373000Y-66880619D01*
X63397190Y-66856428D01*
X63469761Y-66808047D01*
X63566523Y-66783857D01*
X63760047Y-66783857D01*
X63808428Y-66808047D01*
X63832619Y-66832238D01*
X63856809Y-66880619D01*
X63856809Y-66977380D01*
X63832619Y-67025761D01*
X63808428Y-67049952D01*
X63760047Y-67074142D01*
X63639095Y-67074142D01*
X63590714Y-67049952D01*
X63566523Y-67025761D01*
X63542333Y-66977380D01*
X63542333Y-66880619D01*
X63566523Y-66832238D01*
X63590714Y-66808047D01*
X63639095Y-66783857D01*
%TO.C,C8*%
X91748428Y-81830333D02*
X91772619Y-81806142D01*
X91796809Y-81733571D01*
X91796809Y-81685190D01*
X91772619Y-81612619D01*
X91724238Y-81564238D01*
X91675857Y-81540047D01*
X91579095Y-81515857D01*
X91506523Y-81515857D01*
X91409761Y-81540047D01*
X91361380Y-81564238D01*
X91313000Y-81612619D01*
X91288809Y-81685190D01*
X91288809Y-81733571D01*
X91313000Y-81806142D01*
X91337190Y-81830333D01*
X91506523Y-82120619D02*
X91482333Y-82072238D01*
X91458142Y-82048047D01*
X91409761Y-82023857D01*
X91385571Y-82023857D01*
X91337190Y-82048047D01*
X91313000Y-82072238D01*
X91288809Y-82120619D01*
X91288809Y-82217380D01*
X91313000Y-82265761D01*
X91337190Y-82289952D01*
X91385571Y-82314142D01*
X91409761Y-82314142D01*
X91458142Y-82289952D01*
X91482333Y-82265761D01*
X91506523Y-82217380D01*
X91506523Y-82120619D01*
X91530714Y-82072238D01*
X91554904Y-82048047D01*
X91603285Y-82023857D01*
X91700047Y-82023857D01*
X91748428Y-82048047D01*
X91772619Y-82072238D01*
X91796809Y-82120619D01*
X91796809Y-82217380D01*
X91772619Y-82265761D01*
X91748428Y-82289952D01*
X91700047Y-82314142D01*
X91603285Y-82314142D01*
X91554904Y-82289952D01*
X91530714Y-82265761D01*
X91506523Y-82217380D01*
%TO.C,C10*%
X91748428Y-73968428D02*
X91772619Y-73944238D01*
X91796809Y-73871666D01*
X91796809Y-73823285D01*
X91772619Y-73750714D01*
X91724238Y-73702333D01*
X91675857Y-73678142D01*
X91579095Y-73653952D01*
X91506523Y-73653952D01*
X91409761Y-73678142D01*
X91361380Y-73702333D01*
X91313000Y-73750714D01*
X91288809Y-73823285D01*
X91288809Y-73871666D01*
X91313000Y-73944238D01*
X91337190Y-73968428D01*
X91796809Y-74452238D02*
X91796809Y-74161952D01*
X91796809Y-74307095D02*
X91288809Y-74307095D01*
X91361380Y-74258714D01*
X91409761Y-74210333D01*
X91433952Y-74161952D01*
X91288809Y-74766714D02*
X91288809Y-74815095D01*
X91313000Y-74863476D01*
X91337190Y-74887666D01*
X91385571Y-74911857D01*
X91482333Y-74936047D01*
X91603285Y-74936047D01*
X91700047Y-74911857D01*
X91748428Y-74887666D01*
X91772619Y-74863476D01*
X91796809Y-74815095D01*
X91796809Y-74766714D01*
X91772619Y-74718333D01*
X91748428Y-74694142D01*
X91700047Y-74669952D01*
X91603285Y-74645761D01*
X91482333Y-74645761D01*
X91385571Y-74669952D01*
X91337190Y-74694142D01*
X91313000Y-74718333D01*
X91288809Y-74766714D01*
%TO.C,C12*%
X91748428Y-66348428D02*
X91772619Y-66324238D01*
X91796809Y-66251666D01*
X91796809Y-66203285D01*
X91772619Y-66130714D01*
X91724238Y-66082333D01*
X91675857Y-66058142D01*
X91579095Y-66033952D01*
X91506523Y-66033952D01*
X91409761Y-66058142D01*
X91361380Y-66082333D01*
X91313000Y-66130714D01*
X91288809Y-66203285D01*
X91288809Y-66251666D01*
X91313000Y-66324238D01*
X91337190Y-66348428D01*
X91796809Y-66832238D02*
X91796809Y-66541952D01*
X91796809Y-66687095D02*
X91288809Y-66687095D01*
X91361380Y-66638714D01*
X91409761Y-66590333D01*
X91433952Y-66541952D01*
X91337190Y-67025761D02*
X91313000Y-67049952D01*
X91288809Y-67098333D01*
X91288809Y-67219285D01*
X91313000Y-67267666D01*
X91337190Y-67291857D01*
X91385571Y-67316047D01*
X91433952Y-67316047D01*
X91506523Y-67291857D01*
X91796809Y-67001571D01*
X91796809Y-67316047D01*
%TO.C,C14*%
X119688428Y-81588428D02*
X119712619Y-81564238D01*
X119736809Y-81491666D01*
X119736809Y-81443285D01*
X119712619Y-81370714D01*
X119664238Y-81322333D01*
X119615857Y-81298142D01*
X119519095Y-81273952D01*
X119446523Y-81273952D01*
X119349761Y-81298142D01*
X119301380Y-81322333D01*
X119253000Y-81370714D01*
X119228809Y-81443285D01*
X119228809Y-81491666D01*
X119253000Y-81564238D01*
X119277190Y-81588428D01*
X119736809Y-82072238D02*
X119736809Y-81781952D01*
X119736809Y-81927095D02*
X119228809Y-81927095D01*
X119301380Y-81878714D01*
X119349761Y-81830333D01*
X119373952Y-81781952D01*
X119398142Y-82507666D02*
X119736809Y-82507666D01*
X119204619Y-82386714D02*
X119567476Y-82265761D01*
X119567476Y-82580238D01*
%TO.C,C16*%
X119688428Y-73968428D02*
X119712619Y-73944238D01*
X119736809Y-73871666D01*
X119736809Y-73823285D01*
X119712619Y-73750714D01*
X119664238Y-73702333D01*
X119615857Y-73678142D01*
X119519095Y-73653952D01*
X119446523Y-73653952D01*
X119349761Y-73678142D01*
X119301380Y-73702333D01*
X119253000Y-73750714D01*
X119228809Y-73823285D01*
X119228809Y-73871666D01*
X119253000Y-73944238D01*
X119277190Y-73968428D01*
X119736809Y-74452238D02*
X119736809Y-74161952D01*
X119736809Y-74307095D02*
X119228809Y-74307095D01*
X119301380Y-74258714D01*
X119349761Y-74210333D01*
X119373952Y-74161952D01*
X119228809Y-74887666D02*
X119228809Y-74790904D01*
X119253000Y-74742523D01*
X119277190Y-74718333D01*
X119349761Y-74669952D01*
X119446523Y-74645761D01*
X119640047Y-74645761D01*
X119688428Y-74669952D01*
X119712619Y-74694142D01*
X119736809Y-74742523D01*
X119736809Y-74839285D01*
X119712619Y-74887666D01*
X119688428Y-74911857D01*
X119640047Y-74936047D01*
X119519095Y-74936047D01*
X119470714Y-74911857D01*
X119446523Y-74887666D01*
X119422333Y-74839285D01*
X119422333Y-74742523D01*
X119446523Y-74694142D01*
X119470714Y-74669952D01*
X119519095Y-74645761D01*
%TO.C,C18*%
X119688428Y-66348428D02*
X119712619Y-66324238D01*
X119736809Y-66251666D01*
X119736809Y-66203285D01*
X119712619Y-66130714D01*
X119664238Y-66082333D01*
X119615857Y-66058142D01*
X119519095Y-66033952D01*
X119446523Y-66033952D01*
X119349761Y-66058142D01*
X119301380Y-66082333D01*
X119253000Y-66130714D01*
X119228809Y-66203285D01*
X119228809Y-66251666D01*
X119253000Y-66324238D01*
X119277190Y-66348428D01*
X119736809Y-66832238D02*
X119736809Y-66541952D01*
X119736809Y-66687095D02*
X119228809Y-66687095D01*
X119301380Y-66638714D01*
X119349761Y-66590333D01*
X119373952Y-66541952D01*
X119446523Y-67122523D02*
X119422333Y-67074142D01*
X119398142Y-67049952D01*
X119349761Y-67025761D01*
X119325571Y-67025761D01*
X119277190Y-67049952D01*
X119253000Y-67074142D01*
X119228809Y-67122523D01*
X119228809Y-67219285D01*
X119253000Y-67267666D01*
X119277190Y-67291857D01*
X119325571Y-67316047D01*
X119349761Y-67316047D01*
X119398142Y-67291857D01*
X119422333Y-67267666D01*
X119446523Y-67219285D01*
X119446523Y-67122523D01*
X119470714Y-67074142D01*
X119494904Y-67049952D01*
X119543285Y-67025761D01*
X119640047Y-67025761D01*
X119688428Y-67049952D01*
X119712619Y-67074142D01*
X119736809Y-67122523D01*
X119736809Y-67219285D01*
X119712619Y-67267666D01*
X119688428Y-67291857D01*
X119640047Y-67316047D01*
X119543285Y-67316047D01*
X119494904Y-67291857D01*
X119470714Y-67267666D01*
X119446523Y-67219285D01*
%TO.C,C3*%
X69523428Y-78020333D02*
X69547619Y-77996142D01*
X69571809Y-77923571D01*
X69571809Y-77875190D01*
X69547619Y-77802619D01*
X69499238Y-77754238D01*
X69450857Y-77730047D01*
X69354095Y-77705857D01*
X69281523Y-77705857D01*
X69184761Y-77730047D01*
X69136380Y-77754238D01*
X69088000Y-77802619D01*
X69063809Y-77875190D01*
X69063809Y-77923571D01*
X69088000Y-77996142D01*
X69112190Y-78020333D01*
X69063809Y-78189666D02*
X69063809Y-78504142D01*
X69257333Y-78334809D01*
X69257333Y-78407380D01*
X69281523Y-78455761D01*
X69305714Y-78479952D01*
X69354095Y-78504142D01*
X69475047Y-78504142D01*
X69523428Y-78479952D01*
X69547619Y-78455761D01*
X69571809Y-78407380D01*
X69571809Y-78262238D01*
X69547619Y-78213857D01*
X69523428Y-78189666D01*
X66904809Y-77560714D02*
X66904809Y-77270428D01*
X66904809Y-77415571D02*
X66396809Y-77415571D01*
X66469380Y-77367190D01*
X66517761Y-77318809D01*
X66541952Y-77270428D01*
X66396809Y-78020333D02*
X66396809Y-77778428D01*
X66638714Y-77754238D01*
X66614523Y-77778428D01*
X66590333Y-77826809D01*
X66590333Y-77947761D01*
X66614523Y-77996142D01*
X66638714Y-78020333D01*
X66687095Y-78044523D01*
X66808047Y-78044523D01*
X66856428Y-78020333D01*
X66880619Y-77996142D01*
X66904809Y-77947761D01*
X66904809Y-77826809D01*
X66880619Y-77778428D01*
X66856428Y-77754238D01*
X66566142Y-78262238D02*
X66904809Y-78262238D01*
X66614523Y-78262238D02*
X66590333Y-78286428D01*
X66566142Y-78334809D01*
X66566142Y-78407380D01*
X66590333Y-78455761D01*
X66638714Y-78479952D01*
X66904809Y-78479952D01*
X66638714Y-78891190D02*
X66638714Y-78721857D01*
X66904809Y-78721857D02*
X66396809Y-78721857D01*
X66396809Y-78963761D01*
%TO.C,C5*%
X69523428Y-70400333D02*
X69547619Y-70376142D01*
X69571809Y-70303571D01*
X69571809Y-70255190D01*
X69547619Y-70182619D01*
X69499238Y-70134238D01*
X69450857Y-70110047D01*
X69354095Y-70085857D01*
X69281523Y-70085857D01*
X69184761Y-70110047D01*
X69136380Y-70134238D01*
X69088000Y-70182619D01*
X69063809Y-70255190D01*
X69063809Y-70303571D01*
X69088000Y-70376142D01*
X69112190Y-70400333D01*
X69063809Y-70859952D02*
X69063809Y-70618047D01*
X69305714Y-70593857D01*
X69281523Y-70618047D01*
X69257333Y-70666428D01*
X69257333Y-70787380D01*
X69281523Y-70835761D01*
X69305714Y-70859952D01*
X69354095Y-70884142D01*
X69475047Y-70884142D01*
X69523428Y-70859952D01*
X69547619Y-70835761D01*
X69571809Y-70787380D01*
X69571809Y-70666428D01*
X69547619Y-70618047D01*
X69523428Y-70593857D01*
X66904809Y-69940714D02*
X66904809Y-69650428D01*
X66904809Y-69795571D02*
X66396809Y-69795571D01*
X66469380Y-69747190D01*
X66517761Y-69698809D01*
X66541952Y-69650428D01*
X66396809Y-70400333D02*
X66396809Y-70158428D01*
X66638714Y-70134238D01*
X66614523Y-70158428D01*
X66590333Y-70206809D01*
X66590333Y-70327761D01*
X66614523Y-70376142D01*
X66638714Y-70400333D01*
X66687095Y-70424523D01*
X66808047Y-70424523D01*
X66856428Y-70400333D01*
X66880619Y-70376142D01*
X66904809Y-70327761D01*
X66904809Y-70206809D01*
X66880619Y-70158428D01*
X66856428Y-70134238D01*
X66566142Y-70642238D02*
X66904809Y-70642238D01*
X66614523Y-70642238D02*
X66590333Y-70666428D01*
X66566142Y-70714809D01*
X66566142Y-70787380D01*
X66590333Y-70835761D01*
X66638714Y-70859952D01*
X66904809Y-70859952D01*
X66638714Y-71271190D02*
X66638714Y-71101857D01*
X66904809Y-71101857D02*
X66396809Y-71101857D01*
X66396809Y-71343761D01*
%TO.C,C7*%
X69523428Y-62780333D02*
X69547619Y-62756142D01*
X69571809Y-62683571D01*
X69571809Y-62635190D01*
X69547619Y-62562619D01*
X69499238Y-62514238D01*
X69450857Y-62490047D01*
X69354095Y-62465857D01*
X69281523Y-62465857D01*
X69184761Y-62490047D01*
X69136380Y-62514238D01*
X69088000Y-62562619D01*
X69063809Y-62635190D01*
X69063809Y-62683571D01*
X69088000Y-62756142D01*
X69112190Y-62780333D01*
X69063809Y-62949666D02*
X69063809Y-63288333D01*
X69571809Y-63070619D01*
X66904809Y-62320714D02*
X66904809Y-62030428D01*
X66904809Y-62175571D02*
X66396809Y-62175571D01*
X66469380Y-62127190D01*
X66517761Y-62078809D01*
X66541952Y-62030428D01*
X66396809Y-62780333D02*
X66396809Y-62538428D01*
X66638714Y-62514238D01*
X66614523Y-62538428D01*
X66590333Y-62586809D01*
X66590333Y-62707761D01*
X66614523Y-62756142D01*
X66638714Y-62780333D01*
X66687095Y-62804523D01*
X66808047Y-62804523D01*
X66856428Y-62780333D01*
X66880619Y-62756142D01*
X66904809Y-62707761D01*
X66904809Y-62586809D01*
X66880619Y-62538428D01*
X66856428Y-62514238D01*
X66566142Y-63022238D02*
X66904809Y-63022238D01*
X66614523Y-63022238D02*
X66590333Y-63046428D01*
X66566142Y-63094809D01*
X66566142Y-63167380D01*
X66590333Y-63215761D01*
X66638714Y-63239952D01*
X66904809Y-63239952D01*
X66638714Y-63651190D02*
X66638714Y-63481857D01*
X66904809Y-63481857D02*
X66396809Y-63481857D01*
X66396809Y-63723761D01*
%TO.C,C9*%
X97463428Y-78020333D02*
X97487619Y-77996142D01*
X97511809Y-77923571D01*
X97511809Y-77875190D01*
X97487619Y-77802619D01*
X97439238Y-77754238D01*
X97390857Y-77730047D01*
X97294095Y-77705857D01*
X97221523Y-77705857D01*
X97124761Y-77730047D01*
X97076380Y-77754238D01*
X97028000Y-77802619D01*
X97003809Y-77875190D01*
X97003809Y-77923571D01*
X97028000Y-77996142D01*
X97052190Y-78020333D01*
X97511809Y-78262238D02*
X97511809Y-78359000D01*
X97487619Y-78407380D01*
X97463428Y-78431571D01*
X97390857Y-78479952D01*
X97294095Y-78504142D01*
X97100571Y-78504142D01*
X97052190Y-78479952D01*
X97028000Y-78455761D01*
X97003809Y-78407380D01*
X97003809Y-78310619D01*
X97028000Y-78262238D01*
X97052190Y-78238047D01*
X97100571Y-78213857D01*
X97221523Y-78213857D01*
X97269904Y-78238047D01*
X97294095Y-78262238D01*
X97318285Y-78310619D01*
X97318285Y-78407380D01*
X97294095Y-78455761D01*
X97269904Y-78479952D01*
X97221523Y-78504142D01*
X94844809Y-77560714D02*
X94844809Y-77270428D01*
X94844809Y-77415571D02*
X94336809Y-77415571D01*
X94409380Y-77367190D01*
X94457761Y-77318809D01*
X94481952Y-77270428D01*
X94336809Y-78020333D02*
X94336809Y-77778428D01*
X94578714Y-77754238D01*
X94554523Y-77778428D01*
X94530333Y-77826809D01*
X94530333Y-77947761D01*
X94554523Y-77996142D01*
X94578714Y-78020333D01*
X94627095Y-78044523D01*
X94748047Y-78044523D01*
X94796428Y-78020333D01*
X94820619Y-77996142D01*
X94844809Y-77947761D01*
X94844809Y-77826809D01*
X94820619Y-77778428D01*
X94796428Y-77754238D01*
X94506142Y-78262238D02*
X94844809Y-78262238D01*
X94554523Y-78262238D02*
X94530333Y-78286428D01*
X94506142Y-78334809D01*
X94506142Y-78407380D01*
X94530333Y-78455761D01*
X94578714Y-78479952D01*
X94844809Y-78479952D01*
X94578714Y-78891190D02*
X94578714Y-78721857D01*
X94844809Y-78721857D02*
X94336809Y-78721857D01*
X94336809Y-78963761D01*
%TO.C,C11*%
X97463428Y-70158428D02*
X97487619Y-70134238D01*
X97511809Y-70061666D01*
X97511809Y-70013285D01*
X97487619Y-69940714D01*
X97439238Y-69892333D01*
X97390857Y-69868142D01*
X97294095Y-69843952D01*
X97221523Y-69843952D01*
X97124761Y-69868142D01*
X97076380Y-69892333D01*
X97028000Y-69940714D01*
X97003809Y-70013285D01*
X97003809Y-70061666D01*
X97028000Y-70134238D01*
X97052190Y-70158428D01*
X97511809Y-70642238D02*
X97511809Y-70351952D01*
X97511809Y-70497095D02*
X97003809Y-70497095D01*
X97076380Y-70448714D01*
X97124761Y-70400333D01*
X97148952Y-70351952D01*
X97511809Y-71126047D02*
X97511809Y-70835761D01*
X97511809Y-70980904D02*
X97003809Y-70980904D01*
X97076380Y-70932523D01*
X97124761Y-70884142D01*
X97148952Y-70835761D01*
X94844809Y-69940714D02*
X94844809Y-69650428D01*
X94844809Y-69795571D02*
X94336809Y-69795571D01*
X94409380Y-69747190D01*
X94457761Y-69698809D01*
X94481952Y-69650428D01*
X94336809Y-70400333D02*
X94336809Y-70158428D01*
X94578714Y-70134238D01*
X94554523Y-70158428D01*
X94530333Y-70206809D01*
X94530333Y-70327761D01*
X94554523Y-70376142D01*
X94578714Y-70400333D01*
X94627095Y-70424523D01*
X94748047Y-70424523D01*
X94796428Y-70400333D01*
X94820619Y-70376142D01*
X94844809Y-70327761D01*
X94844809Y-70206809D01*
X94820619Y-70158428D01*
X94796428Y-70134238D01*
X94506142Y-70642238D02*
X94844809Y-70642238D01*
X94554523Y-70642238D02*
X94530333Y-70666428D01*
X94506142Y-70714809D01*
X94506142Y-70787380D01*
X94530333Y-70835761D01*
X94578714Y-70859952D01*
X94844809Y-70859952D01*
X94578714Y-71271190D02*
X94578714Y-71101857D01*
X94844809Y-71101857D02*
X94336809Y-71101857D01*
X94336809Y-71343761D01*
%TO.C,C13*%
X97463428Y-62538428D02*
X97487619Y-62514238D01*
X97511809Y-62441666D01*
X97511809Y-62393285D01*
X97487619Y-62320714D01*
X97439238Y-62272333D01*
X97390857Y-62248142D01*
X97294095Y-62223952D01*
X97221523Y-62223952D01*
X97124761Y-62248142D01*
X97076380Y-62272333D01*
X97028000Y-62320714D01*
X97003809Y-62393285D01*
X97003809Y-62441666D01*
X97028000Y-62514238D01*
X97052190Y-62538428D01*
X97511809Y-63022238D02*
X97511809Y-62731952D01*
X97511809Y-62877095D02*
X97003809Y-62877095D01*
X97076380Y-62828714D01*
X97124761Y-62780333D01*
X97148952Y-62731952D01*
X97003809Y-63191571D02*
X97003809Y-63506047D01*
X97197333Y-63336714D01*
X97197333Y-63409285D01*
X97221523Y-63457666D01*
X97245714Y-63481857D01*
X97294095Y-63506047D01*
X97415047Y-63506047D01*
X97463428Y-63481857D01*
X97487619Y-63457666D01*
X97511809Y-63409285D01*
X97511809Y-63264142D01*
X97487619Y-63215761D01*
X97463428Y-63191571D01*
X94844809Y-62320714D02*
X94844809Y-62030428D01*
X94844809Y-62175571D02*
X94336809Y-62175571D01*
X94409380Y-62127190D01*
X94457761Y-62078809D01*
X94481952Y-62030428D01*
X94336809Y-62780333D02*
X94336809Y-62538428D01*
X94578714Y-62514238D01*
X94554523Y-62538428D01*
X94530333Y-62586809D01*
X94530333Y-62707761D01*
X94554523Y-62756142D01*
X94578714Y-62780333D01*
X94627095Y-62804523D01*
X94748047Y-62804523D01*
X94796428Y-62780333D01*
X94820619Y-62756142D01*
X94844809Y-62707761D01*
X94844809Y-62586809D01*
X94820619Y-62538428D01*
X94796428Y-62514238D01*
X94506142Y-63022238D02*
X94844809Y-63022238D01*
X94554523Y-63022238D02*
X94530333Y-63046428D01*
X94506142Y-63094809D01*
X94506142Y-63167380D01*
X94530333Y-63215761D01*
X94578714Y-63239952D01*
X94844809Y-63239952D01*
X94578714Y-63651190D02*
X94578714Y-63481857D01*
X94844809Y-63481857D02*
X94336809Y-63481857D01*
X94336809Y-63723761D01*
%TO.C,C15*%
X125403428Y-77778428D02*
X125427619Y-77754238D01*
X125451809Y-77681666D01*
X125451809Y-77633285D01*
X125427619Y-77560714D01*
X125379238Y-77512333D01*
X125330857Y-77488142D01*
X125234095Y-77463952D01*
X125161523Y-77463952D01*
X125064761Y-77488142D01*
X125016380Y-77512333D01*
X124968000Y-77560714D01*
X124943809Y-77633285D01*
X124943809Y-77681666D01*
X124968000Y-77754238D01*
X124992190Y-77778428D01*
X125451809Y-78262238D02*
X125451809Y-77971952D01*
X125451809Y-78117095D02*
X124943809Y-78117095D01*
X125016380Y-78068714D01*
X125064761Y-78020333D01*
X125088952Y-77971952D01*
X124943809Y-78721857D02*
X124943809Y-78479952D01*
X125185714Y-78455761D01*
X125161523Y-78479952D01*
X125137333Y-78528333D01*
X125137333Y-78649285D01*
X125161523Y-78697666D01*
X125185714Y-78721857D01*
X125234095Y-78746047D01*
X125355047Y-78746047D01*
X125403428Y-78721857D01*
X125427619Y-78697666D01*
X125451809Y-78649285D01*
X125451809Y-78528333D01*
X125427619Y-78479952D01*
X125403428Y-78455761D01*
X122784809Y-77560714D02*
X122784809Y-77270428D01*
X122784809Y-77415571D02*
X122276809Y-77415571D01*
X122349380Y-77367190D01*
X122397761Y-77318809D01*
X122421952Y-77270428D01*
X122276809Y-78020333D02*
X122276809Y-77778428D01*
X122518714Y-77754238D01*
X122494523Y-77778428D01*
X122470333Y-77826809D01*
X122470333Y-77947761D01*
X122494523Y-77996142D01*
X122518714Y-78020333D01*
X122567095Y-78044523D01*
X122688047Y-78044523D01*
X122736428Y-78020333D01*
X122760619Y-77996142D01*
X122784809Y-77947761D01*
X122784809Y-77826809D01*
X122760619Y-77778428D01*
X122736428Y-77754238D01*
X122446142Y-78262238D02*
X122784809Y-78262238D01*
X122494523Y-78262238D02*
X122470333Y-78286428D01*
X122446142Y-78334809D01*
X122446142Y-78407380D01*
X122470333Y-78455761D01*
X122518714Y-78479952D01*
X122784809Y-78479952D01*
X122518714Y-78891190D02*
X122518714Y-78721857D01*
X122784809Y-78721857D02*
X122276809Y-78721857D01*
X122276809Y-78963761D01*
%TO.C,C17*%
X125403428Y-70158428D02*
X125427619Y-70134238D01*
X125451809Y-70061666D01*
X125451809Y-70013285D01*
X125427619Y-69940714D01*
X125379238Y-69892333D01*
X125330857Y-69868142D01*
X125234095Y-69843952D01*
X125161523Y-69843952D01*
X125064761Y-69868142D01*
X125016380Y-69892333D01*
X124968000Y-69940714D01*
X124943809Y-70013285D01*
X124943809Y-70061666D01*
X124968000Y-70134238D01*
X124992190Y-70158428D01*
X125451809Y-70642238D02*
X125451809Y-70351952D01*
X125451809Y-70497095D02*
X124943809Y-70497095D01*
X125016380Y-70448714D01*
X125064761Y-70400333D01*
X125088952Y-70351952D01*
X124943809Y-70811571D02*
X124943809Y-71150238D01*
X125451809Y-70932523D01*
X122784809Y-69940714D02*
X122784809Y-69650428D01*
X122784809Y-69795571D02*
X122276809Y-69795571D01*
X122349380Y-69747190D01*
X122397761Y-69698809D01*
X122421952Y-69650428D01*
X122276809Y-70400333D02*
X122276809Y-70158428D01*
X122518714Y-70134238D01*
X122494523Y-70158428D01*
X122470333Y-70206809D01*
X122470333Y-70327761D01*
X122494523Y-70376142D01*
X122518714Y-70400333D01*
X122567095Y-70424523D01*
X122688047Y-70424523D01*
X122736428Y-70400333D01*
X122760619Y-70376142D01*
X122784809Y-70327761D01*
X122784809Y-70206809D01*
X122760619Y-70158428D01*
X122736428Y-70134238D01*
X122446142Y-70642238D02*
X122784809Y-70642238D01*
X122494523Y-70642238D02*
X122470333Y-70666428D01*
X122446142Y-70714809D01*
X122446142Y-70787380D01*
X122470333Y-70835761D01*
X122518714Y-70859952D01*
X122784809Y-70859952D01*
X122518714Y-71271190D02*
X122518714Y-71101857D01*
X122784809Y-71101857D02*
X122276809Y-71101857D01*
X122276809Y-71343761D01*
%TO.C,C19*%
X125403428Y-62538428D02*
X125427619Y-62514238D01*
X125451809Y-62441666D01*
X125451809Y-62393285D01*
X125427619Y-62320714D01*
X125379238Y-62272333D01*
X125330857Y-62248142D01*
X125234095Y-62223952D01*
X125161523Y-62223952D01*
X125064761Y-62248142D01*
X125016380Y-62272333D01*
X124968000Y-62320714D01*
X124943809Y-62393285D01*
X124943809Y-62441666D01*
X124968000Y-62514238D01*
X124992190Y-62538428D01*
X125451809Y-63022238D02*
X125451809Y-62731952D01*
X125451809Y-62877095D02*
X124943809Y-62877095D01*
X125016380Y-62828714D01*
X125064761Y-62780333D01*
X125088952Y-62731952D01*
X125451809Y-63264142D02*
X125451809Y-63360904D01*
X125427619Y-63409285D01*
X125403428Y-63433476D01*
X125330857Y-63481857D01*
X125234095Y-63506047D01*
X125040571Y-63506047D01*
X124992190Y-63481857D01*
X124968000Y-63457666D01*
X124943809Y-63409285D01*
X124943809Y-63312523D01*
X124968000Y-63264142D01*
X124992190Y-63239952D01*
X125040571Y-63215761D01*
X125161523Y-63215761D01*
X125209904Y-63239952D01*
X125234095Y-63264142D01*
X125258285Y-63312523D01*
X125258285Y-63409285D01*
X125234095Y-63457666D01*
X125209904Y-63481857D01*
X125161523Y-63506047D01*
X122784809Y-62320714D02*
X122784809Y-62030428D01*
X122784809Y-62175571D02*
X122276809Y-62175571D01*
X122349380Y-62127190D01*
X122397761Y-62078809D01*
X122421952Y-62030428D01*
X122276809Y-62780333D02*
X122276809Y-62538428D01*
X122518714Y-62514238D01*
X122494523Y-62538428D01*
X122470333Y-62586809D01*
X122470333Y-62707761D01*
X122494523Y-62756142D01*
X122518714Y-62780333D01*
X122567095Y-62804523D01*
X122688047Y-62804523D01*
X122736428Y-62780333D01*
X122760619Y-62756142D01*
X122784809Y-62707761D01*
X122784809Y-62586809D01*
X122760619Y-62538428D01*
X122736428Y-62514238D01*
X122446142Y-63022238D02*
X122784809Y-63022238D01*
X122494523Y-63022238D02*
X122470333Y-63046428D01*
X122446142Y-63094809D01*
X122446142Y-63167380D01*
X122470333Y-63215761D01*
X122518714Y-63239952D01*
X122784809Y-63239952D01*
X122518714Y-63651190D02*
X122518714Y-63481857D01*
X122784809Y-63481857D02*
X122276809Y-63481857D01*
X122276809Y-63723761D01*
%TO.C,R3*%
X69571809Y-75480333D02*
X69329904Y-75311000D01*
X69571809Y-75190047D02*
X69063809Y-75190047D01*
X69063809Y-75383571D01*
X69088000Y-75431952D01*
X69112190Y-75456142D01*
X69160571Y-75480333D01*
X69233142Y-75480333D01*
X69281523Y-75456142D01*
X69305714Y-75431952D01*
X69329904Y-75383571D01*
X69329904Y-75190047D01*
X69063809Y-75649666D02*
X69063809Y-75964142D01*
X69257333Y-75794809D01*
X69257333Y-75867380D01*
X69281523Y-75915761D01*
X69305714Y-75939952D01*
X69354095Y-75964142D01*
X69475047Y-75964142D01*
X69523428Y-75939952D01*
X69547619Y-75915761D01*
X69571809Y-75867380D01*
X69571809Y-75722238D01*
X69547619Y-75673857D01*
X69523428Y-75649666D01*
X66904809Y-75020714D02*
X66904809Y-74730428D01*
X66904809Y-74875571D02*
X66396809Y-74875571D01*
X66469380Y-74827190D01*
X66517761Y-74778809D01*
X66541952Y-74730428D01*
X66396809Y-75480333D02*
X66396809Y-75238428D01*
X66638714Y-75214238D01*
X66614523Y-75238428D01*
X66590333Y-75286809D01*
X66590333Y-75407761D01*
X66614523Y-75456142D01*
X66638714Y-75480333D01*
X66687095Y-75504523D01*
X66808047Y-75504523D01*
X66856428Y-75480333D01*
X66880619Y-75456142D01*
X66904809Y-75407761D01*
X66904809Y-75286809D01*
X66880619Y-75238428D01*
X66856428Y-75214238D01*
X66396809Y-75819000D02*
X66396809Y-75867380D01*
X66421000Y-75915761D01*
X66445190Y-75939952D01*
X66493571Y-75964142D01*
X66590333Y-75988333D01*
X66711285Y-75988333D01*
X66808047Y-75964142D01*
X66856428Y-75939952D01*
X66880619Y-75915761D01*
X66904809Y-75867380D01*
X66904809Y-75819000D01*
X66880619Y-75770619D01*
X66856428Y-75746428D01*
X66808047Y-75722238D01*
X66711285Y-75698047D01*
X66590333Y-75698047D01*
X66493571Y-75722238D01*
X66445190Y-75746428D01*
X66421000Y-75770619D01*
X66396809Y-75819000D01*
X66904809Y-76206047D02*
X66396809Y-76206047D01*
X66711285Y-76254428D02*
X66904809Y-76399571D01*
X66566142Y-76399571D02*
X66759666Y-76206047D01*
%TO.C,R4*%
X69571809Y-80560333D02*
X69329904Y-80391000D01*
X69571809Y-80270047D02*
X69063809Y-80270047D01*
X69063809Y-80463571D01*
X69088000Y-80511952D01*
X69112190Y-80536142D01*
X69160571Y-80560333D01*
X69233142Y-80560333D01*
X69281523Y-80536142D01*
X69305714Y-80511952D01*
X69329904Y-80463571D01*
X69329904Y-80270047D01*
X69233142Y-80995761D02*
X69571809Y-80995761D01*
X69039619Y-80874809D02*
X69402476Y-80753857D01*
X69402476Y-81068333D01*
X66445190Y-79810428D02*
X66421000Y-79834619D01*
X66396809Y-79883000D01*
X66396809Y-80003952D01*
X66421000Y-80052333D01*
X66445190Y-80076523D01*
X66493571Y-80100714D01*
X66541952Y-80100714D01*
X66614523Y-80076523D01*
X66904809Y-79786238D01*
X66904809Y-80100714D01*
X66396809Y-80415190D02*
X66396809Y-80463571D01*
X66421000Y-80511952D01*
X66445190Y-80536142D01*
X66493571Y-80560333D01*
X66590333Y-80584523D01*
X66711285Y-80584523D01*
X66808047Y-80560333D01*
X66856428Y-80536142D01*
X66880619Y-80511952D01*
X66904809Y-80463571D01*
X66904809Y-80415190D01*
X66880619Y-80366809D01*
X66856428Y-80342619D01*
X66808047Y-80318428D01*
X66711285Y-80294238D01*
X66590333Y-80294238D01*
X66493571Y-80318428D01*
X66445190Y-80342619D01*
X66421000Y-80366809D01*
X66396809Y-80415190D01*
X66396809Y-81044142D02*
X66396809Y-80802238D01*
X66638714Y-80778047D01*
X66614523Y-80802238D01*
X66590333Y-80850619D01*
X66590333Y-80971571D01*
X66614523Y-81019952D01*
X66638714Y-81044142D01*
X66687095Y-81068333D01*
X66808047Y-81068333D01*
X66856428Y-81044142D01*
X66880619Y-81019952D01*
X66904809Y-80971571D01*
X66904809Y-80850619D01*
X66880619Y-80802238D01*
X66856428Y-80778047D01*
X66904809Y-81286047D02*
X66396809Y-81286047D01*
X66711285Y-81334428D02*
X66904809Y-81479571D01*
X66566142Y-81479571D02*
X66759666Y-81286047D01*
%TO.C,R6*%
X69571809Y-67860333D02*
X69329904Y-67691000D01*
X69571809Y-67570047D02*
X69063809Y-67570047D01*
X69063809Y-67763571D01*
X69088000Y-67811952D01*
X69112190Y-67836142D01*
X69160571Y-67860333D01*
X69233142Y-67860333D01*
X69281523Y-67836142D01*
X69305714Y-67811952D01*
X69329904Y-67763571D01*
X69329904Y-67570047D01*
X69063809Y-68295761D02*
X69063809Y-68199000D01*
X69088000Y-68150619D01*
X69112190Y-68126428D01*
X69184761Y-68078047D01*
X69281523Y-68053857D01*
X69475047Y-68053857D01*
X69523428Y-68078047D01*
X69547619Y-68102238D01*
X69571809Y-68150619D01*
X69571809Y-68247380D01*
X69547619Y-68295761D01*
X69523428Y-68319952D01*
X69475047Y-68344142D01*
X69354095Y-68344142D01*
X69305714Y-68319952D01*
X69281523Y-68295761D01*
X69257333Y-68247380D01*
X69257333Y-68150619D01*
X69281523Y-68102238D01*
X69305714Y-68078047D01*
X69354095Y-68053857D01*
X66904809Y-67400714D02*
X66904809Y-67110428D01*
X66904809Y-67255571D02*
X66396809Y-67255571D01*
X66469380Y-67207190D01*
X66517761Y-67158809D01*
X66541952Y-67110428D01*
X66396809Y-67860333D02*
X66396809Y-67618428D01*
X66638714Y-67594238D01*
X66614523Y-67618428D01*
X66590333Y-67666809D01*
X66590333Y-67787761D01*
X66614523Y-67836142D01*
X66638714Y-67860333D01*
X66687095Y-67884523D01*
X66808047Y-67884523D01*
X66856428Y-67860333D01*
X66880619Y-67836142D01*
X66904809Y-67787761D01*
X66904809Y-67666809D01*
X66880619Y-67618428D01*
X66856428Y-67594238D01*
X66396809Y-68199000D02*
X66396809Y-68247380D01*
X66421000Y-68295761D01*
X66445190Y-68319952D01*
X66493571Y-68344142D01*
X66590333Y-68368333D01*
X66711285Y-68368333D01*
X66808047Y-68344142D01*
X66856428Y-68319952D01*
X66880619Y-68295761D01*
X66904809Y-68247380D01*
X66904809Y-68199000D01*
X66880619Y-68150619D01*
X66856428Y-68126428D01*
X66808047Y-68102238D01*
X66711285Y-68078047D01*
X66590333Y-68078047D01*
X66493571Y-68102238D01*
X66445190Y-68126428D01*
X66421000Y-68150619D01*
X66396809Y-68199000D01*
X66904809Y-68586047D02*
X66396809Y-68586047D01*
X66711285Y-68634428D02*
X66904809Y-68779571D01*
X66566142Y-68779571D02*
X66759666Y-68586047D01*
%TO.C,R7*%
X69571809Y-72940333D02*
X69329904Y-72771000D01*
X69571809Y-72650047D02*
X69063809Y-72650047D01*
X69063809Y-72843571D01*
X69088000Y-72891952D01*
X69112190Y-72916142D01*
X69160571Y-72940333D01*
X69233142Y-72940333D01*
X69281523Y-72916142D01*
X69305714Y-72891952D01*
X69329904Y-72843571D01*
X69329904Y-72650047D01*
X69063809Y-73109666D02*
X69063809Y-73448333D01*
X69571809Y-73230619D01*
X66445190Y-72190428D02*
X66421000Y-72214619D01*
X66396809Y-72263000D01*
X66396809Y-72383952D01*
X66421000Y-72432333D01*
X66445190Y-72456523D01*
X66493571Y-72480714D01*
X66541952Y-72480714D01*
X66614523Y-72456523D01*
X66904809Y-72166238D01*
X66904809Y-72480714D01*
X66396809Y-72795190D02*
X66396809Y-72843571D01*
X66421000Y-72891952D01*
X66445190Y-72916142D01*
X66493571Y-72940333D01*
X66590333Y-72964523D01*
X66711285Y-72964523D01*
X66808047Y-72940333D01*
X66856428Y-72916142D01*
X66880619Y-72891952D01*
X66904809Y-72843571D01*
X66904809Y-72795190D01*
X66880619Y-72746809D01*
X66856428Y-72722619D01*
X66808047Y-72698428D01*
X66711285Y-72674238D01*
X66590333Y-72674238D01*
X66493571Y-72698428D01*
X66445190Y-72722619D01*
X66421000Y-72746809D01*
X66396809Y-72795190D01*
X66396809Y-73424142D02*
X66396809Y-73182238D01*
X66638714Y-73158047D01*
X66614523Y-73182238D01*
X66590333Y-73230619D01*
X66590333Y-73351571D01*
X66614523Y-73399952D01*
X66638714Y-73424142D01*
X66687095Y-73448333D01*
X66808047Y-73448333D01*
X66856428Y-73424142D01*
X66880619Y-73399952D01*
X66904809Y-73351571D01*
X66904809Y-73230619D01*
X66880619Y-73182238D01*
X66856428Y-73158047D01*
X66904809Y-73666047D02*
X66396809Y-73666047D01*
X66711285Y-73714428D02*
X66904809Y-73859571D01*
X66566142Y-73859571D02*
X66759666Y-73666047D01*
%TO.C,R9*%
X69571809Y-60240333D02*
X69329904Y-60071000D01*
X69571809Y-59950047D02*
X69063809Y-59950047D01*
X69063809Y-60143571D01*
X69088000Y-60191952D01*
X69112190Y-60216142D01*
X69160571Y-60240333D01*
X69233142Y-60240333D01*
X69281523Y-60216142D01*
X69305714Y-60191952D01*
X69329904Y-60143571D01*
X69329904Y-59950047D01*
X69571809Y-60482238D02*
X69571809Y-60579000D01*
X69547619Y-60627380D01*
X69523428Y-60651571D01*
X69450857Y-60699952D01*
X69354095Y-60724142D01*
X69160571Y-60724142D01*
X69112190Y-60699952D01*
X69088000Y-60675761D01*
X69063809Y-60627380D01*
X69063809Y-60530619D01*
X69088000Y-60482238D01*
X69112190Y-60458047D01*
X69160571Y-60433857D01*
X69281523Y-60433857D01*
X69329904Y-60458047D01*
X69354095Y-60482238D01*
X69378285Y-60530619D01*
X69378285Y-60627380D01*
X69354095Y-60675761D01*
X69329904Y-60699952D01*
X69281523Y-60724142D01*
X66904809Y-59780714D02*
X66904809Y-59490428D01*
X66904809Y-59635571D02*
X66396809Y-59635571D01*
X66469380Y-59587190D01*
X66517761Y-59538809D01*
X66541952Y-59490428D01*
X66396809Y-60240333D02*
X66396809Y-59998428D01*
X66638714Y-59974238D01*
X66614523Y-59998428D01*
X66590333Y-60046809D01*
X66590333Y-60167761D01*
X66614523Y-60216142D01*
X66638714Y-60240333D01*
X66687095Y-60264523D01*
X66808047Y-60264523D01*
X66856428Y-60240333D01*
X66880619Y-60216142D01*
X66904809Y-60167761D01*
X66904809Y-60046809D01*
X66880619Y-59998428D01*
X66856428Y-59974238D01*
X66396809Y-60579000D02*
X66396809Y-60627380D01*
X66421000Y-60675761D01*
X66445190Y-60699952D01*
X66493571Y-60724142D01*
X66590333Y-60748333D01*
X66711285Y-60748333D01*
X66808047Y-60724142D01*
X66856428Y-60699952D01*
X66880619Y-60675761D01*
X66904809Y-60627380D01*
X66904809Y-60579000D01*
X66880619Y-60530619D01*
X66856428Y-60506428D01*
X66808047Y-60482238D01*
X66711285Y-60458047D01*
X66590333Y-60458047D01*
X66493571Y-60482238D01*
X66445190Y-60506428D01*
X66421000Y-60530619D01*
X66396809Y-60579000D01*
X66904809Y-60966047D02*
X66396809Y-60966047D01*
X66711285Y-61014428D02*
X66904809Y-61159571D01*
X66566142Y-61159571D02*
X66759666Y-60966047D01*
%TO.C,R10*%
X69571809Y-65078428D02*
X69329904Y-64909095D01*
X69571809Y-64788142D02*
X69063809Y-64788142D01*
X69063809Y-64981666D01*
X69088000Y-65030047D01*
X69112190Y-65054238D01*
X69160571Y-65078428D01*
X69233142Y-65078428D01*
X69281523Y-65054238D01*
X69305714Y-65030047D01*
X69329904Y-64981666D01*
X69329904Y-64788142D01*
X69571809Y-65562238D02*
X69571809Y-65271952D01*
X69571809Y-65417095D02*
X69063809Y-65417095D01*
X69136380Y-65368714D01*
X69184761Y-65320333D01*
X69208952Y-65271952D01*
X69063809Y-65876714D02*
X69063809Y-65925095D01*
X69088000Y-65973476D01*
X69112190Y-65997666D01*
X69160571Y-66021857D01*
X69257333Y-66046047D01*
X69378285Y-66046047D01*
X69475047Y-66021857D01*
X69523428Y-65997666D01*
X69547619Y-65973476D01*
X69571809Y-65925095D01*
X69571809Y-65876714D01*
X69547619Y-65828333D01*
X69523428Y-65804142D01*
X69475047Y-65779952D01*
X69378285Y-65755761D01*
X69257333Y-65755761D01*
X69160571Y-65779952D01*
X69112190Y-65804142D01*
X69088000Y-65828333D01*
X69063809Y-65876714D01*
X66445190Y-64570428D02*
X66421000Y-64594619D01*
X66396809Y-64643000D01*
X66396809Y-64763952D01*
X66421000Y-64812333D01*
X66445190Y-64836523D01*
X66493571Y-64860714D01*
X66541952Y-64860714D01*
X66614523Y-64836523D01*
X66904809Y-64546238D01*
X66904809Y-64860714D01*
X66396809Y-65175190D02*
X66396809Y-65223571D01*
X66421000Y-65271952D01*
X66445190Y-65296142D01*
X66493571Y-65320333D01*
X66590333Y-65344523D01*
X66711285Y-65344523D01*
X66808047Y-65320333D01*
X66856428Y-65296142D01*
X66880619Y-65271952D01*
X66904809Y-65223571D01*
X66904809Y-65175190D01*
X66880619Y-65126809D01*
X66856428Y-65102619D01*
X66808047Y-65078428D01*
X66711285Y-65054238D01*
X66590333Y-65054238D01*
X66493571Y-65078428D01*
X66445190Y-65102619D01*
X66421000Y-65126809D01*
X66396809Y-65175190D01*
X66396809Y-65804142D02*
X66396809Y-65562238D01*
X66638714Y-65538047D01*
X66614523Y-65562238D01*
X66590333Y-65610619D01*
X66590333Y-65731571D01*
X66614523Y-65779952D01*
X66638714Y-65804142D01*
X66687095Y-65828333D01*
X66808047Y-65828333D01*
X66856428Y-65804142D01*
X66880619Y-65779952D01*
X66904809Y-65731571D01*
X66904809Y-65610619D01*
X66880619Y-65562238D01*
X66856428Y-65538047D01*
X66904809Y-66046047D02*
X66396809Y-66046047D01*
X66711285Y-66094428D02*
X66904809Y-66239571D01*
X66566142Y-66239571D02*
X66759666Y-66046047D01*
%TO.C,R12*%
X97511809Y-75238428D02*
X97269904Y-75069095D01*
X97511809Y-74948142D02*
X97003809Y-74948142D01*
X97003809Y-75141666D01*
X97028000Y-75190047D01*
X97052190Y-75214238D01*
X97100571Y-75238428D01*
X97173142Y-75238428D01*
X97221523Y-75214238D01*
X97245714Y-75190047D01*
X97269904Y-75141666D01*
X97269904Y-74948142D01*
X97511809Y-75722238D02*
X97511809Y-75431952D01*
X97511809Y-75577095D02*
X97003809Y-75577095D01*
X97076380Y-75528714D01*
X97124761Y-75480333D01*
X97148952Y-75431952D01*
X97052190Y-75915761D02*
X97028000Y-75939952D01*
X97003809Y-75988333D01*
X97003809Y-76109285D01*
X97028000Y-76157666D01*
X97052190Y-76181857D01*
X97100571Y-76206047D01*
X97148952Y-76206047D01*
X97221523Y-76181857D01*
X97511809Y-75891571D01*
X97511809Y-76206047D01*
X94844809Y-75020714D02*
X94844809Y-74730428D01*
X94844809Y-74875571D02*
X94336809Y-74875571D01*
X94409380Y-74827190D01*
X94457761Y-74778809D01*
X94481952Y-74730428D01*
X94336809Y-75480333D02*
X94336809Y-75238428D01*
X94578714Y-75214238D01*
X94554523Y-75238428D01*
X94530333Y-75286809D01*
X94530333Y-75407761D01*
X94554523Y-75456142D01*
X94578714Y-75480333D01*
X94627095Y-75504523D01*
X94748047Y-75504523D01*
X94796428Y-75480333D01*
X94820619Y-75456142D01*
X94844809Y-75407761D01*
X94844809Y-75286809D01*
X94820619Y-75238428D01*
X94796428Y-75214238D01*
X94336809Y-75819000D02*
X94336809Y-75867380D01*
X94361000Y-75915761D01*
X94385190Y-75939952D01*
X94433571Y-75964142D01*
X94530333Y-75988333D01*
X94651285Y-75988333D01*
X94748047Y-75964142D01*
X94796428Y-75939952D01*
X94820619Y-75915761D01*
X94844809Y-75867380D01*
X94844809Y-75819000D01*
X94820619Y-75770619D01*
X94796428Y-75746428D01*
X94748047Y-75722238D01*
X94651285Y-75698047D01*
X94530333Y-75698047D01*
X94433571Y-75722238D01*
X94385190Y-75746428D01*
X94361000Y-75770619D01*
X94336809Y-75819000D01*
X94844809Y-76206047D02*
X94336809Y-76206047D01*
X94651285Y-76254428D02*
X94844809Y-76399571D01*
X94506142Y-76399571D02*
X94699666Y-76206047D01*
%TO.C,R13*%
X97511809Y-80318428D02*
X97269904Y-80149095D01*
X97511809Y-80028142D02*
X97003809Y-80028142D01*
X97003809Y-80221666D01*
X97028000Y-80270047D01*
X97052190Y-80294238D01*
X97100571Y-80318428D01*
X97173142Y-80318428D01*
X97221523Y-80294238D01*
X97245714Y-80270047D01*
X97269904Y-80221666D01*
X97269904Y-80028142D01*
X97511809Y-80802238D02*
X97511809Y-80511952D01*
X97511809Y-80657095D02*
X97003809Y-80657095D01*
X97076380Y-80608714D01*
X97124761Y-80560333D01*
X97148952Y-80511952D01*
X97003809Y-80971571D02*
X97003809Y-81286047D01*
X97197333Y-81116714D01*
X97197333Y-81189285D01*
X97221523Y-81237666D01*
X97245714Y-81261857D01*
X97294095Y-81286047D01*
X97415047Y-81286047D01*
X97463428Y-81261857D01*
X97487619Y-81237666D01*
X97511809Y-81189285D01*
X97511809Y-81044142D01*
X97487619Y-80995761D01*
X97463428Y-80971571D01*
X94385190Y-79810428D02*
X94361000Y-79834619D01*
X94336809Y-79883000D01*
X94336809Y-80003952D01*
X94361000Y-80052333D01*
X94385190Y-80076523D01*
X94433571Y-80100714D01*
X94481952Y-80100714D01*
X94554523Y-80076523D01*
X94844809Y-79786238D01*
X94844809Y-80100714D01*
X94336809Y-80415190D02*
X94336809Y-80463571D01*
X94361000Y-80511952D01*
X94385190Y-80536142D01*
X94433571Y-80560333D01*
X94530333Y-80584523D01*
X94651285Y-80584523D01*
X94748047Y-80560333D01*
X94796428Y-80536142D01*
X94820619Y-80511952D01*
X94844809Y-80463571D01*
X94844809Y-80415190D01*
X94820619Y-80366809D01*
X94796428Y-80342619D01*
X94748047Y-80318428D01*
X94651285Y-80294238D01*
X94530333Y-80294238D01*
X94433571Y-80318428D01*
X94385190Y-80342619D01*
X94361000Y-80366809D01*
X94336809Y-80415190D01*
X94336809Y-81044142D02*
X94336809Y-80802238D01*
X94578714Y-80778047D01*
X94554523Y-80802238D01*
X94530333Y-80850619D01*
X94530333Y-80971571D01*
X94554523Y-81019952D01*
X94578714Y-81044142D01*
X94627095Y-81068333D01*
X94748047Y-81068333D01*
X94796428Y-81044142D01*
X94820619Y-81019952D01*
X94844809Y-80971571D01*
X94844809Y-80850619D01*
X94820619Y-80802238D01*
X94796428Y-80778047D01*
X94844809Y-81286047D02*
X94336809Y-81286047D01*
X94651285Y-81334428D02*
X94844809Y-81479571D01*
X94506142Y-81479571D02*
X94699666Y-81286047D01*
%TO.C,R15*%
X97511809Y-67618428D02*
X97269904Y-67449095D01*
X97511809Y-67328142D02*
X97003809Y-67328142D01*
X97003809Y-67521666D01*
X97028000Y-67570047D01*
X97052190Y-67594238D01*
X97100571Y-67618428D01*
X97173142Y-67618428D01*
X97221523Y-67594238D01*
X97245714Y-67570047D01*
X97269904Y-67521666D01*
X97269904Y-67328142D01*
X97511809Y-68102238D02*
X97511809Y-67811952D01*
X97511809Y-67957095D02*
X97003809Y-67957095D01*
X97076380Y-67908714D01*
X97124761Y-67860333D01*
X97148952Y-67811952D01*
X97003809Y-68561857D02*
X97003809Y-68319952D01*
X97245714Y-68295761D01*
X97221523Y-68319952D01*
X97197333Y-68368333D01*
X97197333Y-68489285D01*
X97221523Y-68537666D01*
X97245714Y-68561857D01*
X97294095Y-68586047D01*
X97415047Y-68586047D01*
X97463428Y-68561857D01*
X97487619Y-68537666D01*
X97511809Y-68489285D01*
X97511809Y-68368333D01*
X97487619Y-68319952D01*
X97463428Y-68295761D01*
X94844809Y-67400714D02*
X94844809Y-67110428D01*
X94844809Y-67255571D02*
X94336809Y-67255571D01*
X94409380Y-67207190D01*
X94457761Y-67158809D01*
X94481952Y-67110428D01*
X94336809Y-67860333D02*
X94336809Y-67618428D01*
X94578714Y-67594238D01*
X94554523Y-67618428D01*
X94530333Y-67666809D01*
X94530333Y-67787761D01*
X94554523Y-67836142D01*
X94578714Y-67860333D01*
X94627095Y-67884523D01*
X94748047Y-67884523D01*
X94796428Y-67860333D01*
X94820619Y-67836142D01*
X94844809Y-67787761D01*
X94844809Y-67666809D01*
X94820619Y-67618428D01*
X94796428Y-67594238D01*
X94336809Y-68199000D02*
X94336809Y-68247380D01*
X94361000Y-68295761D01*
X94385190Y-68319952D01*
X94433571Y-68344142D01*
X94530333Y-68368333D01*
X94651285Y-68368333D01*
X94748047Y-68344142D01*
X94796428Y-68319952D01*
X94820619Y-68295761D01*
X94844809Y-68247380D01*
X94844809Y-68199000D01*
X94820619Y-68150619D01*
X94796428Y-68126428D01*
X94748047Y-68102238D01*
X94651285Y-68078047D01*
X94530333Y-68078047D01*
X94433571Y-68102238D01*
X94385190Y-68126428D01*
X94361000Y-68150619D01*
X94336809Y-68199000D01*
X94844809Y-68586047D02*
X94336809Y-68586047D01*
X94651285Y-68634428D02*
X94844809Y-68779571D01*
X94506142Y-68779571D02*
X94699666Y-68586047D01*
%TO.C,R16*%
X97511809Y-72698428D02*
X97269904Y-72529095D01*
X97511809Y-72408142D02*
X97003809Y-72408142D01*
X97003809Y-72601666D01*
X97028000Y-72650047D01*
X97052190Y-72674238D01*
X97100571Y-72698428D01*
X97173142Y-72698428D01*
X97221523Y-72674238D01*
X97245714Y-72650047D01*
X97269904Y-72601666D01*
X97269904Y-72408142D01*
X97511809Y-73182238D02*
X97511809Y-72891952D01*
X97511809Y-73037095D02*
X97003809Y-73037095D01*
X97076380Y-72988714D01*
X97124761Y-72940333D01*
X97148952Y-72891952D01*
X97003809Y-73617666D02*
X97003809Y-73520904D01*
X97028000Y-73472523D01*
X97052190Y-73448333D01*
X97124761Y-73399952D01*
X97221523Y-73375761D01*
X97415047Y-73375761D01*
X97463428Y-73399952D01*
X97487619Y-73424142D01*
X97511809Y-73472523D01*
X97511809Y-73569285D01*
X97487619Y-73617666D01*
X97463428Y-73641857D01*
X97415047Y-73666047D01*
X97294095Y-73666047D01*
X97245714Y-73641857D01*
X97221523Y-73617666D01*
X97197333Y-73569285D01*
X97197333Y-73472523D01*
X97221523Y-73424142D01*
X97245714Y-73399952D01*
X97294095Y-73375761D01*
X94385190Y-72190428D02*
X94361000Y-72214619D01*
X94336809Y-72263000D01*
X94336809Y-72383952D01*
X94361000Y-72432333D01*
X94385190Y-72456523D01*
X94433571Y-72480714D01*
X94481952Y-72480714D01*
X94554523Y-72456523D01*
X94844809Y-72166238D01*
X94844809Y-72480714D01*
X94336809Y-72795190D02*
X94336809Y-72843571D01*
X94361000Y-72891952D01*
X94385190Y-72916142D01*
X94433571Y-72940333D01*
X94530333Y-72964523D01*
X94651285Y-72964523D01*
X94748047Y-72940333D01*
X94796428Y-72916142D01*
X94820619Y-72891952D01*
X94844809Y-72843571D01*
X94844809Y-72795190D01*
X94820619Y-72746809D01*
X94796428Y-72722619D01*
X94748047Y-72698428D01*
X94651285Y-72674238D01*
X94530333Y-72674238D01*
X94433571Y-72698428D01*
X94385190Y-72722619D01*
X94361000Y-72746809D01*
X94336809Y-72795190D01*
X94336809Y-73424142D02*
X94336809Y-73182238D01*
X94578714Y-73158047D01*
X94554523Y-73182238D01*
X94530333Y-73230619D01*
X94530333Y-73351571D01*
X94554523Y-73399952D01*
X94578714Y-73424142D01*
X94627095Y-73448333D01*
X94748047Y-73448333D01*
X94796428Y-73424142D01*
X94820619Y-73399952D01*
X94844809Y-73351571D01*
X94844809Y-73230619D01*
X94820619Y-73182238D01*
X94796428Y-73158047D01*
X94844809Y-73666047D02*
X94336809Y-73666047D01*
X94651285Y-73714428D02*
X94844809Y-73859571D01*
X94506142Y-73859571D02*
X94699666Y-73666047D01*
%TO.C,R18*%
X97511809Y-59998428D02*
X97269904Y-59829095D01*
X97511809Y-59708142D02*
X97003809Y-59708142D01*
X97003809Y-59901666D01*
X97028000Y-59950047D01*
X97052190Y-59974238D01*
X97100571Y-59998428D01*
X97173142Y-59998428D01*
X97221523Y-59974238D01*
X97245714Y-59950047D01*
X97269904Y-59901666D01*
X97269904Y-59708142D01*
X97511809Y-60482238D02*
X97511809Y-60191952D01*
X97511809Y-60337095D02*
X97003809Y-60337095D01*
X97076380Y-60288714D01*
X97124761Y-60240333D01*
X97148952Y-60191952D01*
X97221523Y-60772523D02*
X97197333Y-60724142D01*
X97173142Y-60699952D01*
X97124761Y-60675761D01*
X97100571Y-60675761D01*
X97052190Y-60699952D01*
X97028000Y-60724142D01*
X97003809Y-60772523D01*
X97003809Y-60869285D01*
X97028000Y-60917666D01*
X97052190Y-60941857D01*
X97100571Y-60966047D01*
X97124761Y-60966047D01*
X97173142Y-60941857D01*
X97197333Y-60917666D01*
X97221523Y-60869285D01*
X97221523Y-60772523D01*
X97245714Y-60724142D01*
X97269904Y-60699952D01*
X97318285Y-60675761D01*
X97415047Y-60675761D01*
X97463428Y-60699952D01*
X97487619Y-60724142D01*
X97511809Y-60772523D01*
X97511809Y-60869285D01*
X97487619Y-60917666D01*
X97463428Y-60941857D01*
X97415047Y-60966047D01*
X97318285Y-60966047D01*
X97269904Y-60941857D01*
X97245714Y-60917666D01*
X97221523Y-60869285D01*
X94844809Y-59780714D02*
X94844809Y-59490428D01*
X94844809Y-59635571D02*
X94336809Y-59635571D01*
X94409380Y-59587190D01*
X94457761Y-59538809D01*
X94481952Y-59490428D01*
X94336809Y-60240333D02*
X94336809Y-59998428D01*
X94578714Y-59974238D01*
X94554523Y-59998428D01*
X94530333Y-60046809D01*
X94530333Y-60167761D01*
X94554523Y-60216142D01*
X94578714Y-60240333D01*
X94627095Y-60264523D01*
X94748047Y-60264523D01*
X94796428Y-60240333D01*
X94820619Y-60216142D01*
X94844809Y-60167761D01*
X94844809Y-60046809D01*
X94820619Y-59998428D01*
X94796428Y-59974238D01*
X94336809Y-60579000D02*
X94336809Y-60627380D01*
X94361000Y-60675761D01*
X94385190Y-60699952D01*
X94433571Y-60724142D01*
X94530333Y-60748333D01*
X94651285Y-60748333D01*
X94748047Y-60724142D01*
X94796428Y-60699952D01*
X94820619Y-60675761D01*
X94844809Y-60627380D01*
X94844809Y-60579000D01*
X94820619Y-60530619D01*
X94796428Y-60506428D01*
X94748047Y-60482238D01*
X94651285Y-60458047D01*
X94530333Y-60458047D01*
X94433571Y-60482238D01*
X94385190Y-60506428D01*
X94361000Y-60530619D01*
X94336809Y-60579000D01*
X94844809Y-60966047D02*
X94336809Y-60966047D01*
X94651285Y-61014428D02*
X94844809Y-61159571D01*
X94506142Y-61159571D02*
X94699666Y-60966047D01*
%TO.C,R19*%
X97511809Y-65078428D02*
X97269904Y-64909095D01*
X97511809Y-64788142D02*
X97003809Y-64788142D01*
X97003809Y-64981666D01*
X97028000Y-65030047D01*
X97052190Y-65054238D01*
X97100571Y-65078428D01*
X97173142Y-65078428D01*
X97221523Y-65054238D01*
X97245714Y-65030047D01*
X97269904Y-64981666D01*
X97269904Y-64788142D01*
X97511809Y-65562238D02*
X97511809Y-65271952D01*
X97511809Y-65417095D02*
X97003809Y-65417095D01*
X97076380Y-65368714D01*
X97124761Y-65320333D01*
X97148952Y-65271952D01*
X97511809Y-65804142D02*
X97511809Y-65900904D01*
X97487619Y-65949285D01*
X97463428Y-65973476D01*
X97390857Y-66021857D01*
X97294095Y-66046047D01*
X97100571Y-66046047D01*
X97052190Y-66021857D01*
X97028000Y-65997666D01*
X97003809Y-65949285D01*
X97003809Y-65852523D01*
X97028000Y-65804142D01*
X97052190Y-65779952D01*
X97100571Y-65755761D01*
X97221523Y-65755761D01*
X97269904Y-65779952D01*
X97294095Y-65804142D01*
X97318285Y-65852523D01*
X97318285Y-65949285D01*
X97294095Y-65997666D01*
X97269904Y-66021857D01*
X97221523Y-66046047D01*
X94385190Y-64570428D02*
X94361000Y-64594619D01*
X94336809Y-64643000D01*
X94336809Y-64763952D01*
X94361000Y-64812333D01*
X94385190Y-64836523D01*
X94433571Y-64860714D01*
X94481952Y-64860714D01*
X94554523Y-64836523D01*
X94844809Y-64546238D01*
X94844809Y-64860714D01*
X94336809Y-65175190D02*
X94336809Y-65223571D01*
X94361000Y-65271952D01*
X94385190Y-65296142D01*
X94433571Y-65320333D01*
X94530333Y-65344523D01*
X94651285Y-65344523D01*
X94748047Y-65320333D01*
X94796428Y-65296142D01*
X94820619Y-65271952D01*
X94844809Y-65223571D01*
X94844809Y-65175190D01*
X94820619Y-65126809D01*
X94796428Y-65102619D01*
X94748047Y-65078428D01*
X94651285Y-65054238D01*
X94530333Y-65054238D01*
X94433571Y-65078428D01*
X94385190Y-65102619D01*
X94361000Y-65126809D01*
X94336809Y-65175190D01*
X94336809Y-65804142D02*
X94336809Y-65562238D01*
X94578714Y-65538047D01*
X94554523Y-65562238D01*
X94530333Y-65610619D01*
X94530333Y-65731571D01*
X94554523Y-65779952D01*
X94578714Y-65804142D01*
X94627095Y-65828333D01*
X94748047Y-65828333D01*
X94796428Y-65804142D01*
X94820619Y-65779952D01*
X94844809Y-65731571D01*
X94844809Y-65610619D01*
X94820619Y-65562238D01*
X94796428Y-65538047D01*
X94844809Y-66046047D02*
X94336809Y-66046047D01*
X94651285Y-66094428D02*
X94844809Y-66239571D01*
X94506142Y-66239571D02*
X94699666Y-66046047D01*
%TO.C,R21*%
X125451809Y-75238428D02*
X125209904Y-75069095D01*
X125451809Y-74948142D02*
X124943809Y-74948142D01*
X124943809Y-75141666D01*
X124968000Y-75190047D01*
X124992190Y-75214238D01*
X125040571Y-75238428D01*
X125113142Y-75238428D01*
X125161523Y-75214238D01*
X125185714Y-75190047D01*
X125209904Y-75141666D01*
X125209904Y-74948142D01*
X124992190Y-75431952D02*
X124968000Y-75456142D01*
X124943809Y-75504523D01*
X124943809Y-75625476D01*
X124968000Y-75673857D01*
X124992190Y-75698047D01*
X125040571Y-75722238D01*
X125088952Y-75722238D01*
X125161523Y-75698047D01*
X125451809Y-75407761D01*
X125451809Y-75722238D01*
X125451809Y-76206047D02*
X125451809Y-75915761D01*
X125451809Y-76060904D02*
X124943809Y-76060904D01*
X125016380Y-76012523D01*
X125064761Y-75964142D01*
X125088952Y-75915761D01*
X122784809Y-75020714D02*
X122784809Y-74730428D01*
X122784809Y-74875571D02*
X122276809Y-74875571D01*
X122349380Y-74827190D01*
X122397761Y-74778809D01*
X122421952Y-74730428D01*
X122276809Y-75480333D02*
X122276809Y-75238428D01*
X122518714Y-75214238D01*
X122494523Y-75238428D01*
X122470333Y-75286809D01*
X122470333Y-75407761D01*
X122494523Y-75456142D01*
X122518714Y-75480333D01*
X122567095Y-75504523D01*
X122688047Y-75504523D01*
X122736428Y-75480333D01*
X122760619Y-75456142D01*
X122784809Y-75407761D01*
X122784809Y-75286809D01*
X122760619Y-75238428D01*
X122736428Y-75214238D01*
X122276809Y-75819000D02*
X122276809Y-75867380D01*
X122301000Y-75915761D01*
X122325190Y-75939952D01*
X122373571Y-75964142D01*
X122470333Y-75988333D01*
X122591285Y-75988333D01*
X122688047Y-75964142D01*
X122736428Y-75939952D01*
X122760619Y-75915761D01*
X122784809Y-75867380D01*
X122784809Y-75819000D01*
X122760619Y-75770619D01*
X122736428Y-75746428D01*
X122688047Y-75722238D01*
X122591285Y-75698047D01*
X122470333Y-75698047D01*
X122373571Y-75722238D01*
X122325190Y-75746428D01*
X122301000Y-75770619D01*
X122276809Y-75819000D01*
X122784809Y-76206047D02*
X122276809Y-76206047D01*
X122591285Y-76254428D02*
X122784809Y-76399571D01*
X122446142Y-76399571D02*
X122639666Y-76206047D01*
%TO.C,R22*%
X125451809Y-80318428D02*
X125209904Y-80149095D01*
X125451809Y-80028142D02*
X124943809Y-80028142D01*
X124943809Y-80221666D01*
X124968000Y-80270047D01*
X124992190Y-80294238D01*
X125040571Y-80318428D01*
X125113142Y-80318428D01*
X125161523Y-80294238D01*
X125185714Y-80270047D01*
X125209904Y-80221666D01*
X125209904Y-80028142D01*
X124992190Y-80511952D02*
X124968000Y-80536142D01*
X124943809Y-80584523D01*
X124943809Y-80705476D01*
X124968000Y-80753857D01*
X124992190Y-80778047D01*
X125040571Y-80802238D01*
X125088952Y-80802238D01*
X125161523Y-80778047D01*
X125451809Y-80487761D01*
X125451809Y-80802238D01*
X124992190Y-80995761D02*
X124968000Y-81019952D01*
X124943809Y-81068333D01*
X124943809Y-81189285D01*
X124968000Y-81237666D01*
X124992190Y-81261857D01*
X125040571Y-81286047D01*
X125088952Y-81286047D01*
X125161523Y-81261857D01*
X125451809Y-80971571D01*
X125451809Y-81286047D01*
X122325190Y-79810428D02*
X122301000Y-79834619D01*
X122276809Y-79883000D01*
X122276809Y-80003952D01*
X122301000Y-80052333D01*
X122325190Y-80076523D01*
X122373571Y-80100714D01*
X122421952Y-80100714D01*
X122494523Y-80076523D01*
X122784809Y-79786238D01*
X122784809Y-80100714D01*
X122276809Y-80415190D02*
X122276809Y-80463571D01*
X122301000Y-80511952D01*
X122325190Y-80536142D01*
X122373571Y-80560333D01*
X122470333Y-80584523D01*
X122591285Y-80584523D01*
X122688047Y-80560333D01*
X122736428Y-80536142D01*
X122760619Y-80511952D01*
X122784809Y-80463571D01*
X122784809Y-80415190D01*
X122760619Y-80366809D01*
X122736428Y-80342619D01*
X122688047Y-80318428D01*
X122591285Y-80294238D01*
X122470333Y-80294238D01*
X122373571Y-80318428D01*
X122325190Y-80342619D01*
X122301000Y-80366809D01*
X122276809Y-80415190D01*
X122276809Y-81044142D02*
X122276809Y-80802238D01*
X122518714Y-80778047D01*
X122494523Y-80802238D01*
X122470333Y-80850619D01*
X122470333Y-80971571D01*
X122494523Y-81019952D01*
X122518714Y-81044142D01*
X122567095Y-81068333D01*
X122688047Y-81068333D01*
X122736428Y-81044142D01*
X122760619Y-81019952D01*
X122784809Y-80971571D01*
X122784809Y-80850619D01*
X122760619Y-80802238D01*
X122736428Y-80778047D01*
X122784809Y-81286047D02*
X122276809Y-81286047D01*
X122591285Y-81334428D02*
X122784809Y-81479571D01*
X122446142Y-81479571D02*
X122639666Y-81286047D01*
%TO.C,R24*%
X125451809Y-67618428D02*
X125209904Y-67449095D01*
X125451809Y-67328142D02*
X124943809Y-67328142D01*
X124943809Y-67521666D01*
X124968000Y-67570047D01*
X124992190Y-67594238D01*
X125040571Y-67618428D01*
X125113142Y-67618428D01*
X125161523Y-67594238D01*
X125185714Y-67570047D01*
X125209904Y-67521666D01*
X125209904Y-67328142D01*
X124992190Y-67811952D02*
X124968000Y-67836142D01*
X124943809Y-67884523D01*
X124943809Y-68005476D01*
X124968000Y-68053857D01*
X124992190Y-68078047D01*
X125040571Y-68102238D01*
X125088952Y-68102238D01*
X125161523Y-68078047D01*
X125451809Y-67787761D01*
X125451809Y-68102238D01*
X125113142Y-68537666D02*
X125451809Y-68537666D01*
X124919619Y-68416714D02*
X125282476Y-68295761D01*
X125282476Y-68610238D01*
X122784809Y-67400714D02*
X122784809Y-67110428D01*
X122784809Y-67255571D02*
X122276809Y-67255571D01*
X122349380Y-67207190D01*
X122397761Y-67158809D01*
X122421952Y-67110428D01*
X122276809Y-67860333D02*
X122276809Y-67618428D01*
X122518714Y-67594238D01*
X122494523Y-67618428D01*
X122470333Y-67666809D01*
X122470333Y-67787761D01*
X122494523Y-67836142D01*
X122518714Y-67860333D01*
X122567095Y-67884523D01*
X122688047Y-67884523D01*
X122736428Y-67860333D01*
X122760619Y-67836142D01*
X122784809Y-67787761D01*
X122784809Y-67666809D01*
X122760619Y-67618428D01*
X122736428Y-67594238D01*
X122276809Y-68199000D02*
X122276809Y-68247380D01*
X122301000Y-68295761D01*
X122325190Y-68319952D01*
X122373571Y-68344142D01*
X122470333Y-68368333D01*
X122591285Y-68368333D01*
X122688047Y-68344142D01*
X122736428Y-68319952D01*
X122760619Y-68295761D01*
X122784809Y-68247380D01*
X122784809Y-68199000D01*
X122760619Y-68150619D01*
X122736428Y-68126428D01*
X122688047Y-68102238D01*
X122591285Y-68078047D01*
X122470333Y-68078047D01*
X122373571Y-68102238D01*
X122325190Y-68126428D01*
X122301000Y-68150619D01*
X122276809Y-68199000D01*
X122784809Y-68586047D02*
X122276809Y-68586047D01*
X122591285Y-68634428D02*
X122784809Y-68779571D01*
X122446142Y-68779571D02*
X122639666Y-68586047D01*
%TO.C,R25*%
X125451809Y-72698428D02*
X125209904Y-72529095D01*
X125451809Y-72408142D02*
X124943809Y-72408142D01*
X124943809Y-72601666D01*
X124968000Y-72650047D01*
X124992190Y-72674238D01*
X125040571Y-72698428D01*
X125113142Y-72698428D01*
X125161523Y-72674238D01*
X125185714Y-72650047D01*
X125209904Y-72601666D01*
X125209904Y-72408142D01*
X124992190Y-72891952D02*
X124968000Y-72916142D01*
X124943809Y-72964523D01*
X124943809Y-73085476D01*
X124968000Y-73133857D01*
X124992190Y-73158047D01*
X125040571Y-73182238D01*
X125088952Y-73182238D01*
X125161523Y-73158047D01*
X125451809Y-72867761D01*
X125451809Y-73182238D01*
X124943809Y-73641857D02*
X124943809Y-73399952D01*
X125185714Y-73375761D01*
X125161523Y-73399952D01*
X125137333Y-73448333D01*
X125137333Y-73569285D01*
X125161523Y-73617666D01*
X125185714Y-73641857D01*
X125234095Y-73666047D01*
X125355047Y-73666047D01*
X125403428Y-73641857D01*
X125427619Y-73617666D01*
X125451809Y-73569285D01*
X125451809Y-73448333D01*
X125427619Y-73399952D01*
X125403428Y-73375761D01*
X122325190Y-72190428D02*
X122301000Y-72214619D01*
X122276809Y-72263000D01*
X122276809Y-72383952D01*
X122301000Y-72432333D01*
X122325190Y-72456523D01*
X122373571Y-72480714D01*
X122421952Y-72480714D01*
X122494523Y-72456523D01*
X122784809Y-72166238D01*
X122784809Y-72480714D01*
X122276809Y-72795190D02*
X122276809Y-72843571D01*
X122301000Y-72891952D01*
X122325190Y-72916142D01*
X122373571Y-72940333D01*
X122470333Y-72964523D01*
X122591285Y-72964523D01*
X122688047Y-72940333D01*
X122736428Y-72916142D01*
X122760619Y-72891952D01*
X122784809Y-72843571D01*
X122784809Y-72795190D01*
X122760619Y-72746809D01*
X122736428Y-72722619D01*
X122688047Y-72698428D01*
X122591285Y-72674238D01*
X122470333Y-72674238D01*
X122373571Y-72698428D01*
X122325190Y-72722619D01*
X122301000Y-72746809D01*
X122276809Y-72795190D01*
X122276809Y-73424142D02*
X122276809Y-73182238D01*
X122518714Y-73158047D01*
X122494523Y-73182238D01*
X122470333Y-73230619D01*
X122470333Y-73351571D01*
X122494523Y-73399952D01*
X122518714Y-73424142D01*
X122567095Y-73448333D01*
X122688047Y-73448333D01*
X122736428Y-73424142D01*
X122760619Y-73399952D01*
X122784809Y-73351571D01*
X122784809Y-73230619D01*
X122760619Y-73182238D01*
X122736428Y-73158047D01*
X122784809Y-73666047D02*
X122276809Y-73666047D01*
X122591285Y-73714428D02*
X122784809Y-73859571D01*
X122446142Y-73859571D02*
X122639666Y-73666047D01*
%TO.C,R27*%
X125451809Y-59998428D02*
X125209904Y-59829095D01*
X125451809Y-59708142D02*
X124943809Y-59708142D01*
X124943809Y-59901666D01*
X124968000Y-59950047D01*
X124992190Y-59974238D01*
X125040571Y-59998428D01*
X125113142Y-59998428D01*
X125161523Y-59974238D01*
X125185714Y-59950047D01*
X125209904Y-59901666D01*
X125209904Y-59708142D01*
X124992190Y-60191952D02*
X124968000Y-60216142D01*
X124943809Y-60264523D01*
X124943809Y-60385476D01*
X124968000Y-60433857D01*
X124992190Y-60458047D01*
X125040571Y-60482238D01*
X125088952Y-60482238D01*
X125161523Y-60458047D01*
X125451809Y-60167761D01*
X125451809Y-60482238D01*
X124943809Y-60651571D02*
X124943809Y-60990238D01*
X125451809Y-60772523D01*
X122784809Y-59780714D02*
X122784809Y-59490428D01*
X122784809Y-59635571D02*
X122276809Y-59635571D01*
X122349380Y-59587190D01*
X122397761Y-59538809D01*
X122421952Y-59490428D01*
X122276809Y-60240333D02*
X122276809Y-59998428D01*
X122518714Y-59974238D01*
X122494523Y-59998428D01*
X122470333Y-60046809D01*
X122470333Y-60167761D01*
X122494523Y-60216142D01*
X122518714Y-60240333D01*
X122567095Y-60264523D01*
X122688047Y-60264523D01*
X122736428Y-60240333D01*
X122760619Y-60216142D01*
X122784809Y-60167761D01*
X122784809Y-60046809D01*
X122760619Y-59998428D01*
X122736428Y-59974238D01*
X122276809Y-60579000D02*
X122276809Y-60627380D01*
X122301000Y-60675761D01*
X122325190Y-60699952D01*
X122373571Y-60724142D01*
X122470333Y-60748333D01*
X122591285Y-60748333D01*
X122688047Y-60724142D01*
X122736428Y-60699952D01*
X122760619Y-60675761D01*
X122784809Y-60627380D01*
X122784809Y-60579000D01*
X122760619Y-60530619D01*
X122736428Y-60506428D01*
X122688047Y-60482238D01*
X122591285Y-60458047D01*
X122470333Y-60458047D01*
X122373571Y-60482238D01*
X122325190Y-60506428D01*
X122301000Y-60530619D01*
X122276809Y-60579000D01*
X122784809Y-60966047D02*
X122276809Y-60966047D01*
X122591285Y-61014428D02*
X122784809Y-61159571D01*
X122446142Y-61159571D02*
X122639666Y-60966047D01*
%TO.C,R28*%
X125451809Y-65078428D02*
X125209904Y-64909095D01*
X125451809Y-64788142D02*
X124943809Y-64788142D01*
X124943809Y-64981666D01*
X124968000Y-65030047D01*
X124992190Y-65054238D01*
X125040571Y-65078428D01*
X125113142Y-65078428D01*
X125161523Y-65054238D01*
X125185714Y-65030047D01*
X125209904Y-64981666D01*
X125209904Y-64788142D01*
X124992190Y-65271952D02*
X124968000Y-65296142D01*
X124943809Y-65344523D01*
X124943809Y-65465476D01*
X124968000Y-65513857D01*
X124992190Y-65538047D01*
X125040571Y-65562238D01*
X125088952Y-65562238D01*
X125161523Y-65538047D01*
X125451809Y-65247761D01*
X125451809Y-65562238D01*
X125161523Y-65852523D02*
X125137333Y-65804142D01*
X125113142Y-65779952D01*
X125064761Y-65755761D01*
X125040571Y-65755761D01*
X124992190Y-65779952D01*
X124968000Y-65804142D01*
X124943809Y-65852523D01*
X124943809Y-65949285D01*
X124968000Y-65997666D01*
X124992190Y-66021857D01*
X125040571Y-66046047D01*
X125064761Y-66046047D01*
X125113142Y-66021857D01*
X125137333Y-65997666D01*
X125161523Y-65949285D01*
X125161523Y-65852523D01*
X125185714Y-65804142D01*
X125209904Y-65779952D01*
X125258285Y-65755761D01*
X125355047Y-65755761D01*
X125403428Y-65779952D01*
X125427619Y-65804142D01*
X125451809Y-65852523D01*
X125451809Y-65949285D01*
X125427619Y-65997666D01*
X125403428Y-66021857D01*
X125355047Y-66046047D01*
X125258285Y-66046047D01*
X125209904Y-66021857D01*
X125185714Y-65997666D01*
X125161523Y-65949285D01*
X122325190Y-64570428D02*
X122301000Y-64594619D01*
X122276809Y-64643000D01*
X122276809Y-64763952D01*
X122301000Y-64812333D01*
X122325190Y-64836523D01*
X122373571Y-64860714D01*
X122421952Y-64860714D01*
X122494523Y-64836523D01*
X122784809Y-64546238D01*
X122784809Y-64860714D01*
X122276809Y-65175190D02*
X122276809Y-65223571D01*
X122301000Y-65271952D01*
X122325190Y-65296142D01*
X122373571Y-65320333D01*
X122470333Y-65344523D01*
X122591285Y-65344523D01*
X122688047Y-65320333D01*
X122736428Y-65296142D01*
X122760619Y-65271952D01*
X122784809Y-65223571D01*
X122784809Y-65175190D01*
X122760619Y-65126809D01*
X122736428Y-65102619D01*
X122688047Y-65078428D01*
X122591285Y-65054238D01*
X122470333Y-65054238D01*
X122373571Y-65078428D01*
X122325190Y-65102619D01*
X122301000Y-65126809D01*
X122276809Y-65175190D01*
X122276809Y-65804142D02*
X122276809Y-65562238D01*
X122518714Y-65538047D01*
X122494523Y-65562238D01*
X122470333Y-65610619D01*
X122470333Y-65731571D01*
X122494523Y-65779952D01*
X122518714Y-65804142D01*
X122567095Y-65828333D01*
X122688047Y-65828333D01*
X122736428Y-65804142D01*
X122760619Y-65779952D01*
X122784809Y-65731571D01*
X122784809Y-65610619D01*
X122760619Y-65562238D01*
X122736428Y-65538047D01*
X122784809Y-66046047D02*
X122276809Y-66046047D01*
X122591285Y-66094428D02*
X122784809Y-66239571D01*
X122446142Y-66239571D02*
X122639666Y-66046047D01*
%TO.C,R2*%
X84539666Y-115926809D02*
X84709000Y-115684904D01*
X84829952Y-115926809D02*
X84829952Y-115418809D01*
X84636428Y-115418809D01*
X84588047Y-115443000D01*
X84563857Y-115467190D01*
X84539666Y-115515571D01*
X84539666Y-115588142D01*
X84563857Y-115636523D01*
X84588047Y-115660714D01*
X84636428Y-115684904D01*
X84829952Y-115684904D01*
X84346142Y-115467190D02*
X84321952Y-115443000D01*
X84273571Y-115418809D01*
X84152619Y-115418809D01*
X84104238Y-115443000D01*
X84080047Y-115467190D01*
X84055857Y-115515571D01*
X84055857Y-115563952D01*
X84080047Y-115636523D01*
X84370333Y-115926809D01*
X84055857Y-115926809D01*
X85108142Y-112751809D02*
X84793666Y-112751809D01*
X84963000Y-112945333D01*
X84890428Y-112945333D01*
X84842047Y-112969523D01*
X84817857Y-112993714D01*
X84793666Y-113042095D01*
X84793666Y-113163047D01*
X84817857Y-113211428D01*
X84842047Y-113235619D01*
X84890428Y-113259809D01*
X85035571Y-113259809D01*
X85083952Y-113235619D01*
X85108142Y-113211428D01*
X84551761Y-113259809D02*
X84455000Y-113259809D01*
X84406619Y-113235619D01*
X84382428Y-113211428D01*
X84334047Y-113138857D01*
X84309857Y-113042095D01*
X84309857Y-112848571D01*
X84334047Y-112800190D01*
X84358238Y-112776000D01*
X84406619Y-112751809D01*
X84503380Y-112751809D01*
X84551761Y-112776000D01*
X84575952Y-112800190D01*
X84600142Y-112848571D01*
X84600142Y-112969523D01*
X84575952Y-113017904D01*
X84551761Y-113042095D01*
X84503380Y-113066285D01*
X84406619Y-113066285D01*
X84358238Y-113042095D01*
X84334047Y-113017904D01*
X84309857Y-112969523D01*
X83995380Y-112751809D02*
X83947000Y-112751809D01*
X83898619Y-112776000D01*
X83874428Y-112800190D01*
X83850238Y-112848571D01*
X83826047Y-112945333D01*
X83826047Y-113066285D01*
X83850238Y-113163047D01*
X83874428Y-113211428D01*
X83898619Y-113235619D01*
X83947000Y-113259809D01*
X83995380Y-113259809D01*
X84043761Y-113235619D01*
X84067952Y-113211428D01*
X84092142Y-113163047D01*
X84116333Y-113066285D01*
X84116333Y-112945333D01*
X84092142Y-112848571D01*
X84067952Y-112800190D01*
X84043761Y-112776000D01*
X83995380Y-112751809D01*
%TO.C,R5*%
X84539666Y-110846809D02*
X84709000Y-110604904D01*
X84829952Y-110846809D02*
X84829952Y-110338809D01*
X84636428Y-110338809D01*
X84588047Y-110363000D01*
X84563857Y-110387190D01*
X84539666Y-110435571D01*
X84539666Y-110508142D01*
X84563857Y-110556523D01*
X84588047Y-110580714D01*
X84636428Y-110604904D01*
X84829952Y-110604904D01*
X84080047Y-110338809D02*
X84321952Y-110338809D01*
X84346142Y-110580714D01*
X84321952Y-110556523D01*
X84273571Y-110532333D01*
X84152619Y-110532333D01*
X84104238Y-110556523D01*
X84080047Y-110580714D01*
X84055857Y-110629095D01*
X84055857Y-110750047D01*
X84080047Y-110798428D01*
X84104238Y-110822619D01*
X84152619Y-110846809D01*
X84273571Y-110846809D01*
X84321952Y-110822619D01*
X84346142Y-110798428D01*
X85108142Y-107671809D02*
X84793666Y-107671809D01*
X84963000Y-107865333D01*
X84890428Y-107865333D01*
X84842047Y-107889523D01*
X84817857Y-107913714D01*
X84793666Y-107962095D01*
X84793666Y-108083047D01*
X84817857Y-108131428D01*
X84842047Y-108155619D01*
X84890428Y-108179809D01*
X85035571Y-108179809D01*
X85083952Y-108155619D01*
X85108142Y-108131428D01*
X84551761Y-108179809D02*
X84455000Y-108179809D01*
X84406619Y-108155619D01*
X84382428Y-108131428D01*
X84334047Y-108058857D01*
X84309857Y-107962095D01*
X84309857Y-107768571D01*
X84334047Y-107720190D01*
X84358238Y-107696000D01*
X84406619Y-107671809D01*
X84503380Y-107671809D01*
X84551761Y-107696000D01*
X84575952Y-107720190D01*
X84600142Y-107768571D01*
X84600142Y-107889523D01*
X84575952Y-107937904D01*
X84551761Y-107962095D01*
X84503380Y-107986285D01*
X84406619Y-107986285D01*
X84358238Y-107962095D01*
X84334047Y-107937904D01*
X84309857Y-107889523D01*
X83995380Y-107671809D02*
X83947000Y-107671809D01*
X83898619Y-107696000D01*
X83874428Y-107720190D01*
X83850238Y-107768571D01*
X83826047Y-107865333D01*
X83826047Y-107986285D01*
X83850238Y-108083047D01*
X83874428Y-108131428D01*
X83898619Y-108155619D01*
X83947000Y-108179809D01*
X83995380Y-108179809D01*
X84043761Y-108155619D01*
X84067952Y-108131428D01*
X84092142Y-108083047D01*
X84116333Y-107986285D01*
X84116333Y-107865333D01*
X84092142Y-107768571D01*
X84067952Y-107720190D01*
X84043761Y-107696000D01*
X83995380Y-107671809D01*
%TO.C,R8*%
X84539666Y-105766809D02*
X84709000Y-105524904D01*
X84829952Y-105766809D02*
X84829952Y-105258809D01*
X84636428Y-105258809D01*
X84588047Y-105283000D01*
X84563857Y-105307190D01*
X84539666Y-105355571D01*
X84539666Y-105428142D01*
X84563857Y-105476523D01*
X84588047Y-105500714D01*
X84636428Y-105524904D01*
X84829952Y-105524904D01*
X84249380Y-105476523D02*
X84297761Y-105452333D01*
X84321952Y-105428142D01*
X84346142Y-105379761D01*
X84346142Y-105355571D01*
X84321952Y-105307190D01*
X84297761Y-105283000D01*
X84249380Y-105258809D01*
X84152619Y-105258809D01*
X84104238Y-105283000D01*
X84080047Y-105307190D01*
X84055857Y-105355571D01*
X84055857Y-105379761D01*
X84080047Y-105428142D01*
X84104238Y-105452333D01*
X84152619Y-105476523D01*
X84249380Y-105476523D01*
X84297761Y-105500714D01*
X84321952Y-105524904D01*
X84346142Y-105573285D01*
X84346142Y-105670047D01*
X84321952Y-105718428D01*
X84297761Y-105742619D01*
X84249380Y-105766809D01*
X84152619Y-105766809D01*
X84104238Y-105742619D01*
X84080047Y-105718428D01*
X84055857Y-105670047D01*
X84055857Y-105573285D01*
X84080047Y-105524904D01*
X84104238Y-105500714D01*
X84152619Y-105476523D01*
X85108142Y-102591809D02*
X84793666Y-102591809D01*
X84963000Y-102785333D01*
X84890428Y-102785333D01*
X84842047Y-102809523D01*
X84817857Y-102833714D01*
X84793666Y-102882095D01*
X84793666Y-103003047D01*
X84817857Y-103051428D01*
X84842047Y-103075619D01*
X84890428Y-103099809D01*
X85035571Y-103099809D01*
X85083952Y-103075619D01*
X85108142Y-103051428D01*
X84551761Y-103099809D02*
X84455000Y-103099809D01*
X84406619Y-103075619D01*
X84382428Y-103051428D01*
X84334047Y-102978857D01*
X84309857Y-102882095D01*
X84309857Y-102688571D01*
X84334047Y-102640190D01*
X84358238Y-102616000D01*
X84406619Y-102591809D01*
X84503380Y-102591809D01*
X84551761Y-102616000D01*
X84575952Y-102640190D01*
X84600142Y-102688571D01*
X84600142Y-102809523D01*
X84575952Y-102857904D01*
X84551761Y-102882095D01*
X84503380Y-102906285D01*
X84406619Y-102906285D01*
X84358238Y-102882095D01*
X84334047Y-102857904D01*
X84309857Y-102809523D01*
X83995380Y-102591809D02*
X83947000Y-102591809D01*
X83898619Y-102616000D01*
X83874428Y-102640190D01*
X83850238Y-102688571D01*
X83826047Y-102785333D01*
X83826047Y-102906285D01*
X83850238Y-103003047D01*
X83874428Y-103051428D01*
X83898619Y-103075619D01*
X83947000Y-103099809D01*
X83995380Y-103099809D01*
X84043761Y-103075619D01*
X84067952Y-103051428D01*
X84092142Y-103003047D01*
X84116333Y-102906285D01*
X84116333Y-102785333D01*
X84092142Y-102688571D01*
X84067952Y-102640190D01*
X84043761Y-102616000D01*
X83995380Y-102591809D01*
%TO.C,R11*%
X89861571Y-115926809D02*
X90030904Y-115684904D01*
X90151857Y-115926809D02*
X90151857Y-115418809D01*
X89958333Y-115418809D01*
X89909952Y-115443000D01*
X89885761Y-115467190D01*
X89861571Y-115515571D01*
X89861571Y-115588142D01*
X89885761Y-115636523D01*
X89909952Y-115660714D01*
X89958333Y-115684904D01*
X90151857Y-115684904D01*
X89377761Y-115926809D02*
X89668047Y-115926809D01*
X89522904Y-115926809D02*
X89522904Y-115418809D01*
X89571285Y-115491380D01*
X89619666Y-115539761D01*
X89668047Y-115563952D01*
X88893952Y-115926809D02*
X89184238Y-115926809D01*
X89039095Y-115926809D02*
X89039095Y-115418809D01*
X89087476Y-115491380D01*
X89135857Y-115539761D01*
X89184238Y-115563952D01*
X90188142Y-112751809D02*
X89873666Y-112751809D01*
X90043000Y-112945333D01*
X89970428Y-112945333D01*
X89922047Y-112969523D01*
X89897857Y-112993714D01*
X89873666Y-113042095D01*
X89873666Y-113163047D01*
X89897857Y-113211428D01*
X89922047Y-113235619D01*
X89970428Y-113259809D01*
X90115571Y-113259809D01*
X90163952Y-113235619D01*
X90188142Y-113211428D01*
X89631761Y-113259809D02*
X89535000Y-113259809D01*
X89486619Y-113235619D01*
X89462428Y-113211428D01*
X89414047Y-113138857D01*
X89389857Y-113042095D01*
X89389857Y-112848571D01*
X89414047Y-112800190D01*
X89438238Y-112776000D01*
X89486619Y-112751809D01*
X89583380Y-112751809D01*
X89631761Y-112776000D01*
X89655952Y-112800190D01*
X89680142Y-112848571D01*
X89680142Y-112969523D01*
X89655952Y-113017904D01*
X89631761Y-113042095D01*
X89583380Y-113066285D01*
X89486619Y-113066285D01*
X89438238Y-113042095D01*
X89414047Y-113017904D01*
X89389857Y-112969523D01*
X89075380Y-112751809D02*
X89027000Y-112751809D01*
X88978619Y-112776000D01*
X88954428Y-112800190D01*
X88930238Y-112848571D01*
X88906047Y-112945333D01*
X88906047Y-113066285D01*
X88930238Y-113163047D01*
X88954428Y-113211428D01*
X88978619Y-113235619D01*
X89027000Y-113259809D01*
X89075380Y-113259809D01*
X89123761Y-113235619D01*
X89147952Y-113211428D01*
X89172142Y-113163047D01*
X89196333Y-113066285D01*
X89196333Y-112945333D01*
X89172142Y-112848571D01*
X89147952Y-112800190D01*
X89123761Y-112776000D01*
X89075380Y-112751809D01*
%TO.C,R14*%
X89861571Y-110846809D02*
X90030904Y-110604904D01*
X90151857Y-110846809D02*
X90151857Y-110338809D01*
X89958333Y-110338809D01*
X89909952Y-110363000D01*
X89885761Y-110387190D01*
X89861571Y-110435571D01*
X89861571Y-110508142D01*
X89885761Y-110556523D01*
X89909952Y-110580714D01*
X89958333Y-110604904D01*
X90151857Y-110604904D01*
X89377761Y-110846809D02*
X89668047Y-110846809D01*
X89522904Y-110846809D02*
X89522904Y-110338809D01*
X89571285Y-110411380D01*
X89619666Y-110459761D01*
X89668047Y-110483952D01*
X88942333Y-110508142D02*
X88942333Y-110846809D01*
X89063285Y-110314619D02*
X89184238Y-110677476D01*
X88869761Y-110677476D01*
X90188142Y-107671809D02*
X89873666Y-107671809D01*
X90043000Y-107865333D01*
X89970428Y-107865333D01*
X89922047Y-107889523D01*
X89897857Y-107913714D01*
X89873666Y-107962095D01*
X89873666Y-108083047D01*
X89897857Y-108131428D01*
X89922047Y-108155619D01*
X89970428Y-108179809D01*
X90115571Y-108179809D01*
X90163952Y-108155619D01*
X90188142Y-108131428D01*
X89631761Y-108179809D02*
X89535000Y-108179809D01*
X89486619Y-108155619D01*
X89462428Y-108131428D01*
X89414047Y-108058857D01*
X89389857Y-107962095D01*
X89389857Y-107768571D01*
X89414047Y-107720190D01*
X89438238Y-107696000D01*
X89486619Y-107671809D01*
X89583380Y-107671809D01*
X89631761Y-107696000D01*
X89655952Y-107720190D01*
X89680142Y-107768571D01*
X89680142Y-107889523D01*
X89655952Y-107937904D01*
X89631761Y-107962095D01*
X89583380Y-107986285D01*
X89486619Y-107986285D01*
X89438238Y-107962095D01*
X89414047Y-107937904D01*
X89389857Y-107889523D01*
X89075380Y-107671809D02*
X89027000Y-107671809D01*
X88978619Y-107696000D01*
X88954428Y-107720190D01*
X88930238Y-107768571D01*
X88906047Y-107865333D01*
X88906047Y-107986285D01*
X88930238Y-108083047D01*
X88954428Y-108131428D01*
X88978619Y-108155619D01*
X89027000Y-108179809D01*
X89075380Y-108179809D01*
X89123761Y-108155619D01*
X89147952Y-108131428D01*
X89172142Y-108083047D01*
X89196333Y-107986285D01*
X89196333Y-107865333D01*
X89172142Y-107768571D01*
X89147952Y-107720190D01*
X89123761Y-107696000D01*
X89075380Y-107671809D01*
%TO.C,R17*%
X89861571Y-105766809D02*
X90030904Y-105524904D01*
X90151857Y-105766809D02*
X90151857Y-105258809D01*
X89958333Y-105258809D01*
X89909952Y-105283000D01*
X89885761Y-105307190D01*
X89861571Y-105355571D01*
X89861571Y-105428142D01*
X89885761Y-105476523D01*
X89909952Y-105500714D01*
X89958333Y-105524904D01*
X90151857Y-105524904D01*
X89377761Y-105766809D02*
X89668047Y-105766809D01*
X89522904Y-105766809D02*
X89522904Y-105258809D01*
X89571285Y-105331380D01*
X89619666Y-105379761D01*
X89668047Y-105403952D01*
X89208428Y-105258809D02*
X88869761Y-105258809D01*
X89087476Y-105766809D01*
X90188142Y-102591809D02*
X89873666Y-102591809D01*
X90043000Y-102785333D01*
X89970428Y-102785333D01*
X89922047Y-102809523D01*
X89897857Y-102833714D01*
X89873666Y-102882095D01*
X89873666Y-103003047D01*
X89897857Y-103051428D01*
X89922047Y-103075619D01*
X89970428Y-103099809D01*
X90115571Y-103099809D01*
X90163952Y-103075619D01*
X90188142Y-103051428D01*
X89631761Y-103099809D02*
X89535000Y-103099809D01*
X89486619Y-103075619D01*
X89462428Y-103051428D01*
X89414047Y-102978857D01*
X89389857Y-102882095D01*
X89389857Y-102688571D01*
X89414047Y-102640190D01*
X89438238Y-102616000D01*
X89486619Y-102591809D01*
X89583380Y-102591809D01*
X89631761Y-102616000D01*
X89655952Y-102640190D01*
X89680142Y-102688571D01*
X89680142Y-102809523D01*
X89655952Y-102857904D01*
X89631761Y-102882095D01*
X89583380Y-102906285D01*
X89486619Y-102906285D01*
X89438238Y-102882095D01*
X89414047Y-102857904D01*
X89389857Y-102809523D01*
X89075380Y-102591809D02*
X89027000Y-102591809D01*
X88978619Y-102616000D01*
X88954428Y-102640190D01*
X88930238Y-102688571D01*
X88906047Y-102785333D01*
X88906047Y-102906285D01*
X88930238Y-103003047D01*
X88954428Y-103051428D01*
X88978619Y-103075619D01*
X89027000Y-103099809D01*
X89075380Y-103099809D01*
X89123761Y-103075619D01*
X89147952Y-103051428D01*
X89172142Y-103003047D01*
X89196333Y-102906285D01*
X89196333Y-102785333D01*
X89172142Y-102688571D01*
X89147952Y-102640190D01*
X89123761Y-102616000D01*
X89075380Y-102591809D01*
%TO.C,R20*%
X94941571Y-115926809D02*
X95110904Y-115684904D01*
X95231857Y-115926809D02*
X95231857Y-115418809D01*
X95038333Y-115418809D01*
X94989952Y-115443000D01*
X94965761Y-115467190D01*
X94941571Y-115515571D01*
X94941571Y-115588142D01*
X94965761Y-115636523D01*
X94989952Y-115660714D01*
X95038333Y-115684904D01*
X95231857Y-115684904D01*
X94748047Y-115467190D02*
X94723857Y-115443000D01*
X94675476Y-115418809D01*
X94554523Y-115418809D01*
X94506142Y-115443000D01*
X94481952Y-115467190D01*
X94457761Y-115515571D01*
X94457761Y-115563952D01*
X94481952Y-115636523D01*
X94772238Y-115926809D01*
X94457761Y-115926809D01*
X94143285Y-115418809D02*
X94094904Y-115418809D01*
X94046523Y-115443000D01*
X94022333Y-115467190D01*
X93998142Y-115515571D01*
X93973952Y-115612333D01*
X93973952Y-115733285D01*
X93998142Y-115830047D01*
X94022333Y-115878428D01*
X94046523Y-115902619D01*
X94094904Y-115926809D01*
X94143285Y-115926809D01*
X94191666Y-115902619D01*
X94215857Y-115878428D01*
X94240047Y-115830047D01*
X94264238Y-115733285D01*
X94264238Y-115612333D01*
X94240047Y-115515571D01*
X94215857Y-115467190D01*
X94191666Y-115443000D01*
X94143285Y-115418809D01*
X95268142Y-112751809D02*
X94953666Y-112751809D01*
X95123000Y-112945333D01*
X95050428Y-112945333D01*
X95002047Y-112969523D01*
X94977857Y-112993714D01*
X94953666Y-113042095D01*
X94953666Y-113163047D01*
X94977857Y-113211428D01*
X95002047Y-113235619D01*
X95050428Y-113259809D01*
X95195571Y-113259809D01*
X95243952Y-113235619D01*
X95268142Y-113211428D01*
X94711761Y-113259809D02*
X94615000Y-113259809D01*
X94566619Y-113235619D01*
X94542428Y-113211428D01*
X94494047Y-113138857D01*
X94469857Y-113042095D01*
X94469857Y-112848571D01*
X94494047Y-112800190D01*
X94518238Y-112776000D01*
X94566619Y-112751809D01*
X94663380Y-112751809D01*
X94711761Y-112776000D01*
X94735952Y-112800190D01*
X94760142Y-112848571D01*
X94760142Y-112969523D01*
X94735952Y-113017904D01*
X94711761Y-113042095D01*
X94663380Y-113066285D01*
X94566619Y-113066285D01*
X94518238Y-113042095D01*
X94494047Y-113017904D01*
X94469857Y-112969523D01*
X94155380Y-112751809D02*
X94107000Y-112751809D01*
X94058619Y-112776000D01*
X94034428Y-112800190D01*
X94010238Y-112848571D01*
X93986047Y-112945333D01*
X93986047Y-113066285D01*
X94010238Y-113163047D01*
X94034428Y-113211428D01*
X94058619Y-113235619D01*
X94107000Y-113259809D01*
X94155380Y-113259809D01*
X94203761Y-113235619D01*
X94227952Y-113211428D01*
X94252142Y-113163047D01*
X94276333Y-113066285D01*
X94276333Y-112945333D01*
X94252142Y-112848571D01*
X94227952Y-112800190D01*
X94203761Y-112776000D01*
X94155380Y-112751809D01*
%TO.C,R23*%
X94941571Y-110846809D02*
X95110904Y-110604904D01*
X95231857Y-110846809D02*
X95231857Y-110338809D01*
X95038333Y-110338809D01*
X94989952Y-110363000D01*
X94965761Y-110387190D01*
X94941571Y-110435571D01*
X94941571Y-110508142D01*
X94965761Y-110556523D01*
X94989952Y-110580714D01*
X95038333Y-110604904D01*
X95231857Y-110604904D01*
X94748047Y-110387190D02*
X94723857Y-110363000D01*
X94675476Y-110338809D01*
X94554523Y-110338809D01*
X94506142Y-110363000D01*
X94481952Y-110387190D01*
X94457761Y-110435571D01*
X94457761Y-110483952D01*
X94481952Y-110556523D01*
X94772238Y-110846809D01*
X94457761Y-110846809D01*
X94288428Y-110338809D02*
X93973952Y-110338809D01*
X94143285Y-110532333D01*
X94070714Y-110532333D01*
X94022333Y-110556523D01*
X93998142Y-110580714D01*
X93973952Y-110629095D01*
X93973952Y-110750047D01*
X93998142Y-110798428D01*
X94022333Y-110822619D01*
X94070714Y-110846809D01*
X94215857Y-110846809D01*
X94264238Y-110822619D01*
X94288428Y-110798428D01*
X95268142Y-107671809D02*
X94953666Y-107671809D01*
X95123000Y-107865333D01*
X95050428Y-107865333D01*
X95002047Y-107889523D01*
X94977857Y-107913714D01*
X94953666Y-107962095D01*
X94953666Y-108083047D01*
X94977857Y-108131428D01*
X95002047Y-108155619D01*
X95050428Y-108179809D01*
X95195571Y-108179809D01*
X95243952Y-108155619D01*
X95268142Y-108131428D01*
X94711761Y-108179809D02*
X94615000Y-108179809D01*
X94566619Y-108155619D01*
X94542428Y-108131428D01*
X94494047Y-108058857D01*
X94469857Y-107962095D01*
X94469857Y-107768571D01*
X94494047Y-107720190D01*
X94518238Y-107696000D01*
X94566619Y-107671809D01*
X94663380Y-107671809D01*
X94711761Y-107696000D01*
X94735952Y-107720190D01*
X94760142Y-107768571D01*
X94760142Y-107889523D01*
X94735952Y-107937904D01*
X94711761Y-107962095D01*
X94663380Y-107986285D01*
X94566619Y-107986285D01*
X94518238Y-107962095D01*
X94494047Y-107937904D01*
X94469857Y-107889523D01*
X94155380Y-107671809D02*
X94107000Y-107671809D01*
X94058619Y-107696000D01*
X94034428Y-107720190D01*
X94010238Y-107768571D01*
X93986047Y-107865333D01*
X93986047Y-107986285D01*
X94010238Y-108083047D01*
X94034428Y-108131428D01*
X94058619Y-108155619D01*
X94107000Y-108179809D01*
X94155380Y-108179809D01*
X94203761Y-108155619D01*
X94227952Y-108131428D01*
X94252142Y-108083047D01*
X94276333Y-107986285D01*
X94276333Y-107865333D01*
X94252142Y-107768571D01*
X94227952Y-107720190D01*
X94203761Y-107696000D01*
X94155380Y-107671809D01*
%TO.C,R26*%
X94941571Y-105766809D02*
X95110904Y-105524904D01*
X95231857Y-105766809D02*
X95231857Y-105258809D01*
X95038333Y-105258809D01*
X94989952Y-105283000D01*
X94965761Y-105307190D01*
X94941571Y-105355571D01*
X94941571Y-105428142D01*
X94965761Y-105476523D01*
X94989952Y-105500714D01*
X95038333Y-105524904D01*
X95231857Y-105524904D01*
X94748047Y-105307190D02*
X94723857Y-105283000D01*
X94675476Y-105258809D01*
X94554523Y-105258809D01*
X94506142Y-105283000D01*
X94481952Y-105307190D01*
X94457761Y-105355571D01*
X94457761Y-105403952D01*
X94481952Y-105476523D01*
X94772238Y-105766809D01*
X94457761Y-105766809D01*
X94022333Y-105258809D02*
X94119095Y-105258809D01*
X94167476Y-105283000D01*
X94191666Y-105307190D01*
X94240047Y-105379761D01*
X94264238Y-105476523D01*
X94264238Y-105670047D01*
X94240047Y-105718428D01*
X94215857Y-105742619D01*
X94167476Y-105766809D01*
X94070714Y-105766809D01*
X94022333Y-105742619D01*
X93998142Y-105718428D01*
X93973952Y-105670047D01*
X93973952Y-105549095D01*
X93998142Y-105500714D01*
X94022333Y-105476523D01*
X94070714Y-105452333D01*
X94167476Y-105452333D01*
X94215857Y-105476523D01*
X94240047Y-105500714D01*
X94264238Y-105549095D01*
X95268142Y-102591809D02*
X94953666Y-102591809D01*
X95123000Y-102785333D01*
X95050428Y-102785333D01*
X95002047Y-102809523D01*
X94977857Y-102833714D01*
X94953666Y-102882095D01*
X94953666Y-103003047D01*
X94977857Y-103051428D01*
X95002047Y-103075619D01*
X95050428Y-103099809D01*
X95195571Y-103099809D01*
X95243952Y-103075619D01*
X95268142Y-103051428D01*
X94711761Y-103099809D02*
X94615000Y-103099809D01*
X94566619Y-103075619D01*
X94542428Y-103051428D01*
X94494047Y-102978857D01*
X94469857Y-102882095D01*
X94469857Y-102688571D01*
X94494047Y-102640190D01*
X94518238Y-102616000D01*
X94566619Y-102591809D01*
X94663380Y-102591809D01*
X94711761Y-102616000D01*
X94735952Y-102640190D01*
X94760142Y-102688571D01*
X94760142Y-102809523D01*
X94735952Y-102857904D01*
X94711761Y-102882095D01*
X94663380Y-102906285D01*
X94566619Y-102906285D01*
X94518238Y-102882095D01*
X94494047Y-102857904D01*
X94469857Y-102809523D01*
X94155380Y-102591809D02*
X94107000Y-102591809D01*
X94058619Y-102616000D01*
X94034428Y-102640190D01*
X94010238Y-102688571D01*
X93986047Y-102785333D01*
X93986047Y-102906285D01*
X94010238Y-103003047D01*
X94034428Y-103051428D01*
X94058619Y-103075619D01*
X94107000Y-103099809D01*
X94155380Y-103099809D01*
X94203761Y-103075619D01*
X94227952Y-103051428D01*
X94252142Y-103003047D01*
X94276333Y-102906285D01*
X94276333Y-102785333D01*
X94252142Y-102688571D01*
X94227952Y-102640190D01*
X94203761Y-102616000D01*
X94155380Y-102591809D01*
%TO.C,D2*%
X78479952Y-127991809D02*
X78479952Y-127483809D01*
X78359000Y-127483809D01*
X78286428Y-127508000D01*
X78238047Y-127556380D01*
X78213857Y-127604761D01*
X78189666Y-127701523D01*
X78189666Y-127774095D01*
X78213857Y-127870857D01*
X78238047Y-127919238D01*
X78286428Y-127967619D01*
X78359000Y-127991809D01*
X78479952Y-127991809D01*
X77996142Y-127532190D02*
X77971952Y-127508000D01*
X77923571Y-127483809D01*
X77802619Y-127483809D01*
X77754238Y-127508000D01*
X77730047Y-127532190D01*
X77705857Y-127580571D01*
X77705857Y-127628952D01*
X77730047Y-127701523D01*
X78020333Y-127991809D01*
X77705857Y-127991809D01*
%TO.C,R1*%
X80729666Y-127991809D02*
X80899000Y-127749904D01*
X81019952Y-127991809D02*
X81019952Y-127483809D01*
X80826428Y-127483809D01*
X80778047Y-127508000D01*
X80753857Y-127532190D01*
X80729666Y-127580571D01*
X80729666Y-127653142D01*
X80753857Y-127701523D01*
X80778047Y-127725714D01*
X80826428Y-127749904D01*
X81019952Y-127749904D01*
X80245857Y-127991809D02*
X80536142Y-127991809D01*
X80391000Y-127991809D02*
X80391000Y-127483809D01*
X80439380Y-127556380D01*
X80487761Y-127604761D01*
X80536142Y-127628952D01*
X81298142Y-124816809D02*
X80983666Y-124816809D01*
X81153000Y-125010333D01*
X81080428Y-125010333D01*
X81032047Y-125034523D01*
X81007857Y-125058714D01*
X80983666Y-125107095D01*
X80983666Y-125228047D01*
X81007857Y-125276428D01*
X81032047Y-125300619D01*
X81080428Y-125324809D01*
X81225571Y-125324809D01*
X81273952Y-125300619D01*
X81298142Y-125276428D01*
X80741761Y-125324809D02*
X80645000Y-125324809D01*
X80596619Y-125300619D01*
X80572428Y-125276428D01*
X80524047Y-125203857D01*
X80499857Y-125107095D01*
X80499857Y-124913571D01*
X80524047Y-124865190D01*
X80548238Y-124841000D01*
X80596619Y-124816809D01*
X80693380Y-124816809D01*
X80741761Y-124841000D01*
X80765952Y-124865190D01*
X80790142Y-124913571D01*
X80790142Y-125034523D01*
X80765952Y-125082904D01*
X80741761Y-125107095D01*
X80693380Y-125131285D01*
X80596619Y-125131285D01*
X80548238Y-125107095D01*
X80524047Y-125082904D01*
X80499857Y-125034523D01*
X80185380Y-124816809D02*
X80137000Y-124816809D01*
X80088619Y-124841000D01*
X80064428Y-124865190D01*
X80040238Y-124913571D01*
X80016047Y-125010333D01*
X80016047Y-125131285D01*
X80040238Y-125228047D01*
X80064428Y-125276428D01*
X80088619Y-125300619D01*
X80137000Y-125324809D01*
X80185380Y-125324809D01*
X80233761Y-125300619D01*
X80257952Y-125276428D01*
X80282142Y-125228047D01*
X80306333Y-125131285D01*
X80306333Y-125010333D01*
X80282142Y-124913571D01*
X80257952Y-124865190D01*
X80233761Y-124841000D01*
X80185380Y-124816809D01*
%TD*%
%LPC*%
D16*
%TO.C,S1*%
X52705000Y-75565000D03*
X52705000Y-78105000D03*
%TD*%
%TO.C,S2*%
X52705000Y-67945000D03*
X52705000Y-70485000D03*
%TD*%
%TO.C,S3*%
X52705000Y-60325000D03*
X52705000Y-62865000D03*
%TD*%
%TO.C,S4*%
X80645000Y-75565000D03*
X80645000Y-78105000D03*
%TD*%
%TO.C,S5*%
X80645000Y-67945000D03*
X80645000Y-70485000D03*
%TD*%
%TO.C,S6*%
X80645000Y-60325000D03*
X80645000Y-62865000D03*
%TD*%
%TO.C,S7*%
X108585000Y-75565000D03*
X108585000Y-78105000D03*
%TD*%
%TO.C,S8*%
X108585000Y-67945000D03*
X108585000Y-70485000D03*
%TD*%
%TO.C,S9*%
X108585000Y-60325000D03*
X108585000Y-62865000D03*
%TD*%
D17*
%TO.C,TEENSY1*%
X100965000Y-129540000D03*
X100965000Y-127000000D03*
X100965000Y-124460000D03*
X100965000Y-121920000D03*
X100965000Y-119380000D03*
X100965000Y-116840000D03*
X100965000Y-114300000D03*
X100965000Y-111760000D03*
X100965000Y-109220000D03*
X100965000Y-106680000D03*
X100965000Y-104140000D03*
X100965000Y-101600000D03*
X100965000Y-99060000D03*
X100965000Y-96520000D03*
X116205000Y-96520000D03*
X116205000Y-99060000D03*
X116205000Y-101600000D03*
X116205000Y-104140000D03*
X116205000Y-106680000D03*
X116205000Y-109220000D03*
X116205000Y-111760000D03*
X116205000Y-114300000D03*
X116205000Y-116840000D03*
X116205000Y-119380000D03*
X116205000Y-121920000D03*
X116205000Y-124460000D03*
X116205000Y-127000000D03*
D18*
X116205000Y-129540000D03*
%TD*%
D19*
%TO.C,P1*%
X67945000Y-127175000D03*
%TD*%
D20*
%TO.C,U1*%
X59537600Y-76200000D03*
X59537600Y-77470000D03*
X59537600Y-78740000D03*
X59537600Y-80010000D03*
X64922400Y-80010000D03*
X64922400Y-78740000D03*
X64922400Y-77470000D03*
X64922400Y-76200000D03*
%TD*%
%TO.C,U2*%
X59537600Y-68580000D03*
X59537600Y-69850000D03*
X59537600Y-71120000D03*
X59537600Y-72390000D03*
X64922400Y-72390000D03*
X64922400Y-71120000D03*
X64922400Y-69850000D03*
X64922400Y-68580000D03*
%TD*%
%TO.C,U3*%
X59537600Y-60960000D03*
X59537600Y-62230000D03*
X59537600Y-63500000D03*
X59537600Y-64770000D03*
X64922400Y-64770000D03*
X64922400Y-63500000D03*
X64922400Y-62230000D03*
X64922400Y-60960000D03*
%TD*%
%TO.C,U4*%
X87477600Y-76200000D03*
X87477600Y-77470000D03*
X87477600Y-78740000D03*
X87477600Y-80010000D03*
X92862400Y-80010000D03*
X92862400Y-78740000D03*
X92862400Y-77470000D03*
X92862400Y-76200000D03*
%TD*%
%TO.C,U5*%
X87477600Y-68580000D03*
X87477600Y-69850000D03*
X87477600Y-71120000D03*
X87477600Y-72390000D03*
X92862400Y-72390000D03*
X92862400Y-71120000D03*
X92862400Y-69850000D03*
X92862400Y-68580000D03*
%TD*%
%TO.C,U6*%
X87477600Y-60960000D03*
X87477600Y-62230000D03*
X87477600Y-63500000D03*
X87477600Y-64770000D03*
X92862400Y-64770000D03*
X92862400Y-63500000D03*
X92862400Y-62230000D03*
X92862400Y-60960000D03*
%TD*%
%TO.C,U7*%
X115417600Y-76200000D03*
X115417600Y-77470000D03*
X115417600Y-78740000D03*
X115417600Y-80010000D03*
X120802400Y-80010000D03*
X120802400Y-78740000D03*
X120802400Y-77470000D03*
X120802400Y-76200000D03*
%TD*%
%TO.C,U8*%
X115417600Y-68580000D03*
X115417600Y-69850000D03*
X115417600Y-71120000D03*
X115417600Y-72390000D03*
X120802400Y-72390000D03*
X120802400Y-71120000D03*
X120802400Y-69850000D03*
X120802400Y-68580000D03*
%TD*%
%TO.C,U9*%
X115417600Y-60960000D03*
X115417600Y-62230000D03*
X115417600Y-63500000D03*
X115417600Y-64770000D03*
X120802400Y-64770000D03*
X120802400Y-63500000D03*
X120802400Y-62230000D03*
X120802400Y-60960000D03*
%TD*%
D21*
%TO.C,D3*%
X81915000Y-114800000D03*
X81915000Y-113800000D03*
%TD*%
%TO.C,D4*%
X56515000Y-77335000D03*
X56515000Y-76335000D03*
%TD*%
%TO.C,D5*%
X81915000Y-109720000D03*
X81915000Y-108720000D03*
%TD*%
%TO.C,D6*%
X56515000Y-69715000D03*
X56515000Y-68715000D03*
%TD*%
%TO.C,D7*%
X81915000Y-104640000D03*
X81915000Y-103640000D03*
%TD*%
%TO.C,D8*%
X56515000Y-62095000D03*
X56515000Y-61095000D03*
%TD*%
%TO.C,D9*%
X86995000Y-114800000D03*
X86995000Y-113800000D03*
%TD*%
%TO.C,D10*%
X84455000Y-77335000D03*
X84455000Y-76335000D03*
%TD*%
%TO.C,D11*%
X86995000Y-109720000D03*
X86995000Y-108720000D03*
%TD*%
%TO.C,D12*%
X84455000Y-69715000D03*
X84455000Y-68715000D03*
%TD*%
%TO.C,D13*%
X86995000Y-104640000D03*
X86995000Y-103640000D03*
%TD*%
%TO.C,D14*%
X84455000Y-62095000D03*
X84455000Y-61095000D03*
%TD*%
%TO.C,D15*%
X92075000Y-114800000D03*
X92075000Y-113800000D03*
%TD*%
%TO.C,D16*%
X112395000Y-77335000D03*
X112395000Y-76335000D03*
%TD*%
%TO.C,D17*%
X92075000Y-109720000D03*
X92075000Y-108720000D03*
%TD*%
%TO.C,D18*%
X112395000Y-69715000D03*
X112395000Y-68715000D03*
%TD*%
%TO.C,D19*%
X92075000Y-104640000D03*
X92075000Y-103640000D03*
%TD*%
%TO.C,D20*%
X112395000Y-62095000D03*
X112395000Y-61095000D03*
%TD*%
D22*
%TO.C,C2*%
X62730000Y-81915000D03*
X61730000Y-81915000D03*
%TD*%
%TO.C,C4*%
X62730000Y-74295000D03*
X61730000Y-74295000D03*
%TD*%
%TO.C,C6*%
X62730000Y-66675000D03*
X61730000Y-66675000D03*
%TD*%
%TO.C,C8*%
X90670000Y-81915000D03*
X89670000Y-81915000D03*
%TD*%
%TO.C,C10*%
X90670000Y-74295000D03*
X89670000Y-74295000D03*
%TD*%
%TO.C,C12*%
X90670000Y-66675000D03*
X89670000Y-66675000D03*
%TD*%
%TO.C,C14*%
X118610000Y-81915000D03*
X117610000Y-81915000D03*
%TD*%
%TO.C,C16*%
X118610000Y-74295000D03*
X117610000Y-74295000D03*
%TD*%
%TO.C,C18*%
X118610000Y-66675000D03*
X117610000Y-66675000D03*
%TD*%
%TO.C,C3*%
X68445000Y-78105000D03*
X67445000Y-78105000D03*
%TD*%
%TO.C,C5*%
X68445000Y-70485000D03*
X67445000Y-70485000D03*
%TD*%
%TO.C,C7*%
X68445000Y-62865000D03*
X67445000Y-62865000D03*
%TD*%
%TO.C,C9*%
X96385000Y-78105000D03*
X95385000Y-78105000D03*
%TD*%
%TO.C,C11*%
X96385000Y-70485000D03*
X95385000Y-70485000D03*
%TD*%
%TO.C,C13*%
X96385000Y-62865000D03*
X95385000Y-62865000D03*
%TD*%
%TO.C,C15*%
X124325000Y-78105000D03*
X123325000Y-78105000D03*
%TD*%
%TO.C,C17*%
X124325000Y-70485000D03*
X123325000Y-70485000D03*
%TD*%
%TO.C,C19*%
X124325000Y-62865000D03*
X123325000Y-62865000D03*
%TD*%
%TO.C,R3*%
X68445000Y-75565000D03*
X67445000Y-75565000D03*
%TD*%
%TO.C,R4*%
X68445000Y-80645000D03*
X67445000Y-80645000D03*
%TD*%
%TO.C,R6*%
X68445000Y-67945000D03*
X67445000Y-67945000D03*
%TD*%
%TO.C,R7*%
X68445000Y-73025000D03*
X67445000Y-73025000D03*
%TD*%
%TO.C,R9*%
X68445000Y-60325000D03*
X67445000Y-60325000D03*
%TD*%
%TO.C,R10*%
X68445000Y-65405000D03*
X67445000Y-65405000D03*
%TD*%
%TO.C,R12*%
X96385000Y-75565000D03*
X95385000Y-75565000D03*
%TD*%
%TO.C,R13*%
X96385000Y-80645000D03*
X95385000Y-80645000D03*
%TD*%
%TO.C,R15*%
X96385000Y-67945000D03*
X95385000Y-67945000D03*
%TD*%
%TO.C,R16*%
X96385000Y-73025000D03*
X95385000Y-73025000D03*
%TD*%
%TO.C,R18*%
X96385000Y-60325000D03*
X95385000Y-60325000D03*
%TD*%
%TO.C,R19*%
X96385000Y-65405000D03*
X95385000Y-65405000D03*
%TD*%
%TO.C,R21*%
X124325000Y-75565000D03*
X123325000Y-75565000D03*
%TD*%
%TO.C,R22*%
X124325000Y-80645000D03*
X123325000Y-80645000D03*
%TD*%
%TO.C,R24*%
X124325000Y-67945000D03*
X123325000Y-67945000D03*
%TD*%
%TO.C,R25*%
X124325000Y-73025000D03*
X123325000Y-73025000D03*
%TD*%
%TO.C,R27*%
X124325000Y-60325000D03*
X123325000Y-60325000D03*
%TD*%
%TO.C,R28*%
X124325000Y-65405000D03*
X123325000Y-65405000D03*
%TD*%
D21*
%TO.C,R2*%
X84455000Y-114800000D03*
X84455000Y-113800000D03*
%TD*%
%TO.C,R5*%
X84455000Y-109720000D03*
X84455000Y-108720000D03*
%TD*%
%TO.C,R8*%
X84455000Y-104640000D03*
X84455000Y-103640000D03*
%TD*%
%TO.C,R11*%
X89535000Y-114800000D03*
X89535000Y-113800000D03*
%TD*%
%TO.C,R14*%
X89535000Y-109720000D03*
X89535000Y-108720000D03*
%TD*%
%TO.C,R17*%
X89535000Y-104640000D03*
X89535000Y-103640000D03*
%TD*%
%TO.C,R20*%
X94615000Y-114800000D03*
X94615000Y-113800000D03*
%TD*%
%TO.C,R23*%
X94615000Y-109720000D03*
X94615000Y-108720000D03*
%TD*%
%TO.C,R26*%
X94615000Y-104640000D03*
X94615000Y-103640000D03*
%TD*%
%TO.C,D2*%
X78105000Y-126865000D03*
X78105000Y-125865000D03*
%TD*%
%TO.C,R1*%
X80645000Y-126865000D03*
X80645000Y-125865000D03*
%TD*%
D23*
%TO.C,MH1*%
X92710000Y-85090000D03*
%TD*%
%TO.C,MH2*%
X64770000Y-56515000D03*
%TD*%
%TO.C,MH3*%
X120650000Y-56515000D03*
%TD*%
M02*
