%TF.GenerationSoftware,KiCad,Pcbnew,5.1.6-c6e7f7d~87~ubuntu20.04.1*%
%TF.CreationDate,2020-07-21T10:48:28-04:00*%
%TF.ProjectId,y_arena_valve_controller,795f6172-656e-4615-9f76-616c76655f63,1.0*%
%TF.SameCoordinates,Original*%
%TF.FileFunction,Copper,L1,Top*%
%TF.FilePolarity,Positive*%
%FSLAX46Y46*%
G04 Gerber Fmt 4.6, Leading zero omitted, Abs format (unit mm)*
G04 Created by KiCad (PCBNEW 5.1.6-c6e7f7d~87~ubuntu20.04.1) date 2020-07-21 10:48:28*
%MOMM*%
%LPD*%
G01*
G04 APERTURE LIST*
%TA.AperFunction,ComponentPad*%
%ADD10O,2.032000X1.524000*%
%TD*%
%TA.AperFunction,ComponentPad*%
%ADD11C,6.197600*%
%TD*%
%TA.AperFunction,ComponentPad*%
%ADD12C,2.286000*%
%TD*%
%TA.AperFunction,SMDPad,CuDef*%
%ADD13C,0.500000*%
%TD*%
%TA.AperFunction,ComponentPad*%
%ADD14C,3.556000*%
%TD*%
%TA.AperFunction,SMDPad,CuDef*%
%ADD15R,0.787400X1.600200*%
%TD*%
%TA.AperFunction,SMDPad,CuDef*%
%ADD16R,3.800000X4.960000*%
%TD*%
%TA.AperFunction,SMDPad,CuDef*%
%ADD17R,1.600000X1.440000*%
%TD*%
%TA.AperFunction,ComponentPad*%
%ADD18C,4.500000*%
%TD*%
%TA.AperFunction,ComponentPad*%
%ADD19C,1.900000*%
%TD*%
%TA.AperFunction,SMDPad,CuDef*%
%ADD20R,5.000000X5.200000*%
%TD*%
%TA.AperFunction,SMDPad,CuDef*%
%ADD21R,3.750000X5.000000*%
%TD*%
%TA.AperFunction,ViaPad*%
%ADD22C,0.889000*%
%TD*%
%TA.AperFunction,Conductor*%
%ADD23C,0.812800*%
%TD*%
%TA.AperFunction,Conductor*%
%ADD24C,0.254000*%
%TD*%
G04 APERTURE END LIST*
D10*
%TO.P,PHIDGET1,16*%
%TO.N,/VALVE_7*%
X59055000Y-98425000D03*
%TO.P,PHIDGET1,11*%
%TO.N,GND*%
X59055000Y-111125000D03*
%TO.P,PHIDGET1,1*%
X59055000Y-136525000D03*
%TO.P,PHIDGET1,4*%
%TO.N,/VALVE_1*%
X59055000Y-128905000D03*
%TO.P,PHIDGET1,9*%
%TO.N,GND*%
X59055000Y-116205000D03*
%TO.P,PHIDGET1,10*%
%TO.N,/VALVE_4*%
X59055000Y-113665000D03*
%TO.P,PHIDGET1,2*%
%TO.N,/VALVE_0*%
X59055000Y-133985000D03*
%TO.P,PHIDGET1,7*%
%TO.N,GND*%
X59055000Y-121285000D03*
%TO.P,PHIDGET1,8*%
%TO.N,/VALVE_3*%
X59055000Y-118745000D03*
%TO.P,PHIDGET1,3*%
%TO.N,GND*%
X59055000Y-131445000D03*
%TO.P,PHIDGET1,12*%
%TO.N,/VALVE_5*%
X59055000Y-108585000D03*
%TO.P,PHIDGET1,5*%
%TO.N,GND*%
X59055000Y-126365000D03*
%TO.P,PHIDGET1,15*%
X59055000Y-100965000D03*
%TO.P,PHIDGET1,14*%
%TO.N,/VALVE_6*%
X59055000Y-103505000D03*
%TO.P,PHIDGET1,13*%
%TO.N,GND*%
X59055000Y-106045000D03*
%TO.P,PHIDGET1,6*%
%TO.N,/VALVE_2*%
X59055000Y-123825000D03*
%TO.P,PHIDGET1,17*%
%TO.N,GND*%
X117475000Y-98425000D03*
%TO.P,PHIDGET1,18*%
%TO.N,/VALVE_8*%
X117475000Y-100965000D03*
%TO.P,PHIDGET1,32*%
%TO.N,N/C*%
X117475000Y-136525000D03*
D11*
%TO.P,PHIDGET1,*%
%TO.N,*%
X59055000Y-142875000D03*
X59055000Y-76835000D03*
X117475000Y-76835000D03*
X117475000Y-142875000D03*
D10*
%TO.P,PHIDGET1,19*%
%TO.N,GND*%
X117475000Y-103505000D03*
%TO.P,PHIDGET1,20*%
%TO.N,N/C*%
X117475000Y-106045000D03*
%TO.P,PHIDGET1,21*%
%TO.N,GND*%
X117475000Y-108585000D03*
%TO.P,PHIDGET1,22*%
%TO.N,N/C*%
X117475000Y-111125000D03*
%TO.P,PHIDGET1,23*%
%TO.N,GND*%
X117475000Y-113665000D03*
%TO.P,PHIDGET1,24*%
%TO.N,N/C*%
X117475000Y-116205000D03*
%TO.P,PHIDGET1,25*%
%TO.N,GND*%
X117475000Y-118745000D03*
%TO.P,PHIDGET1,26*%
%TO.N,N/C*%
X117475000Y-121285000D03*
%TO.P,PHIDGET1,27*%
%TO.N,GND*%
X117475000Y-123825000D03*
%TO.P,PHIDGET1,28*%
%TO.N,N/C*%
X117475000Y-126365000D03*
%TO.P,PHIDGET1,29*%
%TO.N,GND*%
X117475000Y-128905000D03*
%TO.P,PHIDGET1,30*%
%TO.N,N/C*%
X117475000Y-131445000D03*
%TO.P,PHIDGET1,31*%
%TO.N,GND*%
X117475000Y-133985000D03*
%TD*%
D12*
%TO.P,S1,2*%
%TO.N,/VALVE_0*%
X52705000Y-75565000D03*
%TO.P,S1,1*%
%TO.N,VCC*%
X52705000Y-78105000D03*
%TD*%
%TO.P,S2,2*%
%TO.N,/VALVE_1*%
X52705000Y-67945000D03*
%TO.P,S2,1*%
%TO.N,VCC*%
X52705000Y-70485000D03*
%TD*%
%TO.P,S3,2*%
%TO.N,/VALVE_2*%
X52705000Y-60325000D03*
%TO.P,S3,1*%
%TO.N,VCC*%
X52705000Y-62865000D03*
%TD*%
%TO.P,S4,2*%
%TO.N,/VALVE_3*%
X80645000Y-75565000D03*
%TO.P,S4,1*%
%TO.N,VCC*%
X80645000Y-78105000D03*
%TD*%
%TO.P,S5,2*%
%TO.N,/VALVE_4*%
X80645000Y-67945000D03*
%TO.P,S5,1*%
%TO.N,VCC*%
X80645000Y-70485000D03*
%TD*%
%TO.P,S6,2*%
%TO.N,/VALVE_5*%
X80645000Y-60325000D03*
%TO.P,S6,1*%
%TO.N,VCC*%
X80645000Y-62865000D03*
%TD*%
%TO.P,S7,2*%
%TO.N,/VALVE_6*%
X108585000Y-75565000D03*
%TO.P,S7,1*%
%TO.N,VCC*%
X108585000Y-78105000D03*
%TD*%
%TO.P,S8,2*%
%TO.N,/VALVE_7*%
X108585000Y-67945000D03*
%TO.P,S8,1*%
%TO.N,VCC*%
X108585000Y-70485000D03*
%TD*%
%TO.P,S9,2*%
%TO.N,/VALVE_8*%
X108585000Y-60325000D03*
%TO.P,S9,1*%
%TO.N,VCC*%
X108585000Y-62865000D03*
%TD*%
D13*
%TO.P,FID1,~*%
%TO.N,N/C*%
X53975000Y-53975000D03*
%TD*%
%TO.P,FID2,~*%
%TO.N,N/C*%
X122555000Y-53975000D03*
%TD*%
%TO.P,FID3,~*%
%TO.N,N/C*%
X122555000Y-145415000D03*
%TD*%
%TO.P,FID4,~*%
%TO.N,N/C*%
X53975000Y-145415000D03*
%TD*%
D14*
%TO.P,MH1,1*%
%TO.N,N/C*%
X92710000Y-85090000D03*
%TD*%
%TO.P,MH2,1*%
%TO.N,N/C*%
X64770000Y-56515000D03*
%TD*%
%TO.P,MH3,1*%
%TO.N,N/C*%
X120650000Y-56515000D03*
%TD*%
D15*
%TO.P,C1,2*%
%TO.N,GND*%
X79781400Y-140335000D03*
%TO.P,C1,1*%
%TO.N,VCC*%
X77698600Y-140335000D03*
%TD*%
D16*
%TO.P,D1,1*%
%TO.N,VCC*%
X88265000Y-111760000D03*
D17*
%TO.P,D1,2*%
%TO.N,VAA*%
X89330000Y-115560000D03*
X87200000Y-115560000D03*
%TD*%
D18*
%TO.P,P1,*%
%TO.N,*%
X88265000Y-128905000D03*
D19*
X84165000Y-130905000D03*
X92365000Y-130905000D03*
D20*
%TO.P,P1,1*%
%TO.N,VAA*%
X88265000Y-121305000D03*
D21*
%TO.P,P1,2*%
%TO.N,GND*%
X85890000Y-140205000D03*
%TO.P,P1,3*%
%TO.N,N/C*%
X90640000Y-140205000D03*
%TD*%
D22*
%TO.N,/VALVE_3*%
X64926500Y-111531300D03*
%TO.N,/VALVE_4*%
X63811800Y-107534200D03*
%TD*%
D23*
%TO.N,/VALVE_0*%
X59055000Y-133985000D02*
X55349400Y-130279400D01*
X55349400Y-130279400D02*
X55349400Y-78209400D01*
X55349400Y-78209400D02*
X52705000Y-75565000D01*
%TO.N,/VALVE_1*%
X59055000Y-128905000D02*
X57499400Y-127349400D01*
X57499400Y-127349400D02*
X57499400Y-85357500D01*
X57499400Y-85357500D02*
X62774500Y-80082400D01*
X62774500Y-80082400D02*
X62774500Y-75265800D01*
X62774500Y-75265800D02*
X55453700Y-67945000D01*
X55453700Y-67945000D02*
X52705000Y-67945000D01*
%TO.N,/VALVE_2*%
X59055000Y-123825000D02*
X62774500Y-120105500D01*
X62774500Y-120105500D02*
X62774500Y-81477400D01*
X62774500Y-81477400D02*
X63689200Y-80562700D01*
X63689200Y-80562700D02*
X63689200Y-71309200D01*
X63689200Y-71309200D02*
X52705000Y-60325000D01*
%TO.N,/VALVE_3*%
X64926500Y-111531300D02*
X64926500Y-91283500D01*
X64926500Y-91283500D02*
X80645000Y-75565000D01*
%TO.N,/VALVE_4*%
X63811800Y-107534200D02*
X63811800Y-84778200D01*
X63811800Y-84778200D02*
X80645000Y-67945000D01*
%TO.N,/VALVE_8*%
X117475000Y-100965000D02*
X113454900Y-96944900D01*
X113454900Y-96944900D02*
X113454900Y-65194900D01*
X113454900Y-65194900D02*
X108585000Y-60325000D01*
%TO.N,VAA*%
X87599300Y-115959300D02*
X87998600Y-115560000D01*
X88265000Y-118173600D02*
X87599300Y-117507900D01*
X87599300Y-117507900D02*
X87599300Y-115959300D01*
X87200000Y-115560000D02*
X87599300Y-115959300D01*
X89330000Y-115560000D02*
X87998600Y-115560000D01*
X88265000Y-121305000D02*
X88265000Y-118173600D01*
%TO.N,GND*%
X59055000Y-121285000D02*
X60579400Y-119760600D01*
X60579400Y-119760600D02*
X60579400Y-117729400D01*
X60579400Y-117729400D02*
X59055000Y-116205000D01*
X115822800Y-133985000D02*
X117475000Y-133985000D01*
X85890000Y-137173600D02*
X89078600Y-133985000D01*
X89078600Y-133985000D02*
X115822800Y-133985000D01*
X115822800Y-133985000D02*
X115822800Y-130557200D01*
X115822800Y-130557200D02*
X117475000Y-128905000D01*
X59055000Y-106045000D02*
X60648800Y-107638800D01*
X60648800Y-107638800D02*
X60648800Y-109531200D01*
X60648800Y-109531200D02*
X59055000Y-111125000D01*
X59055000Y-100965000D02*
X60579400Y-102489400D01*
X60579400Y-102489400D02*
X60579400Y-104520600D01*
X60579400Y-104520600D02*
X59055000Y-106045000D01*
X85890000Y-140205000D02*
X85890000Y-137173600D01*
X59055000Y-111125000D02*
X60589400Y-112659400D01*
X60589400Y-112659400D02*
X60589400Y-114670600D01*
X60589400Y-114670600D02*
X59055000Y-116205000D01*
X59055000Y-136525000D02*
X59055000Y-137818400D01*
X80244000Y-140335000D02*
X78888900Y-141690100D01*
X78888900Y-141690100D02*
X64220100Y-141690100D01*
X64220100Y-141690100D02*
X60348400Y-137818400D01*
X60348400Y-137818400D02*
X59055000Y-137818400D01*
X80244000Y-140335000D02*
X80706500Y-140335000D01*
X79781400Y-140335000D02*
X80244000Y-140335000D01*
X85890000Y-140205000D02*
X80836500Y-140205000D01*
X80836500Y-140205000D02*
X80706500Y-140335000D01*
%TO.N,VCC*%
X88265000Y-111760000D02*
X85833600Y-111760000D01*
X77698600Y-140335000D02*
X77698600Y-119895000D01*
X77698600Y-119895000D02*
X85833600Y-111760000D01*
X88265000Y-111760000D02*
X88265000Y-108748600D01*
X86669700Y-82457500D02*
X91022200Y-78105000D01*
X91022200Y-78105000D02*
X106925100Y-78105000D01*
X82317200Y-78105000D02*
X86669700Y-82457500D01*
X88265000Y-108748600D02*
X86669700Y-107153300D01*
X86669700Y-107153300D02*
X86669700Y-82457500D01*
X82317200Y-78105000D02*
X80645000Y-78105000D01*
X82317200Y-78105000D02*
X82317200Y-72157200D01*
X82317200Y-72157200D02*
X80645000Y-70485000D01*
X108585000Y-70485000D02*
X110242900Y-68827100D01*
X110242900Y-68827100D02*
X110242900Y-64522900D01*
X110242900Y-64522900D02*
X108585000Y-62865000D01*
X106925100Y-78105000D02*
X106925100Y-72144900D01*
X106925100Y-72144900D02*
X108585000Y-70485000D01*
X106925100Y-78105000D02*
X108585000Y-78105000D01*
%TD*%
D24*
%TO.N,VCC*%
G36*
X120251795Y-51645707D02*
G01*
X121102124Y-51849853D01*
X121910044Y-52184505D01*
X122655671Y-52641426D01*
X123320639Y-53209362D01*
X123888573Y-53874326D01*
X124345495Y-54619956D01*
X124680147Y-55427876D01*
X124884293Y-56278205D01*
X124955300Y-57180441D01*
X124955301Y-142209547D01*
X124884293Y-143111795D01*
X124680147Y-143962124D01*
X124345495Y-144770044D01*
X123888573Y-145515674D01*
X123320639Y-146180638D01*
X122655671Y-146748574D01*
X121910044Y-147205495D01*
X121102124Y-147540147D01*
X120251795Y-147744293D01*
X119349560Y-147815300D01*
X57180441Y-147815300D01*
X56278205Y-147744293D01*
X55427876Y-147540147D01*
X54619956Y-147205495D01*
X53874326Y-146748573D01*
X53209362Y-146180639D01*
X52641426Y-145515671D01*
X52526320Y-145327835D01*
X53090000Y-145327835D01*
X53090000Y-145502165D01*
X53124010Y-145673145D01*
X53190723Y-145834205D01*
X53287576Y-145979155D01*
X53410845Y-146102424D01*
X53555795Y-146199277D01*
X53716855Y-146265990D01*
X53887835Y-146300000D01*
X54062165Y-146300000D01*
X54233145Y-146265990D01*
X54394205Y-146199277D01*
X54539155Y-146102424D01*
X54662424Y-145979155D01*
X54759277Y-145834205D01*
X54825990Y-145673145D01*
X54860000Y-145502165D01*
X54860000Y-145327835D01*
X54825990Y-145156855D01*
X54759277Y-144995795D01*
X54662424Y-144850845D01*
X54539155Y-144727576D01*
X54394205Y-144630723D01*
X54233145Y-144564010D01*
X54062165Y-144530000D01*
X53887835Y-144530000D01*
X53716855Y-144564010D01*
X53555795Y-144630723D01*
X53410845Y-144727576D01*
X53287576Y-144850845D01*
X53190723Y-144995795D01*
X53124010Y-145156855D01*
X53090000Y-145327835D01*
X52526320Y-145327835D01*
X52184505Y-144770044D01*
X51849853Y-143962124D01*
X51645707Y-143111795D01*
X51574700Y-142209560D01*
X51574700Y-79414908D01*
X51647246Y-79342362D01*
X51760264Y-79621384D01*
X52074249Y-79776556D01*
X52412473Y-79867491D01*
X52761938Y-79890694D01*
X53109216Y-79845275D01*
X53440960Y-79732977D01*
X53649736Y-79621384D01*
X53762755Y-79342360D01*
X52705000Y-78284605D01*
X52690858Y-78298748D01*
X52511253Y-78119143D01*
X52525395Y-78105000D01*
X52511253Y-78090858D01*
X52690858Y-77911253D01*
X52705000Y-77925395D01*
X52719143Y-77911253D01*
X52898748Y-78090858D01*
X52884605Y-78105000D01*
X53942360Y-79162755D01*
X54221384Y-79049736D01*
X54308001Y-78874470D01*
X54308000Y-130228259D01*
X54302963Y-130279400D01*
X54308000Y-130330541D01*
X54308000Y-130330551D01*
X54323069Y-130483549D01*
X54382617Y-130679853D01*
X54479319Y-130860770D01*
X54609457Y-131019343D01*
X54649191Y-131051952D01*
X57413828Y-133816590D01*
X57397241Y-133985000D01*
X57424214Y-134258860D01*
X57504096Y-134522195D01*
X57633817Y-134764887D01*
X57808392Y-134977608D01*
X58021113Y-135152183D01*
X58213471Y-135255000D01*
X58021113Y-135357817D01*
X57808392Y-135532392D01*
X57633817Y-135745113D01*
X57504096Y-135987805D01*
X57424214Y-136251140D01*
X57397241Y-136525000D01*
X57424214Y-136798860D01*
X57504096Y-137062195D01*
X57633817Y-137304887D01*
X57808392Y-137517608D01*
X58013601Y-137686018D01*
X58013601Y-137767239D01*
X58008562Y-137818400D01*
X58028669Y-138022550D01*
X58088217Y-138218854D01*
X58184919Y-138399770D01*
X58315057Y-138558343D01*
X58473630Y-138688481D01*
X58654546Y-138785183D01*
X58850850Y-138844731D01*
X59003848Y-138859800D01*
X59003849Y-138859800D01*
X59055000Y-138864838D01*
X59106152Y-138859800D01*
X59917039Y-138859800D01*
X60481806Y-139424567D01*
X60144109Y-139284688D01*
X59422747Y-139141200D01*
X58687253Y-139141200D01*
X57965891Y-139284688D01*
X57286383Y-139566150D01*
X56674841Y-139974768D01*
X56154768Y-140494841D01*
X55746150Y-141106383D01*
X55464688Y-141785891D01*
X55321200Y-142507253D01*
X55321200Y-143242747D01*
X55464688Y-143964109D01*
X55746150Y-144643617D01*
X56154768Y-145255159D01*
X56674841Y-145775232D01*
X57286383Y-146183850D01*
X57965891Y-146465312D01*
X58687253Y-146608800D01*
X59422747Y-146608800D01*
X60144109Y-146465312D01*
X60823617Y-146183850D01*
X61435159Y-145775232D01*
X61955232Y-145255159D01*
X62363850Y-144643617D01*
X62645312Y-143964109D01*
X62788800Y-143242747D01*
X62788800Y-142507253D01*
X62645312Y-141785891D01*
X62505434Y-141448195D01*
X63447553Y-142390315D01*
X63480157Y-142430043D01*
X63519885Y-142462647D01*
X63519889Y-142462651D01*
X63611578Y-142537898D01*
X63638730Y-142560181D01*
X63819646Y-142656883D01*
X64015950Y-142716431D01*
X64168948Y-142731500D01*
X64168956Y-142731500D01*
X64220100Y-142736537D01*
X64271244Y-142731500D01*
X78837759Y-142731500D01*
X78888900Y-142736537D01*
X78940041Y-142731500D01*
X78940052Y-142731500D01*
X79093050Y-142716431D01*
X79289354Y-142656883D01*
X79470270Y-142560181D01*
X79628843Y-142430043D01*
X79661452Y-142390309D01*
X80289895Y-141761866D01*
X80299582Y-141760912D01*
X80419280Y-141724602D01*
X80529594Y-141665637D01*
X80626285Y-141586285D01*
X80705637Y-141489594D01*
X80764602Y-141379280D01*
X80765717Y-141375606D01*
X80910650Y-141361331D01*
X81106954Y-141301783D01*
X81210568Y-141246400D01*
X83376928Y-141246400D01*
X83376928Y-142705000D01*
X83389188Y-142829482D01*
X83425498Y-142949180D01*
X83484463Y-143059494D01*
X83563815Y-143156185D01*
X83660506Y-143235537D01*
X83770820Y-143294502D01*
X83890518Y-143330812D01*
X84015000Y-143343072D01*
X87765000Y-143343072D01*
X87889482Y-143330812D01*
X88009180Y-143294502D01*
X88119494Y-143235537D01*
X88216185Y-143156185D01*
X88265000Y-143096704D01*
X88313815Y-143156185D01*
X88410506Y-143235537D01*
X88520820Y-143294502D01*
X88640518Y-143330812D01*
X88765000Y-143343072D01*
X92515000Y-143343072D01*
X92639482Y-143330812D01*
X92759180Y-143294502D01*
X92869494Y-143235537D01*
X92966185Y-143156185D01*
X93045537Y-143059494D01*
X93104502Y-142949180D01*
X93140812Y-142829482D01*
X93153072Y-142705000D01*
X93153072Y-142507253D01*
X113741200Y-142507253D01*
X113741200Y-143242747D01*
X113884688Y-143964109D01*
X114166150Y-144643617D01*
X114574768Y-145255159D01*
X115094841Y-145775232D01*
X115706383Y-146183850D01*
X116385891Y-146465312D01*
X117107253Y-146608800D01*
X117842747Y-146608800D01*
X118564109Y-146465312D01*
X119243617Y-146183850D01*
X119855159Y-145775232D01*
X120302556Y-145327835D01*
X121670000Y-145327835D01*
X121670000Y-145502165D01*
X121704010Y-145673145D01*
X121770723Y-145834205D01*
X121867576Y-145979155D01*
X121990845Y-146102424D01*
X122135795Y-146199277D01*
X122296855Y-146265990D01*
X122467835Y-146300000D01*
X122642165Y-146300000D01*
X122813145Y-146265990D01*
X122974205Y-146199277D01*
X123119155Y-146102424D01*
X123242424Y-145979155D01*
X123339277Y-145834205D01*
X123405990Y-145673145D01*
X123440000Y-145502165D01*
X123440000Y-145327835D01*
X123405990Y-145156855D01*
X123339277Y-144995795D01*
X123242424Y-144850845D01*
X123119155Y-144727576D01*
X122974205Y-144630723D01*
X122813145Y-144564010D01*
X122642165Y-144530000D01*
X122467835Y-144530000D01*
X122296855Y-144564010D01*
X122135795Y-144630723D01*
X121990845Y-144727576D01*
X121867576Y-144850845D01*
X121770723Y-144995795D01*
X121704010Y-145156855D01*
X121670000Y-145327835D01*
X120302556Y-145327835D01*
X120375232Y-145255159D01*
X120783850Y-144643617D01*
X121065312Y-143964109D01*
X121208800Y-143242747D01*
X121208800Y-142507253D01*
X121065312Y-141785891D01*
X120783850Y-141106383D01*
X120375232Y-140494841D01*
X119855159Y-139974768D01*
X119243617Y-139566150D01*
X118564109Y-139284688D01*
X117842747Y-139141200D01*
X117107253Y-139141200D01*
X116385891Y-139284688D01*
X115706383Y-139566150D01*
X115094841Y-139974768D01*
X114574768Y-140494841D01*
X114166150Y-141106383D01*
X113884688Y-141785891D01*
X113741200Y-142507253D01*
X93153072Y-142507253D01*
X93153072Y-137705000D01*
X93140812Y-137580518D01*
X93104502Y-137460820D01*
X93045537Y-137350506D01*
X92966185Y-137253815D01*
X92869494Y-137174463D01*
X92759180Y-137115498D01*
X92639482Y-137079188D01*
X92515000Y-137066928D01*
X88765000Y-137066928D01*
X88640518Y-137079188D01*
X88520820Y-137115498D01*
X88410506Y-137174463D01*
X88313815Y-137253815D01*
X88265000Y-137313296D01*
X88216185Y-137253815D01*
X88119494Y-137174463D01*
X88009180Y-137115498D01*
X87889482Y-137079188D01*
X87765000Y-137066928D01*
X87469433Y-137066928D01*
X89509962Y-135026400D01*
X115771648Y-135026400D01*
X115822800Y-135031438D01*
X115873951Y-135026400D01*
X116287845Y-135026400D01*
X116441113Y-135152183D01*
X116633471Y-135255000D01*
X116441113Y-135357817D01*
X116228392Y-135532392D01*
X116053817Y-135745113D01*
X115924096Y-135987805D01*
X115844214Y-136251140D01*
X115817241Y-136525000D01*
X115844214Y-136798860D01*
X115924096Y-137062195D01*
X116053817Y-137304887D01*
X116228392Y-137517608D01*
X116441113Y-137692183D01*
X116683805Y-137821904D01*
X116947140Y-137901786D01*
X117152375Y-137922000D01*
X117797625Y-137922000D01*
X118002860Y-137901786D01*
X118266195Y-137821904D01*
X118508887Y-137692183D01*
X118721608Y-137517608D01*
X118896183Y-137304887D01*
X119025904Y-137062195D01*
X119105786Y-136798860D01*
X119132759Y-136525000D01*
X119105786Y-136251140D01*
X119025904Y-135987805D01*
X118896183Y-135745113D01*
X118721608Y-135532392D01*
X118508887Y-135357817D01*
X118316529Y-135255000D01*
X118508887Y-135152183D01*
X118721608Y-134977608D01*
X118896183Y-134764887D01*
X119025904Y-134522195D01*
X119105786Y-134258860D01*
X119132759Y-133985000D01*
X119105786Y-133711140D01*
X119025904Y-133447805D01*
X118896183Y-133205113D01*
X118721608Y-132992392D01*
X118508887Y-132817817D01*
X118316529Y-132715000D01*
X118508887Y-132612183D01*
X118721608Y-132437608D01*
X118896183Y-132224887D01*
X119025904Y-131982195D01*
X119105786Y-131718860D01*
X119132759Y-131445000D01*
X119105786Y-131171140D01*
X119025904Y-130907805D01*
X118896183Y-130665113D01*
X118721608Y-130452392D01*
X118508887Y-130277817D01*
X118316529Y-130175000D01*
X118508887Y-130072183D01*
X118721608Y-129897608D01*
X118896183Y-129684887D01*
X119025904Y-129442195D01*
X119105786Y-129178860D01*
X119132759Y-128905000D01*
X119105786Y-128631140D01*
X119025904Y-128367805D01*
X118896183Y-128125113D01*
X118721608Y-127912392D01*
X118508887Y-127737817D01*
X118316529Y-127635000D01*
X118508887Y-127532183D01*
X118721608Y-127357608D01*
X118896183Y-127144887D01*
X119025904Y-126902195D01*
X119105786Y-126638860D01*
X119132759Y-126365000D01*
X119105786Y-126091140D01*
X119025904Y-125827805D01*
X118896183Y-125585113D01*
X118721608Y-125372392D01*
X118508887Y-125197817D01*
X118316529Y-125095000D01*
X118508887Y-124992183D01*
X118721608Y-124817608D01*
X118896183Y-124604887D01*
X119025904Y-124362195D01*
X119105786Y-124098860D01*
X119132759Y-123825000D01*
X119105786Y-123551140D01*
X119025904Y-123287805D01*
X118896183Y-123045113D01*
X118721608Y-122832392D01*
X118508887Y-122657817D01*
X118316529Y-122555000D01*
X118508887Y-122452183D01*
X118721608Y-122277608D01*
X118896183Y-122064887D01*
X119025904Y-121822195D01*
X119105786Y-121558860D01*
X119132759Y-121285000D01*
X119105786Y-121011140D01*
X119025904Y-120747805D01*
X118896183Y-120505113D01*
X118721608Y-120292392D01*
X118508887Y-120117817D01*
X118316529Y-120015000D01*
X118508887Y-119912183D01*
X118721608Y-119737608D01*
X118896183Y-119524887D01*
X119025904Y-119282195D01*
X119105786Y-119018860D01*
X119132759Y-118745000D01*
X119105786Y-118471140D01*
X119025904Y-118207805D01*
X118896183Y-117965113D01*
X118721608Y-117752392D01*
X118508887Y-117577817D01*
X118316529Y-117475000D01*
X118508887Y-117372183D01*
X118721608Y-117197608D01*
X118896183Y-116984887D01*
X119025904Y-116742195D01*
X119105786Y-116478860D01*
X119132759Y-116205000D01*
X119105786Y-115931140D01*
X119025904Y-115667805D01*
X118896183Y-115425113D01*
X118721608Y-115212392D01*
X118508887Y-115037817D01*
X118316529Y-114935000D01*
X118508887Y-114832183D01*
X118721608Y-114657608D01*
X118896183Y-114444887D01*
X119025904Y-114202195D01*
X119105786Y-113938860D01*
X119132759Y-113665000D01*
X119105786Y-113391140D01*
X119025904Y-113127805D01*
X118896183Y-112885113D01*
X118721608Y-112672392D01*
X118508887Y-112497817D01*
X118316529Y-112395000D01*
X118508887Y-112292183D01*
X118721608Y-112117608D01*
X118896183Y-111904887D01*
X119025904Y-111662195D01*
X119105786Y-111398860D01*
X119132759Y-111125000D01*
X119105786Y-110851140D01*
X119025904Y-110587805D01*
X118896183Y-110345113D01*
X118721608Y-110132392D01*
X118508887Y-109957817D01*
X118316529Y-109855000D01*
X118508887Y-109752183D01*
X118721608Y-109577608D01*
X118896183Y-109364887D01*
X119025904Y-109122195D01*
X119105786Y-108858860D01*
X119132759Y-108585000D01*
X119105786Y-108311140D01*
X119025904Y-108047805D01*
X118896183Y-107805113D01*
X118721608Y-107592392D01*
X118508887Y-107417817D01*
X118316529Y-107315000D01*
X118508887Y-107212183D01*
X118721608Y-107037608D01*
X118896183Y-106824887D01*
X119025904Y-106582195D01*
X119105786Y-106318860D01*
X119132759Y-106045000D01*
X119105786Y-105771140D01*
X119025904Y-105507805D01*
X118896183Y-105265113D01*
X118721608Y-105052392D01*
X118508887Y-104877817D01*
X118316529Y-104775000D01*
X118508887Y-104672183D01*
X118721608Y-104497608D01*
X118896183Y-104284887D01*
X119025904Y-104042195D01*
X119105786Y-103778860D01*
X119132759Y-103505000D01*
X119105786Y-103231140D01*
X119025904Y-102967805D01*
X118896183Y-102725113D01*
X118721608Y-102512392D01*
X118508887Y-102337817D01*
X118316529Y-102235000D01*
X118508887Y-102132183D01*
X118721608Y-101957608D01*
X118896183Y-101744887D01*
X119025904Y-101502195D01*
X119105786Y-101238860D01*
X119132759Y-100965000D01*
X119105786Y-100691140D01*
X119025904Y-100427805D01*
X118896183Y-100185113D01*
X118721608Y-99972392D01*
X118508887Y-99797817D01*
X118316529Y-99695000D01*
X118508887Y-99592183D01*
X118721608Y-99417608D01*
X118896183Y-99204887D01*
X119025904Y-98962195D01*
X119105786Y-98698860D01*
X119132759Y-98425000D01*
X119105786Y-98151140D01*
X119025904Y-97887805D01*
X118896183Y-97645113D01*
X118721608Y-97432392D01*
X118508887Y-97257817D01*
X118266195Y-97128096D01*
X118002860Y-97048214D01*
X117797625Y-97028000D01*
X117152375Y-97028000D01*
X116947140Y-97048214D01*
X116683805Y-97128096D01*
X116441113Y-97257817D01*
X116228392Y-97432392D01*
X116053817Y-97645113D01*
X115924096Y-97887805D01*
X115911637Y-97928876D01*
X114496300Y-96513539D01*
X114496300Y-79097723D01*
X114574768Y-79215159D01*
X115094841Y-79735232D01*
X115706383Y-80143850D01*
X116385891Y-80425312D01*
X117107253Y-80568800D01*
X117842747Y-80568800D01*
X118564109Y-80425312D01*
X119243617Y-80143850D01*
X119855159Y-79735232D01*
X120375232Y-79215159D01*
X120783850Y-78603617D01*
X121065312Y-77924109D01*
X121208800Y-77202747D01*
X121208800Y-76467253D01*
X121065312Y-75745891D01*
X120783850Y-75066383D01*
X120375232Y-74454841D01*
X119855159Y-73934768D01*
X119243617Y-73526150D01*
X118564109Y-73244688D01*
X117842747Y-73101200D01*
X117107253Y-73101200D01*
X116385891Y-73244688D01*
X115706383Y-73526150D01*
X115094841Y-73934768D01*
X114574768Y-74454841D01*
X114496300Y-74572277D01*
X114496300Y-65246044D01*
X114501337Y-65194900D01*
X114496300Y-65143756D01*
X114496300Y-65143748D01*
X114481231Y-64990750D01*
X114421683Y-64794446D01*
X114324981Y-64613530D01*
X114261810Y-64536556D01*
X114227451Y-64494689D01*
X114227447Y-64494685D01*
X114194843Y-64454957D01*
X114155115Y-64422353D01*
X110341411Y-60608650D01*
X110363000Y-60500118D01*
X110363000Y-60149882D01*
X110294672Y-59806377D01*
X110160643Y-59482801D01*
X109966063Y-59191591D01*
X109718409Y-58943937D01*
X109427199Y-58749357D01*
X109103623Y-58615328D01*
X108760118Y-58547000D01*
X108409882Y-58547000D01*
X108066377Y-58615328D01*
X107742801Y-58749357D01*
X107451591Y-58943937D01*
X107203937Y-59191591D01*
X107009357Y-59482801D01*
X106875328Y-59806377D01*
X106807000Y-60149882D01*
X106807000Y-60500118D01*
X106875328Y-60843623D01*
X107009357Y-61167199D01*
X107203937Y-61458409D01*
X107451591Y-61706063D01*
X107742801Y-61900643D01*
X107840869Y-61941264D01*
X108585000Y-62685395D01*
X108599143Y-62671253D01*
X108778748Y-62850858D01*
X108764605Y-62865000D01*
X109822360Y-63922755D01*
X110101384Y-63809736D01*
X110256556Y-63495751D01*
X110262157Y-63474919D01*
X112413501Y-65626263D01*
X112413500Y-96893759D01*
X112408463Y-96944900D01*
X112413500Y-96996041D01*
X112413500Y-96996051D01*
X112428569Y-97149049D01*
X112488117Y-97345353D01*
X112584819Y-97526270D01*
X112714957Y-97684843D01*
X112754691Y-97717452D01*
X115833828Y-100796590D01*
X115817241Y-100965000D01*
X115844214Y-101238860D01*
X115924096Y-101502195D01*
X116053817Y-101744887D01*
X116228392Y-101957608D01*
X116441113Y-102132183D01*
X116633471Y-102235000D01*
X116441113Y-102337817D01*
X116228392Y-102512392D01*
X116053817Y-102725113D01*
X115924096Y-102967805D01*
X115844214Y-103231140D01*
X115817241Y-103505000D01*
X115844214Y-103778860D01*
X115924096Y-104042195D01*
X116053817Y-104284887D01*
X116228392Y-104497608D01*
X116441113Y-104672183D01*
X116633471Y-104775000D01*
X116441113Y-104877817D01*
X116228392Y-105052392D01*
X116053817Y-105265113D01*
X115924096Y-105507805D01*
X115844214Y-105771140D01*
X115817241Y-106045000D01*
X115844214Y-106318860D01*
X115924096Y-106582195D01*
X116053817Y-106824887D01*
X116228392Y-107037608D01*
X116441113Y-107212183D01*
X116633471Y-107315000D01*
X116441113Y-107417817D01*
X116228392Y-107592392D01*
X116053817Y-107805113D01*
X115924096Y-108047805D01*
X115844214Y-108311140D01*
X115817241Y-108585000D01*
X115844214Y-108858860D01*
X115924096Y-109122195D01*
X116053817Y-109364887D01*
X116228392Y-109577608D01*
X116441113Y-109752183D01*
X116633471Y-109855000D01*
X116441113Y-109957817D01*
X116228392Y-110132392D01*
X116053817Y-110345113D01*
X115924096Y-110587805D01*
X115844214Y-110851140D01*
X115817241Y-111125000D01*
X115844214Y-111398860D01*
X115924096Y-111662195D01*
X116053817Y-111904887D01*
X116228392Y-112117608D01*
X116441113Y-112292183D01*
X116633471Y-112395000D01*
X116441113Y-112497817D01*
X116228392Y-112672392D01*
X116053817Y-112885113D01*
X115924096Y-113127805D01*
X115844214Y-113391140D01*
X115817241Y-113665000D01*
X115844214Y-113938860D01*
X115924096Y-114202195D01*
X116053817Y-114444887D01*
X116228392Y-114657608D01*
X116441113Y-114832183D01*
X116633471Y-114935000D01*
X116441113Y-115037817D01*
X116228392Y-115212392D01*
X116053817Y-115425113D01*
X115924096Y-115667805D01*
X115844214Y-115931140D01*
X115817241Y-116205000D01*
X115844214Y-116478860D01*
X115924096Y-116742195D01*
X116053817Y-116984887D01*
X116228392Y-117197608D01*
X116441113Y-117372183D01*
X116633471Y-117475000D01*
X116441113Y-117577817D01*
X116228392Y-117752392D01*
X116053817Y-117965113D01*
X115924096Y-118207805D01*
X115844214Y-118471140D01*
X115817241Y-118745000D01*
X115844214Y-119018860D01*
X115924096Y-119282195D01*
X116053817Y-119524887D01*
X116228392Y-119737608D01*
X116441113Y-119912183D01*
X116633471Y-120015000D01*
X116441113Y-120117817D01*
X116228392Y-120292392D01*
X116053817Y-120505113D01*
X115924096Y-120747805D01*
X115844214Y-121011140D01*
X115817241Y-121285000D01*
X115844214Y-121558860D01*
X115924096Y-121822195D01*
X116053817Y-122064887D01*
X116228392Y-122277608D01*
X116441113Y-122452183D01*
X116633471Y-122555000D01*
X116441113Y-122657817D01*
X116228392Y-122832392D01*
X116053817Y-123045113D01*
X115924096Y-123287805D01*
X115844214Y-123551140D01*
X115817241Y-123825000D01*
X115844214Y-124098860D01*
X115924096Y-124362195D01*
X116053817Y-124604887D01*
X116228392Y-124817608D01*
X116441113Y-124992183D01*
X116633471Y-125095000D01*
X116441113Y-125197817D01*
X116228392Y-125372392D01*
X116053817Y-125585113D01*
X115924096Y-125827805D01*
X115844214Y-126091140D01*
X115817241Y-126365000D01*
X115844214Y-126638860D01*
X115924096Y-126902195D01*
X116053817Y-127144887D01*
X116228392Y-127357608D01*
X116441113Y-127532183D01*
X116633471Y-127635000D01*
X116441113Y-127737817D01*
X116228392Y-127912392D01*
X116053817Y-128125113D01*
X115924096Y-128367805D01*
X115844214Y-128631140D01*
X115817241Y-128905000D01*
X115833828Y-129073410D01*
X115122586Y-129784653D01*
X115082858Y-129817257D01*
X115050254Y-129856985D01*
X115050250Y-129856989D01*
X114952719Y-129975831D01*
X114856018Y-130156745D01*
X114796470Y-130353051D01*
X114776363Y-130557200D01*
X114781401Y-130608351D01*
X114781400Y-132943600D01*
X89129741Y-132943600D01*
X89078599Y-132938563D01*
X89027458Y-132943600D01*
X89027448Y-132943600D01*
X88874450Y-132958669D01*
X88678146Y-133018217D01*
X88678144Y-133018218D01*
X88497229Y-133114919D01*
X88378388Y-133212450D01*
X88378385Y-133212453D01*
X88338657Y-133245057D01*
X88306053Y-133284785D01*
X85189786Y-136401053D01*
X85150058Y-136433657D01*
X85117454Y-136473385D01*
X85117450Y-136473389D01*
X85019919Y-136592231D01*
X84923218Y-136773145D01*
X84863670Y-136969451D01*
X84854069Y-137066928D01*
X84015000Y-137066928D01*
X83890518Y-137079188D01*
X83770820Y-137115498D01*
X83660506Y-137174463D01*
X83563815Y-137253815D01*
X83484463Y-137350506D01*
X83425498Y-137460820D01*
X83389188Y-137580518D01*
X83376928Y-137705000D01*
X83376928Y-139163600D01*
X80887644Y-139163600D01*
X80836500Y-139158563D01*
X80785356Y-139163600D01*
X80785348Y-139163600D01*
X80698837Y-139172121D01*
X80626285Y-139083715D01*
X80529594Y-139004363D01*
X80419280Y-138945398D01*
X80299582Y-138909088D01*
X80175100Y-138896828D01*
X79387700Y-138896828D01*
X79263218Y-138909088D01*
X79143520Y-138945398D01*
X79033206Y-139004363D01*
X78936515Y-139083715D01*
X78857163Y-139180406D01*
X78798198Y-139290720D01*
X78761888Y-139410418D01*
X78749628Y-139534900D01*
X78749628Y-140186093D01*
X78734962Y-140335000D01*
X78738215Y-140368024D01*
X78606394Y-140499844D01*
X78568550Y-140462000D01*
X77825600Y-140462000D01*
X77825600Y-140482000D01*
X77571600Y-140482000D01*
X77571600Y-140462000D01*
X76828650Y-140462000D01*
X76669900Y-140620750D01*
X76669733Y-140648700D01*
X64651462Y-140648700D01*
X63537662Y-139534900D01*
X76666828Y-139534900D01*
X76669900Y-140049250D01*
X76828650Y-140208000D01*
X77571600Y-140208000D01*
X77571600Y-139058650D01*
X77825600Y-139058650D01*
X77825600Y-140208000D01*
X78568550Y-140208000D01*
X78727300Y-140049250D01*
X78730372Y-139534900D01*
X78718112Y-139410418D01*
X78681802Y-139290720D01*
X78622837Y-139180406D01*
X78543485Y-139083715D01*
X78446794Y-139004363D01*
X78336480Y-138945398D01*
X78216782Y-138909088D01*
X78092300Y-138896828D01*
X77984350Y-138899900D01*
X77825600Y-139058650D01*
X77571600Y-139058650D01*
X77412850Y-138899900D01*
X77304900Y-138896828D01*
X77180418Y-138909088D01*
X77060720Y-138945398D01*
X76950406Y-139004363D01*
X76853715Y-139083715D01*
X76774363Y-139180406D01*
X76715398Y-139290720D01*
X76679088Y-139410418D01*
X76666828Y-139534900D01*
X63537662Y-139534900D01*
X61120952Y-137118191D01*
X61088343Y-137078457D01*
X60929770Y-136948319D01*
X60748854Y-136851617D01*
X60676445Y-136829652D01*
X60685786Y-136798860D01*
X60712759Y-136525000D01*
X60685786Y-136251140D01*
X60605904Y-135987805D01*
X60476183Y-135745113D01*
X60301608Y-135532392D01*
X60088887Y-135357817D01*
X59896529Y-135255000D01*
X60088887Y-135152183D01*
X60301608Y-134977608D01*
X60476183Y-134764887D01*
X60605904Y-134522195D01*
X60685786Y-134258860D01*
X60712759Y-133985000D01*
X60685786Y-133711140D01*
X60605904Y-133447805D01*
X60476183Y-133205113D01*
X60301608Y-132992392D01*
X60088887Y-132817817D01*
X59896529Y-132715000D01*
X60088887Y-132612183D01*
X60301608Y-132437608D01*
X60476183Y-132224887D01*
X60605904Y-131982195D01*
X60685786Y-131718860D01*
X60712759Y-131445000D01*
X60685786Y-131171140D01*
X60605904Y-130907805D01*
X60520964Y-130748891D01*
X82580000Y-130748891D01*
X82580000Y-131061109D01*
X82640911Y-131367327D01*
X82760391Y-131655779D01*
X82933850Y-131915379D01*
X83154621Y-132136150D01*
X83414221Y-132309609D01*
X83702673Y-132429089D01*
X84008891Y-132490000D01*
X84321109Y-132490000D01*
X84627327Y-132429089D01*
X84915779Y-132309609D01*
X85175379Y-132136150D01*
X85396150Y-131915379D01*
X85569609Y-131655779D01*
X85689089Y-131367327D01*
X85750000Y-131061109D01*
X85750000Y-130748891D01*
X85689089Y-130442673D01*
X85569609Y-130154221D01*
X85396150Y-129894621D01*
X85175379Y-129673850D01*
X84915779Y-129500391D01*
X84627327Y-129380911D01*
X84321109Y-129320000D01*
X84008891Y-129320000D01*
X83702673Y-129380911D01*
X83414221Y-129500391D01*
X83154621Y-129673850D01*
X82933850Y-129894621D01*
X82760391Y-130154221D01*
X82640911Y-130442673D01*
X82580000Y-130748891D01*
X60520964Y-130748891D01*
X60476183Y-130665113D01*
X60301608Y-130452392D01*
X60088887Y-130277817D01*
X59896529Y-130175000D01*
X60088887Y-130072183D01*
X60301608Y-129897608D01*
X60476183Y-129684887D01*
X60605904Y-129442195D01*
X60685786Y-129178860D01*
X60712759Y-128905000D01*
X60685786Y-128631140D01*
X60682666Y-128620852D01*
X85380000Y-128620852D01*
X85380000Y-129189148D01*
X85490869Y-129746523D01*
X85708346Y-130271560D01*
X86024074Y-130744080D01*
X86425920Y-131145926D01*
X86898440Y-131461654D01*
X87423477Y-131679131D01*
X87980852Y-131790000D01*
X88549148Y-131790000D01*
X89106523Y-131679131D01*
X89631560Y-131461654D01*
X90104080Y-131145926D01*
X90501115Y-130748891D01*
X90780000Y-130748891D01*
X90780000Y-131061109D01*
X90840911Y-131367327D01*
X90960391Y-131655779D01*
X91133850Y-131915379D01*
X91354621Y-132136150D01*
X91614221Y-132309609D01*
X91902673Y-132429089D01*
X92208891Y-132490000D01*
X92521109Y-132490000D01*
X92827327Y-132429089D01*
X93115779Y-132309609D01*
X93375379Y-132136150D01*
X93596150Y-131915379D01*
X93769609Y-131655779D01*
X93889089Y-131367327D01*
X93950000Y-131061109D01*
X93950000Y-130748891D01*
X93889089Y-130442673D01*
X93769609Y-130154221D01*
X93596150Y-129894621D01*
X93375379Y-129673850D01*
X93115779Y-129500391D01*
X92827327Y-129380911D01*
X92521109Y-129320000D01*
X92208891Y-129320000D01*
X91902673Y-129380911D01*
X91614221Y-129500391D01*
X91354621Y-129673850D01*
X91133850Y-129894621D01*
X90960391Y-130154221D01*
X90840911Y-130442673D01*
X90780000Y-130748891D01*
X90501115Y-130748891D01*
X90505926Y-130744080D01*
X90821654Y-130271560D01*
X91039131Y-129746523D01*
X91150000Y-129189148D01*
X91150000Y-128620852D01*
X91039131Y-128063477D01*
X90821654Y-127538440D01*
X90505926Y-127065920D01*
X90104080Y-126664074D01*
X89631560Y-126348346D01*
X89106523Y-126130869D01*
X88549148Y-126020000D01*
X87980852Y-126020000D01*
X87423477Y-126130869D01*
X86898440Y-126348346D01*
X86425920Y-126664074D01*
X86024074Y-127065920D01*
X85708346Y-127538440D01*
X85490869Y-128063477D01*
X85380000Y-128620852D01*
X60682666Y-128620852D01*
X60605904Y-128367805D01*
X60476183Y-128125113D01*
X60301608Y-127912392D01*
X60088887Y-127737817D01*
X59896529Y-127635000D01*
X60088887Y-127532183D01*
X60301608Y-127357608D01*
X60476183Y-127144887D01*
X60605904Y-126902195D01*
X60685786Y-126638860D01*
X60712759Y-126365000D01*
X60685786Y-126091140D01*
X60605904Y-125827805D01*
X60476183Y-125585113D01*
X60301608Y-125372392D01*
X60088887Y-125197817D01*
X59896529Y-125095000D01*
X60088887Y-124992183D01*
X60301608Y-124817608D01*
X60476183Y-124604887D01*
X60605904Y-124362195D01*
X60685786Y-124098860D01*
X60712759Y-123825000D01*
X60696172Y-123656589D01*
X63474715Y-120878047D01*
X63514443Y-120845443D01*
X63630826Y-120703631D01*
X63644581Y-120686871D01*
X63741282Y-120505956D01*
X63742924Y-120500543D01*
X63800831Y-120309650D01*
X63815900Y-120156652D01*
X63815900Y-120156642D01*
X63820937Y-120105501D01*
X63815900Y-120054359D01*
X63815900Y-118705000D01*
X85126928Y-118705000D01*
X85126928Y-123905000D01*
X85139188Y-124029482D01*
X85175498Y-124149180D01*
X85234463Y-124259494D01*
X85313815Y-124356185D01*
X85410506Y-124435537D01*
X85520820Y-124494502D01*
X85640518Y-124530812D01*
X85765000Y-124543072D01*
X90765000Y-124543072D01*
X90889482Y-124530812D01*
X91009180Y-124494502D01*
X91119494Y-124435537D01*
X91216185Y-124356185D01*
X91295537Y-124259494D01*
X91354502Y-124149180D01*
X91390812Y-124029482D01*
X91403072Y-123905000D01*
X91403072Y-118705000D01*
X91390812Y-118580518D01*
X91354502Y-118460820D01*
X91295537Y-118350506D01*
X91216185Y-118253815D01*
X91119494Y-118174463D01*
X91009180Y-118115498D01*
X90889482Y-118079188D01*
X90765000Y-118066928D01*
X89300932Y-118066928D01*
X89291331Y-117969450D01*
X89231783Y-117773146D01*
X89135081Y-117592230D01*
X89004943Y-117433657D01*
X88965209Y-117401048D01*
X88640700Y-117076539D01*
X88640700Y-116918072D01*
X90130000Y-116918072D01*
X90254482Y-116905812D01*
X90374180Y-116869502D01*
X90484494Y-116810537D01*
X90581185Y-116731185D01*
X90660537Y-116634494D01*
X90719502Y-116524180D01*
X90755812Y-116404482D01*
X90768072Y-116280000D01*
X90768072Y-114840000D01*
X90755812Y-114715518D01*
X90719502Y-114595820D01*
X90707165Y-114572740D01*
X90754502Y-114484180D01*
X90790812Y-114364482D01*
X90803072Y-114240000D01*
X90800000Y-112045750D01*
X90641250Y-111887000D01*
X88392000Y-111887000D01*
X88392000Y-111907000D01*
X88138000Y-111907000D01*
X88138000Y-111887000D01*
X85888750Y-111887000D01*
X85730000Y-112045750D01*
X85726928Y-114240000D01*
X85739188Y-114364482D01*
X85775498Y-114484180D01*
X85822835Y-114572740D01*
X85810498Y-114595820D01*
X85774188Y-114715518D01*
X85761928Y-114840000D01*
X85761928Y-116280000D01*
X85774188Y-116404482D01*
X85810498Y-116524180D01*
X85869463Y-116634494D01*
X85948815Y-116731185D01*
X86045506Y-116810537D01*
X86155820Y-116869502D01*
X86275518Y-116905812D01*
X86400000Y-116918072D01*
X86557900Y-116918072D01*
X86557900Y-117456758D01*
X86552863Y-117507900D01*
X86557900Y-117559041D01*
X86557900Y-117559051D01*
X86572969Y-117712049D01*
X86632517Y-117908353D01*
X86717277Y-118066928D01*
X85765000Y-118066928D01*
X85640518Y-118079188D01*
X85520820Y-118115498D01*
X85410506Y-118174463D01*
X85313815Y-118253815D01*
X85234463Y-118350506D01*
X85175498Y-118460820D01*
X85139188Y-118580518D01*
X85126928Y-118705000D01*
X63815900Y-118705000D01*
X63815900Y-108613700D01*
X63885100Y-108613700D01*
X63885100Y-111233439D01*
X63847000Y-111424979D01*
X63847000Y-111637621D01*
X63888485Y-111846178D01*
X63969860Y-112042635D01*
X64087998Y-112219441D01*
X64238359Y-112369802D01*
X64415165Y-112487940D01*
X64611622Y-112569315D01*
X64820179Y-112610800D01*
X65032821Y-112610800D01*
X65241378Y-112569315D01*
X65437835Y-112487940D01*
X65614641Y-112369802D01*
X65765002Y-112219441D01*
X65883140Y-112042635D01*
X65964515Y-111846178D01*
X66006000Y-111637621D01*
X66006000Y-111424979D01*
X65967900Y-111233439D01*
X65967900Y-109280000D01*
X85726928Y-109280000D01*
X85730000Y-111474250D01*
X85888750Y-111633000D01*
X88138000Y-111633000D01*
X88138000Y-108803750D01*
X88392000Y-108803750D01*
X88392000Y-111633000D01*
X90641250Y-111633000D01*
X90800000Y-111474250D01*
X90803072Y-109280000D01*
X90790812Y-109155518D01*
X90754502Y-109035820D01*
X90695537Y-108925506D01*
X90616185Y-108828815D01*
X90519494Y-108749463D01*
X90409180Y-108690498D01*
X90289482Y-108654188D01*
X90165000Y-108641928D01*
X88550750Y-108645000D01*
X88392000Y-108803750D01*
X88138000Y-108803750D01*
X87979250Y-108645000D01*
X86365000Y-108641928D01*
X86240518Y-108654188D01*
X86120820Y-108690498D01*
X86010506Y-108749463D01*
X85913815Y-108828815D01*
X85834463Y-108925506D01*
X85775498Y-109035820D01*
X85739188Y-109155518D01*
X85726928Y-109280000D01*
X65967900Y-109280000D01*
X65967900Y-91714861D01*
X72830421Y-84852340D01*
X90297000Y-84852340D01*
X90297000Y-85327660D01*
X90389731Y-85793846D01*
X90571628Y-86232984D01*
X90835701Y-86628198D01*
X91171802Y-86964299D01*
X91567016Y-87228372D01*
X92006154Y-87410269D01*
X92472340Y-87503000D01*
X92947660Y-87503000D01*
X93413846Y-87410269D01*
X93852984Y-87228372D01*
X94248198Y-86964299D01*
X94584299Y-86628198D01*
X94848372Y-86232984D01*
X95030269Y-85793846D01*
X95123000Y-85327660D01*
X95123000Y-84852340D01*
X95030269Y-84386154D01*
X94848372Y-83947016D01*
X94584299Y-83551802D01*
X94248198Y-83215701D01*
X93852984Y-82951628D01*
X93413846Y-82769731D01*
X92947660Y-82677000D01*
X92472340Y-82677000D01*
X92006154Y-82769731D01*
X91567016Y-82951628D01*
X91171802Y-83215701D01*
X90835701Y-83551802D01*
X90571628Y-83947016D01*
X90389731Y-84386154D01*
X90297000Y-84852340D01*
X72830421Y-84852340D01*
X78340401Y-79342360D01*
X79587245Y-79342360D01*
X79700264Y-79621384D01*
X80014249Y-79776556D01*
X80352473Y-79867491D01*
X80701938Y-79890694D01*
X81049216Y-79845275D01*
X81380960Y-79732977D01*
X81589736Y-79621384D01*
X81702755Y-79342360D01*
X107527245Y-79342360D01*
X107640264Y-79621384D01*
X107954249Y-79776556D01*
X108292473Y-79867491D01*
X108641938Y-79890694D01*
X108989216Y-79845275D01*
X109320960Y-79732977D01*
X109529736Y-79621384D01*
X109642755Y-79342360D01*
X108585000Y-78284605D01*
X107527245Y-79342360D01*
X81702755Y-79342360D01*
X80645000Y-78284605D01*
X79587245Y-79342360D01*
X78340401Y-79342360D01*
X78972710Y-78710052D01*
X79017023Y-78840960D01*
X79128616Y-79049736D01*
X79407640Y-79162755D01*
X80465395Y-78105000D01*
X80824605Y-78105000D01*
X81882360Y-79162755D01*
X82161384Y-79049736D01*
X82316556Y-78735751D01*
X82407491Y-78397527D01*
X82423133Y-78161938D01*
X106799306Y-78161938D01*
X106844725Y-78509216D01*
X106957023Y-78840960D01*
X107068616Y-79049736D01*
X107347640Y-79162755D01*
X108405395Y-78105000D01*
X108764605Y-78105000D01*
X109822360Y-79162755D01*
X110101384Y-79049736D01*
X110256556Y-78735751D01*
X110347491Y-78397527D01*
X110370694Y-78048062D01*
X110325275Y-77700784D01*
X110212977Y-77369040D01*
X110101384Y-77160264D01*
X109822360Y-77047245D01*
X108764605Y-78105000D01*
X108405395Y-78105000D01*
X107347640Y-77047245D01*
X107068616Y-77160264D01*
X106913444Y-77474249D01*
X106822509Y-77812473D01*
X106799306Y-78161938D01*
X82423133Y-78161938D01*
X82430694Y-78048062D01*
X82385275Y-77700784D01*
X82272977Y-77369040D01*
X82161384Y-77160264D01*
X81882360Y-77047245D01*
X80824605Y-78105000D01*
X80465395Y-78105000D01*
X80451253Y-78090858D01*
X80630858Y-77911253D01*
X80645000Y-77925395D01*
X81389131Y-77181264D01*
X81487199Y-77140643D01*
X81778409Y-76946063D01*
X82026063Y-76698409D01*
X82220643Y-76407199D01*
X82354672Y-76083623D01*
X82423000Y-75740118D01*
X82423000Y-75389882D01*
X106807000Y-75389882D01*
X106807000Y-75740118D01*
X106875328Y-76083623D01*
X107009357Y-76407199D01*
X107203937Y-76698409D01*
X107451591Y-76946063D01*
X107742801Y-77140643D01*
X107840869Y-77181264D01*
X108585000Y-77925395D01*
X109329131Y-77181264D01*
X109427199Y-77140643D01*
X109718409Y-76946063D01*
X109966063Y-76698409D01*
X110160643Y-76407199D01*
X110294672Y-76083623D01*
X110363000Y-75740118D01*
X110363000Y-75389882D01*
X110294672Y-75046377D01*
X110160643Y-74722801D01*
X109966063Y-74431591D01*
X109718409Y-74183937D01*
X109427199Y-73989357D01*
X109103623Y-73855328D01*
X108760118Y-73787000D01*
X108409882Y-73787000D01*
X108066377Y-73855328D01*
X107742801Y-73989357D01*
X107451591Y-74183937D01*
X107203937Y-74431591D01*
X107009357Y-74722801D01*
X106875328Y-75046377D01*
X106807000Y-75389882D01*
X82423000Y-75389882D01*
X82354672Y-75046377D01*
X82220643Y-74722801D01*
X82026063Y-74431591D01*
X81778409Y-74183937D01*
X81487199Y-73989357D01*
X81163623Y-73855328D01*
X80820118Y-73787000D01*
X80469882Y-73787000D01*
X80126377Y-73855328D01*
X79802801Y-73989357D01*
X79511591Y-74183937D01*
X79263937Y-74431591D01*
X79069357Y-74722801D01*
X78935328Y-75046377D01*
X78867000Y-75389882D01*
X78867000Y-75740118D01*
X78888588Y-75848650D01*
X64853200Y-89884039D01*
X64853200Y-85209561D01*
X78340401Y-71722360D01*
X79587245Y-71722360D01*
X79700264Y-72001384D01*
X80014249Y-72156556D01*
X80352473Y-72247491D01*
X80701938Y-72270694D01*
X81049216Y-72225275D01*
X81380960Y-72112977D01*
X81589736Y-72001384D01*
X81702755Y-71722360D01*
X107527245Y-71722360D01*
X107640264Y-72001384D01*
X107954249Y-72156556D01*
X108292473Y-72247491D01*
X108641938Y-72270694D01*
X108989216Y-72225275D01*
X109320960Y-72112977D01*
X109529736Y-72001384D01*
X109642755Y-71722360D01*
X108585000Y-70664605D01*
X107527245Y-71722360D01*
X81702755Y-71722360D01*
X80645000Y-70664605D01*
X79587245Y-71722360D01*
X78340401Y-71722360D01*
X78972710Y-71090052D01*
X79017023Y-71220960D01*
X79128616Y-71429736D01*
X79407640Y-71542755D01*
X80465395Y-70485000D01*
X80824605Y-70485000D01*
X81882360Y-71542755D01*
X82161384Y-71429736D01*
X82316556Y-71115751D01*
X82407491Y-70777527D01*
X82423133Y-70541938D01*
X106799306Y-70541938D01*
X106844725Y-70889216D01*
X106957023Y-71220960D01*
X107068616Y-71429736D01*
X107347640Y-71542755D01*
X108405395Y-70485000D01*
X108764605Y-70485000D01*
X109822360Y-71542755D01*
X110101384Y-71429736D01*
X110256556Y-71115751D01*
X110347491Y-70777527D01*
X110370694Y-70428062D01*
X110325275Y-70080784D01*
X110212977Y-69749040D01*
X110101384Y-69540264D01*
X109822360Y-69427245D01*
X108764605Y-70485000D01*
X108405395Y-70485000D01*
X107347640Y-69427245D01*
X107068616Y-69540264D01*
X106913444Y-69854249D01*
X106822509Y-70192473D01*
X106799306Y-70541938D01*
X82423133Y-70541938D01*
X82430694Y-70428062D01*
X82385275Y-70080784D01*
X82272977Y-69749040D01*
X82161384Y-69540264D01*
X81882360Y-69427245D01*
X80824605Y-70485000D01*
X80465395Y-70485000D01*
X80451253Y-70470858D01*
X80630858Y-70291253D01*
X80645000Y-70305395D01*
X81389131Y-69561264D01*
X81487199Y-69520643D01*
X81778409Y-69326063D01*
X82026063Y-69078409D01*
X82220643Y-68787199D01*
X82354672Y-68463623D01*
X82423000Y-68120118D01*
X82423000Y-67769882D01*
X106807000Y-67769882D01*
X106807000Y-68120118D01*
X106875328Y-68463623D01*
X107009357Y-68787199D01*
X107203937Y-69078409D01*
X107451591Y-69326063D01*
X107742801Y-69520643D01*
X107840869Y-69561264D01*
X108585000Y-70305395D01*
X109329131Y-69561264D01*
X109427199Y-69520643D01*
X109718409Y-69326063D01*
X109966063Y-69078409D01*
X110160643Y-68787199D01*
X110294672Y-68463623D01*
X110363000Y-68120118D01*
X110363000Y-67769882D01*
X110294672Y-67426377D01*
X110160643Y-67102801D01*
X109966063Y-66811591D01*
X109718409Y-66563937D01*
X109427199Y-66369357D01*
X109103623Y-66235328D01*
X108760118Y-66167000D01*
X108409882Y-66167000D01*
X108066377Y-66235328D01*
X107742801Y-66369357D01*
X107451591Y-66563937D01*
X107203937Y-66811591D01*
X107009357Y-67102801D01*
X106875328Y-67426377D01*
X106807000Y-67769882D01*
X82423000Y-67769882D01*
X82354672Y-67426377D01*
X82220643Y-67102801D01*
X82026063Y-66811591D01*
X81778409Y-66563937D01*
X81487199Y-66369357D01*
X81163623Y-66235328D01*
X80820118Y-66167000D01*
X80469882Y-66167000D01*
X80126377Y-66235328D01*
X79802801Y-66369357D01*
X79511591Y-66563937D01*
X79263937Y-66811591D01*
X79069357Y-67102801D01*
X78935328Y-67426377D01*
X78867000Y-67769882D01*
X78867000Y-68120118D01*
X78888588Y-68228650D01*
X63815900Y-83301339D01*
X63815900Y-81908761D01*
X64389414Y-81335248D01*
X64429143Y-81302643D01*
X64559281Y-81144070D01*
X64655983Y-80963154D01*
X64715531Y-80766850D01*
X64730600Y-80613852D01*
X64730600Y-80613842D01*
X64735637Y-80562701D01*
X64730600Y-80511559D01*
X64730600Y-71360344D01*
X64735637Y-71309200D01*
X64730600Y-71258056D01*
X64730600Y-71258048D01*
X64715531Y-71105050D01*
X64655983Y-70908746D01*
X64559281Y-70727830D01*
X64461751Y-70608989D01*
X64461747Y-70608985D01*
X64429143Y-70569257D01*
X64389415Y-70536653D01*
X57955122Y-64102360D01*
X79587245Y-64102360D01*
X79700264Y-64381384D01*
X80014249Y-64536556D01*
X80352473Y-64627491D01*
X80701938Y-64650694D01*
X81049216Y-64605275D01*
X81380960Y-64492977D01*
X81589736Y-64381384D01*
X81702755Y-64102360D01*
X107527245Y-64102360D01*
X107640264Y-64381384D01*
X107954249Y-64536556D01*
X108292473Y-64627491D01*
X108641938Y-64650694D01*
X108989216Y-64605275D01*
X109320960Y-64492977D01*
X109529736Y-64381384D01*
X109642755Y-64102360D01*
X108585000Y-63044605D01*
X107527245Y-64102360D01*
X81702755Y-64102360D01*
X80645000Y-63044605D01*
X79587245Y-64102360D01*
X57955122Y-64102360D01*
X56774700Y-62921938D01*
X78859306Y-62921938D01*
X78904725Y-63269216D01*
X79017023Y-63600960D01*
X79128616Y-63809736D01*
X79407640Y-63922755D01*
X80465395Y-62865000D01*
X80824605Y-62865000D01*
X81882360Y-63922755D01*
X82161384Y-63809736D01*
X82316556Y-63495751D01*
X82407491Y-63157527D01*
X82423133Y-62921938D01*
X106799306Y-62921938D01*
X106844725Y-63269216D01*
X106957023Y-63600960D01*
X107068616Y-63809736D01*
X107347640Y-63922755D01*
X108405395Y-62865000D01*
X107347640Y-61807245D01*
X107068616Y-61920264D01*
X106913444Y-62234249D01*
X106822509Y-62572473D01*
X106799306Y-62921938D01*
X82423133Y-62921938D01*
X82430694Y-62808062D01*
X82385275Y-62460784D01*
X82272977Y-62129040D01*
X82161384Y-61920264D01*
X81882360Y-61807245D01*
X80824605Y-62865000D01*
X80465395Y-62865000D01*
X79407640Y-61807245D01*
X79128616Y-61920264D01*
X78973444Y-62234249D01*
X78882509Y-62572473D01*
X78859306Y-62921938D01*
X56774700Y-62921938D01*
X54461411Y-60608650D01*
X54483000Y-60500118D01*
X54483000Y-60149882D01*
X78867000Y-60149882D01*
X78867000Y-60500118D01*
X78935328Y-60843623D01*
X79069357Y-61167199D01*
X79263937Y-61458409D01*
X79511591Y-61706063D01*
X79802801Y-61900643D01*
X79900869Y-61941264D01*
X80645000Y-62685395D01*
X81389131Y-61941264D01*
X81487199Y-61900643D01*
X81778409Y-61706063D01*
X82026063Y-61458409D01*
X82220643Y-61167199D01*
X82354672Y-60843623D01*
X82423000Y-60500118D01*
X82423000Y-60149882D01*
X82354672Y-59806377D01*
X82220643Y-59482801D01*
X82026063Y-59191591D01*
X81778409Y-58943937D01*
X81487199Y-58749357D01*
X81163623Y-58615328D01*
X80820118Y-58547000D01*
X80469882Y-58547000D01*
X80126377Y-58615328D01*
X79802801Y-58749357D01*
X79511591Y-58943937D01*
X79263937Y-59191591D01*
X79069357Y-59482801D01*
X78935328Y-59806377D01*
X78867000Y-60149882D01*
X54483000Y-60149882D01*
X54414672Y-59806377D01*
X54280643Y-59482801D01*
X54086063Y-59191591D01*
X53838409Y-58943937D01*
X53547199Y-58749357D01*
X53223623Y-58615328D01*
X52880118Y-58547000D01*
X52529882Y-58547000D01*
X52186377Y-58615328D01*
X51862801Y-58749357D01*
X51574700Y-58941860D01*
X51574700Y-57180440D01*
X51645707Y-56278205D01*
X51645914Y-56277340D01*
X62357000Y-56277340D01*
X62357000Y-56752660D01*
X62449731Y-57218846D01*
X62631628Y-57657984D01*
X62895701Y-58053198D01*
X63231802Y-58389299D01*
X63627016Y-58653372D01*
X64066154Y-58835269D01*
X64532340Y-58928000D01*
X65007660Y-58928000D01*
X65473846Y-58835269D01*
X65912984Y-58653372D01*
X66308198Y-58389299D01*
X66644299Y-58053198D01*
X66908372Y-57657984D01*
X67090269Y-57218846D01*
X67183000Y-56752660D01*
X67183000Y-56277340D01*
X118237000Y-56277340D01*
X118237000Y-56752660D01*
X118329731Y-57218846D01*
X118511628Y-57657984D01*
X118775701Y-58053198D01*
X119111802Y-58389299D01*
X119507016Y-58653372D01*
X119946154Y-58835269D01*
X120412340Y-58928000D01*
X120887660Y-58928000D01*
X121353846Y-58835269D01*
X121792984Y-58653372D01*
X122188198Y-58389299D01*
X122524299Y-58053198D01*
X122788372Y-57657984D01*
X122970269Y-57218846D01*
X123063000Y-56752660D01*
X123063000Y-56277340D01*
X122970269Y-55811154D01*
X122788372Y-55372016D01*
X122524299Y-54976802D01*
X122392515Y-54845018D01*
X122467835Y-54860000D01*
X122642165Y-54860000D01*
X122813145Y-54825990D01*
X122974205Y-54759277D01*
X123119155Y-54662424D01*
X123242424Y-54539155D01*
X123339277Y-54394205D01*
X123405990Y-54233145D01*
X123440000Y-54062165D01*
X123440000Y-53887835D01*
X123405990Y-53716855D01*
X123339277Y-53555795D01*
X123242424Y-53410845D01*
X123119155Y-53287576D01*
X122974205Y-53190723D01*
X122813145Y-53124010D01*
X122642165Y-53090000D01*
X122467835Y-53090000D01*
X122296855Y-53124010D01*
X122135795Y-53190723D01*
X121990845Y-53287576D01*
X121867576Y-53410845D01*
X121770723Y-53555795D01*
X121704010Y-53716855D01*
X121670000Y-53887835D01*
X121670000Y-54062165D01*
X121704010Y-54233145D01*
X121757324Y-54361857D01*
X121353846Y-54194731D01*
X120887660Y-54102000D01*
X120412340Y-54102000D01*
X119946154Y-54194731D01*
X119507016Y-54376628D01*
X119111802Y-54640701D01*
X118775701Y-54976802D01*
X118511628Y-55372016D01*
X118329731Y-55811154D01*
X118237000Y-56277340D01*
X67183000Y-56277340D01*
X67090269Y-55811154D01*
X66908372Y-55372016D01*
X66644299Y-54976802D01*
X66308198Y-54640701D01*
X65912984Y-54376628D01*
X65473846Y-54194731D01*
X65007660Y-54102000D01*
X64532340Y-54102000D01*
X64066154Y-54194731D01*
X63627016Y-54376628D01*
X63231802Y-54640701D01*
X62895701Y-54976802D01*
X62631628Y-55372016D01*
X62449731Y-55811154D01*
X62357000Y-56277340D01*
X51645914Y-56277340D01*
X51849853Y-55427876D01*
X52184505Y-54619956D01*
X52633149Y-53887835D01*
X53090000Y-53887835D01*
X53090000Y-54062165D01*
X53124010Y-54233145D01*
X53190723Y-54394205D01*
X53287576Y-54539155D01*
X53410845Y-54662424D01*
X53555795Y-54759277D01*
X53716855Y-54825990D01*
X53887835Y-54860000D01*
X54062165Y-54860000D01*
X54233145Y-54825990D01*
X54394205Y-54759277D01*
X54539155Y-54662424D01*
X54662424Y-54539155D01*
X54759277Y-54394205D01*
X54825990Y-54233145D01*
X54860000Y-54062165D01*
X54860000Y-53887835D01*
X54825990Y-53716855D01*
X54759277Y-53555795D01*
X54662424Y-53410845D01*
X54539155Y-53287576D01*
X54394205Y-53190723D01*
X54233145Y-53124010D01*
X54062165Y-53090000D01*
X53887835Y-53090000D01*
X53716855Y-53124010D01*
X53555795Y-53190723D01*
X53410845Y-53287576D01*
X53287576Y-53410845D01*
X53190723Y-53555795D01*
X53124010Y-53716855D01*
X53090000Y-53887835D01*
X52633149Y-53887835D01*
X52641426Y-53874329D01*
X53209362Y-53209361D01*
X53874326Y-52641427D01*
X54619956Y-52184505D01*
X55427876Y-51849853D01*
X56278205Y-51645707D01*
X57180441Y-51574700D01*
X119349560Y-51574700D01*
X120251795Y-51645707D01*
G37*
X120251795Y-51645707D02*
X121102124Y-51849853D01*
X121910044Y-52184505D01*
X122655671Y-52641426D01*
X123320639Y-53209362D01*
X123888573Y-53874326D01*
X124345495Y-54619956D01*
X124680147Y-55427876D01*
X124884293Y-56278205D01*
X124955300Y-57180441D01*
X124955301Y-142209547D01*
X124884293Y-143111795D01*
X124680147Y-143962124D01*
X124345495Y-144770044D01*
X123888573Y-145515674D01*
X123320639Y-146180638D01*
X122655671Y-146748574D01*
X121910044Y-147205495D01*
X121102124Y-147540147D01*
X120251795Y-147744293D01*
X119349560Y-147815300D01*
X57180441Y-147815300D01*
X56278205Y-147744293D01*
X55427876Y-147540147D01*
X54619956Y-147205495D01*
X53874326Y-146748573D01*
X53209362Y-146180639D01*
X52641426Y-145515671D01*
X52526320Y-145327835D01*
X53090000Y-145327835D01*
X53090000Y-145502165D01*
X53124010Y-145673145D01*
X53190723Y-145834205D01*
X53287576Y-145979155D01*
X53410845Y-146102424D01*
X53555795Y-146199277D01*
X53716855Y-146265990D01*
X53887835Y-146300000D01*
X54062165Y-146300000D01*
X54233145Y-146265990D01*
X54394205Y-146199277D01*
X54539155Y-146102424D01*
X54662424Y-145979155D01*
X54759277Y-145834205D01*
X54825990Y-145673145D01*
X54860000Y-145502165D01*
X54860000Y-145327835D01*
X54825990Y-145156855D01*
X54759277Y-144995795D01*
X54662424Y-144850845D01*
X54539155Y-144727576D01*
X54394205Y-144630723D01*
X54233145Y-144564010D01*
X54062165Y-144530000D01*
X53887835Y-144530000D01*
X53716855Y-144564010D01*
X53555795Y-144630723D01*
X53410845Y-144727576D01*
X53287576Y-144850845D01*
X53190723Y-144995795D01*
X53124010Y-145156855D01*
X53090000Y-145327835D01*
X52526320Y-145327835D01*
X52184505Y-144770044D01*
X51849853Y-143962124D01*
X51645707Y-143111795D01*
X51574700Y-142209560D01*
X51574700Y-79414908D01*
X51647246Y-79342362D01*
X51760264Y-79621384D01*
X52074249Y-79776556D01*
X52412473Y-79867491D01*
X52761938Y-79890694D01*
X53109216Y-79845275D01*
X53440960Y-79732977D01*
X53649736Y-79621384D01*
X53762755Y-79342360D01*
X52705000Y-78284605D01*
X52690858Y-78298748D01*
X52511253Y-78119143D01*
X52525395Y-78105000D01*
X52511253Y-78090858D01*
X52690858Y-77911253D01*
X52705000Y-77925395D01*
X52719143Y-77911253D01*
X52898748Y-78090858D01*
X52884605Y-78105000D01*
X53942360Y-79162755D01*
X54221384Y-79049736D01*
X54308001Y-78874470D01*
X54308000Y-130228259D01*
X54302963Y-130279400D01*
X54308000Y-130330541D01*
X54308000Y-130330551D01*
X54323069Y-130483549D01*
X54382617Y-130679853D01*
X54479319Y-130860770D01*
X54609457Y-131019343D01*
X54649191Y-131051952D01*
X57413828Y-133816590D01*
X57397241Y-133985000D01*
X57424214Y-134258860D01*
X57504096Y-134522195D01*
X57633817Y-134764887D01*
X57808392Y-134977608D01*
X58021113Y-135152183D01*
X58213471Y-135255000D01*
X58021113Y-135357817D01*
X57808392Y-135532392D01*
X57633817Y-135745113D01*
X57504096Y-135987805D01*
X57424214Y-136251140D01*
X57397241Y-136525000D01*
X57424214Y-136798860D01*
X57504096Y-137062195D01*
X57633817Y-137304887D01*
X57808392Y-137517608D01*
X58013601Y-137686018D01*
X58013601Y-137767239D01*
X58008562Y-137818400D01*
X58028669Y-138022550D01*
X58088217Y-138218854D01*
X58184919Y-138399770D01*
X58315057Y-138558343D01*
X58473630Y-138688481D01*
X58654546Y-138785183D01*
X58850850Y-138844731D01*
X59003848Y-138859800D01*
X59003849Y-138859800D01*
X59055000Y-138864838D01*
X59106152Y-138859800D01*
X59917039Y-138859800D01*
X60481806Y-139424567D01*
X60144109Y-139284688D01*
X59422747Y-139141200D01*
X58687253Y-139141200D01*
X57965891Y-139284688D01*
X57286383Y-139566150D01*
X56674841Y-139974768D01*
X56154768Y-140494841D01*
X55746150Y-141106383D01*
X55464688Y-141785891D01*
X55321200Y-142507253D01*
X55321200Y-143242747D01*
X55464688Y-143964109D01*
X55746150Y-144643617D01*
X56154768Y-145255159D01*
X56674841Y-145775232D01*
X57286383Y-146183850D01*
X57965891Y-146465312D01*
X58687253Y-146608800D01*
X59422747Y-146608800D01*
X60144109Y-146465312D01*
X60823617Y-146183850D01*
X61435159Y-145775232D01*
X61955232Y-145255159D01*
X62363850Y-144643617D01*
X62645312Y-143964109D01*
X62788800Y-143242747D01*
X62788800Y-142507253D01*
X62645312Y-141785891D01*
X62505434Y-141448195D01*
X63447553Y-142390315D01*
X63480157Y-142430043D01*
X63519885Y-142462647D01*
X63519889Y-142462651D01*
X63611578Y-142537898D01*
X63638730Y-142560181D01*
X63819646Y-142656883D01*
X64015950Y-142716431D01*
X64168948Y-142731500D01*
X64168956Y-142731500D01*
X64220100Y-142736537D01*
X64271244Y-142731500D01*
X78837759Y-142731500D01*
X78888900Y-142736537D01*
X78940041Y-142731500D01*
X78940052Y-142731500D01*
X79093050Y-142716431D01*
X79289354Y-142656883D01*
X79470270Y-142560181D01*
X79628843Y-142430043D01*
X79661452Y-142390309D01*
X80289895Y-141761866D01*
X80299582Y-141760912D01*
X80419280Y-141724602D01*
X80529594Y-141665637D01*
X80626285Y-141586285D01*
X80705637Y-141489594D01*
X80764602Y-141379280D01*
X80765717Y-141375606D01*
X80910650Y-141361331D01*
X81106954Y-141301783D01*
X81210568Y-141246400D01*
X83376928Y-141246400D01*
X83376928Y-142705000D01*
X83389188Y-142829482D01*
X83425498Y-142949180D01*
X83484463Y-143059494D01*
X83563815Y-143156185D01*
X83660506Y-143235537D01*
X83770820Y-143294502D01*
X83890518Y-143330812D01*
X84015000Y-143343072D01*
X87765000Y-143343072D01*
X87889482Y-143330812D01*
X88009180Y-143294502D01*
X88119494Y-143235537D01*
X88216185Y-143156185D01*
X88265000Y-143096704D01*
X88313815Y-143156185D01*
X88410506Y-143235537D01*
X88520820Y-143294502D01*
X88640518Y-143330812D01*
X88765000Y-143343072D01*
X92515000Y-143343072D01*
X92639482Y-143330812D01*
X92759180Y-143294502D01*
X92869494Y-143235537D01*
X92966185Y-143156185D01*
X93045537Y-143059494D01*
X93104502Y-142949180D01*
X93140812Y-142829482D01*
X93153072Y-142705000D01*
X93153072Y-142507253D01*
X113741200Y-142507253D01*
X113741200Y-143242747D01*
X113884688Y-143964109D01*
X114166150Y-144643617D01*
X114574768Y-145255159D01*
X115094841Y-145775232D01*
X115706383Y-146183850D01*
X116385891Y-146465312D01*
X117107253Y-146608800D01*
X117842747Y-146608800D01*
X118564109Y-146465312D01*
X119243617Y-146183850D01*
X119855159Y-145775232D01*
X120302556Y-145327835D01*
X121670000Y-145327835D01*
X121670000Y-145502165D01*
X121704010Y-145673145D01*
X121770723Y-145834205D01*
X121867576Y-145979155D01*
X121990845Y-146102424D01*
X122135795Y-146199277D01*
X122296855Y-146265990D01*
X122467835Y-146300000D01*
X122642165Y-146300000D01*
X122813145Y-146265990D01*
X122974205Y-146199277D01*
X123119155Y-146102424D01*
X123242424Y-145979155D01*
X123339277Y-145834205D01*
X123405990Y-145673145D01*
X123440000Y-145502165D01*
X123440000Y-145327835D01*
X123405990Y-145156855D01*
X123339277Y-144995795D01*
X123242424Y-144850845D01*
X123119155Y-144727576D01*
X122974205Y-144630723D01*
X122813145Y-144564010D01*
X122642165Y-144530000D01*
X122467835Y-144530000D01*
X122296855Y-144564010D01*
X122135795Y-144630723D01*
X121990845Y-144727576D01*
X121867576Y-144850845D01*
X121770723Y-144995795D01*
X121704010Y-145156855D01*
X121670000Y-145327835D01*
X120302556Y-145327835D01*
X120375232Y-145255159D01*
X120783850Y-144643617D01*
X121065312Y-143964109D01*
X121208800Y-143242747D01*
X121208800Y-142507253D01*
X121065312Y-141785891D01*
X120783850Y-141106383D01*
X120375232Y-140494841D01*
X119855159Y-139974768D01*
X119243617Y-139566150D01*
X118564109Y-139284688D01*
X117842747Y-139141200D01*
X117107253Y-139141200D01*
X116385891Y-139284688D01*
X115706383Y-139566150D01*
X115094841Y-139974768D01*
X114574768Y-140494841D01*
X114166150Y-141106383D01*
X113884688Y-141785891D01*
X113741200Y-142507253D01*
X93153072Y-142507253D01*
X93153072Y-137705000D01*
X93140812Y-137580518D01*
X93104502Y-137460820D01*
X93045537Y-137350506D01*
X92966185Y-137253815D01*
X92869494Y-137174463D01*
X92759180Y-137115498D01*
X92639482Y-137079188D01*
X92515000Y-137066928D01*
X88765000Y-137066928D01*
X88640518Y-137079188D01*
X88520820Y-137115498D01*
X88410506Y-137174463D01*
X88313815Y-137253815D01*
X88265000Y-137313296D01*
X88216185Y-137253815D01*
X88119494Y-137174463D01*
X88009180Y-137115498D01*
X87889482Y-137079188D01*
X87765000Y-137066928D01*
X87469433Y-137066928D01*
X89509962Y-135026400D01*
X115771648Y-135026400D01*
X115822800Y-135031438D01*
X115873951Y-135026400D01*
X116287845Y-135026400D01*
X116441113Y-135152183D01*
X116633471Y-135255000D01*
X116441113Y-135357817D01*
X116228392Y-135532392D01*
X116053817Y-135745113D01*
X115924096Y-135987805D01*
X115844214Y-136251140D01*
X115817241Y-136525000D01*
X115844214Y-136798860D01*
X115924096Y-137062195D01*
X116053817Y-137304887D01*
X116228392Y-137517608D01*
X116441113Y-137692183D01*
X116683805Y-137821904D01*
X116947140Y-137901786D01*
X117152375Y-137922000D01*
X117797625Y-137922000D01*
X118002860Y-137901786D01*
X118266195Y-137821904D01*
X118508887Y-137692183D01*
X118721608Y-137517608D01*
X118896183Y-137304887D01*
X119025904Y-137062195D01*
X119105786Y-136798860D01*
X119132759Y-136525000D01*
X119105786Y-136251140D01*
X119025904Y-135987805D01*
X118896183Y-135745113D01*
X118721608Y-135532392D01*
X118508887Y-135357817D01*
X118316529Y-135255000D01*
X118508887Y-135152183D01*
X118721608Y-134977608D01*
X118896183Y-134764887D01*
X119025904Y-134522195D01*
X119105786Y-134258860D01*
X119132759Y-133985000D01*
X119105786Y-133711140D01*
X119025904Y-133447805D01*
X118896183Y-133205113D01*
X118721608Y-132992392D01*
X118508887Y-132817817D01*
X118316529Y-132715000D01*
X118508887Y-132612183D01*
X118721608Y-132437608D01*
X118896183Y-132224887D01*
X119025904Y-131982195D01*
X119105786Y-131718860D01*
X119132759Y-131445000D01*
X119105786Y-131171140D01*
X119025904Y-130907805D01*
X118896183Y-130665113D01*
X118721608Y-130452392D01*
X118508887Y-130277817D01*
X118316529Y-130175000D01*
X118508887Y-130072183D01*
X118721608Y-129897608D01*
X118896183Y-129684887D01*
X119025904Y-129442195D01*
X119105786Y-129178860D01*
X119132759Y-128905000D01*
X119105786Y-128631140D01*
X119025904Y-128367805D01*
X118896183Y-128125113D01*
X118721608Y-127912392D01*
X118508887Y-127737817D01*
X118316529Y-127635000D01*
X118508887Y-127532183D01*
X118721608Y-127357608D01*
X118896183Y-127144887D01*
X119025904Y-126902195D01*
X119105786Y-126638860D01*
X119132759Y-126365000D01*
X119105786Y-126091140D01*
X119025904Y-125827805D01*
X118896183Y-125585113D01*
X118721608Y-125372392D01*
X118508887Y-125197817D01*
X118316529Y-125095000D01*
X118508887Y-124992183D01*
X118721608Y-124817608D01*
X118896183Y-124604887D01*
X119025904Y-124362195D01*
X119105786Y-124098860D01*
X119132759Y-123825000D01*
X119105786Y-123551140D01*
X119025904Y-123287805D01*
X118896183Y-123045113D01*
X118721608Y-122832392D01*
X118508887Y-122657817D01*
X118316529Y-122555000D01*
X118508887Y-122452183D01*
X118721608Y-122277608D01*
X118896183Y-122064887D01*
X119025904Y-121822195D01*
X119105786Y-121558860D01*
X119132759Y-121285000D01*
X119105786Y-121011140D01*
X119025904Y-120747805D01*
X118896183Y-120505113D01*
X118721608Y-120292392D01*
X118508887Y-120117817D01*
X118316529Y-120015000D01*
X118508887Y-119912183D01*
X118721608Y-119737608D01*
X118896183Y-119524887D01*
X119025904Y-119282195D01*
X119105786Y-119018860D01*
X119132759Y-118745000D01*
X119105786Y-118471140D01*
X119025904Y-118207805D01*
X118896183Y-117965113D01*
X118721608Y-117752392D01*
X118508887Y-117577817D01*
X118316529Y-117475000D01*
X118508887Y-117372183D01*
X118721608Y-117197608D01*
X118896183Y-116984887D01*
X119025904Y-116742195D01*
X119105786Y-116478860D01*
X119132759Y-116205000D01*
X119105786Y-115931140D01*
X119025904Y-115667805D01*
X118896183Y-115425113D01*
X118721608Y-115212392D01*
X118508887Y-115037817D01*
X118316529Y-114935000D01*
X118508887Y-114832183D01*
X118721608Y-114657608D01*
X118896183Y-114444887D01*
X119025904Y-114202195D01*
X119105786Y-113938860D01*
X119132759Y-113665000D01*
X119105786Y-113391140D01*
X119025904Y-113127805D01*
X118896183Y-112885113D01*
X118721608Y-112672392D01*
X118508887Y-112497817D01*
X118316529Y-112395000D01*
X118508887Y-112292183D01*
X118721608Y-112117608D01*
X118896183Y-111904887D01*
X119025904Y-111662195D01*
X119105786Y-111398860D01*
X119132759Y-111125000D01*
X119105786Y-110851140D01*
X119025904Y-110587805D01*
X118896183Y-110345113D01*
X118721608Y-110132392D01*
X118508887Y-109957817D01*
X118316529Y-109855000D01*
X118508887Y-109752183D01*
X118721608Y-109577608D01*
X118896183Y-109364887D01*
X119025904Y-109122195D01*
X119105786Y-108858860D01*
X119132759Y-108585000D01*
X119105786Y-108311140D01*
X119025904Y-108047805D01*
X118896183Y-107805113D01*
X118721608Y-107592392D01*
X118508887Y-107417817D01*
X118316529Y-107315000D01*
X118508887Y-107212183D01*
X118721608Y-107037608D01*
X118896183Y-106824887D01*
X119025904Y-106582195D01*
X119105786Y-106318860D01*
X119132759Y-106045000D01*
X119105786Y-105771140D01*
X119025904Y-105507805D01*
X118896183Y-105265113D01*
X118721608Y-105052392D01*
X118508887Y-104877817D01*
X118316529Y-104775000D01*
X118508887Y-104672183D01*
X118721608Y-104497608D01*
X118896183Y-104284887D01*
X119025904Y-104042195D01*
X119105786Y-103778860D01*
X119132759Y-103505000D01*
X119105786Y-103231140D01*
X119025904Y-102967805D01*
X118896183Y-102725113D01*
X118721608Y-102512392D01*
X118508887Y-102337817D01*
X118316529Y-102235000D01*
X118508887Y-102132183D01*
X118721608Y-101957608D01*
X118896183Y-101744887D01*
X119025904Y-101502195D01*
X119105786Y-101238860D01*
X119132759Y-100965000D01*
X119105786Y-100691140D01*
X119025904Y-100427805D01*
X118896183Y-100185113D01*
X118721608Y-99972392D01*
X118508887Y-99797817D01*
X118316529Y-99695000D01*
X118508887Y-99592183D01*
X118721608Y-99417608D01*
X118896183Y-99204887D01*
X119025904Y-98962195D01*
X119105786Y-98698860D01*
X119132759Y-98425000D01*
X119105786Y-98151140D01*
X119025904Y-97887805D01*
X118896183Y-97645113D01*
X118721608Y-97432392D01*
X118508887Y-97257817D01*
X118266195Y-97128096D01*
X118002860Y-97048214D01*
X117797625Y-97028000D01*
X117152375Y-97028000D01*
X116947140Y-97048214D01*
X116683805Y-97128096D01*
X116441113Y-97257817D01*
X116228392Y-97432392D01*
X116053817Y-97645113D01*
X115924096Y-97887805D01*
X115911637Y-97928876D01*
X114496300Y-96513539D01*
X114496300Y-79097723D01*
X114574768Y-79215159D01*
X115094841Y-79735232D01*
X115706383Y-80143850D01*
X116385891Y-80425312D01*
X117107253Y-80568800D01*
X117842747Y-80568800D01*
X118564109Y-80425312D01*
X119243617Y-80143850D01*
X119855159Y-79735232D01*
X120375232Y-79215159D01*
X120783850Y-78603617D01*
X121065312Y-77924109D01*
X121208800Y-77202747D01*
X121208800Y-76467253D01*
X121065312Y-75745891D01*
X120783850Y-75066383D01*
X120375232Y-74454841D01*
X119855159Y-73934768D01*
X119243617Y-73526150D01*
X118564109Y-73244688D01*
X117842747Y-73101200D01*
X117107253Y-73101200D01*
X116385891Y-73244688D01*
X115706383Y-73526150D01*
X115094841Y-73934768D01*
X114574768Y-74454841D01*
X114496300Y-74572277D01*
X114496300Y-65246044D01*
X114501337Y-65194900D01*
X114496300Y-65143756D01*
X114496300Y-65143748D01*
X114481231Y-64990750D01*
X114421683Y-64794446D01*
X114324981Y-64613530D01*
X114261810Y-64536556D01*
X114227451Y-64494689D01*
X114227447Y-64494685D01*
X114194843Y-64454957D01*
X114155115Y-64422353D01*
X110341411Y-60608650D01*
X110363000Y-60500118D01*
X110363000Y-60149882D01*
X110294672Y-59806377D01*
X110160643Y-59482801D01*
X109966063Y-59191591D01*
X109718409Y-58943937D01*
X109427199Y-58749357D01*
X109103623Y-58615328D01*
X108760118Y-58547000D01*
X108409882Y-58547000D01*
X108066377Y-58615328D01*
X107742801Y-58749357D01*
X107451591Y-58943937D01*
X107203937Y-59191591D01*
X107009357Y-59482801D01*
X106875328Y-59806377D01*
X106807000Y-60149882D01*
X106807000Y-60500118D01*
X106875328Y-60843623D01*
X107009357Y-61167199D01*
X107203937Y-61458409D01*
X107451591Y-61706063D01*
X107742801Y-61900643D01*
X107840869Y-61941264D01*
X108585000Y-62685395D01*
X108599143Y-62671253D01*
X108778748Y-62850858D01*
X108764605Y-62865000D01*
X109822360Y-63922755D01*
X110101384Y-63809736D01*
X110256556Y-63495751D01*
X110262157Y-63474919D01*
X112413501Y-65626263D01*
X112413500Y-96893759D01*
X112408463Y-96944900D01*
X112413500Y-96996041D01*
X112413500Y-96996051D01*
X112428569Y-97149049D01*
X112488117Y-97345353D01*
X112584819Y-97526270D01*
X112714957Y-97684843D01*
X112754691Y-97717452D01*
X115833828Y-100796590D01*
X115817241Y-100965000D01*
X115844214Y-101238860D01*
X115924096Y-101502195D01*
X116053817Y-101744887D01*
X116228392Y-101957608D01*
X116441113Y-102132183D01*
X116633471Y-102235000D01*
X116441113Y-102337817D01*
X116228392Y-102512392D01*
X116053817Y-102725113D01*
X115924096Y-102967805D01*
X115844214Y-103231140D01*
X115817241Y-103505000D01*
X115844214Y-103778860D01*
X115924096Y-104042195D01*
X116053817Y-104284887D01*
X116228392Y-104497608D01*
X116441113Y-104672183D01*
X116633471Y-104775000D01*
X116441113Y-104877817D01*
X116228392Y-105052392D01*
X116053817Y-105265113D01*
X115924096Y-105507805D01*
X115844214Y-105771140D01*
X115817241Y-106045000D01*
X115844214Y-106318860D01*
X115924096Y-106582195D01*
X116053817Y-106824887D01*
X116228392Y-107037608D01*
X116441113Y-107212183D01*
X116633471Y-107315000D01*
X116441113Y-107417817D01*
X116228392Y-107592392D01*
X116053817Y-107805113D01*
X115924096Y-108047805D01*
X115844214Y-108311140D01*
X115817241Y-108585000D01*
X115844214Y-108858860D01*
X115924096Y-109122195D01*
X116053817Y-109364887D01*
X116228392Y-109577608D01*
X116441113Y-109752183D01*
X116633471Y-109855000D01*
X116441113Y-109957817D01*
X116228392Y-110132392D01*
X116053817Y-110345113D01*
X115924096Y-110587805D01*
X115844214Y-110851140D01*
X115817241Y-111125000D01*
X115844214Y-111398860D01*
X115924096Y-111662195D01*
X116053817Y-111904887D01*
X116228392Y-112117608D01*
X116441113Y-112292183D01*
X116633471Y-112395000D01*
X116441113Y-112497817D01*
X116228392Y-112672392D01*
X116053817Y-112885113D01*
X115924096Y-113127805D01*
X115844214Y-113391140D01*
X115817241Y-113665000D01*
X115844214Y-113938860D01*
X115924096Y-114202195D01*
X116053817Y-114444887D01*
X116228392Y-114657608D01*
X116441113Y-114832183D01*
X116633471Y-114935000D01*
X116441113Y-115037817D01*
X116228392Y-115212392D01*
X116053817Y-115425113D01*
X115924096Y-115667805D01*
X115844214Y-115931140D01*
X115817241Y-116205000D01*
X115844214Y-116478860D01*
X115924096Y-116742195D01*
X116053817Y-116984887D01*
X116228392Y-117197608D01*
X116441113Y-117372183D01*
X116633471Y-117475000D01*
X116441113Y-117577817D01*
X116228392Y-117752392D01*
X116053817Y-117965113D01*
X115924096Y-118207805D01*
X115844214Y-118471140D01*
X115817241Y-118745000D01*
X115844214Y-119018860D01*
X115924096Y-119282195D01*
X116053817Y-119524887D01*
X116228392Y-119737608D01*
X116441113Y-119912183D01*
X116633471Y-120015000D01*
X116441113Y-120117817D01*
X116228392Y-120292392D01*
X116053817Y-120505113D01*
X115924096Y-120747805D01*
X115844214Y-121011140D01*
X115817241Y-121285000D01*
X115844214Y-121558860D01*
X115924096Y-121822195D01*
X116053817Y-122064887D01*
X116228392Y-122277608D01*
X116441113Y-122452183D01*
X116633471Y-122555000D01*
X116441113Y-122657817D01*
X116228392Y-122832392D01*
X116053817Y-123045113D01*
X115924096Y-123287805D01*
X115844214Y-123551140D01*
X115817241Y-123825000D01*
X115844214Y-124098860D01*
X115924096Y-124362195D01*
X116053817Y-124604887D01*
X116228392Y-124817608D01*
X116441113Y-124992183D01*
X116633471Y-125095000D01*
X116441113Y-125197817D01*
X116228392Y-125372392D01*
X116053817Y-125585113D01*
X115924096Y-125827805D01*
X115844214Y-126091140D01*
X115817241Y-126365000D01*
X115844214Y-126638860D01*
X115924096Y-126902195D01*
X116053817Y-127144887D01*
X116228392Y-127357608D01*
X116441113Y-127532183D01*
X116633471Y-127635000D01*
X116441113Y-127737817D01*
X116228392Y-127912392D01*
X116053817Y-128125113D01*
X115924096Y-128367805D01*
X115844214Y-128631140D01*
X115817241Y-128905000D01*
X115833828Y-129073410D01*
X115122586Y-129784653D01*
X115082858Y-129817257D01*
X115050254Y-129856985D01*
X115050250Y-129856989D01*
X114952719Y-129975831D01*
X114856018Y-130156745D01*
X114796470Y-130353051D01*
X114776363Y-130557200D01*
X114781401Y-130608351D01*
X114781400Y-132943600D01*
X89129741Y-132943600D01*
X89078599Y-132938563D01*
X89027458Y-132943600D01*
X89027448Y-132943600D01*
X88874450Y-132958669D01*
X88678146Y-133018217D01*
X88678144Y-133018218D01*
X88497229Y-133114919D01*
X88378388Y-133212450D01*
X88378385Y-133212453D01*
X88338657Y-133245057D01*
X88306053Y-133284785D01*
X85189786Y-136401053D01*
X85150058Y-136433657D01*
X85117454Y-136473385D01*
X85117450Y-136473389D01*
X85019919Y-136592231D01*
X84923218Y-136773145D01*
X84863670Y-136969451D01*
X84854069Y-137066928D01*
X84015000Y-137066928D01*
X83890518Y-137079188D01*
X83770820Y-137115498D01*
X83660506Y-137174463D01*
X83563815Y-137253815D01*
X83484463Y-137350506D01*
X83425498Y-137460820D01*
X83389188Y-137580518D01*
X83376928Y-137705000D01*
X83376928Y-139163600D01*
X80887644Y-139163600D01*
X80836500Y-139158563D01*
X80785356Y-139163600D01*
X80785348Y-139163600D01*
X80698837Y-139172121D01*
X80626285Y-139083715D01*
X80529594Y-139004363D01*
X80419280Y-138945398D01*
X80299582Y-138909088D01*
X80175100Y-138896828D01*
X79387700Y-138896828D01*
X79263218Y-138909088D01*
X79143520Y-138945398D01*
X79033206Y-139004363D01*
X78936515Y-139083715D01*
X78857163Y-139180406D01*
X78798198Y-139290720D01*
X78761888Y-139410418D01*
X78749628Y-139534900D01*
X78749628Y-140186093D01*
X78734962Y-140335000D01*
X78738215Y-140368024D01*
X78606394Y-140499844D01*
X78568550Y-140462000D01*
X77825600Y-140462000D01*
X77825600Y-140482000D01*
X77571600Y-140482000D01*
X77571600Y-140462000D01*
X76828650Y-140462000D01*
X76669900Y-140620750D01*
X76669733Y-140648700D01*
X64651462Y-140648700D01*
X63537662Y-139534900D01*
X76666828Y-139534900D01*
X76669900Y-140049250D01*
X76828650Y-140208000D01*
X77571600Y-140208000D01*
X77571600Y-139058650D01*
X77825600Y-139058650D01*
X77825600Y-140208000D01*
X78568550Y-140208000D01*
X78727300Y-140049250D01*
X78730372Y-139534900D01*
X78718112Y-139410418D01*
X78681802Y-139290720D01*
X78622837Y-139180406D01*
X78543485Y-139083715D01*
X78446794Y-139004363D01*
X78336480Y-138945398D01*
X78216782Y-138909088D01*
X78092300Y-138896828D01*
X77984350Y-138899900D01*
X77825600Y-139058650D01*
X77571600Y-139058650D01*
X77412850Y-138899900D01*
X77304900Y-138896828D01*
X77180418Y-138909088D01*
X77060720Y-138945398D01*
X76950406Y-139004363D01*
X76853715Y-139083715D01*
X76774363Y-139180406D01*
X76715398Y-139290720D01*
X76679088Y-139410418D01*
X76666828Y-139534900D01*
X63537662Y-139534900D01*
X61120952Y-137118191D01*
X61088343Y-137078457D01*
X60929770Y-136948319D01*
X60748854Y-136851617D01*
X60676445Y-136829652D01*
X60685786Y-136798860D01*
X60712759Y-136525000D01*
X60685786Y-136251140D01*
X60605904Y-135987805D01*
X60476183Y-135745113D01*
X60301608Y-135532392D01*
X60088887Y-135357817D01*
X59896529Y-135255000D01*
X60088887Y-135152183D01*
X60301608Y-134977608D01*
X60476183Y-134764887D01*
X60605904Y-134522195D01*
X60685786Y-134258860D01*
X60712759Y-133985000D01*
X60685786Y-133711140D01*
X60605904Y-133447805D01*
X60476183Y-133205113D01*
X60301608Y-132992392D01*
X60088887Y-132817817D01*
X59896529Y-132715000D01*
X60088887Y-132612183D01*
X60301608Y-132437608D01*
X60476183Y-132224887D01*
X60605904Y-131982195D01*
X60685786Y-131718860D01*
X60712759Y-131445000D01*
X60685786Y-131171140D01*
X60605904Y-130907805D01*
X60520964Y-130748891D01*
X82580000Y-130748891D01*
X82580000Y-131061109D01*
X82640911Y-131367327D01*
X82760391Y-131655779D01*
X82933850Y-131915379D01*
X83154621Y-132136150D01*
X83414221Y-132309609D01*
X83702673Y-132429089D01*
X84008891Y-132490000D01*
X84321109Y-132490000D01*
X84627327Y-132429089D01*
X84915779Y-132309609D01*
X85175379Y-132136150D01*
X85396150Y-131915379D01*
X85569609Y-131655779D01*
X85689089Y-131367327D01*
X85750000Y-131061109D01*
X85750000Y-130748891D01*
X85689089Y-130442673D01*
X85569609Y-130154221D01*
X85396150Y-129894621D01*
X85175379Y-129673850D01*
X84915779Y-129500391D01*
X84627327Y-129380911D01*
X84321109Y-129320000D01*
X84008891Y-129320000D01*
X83702673Y-129380911D01*
X83414221Y-129500391D01*
X83154621Y-129673850D01*
X82933850Y-129894621D01*
X82760391Y-130154221D01*
X82640911Y-130442673D01*
X82580000Y-130748891D01*
X60520964Y-130748891D01*
X60476183Y-130665113D01*
X60301608Y-130452392D01*
X60088887Y-130277817D01*
X59896529Y-130175000D01*
X60088887Y-130072183D01*
X60301608Y-129897608D01*
X60476183Y-129684887D01*
X60605904Y-129442195D01*
X60685786Y-129178860D01*
X60712759Y-128905000D01*
X60685786Y-128631140D01*
X60682666Y-128620852D01*
X85380000Y-128620852D01*
X85380000Y-129189148D01*
X85490869Y-129746523D01*
X85708346Y-130271560D01*
X86024074Y-130744080D01*
X86425920Y-131145926D01*
X86898440Y-131461654D01*
X87423477Y-131679131D01*
X87980852Y-131790000D01*
X88549148Y-131790000D01*
X89106523Y-131679131D01*
X89631560Y-131461654D01*
X90104080Y-131145926D01*
X90501115Y-130748891D01*
X90780000Y-130748891D01*
X90780000Y-131061109D01*
X90840911Y-131367327D01*
X90960391Y-131655779D01*
X91133850Y-131915379D01*
X91354621Y-132136150D01*
X91614221Y-132309609D01*
X91902673Y-132429089D01*
X92208891Y-132490000D01*
X92521109Y-132490000D01*
X92827327Y-132429089D01*
X93115779Y-132309609D01*
X93375379Y-132136150D01*
X93596150Y-131915379D01*
X93769609Y-131655779D01*
X93889089Y-131367327D01*
X93950000Y-131061109D01*
X93950000Y-130748891D01*
X93889089Y-130442673D01*
X93769609Y-130154221D01*
X93596150Y-129894621D01*
X93375379Y-129673850D01*
X93115779Y-129500391D01*
X92827327Y-129380911D01*
X92521109Y-129320000D01*
X92208891Y-129320000D01*
X91902673Y-129380911D01*
X91614221Y-129500391D01*
X91354621Y-129673850D01*
X91133850Y-129894621D01*
X90960391Y-130154221D01*
X90840911Y-130442673D01*
X90780000Y-130748891D01*
X90501115Y-130748891D01*
X90505926Y-130744080D01*
X90821654Y-130271560D01*
X91039131Y-129746523D01*
X91150000Y-129189148D01*
X91150000Y-128620852D01*
X91039131Y-128063477D01*
X90821654Y-127538440D01*
X90505926Y-127065920D01*
X90104080Y-126664074D01*
X89631560Y-126348346D01*
X89106523Y-126130869D01*
X88549148Y-126020000D01*
X87980852Y-126020000D01*
X87423477Y-126130869D01*
X86898440Y-126348346D01*
X86425920Y-126664074D01*
X86024074Y-127065920D01*
X85708346Y-127538440D01*
X85490869Y-128063477D01*
X85380000Y-128620852D01*
X60682666Y-128620852D01*
X60605904Y-128367805D01*
X60476183Y-128125113D01*
X60301608Y-127912392D01*
X60088887Y-127737817D01*
X59896529Y-127635000D01*
X60088887Y-127532183D01*
X60301608Y-127357608D01*
X60476183Y-127144887D01*
X60605904Y-126902195D01*
X60685786Y-126638860D01*
X60712759Y-126365000D01*
X60685786Y-126091140D01*
X60605904Y-125827805D01*
X60476183Y-125585113D01*
X60301608Y-125372392D01*
X60088887Y-125197817D01*
X59896529Y-125095000D01*
X60088887Y-124992183D01*
X60301608Y-124817608D01*
X60476183Y-124604887D01*
X60605904Y-124362195D01*
X60685786Y-124098860D01*
X60712759Y-123825000D01*
X60696172Y-123656589D01*
X63474715Y-120878047D01*
X63514443Y-120845443D01*
X63630826Y-120703631D01*
X63644581Y-120686871D01*
X63741282Y-120505956D01*
X63742924Y-120500543D01*
X63800831Y-120309650D01*
X63815900Y-120156652D01*
X63815900Y-120156642D01*
X63820937Y-120105501D01*
X63815900Y-120054359D01*
X63815900Y-118705000D01*
X85126928Y-118705000D01*
X85126928Y-123905000D01*
X85139188Y-124029482D01*
X85175498Y-124149180D01*
X85234463Y-124259494D01*
X85313815Y-124356185D01*
X85410506Y-124435537D01*
X85520820Y-124494502D01*
X85640518Y-124530812D01*
X85765000Y-124543072D01*
X90765000Y-124543072D01*
X90889482Y-124530812D01*
X91009180Y-124494502D01*
X91119494Y-124435537D01*
X91216185Y-124356185D01*
X91295537Y-124259494D01*
X91354502Y-124149180D01*
X91390812Y-124029482D01*
X91403072Y-123905000D01*
X91403072Y-118705000D01*
X91390812Y-118580518D01*
X91354502Y-118460820D01*
X91295537Y-118350506D01*
X91216185Y-118253815D01*
X91119494Y-118174463D01*
X91009180Y-118115498D01*
X90889482Y-118079188D01*
X90765000Y-118066928D01*
X89300932Y-118066928D01*
X89291331Y-117969450D01*
X89231783Y-117773146D01*
X89135081Y-117592230D01*
X89004943Y-117433657D01*
X88965209Y-117401048D01*
X88640700Y-117076539D01*
X88640700Y-116918072D01*
X90130000Y-116918072D01*
X90254482Y-116905812D01*
X90374180Y-116869502D01*
X90484494Y-116810537D01*
X90581185Y-116731185D01*
X90660537Y-116634494D01*
X90719502Y-116524180D01*
X90755812Y-116404482D01*
X90768072Y-116280000D01*
X90768072Y-114840000D01*
X90755812Y-114715518D01*
X90719502Y-114595820D01*
X90707165Y-114572740D01*
X90754502Y-114484180D01*
X90790812Y-114364482D01*
X90803072Y-114240000D01*
X90800000Y-112045750D01*
X90641250Y-111887000D01*
X88392000Y-111887000D01*
X88392000Y-111907000D01*
X88138000Y-111907000D01*
X88138000Y-111887000D01*
X85888750Y-111887000D01*
X85730000Y-112045750D01*
X85726928Y-114240000D01*
X85739188Y-114364482D01*
X85775498Y-114484180D01*
X85822835Y-114572740D01*
X85810498Y-114595820D01*
X85774188Y-114715518D01*
X85761928Y-114840000D01*
X85761928Y-116280000D01*
X85774188Y-116404482D01*
X85810498Y-116524180D01*
X85869463Y-116634494D01*
X85948815Y-116731185D01*
X86045506Y-116810537D01*
X86155820Y-116869502D01*
X86275518Y-116905812D01*
X86400000Y-116918072D01*
X86557900Y-116918072D01*
X86557900Y-117456758D01*
X86552863Y-117507900D01*
X86557900Y-117559041D01*
X86557900Y-117559051D01*
X86572969Y-117712049D01*
X86632517Y-117908353D01*
X86717277Y-118066928D01*
X85765000Y-118066928D01*
X85640518Y-118079188D01*
X85520820Y-118115498D01*
X85410506Y-118174463D01*
X85313815Y-118253815D01*
X85234463Y-118350506D01*
X85175498Y-118460820D01*
X85139188Y-118580518D01*
X85126928Y-118705000D01*
X63815900Y-118705000D01*
X63815900Y-108613700D01*
X63885100Y-108613700D01*
X63885100Y-111233439D01*
X63847000Y-111424979D01*
X63847000Y-111637621D01*
X63888485Y-111846178D01*
X63969860Y-112042635D01*
X64087998Y-112219441D01*
X64238359Y-112369802D01*
X64415165Y-112487940D01*
X64611622Y-112569315D01*
X64820179Y-112610800D01*
X65032821Y-112610800D01*
X65241378Y-112569315D01*
X65437835Y-112487940D01*
X65614641Y-112369802D01*
X65765002Y-112219441D01*
X65883140Y-112042635D01*
X65964515Y-111846178D01*
X66006000Y-111637621D01*
X66006000Y-111424979D01*
X65967900Y-111233439D01*
X65967900Y-109280000D01*
X85726928Y-109280000D01*
X85730000Y-111474250D01*
X85888750Y-111633000D01*
X88138000Y-111633000D01*
X88138000Y-108803750D01*
X88392000Y-108803750D01*
X88392000Y-111633000D01*
X90641250Y-111633000D01*
X90800000Y-111474250D01*
X90803072Y-109280000D01*
X90790812Y-109155518D01*
X90754502Y-109035820D01*
X90695537Y-108925506D01*
X90616185Y-108828815D01*
X90519494Y-108749463D01*
X90409180Y-108690498D01*
X90289482Y-108654188D01*
X90165000Y-108641928D01*
X88550750Y-108645000D01*
X88392000Y-108803750D01*
X88138000Y-108803750D01*
X87979250Y-108645000D01*
X86365000Y-108641928D01*
X86240518Y-108654188D01*
X86120820Y-108690498D01*
X86010506Y-108749463D01*
X85913815Y-108828815D01*
X85834463Y-108925506D01*
X85775498Y-109035820D01*
X85739188Y-109155518D01*
X85726928Y-109280000D01*
X65967900Y-109280000D01*
X65967900Y-91714861D01*
X72830421Y-84852340D01*
X90297000Y-84852340D01*
X90297000Y-85327660D01*
X90389731Y-85793846D01*
X90571628Y-86232984D01*
X90835701Y-86628198D01*
X91171802Y-86964299D01*
X91567016Y-87228372D01*
X92006154Y-87410269D01*
X92472340Y-87503000D01*
X92947660Y-87503000D01*
X93413846Y-87410269D01*
X93852984Y-87228372D01*
X94248198Y-86964299D01*
X94584299Y-86628198D01*
X94848372Y-86232984D01*
X95030269Y-85793846D01*
X95123000Y-85327660D01*
X95123000Y-84852340D01*
X95030269Y-84386154D01*
X94848372Y-83947016D01*
X94584299Y-83551802D01*
X94248198Y-83215701D01*
X93852984Y-82951628D01*
X93413846Y-82769731D01*
X92947660Y-82677000D01*
X92472340Y-82677000D01*
X92006154Y-82769731D01*
X91567016Y-82951628D01*
X91171802Y-83215701D01*
X90835701Y-83551802D01*
X90571628Y-83947016D01*
X90389731Y-84386154D01*
X90297000Y-84852340D01*
X72830421Y-84852340D01*
X78340401Y-79342360D01*
X79587245Y-79342360D01*
X79700264Y-79621384D01*
X80014249Y-79776556D01*
X80352473Y-79867491D01*
X80701938Y-79890694D01*
X81049216Y-79845275D01*
X81380960Y-79732977D01*
X81589736Y-79621384D01*
X81702755Y-79342360D01*
X107527245Y-79342360D01*
X107640264Y-79621384D01*
X107954249Y-79776556D01*
X108292473Y-79867491D01*
X108641938Y-79890694D01*
X108989216Y-79845275D01*
X109320960Y-79732977D01*
X109529736Y-79621384D01*
X109642755Y-79342360D01*
X108585000Y-78284605D01*
X107527245Y-79342360D01*
X81702755Y-79342360D01*
X80645000Y-78284605D01*
X79587245Y-79342360D01*
X78340401Y-79342360D01*
X78972710Y-78710052D01*
X79017023Y-78840960D01*
X79128616Y-79049736D01*
X79407640Y-79162755D01*
X80465395Y-78105000D01*
X80824605Y-78105000D01*
X81882360Y-79162755D01*
X82161384Y-79049736D01*
X82316556Y-78735751D01*
X82407491Y-78397527D01*
X82423133Y-78161938D01*
X106799306Y-78161938D01*
X106844725Y-78509216D01*
X106957023Y-78840960D01*
X107068616Y-79049736D01*
X107347640Y-79162755D01*
X108405395Y-78105000D01*
X108764605Y-78105000D01*
X109822360Y-79162755D01*
X110101384Y-79049736D01*
X110256556Y-78735751D01*
X110347491Y-78397527D01*
X110370694Y-78048062D01*
X110325275Y-77700784D01*
X110212977Y-77369040D01*
X110101384Y-77160264D01*
X109822360Y-77047245D01*
X108764605Y-78105000D01*
X108405395Y-78105000D01*
X107347640Y-77047245D01*
X107068616Y-77160264D01*
X106913444Y-77474249D01*
X106822509Y-77812473D01*
X106799306Y-78161938D01*
X82423133Y-78161938D01*
X82430694Y-78048062D01*
X82385275Y-77700784D01*
X82272977Y-77369040D01*
X82161384Y-77160264D01*
X81882360Y-77047245D01*
X80824605Y-78105000D01*
X80465395Y-78105000D01*
X80451253Y-78090858D01*
X80630858Y-77911253D01*
X80645000Y-77925395D01*
X81389131Y-77181264D01*
X81487199Y-77140643D01*
X81778409Y-76946063D01*
X82026063Y-76698409D01*
X82220643Y-76407199D01*
X82354672Y-76083623D01*
X82423000Y-75740118D01*
X82423000Y-75389882D01*
X106807000Y-75389882D01*
X106807000Y-75740118D01*
X106875328Y-76083623D01*
X107009357Y-76407199D01*
X107203937Y-76698409D01*
X107451591Y-76946063D01*
X107742801Y-77140643D01*
X107840869Y-77181264D01*
X108585000Y-77925395D01*
X109329131Y-77181264D01*
X109427199Y-77140643D01*
X109718409Y-76946063D01*
X109966063Y-76698409D01*
X110160643Y-76407199D01*
X110294672Y-76083623D01*
X110363000Y-75740118D01*
X110363000Y-75389882D01*
X110294672Y-75046377D01*
X110160643Y-74722801D01*
X109966063Y-74431591D01*
X109718409Y-74183937D01*
X109427199Y-73989357D01*
X109103623Y-73855328D01*
X108760118Y-73787000D01*
X108409882Y-73787000D01*
X108066377Y-73855328D01*
X107742801Y-73989357D01*
X107451591Y-74183937D01*
X107203937Y-74431591D01*
X107009357Y-74722801D01*
X106875328Y-75046377D01*
X106807000Y-75389882D01*
X82423000Y-75389882D01*
X82354672Y-75046377D01*
X82220643Y-74722801D01*
X82026063Y-74431591D01*
X81778409Y-74183937D01*
X81487199Y-73989357D01*
X81163623Y-73855328D01*
X80820118Y-73787000D01*
X80469882Y-73787000D01*
X80126377Y-73855328D01*
X79802801Y-73989357D01*
X79511591Y-74183937D01*
X79263937Y-74431591D01*
X79069357Y-74722801D01*
X78935328Y-75046377D01*
X78867000Y-75389882D01*
X78867000Y-75740118D01*
X78888588Y-75848650D01*
X64853200Y-89884039D01*
X64853200Y-85209561D01*
X78340401Y-71722360D01*
X79587245Y-71722360D01*
X79700264Y-72001384D01*
X80014249Y-72156556D01*
X80352473Y-72247491D01*
X80701938Y-72270694D01*
X81049216Y-72225275D01*
X81380960Y-72112977D01*
X81589736Y-72001384D01*
X81702755Y-71722360D01*
X107527245Y-71722360D01*
X107640264Y-72001384D01*
X107954249Y-72156556D01*
X108292473Y-72247491D01*
X108641938Y-72270694D01*
X108989216Y-72225275D01*
X109320960Y-72112977D01*
X109529736Y-72001384D01*
X109642755Y-71722360D01*
X108585000Y-70664605D01*
X107527245Y-71722360D01*
X81702755Y-71722360D01*
X80645000Y-70664605D01*
X79587245Y-71722360D01*
X78340401Y-71722360D01*
X78972710Y-71090052D01*
X79017023Y-71220960D01*
X79128616Y-71429736D01*
X79407640Y-71542755D01*
X80465395Y-70485000D01*
X80824605Y-70485000D01*
X81882360Y-71542755D01*
X82161384Y-71429736D01*
X82316556Y-71115751D01*
X82407491Y-70777527D01*
X82423133Y-70541938D01*
X106799306Y-70541938D01*
X106844725Y-70889216D01*
X106957023Y-71220960D01*
X107068616Y-71429736D01*
X107347640Y-71542755D01*
X108405395Y-70485000D01*
X108764605Y-70485000D01*
X109822360Y-71542755D01*
X110101384Y-71429736D01*
X110256556Y-71115751D01*
X110347491Y-70777527D01*
X110370694Y-70428062D01*
X110325275Y-70080784D01*
X110212977Y-69749040D01*
X110101384Y-69540264D01*
X109822360Y-69427245D01*
X108764605Y-70485000D01*
X108405395Y-70485000D01*
X107347640Y-69427245D01*
X107068616Y-69540264D01*
X106913444Y-69854249D01*
X106822509Y-70192473D01*
X106799306Y-70541938D01*
X82423133Y-70541938D01*
X82430694Y-70428062D01*
X82385275Y-70080784D01*
X82272977Y-69749040D01*
X82161384Y-69540264D01*
X81882360Y-69427245D01*
X80824605Y-70485000D01*
X80465395Y-70485000D01*
X80451253Y-70470858D01*
X80630858Y-70291253D01*
X80645000Y-70305395D01*
X81389131Y-69561264D01*
X81487199Y-69520643D01*
X81778409Y-69326063D01*
X82026063Y-69078409D01*
X82220643Y-68787199D01*
X82354672Y-68463623D01*
X82423000Y-68120118D01*
X82423000Y-67769882D01*
X106807000Y-67769882D01*
X106807000Y-68120118D01*
X106875328Y-68463623D01*
X107009357Y-68787199D01*
X107203937Y-69078409D01*
X107451591Y-69326063D01*
X107742801Y-69520643D01*
X107840869Y-69561264D01*
X108585000Y-70305395D01*
X109329131Y-69561264D01*
X109427199Y-69520643D01*
X109718409Y-69326063D01*
X109966063Y-69078409D01*
X110160643Y-68787199D01*
X110294672Y-68463623D01*
X110363000Y-68120118D01*
X110363000Y-67769882D01*
X110294672Y-67426377D01*
X110160643Y-67102801D01*
X109966063Y-66811591D01*
X109718409Y-66563937D01*
X109427199Y-66369357D01*
X109103623Y-66235328D01*
X108760118Y-66167000D01*
X108409882Y-66167000D01*
X108066377Y-66235328D01*
X107742801Y-66369357D01*
X107451591Y-66563937D01*
X107203937Y-66811591D01*
X107009357Y-67102801D01*
X106875328Y-67426377D01*
X106807000Y-67769882D01*
X82423000Y-67769882D01*
X82354672Y-67426377D01*
X82220643Y-67102801D01*
X82026063Y-66811591D01*
X81778409Y-66563937D01*
X81487199Y-66369357D01*
X81163623Y-66235328D01*
X80820118Y-66167000D01*
X80469882Y-66167000D01*
X80126377Y-66235328D01*
X79802801Y-66369357D01*
X79511591Y-66563937D01*
X79263937Y-66811591D01*
X79069357Y-67102801D01*
X78935328Y-67426377D01*
X78867000Y-67769882D01*
X78867000Y-68120118D01*
X78888588Y-68228650D01*
X63815900Y-83301339D01*
X63815900Y-81908761D01*
X64389414Y-81335248D01*
X64429143Y-81302643D01*
X64559281Y-81144070D01*
X64655983Y-80963154D01*
X64715531Y-80766850D01*
X64730600Y-80613852D01*
X64730600Y-80613842D01*
X64735637Y-80562701D01*
X64730600Y-80511559D01*
X64730600Y-71360344D01*
X64735637Y-71309200D01*
X64730600Y-71258056D01*
X64730600Y-71258048D01*
X64715531Y-71105050D01*
X64655983Y-70908746D01*
X64559281Y-70727830D01*
X64461751Y-70608989D01*
X64461747Y-70608985D01*
X64429143Y-70569257D01*
X64389415Y-70536653D01*
X57955122Y-64102360D01*
X79587245Y-64102360D01*
X79700264Y-64381384D01*
X80014249Y-64536556D01*
X80352473Y-64627491D01*
X80701938Y-64650694D01*
X81049216Y-64605275D01*
X81380960Y-64492977D01*
X81589736Y-64381384D01*
X81702755Y-64102360D01*
X107527245Y-64102360D01*
X107640264Y-64381384D01*
X107954249Y-64536556D01*
X108292473Y-64627491D01*
X108641938Y-64650694D01*
X108989216Y-64605275D01*
X109320960Y-64492977D01*
X109529736Y-64381384D01*
X109642755Y-64102360D01*
X108585000Y-63044605D01*
X107527245Y-64102360D01*
X81702755Y-64102360D01*
X80645000Y-63044605D01*
X79587245Y-64102360D01*
X57955122Y-64102360D01*
X56774700Y-62921938D01*
X78859306Y-62921938D01*
X78904725Y-63269216D01*
X79017023Y-63600960D01*
X79128616Y-63809736D01*
X79407640Y-63922755D01*
X80465395Y-62865000D01*
X80824605Y-62865000D01*
X81882360Y-63922755D01*
X82161384Y-63809736D01*
X82316556Y-63495751D01*
X82407491Y-63157527D01*
X82423133Y-62921938D01*
X106799306Y-62921938D01*
X106844725Y-63269216D01*
X106957023Y-63600960D01*
X107068616Y-63809736D01*
X107347640Y-63922755D01*
X108405395Y-62865000D01*
X107347640Y-61807245D01*
X107068616Y-61920264D01*
X106913444Y-62234249D01*
X106822509Y-62572473D01*
X106799306Y-62921938D01*
X82423133Y-62921938D01*
X82430694Y-62808062D01*
X82385275Y-62460784D01*
X82272977Y-62129040D01*
X82161384Y-61920264D01*
X81882360Y-61807245D01*
X80824605Y-62865000D01*
X80465395Y-62865000D01*
X79407640Y-61807245D01*
X79128616Y-61920264D01*
X78973444Y-62234249D01*
X78882509Y-62572473D01*
X78859306Y-62921938D01*
X56774700Y-62921938D01*
X54461411Y-60608650D01*
X54483000Y-60500118D01*
X54483000Y-60149882D01*
X78867000Y-60149882D01*
X78867000Y-60500118D01*
X78935328Y-60843623D01*
X79069357Y-61167199D01*
X79263937Y-61458409D01*
X79511591Y-61706063D01*
X79802801Y-61900643D01*
X79900869Y-61941264D01*
X80645000Y-62685395D01*
X81389131Y-61941264D01*
X81487199Y-61900643D01*
X81778409Y-61706063D01*
X82026063Y-61458409D01*
X82220643Y-61167199D01*
X82354672Y-60843623D01*
X82423000Y-60500118D01*
X82423000Y-60149882D01*
X82354672Y-59806377D01*
X82220643Y-59482801D01*
X82026063Y-59191591D01*
X81778409Y-58943937D01*
X81487199Y-58749357D01*
X81163623Y-58615328D01*
X80820118Y-58547000D01*
X80469882Y-58547000D01*
X80126377Y-58615328D01*
X79802801Y-58749357D01*
X79511591Y-58943937D01*
X79263937Y-59191591D01*
X79069357Y-59482801D01*
X78935328Y-59806377D01*
X78867000Y-60149882D01*
X54483000Y-60149882D01*
X54414672Y-59806377D01*
X54280643Y-59482801D01*
X54086063Y-59191591D01*
X53838409Y-58943937D01*
X53547199Y-58749357D01*
X53223623Y-58615328D01*
X52880118Y-58547000D01*
X52529882Y-58547000D01*
X52186377Y-58615328D01*
X51862801Y-58749357D01*
X51574700Y-58941860D01*
X51574700Y-57180440D01*
X51645707Y-56278205D01*
X51645914Y-56277340D01*
X62357000Y-56277340D01*
X62357000Y-56752660D01*
X62449731Y-57218846D01*
X62631628Y-57657984D01*
X62895701Y-58053198D01*
X63231802Y-58389299D01*
X63627016Y-58653372D01*
X64066154Y-58835269D01*
X64532340Y-58928000D01*
X65007660Y-58928000D01*
X65473846Y-58835269D01*
X65912984Y-58653372D01*
X66308198Y-58389299D01*
X66644299Y-58053198D01*
X66908372Y-57657984D01*
X67090269Y-57218846D01*
X67183000Y-56752660D01*
X67183000Y-56277340D01*
X118237000Y-56277340D01*
X118237000Y-56752660D01*
X118329731Y-57218846D01*
X118511628Y-57657984D01*
X118775701Y-58053198D01*
X119111802Y-58389299D01*
X119507016Y-58653372D01*
X119946154Y-58835269D01*
X120412340Y-58928000D01*
X120887660Y-58928000D01*
X121353846Y-58835269D01*
X121792984Y-58653372D01*
X122188198Y-58389299D01*
X122524299Y-58053198D01*
X122788372Y-57657984D01*
X122970269Y-57218846D01*
X123063000Y-56752660D01*
X123063000Y-56277340D01*
X122970269Y-55811154D01*
X122788372Y-55372016D01*
X122524299Y-54976802D01*
X122392515Y-54845018D01*
X122467835Y-54860000D01*
X122642165Y-54860000D01*
X122813145Y-54825990D01*
X122974205Y-54759277D01*
X123119155Y-54662424D01*
X123242424Y-54539155D01*
X123339277Y-54394205D01*
X123405990Y-54233145D01*
X123440000Y-54062165D01*
X123440000Y-53887835D01*
X123405990Y-53716855D01*
X123339277Y-53555795D01*
X123242424Y-53410845D01*
X123119155Y-53287576D01*
X122974205Y-53190723D01*
X122813145Y-53124010D01*
X122642165Y-53090000D01*
X122467835Y-53090000D01*
X122296855Y-53124010D01*
X122135795Y-53190723D01*
X121990845Y-53287576D01*
X121867576Y-53410845D01*
X121770723Y-53555795D01*
X121704010Y-53716855D01*
X121670000Y-53887835D01*
X121670000Y-54062165D01*
X121704010Y-54233145D01*
X121757324Y-54361857D01*
X121353846Y-54194731D01*
X120887660Y-54102000D01*
X120412340Y-54102000D01*
X119946154Y-54194731D01*
X119507016Y-54376628D01*
X119111802Y-54640701D01*
X118775701Y-54976802D01*
X118511628Y-55372016D01*
X118329731Y-55811154D01*
X118237000Y-56277340D01*
X67183000Y-56277340D01*
X67090269Y-55811154D01*
X66908372Y-55372016D01*
X66644299Y-54976802D01*
X66308198Y-54640701D01*
X65912984Y-54376628D01*
X65473846Y-54194731D01*
X65007660Y-54102000D01*
X64532340Y-54102000D01*
X64066154Y-54194731D01*
X63627016Y-54376628D01*
X63231802Y-54640701D01*
X62895701Y-54976802D01*
X62631628Y-55372016D01*
X62449731Y-55811154D01*
X62357000Y-56277340D01*
X51645914Y-56277340D01*
X51849853Y-55427876D01*
X52184505Y-54619956D01*
X52633149Y-53887835D01*
X53090000Y-53887835D01*
X53090000Y-54062165D01*
X53124010Y-54233145D01*
X53190723Y-54394205D01*
X53287576Y-54539155D01*
X53410845Y-54662424D01*
X53555795Y-54759277D01*
X53716855Y-54825990D01*
X53887835Y-54860000D01*
X54062165Y-54860000D01*
X54233145Y-54825990D01*
X54394205Y-54759277D01*
X54539155Y-54662424D01*
X54662424Y-54539155D01*
X54759277Y-54394205D01*
X54825990Y-54233145D01*
X54860000Y-54062165D01*
X54860000Y-53887835D01*
X54825990Y-53716855D01*
X54759277Y-53555795D01*
X54662424Y-53410845D01*
X54539155Y-53287576D01*
X54394205Y-53190723D01*
X54233145Y-53124010D01*
X54062165Y-53090000D01*
X53887835Y-53090000D01*
X53716855Y-53124010D01*
X53555795Y-53190723D01*
X53410845Y-53287576D01*
X53287576Y-53410845D01*
X53190723Y-53555795D01*
X53124010Y-53716855D01*
X53090000Y-53887835D01*
X52633149Y-53887835D01*
X52641426Y-53874329D01*
X53209362Y-53209361D01*
X53874326Y-52641427D01*
X54619956Y-52184505D01*
X55427876Y-51849853D01*
X56278205Y-51645707D01*
X57180441Y-51574700D01*
X119349560Y-51574700D01*
X120251795Y-51645707D01*
G36*
X59137138Y-73101200D02*
G01*
X58687253Y-73101200D01*
X57965891Y-73244688D01*
X57286383Y-73526150D01*
X56674841Y-73934768D01*
X56154768Y-74454841D01*
X55746150Y-75066383D01*
X55464688Y-75745891D01*
X55321200Y-76467253D01*
X55321200Y-76708438D01*
X54461411Y-75848650D01*
X54483000Y-75740118D01*
X54483000Y-75389882D01*
X54414672Y-75046377D01*
X54280643Y-74722801D01*
X54086063Y-74431591D01*
X53838409Y-74183937D01*
X53547199Y-73989357D01*
X53223623Y-73855328D01*
X52880118Y-73787000D01*
X52529882Y-73787000D01*
X52186377Y-73855328D01*
X51862801Y-73989357D01*
X51574700Y-74181860D01*
X51574700Y-71794908D01*
X51647246Y-71722362D01*
X51760264Y-72001384D01*
X52074249Y-72156556D01*
X52412473Y-72247491D01*
X52761938Y-72270694D01*
X53109216Y-72225275D01*
X53440960Y-72112977D01*
X53649736Y-72001384D01*
X53762755Y-71722360D01*
X52705000Y-70664605D01*
X52690858Y-70678748D01*
X52511253Y-70499143D01*
X52525395Y-70485000D01*
X52884605Y-70485000D01*
X53942360Y-71542755D01*
X54221384Y-71429736D01*
X54376556Y-71115751D01*
X54467491Y-70777527D01*
X54490694Y-70428062D01*
X54445275Y-70080784D01*
X54332977Y-69749040D01*
X54221384Y-69540264D01*
X53942360Y-69427245D01*
X52884605Y-70485000D01*
X52525395Y-70485000D01*
X52511253Y-70470858D01*
X52690858Y-70291253D01*
X52705000Y-70305395D01*
X53449131Y-69561264D01*
X53547199Y-69520643D01*
X53838409Y-69326063D01*
X54086063Y-69078409D01*
X54147541Y-68986400D01*
X55022339Y-68986400D01*
X59137138Y-73101200D01*
G37*
X59137138Y-73101200D02*
X58687253Y-73101200D01*
X57965891Y-73244688D01*
X57286383Y-73526150D01*
X56674841Y-73934768D01*
X56154768Y-74454841D01*
X55746150Y-75066383D01*
X55464688Y-75745891D01*
X55321200Y-76467253D01*
X55321200Y-76708438D01*
X54461411Y-75848650D01*
X54483000Y-75740118D01*
X54483000Y-75389882D01*
X54414672Y-75046377D01*
X54280643Y-74722801D01*
X54086063Y-74431591D01*
X53838409Y-74183937D01*
X53547199Y-73989357D01*
X53223623Y-73855328D01*
X52880118Y-73787000D01*
X52529882Y-73787000D01*
X52186377Y-73855328D01*
X51862801Y-73989357D01*
X51574700Y-74181860D01*
X51574700Y-71794908D01*
X51647246Y-71722362D01*
X51760264Y-72001384D01*
X52074249Y-72156556D01*
X52412473Y-72247491D01*
X52761938Y-72270694D01*
X53109216Y-72225275D01*
X53440960Y-72112977D01*
X53649736Y-72001384D01*
X53762755Y-71722360D01*
X52705000Y-70664605D01*
X52690858Y-70678748D01*
X52511253Y-70499143D01*
X52525395Y-70485000D01*
X52884605Y-70485000D01*
X53942360Y-71542755D01*
X54221384Y-71429736D01*
X54376556Y-71115751D01*
X54467491Y-70777527D01*
X54490694Y-70428062D01*
X54445275Y-70080784D01*
X54332977Y-69749040D01*
X54221384Y-69540264D01*
X53942360Y-69427245D01*
X52884605Y-70485000D01*
X52525395Y-70485000D01*
X52511253Y-70470858D01*
X52690858Y-70291253D01*
X52705000Y-70305395D01*
X53449131Y-69561264D01*
X53547199Y-69520643D01*
X53838409Y-69326063D01*
X54086063Y-69078409D01*
X54147541Y-68986400D01*
X55022339Y-68986400D01*
X59137138Y-73101200D01*
G36*
X52898748Y-62850858D02*
G01*
X52884605Y-62865000D01*
X53942360Y-63922755D01*
X54221384Y-63809736D01*
X54376556Y-63495751D01*
X54382157Y-63474918D01*
X62647801Y-71740563D01*
X62647801Y-73666339D01*
X56226252Y-67244791D01*
X56193643Y-67205057D01*
X56035070Y-67074919D01*
X55854154Y-66978217D01*
X55657850Y-66918669D01*
X55504852Y-66903600D01*
X55504841Y-66903600D01*
X55453700Y-66898563D01*
X55402559Y-66903600D01*
X54147541Y-66903600D01*
X54086063Y-66811591D01*
X53838409Y-66563937D01*
X53547199Y-66369357D01*
X53223623Y-66235328D01*
X52880118Y-66167000D01*
X52529882Y-66167000D01*
X52186377Y-66235328D01*
X51862801Y-66369357D01*
X51574700Y-66561860D01*
X51574700Y-64174908D01*
X51647246Y-64102362D01*
X51760264Y-64381384D01*
X52074249Y-64536556D01*
X52412473Y-64627491D01*
X52761938Y-64650694D01*
X53109216Y-64605275D01*
X53440960Y-64492977D01*
X53649736Y-64381384D01*
X53762755Y-64102360D01*
X52705000Y-63044605D01*
X52690858Y-63058748D01*
X52511253Y-62879143D01*
X52525395Y-62865000D01*
X52511253Y-62850858D01*
X52690858Y-62671253D01*
X52705000Y-62685395D01*
X52719143Y-62671253D01*
X52898748Y-62850858D01*
G37*
X52898748Y-62850858D02*
X52884605Y-62865000D01*
X53942360Y-63922755D01*
X54221384Y-63809736D01*
X54376556Y-63495751D01*
X54382157Y-63474918D01*
X62647801Y-71740563D01*
X62647801Y-73666339D01*
X56226252Y-67244791D01*
X56193643Y-67205057D01*
X56035070Y-67074919D01*
X55854154Y-66978217D01*
X55657850Y-66918669D01*
X55504852Y-66903600D01*
X55504841Y-66903600D01*
X55453700Y-66898563D01*
X55402559Y-66903600D01*
X54147541Y-66903600D01*
X54086063Y-66811591D01*
X53838409Y-66563937D01*
X53547199Y-66369357D01*
X53223623Y-66235328D01*
X52880118Y-66167000D01*
X52529882Y-66167000D01*
X52186377Y-66235328D01*
X51862801Y-66369357D01*
X51574700Y-66561860D01*
X51574700Y-64174908D01*
X51647246Y-64102362D01*
X51760264Y-64381384D01*
X52074249Y-64536556D01*
X52412473Y-64627491D01*
X52761938Y-64650694D01*
X53109216Y-64605275D01*
X53440960Y-64492977D01*
X53649736Y-64381384D01*
X53762755Y-64102360D01*
X52705000Y-63044605D01*
X52690858Y-63058748D01*
X52511253Y-62879143D01*
X52525395Y-62865000D01*
X52511253Y-62850858D01*
X52690858Y-62671253D01*
X52705000Y-62685395D01*
X52719143Y-62671253D01*
X52898748Y-62850858D01*
%TD*%
M02*
