<?xml version="1.0" standalone="no"?>
 <!DOCTYPE svg PUBLIC "-//W3C//DTD SVG 1.1//EN" 
 "http://www.w3.org/Graphics/SVG/1.1/DTD/svg11.dtd"> 
<svg
  xmlns:svg="http://www.w3.org/2000/svg"
  xmlns="http://www.w3.org/2000/svg"
  xmlns:xlink="http://www.w3.org/1999/xlink"
  version="1.1"
  width="9.009380cm" height="10.287000cm" viewBox="0 0 35470 40500">
<title>SVG Picture created as y_arena_valve_controller-F_SilkS.svg date 2020/07/21 10:49:24 </title>
  <desc>Picture generated by PCBNEW </desc>
<g style="fill:#000000; fill-opacity:1;stroke:#000000; stroke-opacity:1;
stroke-linecap:round; stroke-linejoin:round;"
 transform="translate(0 0) scale(1 1)">
</g>
<g style="fill:#000000; fill-opacity:0.0; 
stroke:#000000; stroke-width:-0.000393701; stroke-opacity:1; 
stroke-linecap:round; stroke-linejoin:round;">
</g>
<g style="fill:#008484; fill-opacity:0.0; 
stroke:#008484; stroke-width:-0.000393701; stroke-opacity:1; 
stroke-linecap:round; stroke-linejoin:round;">
</g>
<g style="fill:#008484; fill-opacity:0.0; 
stroke:#008484; stroke-width:150; stroke-opacity:1; 
stroke-linecap:round; stroke-linejoin:round;">
<text x="17560.7" y="20250"
textLength="11130" font-size="800" lengthAdjust="spacingAndGlyphs"
text-anchor="middle" opacity="0">y_arena_valve_controller</text>
<path d="M12146 19821
L12289 20221
" />
<path d="M12432 19821
L12289 20221
L12232 20364
L12203 20392
L12146 20421
" />
<path d="M12517 20278
L12974 20278
" />
<path d="M13374 20221
L13374 19907
L13346 19850
L13289 19821
L13174 19821
L13117 19850
" />
<path d="M13374 20192
L13317 20221
L13174 20221
L13117 20192
L13089 20135
L13089 20078
L13117 20021
L13174 19992
L13317 19992
L13374 19964
" />
<path d="M13660 20221
L13660 19821
" />
<path d="M13660 19935
L13689 19878
L13717 19850
L13774 19821
L13832 19821
" />
<path d="M14260 20192
L14203 20221
L14089 20221
L14032 20192
L14003 20135
L14003 19907
L14032 19850
L14089 19821
L14203 19821
L14260 19850
L14289 19907
L14289 19964
L14003 20021
" />
<path d="M14546 19821
L14546 20221
" />
<path d="M14546 19878
L14574 19850
L14632 19821
L14717 19821
L14774 19850
L14803 19907
L14803 20221
" />
<path d="M15346 20221
L15346 19907
L15317 19850
L15260 19821
L15146 19821
L15089 19850
" />
<path d="M15346 20192
L15289 20221
L15146 20221
L15089 20192
L15060 20135
L15060 20078
L15089 20021
L15146 19992
L15289 19992
L15346 19964
" />
<path d="M15489 20278
L15946 20278
" />
<path d="M16032 19821
L16174 20221
L16317 19821
" />
<path d="M16803 20221
L16803 19907
L16774 19850
L16717 19821
L16603 19821
L16546 19850
" />
<path d="M16803 20192
L16746 20221
L16603 20221
L16546 20192
L16517 20135
L16517 20078
L16546 20021
L16603 19992
L16746 19992
L16803 19964
" />
<path d="M17174 20221
L17117 20192
L17089 20135
L17089 19621
" />
<path d="M17346 19821
L17489 20221
L17632 19821
" />
<path d="M18089 20192
L18032 20221
L17917 20221
L17860 20192
L17832 20135
L17832 19907
L17860 19850
L17917 19821
L18032 19821
L18089 19850
L18117 19907
L18117 19964
L17832 20021
" />
<path d="M18232 20278
L18689 20278
" />
<path d="M19089 20192
L19032 20221
L18917 20221
L18860 20192
L18832 20164
L18803 20107
L18803 19935
L18832 19878
L18860 19850
L18917 19821
L19032 19821
L19089 19850
" />
<path d="M19432 20221
L19374 20192
L19346 20164
L19317 20107
L19317 19935
L19346 19878
L19374 19850
L19432 19821
L19517 19821
L19574 19850
L19603 19878
L19632 19935
L19632 20107
L19603 20164
L19574 20192
L19517 20221
L19432 20221
" />
<path d="M19889 19821
L19889 20221
" />
<path d="M19889 19878
L19917 19850
L19974 19821
L20060 19821
L20117 19850
L20146 19907
L20146 20221
" />
<path d="M20346 19821
L20574 19821
" />
<path d="M20432 19621
L20432 20135
L20460 20192
L20517 20221
L20574 20221
" />
<path d="M20774 20221
L20774 19821
" />
<path d="M20774 19935
L20803 19878
L20832 19850
L20889 19821
L20946 19821
" />
<path d="M21232 20221
L21174 20192
L21146 20164
L21117 20107
L21117 19935
L21146 19878
L21174 19850
L21232 19821
L21317 19821
L21374 19850
L21403 19878
L21432 19935
L21432 20107
L21403 20164
L21374 20192
L21317 20221
L21232 20221
" />
<path d="M21774 20221
L21717 20192
L21689 20135
L21689 19621
" />
<path d="M22089 20221
L22032 20192
L22003 20135
L22003 19621
" />
<path d="M22546 20192
L22489 20221
L22374 20221
L22317 20192
L22289 20135
L22289 19907
L22317 19850
L22374 19821
L22489 19821
L22546 19850
L22574 19907
L22574 19964
L22289 20021
" />
<path d="M22832 20221
L22832 19821
" />
<path d="M22832 19935
L22860 19878
L22889 19850
L22946 19821
L23003 19821
" />
<text x="17560.7" y="21300"
textLength="11909.3" font-size="800" lengthAdjust="spacingAndGlyphs"
text-anchor="middle" opacity="0">Janelia Research Campus</text>
<path d="M12017 20671
L12017 21100
L11989 21185
L11932 21242
L11846 21271
L11789 21271
" />
<path d="M12560 21271
L12560 20957
L12532 20900
L12474 20871
L12360 20871
L12303 20900
" />
<path d="M12560 21242
L12503 21271
L12360 21271
L12303 21242
L12274 21185
L12274 21128
L12303 21071
L12360 21042
L12503 21042
L12560 21014
" />
<path d="M12846 20871
L12846 21271
" />
<path d="M12846 20928
L12874 20900
L12932 20871
L13017 20871
L13074 20900
L13103 20957
L13103 21271
" />
<path d="M13617 21242
L13560 21271
L13446 21271
L13389 21242
L13360 21185
L13360 20957
L13389 20900
L13446 20871
L13560 20871
L13617 20900
L13646 20957
L13646 21014
L13360 21071
" />
<path d="M13989 21271
L13932 21242
L13903 21185
L13903 20671
" />
<path d="M14217 21271
L14217 20871
" />
<path d="M14217 20671
L14189 20700
L14217 20728
L14246 20700
L14217 20671
L14217 20728
" />
<path d="M14760 21271
L14760 20957
L14732 20900
L14674 20871
L14560 20871
L14503 20900
" />
<path d="M14760 21242
L14703 21271
L14560 21271
L14503 21242
L14474 21185
L14474 21128
L14503 21071
L14560 21042
L14703 21042
L14760 21014
" />
<path d="M15846 21271
L15646 20985
" />
<path d="M15503 21271
L15503 20671
L15732 20671
L15789 20700
L15817 20728
L15846 20785
L15846 20871
L15817 20928
L15789 20957
L15732 20985
L15503 20985
" />
<path d="M16332 21242
L16274 21271
L16160 21271
L16103 21242
L16074 21185
L16074 20957
L16103 20900
L16160 20871
L16274 20871
L16332 20900
L16360 20957
L16360 21014
L16074 21071
" />
<path d="M16589 21242
L16646 21271
L16760 21271
L16817 21242
L16846 21185
L16846 21157
L16817 21100
L16760 21071
L16674 21071
L16617 21042
L16589 20985
L16589 20957
L16617 20900
L16674 20871
L16760 20871
L16817 20900
" />
<path d="M17332 21242
L17274 21271
L17160 21271
L17103 21242
L17074 21185
L17074 20957
L17103 20900
L17160 20871
L17274 20871
L17332 20900
L17360 20957
L17360 21014
L17074 21071
" />
<path d="M17874 21271
L17874 20957
L17846 20900
L17789 20871
L17674 20871
L17617 20900
" />
<path d="M17874 21242
L17817 21271
L17674 21271
L17617 21242
L17589 21185
L17589 21128
L17617 21071
L17674 21042
L17817 21042
L17874 21014
" />
<path d="M18160 21271
L18160 20871
" />
<path d="M18160 20985
L18189 20928
L18217 20900
L18274 20871
L18332 20871
" />
<path d="M18789 21242
L18732 21271
L18617 21271
L18560 21242
L18532 21214
L18503 21157
L18503 20985
L18532 20928
L18560 20900
L18617 20871
L18732 20871
L18789 20900
" />
<path d="M19046 21271
L19046 20671
" />
<path d="M19303 21271
L19303 20957
L19274 20900
L19217 20871
L19132 20871
L19074 20900
L19046 20928
" />
<path d="M20389 21214
L20360 21242
L20274 21271
L20217 21271
L20132 21242
L20074 21185
L20046 21128
L20017 21014
L20017 20928
L20046 20814
L20074 20757
L20132 20700
L20217 20671
L20274 20671
L20360 20700
L20389 20728
" />
<path d="M20903 21271
L20903 20957
L20874 20900
L20817 20871
L20703 20871
L20646 20900
" />
<path d="M20903 21242
L20846 21271
L20703 21271
L20646 21242
L20617 21185
L20617 21128
L20646 21071
L20703 21042
L20846 21042
L20903 21014
" />
<path d="M21189 21271
L21189 20871
" />
<path d="M21189 20928
L21217 20900
L21274 20871
L21360 20871
L21417 20900
L21446 20957
L21446 21271
" />
<path d="M21446 20957
L21474 20900
L21532 20871
L21617 20871
L21674 20900
L21703 20957
L21703 21271
" />
<path d="M21989 20871
L21989 21471
" />
<path d="M21989 20900
L22046 20871
L22160 20871
L22217 20900
L22246 20928
L22274 20985
L22274 21157
L22246 21214
L22217 21242
L22160 21271
L22046 21271
L21989 21242
" />
<path d="M22789 20871
L22789 21271
" />
<path d="M22532 20871
L22532 21185
L22560 21242
L22617 21271
L22703 21271
L22760 21242
L22789 21214
" />
<path d="M23046 21242
L23103 21271
L23217 21271
L23274 21242
L23303 21185
L23303 21157
L23274 21100
L23217 21071
L23132 21071
L23074 21042
L23046 20985
L23046 20957
L23074 20900
L23132 20871
L23217 20871
L23274 20900
" />
<text x="17560.7" y="22350"
textLength="9709.29" font-size="800" lengthAdjust="spacingAndGlyphs"
text-anchor="middle" opacity="0">07/20/2020 ver 1.0</text>
<path d="M13060 21721
L13117 21721
L13174 21750
L13203 21778
L13232 21835
L13260 21950
L13260 22092
L13232 22207
L13203 22264
L13174 22292
L13117 22321
L13060 22321
L13003 22292
L12974 22264
L12946 22207
L12917 22092
L12917 21950
L12946 21835
L12974 21778
L13003 21750
L13060 21721
" />
<path d="M13460 21721
L13860 21721
L13603 22321
" />
<path d="M14517 21692
L14003 22464
" />
<path d="M14689 21778
L14717 21750
L14774 21721
L14917 21721
L14974 21750
L15003 21778
L15032 21835
L15032 21892
L15003 21978
L14660 22321
L15032 22321
" />
<path d="M15403 21721
L15460 21721
L15517 21750
L15546 21778
L15574 21835
L15603 21950
L15603 22092
L15574 22207
L15546 22264
L15517 22292
L15460 22321
L15403 22321
L15346 22292
L15317 22264
L15289 22207
L15260 22092
L15260 21950
L15289 21835
L15317 21778
L15346 21750
L15403 21721
" />
<path d="M16289 21692
L15774 22464
" />
<path d="M16460 21778
L16489 21750
L16546 21721
L16689 21721
L16746 21750
L16774 21778
L16803 21835
L16803 21892
L16774 21978
L16432 22321
L16803 22321
" />
<path d="M17174 21721
L17232 21721
L17289 21750
L17317 21778
L17346 21835
L17374 21950
L17374 22092
L17346 22207
L17317 22264
L17289 22292
L17232 22321
L17174 22321
L17117 22292
L17089 22264
L17060 22207
L17032 22092
L17032 21950
L17060 21835
L17089 21778
L17117 21750
L17174 21721
" />
<path d="M17603 21778
L17632 21750
L17689 21721
L17832 21721
L17889 21750
L17917 21778
L17946 21835
L17946 21892
L17917 21978
L17574 22321
L17946 22321
" />
<path d="M18317 21721
L18374 21721
L18432 21750
L18460 21778
L18489 21835
L18517 21950
L18517 22092
L18489 22207
L18460 22264
L18432 22292
L18374 22321
L18317 22321
L18260 22292
L18232 22264
L18203 22207
L18174 22092
L18174 21950
L18203 21835
L18232 21778
L18260 21750
L18317 21721
" />
<path d="M19174 21921
L19317 22321
L19460 21921
" />
<path d="M19917 22292
L19860 22321
L19746 22321
L19689 22292
L19660 22235
L19660 22007
L19689 21950
L19746 21921
L19860 21921
L19917 21950
L19946 22007
L19946 22064
L19660 22121
" />
<path d="M20203 22321
L20203 21921
" />
<path d="M20203 22035
L20232 21978
L20260 21950
L20317 21921
L20374 21921
" />
<path d="M21346 22321
L21003 22321
" />
<path d="M21174 22321
L21174 21721
L21117 21807
L21060 21864
L21003 21892
" />
<path d="M21603 22264
L21632 22292
L21603 22321
L21574 22292
L21603 22264
L21603 22321
" />
<path d="M22003 21721
L22060 21721
L22117 21750
L22146 21778
L22174 21835
L22203 21950
L22203 22092
L22174 22207
L22146 22264
L22117 22292
L22060 22321
L22003 22321
L21946 22292
L21917 22264
L21889 22207
L21860 22092
L21860 21950
L21889 21835
L21917 21778
L21946 21750
L22003 21721
" />
<text x="21810.7" y="36500"
textLength="3537.86" font-size="800" lengthAdjust="spacingAndGlyphs"
text-anchor="middle" opacity="0">2.1x5.5</text>
<path d="M20253 35928
L20282 35900
L20339 35871
L20482 35871
L20539 35900
L20567 35928
L20596 35985
L20596 36042
L20567 36128
L20224 36471
L20596 36471
" />
<path d="M20853 36414
L20882 36442
L20853 36471
L20824 36442
L20853 36414
L20853 36471
" />
<path d="M21453 36471
L21110 36471
" />
<path d="M21282 36471
L21282 35871
L21224 35957
L21167 36014
L21110 36042
" />
<path d="M21653 36471
L21967 36071
" />
<path d="M21653 36071
L21967 36471
" />
<path d="M22482 35871
L22196 35871
L22167 36157
L22196 36128
L22253 36100
L22396 36100
L22453 36128
L22482 36157
L22510 36214
L22510 36357
L22482 36414
L22453 36442
L22396 36471
L22253 36471
L22196 36442
L22167 36414
" />
<path d="M22767 36414
L22796 36442
L22767 36471
L22739 36442
L22767 36414
L22767 36471
" />
<path d="M23339 35871
L23053 35871
L23024 36157
L23053 36128
L23110 36100
L23253 36100
L23310 36128
L23339 36157
L23367 36214
L23367 36357
L23339 36414
L23310 36442
L23253 36471
L23110 36471
L23053 36442
L23024 36414
" />
<text x="21810.7" y="37550"
textLength="4280.71" font-size="800" lengthAdjust="spacingAndGlyphs"
text-anchor="middle" opacity="0">Center +</text>
<path d="M20253 37464
L20224 37492
L20139 37521
L20082 37521
L19996 37492
L19939 37435
L19910 37378
L19882 37264
L19882 37178
L19910 37064
L19939 37007
L19996 36950
L20082 36921
L20139 36921
L20224 36950
L20253 36978
" />
<path d="M20739 37492
L20682 37521
L20567 37521
L20510 37492
L20482 37435
L20482 37207
L20510 37150
L20567 37121
L20682 37121
L20739 37150
L20767 37207
L20767 37264
L20482 37321
" />
<path d="M21024 37121
L21024 37521
" />
<path d="M21024 37178
L21053 37150
L21110 37121
L21196 37121
L21253 37150
L21282 37207
L21282 37521
" />
<path d="M21482 37121
L21710 37121
" />
<path d="M21567 36921
L21567 37435
L21596 37492
L21653 37521
L21710 37521
" />
<path d="M22139 37492
L22082 37521
L21967 37521
L21910 37492
L21882 37435
L21882 37207
L21910 37150
L21967 37121
L22082 37121
L22139 37150
L22167 37207
L22167 37264
L21882 37321
" />
<path d="M22424 37521
L22424 37121
" />
<path d="M22424 37235
L22453 37178
L22482 37150
L22539 37121
L22596 37121
" />
<path d="M23253 37292
L23710 37292
" />
<path d="M23482 37521
L23482 37064
" />
<text x="21810.7" y="38600"
textLength="3795" font-size="800" lengthAdjust="spacingAndGlyphs"
text-anchor="middle" opacity="0">+12VDC</text>
<path d="M20153 38342
L20610 38342
" />
<path d="M20382 38571
L20382 38114
" />
<path d="M21210 38571
L20867 38571
" />
<path d="M21039 38571
L21039 37971
L20982 38057
L20924 38114
L20867 38142
" />
<path d="M21439 38028
L21467 38000
L21524 37971
L21667 37971
L21724 38000
L21753 38028
L21782 38085
L21782 38142
L21753 38228
L21410 38571
L21782 38571
" />
<path d="M21953 37971
L22153 38571
L22353 37971
" />
<path d="M22553 38571
L22553 37971
L22696 37971
L22782 38000
L22839 38057
L22867 38114
L22896 38228
L22896 38314
L22867 38428
L22839 38485
L22782 38542
L22696 38571
L22553 38571
" />
<path d="M23496 38514
L23467 38542
L23382 38571
L23324 38571
L23239 38542
L23182 38485
L23153 38428
L23124 38314
L23124 38228
L23153 38114
L23182 38057
L23239 38000
L23324 37971
L23382 37971
L23467 38000
L23496 38028
" />
</g>
<g style="fill:#008484; fill-opacity:0.0; 
stroke:#008484; stroke-width:110; stroke-opacity:1; 
stroke-linecap:round; stroke-linejoin:round;">
<path d="M30060 35750
L30060 18750
" />
<path d="M30060 18750
L28060 18750
" />
<path d="M28060 18750
L28060 35750
" />
<path d="M28060 35750
L30060 35750
" />
<path d="M27310 28750
L28060 28750
" />
<path d="M27310 28750
L27310 25750
" />
<path d="M28060 25750
L27310 25750
" />
<path d="M27560 20250
L27560 19250
" />
<path d="M27560 19250
L28060 19750
" />
<path d="M28060 19750
L27560 20250
" />
<path d="M7560 35250
L7060 34750
" />
<path d="M7560 34250
L7560 35250
" />
<path d="M7060 18750
L5060 18750
" />
<path d="M5060 18750
L5060 35750
" />
<path d="M7060 35750
L7060 18750
" />
<path d="M7060 34750
L7560 34250
" />
<path d="M5060 35750
L7060 35750
" />
<path d="M7060 28750
L7810 28750
" />
<path d="M7810 25750
L7060 25750
" />
<path d="M7810 25750
L7810 28750
" />
<path d="M5850 9780
L4360 9780
" />
<path d="M5850 12720
L5850 9780
" />
<path d="M4360 12720
L5850 12720
" />
<circle cx="4360.71" cy="11250" r="1470" /> 
</g>
<g style="fill:#008484; fill-opacity:0.0; 
stroke:#008484; stroke-width:59.0551; stroke-opacity:1; 
stroke-linecap:round; stroke-linejoin:round;">
<circle cx="3560.71" cy="10750" r="500" /> 
<circle cx="3560.71" cy="11750" r="500" /> 
</g>
<g style="fill:#008484; fill-opacity:0.0; 
stroke:#008484; stroke-width:110; stroke-opacity:1; 
stroke-linecap:round; stroke-linejoin:round;">
<path d="M5850 6780
L4360 6780
" />
<path d="M5850 9720
L5850 6780
" />
<path d="M4360 9720
L5850 9720
" />
<circle cx="4360.71" cy="8250" r="1470" /> 
</g>
<g style="fill:#008484; fill-opacity:0.0; 
stroke:#008484; stroke-width:59.0551; stroke-opacity:1; 
stroke-linecap:round; stroke-linejoin:round;">
<circle cx="3560.71" cy="7750" r="500" /> 
<circle cx="3560.71" cy="8750" r="500" /> 
</g>
<g style="fill:#008484; fill-opacity:0.0; 
stroke:#008484; stroke-width:110; stroke-opacity:1; 
stroke-linecap:round; stroke-linejoin:round;">
<path d="M5850 3780
L4360 3780
" />
<path d="M5850 6720
L5850 3780
" />
<path d="M4360 6720
L5850 6720
" />
<circle cx="4360.71" cy="5250" r="1470" /> 
</g>
<g style="fill:#008484; fill-opacity:0.0; 
stroke:#008484; stroke-width:59.0551; stroke-opacity:1; 
stroke-linecap:round; stroke-linejoin:round;">
<circle cx="3560.71" cy="4750" r="500" /> 
<circle cx="3560.71" cy="5750" r="500" /> 
</g>
<g style="fill:#008484; fill-opacity:0.0; 
stroke:#008484; stroke-width:110; stroke-opacity:1; 
stroke-linecap:round; stroke-linejoin:round;">
<path d="M16850 9780
L15360 9780
" />
<path d="M16850 12720
L16850 9780
" />
<path d="M15360 12720
L16850 12720
" />
<circle cx="15360.7" cy="11250" r="1470" /> 
</g>
<g style="fill:#008484; fill-opacity:0.0; 
stroke:#008484; stroke-width:59.0551; stroke-opacity:1; 
stroke-linecap:round; stroke-linejoin:round;">
<circle cx="14560.7" cy="10750" r="500" /> 
<circle cx="14560.7" cy="11750" r="500" /> 
</g>
<g style="fill:#008484; fill-opacity:0.0; 
stroke:#008484; stroke-width:110; stroke-opacity:1; 
stroke-linecap:round; stroke-linejoin:round;">
<path d="M16850 6780
L15360 6780
" />
<path d="M16850 9720
L16850 6780
" />
<path d="M15360 9720
L16850 9720
" />
<circle cx="15360.7" cy="8250" r="1470" /> 
</g>
<g style="fill:#008484; fill-opacity:0.0; 
stroke:#008484; stroke-width:59.0551; stroke-opacity:1; 
stroke-linecap:round; stroke-linejoin:round;">
<circle cx="14560.7" cy="7750" r="500" /> 
<circle cx="14560.7" cy="8750" r="500" /> 
</g>
<g style="fill:#008484; fill-opacity:0.0; 
stroke:#008484; stroke-width:110; stroke-opacity:1; 
stroke-linecap:round; stroke-linejoin:round;">
<path d="M16850 3780
L15360 3780
" />
<path d="M16850 6720
L16850 3780
" />
<path d="M15360 6720
L16850 6720
" />
<circle cx="15360.7" cy="5250" r="1470" /> 
</g>
<g style="fill:#008484; fill-opacity:0.0; 
stroke:#008484; stroke-width:59.0551; stroke-opacity:1; 
stroke-linecap:round; stroke-linejoin:round;">
<circle cx="14560.7" cy="4750" r="500" /> 
<circle cx="14560.7" cy="5750" r="500" /> 
</g>
<g style="fill:#008484; fill-opacity:0.0; 
stroke:#008484; stroke-width:110; stroke-opacity:1; 
stroke-linecap:round; stroke-linejoin:round;">
<path d="M27850 9780
L26360 9780
" />
<path d="M27850 12720
L27850 9780
" />
<path d="M26360 12720
L27850 12720
" />
<circle cx="26360.7" cy="11250" r="1470" /> 
</g>
<g style="fill:#008484; fill-opacity:0.0; 
stroke:#008484; stroke-width:59.0551; stroke-opacity:1; 
stroke-linecap:round; stroke-linejoin:round;">
<circle cx="25560.7" cy="10750" r="500" /> 
<circle cx="25560.7" cy="11750" r="500" /> 
</g>
<g style="fill:#008484; fill-opacity:0.0; 
stroke:#008484; stroke-width:110; stroke-opacity:1; 
stroke-linecap:round; stroke-linejoin:round;">
<path d="M27850 6780
L26360 6780
" />
<path d="M27850 9720
L27850 6780
" />
<path d="M26360 9720
L27850 9720
" />
<circle cx="26360.7" cy="8250" r="1470" /> 
</g>
<g style="fill:#008484; fill-opacity:0.0; 
stroke:#008484; stroke-width:59.0551; stroke-opacity:1; 
stroke-linecap:round; stroke-linejoin:round;">
<circle cx="25560.7" cy="7750" r="500" /> 
<circle cx="25560.7" cy="8750" r="500" /> 
</g>
<g style="fill:#008484; fill-opacity:0.0; 
stroke:#008484; stroke-width:110; stroke-opacity:1; 
stroke-linecap:round; stroke-linejoin:round;">
<path d="M27850 3780
L26360 3780
" />
<path d="M27850 6720
L27850 3780
" />
<path d="M26360 6720
L27850 6720
" />
<circle cx="26360.7" cy="5250" r="1470" /> 
</g>
<g style="fill:#008484; fill-opacity:0.0; 
stroke:#008484; stroke-width:59.0551; stroke-opacity:1; 
stroke-linecap:round; stroke-linejoin:round;">
<circle cx="25560.7" cy="4750" r="500" /> 
<circle cx="25560.7" cy="5750" r="500" /> 
</g>
<g style="fill:#008484; fill-opacity:0.0; 
stroke:#008484; stroke-width:70; stroke-opacity:1; 
stroke-linecap:round; stroke-linejoin:round;">
<path d="M13560 35900
L13210 35900
" />
<path d="M13210 35900
L13210 36600
" />
<path d="M13210 36600
L13560 36600
" />
<path d="M14060 35900
L14410 35900
" />
<path d="M14410 35900
L14410 36600
" />
<path d="M14410 36600
L14060 36600
" />
</g>
<g style="fill:#008484; fill-opacity:0.0; 
stroke:#008484; stroke-width:90; stroke-opacity:1; 
stroke-linecap:round; stroke-linejoin:round;">
<path d="M18466 23925
L18466 26877
" />
<path d="M16655 23925
L18466 23925
" />
<path d="M16655 26877
L16655 23925
" />
<path d="M18466 26877
L16655 26877
" />
</g>
<g style="fill:#008484; fill-opacity:0.0; 
stroke:#008484; stroke-width:157.48; stroke-opacity:1; 
stroke-linecap:round; stroke-linejoin:round;">
<path d="M20119 29427
L20119 35608
" />
<path d="M15001 29427
L15001 35608
" />
<path d="M15001 29427
L20119 29427
" />
<path d="M15001 35608
L20119 35608
" />
</g>
<g style="fill:#008484; fill-opacity:0.0; 
stroke:#008484; stroke-width:100; stroke-opacity:1; 
stroke-linecap:round; stroke-linejoin:round;">
<g transform="rotate(90 7560.71 33750)">
<text x="7560.71" y="33950"
textLength="575.952" font-size="533.333" lengthAdjust="spacingAndGlyphs"
text-anchor="middle" opacity="0">0</text>
</g>
<path d="M7779 33730
L7779 33769
L7760 33807
L7741 33826
L7703 33845
L7627 33864
L7532 33864
L7455 33845
L7417 33826
L7398 33807
L7379 33769
L7379 33730
L7398 33692
L7417 33673
L7455 33654
L7532 33635
L7627 33635
L7703 33654
L7741 33673
L7760 33692
L7779 33730
" />
<g transform="rotate(90 7560.71 31750)">
<text x="7560.71" y="31950"
textLength="510.952" font-size="533.333" lengthAdjust="spacingAndGlyphs"
text-anchor="middle" opacity="0">1</text>
</g>
<path d="M7379 31864
L7379 31635
" />
<path d="M7379 31750
L7779 31750
L7722 31711
L7684 31673
L7665 31635
" />
<g transform="rotate(90 7560.71 19750)">
<text x="7560.71" y="19950"
textLength="510.952" font-size="533.333" lengthAdjust="spacingAndGlyphs"
text-anchor="middle" opacity="0">7</text>
</g>
<path d="M7779 19616
L7779 19883
L7379 19711
" />
<g transform="rotate(90 7560.71 21750)">
<text x="7560.71" y="21950"
textLength="510.952" font-size="533.333" lengthAdjust="spacingAndGlyphs"
text-anchor="middle" opacity="0">6</text>
</g>
<path d="M7779 21826
L7779 21750
L7760 21711
L7741 21692
L7684 21654
L7608 21635
L7455 21635
L7417 21654
L7398 21673
L7379 21711
L7379 21788
L7398 21826
L7417 21845
L7455 21864
L7551 21864
L7589 21845
L7608 21826
L7627 21788
L7627 21711
L7608 21673
L7589 21654
L7551 21635
" />
<g transform="rotate(90 7560.71 23750)">
<text x="7560.71" y="23950"
textLength="510.952" font-size="533.333" lengthAdjust="spacingAndGlyphs"
text-anchor="middle" opacity="0">5</text>
</g>
<path d="M7779 23845
L7779 23654
L7589 23635
L7608 23654
L7627 23692
L7627 23788
L7608 23826
L7589 23845
L7551 23864
L7455 23864
L7417 23845
L7398 23826
L7379 23788
L7379 23692
L7398 23654
L7417 23635
" />
<g transform="rotate(90 7560.71 29750)">
<text x="7560.71" y="29950"
textLength="510.952" font-size="533.333" lengthAdjust="spacingAndGlyphs"
text-anchor="middle" opacity="0">2</text>
</g>
<path d="M7741 29635
L7760 29654
L7779 29692
L7779 29788
L7760 29826
L7741 29845
L7703 29864
L7665 29864
L7608 29845
L7379 29616
L7379 29864
" />
<g transform="rotate(-90 27560.7 20750)">
<text x="27560.7" y="20950"
textLength="510.952" font-size="533.333" lengthAdjust="spacingAndGlyphs"
text-anchor="middle" opacity="0">8</text>
</g>
<path d="M27513 20788
L27494 20826
L27474 20845
L27436 20864
L27417 20864
L27379 20845
L27360 20826
L27341 20788
L27341 20711
L27360 20673
L27379 20654
L27417 20635
L27436 20635
L27474 20654
L27494 20673
L27513 20711
L27513 20788
L27532 20826
L27551 20845
L27589 20864
L27665 20864
L27703 20845
L27722 20826
L27741 20788
L27741 20711
L27722 20673
L27703 20654
L27665 20635
L27589 20635
L27551 20654
L27532 20673
L27513 20711
" />
<g transform="rotate(-90 27560.7 34750)">
<text x="27560.7" y="34950"
textLength="891.905" font-size="533.333" lengthAdjust="spacingAndGlyphs"
text-anchor="middle" opacity="0">15</text>
</g>
<path d="M27741 34826
L27741 35054
" />
<path d="M27741 34940
L27341 34940
L27398 34978
L27436 35016
L27455 35054
" />
<path d="M27341 34464
L27341 34654
L27532 34673
L27513 34654
L27494 34616
L27494 34521
L27513 34483
L27532 34464
L27570 34445
L27665 34445
L27703 34464
L27722 34483
L27741 34521
L27741 34616
L27722 34654
L27703 34673
" />
<g transform="rotate(-90 27560.7 32750)">
<text x="27560.7" y="32950"
textLength="891.905" font-size="533.333" lengthAdjust="spacingAndGlyphs"
text-anchor="middle" opacity="0">14</text>
</g>
<path d="M27741 32826
L27741 33054
" />
<path d="M27741 32940
L27341 32940
L27398 32978
L27436 33016
L27455 33054
" />
<path d="M27474 32483
L27741 32483
" />
<path d="M27322 32578
L27608 32673
L27608 32426
" />
<g transform="rotate(-90 27560.7 30750)">
<text x="27560.7" y="30950"
textLength="891.905" font-size="533.333" lengthAdjust="spacingAndGlyphs"
text-anchor="middle" opacity="0">13</text>
</g>
<path d="M27741 30826
L27741 31054
" />
<path d="M27741 30940
L27341 30940
L27398 30978
L27436 31016
L27455 31054
" />
<path d="M27341 30692
L27341 30445
L27494 30578
L27494 30521
L27513 30483
L27532 30464
L27570 30445
L27665 30445
L27703 30464
L27722 30483
L27741 30521
L27741 30635
L27722 30673
L27703 30692
" />
<g transform="rotate(-90 27560.7 24750)">
<text x="27560.7" y="24950"
textLength="891.905" font-size="533.333" lengthAdjust="spacingAndGlyphs"
text-anchor="middle" opacity="0">10</text>
</g>
<path d="M27741 24826
L27741 25054
" />
<path d="M27741 24940
L27341 24940
L27398 24978
L27436 25016
L27455 25054
" />
<path d="M27341 24578
L27341 24540
L27360 24502
L27379 24483
L27417 24464
L27494 24445
L27589 24445
L27665 24464
L27703 24483
L27722 24502
L27741 24540
L27741 24578
L27722 24616
L27703 24635
L27665 24654
L27589 24673
L27494 24673
L27417 24654
L27379 24635
L27360 24616
L27341 24578
" />
<g transform="rotate(-90 27560.7 22750)">
<text x="27560.7" y="22950"
textLength="510.952" font-size="533.333" lengthAdjust="spacingAndGlyphs"
text-anchor="middle" opacity="0">9</text>
</g>
<path d="M27741 22826
L27741 22750
L27722 22711
L27703 22692
L27646 22654
L27570 22635
L27417 22635
L27379 22654
L27360 22673
L27341 22711
L27341 22788
L27360 22826
L27379 22845
L27417 22864
L27513 22864
L27551 22845
L27570 22826
L27589 22788
L27589 22711
L27570 22673
L27551 22654
L27513 22635
" />
</g>
<g style="fill:#008484; fill-opacity:0.0; 
stroke:#008484; stroke-width:62.5; stroke-opacity:1; 
stroke-linecap:round; stroke-linejoin:round;">
<g transform="rotate(-90 14610.7 36250)">
<text x="14610.7" y="36375"
textLength="618.095" font-size="333.333" lengthAdjust="spacingAndGlyphs"
text-anchor="middle" opacity="0">C1</text>
</g>
<path d="M14699 36291
L14711 36303
L14723 36339
L14723 36363
L14711 36398
L14688 36422
L14664 36434
L14616 36446
L14580 36446
L14533 36434
L14509 36422
L14485 36398
L14473 36363
L14473 36339
L14485 36303
L14497 36291
" />
<path d="M14723 36053
L14723 36196
" />
<path d="M14723 36125
L14473 36125
L14509 36148
L14533 36172
L14545 36196
" />
<g transform="rotate(-90 13010.7 36250)">
<text x="13010.7" y="36375"
textLength="997.917" font-size="333.333" lengthAdjust="spacingAndGlyphs"
text-anchor="middle" opacity="0">10uF</text>
</g>
<path d="M13123 36517
L13123 36660
" />
<path d="M13123 36589
L12873 36589
L12909 36613
L12933 36636
L12945 36660
" />
<path d="M12873 36363
L12873 36339
L12885 36315
L12897 36303
L12921 36291
L12969 36279
L13028 36279
L13076 36291
L13099 36303
L13111 36315
L13123 36339
L13123 36363
L13111 36386
L13099 36398
L13076 36410
L13028 36422
L12969 36422
L12921 36410
L12897 36398
L12885 36386
L12873 36363
" />
<path d="M12957 36065
L13123 36065
" />
<path d="M12957 36172
L13088 36172
L13111 36160
L13123 36136
L13123 36101
L13111 36077
L13099 36065
" />
<path d="M12992 35863
L12992 35946
" />
<path d="M13123 35946
L12873 35946
L12873 35827
" />
</g>
<g style="fill:#008484; fill-opacity:0.0; 
stroke:#008484; stroke-width:100; stroke-opacity:1; 
stroke-linecap:round; stroke-linejoin:round;">
<text x="17560.7" y="23790.6"
textLength="862.202" font-size="533.333" lengthAdjust="spacingAndGlyphs"
text-anchor="middle" opacity="0">D1</text>
<path d="M17265 23771
L17265 23371
L17360 23371
L17417 23390
L17455 23428
L17474 23466
L17494 23542
L17494 23600
L17474 23676
L17455 23714
L17417 23752
L17360 23771
L17265 23771
" />
<path d="M17874 23771
L17646 23771
" />
<path d="M17760 23771
L17760 23371
L17722 23428
L17684 23466
L17646 23485
" />
<text x="20119.8" y="28898.8"
textLength="910.952" font-size="533.333" lengthAdjust="spacingAndGlyphs"
text-anchor="start" opacity="0">P1</text>
<path d="M20280 28879
L20280 28479
L20432 28479
L20470 28498
L20489 28517
L20508 28555
L20508 28613
L20489 28651
L20470 28670
L20432 28689
L20280 28689
" />
<path d="M20889 28879
L20660 28879
" />
<path d="M20775 28879
L20775 28479
L20737 28536
L20699 28575
L20660 28594
" />
<g >
</g>
</g>
<g style="fill:#000000; fill-opacity:0.0; 
stroke:#000000; stroke-width:100; stroke-opacity:1; 
stroke-linecap:round; stroke-linejoin:round;">
</g>
<g style="fill:#C2C200; fill-opacity:0.0; 
stroke:#C2C200; stroke-width:100; stroke-opacity:1; 
stroke-linecap:round; stroke-linejoin:round;">
</g>
<g style="fill:#C2C200; fill-opacity:0.0; 
stroke:#C2C200; stroke-width:110; stroke-opacity:1; 
stroke-linecap:round; stroke-linejoin:round;">
<path d="M29810.7 39500 A2500 2500 0.0 0 0 32310.7 37000" />
<path d="M2810.71 37000 A2500 2500 0.0 0 0 5310.71 39500" />
<path d="M32310.7 3500 A2500 2500 0.0 0 0 29810.7 1000" />
<path d="M5310.71 1000 A2500 2500 0.0 0 0 2810.71 3500" />
<path d="M5310 1000
L29810 1000
" />
<path d="M2810 37000
L2810 3500
" />
<path d="M29810 39500
L5310 39500
" />
<path d="M32310 3500
L32310 37000
" />
<g >
</g>
<g >
</g>
<g >
</g>
<g >
</g>
<g >
</g>
<g >
</g>
<g >
</g>
<g >
</g>
<g >
</g>
<g >
</g>
<g >
</g>
<g >
</g>
<g >
</g>
<g >
</g>
<g >
</g>
<g >
</g>
<g >
</g>
<g >
</g>
<g >
</g>
<g >
</g>
<g >
</g>
</g> 
</svg>
