%TF.GenerationSoftware,KiCad,Pcbnew,5.1.6-c6e7f7d~87~ubuntu20.04.1*%
%TF.CreationDate,2020-08-02T14:52:04-04:00*%
%TF.ProjectId,y_arena_valve_controller,795f6172-656e-4615-9f76-616c76655f63,1.2*%
%TF.SameCoordinates,Original*%
%TF.FileFunction,Legend,Top*%
%TF.FilePolarity,Positive*%
%FSLAX46Y46*%
G04 Gerber Fmt 4.6, Leading zero omitted, Abs format (unit mm)*
G04 Created by KiCad (PCBNEW 5.1.6-c6e7f7d~87~ubuntu20.04.1) date 2020-08-02 14:52:04*
%MOMM*%
%LPD*%
G01*
G04 APERTURE LIST*
%ADD10C,0.254000*%
%ADD11C,0.279400*%
%ADD12C,0.349250*%
%ADD13C,0.381000*%
%ADD14C,0.127000*%
%ADD15C,0.150000*%
%ADD16C,0.177800*%
%ADD17C,0.228600*%
%ADD18C,0.317500*%
%ADD19C,0.158750*%
%ADD20R,3.910000X2.130000*%
%ADD21R,1.120000X2.390000*%
%ADD22R,3.099999X2.600000*%
%ADD23C,3.100000*%
%ADD24R,4.000000X6.300000*%
%ADD25R,3.400000X4.500000*%
%ADD26R,1.293800X1.293800*%
%ADD27C,2.386000*%
%ADD28C,1.000000*%
%ADD29C,3.656000*%
%ADD30R,1.700200X0.887400*%
%ADD31R,1.700000X1.540000*%
%ADD32R,3.900000X5.060000*%
%ADD33O,2.640000X2.284400*%
%ADD34R,2.640000X2.284400*%
G04 APERTURE END LIST*
D10*
X79665285Y-109679619D02*
X79084714Y-109679619D01*
X79375000Y-109679619D02*
X79375000Y-108663619D01*
X79278238Y-108808761D01*
X79181476Y-108905523D01*
X79084714Y-108953904D01*
X79084714Y-103680380D02*
X79133095Y-103632000D01*
X79229857Y-103583619D01*
X79471761Y-103583619D01*
X79568523Y-103632000D01*
X79616904Y-103680380D01*
X79665285Y-103777142D01*
X79665285Y-103873904D01*
X79616904Y-104019047D01*
X79036333Y-104599619D01*
X79665285Y-104599619D01*
X79326619Y-113743619D02*
X79423380Y-113743619D01*
X79520142Y-113792000D01*
X79568523Y-113840380D01*
X79616904Y-113937142D01*
X79665285Y-114130666D01*
X79665285Y-114372571D01*
X79616904Y-114566095D01*
X79568523Y-114662857D01*
X79520142Y-114711238D01*
X79423380Y-114759619D01*
X79326619Y-114759619D01*
X79229857Y-114711238D01*
X79181476Y-114662857D01*
X79133095Y-114566095D01*
X79084714Y-114372571D01*
X79084714Y-114130666D01*
X79133095Y-113937142D01*
X79181476Y-113840380D01*
X79229857Y-113792000D01*
X79326619Y-113743619D01*
X93054714Y-99870380D02*
X93103095Y-99822000D01*
X93199857Y-99773619D01*
X93441761Y-99773619D01*
X93538523Y-99822000D01*
X93586904Y-99870380D01*
X93635285Y-99967142D01*
X93635285Y-100063904D01*
X93586904Y-100209047D01*
X93006333Y-100789619D01*
X93635285Y-100789619D01*
X88555285Y-100789619D02*
X87974714Y-100789619D01*
X88265000Y-100789619D02*
X88265000Y-99773619D01*
X88168238Y-99918761D01*
X88071476Y-100015523D01*
X87974714Y-100063904D01*
X83136619Y-99773619D02*
X83233380Y-99773619D01*
X83330142Y-99822000D01*
X83378523Y-99870380D01*
X83426904Y-99967142D01*
X83475285Y-100160666D01*
X83475285Y-100402571D01*
X83426904Y-100596095D01*
X83378523Y-100692857D01*
X83330142Y-100741238D01*
X83233380Y-100789619D01*
X83136619Y-100789619D01*
X83039857Y-100741238D01*
X82991476Y-100692857D01*
X82943095Y-100596095D01*
X82894714Y-100402571D01*
X82894714Y-100160666D01*
X82943095Y-99967142D01*
X82991476Y-99870380D01*
X83039857Y-99822000D01*
X83136619Y-99773619D01*
X76278619Y-111300380D02*
X77294619Y-110961714D01*
X76278619Y-110623047D01*
X77004333Y-110332761D02*
X77004333Y-109848952D01*
X77294619Y-110429523D02*
X76278619Y-110090857D01*
X77294619Y-109752190D01*
X77294619Y-108929714D02*
X77294619Y-109413523D01*
X76278619Y-109413523D01*
X76278619Y-108736190D02*
X77294619Y-108397523D01*
X76278619Y-108058857D01*
X76762428Y-107720190D02*
X76762428Y-107381523D01*
X77294619Y-107236380D02*
X77294619Y-107720190D01*
X76278619Y-107720190D01*
X76278619Y-107236380D01*
X86934523Y-97959333D02*
X87418333Y-97959333D01*
X86837761Y-98249619D02*
X87176428Y-97233619D01*
X87515095Y-98249619D01*
X88434333Y-98249619D02*
X88095666Y-97765809D01*
X87853761Y-98249619D02*
X87853761Y-97233619D01*
X88240809Y-97233619D01*
X88337571Y-97282000D01*
X88385952Y-97330380D01*
X88434333Y-97427142D01*
X88434333Y-97572285D01*
X88385952Y-97669047D01*
X88337571Y-97717428D01*
X88240809Y-97765809D01*
X87853761Y-97765809D01*
X88869761Y-98249619D02*
X88869761Y-97233619D01*
X89208428Y-97959333D01*
X89547095Y-97233619D01*
X89547095Y-98249619D01*
D11*
X78105000Y-111760000D02*
X95885000Y-111760000D01*
X78105000Y-106680000D02*
X95885000Y-106680000D01*
X90805000Y-101600000D02*
X90805000Y-99060000D01*
X85725000Y-101600000D02*
X85725000Y-99060000D01*
X95885000Y-96520000D02*
X95885000Y-99060000D01*
X80645000Y-96520000D02*
X95885000Y-96520000D01*
X80645000Y-99060000D02*
X80645000Y-96520000D01*
X95885000Y-99060000D02*
X95885000Y-101600000D01*
X80645000Y-99060000D02*
X95885000Y-99060000D01*
X80645000Y-101600000D02*
X80645000Y-99060000D01*
X78105000Y-116840000D02*
X75565000Y-116840000D01*
X75565000Y-101600000D02*
X75565000Y-116840000D01*
X75565000Y-101600000D02*
X78105000Y-101600000D01*
X80645000Y-116840000D02*
X78105000Y-116840000D01*
X78105000Y-101600000D02*
X78105000Y-116840000D01*
X78105000Y-101600000D02*
X80645000Y-101600000D01*
X95885000Y-116840000D02*
X90805000Y-116840000D01*
X95885000Y-101600000D02*
X95885000Y-116840000D01*
X90805000Y-101600000D02*
X95885000Y-101600000D01*
X90805000Y-116840000D02*
X85725000Y-116840000D01*
X90805000Y-101600000D02*
X90805000Y-116840000D01*
X85725000Y-101600000D02*
X90805000Y-101600000D01*
X85725000Y-116840000D02*
X80645000Y-116840000D01*
X85725000Y-101600000D02*
X85725000Y-116840000D01*
X80645000Y-101600000D02*
X85725000Y-101600000D01*
X80645000Y-116840000D02*
X80645000Y-101600000D01*
X95885000Y-104140000D02*
G75*
G03*
X95885000Y-104140000I-2540000J0D01*
G01*
X95885000Y-109220000D02*
G75*
G03*
X95885000Y-109220000I-2540000J0D01*
G01*
X90805000Y-104140000D02*
G75*
G03*
X90805000Y-104140000I-2540000J0D01*
G01*
X90805000Y-109220000D02*
G75*
G03*
X90805000Y-109220000I-2540000J0D01*
G01*
X95885000Y-114300000D02*
G75*
G03*
X95885000Y-114300000I-2540000J0D01*
G01*
X90805000Y-114300000D02*
G75*
G03*
X90805000Y-114300000I-2540000J0D01*
G01*
X85725000Y-104140000D02*
G75*
G03*
X85725000Y-104140000I-2540000J0D01*
G01*
X85725000Y-109220000D02*
G75*
G03*
X85725000Y-109220000I-2540000J0D01*
G01*
X85725000Y-114300000D02*
G75*
G03*
X85725000Y-114300000I-2540000J0D01*
G01*
D12*
X53433738Y-94410892D02*
X53766357Y-95342226D01*
X54098976Y-94410892D02*
X53766357Y-95342226D01*
X53633309Y-95674845D01*
X53566785Y-95741369D01*
X53433738Y-95807892D01*
X54298547Y-95475273D02*
X55362928Y-95475273D01*
X56294261Y-95342226D02*
X56294261Y-94610464D01*
X56227738Y-94477416D01*
X56094690Y-94410892D01*
X55828595Y-94410892D01*
X55695547Y-94477416D01*
X56294261Y-95275702D02*
X56161214Y-95342226D01*
X55828595Y-95342226D01*
X55695547Y-95275702D01*
X55629023Y-95142654D01*
X55629023Y-95009607D01*
X55695547Y-94876559D01*
X55828595Y-94810035D01*
X56161214Y-94810035D01*
X56294261Y-94743511D01*
X56959500Y-95342226D02*
X56959500Y-94410892D01*
X56959500Y-94676988D02*
X57026023Y-94543940D01*
X57092547Y-94477416D01*
X57225595Y-94410892D01*
X57358642Y-94410892D01*
X58356500Y-95275702D02*
X58223452Y-95342226D01*
X57957357Y-95342226D01*
X57824309Y-95275702D01*
X57757785Y-95142654D01*
X57757785Y-94610464D01*
X57824309Y-94477416D01*
X57957357Y-94410892D01*
X58223452Y-94410892D01*
X58356500Y-94477416D01*
X58423023Y-94610464D01*
X58423023Y-94743511D01*
X57757785Y-94876559D01*
X59021738Y-94410892D02*
X59021738Y-95342226D01*
X59021738Y-94543940D02*
X59088261Y-94477416D01*
X59221309Y-94410892D01*
X59420880Y-94410892D01*
X59553928Y-94477416D01*
X59620452Y-94610464D01*
X59620452Y-95342226D01*
X60884404Y-95342226D02*
X60884404Y-94610464D01*
X60817880Y-94477416D01*
X60684833Y-94410892D01*
X60418738Y-94410892D01*
X60285690Y-94477416D01*
X60884404Y-95275702D02*
X60751357Y-95342226D01*
X60418738Y-95342226D01*
X60285690Y-95275702D01*
X60219166Y-95142654D01*
X60219166Y-95009607D01*
X60285690Y-94876559D01*
X60418738Y-94810035D01*
X60751357Y-94810035D01*
X60884404Y-94743511D01*
X61217023Y-95475273D02*
X62281404Y-95475273D01*
X62480976Y-94410892D02*
X62813595Y-95342226D01*
X63146214Y-94410892D01*
X64277119Y-95342226D02*
X64277119Y-94610464D01*
X64210595Y-94477416D01*
X64077547Y-94410892D01*
X63811452Y-94410892D01*
X63678404Y-94477416D01*
X64277119Y-95275702D02*
X64144071Y-95342226D01*
X63811452Y-95342226D01*
X63678404Y-95275702D01*
X63611880Y-95142654D01*
X63611880Y-95009607D01*
X63678404Y-94876559D01*
X63811452Y-94810035D01*
X64144071Y-94810035D01*
X64277119Y-94743511D01*
X65141928Y-95342226D02*
X65008880Y-95275702D01*
X64942357Y-95142654D01*
X64942357Y-93945226D01*
X65541071Y-94410892D02*
X65873690Y-95342226D01*
X66206309Y-94410892D01*
X67270690Y-95275702D02*
X67137642Y-95342226D01*
X66871547Y-95342226D01*
X66738500Y-95275702D01*
X66671976Y-95142654D01*
X66671976Y-94610464D01*
X66738500Y-94477416D01*
X66871547Y-94410892D01*
X67137642Y-94410892D01*
X67270690Y-94477416D01*
X67337214Y-94610464D01*
X67337214Y-94743511D01*
X66671976Y-94876559D01*
X67603309Y-95475273D02*
X68667690Y-95475273D01*
X69599023Y-95275702D02*
X69465976Y-95342226D01*
X69199880Y-95342226D01*
X69066833Y-95275702D01*
X69000309Y-95209178D01*
X68933785Y-95076130D01*
X68933785Y-94676988D01*
X69000309Y-94543940D01*
X69066833Y-94477416D01*
X69199880Y-94410892D01*
X69465976Y-94410892D01*
X69599023Y-94477416D01*
X70397309Y-95342226D02*
X70264261Y-95275702D01*
X70197738Y-95209178D01*
X70131214Y-95076130D01*
X70131214Y-94676988D01*
X70197738Y-94543940D01*
X70264261Y-94477416D01*
X70397309Y-94410892D01*
X70596880Y-94410892D01*
X70729928Y-94477416D01*
X70796452Y-94543940D01*
X70862976Y-94676988D01*
X70862976Y-95076130D01*
X70796452Y-95209178D01*
X70729928Y-95275702D01*
X70596880Y-95342226D01*
X70397309Y-95342226D01*
X71461690Y-94410892D02*
X71461690Y-95342226D01*
X71461690Y-94543940D02*
X71528214Y-94477416D01*
X71661261Y-94410892D01*
X71860833Y-94410892D01*
X71993880Y-94477416D01*
X72060404Y-94610464D01*
X72060404Y-95342226D01*
X72526071Y-94410892D02*
X73058261Y-94410892D01*
X72725642Y-93945226D02*
X72725642Y-95142654D01*
X72792166Y-95275702D01*
X72925214Y-95342226D01*
X73058261Y-95342226D01*
X73523928Y-95342226D02*
X73523928Y-94410892D01*
X73523928Y-94676988D02*
X73590452Y-94543940D01*
X73656976Y-94477416D01*
X73790023Y-94410892D01*
X73923071Y-94410892D01*
X74588309Y-95342226D02*
X74455261Y-95275702D01*
X74388738Y-95209178D01*
X74322214Y-95076130D01*
X74322214Y-94676988D01*
X74388738Y-94543940D01*
X74455261Y-94477416D01*
X74588309Y-94410892D01*
X74787880Y-94410892D01*
X74920928Y-94477416D01*
X74987452Y-94543940D01*
X75053976Y-94676988D01*
X75053976Y-95076130D01*
X74987452Y-95209178D01*
X74920928Y-95275702D01*
X74787880Y-95342226D01*
X74588309Y-95342226D01*
X75852261Y-95342226D02*
X75719214Y-95275702D01*
X75652690Y-95142654D01*
X75652690Y-93945226D01*
X76584023Y-95342226D02*
X76450976Y-95275702D01*
X76384452Y-95142654D01*
X76384452Y-93945226D01*
X77648404Y-95275702D02*
X77515357Y-95342226D01*
X77249261Y-95342226D01*
X77116214Y-95275702D01*
X77049690Y-95142654D01*
X77049690Y-94610464D01*
X77116214Y-94477416D01*
X77249261Y-94410892D01*
X77515357Y-94410892D01*
X77648404Y-94477416D01*
X77714928Y-94610464D01*
X77714928Y-94743511D01*
X77049690Y-94876559D01*
X78313642Y-95342226D02*
X78313642Y-94410892D01*
X78313642Y-94676988D02*
X78380166Y-94543940D01*
X78446690Y-94477416D01*
X78579738Y-94410892D01*
X78712785Y-94410892D01*
X53134380Y-96389976D02*
X53134380Y-97387833D01*
X53067857Y-97587404D01*
X52934809Y-97720452D01*
X52735238Y-97786976D01*
X52602190Y-97786976D01*
X54398333Y-97786976D02*
X54398333Y-97055214D01*
X54331809Y-96922166D01*
X54198761Y-96855642D01*
X53932666Y-96855642D01*
X53799619Y-96922166D01*
X54398333Y-97720452D02*
X54265285Y-97786976D01*
X53932666Y-97786976D01*
X53799619Y-97720452D01*
X53733095Y-97587404D01*
X53733095Y-97454357D01*
X53799619Y-97321309D01*
X53932666Y-97254785D01*
X54265285Y-97254785D01*
X54398333Y-97188261D01*
X55063571Y-96855642D02*
X55063571Y-97786976D01*
X55063571Y-96988690D02*
X55130095Y-96922166D01*
X55263142Y-96855642D01*
X55462714Y-96855642D01*
X55595761Y-96922166D01*
X55662285Y-97055214D01*
X55662285Y-97786976D01*
X56859714Y-97720452D02*
X56726666Y-97786976D01*
X56460571Y-97786976D01*
X56327523Y-97720452D01*
X56261000Y-97587404D01*
X56261000Y-97055214D01*
X56327523Y-96922166D01*
X56460571Y-96855642D01*
X56726666Y-96855642D01*
X56859714Y-96922166D01*
X56926238Y-97055214D01*
X56926238Y-97188261D01*
X56261000Y-97321309D01*
X57724523Y-97786976D02*
X57591476Y-97720452D01*
X57524952Y-97587404D01*
X57524952Y-96389976D01*
X58256714Y-97786976D02*
X58256714Y-96855642D01*
X58256714Y-96389976D02*
X58190190Y-96456500D01*
X58256714Y-96523023D01*
X58323238Y-96456500D01*
X58256714Y-96389976D01*
X58256714Y-96523023D01*
X59520666Y-97786976D02*
X59520666Y-97055214D01*
X59454142Y-96922166D01*
X59321095Y-96855642D01*
X59055000Y-96855642D01*
X58921952Y-96922166D01*
X59520666Y-97720452D02*
X59387619Y-97786976D01*
X59055000Y-97786976D01*
X58921952Y-97720452D01*
X58855428Y-97587404D01*
X58855428Y-97454357D01*
X58921952Y-97321309D01*
X59055000Y-97254785D01*
X59387619Y-97254785D01*
X59520666Y-97188261D01*
X62048571Y-97786976D02*
X61582904Y-97121738D01*
X61250285Y-97786976D02*
X61250285Y-96389976D01*
X61782476Y-96389976D01*
X61915523Y-96456500D01*
X61982047Y-96523023D01*
X62048571Y-96656071D01*
X62048571Y-96855642D01*
X61982047Y-96988690D01*
X61915523Y-97055214D01*
X61782476Y-97121738D01*
X61250285Y-97121738D01*
X63179476Y-97720452D02*
X63046428Y-97786976D01*
X62780333Y-97786976D01*
X62647285Y-97720452D01*
X62580761Y-97587404D01*
X62580761Y-97055214D01*
X62647285Y-96922166D01*
X62780333Y-96855642D01*
X63046428Y-96855642D01*
X63179476Y-96922166D01*
X63246000Y-97055214D01*
X63246000Y-97188261D01*
X62580761Y-97321309D01*
X63778190Y-97720452D02*
X63911238Y-97786976D01*
X64177333Y-97786976D01*
X64310380Y-97720452D01*
X64376904Y-97587404D01*
X64376904Y-97520880D01*
X64310380Y-97387833D01*
X64177333Y-97321309D01*
X63977761Y-97321309D01*
X63844714Y-97254785D01*
X63778190Y-97121738D01*
X63778190Y-97055214D01*
X63844714Y-96922166D01*
X63977761Y-96855642D01*
X64177333Y-96855642D01*
X64310380Y-96922166D01*
X65507809Y-97720452D02*
X65374761Y-97786976D01*
X65108666Y-97786976D01*
X64975619Y-97720452D01*
X64909095Y-97587404D01*
X64909095Y-97055214D01*
X64975619Y-96922166D01*
X65108666Y-96855642D01*
X65374761Y-96855642D01*
X65507809Y-96922166D01*
X65574333Y-97055214D01*
X65574333Y-97188261D01*
X64909095Y-97321309D01*
X66771761Y-97786976D02*
X66771761Y-97055214D01*
X66705238Y-96922166D01*
X66572190Y-96855642D01*
X66306095Y-96855642D01*
X66173047Y-96922166D01*
X66771761Y-97720452D02*
X66638714Y-97786976D01*
X66306095Y-97786976D01*
X66173047Y-97720452D01*
X66106523Y-97587404D01*
X66106523Y-97454357D01*
X66173047Y-97321309D01*
X66306095Y-97254785D01*
X66638714Y-97254785D01*
X66771761Y-97188261D01*
X67437000Y-97786976D02*
X67437000Y-96855642D01*
X67437000Y-97121738D02*
X67503523Y-96988690D01*
X67570047Y-96922166D01*
X67703095Y-96855642D01*
X67836142Y-96855642D01*
X68900523Y-97720452D02*
X68767476Y-97786976D01*
X68501380Y-97786976D01*
X68368333Y-97720452D01*
X68301809Y-97653928D01*
X68235285Y-97520880D01*
X68235285Y-97121738D01*
X68301809Y-96988690D01*
X68368333Y-96922166D01*
X68501380Y-96855642D01*
X68767476Y-96855642D01*
X68900523Y-96922166D01*
X69499238Y-97786976D02*
X69499238Y-96389976D01*
X70097952Y-97786976D02*
X70097952Y-97055214D01*
X70031428Y-96922166D01*
X69898380Y-96855642D01*
X69698809Y-96855642D01*
X69565761Y-96922166D01*
X69499238Y-96988690D01*
X72625857Y-97653928D02*
X72559333Y-97720452D01*
X72359761Y-97786976D01*
X72226714Y-97786976D01*
X72027142Y-97720452D01*
X71894095Y-97587404D01*
X71827571Y-97454357D01*
X71761047Y-97188261D01*
X71761047Y-96988690D01*
X71827571Y-96722595D01*
X71894095Y-96589547D01*
X72027142Y-96456500D01*
X72226714Y-96389976D01*
X72359761Y-96389976D01*
X72559333Y-96456500D01*
X72625857Y-96523023D01*
X73823285Y-97786976D02*
X73823285Y-97055214D01*
X73756761Y-96922166D01*
X73623714Y-96855642D01*
X73357619Y-96855642D01*
X73224571Y-96922166D01*
X73823285Y-97720452D02*
X73690238Y-97786976D01*
X73357619Y-97786976D01*
X73224571Y-97720452D01*
X73158047Y-97587404D01*
X73158047Y-97454357D01*
X73224571Y-97321309D01*
X73357619Y-97254785D01*
X73690238Y-97254785D01*
X73823285Y-97188261D01*
X74488523Y-97786976D02*
X74488523Y-96855642D01*
X74488523Y-96988690D02*
X74555047Y-96922166D01*
X74688095Y-96855642D01*
X74887666Y-96855642D01*
X75020714Y-96922166D01*
X75087238Y-97055214D01*
X75087238Y-97786976D01*
X75087238Y-97055214D02*
X75153761Y-96922166D01*
X75286809Y-96855642D01*
X75486380Y-96855642D01*
X75619428Y-96922166D01*
X75685952Y-97055214D01*
X75685952Y-97786976D01*
X76351190Y-96855642D02*
X76351190Y-98252642D01*
X76351190Y-96922166D02*
X76484238Y-96855642D01*
X76750333Y-96855642D01*
X76883380Y-96922166D01*
X76949904Y-96988690D01*
X77016428Y-97121738D01*
X77016428Y-97520880D01*
X76949904Y-97653928D01*
X76883380Y-97720452D01*
X76750333Y-97786976D01*
X76484238Y-97786976D01*
X76351190Y-97720452D01*
X78213857Y-96855642D02*
X78213857Y-97786976D01*
X77615142Y-96855642D02*
X77615142Y-97587404D01*
X77681666Y-97720452D01*
X77814714Y-97786976D01*
X78014285Y-97786976D01*
X78147333Y-97720452D01*
X78213857Y-97653928D01*
X78812571Y-97720452D02*
X78945619Y-97786976D01*
X79211714Y-97786976D01*
X79344761Y-97720452D01*
X79411285Y-97587404D01*
X79411285Y-97520880D01*
X79344761Y-97387833D01*
X79211714Y-97321309D01*
X79012142Y-97321309D01*
X78879095Y-97254785D01*
X78812571Y-97121738D01*
X78812571Y-97055214D01*
X78879095Y-96922166D01*
X79012142Y-96855642D01*
X79211714Y-96855642D01*
X79344761Y-96922166D01*
X55562500Y-98834726D02*
X55695547Y-98834726D01*
X55828595Y-98901250D01*
X55895119Y-98967773D01*
X55961642Y-99100821D01*
X56028166Y-99366916D01*
X56028166Y-99699535D01*
X55961642Y-99965630D01*
X55895119Y-100098678D01*
X55828595Y-100165202D01*
X55695547Y-100231726D01*
X55562500Y-100231726D01*
X55429452Y-100165202D01*
X55362928Y-100098678D01*
X55296404Y-99965630D01*
X55229880Y-99699535D01*
X55229880Y-99366916D01*
X55296404Y-99100821D01*
X55362928Y-98967773D01*
X55429452Y-98901250D01*
X55562500Y-98834726D01*
X56493833Y-98834726D02*
X57425166Y-98834726D01*
X56826452Y-100231726D01*
X58955214Y-98768202D02*
X57757785Y-100564345D01*
X59287833Y-98834726D02*
X60152642Y-98834726D01*
X59686976Y-99366916D01*
X59886547Y-99366916D01*
X60019595Y-99433440D01*
X60086119Y-99499964D01*
X60152642Y-99633011D01*
X60152642Y-99965630D01*
X60086119Y-100098678D01*
X60019595Y-100165202D01*
X59886547Y-100231726D01*
X59487404Y-100231726D01*
X59354357Y-100165202D01*
X59287833Y-100098678D01*
X61483119Y-100231726D02*
X60684833Y-100231726D01*
X61083976Y-100231726D02*
X61083976Y-98834726D01*
X60950928Y-99034297D01*
X60817880Y-99167345D01*
X60684833Y-99233869D01*
X63079690Y-98768202D02*
X61882261Y-100564345D01*
X63478833Y-98967773D02*
X63545357Y-98901250D01*
X63678404Y-98834726D01*
X64011023Y-98834726D01*
X64144071Y-98901250D01*
X64210595Y-98967773D01*
X64277119Y-99100821D01*
X64277119Y-99233869D01*
X64210595Y-99433440D01*
X63412309Y-100231726D01*
X64277119Y-100231726D01*
X65141928Y-98834726D02*
X65274976Y-98834726D01*
X65408023Y-98901250D01*
X65474547Y-98967773D01*
X65541071Y-99100821D01*
X65607595Y-99366916D01*
X65607595Y-99699535D01*
X65541071Y-99965630D01*
X65474547Y-100098678D01*
X65408023Y-100165202D01*
X65274976Y-100231726D01*
X65141928Y-100231726D01*
X65008880Y-100165202D01*
X64942357Y-100098678D01*
X64875833Y-99965630D01*
X64809309Y-99699535D01*
X64809309Y-99366916D01*
X64875833Y-99100821D01*
X64942357Y-98967773D01*
X65008880Y-98901250D01*
X65141928Y-98834726D01*
X66139785Y-98967773D02*
X66206309Y-98901250D01*
X66339357Y-98834726D01*
X66671976Y-98834726D01*
X66805023Y-98901250D01*
X66871547Y-98967773D01*
X66938071Y-99100821D01*
X66938071Y-99233869D01*
X66871547Y-99433440D01*
X66073261Y-100231726D01*
X66938071Y-100231726D01*
X67802880Y-98834726D02*
X67935928Y-98834726D01*
X68068976Y-98901250D01*
X68135500Y-98967773D01*
X68202023Y-99100821D01*
X68268547Y-99366916D01*
X68268547Y-99699535D01*
X68202023Y-99965630D01*
X68135500Y-100098678D01*
X68068976Y-100165202D01*
X67935928Y-100231726D01*
X67802880Y-100231726D01*
X67669833Y-100165202D01*
X67603309Y-100098678D01*
X67536785Y-99965630D01*
X67470261Y-99699535D01*
X67470261Y-99366916D01*
X67536785Y-99100821D01*
X67603309Y-98967773D01*
X67669833Y-98901250D01*
X67802880Y-98834726D01*
X69798595Y-99300392D02*
X70131214Y-100231726D01*
X70463833Y-99300392D01*
X71528214Y-100165202D02*
X71395166Y-100231726D01*
X71129071Y-100231726D01*
X70996023Y-100165202D01*
X70929500Y-100032154D01*
X70929500Y-99499964D01*
X70996023Y-99366916D01*
X71129071Y-99300392D01*
X71395166Y-99300392D01*
X71528214Y-99366916D01*
X71594738Y-99499964D01*
X71594738Y-99633011D01*
X70929500Y-99766059D01*
X72193452Y-100231726D02*
X72193452Y-99300392D01*
X72193452Y-99566488D02*
X72259976Y-99433440D01*
X72326500Y-99366916D01*
X72459547Y-99300392D01*
X72592595Y-99300392D01*
X74854404Y-100231726D02*
X74056119Y-100231726D01*
X74455261Y-100231726D02*
X74455261Y-98834726D01*
X74322214Y-99034297D01*
X74189166Y-99167345D01*
X74056119Y-99233869D01*
X75453119Y-100098678D02*
X75519642Y-100165202D01*
X75453119Y-100231726D01*
X75386595Y-100165202D01*
X75453119Y-100098678D01*
X75453119Y-100231726D01*
X76051833Y-98967773D02*
X76118357Y-98901250D01*
X76251404Y-98834726D01*
X76584023Y-98834726D01*
X76717071Y-98901250D01*
X76783595Y-98967773D01*
X76850119Y-99100821D01*
X76850119Y-99233869D01*
X76783595Y-99433440D01*
X75985309Y-100231726D01*
X76850119Y-100231726D01*
D10*
X52608238Y-122222380D02*
X52656619Y-122174000D01*
X52753380Y-122125619D01*
X52995285Y-122125619D01*
X53092047Y-122174000D01*
X53140428Y-122222380D01*
X53188809Y-122319142D01*
X53188809Y-122415904D01*
X53140428Y-122561047D01*
X52559857Y-123141619D01*
X53188809Y-123141619D01*
X53624238Y-123044857D02*
X53672619Y-123093238D01*
X53624238Y-123141619D01*
X53575857Y-123093238D01*
X53624238Y-123044857D01*
X53624238Y-123141619D01*
X54640238Y-123141619D02*
X54059666Y-123141619D01*
X54349952Y-123141619D02*
X54349952Y-122125619D01*
X54253190Y-122270761D01*
X54156428Y-122367523D01*
X54059666Y-122415904D01*
X54978904Y-123141619D02*
X55511095Y-122464285D01*
X54978904Y-122464285D02*
X55511095Y-123141619D01*
X56381952Y-122125619D02*
X55898142Y-122125619D01*
X55849761Y-122609428D01*
X55898142Y-122561047D01*
X55994904Y-122512666D01*
X56236809Y-122512666D01*
X56333571Y-122561047D01*
X56381952Y-122609428D01*
X56430333Y-122706190D01*
X56430333Y-122948095D01*
X56381952Y-123044857D01*
X56333571Y-123093238D01*
X56236809Y-123141619D01*
X55994904Y-123141619D01*
X55898142Y-123093238D01*
X55849761Y-123044857D01*
X56865761Y-123044857D02*
X56914142Y-123093238D01*
X56865761Y-123141619D01*
X56817380Y-123093238D01*
X56865761Y-123044857D01*
X56865761Y-123141619D01*
X57833380Y-122125619D02*
X57349571Y-122125619D01*
X57301190Y-122609428D01*
X57349571Y-122561047D01*
X57446333Y-122512666D01*
X57688238Y-122512666D01*
X57785000Y-122561047D01*
X57833380Y-122609428D01*
X57881761Y-122706190D01*
X57881761Y-122948095D01*
X57833380Y-123044857D01*
X57785000Y-123093238D01*
X57688238Y-123141619D01*
X57446333Y-123141619D01*
X57349571Y-123093238D01*
X57301190Y-123044857D01*
X52608238Y-124822857D02*
X52559857Y-124871238D01*
X52414714Y-124919619D01*
X52317952Y-124919619D01*
X52172809Y-124871238D01*
X52076047Y-124774476D01*
X52027666Y-124677714D01*
X51979285Y-124484190D01*
X51979285Y-124339047D01*
X52027666Y-124145523D01*
X52076047Y-124048761D01*
X52172809Y-123952000D01*
X52317952Y-123903619D01*
X52414714Y-123903619D01*
X52559857Y-123952000D01*
X52608238Y-124000380D01*
X53430714Y-124871238D02*
X53333952Y-124919619D01*
X53140428Y-124919619D01*
X53043666Y-124871238D01*
X52995285Y-124774476D01*
X52995285Y-124387428D01*
X53043666Y-124290666D01*
X53140428Y-124242285D01*
X53333952Y-124242285D01*
X53430714Y-124290666D01*
X53479095Y-124387428D01*
X53479095Y-124484190D01*
X52995285Y-124580952D01*
X53914523Y-124242285D02*
X53914523Y-124919619D01*
X53914523Y-124339047D02*
X53962904Y-124290666D01*
X54059666Y-124242285D01*
X54204809Y-124242285D01*
X54301571Y-124290666D01*
X54349952Y-124387428D01*
X54349952Y-124919619D01*
X54688619Y-124242285D02*
X55075666Y-124242285D01*
X54833761Y-123903619D02*
X54833761Y-124774476D01*
X54882142Y-124871238D01*
X54978904Y-124919619D01*
X55075666Y-124919619D01*
X55801380Y-124871238D02*
X55704619Y-124919619D01*
X55511095Y-124919619D01*
X55414333Y-124871238D01*
X55365952Y-124774476D01*
X55365952Y-124387428D01*
X55414333Y-124290666D01*
X55511095Y-124242285D01*
X55704619Y-124242285D01*
X55801380Y-124290666D01*
X55849761Y-124387428D01*
X55849761Y-124484190D01*
X55365952Y-124580952D01*
X56285190Y-124919619D02*
X56285190Y-124242285D01*
X56285190Y-124435809D02*
X56333571Y-124339047D01*
X56381952Y-124290666D01*
X56478714Y-124242285D01*
X56575476Y-124242285D01*
X57688238Y-124532571D02*
X58462333Y-124532571D01*
X58075285Y-124919619D02*
X58075285Y-124145523D01*
X52438904Y-126310571D02*
X53213000Y-126310571D01*
X52825952Y-126697619D02*
X52825952Y-125923523D01*
X54229000Y-126697619D02*
X53648428Y-126697619D01*
X53938714Y-126697619D02*
X53938714Y-125681619D01*
X53841952Y-125826761D01*
X53745190Y-125923523D01*
X53648428Y-125971904D01*
X54616047Y-125778380D02*
X54664428Y-125730000D01*
X54761190Y-125681619D01*
X55003095Y-125681619D01*
X55099857Y-125730000D01*
X55148238Y-125778380D01*
X55196619Y-125875142D01*
X55196619Y-125971904D01*
X55148238Y-126117047D01*
X54567666Y-126697619D01*
X55196619Y-126697619D01*
X55486904Y-125681619D02*
X55825571Y-126697619D01*
X56164238Y-125681619D01*
X56502904Y-126697619D02*
X56502904Y-125681619D01*
X56744809Y-125681619D01*
X56889952Y-125730000D01*
X56986714Y-125826761D01*
X57035095Y-125923523D01*
X57083476Y-126117047D01*
X57083476Y-126262190D01*
X57035095Y-126455714D01*
X56986714Y-126552476D01*
X56889952Y-126649238D01*
X56744809Y-126697619D01*
X56502904Y-126697619D01*
X58099476Y-126600857D02*
X58051095Y-126649238D01*
X57905952Y-126697619D01*
X57809190Y-126697619D01*
X57664047Y-126649238D01*
X57567285Y-126552476D01*
X57518904Y-126455714D01*
X57470523Y-126262190D01*
X57470523Y-126117047D01*
X57518904Y-125923523D01*
X57567285Y-125826761D01*
X57664047Y-125730000D01*
X57809190Y-125681619D01*
X57905952Y-125681619D01*
X58051095Y-125730000D01*
X58099476Y-125778380D01*
D13*
%TO.C,SW1*%
X93345000Y-119940000D02*
X83185000Y-119940000D01*
X93345000Y-119940000D02*
X93345000Y-131040000D01*
X93345000Y-131040000D02*
X83185000Y-131040000D01*
X83185000Y-119940000D02*
X83185000Y-131040000D01*
D11*
X85471000Y-131064000D02*
X85471000Y-134112000D01*
X85471000Y-134112000D02*
X88011000Y-134112000D01*
X88011000Y-134112000D02*
X88011000Y-131064000D01*
X88900000Y-123190000D02*
G75*
G03*
X88900000Y-123190000I-635000J0D01*
G01*
X85725000Y-126365000D02*
G75*
G03*
X85725000Y-126365000I-635000J0D01*
G01*
X92075000Y-126365000D02*
G75*
G03*
X92075000Y-126365000I-635000J0D01*
G01*
X85725000Y-125730000D02*
X87630000Y-123825000D01*
D13*
%TO.C,P1*%
X65195000Y-130175000D02*
X65195000Y-121025000D01*
X65195000Y-121025000D02*
X70695000Y-121025000D01*
X70695000Y-130175000D02*
X70695000Y-121025000D01*
X63445000Y-130175000D02*
X72445000Y-130175000D01*
X72445000Y-115675000D02*
X72445000Y-130175000D01*
X63445000Y-115675000D02*
X72445000Y-115675000D01*
X63445000Y-130175000D02*
X63445000Y-115675000D01*
D14*
%TO.C,L2*%
X83058000Y-113919000D02*
X83058000Y-114173000D01*
X83312000Y-113919000D02*
X83058000Y-113919000D01*
X83312000Y-114173000D02*
X83312000Y-113919000D01*
X83058000Y-114173000D02*
X83312000Y-114173000D01*
X82550000Y-114681000D02*
X83820000Y-114681000D01*
X83185000Y-114300000D02*
X83820000Y-114681000D01*
X82550000Y-114681000D02*
X83185000Y-114300000D01*
%TO.C,L3*%
X83058000Y-108839000D02*
X83058000Y-109093000D01*
X83312000Y-108839000D02*
X83058000Y-108839000D01*
X83312000Y-109093000D02*
X83312000Y-108839000D01*
X83058000Y-109093000D02*
X83312000Y-109093000D01*
X82550000Y-109601000D02*
X83820000Y-109601000D01*
X83185000Y-109220000D02*
X83820000Y-109601000D01*
X82550000Y-109601000D02*
X83185000Y-109220000D01*
%TO.C,L4*%
X83058000Y-103759000D02*
X83058000Y-104013000D01*
X83312000Y-103759000D02*
X83058000Y-103759000D01*
X83312000Y-104013000D02*
X83312000Y-103759000D01*
X83058000Y-104013000D02*
X83312000Y-104013000D01*
X82550000Y-104521000D02*
X83820000Y-104521000D01*
X83185000Y-104140000D02*
X83820000Y-104521000D01*
X82550000Y-104521000D02*
X83185000Y-104140000D01*
%TO.C,L5*%
X88138000Y-113919000D02*
X88138000Y-114173000D01*
X88392000Y-113919000D02*
X88138000Y-113919000D01*
X88392000Y-114173000D02*
X88392000Y-113919000D01*
X88138000Y-114173000D02*
X88392000Y-114173000D01*
X87630000Y-114681000D02*
X88900000Y-114681000D01*
X88265000Y-114300000D02*
X88900000Y-114681000D01*
X87630000Y-114681000D02*
X88265000Y-114300000D01*
%TO.C,L6*%
X88138000Y-108839000D02*
X88138000Y-109093000D01*
X88392000Y-108839000D02*
X88138000Y-108839000D01*
X88392000Y-109093000D02*
X88392000Y-108839000D01*
X88138000Y-109093000D02*
X88392000Y-109093000D01*
X87630000Y-109601000D02*
X88900000Y-109601000D01*
X88265000Y-109220000D02*
X88900000Y-109601000D01*
X87630000Y-109601000D02*
X88265000Y-109220000D01*
%TO.C,L7*%
X88138000Y-103759000D02*
X88138000Y-104013000D01*
X88392000Y-103759000D02*
X88138000Y-103759000D01*
X88392000Y-104013000D02*
X88392000Y-103759000D01*
X88138000Y-104013000D02*
X88392000Y-104013000D01*
X87630000Y-104521000D02*
X88900000Y-104521000D01*
X88265000Y-104140000D02*
X88900000Y-104521000D01*
X87630000Y-104521000D02*
X88265000Y-104140000D01*
%TO.C,L8*%
X93218000Y-113919000D02*
X93218000Y-114173000D01*
X93472000Y-113919000D02*
X93218000Y-113919000D01*
X93472000Y-114173000D02*
X93472000Y-113919000D01*
X93218000Y-114173000D02*
X93472000Y-114173000D01*
X92710000Y-114681000D02*
X93980000Y-114681000D01*
X93345000Y-114300000D02*
X93980000Y-114681000D01*
X92710000Y-114681000D02*
X93345000Y-114300000D01*
%TO.C,L9*%
X93218000Y-108839000D02*
X93218000Y-109093000D01*
X93472000Y-108839000D02*
X93218000Y-108839000D01*
X93472000Y-109093000D02*
X93472000Y-108839000D01*
X93218000Y-109093000D02*
X93472000Y-109093000D01*
X92710000Y-109601000D02*
X93980000Y-109601000D01*
X93345000Y-109220000D02*
X93980000Y-109601000D01*
X92710000Y-109601000D02*
X93345000Y-109220000D01*
%TO.C,L10*%
X93218000Y-103759000D02*
X93218000Y-104013000D01*
X93472000Y-103759000D02*
X93218000Y-103759000D01*
X93472000Y-104013000D02*
X93472000Y-103759000D01*
X93218000Y-104013000D02*
X93472000Y-104013000D01*
X92710000Y-104521000D02*
X93980000Y-104521000D01*
X93345000Y-104140000D02*
X93980000Y-104521000D01*
X92710000Y-104521000D02*
X93345000Y-104140000D01*
D11*
%TO.C,S1*%
X58521600Y-73101200D02*
X54737000Y-73101200D01*
X58521600Y-80568800D02*
X58521600Y-73101200D01*
X54737000Y-80568800D02*
X58521600Y-80568800D01*
X58470800Y-76835000D02*
G75*
G03*
X58470800Y-76835000I-3733800J0D01*
G01*
D15*
X53975000Y-75565000D02*
G75*
G03*
X53975000Y-75565000I-1270000J0D01*
G01*
X53975000Y-78105000D02*
G75*
G03*
X53975000Y-78105000I-1270000J0D01*
G01*
D11*
X68173600Y-80568800D02*
X68173600Y-73101200D01*
X68173600Y-80568800D02*
X58521600Y-80568800D01*
X68173600Y-73101200D02*
X58521600Y-73101200D01*
X65633600Y-80568800D02*
X65633600Y-73101200D01*
X60553600Y-80568800D02*
X60553600Y-73101200D01*
%TO.C,S2*%
X58521600Y-65481200D02*
X54737000Y-65481200D01*
X58521600Y-72948800D02*
X58521600Y-65481200D01*
X54737000Y-72948800D02*
X58521600Y-72948800D01*
X58470800Y-69215000D02*
G75*
G03*
X58470800Y-69215000I-3733800J0D01*
G01*
D15*
X53975000Y-67945000D02*
G75*
G03*
X53975000Y-67945000I-1270000J0D01*
G01*
X53975000Y-70485000D02*
G75*
G03*
X53975000Y-70485000I-1270000J0D01*
G01*
D11*
X68173600Y-72948800D02*
X68173600Y-65481200D01*
X68173600Y-72948800D02*
X58521600Y-72948800D01*
X68173600Y-65481200D02*
X58521600Y-65481200D01*
X65633600Y-72948800D02*
X65633600Y-65481200D01*
X60553600Y-72948800D02*
X60553600Y-65481200D01*
%TO.C,S3*%
X58521600Y-57861200D02*
X54737000Y-57861200D01*
X58521600Y-65328800D02*
X58521600Y-57861200D01*
X54737000Y-65328800D02*
X58521600Y-65328800D01*
X58470800Y-61595000D02*
G75*
G03*
X58470800Y-61595000I-3733800J0D01*
G01*
D15*
X53975000Y-60325000D02*
G75*
G03*
X53975000Y-60325000I-1270000J0D01*
G01*
X53975000Y-62865000D02*
G75*
G03*
X53975000Y-62865000I-1270000J0D01*
G01*
D11*
X68173600Y-65328800D02*
X68173600Y-57861200D01*
X68173600Y-65328800D02*
X58521600Y-65328800D01*
X68173600Y-57861200D02*
X58521600Y-57861200D01*
X65633600Y-65328800D02*
X65633600Y-57861200D01*
X60553600Y-65328800D02*
X60553600Y-57861200D01*
%TO.C,S4*%
X86461600Y-73101200D02*
X82677000Y-73101200D01*
X86461600Y-80568800D02*
X86461600Y-73101200D01*
X82677000Y-80568800D02*
X86461600Y-80568800D01*
X86410800Y-76835000D02*
G75*
G03*
X86410800Y-76835000I-3733800J0D01*
G01*
D15*
X81915000Y-75565000D02*
G75*
G03*
X81915000Y-75565000I-1270000J0D01*
G01*
X81915000Y-78105000D02*
G75*
G03*
X81915000Y-78105000I-1270000J0D01*
G01*
D11*
X96113600Y-80568800D02*
X96113600Y-73101200D01*
X96113600Y-80568800D02*
X86461600Y-80568800D01*
X96113600Y-73101200D02*
X86461600Y-73101200D01*
X93573600Y-80568800D02*
X93573600Y-73101200D01*
X88493600Y-80568800D02*
X88493600Y-73101200D01*
%TO.C,S5*%
X86461600Y-65481200D02*
X82677000Y-65481200D01*
X86461600Y-72948800D02*
X86461600Y-65481200D01*
X82677000Y-72948800D02*
X86461600Y-72948800D01*
X86410800Y-69215000D02*
G75*
G03*
X86410800Y-69215000I-3733800J0D01*
G01*
D15*
X81915000Y-67945000D02*
G75*
G03*
X81915000Y-67945000I-1270000J0D01*
G01*
X81915000Y-70485000D02*
G75*
G03*
X81915000Y-70485000I-1270000J0D01*
G01*
D11*
X96113600Y-72948800D02*
X96113600Y-65481200D01*
X96113600Y-72948800D02*
X86461600Y-72948800D01*
X96113600Y-65481200D02*
X86461600Y-65481200D01*
X93573600Y-72948800D02*
X93573600Y-65481200D01*
X88493600Y-72948800D02*
X88493600Y-65481200D01*
%TO.C,S6*%
X86461600Y-57861200D02*
X82677000Y-57861200D01*
X86461600Y-65328800D02*
X86461600Y-57861200D01*
X82677000Y-65328800D02*
X86461600Y-65328800D01*
X86410800Y-61595000D02*
G75*
G03*
X86410800Y-61595000I-3733800J0D01*
G01*
D15*
X81915000Y-60325000D02*
G75*
G03*
X81915000Y-60325000I-1270000J0D01*
G01*
X81915000Y-62865000D02*
G75*
G03*
X81915000Y-62865000I-1270000J0D01*
G01*
D11*
X96113600Y-65328800D02*
X96113600Y-57861200D01*
X96113600Y-65328800D02*
X86461600Y-65328800D01*
X96113600Y-57861200D02*
X86461600Y-57861200D01*
X93573600Y-65328800D02*
X93573600Y-57861200D01*
X88493600Y-65328800D02*
X88493600Y-57861200D01*
%TO.C,S7*%
X114401600Y-73101200D02*
X110617000Y-73101200D01*
X114401600Y-80568800D02*
X114401600Y-73101200D01*
X110617000Y-80568800D02*
X114401600Y-80568800D01*
X114350800Y-76835000D02*
G75*
G03*
X114350800Y-76835000I-3733800J0D01*
G01*
D15*
X109855000Y-75565000D02*
G75*
G03*
X109855000Y-75565000I-1270000J0D01*
G01*
X109855000Y-78105000D02*
G75*
G03*
X109855000Y-78105000I-1270000J0D01*
G01*
D11*
X124053600Y-80568800D02*
X124053600Y-73101200D01*
X124053600Y-80568800D02*
X114401600Y-80568800D01*
X124053600Y-73101200D02*
X114401600Y-73101200D01*
X121513600Y-80568800D02*
X121513600Y-73101200D01*
X116433600Y-80568800D02*
X116433600Y-73101200D01*
%TO.C,S8*%
X114401600Y-65481200D02*
X110617000Y-65481200D01*
X114401600Y-72948800D02*
X114401600Y-65481200D01*
X110617000Y-72948800D02*
X114401600Y-72948800D01*
X114350800Y-69215000D02*
G75*
G03*
X114350800Y-69215000I-3733800J0D01*
G01*
D15*
X109855000Y-67945000D02*
G75*
G03*
X109855000Y-67945000I-1270000J0D01*
G01*
X109855000Y-70485000D02*
G75*
G03*
X109855000Y-70485000I-1270000J0D01*
G01*
D11*
X124053600Y-72948800D02*
X124053600Y-65481200D01*
X124053600Y-72948800D02*
X114401600Y-72948800D01*
X124053600Y-65481200D02*
X114401600Y-65481200D01*
X121513600Y-72948800D02*
X121513600Y-65481200D01*
X116433600Y-72948800D02*
X116433600Y-65481200D01*
%TO.C,S9*%
X114401600Y-57861200D02*
X110617000Y-57861200D01*
X114401600Y-65328800D02*
X114401600Y-57861200D01*
X110617000Y-65328800D02*
X114401600Y-65328800D01*
X114350800Y-61595000D02*
G75*
G03*
X114350800Y-61595000I-3733800J0D01*
G01*
D15*
X109855000Y-60325000D02*
G75*
G03*
X109855000Y-60325000I-1270000J0D01*
G01*
X109855000Y-62865000D02*
G75*
G03*
X109855000Y-62865000I-1270000J0D01*
G01*
D11*
X124053600Y-65328800D02*
X124053600Y-57861200D01*
X124053600Y-65328800D02*
X114401600Y-65328800D01*
X124053600Y-57861200D02*
X114401600Y-57861200D01*
X121513600Y-65328800D02*
X121513600Y-57861200D01*
X116433600Y-65328800D02*
X116433600Y-57861200D01*
D14*
%TO.C,L1*%
X78740000Y-126746000D02*
X79375000Y-126365000D01*
X79375000Y-126365000D02*
X80010000Y-126746000D01*
X78740000Y-126746000D02*
X80010000Y-126746000D01*
X79248000Y-126238000D02*
X79502000Y-126238000D01*
X79502000Y-126238000D02*
X79502000Y-125984000D01*
X79502000Y-125984000D02*
X79248000Y-125984000D01*
X79248000Y-125984000D02*
X79248000Y-126238000D01*
D16*
%TO.C,C1*%
X62611000Y-108839000D02*
X62611000Y-107950000D01*
X64389000Y-108839000D02*
X62611000Y-108839000D01*
X64389000Y-107950000D02*
X64389000Y-108839000D01*
X62611000Y-105791000D02*
X62611000Y-106680000D01*
X64389000Y-105791000D02*
X62611000Y-105791000D01*
X64389000Y-106680000D02*
X64389000Y-105791000D01*
D17*
%TO.C,D1*%
X70245000Y-103565000D02*
X70245000Y-111065000D01*
X65645000Y-103565000D02*
X70245000Y-103565000D01*
X65645000Y-111065000D02*
X65645000Y-103565000D01*
X70245000Y-111065000D02*
X65645000Y-111065000D01*
D13*
%TO.C,TEENSY1*%
X99695000Y-130810000D02*
X117475000Y-130810000D01*
X99695000Y-95250000D02*
X99695000Y-130810000D01*
X117475000Y-95250000D02*
X99695000Y-95250000D01*
X117475000Y-130810000D02*
X117475000Y-95250000D01*
X104775000Y-132080000D02*
X104775000Y-130810000D01*
X112395000Y-132080000D02*
X104775000Y-132080000D01*
X112395000Y-130810000D02*
X112395000Y-132080000D01*
X109855000Y-97790000D02*
X107315000Y-97790000D01*
X109855000Y-102870000D02*
X109855000Y-97790000D01*
X107315000Y-102870000D02*
X109855000Y-102870000D01*
X107315000Y-97790000D02*
X107315000Y-102870000D01*
X109855000Y-100330000D02*
G75*
G03*
X109855000Y-100330000I-1270000J0D01*
G01*
D16*
X117475000Y-127000000D02*
G75*
G03*
X117475000Y-127000000I-1270000J0D01*
G01*
X117475000Y-124460000D02*
G75*
G03*
X117475000Y-124460000I-1270000J0D01*
G01*
X117475000Y-121920000D02*
G75*
G03*
X117475000Y-121920000I-1270000J0D01*
G01*
X117475000Y-119380000D02*
G75*
G03*
X117475000Y-119380000I-1270000J0D01*
G01*
X117475000Y-116840000D02*
G75*
G03*
X117475000Y-116840000I-1270000J0D01*
G01*
X117475000Y-114300000D02*
G75*
G03*
X117475000Y-114300000I-1270000J0D01*
G01*
X117475000Y-111760000D02*
G75*
G03*
X117475000Y-111760000I-1270000J0D01*
G01*
X117475000Y-109220000D02*
G75*
G03*
X117475000Y-109220000I-1270000J0D01*
G01*
X117475000Y-106680000D02*
G75*
G03*
X117475000Y-106680000I-1270000J0D01*
G01*
X117475000Y-104140000D02*
G75*
G03*
X117475000Y-104140000I-1270000J0D01*
G01*
X117475000Y-101600000D02*
G75*
G03*
X117475000Y-101600000I-1270000J0D01*
G01*
X117475000Y-99060000D02*
G75*
G03*
X117475000Y-99060000I-1270000J0D01*
G01*
X117475000Y-96520000D02*
G75*
G03*
X117475000Y-96520000I-1270000J0D01*
G01*
X102235000Y-129540000D02*
G75*
G03*
X102235000Y-129540000I-1270000J0D01*
G01*
X102235000Y-127000000D02*
G75*
G03*
X102235000Y-127000000I-1270000J0D01*
G01*
X102235000Y-124460000D02*
G75*
G03*
X102235000Y-124460000I-1270000J0D01*
G01*
X102235000Y-121920000D02*
G75*
G03*
X102235000Y-121920000I-1270000J0D01*
G01*
X102235000Y-119380000D02*
G75*
G03*
X102235000Y-119380000I-1270000J0D01*
G01*
X102235000Y-116840000D02*
G75*
G03*
X102235000Y-116840000I-1270000J0D01*
G01*
X102235000Y-114300000D02*
G75*
G03*
X102235000Y-114300000I-1270000J0D01*
G01*
X102235000Y-111760000D02*
G75*
G03*
X102235000Y-111760000I-1270000J0D01*
G01*
X102235000Y-109220000D02*
G75*
G03*
X102235000Y-109220000I-1270000J0D01*
G01*
X102235000Y-106680000D02*
G75*
G03*
X102235000Y-106680000I-1270000J0D01*
G01*
X102235000Y-104140000D02*
G75*
G03*
X102235000Y-104140000I-1270000J0D01*
G01*
X102235000Y-101600000D02*
G75*
G03*
X102235000Y-101600000I-1270000J0D01*
G01*
X102235000Y-99060000D02*
G75*
G03*
X102235000Y-99060000I-1270000J0D01*
G01*
X102235000Y-96520000D02*
G75*
G03*
X102235000Y-96520000I-1270000J0D01*
G01*
X117475000Y-128270000D02*
X114935000Y-128270000D01*
X114935000Y-128270000D02*
X114935000Y-130810000D01*
X113665000Y-119380000D02*
X113665000Y-109220000D01*
X113665000Y-109220000D02*
X103505000Y-109220000D01*
X103505000Y-109220000D02*
X103505000Y-119380000D01*
X103505000Y-119380000D02*
X113665000Y-119380000D01*
%TO.C,SW1*%
D10*
X86910333Y-118521238D02*
X87055476Y-118569619D01*
X87297380Y-118569619D01*
X87394142Y-118521238D01*
X87442523Y-118472857D01*
X87490904Y-118376095D01*
X87490904Y-118279333D01*
X87442523Y-118182571D01*
X87394142Y-118134190D01*
X87297380Y-118085809D01*
X87103857Y-118037428D01*
X87007095Y-117989047D01*
X86958714Y-117940666D01*
X86910333Y-117843904D01*
X86910333Y-117747142D01*
X86958714Y-117650380D01*
X87007095Y-117602000D01*
X87103857Y-117553619D01*
X87345761Y-117553619D01*
X87490904Y-117602000D01*
X87829571Y-117553619D02*
X88071476Y-118569619D01*
X88265000Y-117843904D01*
X88458523Y-118569619D01*
X88700428Y-117553619D01*
X89619666Y-118569619D02*
X89039095Y-118569619D01*
X89329380Y-118569619D02*
X89329380Y-117553619D01*
X89232619Y-117698761D01*
X89135857Y-117795523D01*
X89039095Y-117843904D01*
D18*
X81219523Y-127151190D02*
X81219523Y-126909285D01*
X81280000Y-126788333D01*
X81400952Y-126667380D01*
X81642857Y-126606904D01*
X82066190Y-126606904D01*
X82308095Y-126667380D01*
X82429047Y-126788333D01*
X82489523Y-126909285D01*
X82489523Y-127151190D01*
X82429047Y-127272142D01*
X82308095Y-127393095D01*
X82066190Y-127453571D01*
X81642857Y-127453571D01*
X81400952Y-127393095D01*
X81280000Y-127272142D01*
X81219523Y-127151190D01*
X82489523Y-126062619D02*
X81219523Y-126062619D01*
X82489523Y-125336904D01*
X81219523Y-125336904D01*
X93919523Y-127574523D02*
X93919523Y-127332619D01*
X93980000Y-127211666D01*
X94100952Y-127090714D01*
X94342857Y-127030238D01*
X94766190Y-127030238D01*
X95008095Y-127090714D01*
X95129047Y-127211666D01*
X95189523Y-127332619D01*
X95189523Y-127574523D01*
X95129047Y-127695476D01*
X95008095Y-127816428D01*
X94766190Y-127876904D01*
X94342857Y-127876904D01*
X94100952Y-127816428D01*
X93980000Y-127695476D01*
X93919523Y-127574523D01*
X94524285Y-126062619D02*
X94524285Y-126485952D01*
X95189523Y-126485952D02*
X93919523Y-126485952D01*
X93919523Y-125881190D01*
X94524285Y-124974047D02*
X94524285Y-125397380D01*
X95189523Y-125397380D02*
X93919523Y-125397380D01*
X93919523Y-124792619D01*
%TO.C,P1*%
D10*
X62689619Y-118224904D02*
X61673619Y-118224904D01*
X61673619Y-117837857D01*
X61722000Y-117741095D01*
X61770380Y-117692714D01*
X61867142Y-117644333D01*
X62012285Y-117644333D01*
X62109047Y-117692714D01*
X62157428Y-117741095D01*
X62205809Y-117837857D01*
X62205809Y-118224904D01*
X62689619Y-116676714D02*
X62689619Y-117257285D01*
X62689619Y-116967000D02*
X61673619Y-116967000D01*
X61818761Y-117063761D01*
X61915523Y-117160523D01*
X61963904Y-117257285D01*
%TO.C,L2*%
D14*
X83100333Y-112497809D02*
X82858428Y-112497809D01*
X82858428Y-111989809D01*
X83245476Y-112038190D02*
X83269666Y-112014000D01*
X83318047Y-111989809D01*
X83439000Y-111989809D01*
X83487380Y-112014000D01*
X83511571Y-112038190D01*
X83535761Y-112086571D01*
X83535761Y-112134952D01*
X83511571Y-112207523D01*
X83221285Y-112497809D01*
X83535761Y-112497809D01*
%TO.C,L3*%
X83100333Y-107417809D02*
X82858428Y-107417809D01*
X82858428Y-106909809D01*
X83221285Y-106909809D02*
X83535761Y-106909809D01*
X83366428Y-107103333D01*
X83439000Y-107103333D01*
X83487380Y-107127523D01*
X83511571Y-107151714D01*
X83535761Y-107200095D01*
X83535761Y-107321047D01*
X83511571Y-107369428D01*
X83487380Y-107393619D01*
X83439000Y-107417809D01*
X83293857Y-107417809D01*
X83245476Y-107393619D01*
X83221285Y-107369428D01*
%TO.C,L4*%
X83100333Y-102337809D02*
X82858428Y-102337809D01*
X82858428Y-101829809D01*
X83487380Y-101999142D02*
X83487380Y-102337809D01*
X83366428Y-101805619D02*
X83245476Y-102168476D01*
X83559952Y-102168476D01*
%TO.C,L5*%
X88180333Y-112497809D02*
X87938428Y-112497809D01*
X87938428Y-111989809D01*
X88591571Y-111989809D02*
X88349666Y-111989809D01*
X88325476Y-112231714D01*
X88349666Y-112207523D01*
X88398047Y-112183333D01*
X88519000Y-112183333D01*
X88567380Y-112207523D01*
X88591571Y-112231714D01*
X88615761Y-112280095D01*
X88615761Y-112401047D01*
X88591571Y-112449428D01*
X88567380Y-112473619D01*
X88519000Y-112497809D01*
X88398047Y-112497809D01*
X88349666Y-112473619D01*
X88325476Y-112449428D01*
%TO.C,L6*%
X88180333Y-107417809D02*
X87938428Y-107417809D01*
X87938428Y-106909809D01*
X88567380Y-106909809D02*
X88470619Y-106909809D01*
X88422238Y-106934000D01*
X88398047Y-106958190D01*
X88349666Y-107030761D01*
X88325476Y-107127523D01*
X88325476Y-107321047D01*
X88349666Y-107369428D01*
X88373857Y-107393619D01*
X88422238Y-107417809D01*
X88519000Y-107417809D01*
X88567380Y-107393619D01*
X88591571Y-107369428D01*
X88615761Y-107321047D01*
X88615761Y-107200095D01*
X88591571Y-107151714D01*
X88567380Y-107127523D01*
X88519000Y-107103333D01*
X88422238Y-107103333D01*
X88373857Y-107127523D01*
X88349666Y-107151714D01*
X88325476Y-107200095D01*
%TO.C,L7*%
X88180333Y-102337809D02*
X87938428Y-102337809D01*
X87938428Y-101829809D01*
X88301285Y-101829809D02*
X88639952Y-101829809D01*
X88422238Y-102337809D01*
%TO.C,L8*%
X93260333Y-112497809D02*
X93018428Y-112497809D01*
X93018428Y-111989809D01*
X93502238Y-112207523D02*
X93453857Y-112183333D01*
X93429666Y-112159142D01*
X93405476Y-112110761D01*
X93405476Y-112086571D01*
X93429666Y-112038190D01*
X93453857Y-112014000D01*
X93502238Y-111989809D01*
X93599000Y-111989809D01*
X93647380Y-112014000D01*
X93671571Y-112038190D01*
X93695761Y-112086571D01*
X93695761Y-112110761D01*
X93671571Y-112159142D01*
X93647380Y-112183333D01*
X93599000Y-112207523D01*
X93502238Y-112207523D01*
X93453857Y-112231714D01*
X93429666Y-112255904D01*
X93405476Y-112304285D01*
X93405476Y-112401047D01*
X93429666Y-112449428D01*
X93453857Y-112473619D01*
X93502238Y-112497809D01*
X93599000Y-112497809D01*
X93647380Y-112473619D01*
X93671571Y-112449428D01*
X93695761Y-112401047D01*
X93695761Y-112304285D01*
X93671571Y-112255904D01*
X93647380Y-112231714D01*
X93599000Y-112207523D01*
%TO.C,L9*%
X93260333Y-107417809D02*
X93018428Y-107417809D01*
X93018428Y-106909809D01*
X93453857Y-107417809D02*
X93550619Y-107417809D01*
X93599000Y-107393619D01*
X93623190Y-107369428D01*
X93671571Y-107296857D01*
X93695761Y-107200095D01*
X93695761Y-107006571D01*
X93671571Y-106958190D01*
X93647380Y-106934000D01*
X93599000Y-106909809D01*
X93502238Y-106909809D01*
X93453857Y-106934000D01*
X93429666Y-106958190D01*
X93405476Y-107006571D01*
X93405476Y-107127523D01*
X93429666Y-107175904D01*
X93453857Y-107200095D01*
X93502238Y-107224285D01*
X93599000Y-107224285D01*
X93647380Y-107200095D01*
X93671571Y-107175904D01*
X93695761Y-107127523D01*
%TO.C,L10*%
X93018428Y-102337809D02*
X92776523Y-102337809D01*
X92776523Y-101829809D01*
X93453857Y-102337809D02*
X93163571Y-102337809D01*
X93308714Y-102337809D02*
X93308714Y-101829809D01*
X93260333Y-101902380D01*
X93211952Y-101950761D01*
X93163571Y-101974952D01*
X93768333Y-101829809D02*
X93816714Y-101829809D01*
X93865095Y-101854000D01*
X93889285Y-101878190D01*
X93913476Y-101926571D01*
X93937666Y-102023333D01*
X93937666Y-102144285D01*
X93913476Y-102241047D01*
X93889285Y-102289428D01*
X93865095Y-102313619D01*
X93816714Y-102337809D01*
X93768333Y-102337809D01*
X93719952Y-102313619D01*
X93695761Y-102289428D01*
X93671571Y-102241047D01*
X93647380Y-102144285D01*
X93647380Y-102023333D01*
X93671571Y-101926571D01*
X93695761Y-101878190D01*
X93719952Y-101854000D01*
X93768333Y-101829809D01*
%TO.C,S1*%
D10*
X55148238Y-77609095D02*
X55196619Y-77463952D01*
X55196619Y-77222047D01*
X55148238Y-77125285D01*
X55099857Y-77076904D01*
X55003095Y-77028523D01*
X54906333Y-77028523D01*
X54809571Y-77076904D01*
X54761190Y-77125285D01*
X54712809Y-77222047D01*
X54664428Y-77415571D01*
X54616047Y-77512333D01*
X54567666Y-77560714D01*
X54470904Y-77609095D01*
X54374142Y-77609095D01*
X54277380Y-77560714D01*
X54229000Y-77512333D01*
X54180619Y-77415571D01*
X54180619Y-77173666D01*
X54229000Y-77028523D01*
X55196619Y-76060904D02*
X55196619Y-76641476D01*
X55196619Y-76351190D02*
X54180619Y-76351190D01*
X54325761Y-76447952D01*
X54422523Y-76544714D01*
X54470904Y-76641476D01*
%TO.C,S2*%
X55148238Y-69989095D02*
X55196619Y-69843952D01*
X55196619Y-69602047D01*
X55148238Y-69505285D01*
X55099857Y-69456904D01*
X55003095Y-69408523D01*
X54906333Y-69408523D01*
X54809571Y-69456904D01*
X54761190Y-69505285D01*
X54712809Y-69602047D01*
X54664428Y-69795571D01*
X54616047Y-69892333D01*
X54567666Y-69940714D01*
X54470904Y-69989095D01*
X54374142Y-69989095D01*
X54277380Y-69940714D01*
X54229000Y-69892333D01*
X54180619Y-69795571D01*
X54180619Y-69553666D01*
X54229000Y-69408523D01*
X54277380Y-69021476D02*
X54229000Y-68973095D01*
X54180619Y-68876333D01*
X54180619Y-68634428D01*
X54229000Y-68537666D01*
X54277380Y-68489285D01*
X54374142Y-68440904D01*
X54470904Y-68440904D01*
X54616047Y-68489285D01*
X55196619Y-69069857D01*
X55196619Y-68440904D01*
%TO.C,S3*%
X55148238Y-62369095D02*
X55196619Y-62223952D01*
X55196619Y-61982047D01*
X55148238Y-61885285D01*
X55099857Y-61836904D01*
X55003095Y-61788523D01*
X54906333Y-61788523D01*
X54809571Y-61836904D01*
X54761190Y-61885285D01*
X54712809Y-61982047D01*
X54664428Y-62175571D01*
X54616047Y-62272333D01*
X54567666Y-62320714D01*
X54470904Y-62369095D01*
X54374142Y-62369095D01*
X54277380Y-62320714D01*
X54229000Y-62272333D01*
X54180619Y-62175571D01*
X54180619Y-61933666D01*
X54229000Y-61788523D01*
X54180619Y-61449857D02*
X54180619Y-60820904D01*
X54567666Y-61159571D01*
X54567666Y-61014428D01*
X54616047Y-60917666D01*
X54664428Y-60869285D01*
X54761190Y-60820904D01*
X55003095Y-60820904D01*
X55099857Y-60869285D01*
X55148238Y-60917666D01*
X55196619Y-61014428D01*
X55196619Y-61304714D01*
X55148238Y-61401476D01*
X55099857Y-61449857D01*
%TO.C,S4*%
X83088238Y-77609095D02*
X83136619Y-77463952D01*
X83136619Y-77222047D01*
X83088238Y-77125285D01*
X83039857Y-77076904D01*
X82943095Y-77028523D01*
X82846333Y-77028523D01*
X82749571Y-77076904D01*
X82701190Y-77125285D01*
X82652809Y-77222047D01*
X82604428Y-77415571D01*
X82556047Y-77512333D01*
X82507666Y-77560714D01*
X82410904Y-77609095D01*
X82314142Y-77609095D01*
X82217380Y-77560714D01*
X82169000Y-77512333D01*
X82120619Y-77415571D01*
X82120619Y-77173666D01*
X82169000Y-77028523D01*
X82459285Y-76157666D02*
X83136619Y-76157666D01*
X82072238Y-76399571D02*
X82797952Y-76641476D01*
X82797952Y-76012523D01*
%TO.C,S5*%
X83088238Y-69989095D02*
X83136619Y-69843952D01*
X83136619Y-69602047D01*
X83088238Y-69505285D01*
X83039857Y-69456904D01*
X82943095Y-69408523D01*
X82846333Y-69408523D01*
X82749571Y-69456904D01*
X82701190Y-69505285D01*
X82652809Y-69602047D01*
X82604428Y-69795571D01*
X82556047Y-69892333D01*
X82507666Y-69940714D01*
X82410904Y-69989095D01*
X82314142Y-69989095D01*
X82217380Y-69940714D01*
X82169000Y-69892333D01*
X82120619Y-69795571D01*
X82120619Y-69553666D01*
X82169000Y-69408523D01*
X82120619Y-68489285D02*
X82120619Y-68973095D01*
X82604428Y-69021476D01*
X82556047Y-68973095D01*
X82507666Y-68876333D01*
X82507666Y-68634428D01*
X82556047Y-68537666D01*
X82604428Y-68489285D01*
X82701190Y-68440904D01*
X82943095Y-68440904D01*
X83039857Y-68489285D01*
X83088238Y-68537666D01*
X83136619Y-68634428D01*
X83136619Y-68876333D01*
X83088238Y-68973095D01*
X83039857Y-69021476D01*
%TO.C,S6*%
X83088238Y-62369095D02*
X83136619Y-62223952D01*
X83136619Y-61982047D01*
X83088238Y-61885285D01*
X83039857Y-61836904D01*
X82943095Y-61788523D01*
X82846333Y-61788523D01*
X82749571Y-61836904D01*
X82701190Y-61885285D01*
X82652809Y-61982047D01*
X82604428Y-62175571D01*
X82556047Y-62272333D01*
X82507666Y-62320714D01*
X82410904Y-62369095D01*
X82314142Y-62369095D01*
X82217380Y-62320714D01*
X82169000Y-62272333D01*
X82120619Y-62175571D01*
X82120619Y-61933666D01*
X82169000Y-61788523D01*
X82120619Y-60917666D02*
X82120619Y-61111190D01*
X82169000Y-61207952D01*
X82217380Y-61256333D01*
X82362523Y-61353095D01*
X82556047Y-61401476D01*
X82943095Y-61401476D01*
X83039857Y-61353095D01*
X83088238Y-61304714D01*
X83136619Y-61207952D01*
X83136619Y-61014428D01*
X83088238Y-60917666D01*
X83039857Y-60869285D01*
X82943095Y-60820904D01*
X82701190Y-60820904D01*
X82604428Y-60869285D01*
X82556047Y-60917666D01*
X82507666Y-61014428D01*
X82507666Y-61207952D01*
X82556047Y-61304714D01*
X82604428Y-61353095D01*
X82701190Y-61401476D01*
%TO.C,S7*%
X111028238Y-77609095D02*
X111076619Y-77463952D01*
X111076619Y-77222047D01*
X111028238Y-77125285D01*
X110979857Y-77076904D01*
X110883095Y-77028523D01*
X110786333Y-77028523D01*
X110689571Y-77076904D01*
X110641190Y-77125285D01*
X110592809Y-77222047D01*
X110544428Y-77415571D01*
X110496047Y-77512333D01*
X110447666Y-77560714D01*
X110350904Y-77609095D01*
X110254142Y-77609095D01*
X110157380Y-77560714D01*
X110109000Y-77512333D01*
X110060619Y-77415571D01*
X110060619Y-77173666D01*
X110109000Y-77028523D01*
X110060619Y-76689857D02*
X110060619Y-76012523D01*
X111076619Y-76447952D01*
%TO.C,S8*%
X111028238Y-69989095D02*
X111076619Y-69843952D01*
X111076619Y-69602047D01*
X111028238Y-69505285D01*
X110979857Y-69456904D01*
X110883095Y-69408523D01*
X110786333Y-69408523D01*
X110689571Y-69456904D01*
X110641190Y-69505285D01*
X110592809Y-69602047D01*
X110544428Y-69795571D01*
X110496047Y-69892333D01*
X110447666Y-69940714D01*
X110350904Y-69989095D01*
X110254142Y-69989095D01*
X110157380Y-69940714D01*
X110109000Y-69892333D01*
X110060619Y-69795571D01*
X110060619Y-69553666D01*
X110109000Y-69408523D01*
X110496047Y-68827952D02*
X110447666Y-68924714D01*
X110399285Y-68973095D01*
X110302523Y-69021476D01*
X110254142Y-69021476D01*
X110157380Y-68973095D01*
X110109000Y-68924714D01*
X110060619Y-68827952D01*
X110060619Y-68634428D01*
X110109000Y-68537666D01*
X110157380Y-68489285D01*
X110254142Y-68440904D01*
X110302523Y-68440904D01*
X110399285Y-68489285D01*
X110447666Y-68537666D01*
X110496047Y-68634428D01*
X110496047Y-68827952D01*
X110544428Y-68924714D01*
X110592809Y-68973095D01*
X110689571Y-69021476D01*
X110883095Y-69021476D01*
X110979857Y-68973095D01*
X111028238Y-68924714D01*
X111076619Y-68827952D01*
X111076619Y-68634428D01*
X111028238Y-68537666D01*
X110979857Y-68489285D01*
X110883095Y-68440904D01*
X110689571Y-68440904D01*
X110592809Y-68489285D01*
X110544428Y-68537666D01*
X110496047Y-68634428D01*
%TO.C,S9*%
X111028238Y-62369095D02*
X111076619Y-62223952D01*
X111076619Y-61982047D01*
X111028238Y-61885285D01*
X110979857Y-61836904D01*
X110883095Y-61788523D01*
X110786333Y-61788523D01*
X110689571Y-61836904D01*
X110641190Y-61885285D01*
X110592809Y-61982047D01*
X110544428Y-62175571D01*
X110496047Y-62272333D01*
X110447666Y-62320714D01*
X110350904Y-62369095D01*
X110254142Y-62369095D01*
X110157380Y-62320714D01*
X110109000Y-62272333D01*
X110060619Y-62175571D01*
X110060619Y-61933666D01*
X110109000Y-61788523D01*
X111076619Y-61304714D02*
X111076619Y-61111190D01*
X111028238Y-61014428D01*
X110979857Y-60966047D01*
X110834714Y-60869285D01*
X110641190Y-60820904D01*
X110254142Y-60820904D01*
X110157380Y-60869285D01*
X110109000Y-60917666D01*
X110060619Y-61014428D01*
X110060619Y-61207952D01*
X110109000Y-61304714D01*
X110157380Y-61353095D01*
X110254142Y-61401476D01*
X110496047Y-61401476D01*
X110592809Y-61353095D01*
X110641190Y-61304714D01*
X110689571Y-61207952D01*
X110689571Y-61014428D01*
X110641190Y-60917666D01*
X110592809Y-60869285D01*
X110496047Y-60820904D01*
%TO.C,L1*%
D14*
X79290333Y-124562809D02*
X79048428Y-124562809D01*
X79048428Y-124054809D01*
X79725761Y-124562809D02*
X79435476Y-124562809D01*
X79580619Y-124562809D02*
X79580619Y-124054809D01*
X79532238Y-124127380D01*
X79483857Y-124175761D01*
X79435476Y-124199952D01*
%TO.C,C1*%
D19*
X63394166Y-109573785D02*
X63363928Y-109604023D01*
X63273214Y-109634261D01*
X63212738Y-109634261D01*
X63122023Y-109604023D01*
X63061547Y-109543547D01*
X63031309Y-109483071D01*
X63001071Y-109362119D01*
X63001071Y-109271404D01*
X63031309Y-109150452D01*
X63061547Y-109089976D01*
X63122023Y-109029500D01*
X63212738Y-108999261D01*
X63273214Y-108999261D01*
X63363928Y-109029500D01*
X63394166Y-109059738D01*
X63998928Y-109634261D02*
X63636071Y-109634261D01*
X63817500Y-109634261D02*
X63817500Y-108999261D01*
X63757023Y-109089976D01*
X63696547Y-109150452D01*
X63636071Y-109180690D01*
X62819642Y-105570261D02*
X62456785Y-105570261D01*
X62638214Y-105570261D02*
X62638214Y-104935261D01*
X62577738Y-105025976D01*
X62517261Y-105086452D01*
X62456785Y-105116690D01*
X63212738Y-104935261D02*
X63273214Y-104935261D01*
X63333690Y-104965500D01*
X63363928Y-104995738D01*
X63394166Y-105056214D01*
X63424404Y-105177166D01*
X63424404Y-105328357D01*
X63394166Y-105449309D01*
X63363928Y-105509785D01*
X63333690Y-105540023D01*
X63273214Y-105570261D01*
X63212738Y-105570261D01*
X63152261Y-105540023D01*
X63122023Y-105509785D01*
X63091785Y-105449309D01*
X63061547Y-105328357D01*
X63061547Y-105177166D01*
X63091785Y-105056214D01*
X63122023Y-104995738D01*
X63152261Y-104965500D01*
X63212738Y-104935261D01*
X63968690Y-105146928D02*
X63968690Y-105570261D01*
X63696547Y-105146928D02*
X63696547Y-105479547D01*
X63726785Y-105540023D01*
X63787261Y-105570261D01*
X63877976Y-105570261D01*
X63938452Y-105540023D01*
X63968690Y-105509785D01*
X64482738Y-105237642D02*
X64271071Y-105237642D01*
X64271071Y-105570261D02*
X64271071Y-104935261D01*
X64573452Y-104935261D01*
%TO.C,D1*%
D10*
X67195095Y-103174619D02*
X67195095Y-102158619D01*
X67437000Y-102158619D01*
X67582142Y-102207000D01*
X67678904Y-102303761D01*
X67727285Y-102400523D01*
X67775666Y-102594047D01*
X67775666Y-102739190D01*
X67727285Y-102932714D01*
X67678904Y-103029476D01*
X67582142Y-103126238D01*
X67437000Y-103174619D01*
X67195095Y-103174619D01*
X68743285Y-103174619D02*
X68162714Y-103174619D01*
X68453000Y-103174619D02*
X68453000Y-102158619D01*
X68356238Y-102303761D01*
X68259476Y-102400523D01*
X68162714Y-102448904D01*
%TO.C,TEENSY1*%
X105440238Y-93423619D02*
X106020809Y-93423619D01*
X105730523Y-94439619D02*
X105730523Y-93423619D01*
X106359476Y-93907428D02*
X106698142Y-93907428D01*
X106843285Y-94439619D02*
X106359476Y-94439619D01*
X106359476Y-93423619D01*
X106843285Y-93423619D01*
X107278714Y-93907428D02*
X107617380Y-93907428D01*
X107762523Y-94439619D02*
X107278714Y-94439619D01*
X107278714Y-93423619D01*
X107762523Y-93423619D01*
X108197952Y-94439619D02*
X108197952Y-93423619D01*
X108778523Y-94439619D01*
X108778523Y-93423619D01*
X109213952Y-94391238D02*
X109359095Y-94439619D01*
X109601000Y-94439619D01*
X109697761Y-94391238D01*
X109746142Y-94342857D01*
X109794523Y-94246095D01*
X109794523Y-94149333D01*
X109746142Y-94052571D01*
X109697761Y-94004190D01*
X109601000Y-93955809D01*
X109407476Y-93907428D01*
X109310714Y-93859047D01*
X109262333Y-93810666D01*
X109213952Y-93713904D01*
X109213952Y-93617142D01*
X109262333Y-93520380D01*
X109310714Y-93472000D01*
X109407476Y-93423619D01*
X109649380Y-93423619D01*
X109794523Y-93472000D01*
X110423476Y-93955809D02*
X110423476Y-94439619D01*
X110084809Y-93423619D02*
X110423476Y-93955809D01*
X110762142Y-93423619D01*
X111633000Y-94439619D02*
X111052428Y-94439619D01*
X111342714Y-94439619D02*
X111342714Y-93423619D01*
X111245952Y-93568761D01*
X111149190Y-93665523D01*
X111052428Y-93713904D01*
X104327476Y-128973619D02*
X104908047Y-128973619D01*
X104617761Y-129989619D02*
X104617761Y-128973619D01*
X105246714Y-129457428D02*
X105585380Y-129457428D01*
X105730523Y-129989619D02*
X105246714Y-129989619D01*
X105246714Y-128973619D01*
X105730523Y-128973619D01*
X106165952Y-129457428D02*
X106504619Y-129457428D01*
X106649761Y-129989619D02*
X106165952Y-129989619D01*
X106165952Y-128973619D01*
X106649761Y-128973619D01*
X107085190Y-129989619D02*
X107085190Y-128973619D01*
X107665761Y-129989619D01*
X107665761Y-128973619D01*
X108101190Y-129941238D02*
X108246333Y-129989619D01*
X108488238Y-129989619D01*
X108585000Y-129941238D01*
X108633380Y-129892857D01*
X108681761Y-129796095D01*
X108681761Y-129699333D01*
X108633380Y-129602571D01*
X108585000Y-129554190D01*
X108488238Y-129505809D01*
X108294714Y-129457428D01*
X108197952Y-129409047D01*
X108149571Y-129360666D01*
X108101190Y-129263904D01*
X108101190Y-129167142D01*
X108149571Y-129070380D01*
X108197952Y-129022000D01*
X108294714Y-128973619D01*
X108536619Y-128973619D01*
X108681761Y-129022000D01*
X109310714Y-129505809D02*
X109310714Y-129989619D01*
X108972047Y-128973619D02*
X109310714Y-129505809D01*
X109649380Y-128973619D01*
X109746142Y-130086380D02*
X110520238Y-130086380D01*
X111197571Y-129312285D02*
X111197571Y-129989619D01*
X110955666Y-128925238D02*
X110713761Y-129650952D01*
X111342714Y-129650952D01*
X111729761Y-129892857D02*
X111778142Y-129941238D01*
X111729761Y-129989619D01*
X111681380Y-129941238D01*
X111729761Y-129892857D01*
X111729761Y-129989619D01*
X112407095Y-128973619D02*
X112503857Y-128973619D01*
X112600619Y-129022000D01*
X112649000Y-129070380D01*
X112697380Y-129167142D01*
X112745761Y-129360666D01*
X112745761Y-129602571D01*
X112697380Y-129796095D01*
X112649000Y-129892857D01*
X112600619Y-129941238D01*
X112503857Y-129989619D01*
X112407095Y-129989619D01*
X112310333Y-129941238D01*
X112261952Y-129892857D01*
X112213571Y-129796095D01*
X112165190Y-129602571D01*
X112165190Y-129360666D01*
X112213571Y-129167142D01*
X112261952Y-129070380D01*
X112310333Y-129022000D01*
X112407095Y-128973619D01*
D16*
X104690333Y-116029619D02*
X104690333Y-115352285D01*
X104690333Y-115013619D02*
X104641952Y-115062000D01*
X104690333Y-115110380D01*
X104738714Y-115062000D01*
X104690333Y-115013619D01*
X104690333Y-115110380D01*
X105174142Y-116029619D02*
X105174142Y-115013619D01*
X105512809Y-115739333D01*
X105851476Y-115013619D01*
X105851476Y-116029619D01*
X106238523Y-115013619D02*
X106915857Y-116029619D01*
X106915857Y-115013619D02*
X106238523Y-116029619D01*
X107883476Y-116029619D02*
X107544809Y-115545809D01*
X107302904Y-116029619D02*
X107302904Y-115013619D01*
X107689952Y-115013619D01*
X107786714Y-115062000D01*
X107835095Y-115110380D01*
X107883476Y-115207142D01*
X107883476Y-115352285D01*
X107835095Y-115449047D01*
X107786714Y-115497428D01*
X107689952Y-115545809D01*
X107302904Y-115545809D01*
X108173761Y-115013619D02*
X108754333Y-115013619D01*
X108464047Y-116029619D02*
X108464047Y-115013619D01*
X109625190Y-116029619D02*
X109044619Y-116029619D01*
X109334904Y-116029619D02*
X109334904Y-115013619D01*
X109238142Y-115158761D01*
X109141380Y-115255523D01*
X109044619Y-115303904D01*
X110254142Y-115013619D02*
X110350904Y-115013619D01*
X110447666Y-115062000D01*
X110496047Y-115110380D01*
X110544428Y-115207142D01*
X110592809Y-115400666D01*
X110592809Y-115642571D01*
X110544428Y-115836095D01*
X110496047Y-115932857D01*
X110447666Y-115981238D01*
X110350904Y-116029619D01*
X110254142Y-116029619D01*
X110157380Y-115981238D01*
X110109000Y-115932857D01*
X110060619Y-115836095D01*
X110012238Y-115642571D01*
X110012238Y-115400666D01*
X110060619Y-115207142D01*
X110109000Y-115110380D01*
X110157380Y-115062000D01*
X110254142Y-115013619D01*
X111463666Y-115013619D02*
X111270142Y-115013619D01*
X111173380Y-115062000D01*
X111125000Y-115110380D01*
X111028238Y-115255523D01*
X110979857Y-115449047D01*
X110979857Y-115836095D01*
X111028238Y-115932857D01*
X111076619Y-115981238D01*
X111173380Y-116029619D01*
X111366904Y-116029619D01*
X111463666Y-115981238D01*
X111512047Y-115932857D01*
X111560428Y-115836095D01*
X111560428Y-115594190D01*
X111512047Y-115497428D01*
X111463666Y-115449047D01*
X111366904Y-115400666D01*
X111173380Y-115400666D01*
X111076619Y-115449047D01*
X111028238Y-115497428D01*
X110979857Y-115594190D01*
X111947476Y-115110380D02*
X111995857Y-115062000D01*
X112092619Y-115013619D01*
X112334523Y-115013619D01*
X112431285Y-115062000D01*
X112479666Y-115110380D01*
X112528047Y-115207142D01*
X112528047Y-115303904D01*
X112479666Y-115449047D01*
X111899095Y-116029619D01*
X112528047Y-116029619D01*
%TD*%
%LPC*%
D20*
%TO.C,SW1*%
X84580000Y-120470000D03*
X91950000Y-120470000D03*
D21*
X88265000Y-120470000D03*
D22*
X93265000Y-129540000D03*
X83265000Y-129540000D03*
%TD*%
D23*
%TO.C,P1*%
X67945000Y-127175000D03*
D24*
X74395000Y-123375000D03*
X61495000Y-123375000D03*
D25*
X68595000Y-114425000D03*
%TD*%
D26*
%TO.C,L2*%
X83185000Y-113245900D03*
X83185000Y-115354100D03*
%TD*%
%TO.C,L3*%
X83185000Y-108165900D03*
X83185000Y-110274100D03*
%TD*%
%TO.C,L4*%
X83185000Y-103085900D03*
X83185000Y-105194100D03*
%TD*%
%TO.C,L5*%
X88265000Y-113245900D03*
X88265000Y-115354100D03*
%TD*%
%TO.C,L6*%
X88265000Y-108165900D03*
X88265000Y-110274100D03*
%TD*%
%TO.C,L7*%
X88265000Y-103085900D03*
X88265000Y-105194100D03*
%TD*%
%TO.C,L8*%
X93345000Y-113245900D03*
X93345000Y-115354100D03*
%TD*%
%TO.C,L9*%
X93345000Y-108165900D03*
X93345000Y-110274100D03*
%TD*%
%TO.C,L10*%
X93345000Y-103085900D03*
X93345000Y-105194100D03*
%TD*%
D27*
%TO.C,S1*%
X52705000Y-75565000D03*
X52705000Y-78105000D03*
%TD*%
%TO.C,S2*%
X52705000Y-67945000D03*
X52705000Y-70485000D03*
%TD*%
%TO.C,S3*%
X52705000Y-60325000D03*
X52705000Y-62865000D03*
%TD*%
%TO.C,S4*%
X80645000Y-75565000D03*
X80645000Y-78105000D03*
%TD*%
%TO.C,S5*%
X80645000Y-67945000D03*
X80645000Y-70485000D03*
%TD*%
%TO.C,S6*%
X80645000Y-60325000D03*
X80645000Y-62865000D03*
%TD*%
%TO.C,S7*%
X108585000Y-75565000D03*
X108585000Y-78105000D03*
%TD*%
%TO.C,S8*%
X108585000Y-67945000D03*
X108585000Y-70485000D03*
%TD*%
%TO.C,S9*%
X108585000Y-60325000D03*
X108585000Y-62865000D03*
%TD*%
D26*
%TO.C,L1*%
X79375000Y-125310900D03*
X79375000Y-127419100D03*
%TD*%
D28*
%TO.C,FID1*%
X53975000Y-53975000D03*
%TD*%
%TO.C,FID2*%
X122555000Y-53975000D03*
%TD*%
%TO.C,FID3*%
X122555000Y-128270000D03*
%TD*%
%TO.C,FID4*%
X53975000Y-128270000D03*
%TD*%
D29*
%TO.C,MH1*%
X92710000Y-85090000D03*
%TD*%
%TO.C,MH2*%
X64770000Y-56515000D03*
%TD*%
%TO.C,MH3*%
X120650000Y-56515000D03*
%TD*%
D30*
%TO.C,C1*%
X63500000Y-108356400D03*
X63500000Y-106273600D03*
%TD*%
D31*
%TO.C,D1*%
X66880000Y-110095000D03*
X69010000Y-110095000D03*
D32*
X67945000Y-106295000D03*
%TD*%
D33*
%TO.C,TEENSY1*%
X100965000Y-129540000D03*
X100965000Y-127000000D03*
X100965000Y-124460000D03*
X100965000Y-121920000D03*
X100965000Y-119380000D03*
X100965000Y-116840000D03*
X100965000Y-114300000D03*
X100965000Y-111760000D03*
X100965000Y-109220000D03*
X100965000Y-106680000D03*
X100965000Y-104140000D03*
X100965000Y-101600000D03*
X100965000Y-99060000D03*
X100965000Y-96520000D03*
X116205000Y-96520000D03*
X116205000Y-99060000D03*
X116205000Y-101600000D03*
X116205000Y-104140000D03*
X116205000Y-106680000D03*
X116205000Y-109220000D03*
X116205000Y-111760000D03*
X116205000Y-114300000D03*
X116205000Y-116840000D03*
X116205000Y-119380000D03*
X116205000Y-121920000D03*
X116205000Y-124460000D03*
X116205000Y-127000000D03*
D34*
X116205000Y-129540000D03*
%TD*%
M02*
